<?xml version="1.0" encoding="utf-8"?>
<!-- Generator: Adobe Illustrator 18.1.0, SVG Export Plug-In . SVG Version: 6.00 Build 0)  -->
<svg version="1.1" id="Layer_1" xmlns="http://www.w3.org/2000/svg" xmlns:xlink="http://www.w3.org/1999/xlink" x="0px" y="0px"
	 viewBox="0 0 268.7 65.1" style="enable-background:new 0 0 268.7 65.1;" xml:space="preserve">
<style type="text/css">
	.st0{fill:#A6A8AB;}
	.st1{fill:#FFFFFF;}
	.st2{fill:none;stroke:#A6A8AB;stroke-width:0.9921;stroke-miterlimit:22.9256;}
	.st3{fill:none;stroke:#A6A8AB;stroke-width:0.4632;stroke-miterlimit:22.9256;}
	.st4{fill:#006A34;}
	.st5{fill:#929497;}
	.st6{fill:#FCB813;}
	.st7{clip-path:url(#SVGID_1_);fill:#FCB813;}
	.st8{clip-path:url(#SVGID_1_);fill:#FFFFFF;}
	.st9{clip-path:url(#SVGID_1_);fill:#006A34;}
</style>
<g>
	<path class="st0" d="M66.6,35.4c0,16.1-13.1,29.2-29.2,29.2c-16.1,0-29.2-13.1-29.2-29.2c0-16.1,13.1-29.2,29.2-29.2
		C53.5,6.2,66.6,19.3,66.6,35.4L66.6,35.4z"/>
	<path class="st1" d="M66.6,35.4c0,16.1-13.1,29.2-29.2,29.2c-16.1,0-29.2-13.1-29.2-29.2c0-16.1,13.1-29.2,29.2-29.2
		C53.5,6.2,66.6,19.3,66.6,35.4L66.6,35.4z"/>
	<path class="st2" d="M66.6,35.4c0,16.1-13.1,29.2-29.2,29.2c-16.1,0-29.2-13.1-29.2-29.2c0-16.1,13.1-29.2,29.2-29.2
		C53.5,6.2,66.6,19.3,66.6,35.4"/>
	<path class="st0" d="M61.5,45c0.9-3,1.4-6.1,1.4-9.4h3.7c0-0.1,0-0.1,0-0.2c0-0.1,0-0.3,0-0.4h-3.7c0-3.6-0.7-7.1-1.7-10.3
		c1.1-0.2,2.1-0.4,3.1-0.7c-0.1-0.2-0.2-0.4-0.3-0.6c-1,0.2-2,0.4-3.1,0.6c-1.1-3.1-2.7-6-4.6-8.4c0.6-0.2,1.3-0.5,1.9-0.7
		c-0.1-0.1-0.3-0.3-0.4-0.4c-0.6,0.2-1.2,0.5-1.8,0.7c-2.7-3.3-6-5.9-9.8-7.5c0,0,0.1-0.1,0.1-0.1c-0.2-0.1-0.5-0.1-0.7-0.2
		c0,0-0.1,0-0.1,0.1c-0.4-0.2-0.8-0.3-1.2-0.4c-2.2-0.5-4.5-0.8-6.9-0.8c-2.4,0-4.7,0.3-6.9,0.8c-0.4,0.1-0.8,0.3-1.2,0.4
		c0,0-0.1,0-0.1-0.1c-0.2,0.1-0.5,0.1-0.7,0.2c0,0,0.1,0.1,0.1,0.1c-3.8,1.6-7.1,4.2-9.8,7.5c-0.6-0.2-1.2-0.5-1.8-0.7
		c-0.1,0.1-0.3,0.3-0.4,0.4c0.6,0.3,1.2,0.5,1.9,0.7c-1.9,2.5-3.5,5.3-4.6,8.4c-1.1-0.2-2.1-0.4-3.1-0.6c-0.1,0.2-0.2,0.4-0.3,0.6
		c1,0.2,2.1,0.5,3.1,0.7c-1.1,3.2-1.7,6.7-1.7,10.3H8.2c0,0.1,0,0.3,0,0.4c0,0.1,0,0.1,0,0.2h3.7c0,3.3,0.5,6.5,1.4,9.4
		c-1.1,0.2-2.2,0.4-3.2,0.7c0.1,0.2,0.1,0.4,0.2,0.6c1-0.2,2.1-0.5,3.2-0.7c1,3.2,2.5,6.1,4.3,8.6c-0.7,0.3-1.3,0.5-2,0.8
		c0.1,0.1,0.3,0.3,0.4,0.4c0.6-0.3,1.2-0.5,1.9-0.8c2.6,3.5,5.9,6.2,9.6,8c-0.1,0.1-0.1,0.1-0.2,0.2c0.2,0.1,0.4,0.1,0.6,0.2
		c0,0,0.1-0.1,0.1-0.1c0.7,0.3,1.3,0.5,2,0.8c2.3,0.6,4.6,0.9,7.1,0.9c2.4,0,4.8-0.3,7.1-0.9c0.7-0.2,1.3-0.5,2-0.8
		c0.1,0,0.1,0.1,0.1,0.1c0.2-0.1,0.4-0.1,0.6-0.2c-0.1-0.1-0.1-0.1-0.2-0.2c3.7-1.8,7-4.5,9.6-8c0.7,0.3,1.3,0.5,1.9,0.8
		c0.1-0.1,0.3-0.3,0.4-0.4c-0.6-0.3-1.3-0.6-2-0.8c1.8-2.5,3.3-5.4,4.3-8.6c1.1,0.2,2.1,0.4,3.2,0.7c0.1-0.2,0.2-0.4,0.2-0.6
		C63.6,45.5,62.6,45.2,61.5,45L61.5,45z M62.3,35L62.3,35h-7.6c0-3.2-0.4-6.3-0.9-9.2c2.3-0.3,4.6-0.6,6.8-1
		C61.6,28,62.2,31.4,62.3,35L62.3,35z M46,25.9L46,25.9c-0.3-2.8-0.7-5.3-1.2-7.6c1.9-0.2,3.8-0.5,5.6-0.9c1.1,2.4,2,5,2.6,7.9
		C50.8,25.6,48.4,25.8,46,25.9L46,25.9z M53.2,25.9L53.2,25.9c0.6,2.9,0.9,5.9,0.9,9.1h-7.6c0-3-0.1-5.8-0.4-8.5
		C48.5,26.4,50.9,26.2,53.2,25.9L53.2,25.9z M37.4,42.8L37.4,42.8c-2.8,0-5.5,0.1-8.2,0.2c-0.2-2.4-0.3-4.9-0.3-7.5h17
		c0,2.6-0.1,5.1-0.3,7.5C42.9,42.9,40.2,42.8,37.4,42.8L37.4,42.8z M45.5,43.7L45.5,43.7c-0.2,2.7-0.6,5.3-1.1,7.6
		c-2.3-0.3-4.6-0.4-7.1-0.4c-2.4,0-4.8,0.1-7.1,0.4c-0.5-2.3-0.8-4.9-1.1-7.6c2.7-0.2,5.4-0.2,8.1-0.2
		C40.2,43.4,42.9,43.5,45.5,43.7L45.5,43.7z M37.4,26.8L37.4,26.8c2.7,0,5.4-0.1,8.1-0.2c0.3,2.7,0.4,5.5,0.4,8.4h-17
		c0-2.9,0.2-5.7,0.4-8.4C31.9,26.7,34.6,26.8,37.4,26.8L37.4,26.8z M29.3,26L29.3,26c0.3-2.7,0.7-5.3,1.2-7.6
		c2.2,0.2,4.5,0.4,6.8,0.4c2.3,0,4.6-0.1,6.8-0.4c0.5,2.3,0.9,4.9,1.2,7.6c-2.6,0.2-5.3,0.2-8,0.2C34.6,26.2,32,26.1,29.3,26
		L29.3,26z M44.7,17.7L44.7,17.7c-0.7-3.2-1.6-5.8-2.7-7.8c0.7-0.3,1.5-0.6,2.1-0.9c2.3,1.8,4.4,4.5,6,7.8
		C48.4,17.2,46.6,17.5,44.7,17.7L44.7,17.7z M44.1,17.8L44.1,17.8c-2.2,0.2-4.4,0.4-6.7,0.4c-2.3,0-4.5-0.1-6.7-0.4
		c0.7-3.1,1.6-5.7,2.6-7.7c1.3,0.4,2.7,0.6,4.1,0.6c1.4,0,2.8-0.2,4.1-0.6C42.5,12.1,43.4,14.7,44.1,17.8L44.1,17.8z M30,17.7
		L30,17.7c-1.9-0.2-3.7-0.5-5.4-0.9c1.6-3.3,3.7-6,6-7.8c0.7,0.4,1.4,0.7,2.1,0.9C31.7,11.9,30.7,14.6,30,17.7L30,17.7z M29.9,18.3
		L29.9,18.3c-0.5,2.3-0.9,4.9-1.2,7.6c-2.4-0.2-4.7-0.4-7-0.6c0.6-2.9,1.5-5.6,2.6-7.9C26.1,17.8,28,18.1,29.9,18.3L29.9,18.3z
		 M28.7,26.5L28.7,26.5c-0.2,2.7-0.4,5.5-0.4,8.5h-7.6c0-3.2,0.3-6.2,0.9-9.1C23.9,26.2,26.3,26.4,28.7,26.5L28.7,26.5z M28.3,35.6
		L28.3,35.6c0,2.6,0.1,5.1,0.3,7.5c-2.4,0.2-4.8,0.4-7.2,0.7c-0.5-2.6-0.7-5.3-0.7-8.2H28.3L28.3,35.6z M28.6,43.7L28.6,43.7
		c0.2,2.7,0.6,5.3,1.1,7.6c-2,0.3-3.9,0.6-5.8,1c-1-2.4-1.8-5.1-2.4-8C23.8,44.1,26.2,43.9,28.6,43.7L28.6,43.7z M29.8,51.9
		L29.8,51.9c0.6,3.1,1.5,5.8,2.5,8c-0.9,0.3-1.7,0.7-2.4,1.2c-2.2-2-4.2-4.8-5.7-8.2C25.9,52.5,27.8,52.2,29.8,51.9L29.8,51.9z
		 M30.4,51.9L30.4,51.9c2.2-0.2,4.6-0.4,6.9-0.4s4.7,0.1,6.9,0.4c-0.6,3.1-1.5,5.8-2.4,7.8c-1.4-0.5-3-0.8-4.5-0.8
		c-1.6,0-3.1,0.3-4.5,0.8C31.9,57.6,31.1,54.9,30.4,51.9L30.4,51.9z M45,51.9L45,51.9c2,0.2,3.9,0.6,5.7,1c-1.5,3.4-3.5,6.2-5.7,8.2
		c-0.8-0.5-1.6-0.9-2.4-1.2C43.5,57.8,44.3,55.1,45,51.9L45,51.9z M45.1,51.3L45.1,51.3c0.5-2.3,0.8-4.9,1.1-7.6
		c2.4,0.2,4.8,0.4,7.1,0.6c-0.5,2.9-1.4,5.6-2.4,8C49,51.9,47.1,51.6,45.1,51.3L45.1,51.3z M46.2,43.1L46.2,43.1
		c0.2-2.4,0.3-4.9,0.3-7.5h7.6c0,2.8-0.3,5.6-0.7,8.2C51,43.5,48.6,43.3,46.2,43.1L46.2,43.1z M60.3,24.2L60.3,24.2
		c-2.1,0.4-4.4,0.7-6.7,1c-0.6-2.9-1.5-5.6-2.6-8c1.7-0.4,3.2-0.8,4.7-1.4C57.6,18.3,59.2,21.1,60.3,24.2L60.3,24.2z M45.6,8.1
		L45.6,8.1c3.7,1.5,7.1,4,9.7,7.3c-1.4,0.5-3,0.9-4.6,1.3c-1.6-3.4-3.7-6.1-6-8C45,8.5,45.3,8.3,45.6,8.1L45.6,8.1z M44.9,7.9
		L44.9,7.9c-0.2,0.2-0.5,0.3-0.7,0.4c-0.7-0.5-1.4-0.9-2.1-1.3C43.1,7.2,44,7.5,44.9,7.9L44.9,7.9z M43.6,8.6L43.6,8.6
		c-0.6,0.3-1.2,0.6-1.9,0.8c-0.7-1.1-1.4-2-2.1-2.6C41,7.1,42.4,7.7,43.6,8.6L43.6,8.6z M41.1,9.6L41.1,9.6
		c-1.2,0.3-2.5,0.5-3.8,0.5c-1.3,0-2.6-0.2-3.8-0.5c1.1-2,2.4-3.1,3.8-3.1C38.7,6.5,40,7.6,41.1,9.6L41.1,9.6z M33,9.4L33,9.4
		c-0.6-0.2-1.3-0.5-1.9-0.8c1.3-0.9,2.6-1.5,4-1.8C34.4,7.4,33.7,8.2,33,9.4L33,9.4z M32.6,7L32.6,7c-0.7,0.3-1.4,0.8-2.1,1.3
		c-0.2-0.1-0.5-0.3-0.7-0.4C30.7,7.5,31.7,7.2,32.6,7L32.6,7z M29.2,8.1L29.2,8.1c0.3,0.2,0.6,0.4,0.9,0.6c-2.3,1.9-4.4,4.6-6,8
		c-1.6-0.4-3.1-0.8-4.6-1.3C22.1,12.2,25.4,9.6,29.2,8.1L29.2,8.1z M19,15.9L19,15.9c1.5,0.5,3.1,1,4.7,1.4c-1.1,2.4-2,5.1-2.6,8
		c-2.3-0.3-4.6-0.6-6.7-1C15.5,21.1,17.1,18.3,19,15.9L19,15.9z M14.2,24.8L14.2,24.8c2.2,0.4,4.4,0.8,6.8,1c-0.6,2.9-0.9,6-0.9,9.2
		h-7.6C12.5,31.4,13.1,28,14.2,24.8L14.2,24.8z M12.5,35.6L12.5,35.6h7.6c0,2.9,0.3,5.6,0.7,8.2c-2.4,0.3-4.7,0.7-6.9,1.1
		C13,42,12.5,38.9,12.5,35.6L12.5,35.6z M14.1,45.5L14.1,45.5c2.2-0.4,4.5-0.8,6.8-1.1c0.6,2.9,1.4,5.6,2.4,8.1
		c-1.7,0.4-3.4,0.9-4.9,1.5C16.5,51.5,15.1,48.6,14.1,45.5L14.1,45.5z M28.2,62.2L28.2,62.2c-3.7-1.7-6.9-4.4-9.5-7.7
		c1.5-0.5,3.1-1,4.8-1.4c1.5,3.5,3.5,6.3,5.8,8.4C28.9,61.7,28.6,61.9,28.2,62.2L28.2,62.2z M28.8,62.5L28.8,62.5
		c0.3-0.2,0.6-0.5,0.9-0.7c0.9,0.8,1.9,1.4,2.9,1.9C31.3,63.4,30.1,63,28.8,62.5L28.8,62.5z M30.3,61.5L30.3,61.5
		c0.7-0.4,1.4-0.8,2.2-1.1c0.8,1.6,1.7,2.8,2.6,3.6C33.4,63.6,31.8,62.7,30.3,61.5L30.3,61.5z M37.4,64.3L37.4,64.3
		c-1.5,0-3-1.5-4.3-4.1c1.3-0.4,2.8-0.7,4.3-0.7c1.5,0,2.9,0.2,4.3,0.7C40.4,62.8,38.9,64.3,37.4,64.3L37.4,64.3z M42.3,60.4
		L42.3,60.4c0.8,0.3,1.5,0.7,2.2,1.1c-1.5,1.2-3.1,2.1-4.9,2.5C40.6,63.2,41.5,62,42.3,60.4L42.3,60.4z M42.1,63.7L42.1,63.7
		c1-0.5,2-1.1,2.9-1.9c0.3,0.2,0.6,0.4,0.9,0.7C44.7,63,43.4,63.4,42.1,63.7L42.1,63.7z M46.5,62.2L46.5,62.2
		c-0.3-0.3-0.7-0.5-1.1-0.8c2.3-2,4.2-4.9,5.8-8.4c1.7,0.4,3.3,0.9,4.8,1.4C53.5,57.9,50.2,60.5,46.5,62.2L46.5,62.2z M56.4,54
		L56.4,54c-1.5-0.6-3.2-1.1-4.9-1.5c1-2.4,1.8-5.2,2.4-8.1c2.4,0.3,4.7,0.7,6.8,1.1C59.7,48.6,58.2,51.5,56.4,54L56.4,54z
		 M60.9,44.9L60.9,44.9c-2.2-0.4-4.5-0.8-6.9-1.1c0.5-2.6,0.7-5.4,0.7-8.2h7.6C62.2,38.9,61.8,42,60.9,44.9L60.9,44.9z"/>
	<line class="st3" x1="37.4" y1="6.1" x2="37.4" y2="64.5"/>
	<path class="st4" d="M7.9,36.1c0,0-7.8,12.6,1.5,8.6c15.3-6.6,37.1-20.7,46.1-37.5l-5.4-2.7L71.6,0l3,18.8l-5.2-2.5
		c0,0-26.5,30.2-58,35.8C3.6,53.5-7.9,53,7.9,36.1L7.9,36.1z"/>
	<polygon class="st5" points="75.3,40.6 74.3,40.6 74.3,39.9 77.2,39.9 77.2,40.6 76.3,40.6 76.2,43.6 80.5,43.6 80.5,40.6 
		79.6,40.6 79.6,39.9 82.5,39.9 82.5,40.6 81.6,40.6 81.5,47.4 82.5,47.4 82.5,48.1 79.6,48.1 79.6,47.4 80.5,47.4 80.5,44.4 
		76.2,44.4 76.2,47.4 77.2,47.4 77.2,48.1 74.3,48.1 74.3,47.4 75.2,47.4 75.3,40.6 	"/>
	<path class="st5" d="M89.8,42h1.9c0,1.1,0,2.2,0,3.6c0,0.9,0.2,1.8,1.3,1.8c1.8,0,1.8-1.9,1.8-2.8v-1.9h-1V42h1.9l0,5.3h0.8v0.7
		h-1.8c0-0.2,0-0.6,0-0.7l0.1-0.6h0c-0.3,0.7-1,1.5-2,1.5c-1.7,0-2.1-1.1-2.1-2.5c0-1.1,0-2,0-3h-1V42L89.8,42z"/>
	<path class="st5" d="M104.1,47.4h0.8l0-4.6h-1V42h1.9c0,0.2,0,0.6,0,0.7l-0.1,0.6h0c0.3-0.9,1.2-1.5,2.2-1.5c1.1,0,1.7,0.6,1.8,1.4
		h0c0.1-0.3,0.5-1.4,2.1-1.4c1.7,0,2.1,1.1,2.1,2.3c0,1,0,2.2,0,3.2h0.9v0.7h-2.6v-0.7h0.8c0-1,0-2,0-2.9c0-0.9-0.2-1.7-1.3-1.7
		c-0.8,0-1.7,0.5-1.7,2.2l0,2.5h0.9v0.7h-2.6v-0.7h0.8c0-1,0-2,0-2.9c0-0.9-0.2-1.7-1.3-1.7c-0.8,0-1.7,0.5-1.7,2.2l0,2.5h0.9v0.7
		h-2.6V47.4L104.1,47.4z"/>
	<path class="st5" d="M123.6,43.8h-0.9v-1.5c0.7-0.3,1.4-0.5,2.1-0.5c1.6,0,2.4,0.6,2.4,2.2c0,0.5-0.1,2.2-0.1,3.3h0.9v0.7h-1.7
		v-0.2c0-0.4,0.1-0.8,0.1-1.1h0c-0.4,1-1,1.5-2,1.5c-0.7,0-1.9-0.3-1.9-1.7c0-1.7,1.8-1.9,3.8-1.9v-0.4c0-1.1-0.4-1.6-1.4-1.6
		c-0.3,0-0.9,0.1-1.4,0.2V43.8L123.6,43.8z M126.3,45.3L126.3,45.3c-1.4,0-2.9,0-2.9,1.1c0,0.7,0.5,1,1.1,1
		C125.2,47.5,126.3,47.1,126.3,45.3L126.3,45.3z"/>
	<path class="st5" d="M139.7,47.4h0.8c0-0.9,0-1.9,0-2.9c0-0.6,0-1.8-1.4-1.8c-0.9,0-1.8,0.5-1.8,2.2l0,2.5h0.9v0.7h-2.6v-0.7h0.8
		l0-4.6h-1V42h1.9c0,0.2,0,0.6,0,0.7l-0.1,0.6h0c0.3-0.9,1.2-1.5,2.2-1.5c1.7,0,2.1,1.1,2.1,2.3c0,1,0,2.2,0,3.2h0.9v0.7h-2.6V47.4
		L139.7,47.4z"/>
	<path class="st5" d="M159.5,39.9h2.8c1.5,0,3,0.2,3,2.1c0,1.4-1,2.1-1.9,2.2v0c0.3,0,0.7,0.3,1.1,0.9l0.7,1.2c0.5,0.9,0.6,1,1.1,1
		h0.4v0.7H166c-0.8,0-1.1-0.1-1.5-0.8l-0.8-1.4c-0.7-1.2-0.9-1.5-1.6-1.5h-0.6l0,2.9h1v0.7h-2.9v-0.7h0.9l0-6.7h-0.9V39.9
		L159.5,39.9z M161.4,43.7L161.4,43.7h1c1,0,1.9-0.5,1.9-1.6c0-1.2-0.9-1.5-1.9-1.5h-0.9L161.4,43.7L161.4,43.7z"/>
	<path class="st5" d="M174.6,45.2c0,1.2,0.6,2.3,2.3,2.3c0.7,0,1.3-0.2,1.8-0.5l0,0.8c-0.4,0.2-1.4,0.4-2,0.4c-1.9,0-3.1-1-3.1-3.2
		c0-1.8,1-3.2,2.8-3.2c2.4,0,2.6,2.2,2.6,3.3H174.6L174.6,45.2z M178,44.4L178,44.4c0-1-0.6-1.8-1.6-1.8c-1,0-1.7,0.8-1.8,1.8H178
		L178,44.4z"/>
	<path class="st5" d="M191,43.7h-0.9l0-0.9c-0.2-0.2-0.8-0.2-1.1-0.2c-0.6,0-1.4,0.2-1.4,0.9c0,0.7,0.6,0.9,1.5,1
		c1.5,0.3,2.2,0.7,2.2,1.7c0,1.1-0.7,1.9-2.5,1.9c-0.7,0-1.7-0.2-2.1-0.4l0-1.6h0.9l0,0.9c0.4,0.2,1,0.3,1.4,0.3
		c0.6,0,1.4-0.3,1.4-1c0-0.6-0.6-0.8-1.3-1c-1.6-0.4-2.4-0.6-2.4-1.8c0-1,0.6-1.8,2.4-1.8c0.5,0,1.4,0.2,1.9,0.4L191,43.7L191,43.7z
		"/>
	<path class="st5" d="M201.8,41.9c1.8,0,2.9,1.3,2.9,3c0,1.9-1.1,3.3-2.9,3.3c-1.8,0-2.9-1.3-2.9-3C198.9,43.3,200,41.9,201.8,41.9
		L201.8,41.9z M201.8,47.5L201.8,47.5c1.3,0,1.9-1.1,1.9-2.4c0-1.3-0.6-2.4-1.9-2.4c-1.3,0-1.9,1.1-1.9,2.4
		C199.9,46.4,200.6,47.5,201.8,47.5L201.8,47.5z"/>
	<path class="st5" d="M212.2,42h1.9c0,1.1,0,2.2,0,3.6c0,0.9,0.2,1.8,1.3,1.8c1.8,0,1.8-1.9,1.8-2.8v-1.9h-1V42h1.9l0,5.3h0.8v0.7
		h-1.8c0-0.2,0-0.6,0-0.7l0.1-0.6h0c-0.3,0.7-1,1.5-2,1.5c-1.7,0-2.1-1.1-2.1-2.5c0-1.1,0-2,0-3h-1V42L212.2,42z"/>
	<path class="st5" d="M227.3,42.8h-1V42h2v0.3c0,0.4-0.1,1.1-0.1,1.6h0c0.2-0.9,0.6-2,2.1-2c0.1,0,0.6,0,0.6,0.1l-0.1,0.9
		c-0.2-0.1-0.4-0.1-0.7-0.1c-1.2,0-1.8,1.2-1.8,2.3l-0.1,2.3h1v0.7h-2.8v-0.7h0.9L227.3,42.8L227.3,42.8z"/>
	<path class="st5" d="M242.6,48c-0.5,0.1-1.1,0.3-1.8,0.3c-2.4,0-3.2-1.6-3.2-3.2c0-2.3,1.7-3.2,3-3.2c0.7,0,1.3,0.1,2,0.3v1.6h-0.9
		v-1c-0.3-0.1-0.7-0.1-1-0.1c-1.8,0-2.1,1.4-2.1,2.4c0,0.3,0,2.4,2.3,2.4c0.6,0,1.1-0.2,1.6-0.3L242.6,48L242.6,48z"/>
	<path class="st5" d="M251.3,45.2c0,1.2,0.6,2.3,2.3,2.3c0.7,0,1.3-0.2,1.8-0.5l0,0.8c-0.4,0.2-1.4,0.4-2,0.4c-1.9,0-3.1-1-3.1-3.2
		c0-1.8,1-3.2,2.8-3.2c2.4,0,2.6,2.2,2.6,3.3H251.3L251.3,45.2z M254.7,44.4L254.7,44.4c0-1-0.6-1.8-1.6-1.8c-1,0-1.7,0.8-1.8,1.8
		H254.7L254.7,44.4z"/>
	<path class="st5" d="M267.7,43.7h-0.9l-0.1-0.9c-0.2-0.2-0.8-0.2-1.1-0.2c-0.6,0-1.4,0.2-1.4,0.9c0,0.7,0.6,0.9,1.5,1
		c1.5,0.3,2.2,0.7,2.2,1.7c0,1.1-0.7,1.9-2.5,1.9c-0.7,0-1.7-0.2-2.1-0.4l0-1.6h0.9l0,0.9c0.4,0.2,1,0.3,1.4,0.3
		c0.6,0,1.4-0.3,1.4-1c0-0.6-0.6-0.8-1.3-1c-1.6-0.4-2.4-0.6-2.4-1.8c0-1,0.6-1.8,2.4-1.8c0.5,0,1.4,0.2,1.9,0.4L267.7,43.7
		L267.7,43.7z"/>
	<path class="st4" d="M81.3,26.6V25c-0.4-0.1-1-0.3-1.8-0.3c-2.5,0-3.8,1.5-3.8,4.1c0,2.4,1.4,4,3.5,4c0.7,0,1.5-0.1,1.9-0.1
		l0.1-1.9h1.5l-0.1,2.8c-0.7,0.2-2,0.5-3.2,0.5c-3.7,0-5.5-2.3-5.5-5.3c0-3.2,2.2-5.5,5.6-5.5c1.3,0,2.5,0.3,3.2,0.6v2.7H81.3
		L81.3,26.6z"/>
	<path class="st4" d="M87.6,26.1c2.8,0,3.8,2.2,3.8,4.1c0,2.2-1.3,4-4,4c-2.8,0-3.8-1.9-3.8-3.9C83.6,27.8,85.2,26.1,87.6,26.1
		L87.6,26.1z M87.5,32.8L87.5,32.8c1.5,0,2.2-1.3,2.2-2.8c0-1.7-0.9-2.5-2.1-2.5c-1.6,0-2.3,1.4-2.3,2.7
		C85.3,31.5,86,32.8,87.5,32.8L87.5,32.8z"/>
	<path class="st4" d="M92.1,32.8H93l0-5.3H92v-1.2h2.7c0,0.5,0,1.1-0.1,1.7h0c0.3-1.1,1.3-1.9,2.6-1.9c1.5,0,2.2,0.8,2.4,1.8h0
		c0.4-1.1,1.3-1.8,2.6-1.8c1.8,0,2.7,1.1,2.7,3c0,1.2,0,2.5-0.1,3.7h1V34h-3.5v-1.2h0.9c0-1.1,0.1-2.3,0.1-3.4
		c0-1.1-0.5-1.9-1.6-1.9c-1.1,0-1.9,0.9-1.9,2.3l0,2.9h1V34h-3.5v-1.2h0.8l0-3.1c0-1.2-0.3-2.2-1.5-2.2c-1,0-1.9,0.9-1.9,2.3l0,2.9
		h1V34h-3.6V32.8L92.1,32.8z"/>
	<path class="st4" d="M106.2,26.3h2.7c0,0.5-0.1,1.1-0.2,1.6h0c0.4-1,1.2-1.8,2.6-1.8c1.9,0,3.2,1.4,3.2,3.7c0,2.6-1.5,4.4-4.2,4.4
		c-0.5,0-1.1-0.1-1.5-0.3l0,2.6h1.2v1.2h-3.7v-1.2h0.9l0.1-9h-1.1V26.3L106.2,26.3z M108.9,32.5L108.9,32.5c0.3,0.2,0.9,0.3,1.5,0.3
		c1.5,0,2.4-1.3,2.4-2.9c0-1.4-0.6-2.5-1.9-2.5c-1.4,0-2,1.1-2,2.9V32.5L108.9,32.5z"/>
	<path class="st4" d="M115.9,26.8c0.4-0.2,1.4-0.7,3.1-0.7c2.3,0,3,1.1,3,3c0,1.2,0,2.5-0.1,3.7h1V34h-2.5c0-0.5,0-1.1,0.1-1.6h0
		c-0.3,0.9-0.9,1.8-2.6,1.8c-1.9,0-2.5-1.2-2.5-2.2c0-2,2.1-2.3,3.3-2.4l1.6-0.1v-0.6c0-0.9-0.3-1.6-1.7-1.6c-0.6,0-1.1,0.2-1.4,0.3
		v1.1h-1.5V26.8L115.9,26.8z M118.5,32.8L118.5,32.8c1.3,0,2-1,2-2v-0.3c-1.7,0-3.2,0.1-3.2,1.2C117.3,32.4,117.7,32.8,118.5,32.8
		L118.5,32.8z"/>
	<path class="st4" d="M123.8,32.8h0.9l0-5.3h-1.1v-1.2h2.7c0,0.5,0,1.1-0.1,1.7h0c0.3-1,1.2-1.9,2.7-1.9c1.8,0,2.7,1.1,2.7,3
		c0,1.2,0,2.5-0.1,3.7h1V34h-3.5v-1.2h0.9c0-1.1,0.1-2.3,0.1-3.4c0-1.1-0.5-1.9-1.6-1.9c-1.1,0-2,0.9-2,2.3l-0.1,2.9h1V34h-3.6V32.8
		L123.8,32.8z"/>
	<path class="st4" d="M133.3,32.8h0.9l0.1-9h-1.1v-1.2h2.8l0,3.7c0,0.5-0.1,1.1-0.2,1.7h0c0.3-1,1.2-1.9,2.7-1.9
		c1.8,0,2.7,1.1,2.7,3c0,1.2,0,2.5-0.1,3.7h1V34h-3.5v-1.2h0.9c0-1.1,0.1-2.3,0.1-3.4c0-1.1-0.5-1.9-1.6-1.9c-1.1,0-2,0.9-2,2.3
		l-0.1,2.9h1V34h-3.6V32.8L133.3,32.8z"/>
	<path class="st4" d="M142.6,32.8h1l0-5.3h-1.2v-1.2h2.8l0,6.5h1V34h-3.7V32.8L142.6,32.8z M144.5,22.4L144.5,22.4
		c0.6,0,1.1,0.5,1.1,1.1c0,0.6-0.5,1.1-1.1,1.1c-0.6,0-1.1-0.5-1.1-1.1C143.3,22.9,143.8,22.4,144.5,22.4L144.5,22.4z"/>
	<path class="st4" d="M147.4,26.8c0.4-0.2,1.4-0.7,3.1-0.7c2.3,0,3,1.1,3,3c0,1.2,0,2.5-0.1,3.7h1V34H152c0-0.5,0-1.1,0.1-1.6h0
		c-0.3,0.9-0.9,1.8-2.6,1.8c-1.9,0-2.5-1.2-2.5-2.2c0-2,2.1-2.3,3.3-2.4l1.6-0.1v-0.6c0-0.9-0.3-1.6-1.7-1.6c-0.6,0-1.1,0.2-1.4,0.3
		v1.1h-1.5V26.8L147.4,26.8z M150,32.8L150,32.8c1.3,0,2-1,2-2v-0.3c-1.7,0-3.2,0.1-3.2,1.2C148.8,32.4,149.2,32.8,150,32.8
		L150,32.8z"/>
	<path class="st4" d="M165.3,34h-2.6c0-0.5,0.1-1.1,0.1-1.6h0c-0.4,1-1.2,1.7-2.6,1.7c-1.9,0-3.2-1.4-3.2-3.7c0-2.6,1.5-4.4,4.1-4.4
		c0.5,0,1.1,0.1,1.5,0.2l0-2.5h-1.4v-1.2h3l-0.1,10.2h1V34L165.3,34z M162.6,27.7L162.6,27.7c-0.3-0.2-0.9-0.3-1.5-0.3
		c-1.5,0-2.4,1.3-2.4,2.9c0,1.4,0.6,2.5,1.9,2.5c1.3,0,2-1.1,2-2.9V27.7L162.6,27.7z"/>
	<path class="st4" d="M172.7,33.6c-0.5,0.2-1.6,0.5-2.7,0.5c-2.6,0-4.1-1.6-4.1-4c0-2.3,1.3-4.1,3.8-4.1c2.3,0,3.5,1.7,3.5,4.1v0.2
		h-5.5c0,1.5,1.1,2.5,2.6,2.5c1,0,1.8-0.3,2.5-0.6L172.7,33.6L172.7,33.6z M171.4,29.3L171.4,29.3v-0.1c0-0.6-0.4-1.8-1.8-1.8
		c-1.4,0-1.9,1-1.9,2H171.4L171.4,29.3z"/>
	<polygon class="st4" points="175.7,32.8 176.8,32.8 176.8,24.8 175.6,24.8 175.6,23.6 182.9,23.6 183,26.3 181.6,26.3 181.5,24.8 
		178.5,24.8 178.5,28 181.5,28 181.5,29.3 178.5,29.3 178.4,32.8 181.6,32.8 181.7,31.1 183.1,31.1 183,34 175.7,34 175.7,32.8 	"/>
	<path class="st4" d="M188.6,28.5l0-0.9c-0.2-0.1-0.6-0.3-1.3-0.3c-0.8,0-1.6,0.2-1.6,0.9c0,0.6,0.5,0.8,1,0.9l1.9,0.4
		c0.9,0.2,1.9,0.5,1.9,2.1c0,2-1.8,2.6-3.5,2.6c-1.3,0-2.3-0.3-2.8-0.5l0-2.1h1.5l0,1c0.3,0.1,0.8,0.3,1.6,0.3
		c0.8,0,1.6-0.3,1.6-1.1c0-0.7-0.5-0.9-1.1-1l-1.2-0.2c-1.2-0.2-2.5-0.7-2.5-2.1c0-1.8,1.6-2.4,3.3-2.4c1.3,0,2.2,0.4,2.7,0.5l0,1.9
		H188.6L188.6,28.5z"/>
	<path class="st4" d="M191.1,26.3h1.2l0-1.7l1.7-0.1l-0.1,1.9h2.2v1.2h-2.2c0,1.2,0,2.4,0,3.6c0,1.4,0.3,1.8,1.1,1.8
		c0.4,0,0.9-0.1,1.3-0.3l-0.1,1.2c-0.4,0.2-1.1,0.4-1.7,0.4c-1.6,0-2.3-0.6-2.3-2.4c0-1,0-3,0-4.3h-1.2V26.3L191.1,26.3z"/>
	<path class="st4" d="M196.9,26.8c0.4-0.2,1.4-0.7,3.1-0.7c2.3,0,3,1.1,3,3c0,1.2,0,2.5-0.1,3.7h1V34h-2.4c0-0.5,0-1.1,0.1-1.6h0
		c-0.3,0.9-0.9,1.8-2.6,1.8c-1.9,0-2.5-1.2-2.5-2.2c0-2,2.1-2.3,3.3-2.4l1.6-0.1v-0.6c0-0.9-0.3-1.6-1.7-1.6c-0.6,0-1.1,0.2-1.4,0.3
		v1.1h-1.5V26.8L196.9,26.8z M199.5,32.8L199.5,32.8c1.3,0,2-1,2-2v-0.3c-1.7,0-3.2,0.1-3.2,1.2C198.2,32.4,198.7,32.8,199.5,32.8
		L199.5,32.8z M198.7,24.7L198.7,24.7l3-2.5l0.9,0.8l-3,2.4L198.7,24.7L198.7,24.7z"/>
	<path class="st4" d="M212.2,27.5l-1.5-0.1c0.3,0.3,0.6,0.8,0.6,1.7c0,1.6-1.5,2.7-3.1,2.7h-0.6c-0.4,0-0.8,0.3-0.8,0.6
		c0,0.4,0.4,0.4,1.3,0.5l2,0.3c1.1,0.1,2,0.6,2,1.9c0,2.1-2,2.8-4.1,2.8c-2.1,0-3.6-0.8-3.6-2c0-1,0.8-1.7,1.8-1.8v0
		c-0.6-0.1-1.1-0.4-1.1-1.1c0-0.8,0.8-1.2,1.5-1.3v0c-0.9-0.2-2-0.9-2-2.5c0-1.7,1.2-2.9,3.4-2.9c0.5,0,1.1,0.1,1.4,0.2h2.8
		L212.2,27.5L212.2,27.5z M207.2,34.2L207.2,34.2c-0.8,0.3-1.2,0.7-1.2,1.3c0,0.9,0.9,1.2,2.2,1.2c1.1,0,2.3-0.3,2.3-1.3
		c0-0.5-0.5-0.7-1.4-0.9L207.2,34.2L207.2,34.2z M208.1,30.6L208.1,30.6c1.2,0,1.8-0.7,1.8-1.7c0-1-0.7-1.6-1.9-1.6
		c-1.2,0-1.9,0.7-1.9,1.7C206.1,30.1,206.9,30.6,208.1,30.6L208.1,30.6z"/>
	<path class="st4" d="M212.5,32.8h1l0-5.3h-1.2v-1.2h2.8l0,6.5h1V34h-3.7V32.8L212.5,32.8z M214.4,22.4L214.4,22.4
		c0.6,0,1.1,0.5,1.1,1.1c0,0.6-0.5,1.1-1.1,1.1c-0.6,0-1.1-0.5-1.1-1.1C213.3,22.9,213.8,22.4,214.4,22.4L214.4,22.4z"/>
	<path class="st4" d="M220.7,26.1c2.9,0,3.8,2.2,3.8,4.1c0,2.2-1.3,4-4,4c-2.8,0-3.8-1.9-3.8-3.9C216.7,27.8,218.4,26.1,220.7,26.1
		L220.7,26.1z M220.6,32.8L220.6,32.8c1.5,0,2.2-1.3,2.2-2.8c0-1.7-0.9-2.5-2.1-2.5c-1.7,0-2.3,1.4-2.3,2.7
		C218.4,31.5,219.1,32.8,220.6,32.8L220.6,32.8z"/>
	<path class="st4" d="M229.7,28.5l0-0.9c-0.2-0.1-0.6-0.3-1.3-0.3c-0.8,0-1.6,0.2-1.6,0.9c0,0.6,0.5,0.8,1,0.9l1.9,0.4
		c0.9,0.2,1.9,0.5,1.9,2.1c0,2-1.8,2.6-3.5,2.6c-1.3,0-2.3-0.3-2.8-0.5l0-2.1h1.5l0,1c0.3,0.1,0.8,0.3,1.6,0.3
		c0.8,0,1.6-0.3,1.6-1.1c0-0.7-0.5-0.9-1.1-1l-1.2-0.2c-1.2-0.2-2.5-0.7-2.5-2.1c0-1.8,1.6-2.4,3.3-2.4c1.3,0,2.2,0.4,2.7,0.5l0,1.9
		H229.7L229.7,28.5z"/>
	<polygon class="st6" points="234.7,22.8 235.9,22.8 235.9,37.7 234.7,37.7 234.7,22.8 	"/>
	<path class="st6" d="M239,32.8h1.1l0.1-8H239v-1.2h3.9c1.4,0,1.9,0.1,2.5,0.5c0.8,0.5,1.3,1.4,1.3,2.6c0,1.2-0.6,2.3-1.5,2.8
		c-0.6,0.4-1.1,0.5-2,0.5h-1.5l0,2.9h1.3V34h-4V32.8L239,32.8z M242.9,28.6L242.9,28.6c1.5,0,2.1-0.8,2.1-2c0-0.6-0.3-1.1-0.6-1.4
		c-0.4-0.4-0.9-0.4-1.7-0.4h-0.9l0,3.8H242.9L242.9,28.6z"/>
	<path class="st6" d="M247.3,32.8h1.1l0.1-8h-1.1v-1.2h3.9c1.4,0,1.9,0.1,2.5,0.5c0.8,0.5,1.3,1.4,1.3,2.6c0,1.2-0.6,2.3-1.5,2.8
		c-0.6,0.4-1.1,0.5-2,0.5h-1.5l0,2.9h1.3V34h-4V32.8L247.3,32.8z M251.2,28.6L251.2,28.6c1.5,0,2.1-0.8,2.1-2c0-0.6-0.3-1.1-0.6-1.4
		c-0.4-0.4-1-0.4-1.7-0.4h-0.9l0,3.8H251.2L251.2,28.6z"/>
	<path class="st6" d="M255.6,32.8h1l0.1-8h-1.2v-1.2h3.4l3,7.7c0.1,0.3,0.2,0.6,0.2,0.8h0c0.1-0.3,0.1-0.6,0.2-0.8l3-7.7h3.2v1.2
		h-1.2l0.1,8h1.1V34h-3.8v-1.2h1l0.1-7l0,0c-0.1,0.5-0.2,0.9-0.4,1.4l-2.7,6.9h-1.7l-2.6-6.6c-0.2-0.5-0.3-1.1-0.5-1.6h0l-0.1,7h1.2
		V34h-3.6V32.8L255.6,32.8z"/>
	<g>
		<defs>
			<path id="SVGID_3_" d="M65.9,35.4c0,15.8-12.8,28.6-28.6,28.6c-15.8,0-28.6-12.8-28.6-28.6c0-15.8,12.8-28.6,28.6-28.6
				C53.2,6.8,65.9,19.6,65.9,35.4L65.9,35.4L65.9,35.4z"/>
		</defs>
		<clipPath id="SVGID_1_">
			<use xlink:href="#SVGID_3_"  style="overflow:visible;"/>
		</clipPath>
		<path class="st7" d="M26.4,29.3c0,2.1-1.7,3.8-3.8,3.8s-3.8-1.7-3.8-3.8c0-2.1,1.7-3.8,3.8-3.8S26.4,27.2,26.4,29.3L26.4,29.3z"/>
		<path class="st8" d="M25.6,29.3c0,1.6-1.3,2.9-2.9,2.9c-1.6,0-2.9-1.3-2.9-2.9c0-1.6,1.3-2.9,2.9-2.9
			C24.3,26.4,25.6,27.7,25.6,29.3L25.6,29.3z M22.7,24.7L22.7,24.7c-2.5,0-4.6,2.1-4.6,4.6c0,2.5,2.1,4.6,4.6,4.6
			c2.5,0,4.6-2.1,4.6-4.6C27.3,26.8,25.2,24.7,22.7,24.7L22.7,24.7z"/>
		<path class="st7" d="M55.8,29.3c0,2.1-1.7,3.8-3.8,3.8c-2.1,0-3.8-1.7-3.8-3.8c0-2.1,1.7-3.8,3.8-3.8
			C54.2,25.5,55.8,27.2,55.8,29.3L55.8,29.3z"/>
		<path class="st8" d="M55,29.3c0,1.6-1.3,2.9-2.9,2.9c-1.6,0-2.9-1.3-2.9-2.9c0-1.6,1.3-2.9,2.9-2.9C53.7,26.4,55,27.7,55,29.3
			L55,29.3z M52.1,24.7L52.1,24.7c-2.5,0-4.6,2.1-4.6,4.6c0,2.5,2.1,4.6,4.6,4.6c2.5,0,4.6-2.1,4.6-4.6
			C56.7,26.8,54.6,24.7,52.1,24.7L52.1,24.7z"/>
		<path class="st9" d="M42.4,21.8c0,2.8-2.2,5-5,5c-2.8,0-5-2.2-5-5c0-2.8,2.2-5,5-5C40.1,16.8,42.4,19.1,42.4,21.8L42.4,21.8z"/>
		<path class="st8" d="M41.5,21.8c0,2.3-1.9,4.2-4.2,4.2c-2.3,0-4.2-1.9-4.2-4.2c0-2.3,1.9-4.2,4.2-4.2
			C39.7,17.7,41.5,19.5,41.5,21.8L41.5,21.8z M37.4,16L37.4,16c-3.2,0-5.8,2.6-5.8,5.8c0,3.2,2.6,5.8,5.8,5.8c3.2,0,5.8-2.6,5.8-5.8
			C43.2,18.6,40.6,16,37.4,16L37.4,16z"/>
		<path class="st7" d="M27.4,34.3H18c-1.2,0-2.2,1-2.2,2.2V54c3.6,4.2,8.4,7.3,13.9,8.9V36.6C29.6,35.3,28.6,34.3,27.4,34.3
			L27.4,34.3z"/>
		<path class="st8" d="M27.4,33.5H18c-1.7,0-3.1,1.4-3.1,3.1V53c0.5,0.7,1.1,1.3,1.7,2V36.6c0-0.8,0.6-1.4,1.4-1.4h9.4
			c0.8,0,1.4,0.6,1.4,1.4v26.1c0.6,0.2,1.1,0.3,1.7,0.5V36.6C30.5,34.9,29.1,33.5,27.4,33.5L27.4,33.5z"/>
		<path class="st7" d="M59,54V36.6c0-1.2-1-2.2-2.2-2.2h-9.4c-1.2,0-2.2,1-2.2,2.2v26.3C50.6,61.3,55.4,58.2,59,54L59,54z"/>
		<path class="st8" d="M59.9,53V36.6c0-1.7-1.4-3.1-3.1-3.1h-9.4c-1.7,0-3.1,1.4-3.1,3.1v26.5c0.6-0.1,1.1-0.3,1.7-0.5V36.6
			c0-0.8,0.6-1.4,1.4-1.4h9.4c0.8,0,1.4,0.6,1.4,1.4v18.4C58.8,54.3,59.3,53.7,59.9,53L59.9,53z"/>
		<path class="st9" d="M43.6,28.5H31.1c-1.6,0-3,1.3-3,3v30.9c2.9,1,6,1.5,9.2,1.5s6.3-0.5,9.2-1.5V31.5
			C46.6,29.8,45.3,28.5,43.6,28.5L43.6,28.5z"/>
		<path class="st8" d="M43.6,27.7H31.1c-2.1,0-3.8,1.7-3.8,3.8v30.6c0.6,0.2,1.1,0.4,1.7,0.6V31.5c0-1.2,1-2.1,2.1-2.1h12.5
			c1.2,0,2.1,1,2.1,2.1v31.2c0.6-0.2,1.1-0.4,1.7-0.6V31.5C47.5,29.4,45.7,27.7,43.6,27.7L43.6,27.7z"/>
	</g>
</g>
</svg>
