<?xml version="1.0" encoding="utf-8"?>
<!-- Generator: Adobe Illustrator 24.0.1, SVG Export Plug-In . SVG Version: 6.00 Build 0)  -->
<svg version="1.1" id="Camada_1" xmlns="http://www.w3.org/2000/svg" xmlns:xlink="http://www.w3.org/1999/xlink" x="0px" y="0px"
	 viewBox="0 0 612 792" style="enable-background:new 0 0 612 792;" xml:space="preserve">
<style type="text/css">
	.st0{fill:#FEFEFE;}
</style>
<g>
	<path class="st0" d="M409.82,370.3c-25.52,0-51.03,0-76.66,0c0.64,1.31,1.59,2.33,2.5,3.35c2.94,3.29,6.33,6.06,10.29,8.03
		c2.43,1.21,4.98,2.2,7.54,3.14c3.41,1.26,6.81,2.53,9.59,4.94c2.66,2.31,4.06,5.4,5.03,8.7c0.27,0.92,0.53,1.84,0.82,2.82
		c1.65-2.57,3.76-4.58,6.49-6.01c2.69-1.4,5.49-1.93,8.58-1.83c-0.21,0.59-0.64,0.62-0.96,0.76c-1.45,0.66-2.1,1.87-2.21,3.35
		c-0.16,2.25-0.61,4.41-1.79,6.53c1.41-0.57,2.65-1.21,3.96-1.56c2.28-0.61,4.6-0.36,6.84,0.29c3.35,0.97,6.72,1.98,10.21,1.99
		c2.3,0.01,4.66-0.25,6.9-1c0.94-0.32,1.91-0.56,2.86-0.84c0,0.16,0,0.32,0,0.48c-0.44,0.98-1.37,1.43-2.22,1.93
		c-3.51,2.07-7.31,2.87-11.36,2.5c-0.16-0.05-0.04,0.19-0.05,0.03c0-0.03,0.03-0.05,0.11-0.04c1.75,0.31,3.51-0.05,5.26,0.03
		c0.54,0.02,1.34-0.17,1.5,0.41c0.18,0.66-0.59,0.95-1.12,1.2c-2.79,1.32-5.69,1.3-8.54,0.7c0.22,0.1,0.57,0.11,0.9,0.18
		c0.38,0.08,0.88,0.13,0.86,0.64c-0.01,0.46-0.48,0.61-0.87,0.7c-1.4,0.32-2.77,0.17-4.08-0.22c-0.11-0.08-0.11-0.03-0.02,0.03
		c0.44,0.31,1.25,0.53,1.09,1.09c-0.19,0.66-1.02,0.39-1.59,0.43c-0.97,0.06-1.85-0.34-2.92,0.41c-0.99,0.69-2.54,0.53-3.85,0.53
		c-2.55,0-5.11,0.21-7.65-0.19c-0.89-0.14-1.6,0.25-2.33,0.72c-5.21,3.33-10.85,5.55-16.98,6.49c-1.37,0.21-2.77,0.07-4.14,0.31
		c-2.32,0-4.63,0-6.95,0c-1-0.52-2.13-0.1-3.17-0.44c-0.36-0.12-0.73-0.19-1.22-0.45c5.43-0.81,10.16-2.94,14.41-6.12
		c1.59-1.19,2.92-2.66,4.33-4.05c0.48-0.47,0.49-0.77-0.19-1.11c-2.59-1.29-4.96-2.96-7.36-4.56c-0.14-0.1-0.3-0.31-0.3-0.47
		c0-0.29,0.28-0.18,0.46-0.21c0.98-0.19,1.96-0.37,2.97-0.62c-2.89-0.1-5.55-0.77-7.89-2.96c2.13,0.08,3.99-0.19,5.88-0.85
		c-3.75-0.52-7.06-1.6-9.3-5.02c2.14,0.35,3.99,1.28,6.15,1.07c-5.83-2.33-11.25-4.97-13.1-11.61c3.28,2.28,6.55,4.55,10.41,5.8
		c-1.24-0.91-2.5-1.8-3.72-2.74c-5.14-3.95-8.9-8.9-10.25-15.29c-0.3-1.4-0.74-1.41-1.78-1.41c-42.5,0.01-85,0.02-127.5-0.02
		c-1.22,0-1.46,0.3-1.46,1.47c0.05,11.13,0.03,22.26,0.03,33.39c0,0.44,0,0.87,0,1.31c0.66-2.34,1.82-4.29,4.15-5.3
		c2.07-0.9,4.25-0.57,6.4-0.42c0.21,0.02,0.45,0.08,0.68,0.1c1.47,0.12,2.1,1.39,1.23,2.56c-0.49,0.66-1.23,0.33-1.82,0.21
		c-1.35-0.27-2.71-0.26-4.03-0.07c-1.83,0.27-2.85,1.6-3.17,3.34c-0.48,2.55-0.5,5.12,0.16,7.66c0.39,1.53,1.85,2.99,3.81,2.77
		c1.45-0.16,2.92,0.21,4.37-0.22c0.48-0.14,0.87,0.3,0.89,0.74c0.03,0.74,0.37,1.87-0.66,2.03c-3.09,0.49-6.24,1.13-9.11-0.89
		c-1.62-1.14-2.26-2.84-2.91-4.63c0,2.34,0,4.67,0,7.01c-0.38,0.08-0.23-0.21-0.23-0.36c-0.01-16.77,0-33.55-0.02-50.32
		c0-0.51,0.1-0.7,0.61-0.6c0.15,0.03,0.32,0,0.48,0c68.55,0,137.09,0,205.64,0.01C409.09,370.08,409.55,369.8,409.82,370.3z"/>
	<path class="st0" d="M283.64,400.59c1.29-0.12,2.85,0.1,4.41,0.34c1.4,0.22,0.96,1.31,0.94,2.11c-0.02,0.97-0.89,0.72-1.37,0.62
		c-1.97-0.42-3.96-0.1-5.93-0.21c-1-0.06-1.7,0.44-1.96,1.33c-0.24,0.86,0.31,1.49,0.97,2.03c1.92,1.58,4.17,2.66,6.27,3.92
		c2.74,1.64,3.22,6.55,0.52,8.43c-0.59,0.41-1.24,0.61-1.91,0.75c-1.4,0.28-2.75,0.65-4.25,0.29c-1.12-0.27-2.34-0.07-3.52-0.27
		c-1.04-0.18-1.62-0.56-1.52-1.71c0.09-1,0.46-1.15,1.45-1.09c2.14,0.12,4.25,0.72,6.43,0.19c1.1-0.27,1.78-0.92,1.91-1.91
		c0.13-0.95-0.55-1.67-1.34-2.17c-1.92-1.21-3.88-2.36-5.78-3.6c-1.81-1.17-3.1-3.26-2.45-5.41c0.72-2.39,2.14-3.58,4.67-3.64
		C281.91,400.57,282.63,400.59,283.64,400.59z"/>
	<path class="st0" d="M315.63,406.97c0,3.97-0.02,7.94,0.02,11.91c0.01,0.9-0.29,1.25-1.18,1.28c-2.04,0.06-2.19-0.06-2.19-2.16
		c0-7.5,0-15,0-22.5c0-1.71,1.43-2.46,3-1.65c0.53,0.28,0.34,0.65,0.35,0.99C315.63,398.88,315.63,402.92,315.63,406.97z"/>
	<path class="st0" d="M222.16,406.91c0,3.93,0,7.87,0,11.8c0,1.34-0.13,1.44-1.69,1.44c-1.53,0-1.66-0.1-1.66-1.47
		c0-7.83,0-15.65,0-23.48c0-1.27,0.26-1.51,1.63-1.52c1.45-0.01,1.72,0.24,1.72,1.55C222.16,399.12,222.16,403.01,222.16,406.91z"/>
	<path class="st0" d="M264.82,410.85c0-2.74,0.02-5.48-0.02-8.23c-0.01-0.65,0.17-1.03,0.79-1.24c2.42-0.84,4.93-0.85,7.45-0.79
		c0.44,0.01,0.65,0.25,0.64,0.68c0,0.44-0.02,0.88,0.01,1.31c0.05,0.7-0.3,0.87-0.94,0.88c-1.3,0.02-2.59-0.04-3.9,0.17
		c-0.81,0.13-0.93,0.34-0.92,1.05c0.03,4.73-0.03,9.46,0.04,14.19c0.02,1.38-0.77,1.26-1.66,1.29c-0.94,0.03-1.55-0.09-1.51-1.32
		C264.88,416.18,264.82,413.51,264.82,410.85z"/>
	<path class="st0" d="M324.01,411.55c1.76,0.04,3.51,0.01,5.27,0.01c1.08,0,2.16,0,3.23,0c3.01,0,3,0,3.01-2.98
		c0.01-2.25-0.63-4.28-2.16-5.94c-1.74-1.87-4.03-2.18-6.46-2.06c-3.29,0.17-5.66,2.36-6.47,5.26c-0.78,2.76-0.71,5.59-0.22,8.38
		c0.51,2.9,2.14,4.91,5.18,5.7c2.92,0.77,5.78,0.23,8.67-0.19c1.57-0.23,0.88-1.24,0.95-1.94c0.1-0.98-0.74-0.77-1.28-0.72
		c-1.8,0.16-3.58,0.46-5.39,0.47c-3.55,0.02-4.94-2.42-5.06-5.25C323.26,411.71,323.42,411.53,324.01,411.55z M323.28,408.51
		c-0.28-1.7,1.21-4.23,2.9-4.82c2.2-0.77,4.45,0.04,5.42,1.94c0.07,0.14,0.13,0.28,0.18,0.42c0.3,0.89,0.72,1.93,0.28,2.69
		c-0.32,0.55-1.4,0.14-2.15,0.18c-0.75,0.04-1.51,0.01-2.27,0.01c-1.24,0-2.47,0-3.71,0C323.64,408.93,323.36,409.01,323.28,408.51z
		"/>
	<path class="st0" d="M230.52,411.55c1.72,0.02,3.43,0.01,5.15,0.01c1.72,0,3.43-0.01,5.15,0c0.83,0.01,1.35-0.23,1.24-1.21
		c-0.07-0.63,0.01-1.27-0.02-1.91c-0.22-4.37-2.54-7.98-7.91-7.91c-3.38,0.04-6.37,2.18-7.19,5.3c-0.78,2.98-0.73,6-0.12,8.95
		c0.56,2.73,2.37,4.46,5.19,5.14c2.94,0.72,5.79,0.26,8.67-0.25c1.31-0.23,0.81-1.2,0.88-1.91c0.08-0.89-0.64-0.77-1.17-0.72
		c-1.88,0.15-3.74,0.5-5.63,0.47c-3.29-0.05-5.05-2.29-4.94-5.34C229.83,411.61,230.05,411.55,230.52,411.55z M229.81,408.36
		c-0.14-1.87,0.95-3.72,2.59-4.52c1.44-0.7,4.08-0.51,5.22,1.03c0.79,1.07,1.02,2.29,1.08,3.58c0.03,0.61-0.38,0.48-0.72,0.48
		c-1.28,0.01-2.55,0-3.83,0c-1.24,0-2.47-0.01-3.71,0.01C230.01,408.95,229.84,408.85,229.81,408.36z"/>
	<path class="st0" d="M260.26,410.4c0-2.62-0.02-5.25,0.01-7.87c0.01-0.74-0.16-1.09-0.97-1.26c-2.28-0.49-4.56-0.74-6.89-0.7
		c-3.45,0.06-6.05,1.94-6.79,5.45c-0.47,2.23-0.22,4.49-0.22,6.73c0.01,5.18,3.25,7.65,7.86,7.6c1.94-0.02,3.87-0.42,5.8-0.7
		c0.79-0.12,1.24-0.51,1.21-1.49C260.2,415.57,260.26,412.99,260.26,410.4z M256.91,410.56c0,1.98-0.03,3.97,0.01,5.95
		c0.01,0.63-0.17,0.85-0.79,0.78c-1.07-0.12-2.09,0.36-3.17,0.24c-1.9-0.22-3.36-0.71-3.94-2.88c-0.76-2.83-0.77-5.7,0-8.52
		c0.45-1.64,1.96-2.88,3.75-2.69c0.91,0.1,1.83,0,2.75,0.02c0.9,0.02,1.48,0.25,1.42,1.4C256.83,406.75,256.91,408.66,256.91,410.56
		z"/>
	<path class="st0" d="M307.48,410.36c0-2.66-0.01-5.32,0.01-7.98c0-0.6-0.05-0.95-0.84-1.12c-2.52-0.53-5.05-0.85-7.6-0.65
		c-2.54,0.2-4.81,1.59-5.73,4.26c-1.12,3.25-0.92,6.58-0.38,9.84c0.39,2.4,1.75,4.35,4.3,5.11c1.7,0.51,3.4,0.63,5.18,0.36
		c1.34-0.2,2.7-0.35,4.04-0.6c0.77-0.14,1.07-0.51,1.05-1.36C307.43,415.61,307.48,412.99,307.48,410.36z M304.36,410.38
		c0,1.95-0.04,3.9,0.02,5.84c0.02,0.85-0.29,1.08-1.11,1.09c-1.43,0.02-2.84,0.42-4.31,0.01c-1.27-0.35-2.03-1.12-2.49-2.23
		c-0.76-1.84-0.43-3.78-0.5-5.69c-0.05-1.41,0.07-2.76,0.7-4.08c0.53-1.1,1.41-1.71,2.51-1.83c1.38-0.14,2.79-0.08,4.19-0.01
		c0.63,0.03,1.06,0.33,1.02,1.18C304.3,406.56,304.36,408.47,304.36,410.38z"/>
</g>
</svg>
