<?xml version="1.0" encoding="utf-8"?>
<!-- Generator: Adobe Illustrator 24.0.1, SVG Export Plug-In . SVG Version: 6.00 Build 0)  -->
<svg version="1.1" id="Camada_1" xmlns="http://www.w3.org/2000/svg" xmlns:xlink="http://www.w3.org/1999/xlink" x="0px" y="0px"
	 viewBox="0 0 1888 792" style="enable-background:new 0 0 1888 792;" xml:space="preserve">
<style type="text/css">
	.st0{fill:#FFF5F0;}
	.st1{fill:#FEBC9C;}
	.st2{fill:#FEDBCA;}
	.st3{fill:#FEE0D1;}
	.st4{fill:#FEAC85;}
	.st5{fill:#FE874F;}
	.st6{fill:#FEE4D8;}
	.st7{fill:#FED5C1;}
	.st8{fill:#FEC1A4;}
	.st9{fill:#FEC7AD;}
</style>
<g>
	<path class="st0" d="M89.94,535.72c-0.78-0.77-0.34-1.76-0.46-2.64c-0.12-0.88,0.33-1.87-0.48-2.63c0-9.43,0-18.87,0-28.3
		c0.77-0.68,0.37-1.58,0.48-2.39c0.1-0.81-0.27-1.71,0.45-2.41c0.92,0.88,0.79,2.05,0.79,3.15c0.03,10.69,0.03,21.39,0,32.08
		C90.72,533.67,90.85,534.83,89.94,535.72z"/>
	<path class="st1" d="M1300.18,606.24c-4.96,0-9.92,0-14.88,0c-0.14-0.32-0.06-0.58,0.24-0.77c4.8-0.72,9.6-0.72,14.4,0
		C1300.24,605.66,1300.32,605.92,1300.18,606.24z"/>
	<path class="st2" d="M1285.27,605.82c0.02,0.14,0.03,0.28,0.03,0.42c-2.08,0-4.16,0-6.24,0c0-0.16,0-0.32,0-0.48
		C1281.15,604.68,1283.22,604.62,1285.27,605.82z"/>
	<path class="st3" d="M1300.18,606.24c0-0.14,0.01-0.29,0.03-0.43c2.06-1.19,4.13-1.13,6.21-0.06c0,0.16,0,0.32,0,0.48
		C1304.34,606.24,1302.26,606.24,1300.18,606.24z"/>
	<path class="st4" d="M1798.76,456.57c-0.31,0.17-0.61,0.35-0.92,0.52c-0.14-0.11-0.2-0.24-0.17-0.36c0.03-0.13,0.07-0.2,0.12-0.2
		c0.21-0.4,0.63-0.33,0.97-0.44C1798.76,456.25,1798.76,456.41,1798.76,456.57z"/>
	<path class="st5" d="M1797.79,456.52c0.02,0.19,0.03,0.38,0.05,0.56c0,0,0-0.01,0-0.01c-0.24,0.09-0.36,0.3-0.48,0.51
		c-5.7,5.79-12.28,10.44-19.23,14.59c-13.93,8.3-29.03,13.56-44.81,16.97c-12.12,2.62-24.39,4.04-36.79,4.5
		c-7.59,0.28-15.17,0.41-22.76-0.04c-1.83-0.11-3.67-0.02-5.63-0.02c0.41,0.67,1.15,0.66,1.72,0.81c6.86,1.88,13.85,3.11,20.91,3.96
		c11.04,1.34,22.13,1.93,33.24,1.63c4.86-0.13,9.75-0.05,14.6-0.63c1.02-0.12,2.07-0.02,3.24-0.02c-0.25,0.94-1.05,1.36-1.69,1.87
		c-5.33,4.25-11.47,6.92-17.93,8.86c-6.75,2.03-13.67,3.11-20.7,3.66c-12.9,1-25.68,0.02-38.44-1.89
		c-6.32-0.95-12.56-2.24-18.82-3.52c-0.62-0.4-1.33,0.03-1.95-0.2c-0.02,0.03-0.06-0.11-0.08,0.01c0.51,0.02,0.82,0.31,1.07,0.69
		c10.82,5.82,22.46,9.39,34.7,12.52c-2.01,1.32-3.93,1.72-5.77,2.17c-6.68,1.62-13.46,1.61-20.24,0.92
		c-10.81-1.1-21.06-4.32-31.04-8.49c-0.28-0.12-0.54-0.35-1.18-0.13c1.74,1.99,3.67,3.63,5.62,5.25c2.02,1.69,4.03,3.4,6.13,4.99
		c2.1,1.59,4.26,3.1,6.47,4.54c2.18,1.41,4.45,2.68,6.59,4.23c-18.11,1.71-34.26-3.34-48.79-14.04c-0.92-0.28-1.7-0.76-2.22-1.6
		c-0.07-0.11-0.14-0.22-0.27-0.27c0.11,0.06,0.2,0.15,0.27,0.28c0.42,0.83,1.43,1.16,1.76,2.08c6.11,6.11,13,11.29,20.2,16.64
		c-2.97,0.92-5.73,1.17-8.44,1.52c-6.97,0.9-13.94,1.77-20.94,2.37c-8.36,0.72-16.74,1.23-25.14,1.19
		c-6.32-0.02-12.63,0.03-18.95-0.12c-8.63-0.2-17.23-0.79-25.81-1.81c-3.73-0.44-7.46-0.83-11.17-1.36
		c-1.04-0.15-1.66,0.32-2.36,0.84c-6.14,4.47-12.38,8.79-18.83,12.8c-9.03,5.62-18.4,10.57-28.05,15.08
		c-8.75,4.09-17.48,8.23-26.47,11.79c-19.56,7.75-39.66,13.69-60.28,17.9c-10.41,2.12-20.88,3.84-31.42,5.08
		c-8.8,1.03-17.63,1.86-26.5,2.13c-1.59,0.05-3.18,0.26-4.77,0.39c-2.07,0.02-4.14,0.04-6.21,0.05c-4.98,0-9.96,0-14.94,0.01
		c-2.07-0.02-4.14-0.04-6.21-0.06c-4.44-0.63-8.93-0.53-13.39-0.86c-10.92-0.81-21.77-2.1-32.55-4.01
		c-0.69-0.12-1.37-0.36-2.35-0.62c77.36-11.58,132.95-58.39,158.25-91.32c-24.72-12.87-48.38-27.37-70.8-44.81
		c15.67-2.39,30.88-4.82,45.42-10.19c-1.69-0.46-3.3,0.15-4.9,0.4c-20.94,3.23-40.91,0.55-59.69-9.58
		c-4.59-2.47-8.87-5.4-12.85-8.77c-0.49-0.41-0.94-0.87-1.39-1.32c-0.09-0.09-0.08-0.27-0.17-0.64c17.58,0.92,34.38-2.99,51.08-8.04
		c-1.25-0.19-2.5-0.39-3.75-0.56c-1.34-0.18-2.7-0.32-4.04-0.51c-15.04-2.14-29.58-5.94-43.14-12.96
		c-9.4-4.87-17.77-11.05-24.41-19.39c-1.2-1.5-2.28-3.09-3.23-4.75c-0.27-0.47-0.65-0.93-0.58-1.54c0.44-0.39,0.89-0.17,1.34-0.02
		c10.59,3.37,21.35,6.04,32.33,7.77c5.76,0.91,11.55,1.62,17.39,1.72c2.3,0.04,4.61,0.5,7.2-0.28c-2.83-0.97-5.42-1.84-8-2.74
		c-18.07-6.3-35.54-13.93-51.95-23.85c-12.79-7.73-24.6-16.7-34.78-27.69c-8.77-9.47-15.94-19.98-20.34-32.22
		c-1.27-3.53-2.16-7.16-2.68-10.9c0.95-0.05,1.39,0.59,1.94,1.02c15.74,12.62,32.24,24.14,49.92,33.9
		c14.09,7.78,28.65,14.47,44.27,18.64c0.7,0.19,1.38,0.41,2.11,0.41c0.52,0.18,0.91,0.22,0.53-0.52
		c-7.76-4.62-15.49-9.28-22.99-14.31c-19.06-12.79-36.66-27.3-52.35-44.08c-16.55-17.69-30.38-37.27-40.61-59.29
		c-5.95-12.8-10.5-26.06-12.94-39.99c-0.37-2.12-0.52-4.28-0.78-6.42c-0.05-0.43-0.12-0.81,0.51-0.76c2.77,4.4,6.06,8.42,9.26,12.5
		c9.59,12.21,20.04,23.66,31.34,34.32c16.65,15.71,35.01,29.09,54.95,40.31c19.06,10.72,39.17,19.1,59.57,26.83
		c14.85,5.63,29.82,10.98,44.39,17.33c13.95,6.09,27.37,13.13,39.47,22.47c19.61,15.13,33.7,34.34,42.32,57.53
		c5.29,14.23,9.34,28.85,13.38,43.47c0.19,0.67,0.24,1.38,0.82,2.02c1.95-2.87,3.78-5.76,5.81-8.51
		c14.8-20.13,33.08-36.1,55.94-46.56c11.41-5.22,23.35-8.52,35.81-10.09c7.97-1.01,15.94-1.01,23.93-0.78
		c0.36,0.01,0.78-0.12,1.1,0.25c-0.08,0.79-0.82,0.65-1.26,0.83c-3.03,1.25-6.01,2.59-8.83,4.28c-7.2,4.3-11.57,10.59-13.48,18.7
		c-1.23,5.22-1.86,10.54-2.34,15.86c-1.73,19.05-7.32,36.73-18.35,52.52c-0.23,0.33-0.41,0.68-0.61,1.03
		c0.22,0.38,0.48,0.16,0.74,0.06c6.21-4.24,12.58-8.2,19.36-11.49c7.94-3.86,16.14-6.92,24.86-8.47c8.47-1.51,17-1.7,25.55-0.91
		c13.44,1.23,26.31,5.05,39.22,8.65c11.53,3.21,23.07,6.39,34.87,8.51c7.08,1.27,14.19,2.2,21.36,2.78
		c7.11,0.58,14.22,0.57,21.33,0.4c11.53-0.27,22.91-1.85,34.21-4.07c11.85-2.33,23.4-5.73,34.87-9.43c0.18-0.12,0.37-0.22,0.57-0.29
		C1797.18,456.64,1797.49,456.58,1797.79,456.52z"/>
	<path class="st5" d="M751.01,597.18c-14.07-0.3-28.09-1.21-41.94-3.91c-1.49-0.29-2.98-0.58-4.37-1.24
		c-2.21-1.05-3.49-2.66-3.41-5.26c0.08-2.96,0.01-5.92,0.02-8.87c0.01-3.04,1.29-4.56,4.27-5.08c0.95-0.17,1.9-0.05,2.86,0.04
		c5.8,0.6,11.59,1.23,17.4,1.7c6.45,0.51,12.91,0.93,19.37,1.25c7.11,0.35,14.22,0.41,21.23-1.23c1.87-0.44,3.68-1.07,5.4-1.93
		c4.17-2.07,6.9-5.33,8.19-9.81c0.87-3.04,1.16-6.13,0.83-9.25c-0.4-3.8-2.21-6.96-4.83-9.68c-4.03-4.19-8.85-7.34-13.79-10.31
		c-11.02-6.63-22.13-13.13-33.15-19.77c-6.18-3.73-11.89-8.08-16.84-13.39c-8.66-9.28-12.2-20.16-10.61-32.79
		c0.98-7.78,3.65-14.68,9.4-20.2c4-3.85,8.8-6.33,14-8.09c5.78-1.95,11.77-2.88,17.84-3.39c8.63-0.72,17.26-0.38,25.88,0.08
		c9.73,0.52,19.41,1.62,29.03,3.26c4.02,0.69,5.59,2.57,5.62,6.73c0.02,2.56,0.02,5.12,0,7.68c-0.04,4.29-1.58,5.9-5.81,5.69
		c-5.1-0.26-10.2-0.73-15.3-1.1c-3.19-0.23-6.37-0.56-9.56-0.65c-7.35-0.2-14.7-0.75-22.05-0.54c-4.15,0.12-8.31,0.3-12.36,1.33
		c-1.08,0.27-2.16,0.6-3.2,1c-5.06,1.95-7.62,5.8-8.36,11.05c-0.94,6.63,1.5,11.87,6.49,16.11c4.47,3.8,9.51,6.74,14.52,9.74
		c10.63,6.36,21.31,12.63,31.87,19.11c6.29,3.85,12.09,8.37,16.97,13.97c5.76,6.61,9,14.21,9.47,23.03
		c0.31,5.8-0.11,11.5-1.79,17.05c-3.09,10.19-9.85,17.2-19.34,21.69c-6.94,3.28-14.35,4.77-21.95,5.52
		C758.99,597.1,755.01,597.14,751.01,597.18z"/>
	<path class="st5" d="M89.94,535.72c-0.02-10.09-0.05-20.19-0.06-30.28c0-2.7,0.03-5.4,0.05-8.1c0.79-7.55,1.88-15.05,4.35-22.28
		c3.23-9.45,8.1-17.87,15.46-24.75c7.7-7.19,16.86-11.43,27.13-13.4c6.94-1.33,13.94-1.44,21-1.14c9.68,0.41,19.28,1.35,28.81,3.03
		c0.86,0.15,1.73,0.36,2.54,0.66c1.9,0.71,3.03,2.04,3.04,4.14c0.02,4,0.02,7.99,0.06,11.99c0.03,2.5-2.03,4.29-5.61,4.18
		c-1.35-0.04-2.7-0.24-4.05-0.41c-10.41-1.3-20.87-1.61-31.34-1.69c-5.3-0.04-10.52,0.69-15.46,2.8c-6.6,2.82-11.4,7.56-14.71,13.85
		c-2.94,5.59-4.44,11.6-5.31,17.81c-1.06,7.55-0.86,15.15-0.87,22.74c-0.01,4.72-0.09,9.44,0.02,14.15
		c0.2,8.66,1.06,17.22,4.29,25.37c3.09,7.8,8.01,13.97,15.78,17.55c4.34,2,8.94,2.98,13.7,3.07c10.48,0.19,20.93-0.19,31.36-1.3
		c2.38-0.25,4.75-0.69,7.16-0.63c3.5,0.09,5.01,1.51,5.04,4.94c0.03,3.36,0.05,6.72-0.01,10.07c-0.07,3.51-1.16,4.83-4.62,5.67
		c-3.57,0.87-7.23,1.34-10.87,1.77c-9.93,1.19-19.9,1.96-29.9,1.51c-12.25-0.54-23.59-3.93-33.45-11.49
		c-8.21-6.3-13.89-14.49-17.72-24.02c-2.97-7.39-4.72-15.07-5.4-23C90.27,537.61,90.08,536.67,89.94,535.72z"/>
	<path class="st5" d="M252.56,487.24c0,33.57,0,67.14-0.01,100.71c0,0.95,0.07,1.91-0.17,2.86c-0.73,2.85-2.55,4.36-5.49,4.38
		c-4.64,0.03-9.27,0.03-13.91,0c-3.26-0.02-5.37-2.01-5.69-5.27c-0.06-0.63-0.02-1.28-0.02-1.92c0-67.06,0-134.13,0-201.19
		c0-0.72-0.05-1.45,0.04-2.16c0.39-3.09,2.35-4.83,5.49-4.85c4.72-0.03,9.43-0.03,14.15,0c3.36,0.02,5.36,1.93,5.59,5.27
		c0.05,0.72,0.01,1.44,0.01,2.16C252.56,420.58,252.56,453.91,252.56,487.24z"/>
	<path class="st5" d="M1022.93,487.52c0,33.41,0,66.82,0,100.23c0,0.96,0.04,1.93-0.08,2.87c-0.33,2.6-2.41,4.52-5.04,4.56
		c-4.88,0.06-9.75,0.05-14.63,0.01c-2.87-0.03-4.96-1.97-5.31-4.83c-0.09-0.71-0.06-1.44-0.06-2.16c0-67.22,0-134.44,0-201.66
		c0-0.64-0.02-1.28,0.03-1.92c0.24-2.79,2.23-4.77,5.01-4.8c5.04-0.06,10.07-0.07,15.11,0c2.84,0.04,4.74,1.98,4.95,4.83
		c0.06,0.8,0.03,1.6,0.03,2.4C1022.93,420.55,1022.93,454.04,1022.93,487.52z"/>
	<path class="st5" d="M604.97,519.9c0-22.62,0.06-45.23-0.05-67.85c-0.02-4.28,1.74-6.88,5.56-8.52c7.55-3.23,15.45-5.05,23.55-6.16
		c8.48-1.17,17.02-1.45,25.57-1.64c3.43-0.08,6.87-0.12,10.3-0.16c0.4,0,0.8-0.01,1.2,0c3.98,0.15,5.08,1.25,5.13,5.27
		c0.05,3.76,0.01,7.51,0.01,11.27c0,0.16,0,0.32,0,0.48c-0.18,4.12-1.04,4.95-5.23,5.04c-6.15,0.13-12.3,0.21-18.45,0.38
		c-6.95,0.2-13.85,0.91-20.69,2.28c-1.2,0.24-1.66,0.69-1.56,1.86c0.06,0.63,0.01,1.28,0.01,1.92c0,41.32,0,82.64,0,123.95
		c0,1.35,0.08,2.71-0.53,4c-0.94,1.98-2.44,3.16-4.67,3.18c-4.96,0.03-9.91,0.05-14.87-0.01c-2.35-0.03-4.17-1.56-4.92-3.88
		c-0.38-1.16-0.37-2.36-0.37-3.56C604.97,565.13,604.97,542.51,604.97,519.9z"/>
	<path class="st6" d="M1295.86,351.51c0.45,0.08,0.83,0.29,1.13,0.65c-0.81,0.23-0.81,0.23-1.66-0.13
		C1295.5,351.86,1295.68,351.68,1295.86,351.51z"/>
	<path class="st7" d="M1540.66,471.02c-0.15,0.18-0.28,0.38-0.46,0.53c-0.23,0.18-0.57,0.48-0.76,0.12
		c-0.14-0.26,0.16-0.57,0.48-0.71C1540.16,470.98,1540.41,471,1540.66,471.02z"/>
	<path class="st4" d="M1796.87,456.71c-0.13,0.22-0.32,0.32-0.57,0.29C1796.43,456.79,1796.6,456.65,1796.87,456.71z"/>
	<path class="st8" d="M1595.34,521.3c-0.94-0.56-1.8-1.17-1.95-2.38l-0.02,0.02c0.91,0.5,1.82,0.98,2.43,1.86
		C1595.65,520.97,1595.49,521.13,1595.34,521.3z"/>
	<path class="st9" d="M1641.83,507.91c0.85-0.08,1.72-0.24,2.44,0.42c-0.35,0.11-0.78,0.06-0.96,0.5c-0.57-0.18-1.16-0.34-1.46-0.94
		L1641.83,507.91z"/>
	<path class="st4" d="M1797.37,457.59c0.05-0.27,0.21-0.44,0.48-0.51C1797.78,457.34,1797.62,457.51,1797.37,457.59z"/>
	<path class="st9" d="M1641.86,507.89c-0.07-0.03-0.19-0.09-0.19-0.1c0.04-0.15,0.11-0.1,0.16,0.13
		C1641.83,507.91,1641.86,507.89,1641.86,507.89z"/>
	<path class="st8" d="M1593.39,518.92c-0.07-0.06-0.14-0.12-0.21-0.17c0.04,0.01,0.09,0.01,0.12,0.03c0.04,0.04,0.05,0.11,0.07,0.16
		C1593.37,518.94,1593.39,518.92,1593.39,518.92z"/>
	<path class="st5" d="M956.05,516.38c0-22.46,0-44.92,0-67.38c0-4.11-0.93-5.43-4.92-6.47c-10.37-2.7-20.92-4.4-31.55-5.6
		c-5.72-0.64-11.46-0.94-17.21-1.2c-8.27-0.39-16.44,0.14-24.49,2.12c-14.71,3.62-26.05,11.8-33.51,25.09
		c-5.78,10.3-8.24,21.54-9.2,33.19c-0.74,9.02-0.31,18.05-0.43,27.08c-0.08,5.92,0.19,11.81,0.86,17.7c0.93,8.06,2.75,15.88,6,23.33
		c4.92,11.28,12.54,20.16,23.53,25.93c8.65,4.55,17.98,6.53,27.65,6.91c10.56,0.41,21.07-0.42,31.54-1.78
		c8.95-1.16,17.82-2.75,26.58-4.92c3.98-0.99,5.1-2.5,5.12-6.62c0-0.48,0-0.96,0-1.44C956.05,560.33,956.05,538.35,956.05,516.38z
		 M930.72,570.96c-0.02,2.16-0.01,2.23-2.18,2.53c-3.87,0.54-7.75,1.12-11.64,1.46c-6.84,0.6-13.7,1.14-20.58,1.04
		c-3.93-0.06-7.81-0.55-11.6-1.6c-9.99-2.78-16.52-9.32-20.26-18.82c-2.21-5.61-3.4-11.47-3.86-17.47
		c-1.01-13.17-0.63-26.36-0.31-39.54c0.19-7.67,1.53-15.24,4.58-22.4c4.59-10.78,12.73-16.91,24.25-18.63
		c6.84-1.03,13.71-0.58,20.57-0.18c5.42,0.31,10.83,0.85,16.2,1.63c0.87,0.13,1.73,0.27,2.6,0.42c2.21,0.38,2.22,0.38,2.23,2.71
		c0,18.14,0,36.29,0,54.43c0,17.66,0,35.33,0,52.99C930.72,570,930.72,570.48,930.72,570.96z"/>
	<path class="st5" d="M415.89,495.86c-0.84-8.89-2.73-17.51-6.37-25.68c-6.93-15.58-18.25-26.4-34.71-31.48
		c-11.52-3.55-23.25-4.04-35.06-1.84c-20.7,3.85-35.04,15.75-43.46,34.9c-4.67,10.62-6.47,21.87-6.6,33.38
		c-0.11,9.66-0.31,19.33,0.28,29c0.52,8.5,1.93,16.81,4.9,24.81c5.39,14.54,14.93,25.34,29.14,31.81
		c9.14,4.16,18.83,6.05,28.82,6.34c14.41,0.41,28.74-0.62,42.97-2.91c3.54-0.57,7.08-1.22,10.6-1.91c3.54-0.69,5.17-2.21,5.37-5.46
		c0.22-3.66,0.17-7.35,0.04-11.02c-0.08-2.26-1.42-3.43-3.67-3.69c-1.76-0.21-3.52-0.02-5.26,0.23c-8.61,1.27-17.27,2.13-25.94,2.83
		c-3.67,0.3-7.34,0.42-11,0.63c-6.38,0.35-12.77,0.47-19.12-0.66c-14.17-2.52-23.68-10.5-28.42-24.1
		c-2.69-7.71-3.47-15.71-3.42-23.83c0.02-2.64-0.49-2.84,2.91-2.83c15.35,0.01,30.7,0.01,46.05,0.01c15.43,0,30.86,0.01,46.29-0.01
		c4.04,0,6.07-1.83,6.05-5.74C416.26,511.03,416.61,503.44,415.89,495.86z M388.39,505.13c-9.12,0.01-18.23,0-27.35,0
		c-2.72,0-5.44,0-8.16,0c-11.43,0-22.87,0.02-34.3-0.01c-4.11-0.01-3.63,0.53-3.56-3.51c0.15-8.22,1.38-16.24,4.85-23.76
		c5.02-10.87,13.47-17.38,25.31-19.41c6.3-1.08,12.55-0.93,18.8,0.42c11.34,2.45,18.82,9.33,22.96,20.01
		c1.97,5.1,2.97,10.42,3.47,15.85c0.24,2.63,0.43,5.25,0.42,7.89C390.83,505.11,390.83,505.13,388.39,505.13z"/>
	<path class="st5" d="M1186.56,498.21c-0.71-9.56-2.56-18.82-6.39-27.62c-6.92-15.9-18.43-26.87-35.15-31.98
		c-11.68-3.57-23.6-3.97-35.54-1.64c-17.37,3.4-30.6,12.77-39.42,28.18c-6.25,10.91-9.22,22.82-9.65,35.24
		c-0.42,12.05-0.6,24.13,0.25,36.18c0.49,6.88,1.76,13.61,3.93,20.15c5.29,15.93,15.35,27.62,30.83,34.44
		c8.06,3.55,16.58,5.3,25.31,5.82c8.86,0.53,17.74,0.18,26.59-0.51c7.16-0.56,14.29-1.46,21.37-2.72c2.83-0.5,5.67-0.95,8.48-1.54
		c3.65-0.78,4.99-2.48,5.02-6.19c0.03-3.28,0.03-6.55,0-9.83c-0.03-2.64-1.27-3.93-3.92-4.14c-1.6-0.13-3.2,0.02-4.78,0.26
		c-8.69,1.3-17.43,2.16-26.19,2.83c-3.43,0.26-6.86,0.34-10.29,0.56c-6.63,0.43-13.25,0.55-19.83-0.61
		c-12.24-2.17-21.33-8.56-26.65-19.96c-4.33-9.29-5.03-19.22-5.18-29.24c-0.02-1.15,0.51-1.58,1.6-1.52c0.56,0.03,1.12,0,1.68,0
		c15.27,0,30.54,0,45.81,0c15.03,0,30.06,0,45.09,0c0.88,0,1.76,0,2.64-0.06c1.95-0.14,3.26-1.22,4.03-2.95
		c0.49-1.1,0.71-2.28,0.69-3.5C1186.77,511.31,1187.04,504.76,1186.56,498.21z M1159.85,505.13c-0.56-0.04-1.12,0-1.68,0
		c-11.67,0-23.34,0-35,0c-11.75,0-23.5,0-35.24,0c-2.68,0-2.68-0.05-2.52-2.65c0.31-5.02,0.56-10.03,1.71-14.96
		c1.11-4.78,2.75-9.34,5.29-13.55c4.64-7.7,11.38-12.66,20.06-14.86c7.8-1.98,15.67-1.91,23.46,0.09
		c10.85,2.79,17.83,9.85,21.69,20.17c2.05,5.5,3.03,11.23,3.42,17.07c0.16,2.39,0.22,4.78,0.37,7.17
		C1161.47,504.77,1160.96,505.21,1159.85,505.13z"/>
	<path class="st5" d="M566.15,516.52c0-20.22,0-40.44,0-60.66c0-2.56,0.04-5.12-0.02-7.67c-0.08-3.38-0.96-4.59-4.2-5.51
		c-2.68-0.76-5.41-1.37-8.15-1.93c-13.47-2.76-27.06-4.51-40.83-5.02c-7.79-0.29-15.5,0.02-23.1,1.69
		c-16.5,3.62-28.89,12.7-36.56,27.92c-5.31,10.54-7.69,21.86-8.08,33.5c-0.42,12.93-0.68,25.88,0.28,38.81
		c0.62,8.41,2.33,16.59,5.43,24.45c4.12,10.44,10.49,19.15,19.95,25.42c9.39,6.23,19.92,8.87,30.99,9.52
		c8.95,0.53,17.9-0.06,26.8-1.01c7.93-0.84,15.83-2,23.64-3.69c3.19-0.69,6.4-1.37,9.55-2.24c3.25-0.9,4.15-2.19,4.28-5.49
		c0.03-0.8,0.02-1.6,0.02-2.4C566.15,560.32,566.15,538.42,566.15,516.52z M540.97,569.62c0,0.48,0.01,0.96,0,1.44
		c-0.02,1.99-0.02,2.04-2.06,2.38c-2.44,0.4-4.89,0.79-7.35,1.04c-8.26,0.84-16.54,1.61-24.86,1.5c-4.65-0.06-9.23-0.66-13.66-2.17
		c-9.47-3.24-15.34-9.98-18.75-19.16c-2.22-5.97-3.28-12.18-3.72-18.48c-0.74-10.77-0.45-21.56-0.34-32.34
		c0.07-7.18,0.69-14.35,2.64-21.33c1.25-4.49,2.94-8.76,5.61-12.63c4.4-6.37,10.54-10.08,17.96-11.84c3.91-0.93,7.89-1.11,11.9-1.1
		c10.24,0.04,20.42,0.85,30.53,2.48c2.07,0.33,2.09,0.33,2.09,2.58c0,18.14,0,36.28,0,54.41
		C540.97,534.14,540.97,551.88,540.97,569.62z"/>
</g>
</svg>
