<?xml version="1.0" encoding="utf-8"?>
<!-- Generator: Adobe Illustrator 24.0.1, SVG Export Plug-In . SVG Version: 6.00 Build 0)  -->
<svg version="1.1" id="Camada_1" xmlns="http://www.w3.org/2000/svg" xmlns:xlink="http://www.w3.org/1999/xlink" x="0px" y="0px"
	 viewBox="0 0 612 792" style="enable-background:new 0 0 612 792;" xml:space="preserve">
<style type="text/css">
	.st0{fill:#E2A529;}
	.st1{fill:#F0D397;}
	.st2{fill:#D1711F;}
	.st3{fill:#6E1F4D;}
	.st4{fill:#6E204D;}
	.st5{fill:#F8EBE0;}
	.st6{fill:#E2A671;}
	.st7{fill:#FDFCFB;}
	.st8{fill:#F3DBC6;}
	.st9{fill:#E0A068;}
	.st10{fill:#6D1F4D;}
</style>
<g>
	<path class="st0" d="M374.11,413.19c-4.08,2.81-8.49,4.94-13.27,6.3c-2.84,0.81-5.73,1.28-8.66,1.59
		c-0.29,0.03-0.65-0.13-0.84,0.25c-0.48,0-0.96,0-1.44,0c-1.12-0.2-2.24-0.2-3.36,0c-0.48,0-0.96,0-1.44,0
		c-0.77-0.48-1.67-0.31-2.5-0.47c-0.47-0.09-0.95-0.09-1.42-0.39c7.06-1.24,12.93-4.54,17.76-9.72c0.37-0.4,0.81-0.77,0.98-1.33
		c-0.03-0.44,0.26-0.73,0.48-1.05c2.78-4.02,4.5-8.43,5.01-13.3c0.05-0.51,0.09-1.03,0.53-1.4c1.29,1.83,1.7,4,2.38,6.06
		c0.17,0.52,0.31,1.06,0.52,1.78c3.57-5.06,8.11-8.09,14.49-7.79c-2.34,0.99-2.59,3.02-2.79,5.12c-0.19,2.06-0.83,3.99-2.24,5.98
		c2.07-1.06,3.76-2.22,5.85-2.31c0.18,0.59-0.24,0.98-0.53,1.38c-2.38,3.29-5.22,6.15-8.38,8.71
		C374.91,412.87,374.49,412.98,374.11,413.19z"/>
	<path class="st1" d="M346.54,421.34c1.12-0.39,2.24-0.38,3.36,0C348.78,421.34,347.66,421.34,346.54,421.34z"/>
	<path class="st2" d="M365.95,393.68c-0.45,4.26-1.43,8.37-3.58,12.14c-0.72,1.26-1.41,2.55-2.44,3.62
		c-2.95-1.44-5.7-3.19-8.46-5.29c1.3-0.28,2.37-0.5,3.45-0.73c0.31-0.29,0.69-0.34,1.09-0.33c0.1-0.03,0.21-0.02,0.29-0.1
		c-0.18,0.07-0.37,0.11-0.56,0.1c-0.91,0.05-1.82,0.02-2.72-0.07c-2-0.3-3.85-0.94-5.6-2.42c2.03-0.26,3.92-0.34,5.91-1.09
		c-3.76-0.63-7.15-1.49-9.53-4.84c2.33,0.54,4.41,1.2,6.91,1.13c-6.09-2.42-11.83-4.88-13.95-11.57c3.47,2.44,6.96,4.82,11.14,5.99
		c-7.26-4.7-13.16-10.41-15-19.3c0.45-0.09,0.53,0.23,0.67,0.41c4.41,5.92,10.2,9.98,17.1,12.55c2.8,1.04,5.64,1.99,8.3,3.36
		C361.89,388.73,364.4,390.7,365.95,393.68z"/>
	<path class="st2" d="M374.11,413.19c1.47-1.26,3.03-2.44,4.39-3.82c2.09-2.11,4.16-4.27,5.67-6.87c2.14-0.49,4.18,0.05,6.22,0.6
		c2.61,0.7,5.2,1.47,7.91,1.7c3.13,0.26,6.18-0.17,9.2-0.99c0.53-0.15,1.03-0.42,1.61-0.38c-0.09,0.66-0.69,0.84-1.12,1.13
		c-2.77,1.85-5.86,2.72-9.16,2.96c-1.36,0.23-2.75-0.05-4.11,0.15c-0.02,0-0.05,0.05-0.06,0.08c-0.02,0.08,0.02,0.15,0.1,0.18
		c2.55,0.47,5.12,0.58,7.74,0.54c-1.31,1.19-2.96,1.45-4.62,1.62c-1.75,0.17-3.49-0.13-5.23-0.25c-0.19-0.06-0.38-0.04-0.57,0.04
		c0.08,0.07,0.17,0.13,0.25,0.21c0.81,0.3,1.63,0.6,2.67,0.99c-2.38,0.69-4.46,0.13-6.63-0.37c0.39,0.31,0.77,0.63,1.17,0.93
		c0.4,0.3,0.82,0.58,1.43,1.02c-1.61,0.17-2.87-0.25-4.14-0.65c-0.28-0.11-0.38-0.03-0.26,0.26c0.23,0.2,0.45,0.41,0.84,0.76
		C382.85,413.76,378.49,413.91,374.11,413.19z"/>
	<path class="st3" d="M282.41,420.16c-1.77-0.01-3.26-0.23-4.77-0.42c-1.27-0.16-1.15-0.97-1.1-1.81c0.05-1.01,0.82-0.68,1.35-0.63
		c1.83,0.17,3.66,0.31,5.5,0.26c1.17-0.04,2.26-0.27,2.69-1.55c0.4-1.18,0.01-2.1-1.37-2.99c-1.74-1.12-3.55-2.13-5.29-3.24
		c-1.34-0.85-2.45-1.94-2.8-3.57c-0.58-2.64,0.78-4.74,3.48-5.32c2.7-0.58,5.41-0.23,8.09,0.19c1.07,0.17,0.66,1.11,0.69,1.75
		c0.03,0.71-0.52,0.65-1.01,0.64c-2.27-0.04-4.54-0.55-6.8-0.06c-1.43,0.31-1.93,1.79-1.05,2.96c0.39,0.52,0.93,0.86,1.48,1.19
		c1.33,0.8,2.67,1.58,4,2.38c0.82,0.49,1.62,1.02,2.3,1.71c1.43,1.44,1.77,3.14,1.25,5.05c-0.49,1.82-1.85,2.7-3.55,3.17
		C284.4,420.17,283.28,420.2,282.41,420.16z"/>
	<path class="st3" d="M205.4,410.41c-0.01,1.23-0.08,2.46,0.21,3.68c0.53,2.27,1.89,3.41,4.23,3.4c1.27-0.01,2.55-0.14,3.82-0.2
		c0.46-0.02,1.09-0.16,1.05,0.58c-0.04,0.67,0.5,1.69-0.63,1.89c-2.4,0.43-4.83,0.79-7.21-0.08c-2.64-0.96-3.92-3.04-4.36-5.66
		c-0.4-2.4-0.38-4.83-0.01-7.24c0.55-3.57,2.87-5.77,6.46-6.12c1.68-0.16,3.34,0.08,5,0.36c1.22,0.2,0.69,1.15,0.76,1.8
		c0.08,0.81-0.54,0.71-1.07,0.68c-1-0.06-1.99-0.12-2.99-0.17c-3.41-0.15-5.04,1.3-5.26,4.7
		C205.35,408.82,205.4,409.62,205.4,410.41z"/>
	<path class="st4" d="M315.59,407.03c0,3.82-0.05,7.63,0.03,11.45c0.03,1.32-0.56,1.45-1.65,1.48c-1.17,0.03-1.49-0.37-1.48-1.51
		c0.04-7.71,0.05-15.42,0-23.13c-0.01-1.18,0.38-1.52,1.51-1.46c1.59,0.08,1.59,0.02,1.59,1.49
		C315.59,399.24,315.59,403.14,315.59,407.03z"/>
	<path class="st4" d="M219,406.9c0-3.89,0.04-7.79-0.03-11.68c-0.02-1.19,0.46-1.38,1.49-1.37c1,0.02,1.64,0.07,1.63,1.37
		c-0.05,7.79-0.05,15.57,0,23.36c0.01,1.3-0.64,1.35-1.63,1.37c-1.04,0.02-1.5-0.2-1.48-1.37C219.04,414.68,219,410.79,219,406.9z"
		/>
	<path class="st3" d="M264.82,410.74c0-2.58,0.02-5.16-0.01-7.75c-0.01-0.78,0.22-1.25,0.99-1.53c2.26-0.81,4.61-0.88,6.96-0.82
		c1.19,0.03,0.56,1.08,0.68,1.68c0.12,0.59-0.07,0.98-0.8,0.99c-1.24,0.02-2.47,0.11-3.71,0.15c-0.79,0.02-1.05,0.36-1.04,1.18
		c0.04,4.61-0.02,9.22,0.05,13.82c0.02,1.29-0.51,1.49-1.63,1.49c-1.13,0.01-1.56-0.29-1.52-1.47
		C264.88,415.9,264.82,413.32,264.82,410.74z"/>
	<path class="st5" d="M356.12,403.19c-0.4,0.07-0.8,0.15-1.2,0.22c-0.56-0.48-1.34,0.08-1.9-0.4c1.04-0.02,2.07-0.03,3.11-0.05
		c0.06,0.06,0.08,0.11,0.05,0.16C356.16,403.16,356.14,403.19,356.12,403.19z"/>
	<path class="st6" d="M394.76,407.94c-0.34,0.06-0.59-0.06-0.83-0.42c1.7,0,3.3,0,4.9,0c-0.91,0.38-1.88,0.15-2.82,0.23
		C395.59,407.8,395.13,407.59,394.76,407.94z"/>
	<path class="st7" d="M392.33,410.09c-0.29-0.09-0.58-0.17-1.18-0.35c0.74-0.15,1.13-0.14,1.5,0.1
		C392.54,409.93,392.43,410.01,392.33,410.09z"/>
	<path class="st8" d="M386.57,412.27c-0.22-0.12-0.64-0.2-0.4-0.52c0.16-0.2,0.47,0.06,0.66,0.26
		C386.74,412.1,386.65,412.18,386.57,412.27z"/>
	<path class="st9" d="M356.12,403.19c0.03-0.08,0.04-0.15,0.01-0.23c0.22-0.25,0.48-0.33,0.78-0.12
		C356.69,403.07,356.44,403.21,356.12,403.19z"/>
	<path class="st3" d="M307.46,410.48c0-2.59-0.02-5.17,0.01-7.75c0.01-0.73-0.16-1.2-0.97-1.36c-2.16-0.43-4.33-0.79-6.53-0.73
		c-3.84,0.1-6.22,2.02-6.96,5.78c-0.55,2.78-0.56,5.63,0.09,8.41c0.77,3.33,3.17,5.21,6.59,5.34c2.13,0.08,4.21-0.23,6.3-0.59
		c1.11-0.19,1.54-0.64,1.49-1.8C307.4,415.33,307.46,412.91,307.46,410.48z M303.42,417.4c-1.07,0.03-2.15,0.17-3.22,0.16
		c-2.34-0.01-3.76-1.14-4.17-3.44c-0.43-2.48-0.44-4.99,0.01-7.47c0.41-2.28,1.86-3.43,4.19-3.43c1.07,0,2.14,0.17,3.22,0.19
		c0.71,0.02,0.96,0.26,0.94,0.99c-0.05,2.02-0.02,4.05-0.02,6.08c0,1.95-0.04,3.89,0.02,5.84
		C304.41,417.08,304.15,417.37,303.42,417.4z"/>
	<path class="st3" d="M230.52,411.35c1.71,0.05,3.43,0.02,5.15,0.02s3.43-0.03,5.15,0.01c0.82,0.02,1.2-0.28,1.15-1.1
		c-0.06-1.07-0.03-2.15-0.19-3.21c-0.57-3.88-3.22-6.26-7.11-6.45c-3.85-0.19-6.83,1.95-7.73,5.72c-0.67,2.82-0.64,5.69,0.04,8.5
		c0.62,2.55,2.28,4.26,4.84,4.94c2.97,0.79,5.95,0.35,8.89-0.22c1.1-0.21,0.63-1.23,0.62-1.9c0-0.72-0.6-0.55-1.08-0.49
		c-1.7,0.22-3.41,0.39-5.12,0.4c-3.57,0.01-5.35-1.7-5.51-5.26C229.58,411.59,229.75,411.32,230.52,411.35z M235.21,403.4
		c2.3,0.31,4.13,2.96,3.64,5.22c-0.12,0.54-0.49,0.43-0.83,0.43c-1.28,0.01-2.55,0-3.83,0c-1.28,0-2.55-0.02-3.83,0.01
		c-0.56,0.01-0.75-0.17-0.74-0.75C229.68,404.9,231.89,402.95,235.21,403.4z"/>
	<path class="st10" d="M324.03,411.35c1.72,0.05,3.43,0.02,5.15,0.02c1.72,0,3.44-0.03,5.15,0.01c0.81,0.02,1.16-0.28,1.16-1.1
		c0-1.16-0.04-2.31-0.24-3.45c-0.66-3.74-3.29-6.03-7.09-6.21c-3.79-0.17-6.85,1.98-7.7,5.64c-0.65,2.81-0.62,5.7,0.01,8.52
		c0.51,2.26,1.89,3.95,4.12,4.76c3.21,1.17,6.47,0.63,9.69,0.01c1-0.19,0.57-1.18,0.57-1.83c0-0.69-0.55-0.61-1.06-0.54
		c-1.66,0.23-3.33,0.39-5.01,0.41c-3.72,0.04-5.4-1.53-5.65-5.25C323.09,411.61,323.26,411.33,324.03,411.35z M323.14,408.46
		c0.16-3.3,1.85-5.49,5.42-5.08c2.41,0.28,4.23,2.81,3.81,5.2c-0.1,0.55-0.45,0.47-0.79,0.47c-1.28,0.01-2.55,0-3.83,0
		c-1.28,0-2.55,0-3.83,0C323.52,409.05,323.11,409.09,323.14,408.46z"/>
	<path class="st10" d="M260.11,410.37c0-2.58-0.02-5.17,0.01-7.75c0.01-0.71-0.21-1.11-0.94-1.25c-2.15-0.44-4.32-0.8-6.52-0.74
		c-3.97,0.11-6.42,2.25-7.04,6.13c-0.39,2.49-0.39,4.99,0.02,7.48c0.61,3.69,3.19,5.85,6.96,5.93c2.17,0.05,4.29-0.26,6.41-0.68
		c0.83-0.17,1.12-0.53,1.1-1.35C260.09,415.54,260.11,412.95,260.11,410.37z M255.93,417.43c-1.07,0.03-2.15,0.15-3.22,0.13
		c-2.11-0.03-3.51-1.09-3.91-3.15c-0.52-2.67-0.53-5.38,0-8.04c0.41-2.04,1.82-3.12,3.93-3.14c1.15-0.01,2.3,0.17,3.46,0.19
		c0.76,0.02,0.92,0.37,0.91,1.05c-0.03,1.98-0.01,3.97-0.01,5.96c0,1.91-0.06,3.81,0.03,5.72
		C257.15,417.08,256.79,417.4,255.93,417.43z"/>
</g>
</svg>
