<?xml version="1.0" encoding="utf-8"?>
<!-- Generator: Adobe Illustrator 24.0.1, SVG Export Plug-In . SVG Version: 6.00 Build 0)  -->
<svg version="1.1" id="Camada_1" xmlns="http://www.w3.org/2000/svg" xmlns:xlink="http://www.w3.org/1999/xlink" x="0px" y="0px"
	 viewBox="0 0 1815.15 792" style="enable-background:new 0 0 1815.15 792;" xml:space="preserve">
<style type="text/css">
	.st0{fill:#5A35B7;}
	.st1{fill:#E4DEF3;}
	.st2{fill:#7657C3;}
	.st3{fill:#7556C3;}
	.st4{fill:#9F89D5;}
	.st5{fill:#9C87D4;}
	.st6{fill:#D4CBEC;}
	.st7{fill:#D0C5EA;}
	.st8{fill:#D8D3EF;}
	.st9{fill:#BCBCE7;}
	.st10{fill:#B8A9E0;}
	.st11{fill:#FDFDFD;}
	.st12{fill:#C1CCED;}
	.st13{fill:#C7C1E9;}
	.st14{fill:#B6B3E4;}
</style>
<g>
	<path class="st0" d="M1503.69,471.54c7.29-5.08,14.87-9.66,22.98-13.32c7.23-3.26,14.68-5.84,22.54-7.14
		c9.21-1.52,18.44-1.62,27.7-0.47c12.66,1.57,24.84,5.14,37.07,8.56c11.92,3.33,23.86,6.55,36.08,8.65
		c7.88,1.36,15.81,2.24,23.8,2.73c7.84,0.48,15.67,0.36,23.48-0.19c12.54-0.87,24.9-2.92,37.11-5.88
		c8.54-2.07,16.96-4.56,25.29-7.36c0.61-0.2,1.35-1.15,2.08-0.09c-0.59,1.97-2.25,3.06-3.67,4.29
		c-13.66,11.77-29.43,19.58-46.57,24.84c-12.18,3.74-24.63,6.13-37.3,7.4c-12.32,1.23-24.69,1.4-37.06,0.91
		c-1.96-0.6-4.08-0.17-5.97-0.8c0.53,0.26,1.18,0.31,1.84,0.33c8.51,1.87,17.04,3.59,25.74,4.33c11.94,1.02,23.88,1.77,35.87,0.81
		c3.1-0.25,6.23,0.08,9.34-0.37c0.6-0.09,1.35-0.05,1.62,0.69c0.21,0.59-0.2,1.09-0.57,1.49c-1.37,1.48-3.04,2.58-4.74,3.63
		c-8.61,5.31-18.13,7.92-28.03,9.21c-17.84,2.33-35.55,0.93-53.16-2.32c-3.38-0.62-6.76-1.25-10.38-2.16
		c3.35,1.54,6.42,3.01,9.59,4.24c3.2,1.24,6.42,2.45,9.71,3.46c3.36,1.04,6.75,1.96,10.13,2.92c1.17,0.33,3.04,0.27,3.08,1.72
		c0.04,1.43-1.79,1.62-2.97,1.96c-6.66,1.96-13.42,2.46-20.37,1.88c-10.71-0.9-20.88-3.74-30.84-7.6c-0.82-0.32-1.65-0.62-2.39-1.09
		c-0.34-0.31-0.76-0.54-1.1-1.04c0.18,0.43,0.52,0.56,0.73,0.8c5.94,4.83,11.57,10.06,18.16,14.07c1.64,1,3.32,1.92,5,2.83
		c0.62,0.34,1.43,0.72,1.24,1.56c-0.2,0.87-1.12,0.74-1.81,0.81c-10.64,1.16-20.81-0.85-30.67-4.71
		c-5.67-2.22-11.07-4.98-15.85-8.81c-0.63-0.71-1.47-1.19-2.13-1.86c0.69,0.73,1.56,1.26,2.24,2.01
		c5.59,4.53,10.99,9.29,16.86,13.47c0.74,0.53,1.85,1.04,1.6,2.15c-0.25,1.13-1.45,1.1-2.38,1.26c-9.31,1.54-18.67,2.61-28.07,3.34
		c-11.87,0.93-23.75,1.62-35.66,1.33c-13.89-0.34-27.77-1.12-41.54-3.08c-2.73-0.39-4.77,0.34-6.87,1.89
		c-12.92,9.5-26.65,17.62-41.05,24.68c-23.9,11.74-48.58,21.36-74.44,27.82c-17.24,4.31-34.7,7.36-52.38,9.24
		c-7.95,0.85-15.92,1.12-23.9,1.4c-1.54,0-3.08,0-4.61,0c-1.56,0-3.12,0-4.68,0c-1.8,0.13-3.62-0.28-5.4,0.25c-1.28,0-2.56,0-3.84,0
		c-1.77-0.52-3.58-0.12-5.37-0.25c-1.57,0-3.14,0-4.72,0c-1.44-0.11-2.9,0.24-4.32-0.21c-6.29-0.48-12.59-0.91-18.88-1.46
		c-8.44-0.73-16.82-1.92-25.14-3.48c-0.21-0.04-0.4-0.2-1.09-0.56c31.43-4.78,60.45-15.1,87.49-30.89
		c27.02-15.79,50.7-35.52,70.65-60.18c-24.93-12.97-48.56-27.46-70.77-44.72c0.84-0.49,1.59-0.56,2.32-0.66
		c10.37-1.42,20.65-3.28,30.8-5.85c3.71-0.94,7.42-1.91,10.98-3.36c0.14-0.16,0.45-0.43,0.4-0.46c-0.44-0.24-0.92-0.34-1.39-0.02
		c-3.09,0.38-6.17,0.84-9.27,1.13c-19.98,1.88-38.81-1.68-56.18-12.01c-3.85-2.29-7.5-4.88-10.82-7.91
		c-0.28-0.26-0.65-0.48-0.64-1.04c17.17,0.73,33.69-2.9,50.06-7.54c0.4-0.29,0.39-0.57-0.03-0.83
		c-16.46-1.79-32.46-5.33-47.46-12.58c-9.74-4.7-18.52-10.74-25.58-19.05c-2.07-2.44-3.95-5.01-5.36-7.92
		c0.56-0.59,1.05-0.12,1.52,0.02c10.23,3.19,20.58,5.85,31.16,7.57c8.44,1.38,16.93,2.28,25.69,2.04c-0.54-1.04-1.54-0.99-2.29-1.24
		c-15.26-5.06-30.15-11.01-44.43-18.42c-15.61-8.1-30.21-17.68-42.89-29.96c-10.03-9.71-18.41-20.6-23.87-33.57
		c-1.84-4.36-3.2-8.86-3.97-13.52c-0.06-0.38-0.18-0.77,0.09-1.22c1.07,0.4,1.82,1.25,2.68,1.93
		c17.36,13.82,35.59,26.31,55.32,36.53c11.51,5.96,23.34,11.15,35.85,14.67c1.54,0.43,3.09,0.81,4.64,1.19
		c0.22,0.06,0.47,0.01,0.92,0.01c-0.53-0.87-1.36-1.1-2.04-1.5c-16.44-9.48-32.13-20.05-46.81-32.1
		c-23.18-19.03-43.13-40.88-58.45-66.78c-9.37-15.83-16.63-32.55-20.92-50.49c-1.13-4.74-1.93-9.54-2.41-14.4
		c-0.02-0.2,0.13-0.42,0.21-0.63c0,0-0.01-0.03-0.01-0.03c0.18,0.15,0.36,0.3,0.52,0.48c2.88,4.52,6.26,8.67,9.58,12.86
		c19.04,24.05,40.93,45.04,66.45,62.17c18.25,12.25,37.77,22.07,58.03,30.48c16.01,6.65,32.35,12.42,48.49,18.71
		c13.56,5.28,26.91,10.99,39.57,18.21c24.39,13.92,42.91,33.33,54.99,58.74c4.16,8.75,6.97,18.01,9.86,27.23
		c2.77,8.84,5.31,17.74,7.72,26.69c0.12,0.46,0.3,0.9,0.5,1.47c0.93-0.43,1.16-1.32,1.61-2c14.86-22.71,34.12-40.49,58.71-52.26
		c12.35-5.91,25.37-9.56,39-11.02c7.49-0.8,14.98-1.14,22.5-0.51c0.31,0.03,0.63,0.08,1.14,0.15c-0.46,0.64-1.08,0.7-1.58,0.93
		c-1.9,0.85-3.83,1.62-5.69,2.52c-9.44,4.59-15.03,12.08-16.94,22.4c-1.06,5.74-1.67,11.54-2.3,17.33
		c-1.89,17.48-7.46,33.61-17.37,48.18c-0.36,0.53-0.69,1.08-1.03,1.61C1503.53,471.12,1503.32,471.37,1503.69,471.54z"/>
	<path class="st1" d="M52.57,503.1c0.81-0.94,0.31-2.07,0.47-3.11c0.13-0.89-0.28-1.87,0.45-2.65c0.93,0.88,0.81,2.04,0.81,3.14
		c0.03,10.7,0.03,21.41,0,32.11c0,1.1,0.12,2.27-0.81,3.14c-0.74-0.79-0.32-1.77-0.45-2.65c-0.16-1.04,0.35-2.17-0.47-3.11
		C52.57,521.01,52.57,512.05,52.57,503.1z"/>
	<path class="st2" d="M1248.84,605.8c1.77,0.16,3.62-0.55,5.32,0.44c-1.76,0-3.52,0-5.28,0c-0.15-0.08-0.2-0.18-0.17-0.28
		C1248.75,605.86,1248.79,605.8,1248.84,605.8z"/>
	<path class="st3" d="M1258,606.24c1.71-0.99,3.55-0.28,5.32-0.43c0.13,0.11,0.16,0.21,0.11,0.3c-0.05,0.09-0.1,0.13-0.15,0.13
		C1261.52,606.24,1259.76,606.24,1258,606.24z"/>
	<path class="st4" d="M1248.84,605.8c0.03,0.14,0.04,0.29,0.04,0.44c-1.6,0-3.2,0-4.8,0c-0.15-0.09-0.2-0.18-0.16-0.28
		c0.04-0.1,0.09-0.15,0.13-0.15C1245.65,605.81,1247.24,605.81,1248.84,605.8z"/>
	<path class="st5" d="M1263.27,606.24c0.01-0.15,0.02-0.29,0.04-0.43c1.6,0.01,3.2,0.01,4.8,0.02c0.12,0.11,0.16,0.2,0.1,0.29
		c-0.05,0.08-0.1,0.12-0.15,0.12C1266.47,606.24,1264.87,606.24,1263.27,606.24z"/>
	<path class="st6" d="M1268.07,606.24c0-0.14,0.01-0.28,0.04-0.41c1.59-0.02,3.17-0.25,4.76-0.05c0,0.15,0,0.31-0.01,0.46
		C1271.27,606.24,1269.67,606.24,1268.07,606.24z"/>
	<path class="st7" d="M1244.05,605.81c0.03,0.14,0.04,0.29,0.03,0.43c-1.44,0-2.88,0-4.32,0c0-0.15,0-0.31-0.01-0.46
		C1241.19,605.79,1242.62,605.8,1244.05,605.81z"/>
	<path class="st0" d="M719.1,435.85c14.02-0.02,27.93,1.33,41.76,3.54c0.79,0.13,1.58,0.29,2.33,0.56c2.03,0.74,3.39,2.09,3.58,4.35
		c0.31,3.75,0.36,7.51,0,11.25c-0.27,2.73-1.69,3.94-4.47,3.98c-4.08,0.06-8.13-0.53-12.2-0.81c-13.8-0.96-27.61-1.74-41.46-1.14
		c-3.27,0.14-6.51,0.69-9.61,1.86c-5.44,2.05-8.16,6.05-8.8,11.75c-0.66,5.87,1.26,10.65,5.54,14.63c2.94,2.74,6.2,5.05,9.63,7.11
		c10.75,6.46,21.53,12.88,32.32,19.29c6.82,4.05,13.41,8.41,19.16,13.93c5.83,5.61,10.24,12.08,11.86,20.13
		c1.67,8.29,1.37,16.55-1.34,24.6c-2.83,8.41-8.35,14.63-16.03,18.97c-5.99,3.38-12.49,5.24-19.25,6.31
		c-10.26,1.63-20.56,1.22-30.87,0.65c-7.11-0.39-14.19-1.05-21.22-2.11c-3-0.45-5.98-1.02-8.96-1.6c-1.17-0.23-2.31-0.62-3.37-1.2
		c-1.84-1-2.87-2.48-2.86-4.62c0.01-3.28-0.03-6.56,0.02-9.83c0.04-2.39,1.51-3.97,3.93-4.36c1.52-0.24,3.04-0.08,4.55,0.1
		c10.88,1.32,21.8,2.11,32.74,2.64c7.5,0.36,15.03,0.72,22.47-0.76c2.2-0.44,4.35-1.06,6.38-2.02c4.53-2.14,7.51-5.58,8.75-10.48
		c0.67-2.66,0.97-5.35,0.79-8.08c-0.26-3.91-1.91-7.21-4.54-10.07c-2.62-2.85-5.69-5.14-8.88-7.29
		c-7.17-4.82-14.75-8.96-22.13-13.43c-6.76-4.1-13.74-7.86-20.29-12.31c-6.11-4.16-11.74-8.85-16.21-14.81
		c-6.44-8.58-8.52-18.23-7.27-28.75c0.7-5.89,2.42-11.39,5.93-16.25c4.24-5.86,10.08-9.48,16.79-11.81
		c8.48-2.95,17.27-3.86,26.19-3.93C715.74,435.84,717.42,435.85,719.1,435.85z"/>
	<path class="st0" d="M53.5,535.73c-0.03-5.4-0.09-10.81-0.08-16.21c0-7.39,0.06-14.79,0.09-22.18c0.77-8.05,2.05-15.99,4.85-23.63
		c3.72-10.19,9.38-19.03,17.95-25.85c8.23-6.55,17.69-10.14,28.04-11.42c9.73-1.2,19.47-0.58,29.19,0.28
		c5.34,0.47,10.63,1.19,15.91,2.08c5.43,0.91,6.42,2.05,6.43,7.53c0,2.96,0.03,5.92-0.01,8.87c-0.04,2.99-1.54,4.5-4.57,4.69
		c-1.37,0.09-2.7-0.18-4.05-0.33c-11.46-1.22-22.94-1.87-34.47-1.61c-14.99,0.33-25.42,7.87-30.46,21.95
		c-1.92,5.37-2.97,10.93-3.37,16.61c-0.83,11.74-0.46,23.49-0.31,35.23c0.09,7.28,1.15,14.48,3.65,21.4
		c2.45,6.77,6.17,12.62,12.27,16.71c4.76,3.2,10.08,4.91,15.75,5.15c9.75,0.42,19.5,0.17,29.22-0.77c3.34-0.32,6.68-0.67,10.02-1
		c1.29-0.13,2.57-0.08,3.77,0.44c1.51,0.65,2.51,1.74,2.52,3.46c0.02,4,0.02,7.99-0.02,11.99c-0.02,2.4-1.38,3.84-3.57,4.55
		c-2.37,0.76-4.84,1.05-7.29,1.4c-12.05,1.72-24.16,2.79-36.33,2.01c-15.18-0.97-28.42-6.45-38.75-17.98
		c-7.15-7.98-11.39-17.46-13.94-27.77C54.68,546.2,54.07,540.97,53.5,535.73z"/>
	<path class="st0" d="M190.82,487.35c0-33.25,0-66.5,0-99.75c0-0.72-0.02-1.44,0.01-2.16c0.14-3.47,2.12-5.47,5.61-5.5
		c4.64-0.05,9.27-0.04,13.91,0c3.49,0.03,5.51,1.95,5.76,5.4c0.05,0.64,0.02,1.28,0.02,1.92c0,66.82,0,133.64,0,200.46
		c0,1.11,0.06,2.23-0.24,3.33c-0.75,2.81-2.42,4.22-5.3,4.25c-4.72,0.05-9.44-0.07-14.15,0.04c-3,0.07-5.17-2.01-5.57-5.13
		c-0.1-0.79-0.04-1.6-0.04-2.4C190.82,554.33,190.82,520.84,190.82,487.35z"/>
	<path class="st0" d="M961.37,487.57c0-33.41,0-66.82,0-100.23c0-0.72-0.02-1.44,0.01-2.16c0.12-3.21,2.07-5.2,5.32-5.24
		c4.8-0.06,9.59-0.06,14.39,0c3.28,0.04,5.2,1.95,5.4,5.18c0.05,0.8,0.03,1.6,0.03,2.4c0,66.66,0,133.31,0,199.97
		c0,1.04,0.03,2.09-0.1,3.11c-0.35,2.8-2.33,4.66-5.14,4.7c-4.88,0.06-9.75,0.07-14.63,0c-3-0.04-5.06-2.1-5.26-5.11
		c-0.05-0.72-0.02-1.44-0.02-2.16C961.37,554.54,961.37,521.06,961.37,487.57z"/>
	<path class="st0" d="M568.51,519.95c0-22.62,0.06-45.25-0.05-67.87c-0.02-4.21,1.81-6.78,5.48-8.35
		c6.87-2.95,14.05-4.75,21.42-5.88c13.17-2.01,26.44-2.04,39.72-1.99c0.48,0,0.96,0.02,1.44,0.09c1.95,0.29,2.79,1.15,3.05,3.1
		c0.05,0.39,0.08,0.8,0.08,1.19c0.01,4.4,0.04,8.79-0.01,13.19c-0.04,3.1-0.82,4.04-3.88,4.34c-2.3,0.23-4.63,0.17-6.95,0.17
		c-8-0.02-15.99,0.11-23.95,1.04c-3.25,0.38-6.47,0.99-9.71,1.47c-0.96,0.14-1.38,0.65-1.3,1.63c0.05,0.64,0.01,1.28,0.01,1.92
		c0,41.25,0,82.5,0,123.76c0,0.72,0.03,1.44-0.01,2.16c-0.19,3.28-2.27,5.35-5.52,5.38c-4.72,0.05-9.44,0.04-14.15,0
		c-2.97-0.03-4.73-1.52-5.46-4.39c-0.26-1.03-0.2-2.06-0.2-3.1C568.51,565.2,568.51,542.57,568.51,519.95z"/>
	<path class="st8" d="M1325.13,454.13c0.83-0.54,1.74-0.54,2.83-0.44c-0.54,0.7-1.14,0.9-1.84,0.92
		C1325.9,454.22,1325.48,454.24,1325.13,454.13z"/>
	<path class="st9" d="M1298.26,425.93c0.42-0.01,1.09-0.34,1.15,0.26c0.05,0.49-0.61,0.62-1.12,0.57
		C1298.28,426.48,1298.27,426.2,1298.26,425.93z"/>
	<path class="st10" d="M1503.69,471.54c-0.12,0.38-0.6,0.73-0.74,0.51c-0.35-0.56,0.21-0.88,0.64-1.16
		C1503.62,471.1,1503.66,471.32,1503.69,471.54z"/>
	<path class="st11" d="M1130.34,186.98c-0.23-0.09-0.46-0.19-0.52-0.48C1130,186.66,1130.17,186.82,1130.34,186.98z"/>
	<path class="st12" d="M1637.2,493.91c-1.43,0.46-3.01-0.42-4.4,0.48c-0.72,0.05-1.3-0.3-2.43-0.82
		C1633.01,493.47,1635.11,493.32,1637.2,493.91z"/>
	<path class="st13" d="M1560.35,521.77c-0.18,0.18-0.37,0.36-0.55,0.54c-1.22-0.77-2.05-1.91-2.86-3.11
		C1558.17,519.93,1559.37,520.7,1560.35,521.77z"/>
	<path class="st14" d="M1584.32,516.05c-0.18,0.17-0.36,0.34-0.54,0.51c-0.34-0.21-0.99-0.39-0.57-0.88
		C1583.53,515.3,1584.01,515.7,1584.32,516.05z"/>
	<path class="st0" d="M919.61,450.46c0-1.36,0.01-2.71-0.3-4.05c-0.32-1.35-1.06-2.29-2.29-2.9c-0.86-0.42-1.77-0.71-2.71-0.94
		c-5.19-1.32-10.43-2.37-15.7-3.29c-8.82-1.54-17.7-2.66-26.64-3.15c-9.34-0.51-18.69-0.71-27.95,1.25
		c-18.05,3.82-31.11,13.86-38.68,30.82c-4.7,10.53-6.64,21.69-6.91,33.09c-0.29,11.9-0.56,23.82,0.31,35.72
		c0.66,8.97,2.42,17.72,5.86,26.07c5.89,14.32,15.81,24.61,30.45,30.07c8.11,3.02,16.55,4.15,25.17,4.16
		c17.91,0.01,35.53-2.38,52.94-6.45c5.58-1.31,6.46-2.43,6.46-8.24c0-22.06,0-44.13,0-66.19
		C919.61,494.43,919.61,472.45,919.61,450.46z M894.27,461.21c-0.06,0.55-0.01,1.12-0.01,1.68c0,17.9,0,35.81,0,53.71
		c0,17.82,0,35.65,0,53.47c0,0.48,0.01,0.96,0,1.44c-0.04,1.77-0.05,1.8-1.87,2.07c-11.4,1.69-22.85,2.76-34.39,2.44
		c-5.49-0.15-10.78-1.28-15.71-3.79c-7.89-4.03-12.45-10.76-15.19-18.92c-2.12-6.33-3.14-12.89-3.32-19.53
		c-0.31-11.42-0.3-22.86-0.01-34.28c0.17-6.72,1.18-13.36,3.32-19.77c1.53-4.59,3.69-8.85,6.92-12.49c5.2-5.84,11.92-8.67,19.52-9.7
		c5.74-0.78,11.48-0.49,17.23-0.18c6.95,0.37,13.86,1.03,20.74,2.09c0.47,0.07,0.95,0.14,1.42,0.21
		C893.85,459.77,894.38,460.18,894.27,461.21z"/>
	<path class="st0" d="M379.44,495.98c-0.77-8.08-2.41-15.95-5.46-23.48c-6.86-16.91-18.66-28.61-36.36-33.88
		c-10.91-3.25-22.04-3.68-33.22-1.79c-20.84,3.51-35.5,15.12-44.21,34.3c-4.66,10.27-6.71,21.17-6.88,32.35
		c-0.17,10.62-0.42,21.26,0.27,31.88c0.51,7.77,1.85,15.38,4.46,22.73c6.28,17.64,18.27,29.49,36.11,35.36
		c8.36,2.75,16.96,3.81,25.72,3.85c11.45,0.05,22.85-0.57,34.19-2.18c5.46-0.77,10.9-1.65,16.29-2.82c3.38-0.73,4.76-2.17,4.94-5.53
		c0.19-3.59,0.16-7.19,0.04-10.79c-0.07-2.29-1.53-3.61-3.85-3.82c-1.44-0.13-2.87,0.01-4.3,0.2c-4.59,0.62-9.19,1.19-13.79,1.74
		c-6.99,0.84-14,1.37-21.02,1.69c-6.62,0.3-13.26,0.66-19.88-0.21c-15.32-2.01-25.72-10.1-30.71-24.86
		c-2.56-7.59-3.34-15.42-3.24-23.38c0.04-2.98-0.29-2.71,2.69-2.71c15.27-0.01,30.55,0,45.82,0c15.51,0,31.03,0.01,46.54,0
		c4.09,0,6.28-1.95,6.25-5.89C379.8,511.16,380.17,503.56,379.44,495.98z M354.38,503.16c-0.06,2.22-0.03,2.24-2.23,2.24
		c-11.91,0.01-23.82,0-35.74,0c-11.59,0-23.18,0-34.78,0c-0.48,0-0.96-0.04-1.44,0.01c-1.23,0.13-1.67-0.36-1.67-1.62
		c0-3.44,0.15-6.87,0.62-10.28c0.83-6.04,2.31-11.91,5.18-17.35c5.39-10.21,13.9-16.03,25.25-17.7c7.78-1.15,15.48-0.76,22.91,2
		c8.08,3,13.63,8.7,17.13,16.49c2.48,5.53,3.71,11.37,4.29,17.36C354.19,497.25,354.47,500.2,354.38,503.16z"/>
	<path class="st0" d="M1150.08,498.03c-0.75-9.88-2.75-19.45-6.9-28.48c-7.25-15.77-19.06-26.41-35.88-31.15
		c-10.7-3.02-21.6-3.39-32.54-1.56c-18.6,3.12-32.6,12.9-41.71,29.44c-6.38,11.59-8.99,24.18-9.25,37.3
		c-0.15,7.83-0.05,15.67-0.06,23.5c-0.01,9.72,1.05,19.3,3.97,28.6c4.48,14.3,12.76,25.66,26.02,33.05
		c9.46,5.28,19.73,7.82,30.47,8.35c16.75,0.82,33.38-0.55,49.88-3.46c2.36-0.42,4.72-0.83,7.05-1.38c2.99-0.7,4.46-2.28,4.56-5.08
		c0.13-3.75,0.11-7.51,0.04-11.27c-0.04-2.09-1.32-3.39-3.4-3.68c-1.35-0.19-2.71-0.13-4.07,0.07c-14.88,2.18-29.82,3.58-44.87,3.79
		c-4.64,0.06-9.27-0.07-13.84-1.02c-12.4-2.58-21.25-9.51-26.16-21.28c-3.7-8.88-4.48-18.24-4.43-27.72c0.01-0.98,0.34-1.5,1.4-1.42
		c0.56,0.04,1.12,0.01,1.68,0.01c15.19,0,30.38,0,45.58,0c15.19,0,30.38,0,45.58,0c0.72,0,1.44,0.04,2.16-0.03
		c2.39-0.26,3.98-1.52,4.67-3.85c0.27-0.92,0.42-1.86,0.4-2.84C1150.34,511.29,1150.58,504.66,1150.08,498.03z M1122.67,505.4
		c-11.92,0.01-23.83,0-35.75,0c-11.76,0-23.51,0-35.27,0c-2.6,0-2.61-0.01-2.6-2.61c0.03-7.81,1.03-15.46,3.98-22.76
		c5.04-12.48,14.17-19.8,27.56-21.64c7.22-0.99,14.37-0.65,21.32,1.68c7.98,2.68,13.74,7.93,17.5,15.44
		c2.53,5.06,3.86,10.47,4.66,16.03c0.56,3.88,0.71,7.8,0.73,11.72C1124.8,505.37,1124.77,505.4,1122.67,505.4z"/>
	<path class="st0" d="M529.7,583.17c-0.02-22.22-0.01-44.45-0.01-66.67c0-22.14,0-44.29,0-66.43c0-1.04-0.02-2.08-0.09-3.11
		c-0.11-1.57-0.93-2.71-2.32-3.39c-0.78-0.38-1.62-0.69-2.46-0.91c-5.26-1.36-10.58-2.42-15.93-3.36
		c-8.82-1.55-17.7-2.66-26.64-3.16c-9.34-0.52-18.69-0.71-27.95,1.23c-17.77,3.72-30.78,13.51-38.44,30.1
		c-4.52,9.79-6.72,20.19-7.06,30.87c-0.43,13.41-0.73,26.85,0.29,40.26c0.59,7.76,2.2,15.34,4.97,22.62
		c4.72,12.45,12.44,22.43,24.35,28.84c8.17,4.4,16.98,6.48,26.17,7.04c6.95,0.43,13.9,0.17,20.84-0.35
		c12.94-0.96,25.69-3,38.31-5.98C530.02,589.28,529.7,587.15,529.7,583.17z M502.95,573.54c-2.14,0.28-4.26,0.67-6.4,0.91
		c-9.45,1.07-18.92,1.87-28.45,1.57c-4.34-0.14-8.57-0.91-12.64-2.47c-8.8-3.37-14.3-9.9-17.56-18.53
		c-2.31-6.11-3.45-12.47-3.78-18.95c-0.68-13.09-0.7-26.2,0.02-39.28c0.4-7.28,1.73-14.42,4.74-21.15
		c4.87-10.9,13.45-16.68,25.14-18.16c7.67-0.97,15.32-0.28,22.97,0.24c4.94,0.33,9.86,0.89,14.75,1.7c0.47,0.08,0.95,0.16,1.42,0.21
		c1.07,0.12,1.42,0.69,1.4,1.78c-0.06,3.99-0.02,7.99-0.02,11.98c0,14.46,0,28.92,0,43.39c0,17.74,0,35.48,0,53.22
		c0,0.56-0.06,1.13,0.01,1.68C504.72,572.95,504.07,573.39,502.95,573.54z"/>
</g>
</svg>
