<?xml version="1.0" encoding="utf-8"?>
<!-- Generator: Adobe Illustrator 24.0.1, SVG Export Plug-In . SVG Version: 6.00 Build 0)  -->
<svg version="1.1" id="Camada_1" xmlns="http://www.w3.org/2000/svg" xmlns:xlink="http://www.w3.org/1999/xlink" x="0px" y="0px"
	 viewBox="0 0 612 792" style="enable-background:new 0 0 612 792;" xml:space="preserve">
<style type="text/css">
	.st0{display:none;fill:#FEFEFE;}
	.st1{fill:#80194D;}
	.st2{fill:#FEFEFE;}
	.st3{fill:#EFE2E9;}
	.st4{fill:#AC698B;}
	.st5{fill:#AB678A;}
	.st6{fill:#AB688A;}
	.st7{fill:#AA6689;}
	.st8{fill:#AA6688;}
	.st9{fill:#A96487;}
	.st10{fill:#EC7307;}
	.st11{fill:#F5A611;}
	.st12{fill:#F4B074;}
	.st13{fill:#F9D6B6;}
	.st14{fill:#F7C89F;}
	.st15{fill:#F6C193;}
	.st16{fill:#F7C9A0;}
</style>
<g>
	<path class="st0" d="M181.02,450.89c0-42.59,0-85.18-0.02-127.76c0-0.85,0.11-1.13,1.07-1.13c82.49,0.03,164.98,0.03,247.46,0.01
		c0.81,0,1.07,0.1,1.06,1.02c-0.03,48.54-0.03,97.07,0,145.61c0,0.84-0.19,0.97-0.99,0.97c-14.7-0.03-29.4-0.02-44.1-0.02
		c0.07-0.65,0.62-0.51,1.01-0.58c1.37-0.26,2.77-0.38,4.14-0.68c1.27-0.28,1.84-1.44,1.36-2.66c-0.22-0.56-0.65-0.66-1.17-0.59
		c-2.54,0.3-5.08,0.5-7.63,0.67c-1.87,0.12-3.7,0.01-5.39-0.77c-3.03-1.39-4.16-4.06-4.38-7.17c-0.18-2.59-0.04-2.68,2.58-2.68
		c4.79,0,9.59,0,14.38,0c2.43,0,2.39,0,2.45-2.49c0.06-2.62-0.17-5.17-1.28-7.6c-1.72-3.74-4.64-5.75-8.7-6.25
		c-3.22-0.39-6.21,0.13-8.88,2.03c-2.89,2.06-4.17,5.07-4.66,8.46c-0.46,3.21-0.4,6.44,0,9.66c0.66,5.28,3.73,8.66,8.97,9.92
		c0.46,0.11,1.08,0.05,1.2,0.74c-13.1,0-26.21,0-39.31,0c0.07-0.64,0.62-0.53,1.01-0.59c1.78-0.26,3.56-0.5,5.31-0.88
		c1.51-0.32,1.72-0.58,1.72-2.09c0.01-8.1,0.01-16.19,0-24.29c0-1.48-0.21-1.68-1.64-2.02c-2.96-0.7-5.99-1.06-9.01-1.1
		c-3.37-0.04-6.61,0.66-8.99,3.42c-1.93,2.25-2.76,4.94-2.89,7.82c-0.12,2.71-0.14,5.43,0,8.13c0.17,3.18,1.12,6.1,3.51,8.4
		c1.31,1.26,2.91,1.92,4.62,2.39c0.49,0.13,1.17,0.05,1.31,0.79c-7.83,0-15.66,0-23.49,0c0.13-0.71,0.78-0.56,1.22-0.69
		c1.62-0.46,3.11-1.04,4.47-2.16c2.45-2.01,2.56-7.9,0.22-10.08c-1.15-1.06-2.27-2.12-3.62-2.93c-2.06-1.23-4.12-2.46-6.17-3.7
		c-0.92-0.56-1.84-1.12-2.6-1.91c-0.97-1.02-1.5-2.15-1.05-3.59c0.48-1.5,1.61-2.18,3.07-2.27c2.39-0.15,4.79-0.2,7.18,0.03
		c1.08,0.1,2.15,0.07,3.23,0.2c0.68,0.08,1.03-0.24,1.13-0.92c0.25-1.68-0.05-2.14-1.77-2.38c-3.4-0.48-6.81-0.81-10.25-0.41
		c-0.32,0.04-0.63,0.08-0.95,0.14c-2.64,0.52-4.94,1.5-5.72,4.39c-0.84,3.1-0.05,5.75,2.36,7.9c2.38,2.12,5.26,3.47,7.94,5.12
		c1.02,0.63,2.05,1.24,3,1.97c1.26,0.97,1.91,2.23,1.72,3.85c-0.17,1.42-0.88,2.5-2.25,2.99c-1.48,0.52-3,0.72-4.59,0.57
		c-2.42-0.22-4.86-0.24-7.28-0.56c-0.64-0.08-1.05,0.22-1.17,0.91c-0.22,1.25,0.05,1.98,0.98,2.25c1.27,0.38,2.6,0.41,3.89,0.67
		c0.38,0.08,0.94-0.08,1.01,0.57c-13.58,0-27.17,0-40.75,0c0.07-0.64,0.62-0.53,1.01-0.59c1.85-0.3,3.7-0.58,5.55-0.94
		c1.03-0.2,1.5-0.71,1.5-1.79c-0.01-8.25-0.01-16.51,0-24.76c0-0.95-0.39-1.46-1.32-1.68c-2.26-0.53-4.54-0.88-6.86-1.03
		c-1.63-0.11-3.24-0.19-4.88-0.02c-4.09,0.43-7.46,3.05-8.76,6.96c-0.49,1.49-0.78,3.01-0.87,4.57c-0.21,3.67-0.33,7.33,0.63,10.93
		c1.09,4.07,3.68,6.6,7.78,7.6c0.46,0.11,1.08,0.06,1.2,0.75c-7.75,0-15.5,0-23.25,0c0.07-0.65,0.62-0.51,1.01-0.58
		c1.37-0.26,2.77-0.38,4.13-0.68c1.1-0.24,1.73-2.07,1.06-2.98c-0.26-0.35-0.63-0.3-0.99-0.25c-2.57,0.34-5.16,0.52-7.74,0.67
		c-5.37,0.32-8.89-2.02-9.54-7.56c-0.02-0.16,0.01,0.04-0.01-0.12c-0.26-2.6-0.88-3,2.68-2.97c4.95,0.04,9.9,0.02,14.85,0.01
		c1.71,0,1.85-0.17,1.88-1.83c0.05-2.44-0.01-4.87-0.88-7.2c-1.62-4.33-4.64-6.83-9.3-7.32c-3.04-0.32-5.9,0.15-8.46,1.85
		c-2.69,1.78-4.14,4.43-4.69,7.51c-0.74,4.19-0.82,8.42,0.18,12.59c1.05,4.39,3.94,6.97,8.27,8.06c0.57,0.14,1.32,0,1.55,0.81
		c-11.51,0-23.01,0-34.52,0c0.04-0.59,0.54-0.49,0.89-0.57c0.9-0.19,1.83-0.21,2.71-0.46c0.98-0.27,1.28-1,1.06-2.32
		c-0.16-0.99-0.81-0.98-1.6-0.94c-1.91,0.09-3.81,0.36-5.73,0.33c-4.04-0.07-6.58-2.06-7.34-6c-0.6-3.12-0.49-6.27-0.27-9.42
		c0.05-0.79,0.14-1.59,0.33-2.37c0.89-3.58,3.22-5.49,6.92-5.65c2.04-0.09,4.06,0.22,6.09,0.35c0.8,0.05,1.43,0.06,1.6-0.92
		c0.22-1.31-0.08-2.07-1.02-2.34c-0.73-0.21-1.49-0.32-2.25-0.35c-2.02-0.09-4.02-0.45-6.08-0.19c-4.74,0.59-8.27,3.7-9.33,8.35
		c-0.28,1.24-0.33,2.53-0.73,3.75C181.27,450.95,181.16,450.97,181.02,450.89z"/>
	<path class="st1" d="M305.68,469.58c-1.29-0.58-2.7-0.42-4.04-0.68c-2.12-0.41-2.8-1.37-2.18-3.4c0.25-0.83,0.95-0.75,1.58-0.66
		c2.46,0.32,4.93,0.44,7.4,0.56c1.32,0.06,2.64,0.04,3.91-0.36c2.53-0.78,3.34-3.81,1.55-5.78c-0.9-0.98-2.05-1.64-3.17-2.32
		c-2.18-1.32-4.41-2.57-6.56-3.94c-1.98-1.26-3.69-2.83-4.43-5.16c-1.54-4.89,1.4-8.85,6.9-9.39c3.76-0.37,7.49-0.01,11.21,0.52
		c0.88,0.12,1.39,0.55,1.28,1.52c-0.03,0.28,0,0.56,0,0.84c-0.01,1.5-0.2,1.65-1.66,1.54c-3.02-0.24-6.05-0.45-9.09-0.35
		c-0.59,0.02-1.2,0.08-1.77,0.22c-2.28,0.55-3.08,3.04-1.57,4.84c0.67,0.81,1.55,1.37,2.44,1.91c2.08,1.25,4.17,2.5,6.26,3.74
		c1.1,0.65,2.14,1.38,3.11,2.22c2.64,2.28,3.34,5.16,2.52,8.44c-0.8,3.18-3.19,4.58-6.17,5.28c-0.51,0.12-1.12-0.03-1.53,0.44
		c-0.4,0-0.8,0-1.2,0c-1.04-0.2-2.08-0.2-3.12,0C306.79,469.58,306.24,469.58,305.68,469.58z"/>
	<path class="st1" d="M181.22,450.89c0.08-1.4,0.25-2.78,0.62-4.13c1.49-5.43,5.41-8.44,11.15-8.47c2.27-0.01,4.54,0.2,6.79,0.58
		c0.92,0.16,1.29,0.58,1.32,1.5c0.08,2.63,0.06,2.64-2.6,2.43c-1.75-0.13-3.51-0.23-5.26-0.24c-3.68-0.02-5.98,1.75-6.69,5.38
		c-0.77,3.94-0.77,7.95-0.01,11.89c0.72,3.7,3.01,5.41,6.77,5.42c2.08,0.01,4.15-0.14,6.21-0.37c1.21-0.14,1.53,0.13,1.56,1.32
		c0,0.16,0,0.32,0,0.48c0,2-0.1,2.1-2.1,2.4c-0.96,0.14-1.96,0.05-2.86,0.5c-0.72,0-1.44,0-2.16,0c-0.72-0.19-1.44-0.19-2.16,0
		c-0.24,0-0.48,0-0.72,0c-2.31-0.23-4.35-1.05-6.09-2.63c-2.7-2.47-3.79-5.59-3.85-9.15c-0.01-0.4,0-0.79,0-1.19
		C181.19,454.69,181.05,452.79,181.22,450.89z"/>
	<path class="st2" d="M181.22,456.89c0.12,2.07,0.44,4.1,1.28,6.01c1.47,3.34,3.94,5.48,7.54,6.3c0.35,0.08,0.82-0.05,1.06,0.38
		c-3.12,0-6.23-0.02-9.35,0.02c-0.6,0.01-0.74-0.14-0.74-0.73c0.03-3.99,0.02-7.98,0.02-11.98
		C181.09,456.77,181.15,456.78,181.22,456.89z"/>
	<path class="st3" d="M181.22,456.89l-0.1,0.01l-0.1-0.01c0-2,0-3.99,0-5.99c0.07-0.01,0.13-0.01,0.2-0.01
		C181.22,452.89,181.22,454.89,181.22,456.89z"/>
	<path class="st4" d="M231.36,469.58c1.2-0.4,2.4-0.38,3.6,0C233.76,469.58,232.56,469.58,231.36,469.58z"/>
	<path class="st5" d="M380.23,469.58c1.12-0.39,2.24-0.38,3.36,0C382.47,469.58,381.35,469.58,380.23,469.58z"/>
	<path class="st6" d="M307.35,469.58c1.04-0.41,2.08-0.37,3.12,0C309.43,469.58,308.39,469.58,307.35,469.58z"/>
	<path class="st7" d="M260.61,469.58c0.88-0.4,1.76-0.38,2.64,0C262.37,469.58,261.49,469.58,260.61,469.58z"/>
	<path class="st8" d="M335.88,469.58c0.88-0.4,1.76-0.38,2.64,0C337.64,469.58,336.76,469.58,335.88,469.58z"/>
	<path class="st9" d="M191.81,469.58c0.72-0.41,1.44-0.37,2.16,0C193.25,469.58,192.53,469.58,191.81,469.58z"/>
	<path class="st10" d="M316.7,359.16c-7.17-4.2-13.67-9.22-18.93-15.7c-4.58-5.64-8.02-11.84-9.45-19.04
		c-0.08-0.39-0.12-0.79-0.18-1.18c-0.06-0.24-0.19-0.52,0.27-0.48c8.21,11.55,19.16,19.47,32.38,24.4
		c4.52,1.69,9.07,3.29,13.46,5.29c5.62,2.56,10.52,6.02,14,11.24c0.31,0.46,0.56,0.96,0.84,1.44c0.63,1.91,0.04,3.8-0.26,5.65
		c-1.28,8.07-4.29,15.46-8.93,22.19c-0.29,0.43-0.59,0.86-0.95,1.23c-0.3,0.3-0.59,0.7-1.11,0.41c-5.44-2.7-10.51-5.97-15.56-9.8
		c3.28-0.6,6.34-1.02,9.28-1.97c0.09-0.07,0.21-0.12,0.23-0.25c-0.06,0.02-0.13,0.02-0.22,0.01c-3.94,0.53-7.8,0.32-11.53-1.18
		c-1.89-0.77-3.65-1.76-5.36-3.32c4,0.01,7.67-0.69,11.53-1.84c-7.07-1.05-13.59-2.65-17.77-8.88c4.2,1.07,8.38,2.11,13.02,2.06
		c-2.4-0.94-4.56-1.72-6.67-2.61c-3.84-1.62-7.47-3.6-10.76-6.18c-4.29-3.37-7.75-7.35-9.04-12.88c0.55-0.32,0.82,0.23,1.15,0.49
		c5.03,3.91,10.32,7.37,16.24,9.79c1.33,0.54,2.66,1.06,4.07,1.37c0.1,0.06,0.21,0.1,0.29,0.02
		C316.85,359.34,316.74,359.25,316.7,359.16z"/>
	<path class="st11" d="M337.83,394.61c1.39-0.59,1.9-1.97,2.65-3.1c3.41-5.15,5.79-10.76,7.24-16.76c0.76-3.16,1.28-6.36,1.36-9.62
		c1.92,2.81,2.82,6.04,3.82,9.23c0.58,1.85,1.1,3.72,1.68,5.7c6.63-9.65,15.31-15.22,27.28-14.76c-0.02,0.15-0.01,0.26-0.04,0.27
		c-3.88,1.29-5.15,4.31-5.41,8.05c-0.31,4.41-1.47,8.55-3.97,12.34c3.38-1.9,6.73-3.84,10.67-4.23c0.15,0.59-0.26,0.98-0.55,1.39
		c-2.04,2.91-4.3,5.63-6.68,8.27c-3.11,3.46-6.6,6.47-10.17,9.4c-0.47,0.38-0.95,0.72-1.52,0.94c-0.18,0.09-0.37,0.16-0.53,0.27
		c-10.47,7.47-22.16,11.85-34.83,13.71c-8.23,1.21-16.46,1.24-24.69-0.04c-0.35-0.05-0.72-0.03-1.03-0.4
		c5.01-0.82,9.8-2.24,14.36-4.36c7.75-3.6,14.44-8.61,19.98-15.13C337.7,395.48,338.31,395.2,337.83,394.61z"/>
	<path class="st10" d="M364.18,401.74c1.48-1.26,2.94-2.54,4.44-3.77c3.03-2.47,5.8-5.22,8.36-8.17c2.21-2.55,4.36-5.16,6.12-8.06
		c4.3-0.69,8.4,0.36,12.48,1.52c5.73,1.63,11.47,3.08,17.5,2.99c5.4-0.08,10.61-1.13,15.72-2.78c0.37-0.12,0.75-0.23,1.38-0.43
		c-0.82,0.98-1.63,1.58-2.44,2.17c-4.67,3.38-10,5.02-15.64,5.8c-3.01,0.41-6.04,0.55-9.08,0.45c-0.46-0.16-0.93-0.1-1.4-0.05
		c-0.64,0.06-0.01,0.19-0.01,0.29c5.16,1.21,10.39,1.34,16,0.95c-2.02,1.79-4.15,2.47-6.37,2.9c-4.83,0.95-9.61,0.37-14.37-0.56
		c-0.39-0.08-0.77-0.22-1.34-0.09c2.39,1.29,4.83,1.99,7.3,2.66c-0.97,0.83-3.2,1.04-6.03,0.7c-2.1-0.25-4.07-1.02-6.14-1.47
		c1.36,1.57,3.07,2.66,5.07,3.92c-3.73,0.32-6.82-0.64-9.75-2.25c-0.11-0.01-0.21-0.09-0.31,0.01c0.05,0.05,0.08,0.12,0.09,0.2
		c1.03,0.86,2.05,1.72,3.26,2.74C380.63,402.76,372.42,402.93,364.18,401.74z"/>
	<path class="st1" d="M212.68,448.3c0,6.35,0,12.69,0,19.04c0,1.6-0.18,1.77-1.79,1.78c-3.22,0.01-3.06,0.3-3.06-3.02
		c0.01-12.25,0-24.51,0-36.76c0-1.7,0.14-1.83,1.84-1.84c3.28-0.03,3.01-0.09,3.01,2.97C212.68,436.4,212.68,442.35,212.68,448.3z"
		/>
	<path class="st1" d="M361.57,448.36c0,6.35,0,12.69,0,19.04c0,1.56-0.15,1.71-1.72,1.71c-3.26,0-3.13,0.34-3.13-3.08
		c0.01-12.22,0-24.43,0-36.65c0-1.76,0.14-1.88,1.92-1.9c3.29-0.03,2.93-0.03,2.93,2.91C361.57,436.38,361.57,442.37,361.57,448.36z
		"/>
	<path class="st1" d="M280.78,454.57c0-4.19,0.04-8.38-0.03-12.56c-0.02-1.28,0.44-1.98,1.63-2.41c3.65-1.32,7.45-1.44,11.22-1.24
		c1.9,0.1,0.66,2,0.94,3.05c0.2,0.76-0.26,1.15-1.09,1.14c-2.23-0.02-4.46,0.07-6.69,0.36c-0.91,0.11-1.07,0.47-1.07,1.29
		c0.03,7.58,0.02,15.15,0.02,22.73c0,2.09-0.09,2.18-2.13,2.18c-2.81,0-2.81,0-2.81-2.82C280.78,462.39,280.78,458.48,280.78,454.57
		z"/>
	<path class="st12" d="M401.61,391.69c-0.35,0.07-0.56-0.14-1.09-0.44c1.06,0.03,1.79-0.12,2.5,0.2
		C402.57,391.65,402.03,391.3,401.61,391.69z"/>
	<path class="st13" d="M385.76,398.67c-0.37-0.1-0.55-0.39-0.96-0.85c0.65,0.14,0.95,0.33,1.18,0.65
		C385.91,398.54,385.83,398.61,385.76,398.67z"/>
	<path class="st14" d="M331.57,382.6c0.25-0.26,0.53-0.29,0.86-0.1c-0.27,0.2-0.54,0.36-0.88,0.34
		C331.56,382.76,331.56,382.68,331.57,382.6z"/>
	<path class="st15" d="M288.4,322.77c-0.24,0.07-0.18,0.31-0.27,0.48c-0.21-0.25-0.32-0.56-0.09-0.8
		C288.17,322.33,288.36,322.57,288.4,322.77z"/>
	<path class="st16" d="M316.7,359.16c0.24,0.06,0.49,0.12,0.58,0.41c-0.32,0.14-0.59,0.06-0.83-0.16
		C316.53,359.33,316.61,359.25,316.7,359.16z"/>
	<path class="st1" d="M273.33,441.16c0-0.99-0.38-1.41-1.31-1.63c-3.35-0.78-6.75-1.26-10.19-1.24c-6.18,0.04-10.11,2.96-11.37,8.7
		c-1.03,4.67-1.02,9.44,0.08,14.11c1.06,4.5,3.93,7.26,8.51,8.18c0.29,0.06,0.66-0.09,0.84,0.3c0.24,0,0.48,0,0.72,0
		c0.88-0.2,1.76-0.2,2.64,0c0.56,0,1.12,0,1.68,0c0.14-0.37,0.47-0.22,0.72-0.25c2.14-0.24,4.26-0.58,6.36-1.06
		c0.92-0.21,1.33-0.64,1.32-1.64C273.3,458.15,273.3,449.65,273.33,441.16z M268.45,453.93c0,3.31,0,6.62,0,9.93
		c0,0.54,0.05,1.05-0.7,1.12c-2.38,0.23-4.75,0.59-7.15,0.32c-2.35-0.27-3.98-1.49-4.91-3.66c-0.35-0.81-0.6-1.65-0.68-2.53
		c-0.33-3.74-0.51-7.49,0.14-11.2c0.64-3.64,2.86-5.41,6.58-5.49c1.92-0.04,3.82,0.15,5.73,0.34c0.83,0.08,1.01,0.46,1.01,1.24
		C268.43,447.32,268.45,450.63,268.45,453.93z"/>
	<path class="st1" d="M374.82,455.43c5.63,0.05,11.26,0.01,16.89,0.04c1.06,0.01,1.55-0.38,1.54-1.46
		c-0.03-1.95,0.03-3.91-0.32-5.85c-1.08-6.02-5.18-9.58-11.45-9.88c-5.82-0.28-10.52,3.08-12.03,8.74
		c-1.1,4.11-1.01,8.33-0.33,12.47c0.93,5.69,3.99,8.61,9.67,9.8c0.25,0.05,0.58-0.07,0.72,0.28c0.24,0,0.48,0,0.72,0
		c1.12-0.2,2.24-0.2,3.36,0c0.64,0,1.28,0,1.92,0c1.53-0.56,3.18-0.47,4.75-0.8c2.16-0.46,2.17-0.44,2.15-2.64
		c-0.01-1.44-0.24-1.62-1.73-1.42c-2.85,0.39-5.71,0.65-8.59,0.69c-4.77,0.07-7.42-2.12-8.23-6.74c-0.12-0.66-0.08-1.35-0.17-2.03
		C373.57,455.75,373.83,455.42,374.82,455.43z M373.7,450.66c0.13-0.82,0.14-1.67,0.33-2.48c1.11-4.93,6.67-7.28,11.02-4.66
		c1.89,1.14,2.68,2.99,3.05,5.05c0.57,3.17,0.55,3.17-2.62,3.17c-1.48,0-2.95,0-4.43,0c-2.11,0-4.23-0.04-6.34,0.02
		C373.85,451.78,373.57,451.49,373.7,450.66z"/>
	<path class="st1" d="M348.65,441.29c0.01-1.08-0.36-1.58-1.4-1.81c-3.25-0.71-6.53-1.17-9.85-1.2c-6.34-0.06-10.42,2.97-11.65,8.97
		c-0.92,4.48-0.91,9.06,0.06,13.55c1,4.66,3.89,7.56,8.64,8.49c0.25,0.05,0.59-0.07,0.72,0.29c0.24,0,0.48,0,0.72,0
		c0.88-0.2,1.76-0.2,2.64,0c0.56,0,1.12,0,1.68,0c0.11-0.31,0.39-0.22,0.61-0.24c2.11-0.19,4.19-0.57,6.26-0.98
		c1.09-0.22,1.6-0.67,1.59-1.92C348.6,458.06,348.61,449.68,348.65,441.29z M343.78,453.88c0,3.35,0,6.7,0,10.05
		c0,0.49,0.06,0.96-0.64,1.04c-2.18,0.25-4.36,0.56-6.56,0.38c-3.42-0.28-5.31-1.8-5.98-5.15c-0.84-4.21-0.85-8.49,0.01-12.7
		c0.69-3.35,2.76-4.92,6.17-5.06c2.04-0.09,4.06,0.11,6.09,0.34c0.65,0.08,0.93,0.31,0.92,1.05
		C343.75,447.19,343.78,450.54,343.78,453.88z"/>
	<path class="st1" d="M225.93,455.43c5.63,0.05,11.27,0.01,16.9,0.04c1.07,0.01,1.54-0.41,1.51-1.48c-0.05-1.83,0.03-3.66-0.26-5.49
		c-0.97-6.16-5.05-9.84-11.41-10.2c-5.86-0.34-10.61,3-12.11,8.77c-1.18,4.54-1.11,9.2-0.06,13.75c1.07,4.64,4.17,7.38,8.84,8.37
		c0.43,0.09,0.97-0.03,1.31,0.41c0.24,0,0.48,0,0.72,0c1.2-0.2,2.4-0.2,3.6,0c0.56,0,1.12,0,1.68,0c1.49-0.56,3.1-0.46,4.63-0.78
		c2.21-0.46,2.22-0.43,2.19-2.7c-0.01-1.42-0.21-1.58-1.63-1.39c-2.93,0.4-5.87,0.68-8.83,0.7c-4.6,0.02-7.23-2.16-8.03-6.56
		c-0.13-0.7-0.1-1.44-0.22-2.14C224.57,455.71,224.91,455.42,225.93,455.43z M224.75,450.85c0.08-0.51,0.09-1.03,0.15-1.55
		c0.61-5.27,5.22-8.11,10.21-6.27c2.74,1.01,3.76,3.29,4.14,5.95c0.4,2.75,0.36,2.76-2.4,2.76c-1.6,0-3.19,0-4.79,0
		c-2.15,0-4.31-0.02-6.46,0.01C224.91,451.76,224.65,451.54,224.75,450.85z"/>
</g>
</svg>
