<?xml version="1.0" encoding="utf-8"?>
<!-- Generator: Adobe Illustrator 24.0.1, SVG Export Plug-In . SVG Version: 6.00 Build 0)  -->
<svg version="1.1" id="Layer_1" xmlns="http://www.w3.org/2000/svg" xmlns:xlink="http://www.w3.org/1999/xlink" x="0px" y="0px"
	 viewBox="0 0 2830 1000" style="enable-background:new 0 0 2830 1000;" xml:space="preserve">
<style type="text/css">
	.st0{fill:#FEFEFE;}
	.st1{fill:#FEFEFE;}
</style>
<g transform="translate(0 -100)">
	<g>
		<path class="st0" d="M229.15,723.83V392.69l319.13,240.14V406.59h51.82v329.88L280.97,495.06v228.77H229.15z"/>
		<path class="st0" d="M680.05,453.36v-46.76h371.59v46.76H892.39v270.47H839.3V453.36H680.05z"/>
		<path class="st0" d="M1131.58,406.59h315.98v46.76H1185.3v80.89h220.55v47.4h-221.18v95.43h262.89v46.76h-315.98V406.59z"/>
		<path class="st0" d="M1602.21,677.07h257.2v46.76h-310.29V406.59h53.08V677.07z"/>
		<path class="st0" d="M1939.36,723.83V406.59h51.82v317.24H1939.36z"/>
		<path class="st0" d="M75.76,723.83V406.59h51.82v317.24H75.76z"/>
		<path class="st0" d="M2092.74,406.59h315.98v46.76h-262.26v80.89h220.55v47.4h-221.18v95.43h262.89v46.76h-315.98V406.59z"/>
		<rect x="2718.13" y="519.38" class="st0" width="51.82" height="206.33"/>
		<rect x="2614.49" y="455.78" class="st1" width="51.82" height="270.48"/>
		<rect x="2510.84" y="584.3" class="st0" width="51.82" height="141.95"/>
	</g>
	<g>
		<path class="st0" d="M126.62,938.35c-8.24,7.67-18.86,11.51-31.85,11.51c-9.04,0-16.49-2.45-22.32-7.34
			c-5.84-4.89-8.76-11.2-8.76-18.93c0-21.29,18.34-31.94,55.04-31.94h7.9c0-6.53-0.34-11.26-1.03-14.21
			c-0.69-2.95-2.61-5.39-5.75-7.34c-3.15-1.95-8.16-2.92-15.03-2.92c-14.42,0-21.87,5.15-22.32,15.45H66.35
			c1.2-18.72,14.31-28.08,39.32-28.08c11.68,0,20.78,2.32,27.3,6.95c6.52,4.64,9.79,13.74,9.79,27.3v58.9h-16.14V938.35z
			 M126.62,923.76v-20.18h-11.08c-23.47,0-35.2,6.38-35.2,19.15c0,4.64,1.72,8.2,5.15,10.69c3.43,2.49,8.07,3.73,13.91,3.73
			c5.32,0,10.48-1.2,15.46-3.6C119.84,931.14,123.76,927.88,126.62,923.76z"/>
		<path class="st0" d="M329.29,947.71h-18.03l-11.85-33.57c-2.12-5.95-5.64-10.82-10.56-14.6c-4.92-3.78-10.59-5.67-17-5.67h-30.82
			v53.84h-16.66V821.84h55.72c9.73,0,17.69,0.94,23.87,2.83c6.18,1.89,11.22,5.87,15.11,11.93c3.89,6.07,5.84,12.91,5.84,20.52
			c0,8.7-2.52,15.97-7.56,21.81c-5.04,5.84-11.93,9.64-20.69,11.42v0.34c8.76,2.81,15.43,10.39,20.01,22.75L329.29,947.71z
			 M241.02,878.94h37.18c10.36,0,17.87-1.63,22.54-4.89c4.66-3.26,7-8.9,7-16.91c0-14.31-8.99-21.47-26.96-21.47h-39.75V878.94z"/>
		<path class="st0" d="M369.83,839.35H353.6v-17.51h16.23V839.35z M369.83,947.71H353.6v-91.1h16.23V947.71z"/>
		<path class="st0" d="M471.94,940.67c0,29.31-13.22,43.96-39.67,43.96c-11.45,0-20.48-2.49-27.09-7.47
			c-6.61-4.98-9.92-11.68-9.92-20.09h16.74c0,9.96,6.7,14.94,20.09,14.94c7.56,0,13.39-2.08,17.52-6.23
			c4.12-4.15,6.18-12.29,6.18-24.43v-4.55c-7.21,8.7-15.88,13.05-26.02,13.05c-11.91,0-21.12-4.24-27.65-12.71
			c-6.52-8.47-9.79-19.89-9.79-34.26c0-14.88,3.65-26.66,10.95-35.33c7.3-8.67,16.47-13.01,27.52-13.01c9.84,0,18.17,3.03,24.98,9.1
			v-7.04h16.14V940.67z M455.79,921.53v-43.27c-6.98-7.38-14.97-11.08-23.96-11.08c-6.93,0-12.46,2.99-16.61,8.97
			c-4.15,5.98-6.22,14.9-6.22,26.75c0,11.22,1.96,19.73,5.88,25.54c3.92,5.81,9.34,8.71,16.27,8.71
			C440.2,937.15,448.41,931.94,455.79,921.53z"/>
		<path class="st0" d="M601.26,947.71h-17.09l-65.94-99.34v99.34h-15.8V821.84h17l65.94,99.34v-99.34h15.88V947.71z"/>
		<path class="st0" d="M670.39,949.86c-13.39,0-24.16-4.19-32.28-12.58c-8.13-8.38-12.19-20.08-12.19-35.07
			c0-14.88,3.93-26.55,11.81-34.99c7.87-8.44,18.16-12.66,30.87-12.66c12.99,0,23.37,4.15,31.12,12.45
			c7.75,8.3,11.63,20.03,11.63,35.2v3.86h-68.6c0.69,10.53,3.59,18.35,8.72,23.44c5.12,5.09,11.43,7.64,18.93,7.64
			c5.67,0,10.78-1.44,15.33-4.34c4.55-2.89,6.94-7,7.17-12.32h16.74c-1.26,9.39-5.51,16.63-12.75,21.72
			C689.64,947.31,680.81,949.86,670.39,949.86z M694.27,893.36c-1.32-8.76-4.26-15.31-8.84-19.66c-4.58-4.35-10.19-6.53-16.83-6.53
			c-6.47,0-12.02,2.16-16.66,6.48c-4.64,4.32-7.59,10.89-8.84,19.7H694.27z"/>
		<path class="st0" d="M769.24,947.88c-3.55,0.69-7.41,1.03-11.59,1.03c-6.64,0-11.5-1.19-14.6-3.56c-3.09-2.37-5.01-5.42-5.75-9.14
			c-0.74-3.72-1.12-8.79-1.12-15.2v-51.69h-11.25v-12.71h11.25v-22.67h16.14v22.67h14.77v12.71h-14.77v52.55
			c0,6.24,0.79,10.2,2.36,11.89c1.57,1.69,3.74,2.53,6.48,2.53c2.8,0,5.5-0.23,8.07-0.69V947.88z"/>
		<path class="st0" d="M875.14,949.86c-12.94,0-23.28-4.16-31.04-12.49c-7.76-8.33-11.63-20.05-11.63-35.16
			c0-15.17,3.88-26.9,11.63-35.2c7.76-8.3,18.1-12.45,31.04-12.45c9.96,0,18.27,2.52,24.94,7.55c6.67,5.04,10.6,12.31,11.81,21.81
			h-16.66c-0.23-5.44-2.28-9.59-6.14-12.45c-3.86-2.86-8.51-4.29-13.95-4.29c-7.73,0-13.99,2.93-18.8,8.8
			c-4.81,5.87-7.21,14.61-7.21,26.23c0,11.56,2.4,20.28,7.21,26.14c4.81,5.87,11.08,8.8,18.8,8.8c5.44,0,10.09-1.43,13.95-4.29
			c3.86-2.86,5.91-6.98,6.14-12.36h16.66c-1.2,9.5-5.14,16.77-11.81,21.81C893.41,947.34,885.1,949.86,875.14,949.86z"/>
		<path class="st0" d="M967.46,854.55c12.99,0,23.37,4.15,31.12,12.45c7.75,8.3,11.63,20.03,11.63,35.2
			c0,15.11-3.88,26.83-11.63,35.16c-7.76,8.33-18.13,12.49-31.12,12.49c-12.94,0-23.28-4.16-31.04-12.49
			c-7.76-8.33-11.63-20.05-11.63-35.16c0-15.17,3.88-26.9,11.63-35.2C944.17,858.7,954.52,854.55,967.46,854.55z M967.46,937.15
			c7.73,0,13.99-2.93,18.8-8.8c4.81-5.87,7.21-14.58,7.21-26.14c0-11.62-2.4-20.36-7.21-26.23c-4.81-5.87-11.08-8.8-18.8-8.8
			s-13.99,2.93-18.8,8.8c-4.81,5.87-7.21,14.61-7.21,26.23c0,11.56,2.4,20.28,7.21,26.14C953.46,934.22,959.73,937.15,967.46,937.15
			z"/>
		<path class="st0" d="M1155.85,947.71h-16.23v-58.9c0-7.56-1.09-12.94-3.26-16.14c-2.18-3.21-5.81-4.81-10.9-4.81
			c-7.84,0-15.54,4.87-23.1,14.6v65.25h-16.14v-58.9c0-7.56-1.09-12.94-3.26-16.14c-2.18-3.21-5.84-4.81-10.99-4.81
			c-7.84,0-15.51,4.87-23.01,14.6v65.25h-16.23v-91.1h16.23v11.59c7.67-9.1,16.17-13.65,25.5-13.65c13.34,0,21.84,5.5,25.5,16.49
			c6.07-7.16,11.22-11.69,15.45-13.61c4.24-1.92,8.39-2.88,12.45-2.88c18.66,0,27.99,11.19,27.99,33.57V947.71z"/>
		<path class="st0" d="M1199.83,867.52c7.21-8.64,15.88-12.96,26.02-12.96c11.91,0,21.12,4.22,27.65,12.66
			c6.53,8.44,9.79,19.85,9.79,34.22c0,14.94-3.65,26.75-10.95,35.42c-7.3,8.67-16.5,13.01-27.6,13.01c-9.85,0-18.15-3.06-24.9-9.19
			v42.07h-16.23V856.61h16.23V867.52z M1199.83,926.08c6.92,7.39,14.88,11.08,23.87,11.08c6.98,0,12.54-2.99,16.66-8.97
			c4.12-5.98,6.18-14.9,6.18-26.75c0-11.22-1.95-19.73-5.84-25.54c-3.89-5.81-9.33-8.71-16.31-8.71c-8.99,0-17.17,5.21-24.56,15.63
			V926.08z"/>
		<path class="st0" d="M1343.5,938.35c-8.24,7.67-18.86,11.51-31.85,11.51c-9.05,0-16.49-2.45-22.33-7.34
			c-5.84-4.89-8.76-11.2-8.76-18.93c0-21.29,18.35-31.94,55.04-31.94h7.9c0-6.53-0.34-11.26-1.03-14.21
			c-0.69-2.95-2.6-5.39-5.75-7.34c-3.15-1.95-8.16-2.92-15.03-2.92c-14.42,0-21.87,5.15-22.32,15.45h-16.14
			c1.2-18.72,14.31-28.08,39.32-28.08c11.68,0,20.78,2.32,27.3,6.95c6.53,4.64,9.79,13.74,9.79,27.3v58.9h-16.14V938.35z
			 M1343.5,923.76v-20.18h-11.08c-23.47,0-35.2,6.38-35.2,19.15c0,4.64,1.72,8.2,5.15,10.69c3.43,2.49,8.07,3.73,13.91,3.73
			c5.32,0,10.48-1.2,15.45-3.6C1336.71,931.14,1340.63,927.88,1343.5,923.76z"/>
		<path class="st0" d="M1404.22,868.21c8.07-9.1,17.14-13.65,27.22-13.65c20.55,0,30.82,11.19,30.82,33.57v59.59h-16.23v-58.9
			c0-7.44-1.33-12.79-3.99-16.06c-2.66-3.26-7.03-4.89-13.09-4.89c-8.24,0-16.49,4.87-24.73,14.6v65.25h-16.23v-91.1h16.23V868.21z"
			/>
		<path class="st0" d="M1495.33,969.69c8.01,0,14.57-7.33,19.66-21.98l-34.43-91.1h17.52l24.13,71.26l24.13-71.26h17.52l-34.43,91.1
			c-3.32,8.7-6.14,15.41-8.46,20.13c-2.32,4.72-5.35,8.7-9.1,11.94c-3.75,3.23-8.34,4.85-13.78,4.85c-4.07,0-7.56-0.4-10.48-1.2
			v-14.94C1490.12,969.29,1492.7,969.69,1495.33,969.69z"/>
	</g>
</g>
</svg>
