<?xml version="1.0" encoding="utf-8"?>
<!-- Generator: Adobe Illustrator 24.0.1, SVG Export Plug-In . SVG Version: 6.00 Build 0)  -->
<svg version="1.1" id="Camada_1" xmlns="http://www.w3.org/2000/svg" xmlns:xlink="http://www.w3.org/1999/xlink" x="0px" y="0px"
	 viewBox="0 0 1366 768" style="enable-background:new 0 0 1366 768;" xml:space="preserve">
<style type="text/css">
	.st0{fill:#F9C500;}
	.st1{fill:#5F3CA0;}
	.st2{fill:#5F3DA1;}
	.st3{fill:#F9C501;}
	.st4{fill:#F9C602;}
</style>
<g>
	<path class="st0" d="M614.19,291.55c-0.69-7.33-1.56-16.61-2.44-25.88c-0.08-0.83-0.32-1.66-0.28-2.47
		c0.11-2.23-0.68-5.17,2.39-5.85c3.09-0.69,3.75,2.14,4.5,4.29c2.62,7.53,4.35,15.35,7.54,22.7c1.99,4.59,4.02,9.16,7.1,13.13
		c8.38,10.81,21.74,9.81,28.09-2.3c5.68-10.85,8.21-22.78,10.94-34.61c3.6-15.61,4.69-31.57,6.96-47.37
		c0.45-3.16,0.3-7.64,4.64-7.69c4.43-0.05,4.24,4.52,4.71,7.63c2.31,15.29,3.34,30.75,6.66,45.9c2.39,10.89,4.99,21.72,9.21,32.07
		c2.8,6.87,6.67,13.08,14.98,13.65c8.46,0.58,13.93-4.29,17.88-11.32c4.77-8.49,7.54-17.7,10.43-26.91
		c1.08-3.43,0.71-9.87,5.85-8.86c5.14,1.01,2.21,6.72,2.03,10.35c-0.61,11.76-3.44,23.4-1.52,35.29
		c1.82,11.26,10.59,14.73,19.6,7.65c4.29-3.37,6.97-8.01,9.76-12.54c6.54-10.63,12.32-21.69,18.14-32.73
		c1.39-2.64,2.71-6.96,6.57-5.41c3.94,1.58,1.76,5.6,0.79,8.32c-11.78,33.03-23.67,66.02-35.63,98.99
		c-2.61,7.2-4.83,7.81-11.57,4.55c-16.38-7.9-33.93-11.78-51.81-13.87c-31.14-3.64-61.82-1.18-91.68,8.9
		c-4.24,1.43-8.4,3.19-12.45,5.11c-6.52,3.09-8.86,2.26-11.5-4.98c-5.08-13.9-10.02-27.84-15.03-41.76
		c-6.53-18.14-13.1-36.27-19.58-54.43c-0.89-2.48-1.49-5.1-1.92-7.7c-0.2-1.22-0.02-2.78,1.59-3.3c1.36-0.44,2.71-0.22,3.63,0.95
		c1.12,1.43,2.25,2.89,3.1,4.49c6.81,12.77,13.42,25.65,21.38,37.76c2.49,3.79,5.34,7.26,9.39,9.49c7.26,4,14.16,1.07,16.36-6.89
		C614.13,301.83,614.12,297.67,614.19,291.55z"/>
	<path class="st1" d="M490.74,551.7c0-36.76,0-73.3,0-110.84c6.77,3.8,12.79,7.2,18.82,10.57c1.68,0.94,1.31,2.53,1.31,3.98
		c0.01,42.97-0.02,85.95,0.06,128.92c0.01,2.84-0.84,4.03-3.67,3.61c-0.16-0.02-0.34-0.03-0.5,0c-11.89,2.48-18.51-2.81-24.66-13.12
		c-18.83-31.57-38.94-62.38-58.56-93.47c-0.86-1.37-1.8-2.7-3.65-3.97c0,1.7,0,3.41,0,5.11c0,33.31-0.07,66.63,0.09,99.94
		c0.02,4.09-0.52,6.25-5.3,5.58c-4.87-0.69-11.28,2.04-14.36-1.09c-2.86-2.9-0.79-9.2-0.79-14c-0.06-42.14,0.02-84.28-0.12-126.42
		c-0.01-4.11,0.77-5.17,5.28-5.76c11.44-1.52,17.59,3.17,23.42,12.88c19.1,31.8,39.34,62.92,59.18,94.27
		C488.11,549.17,488.47,550.97,490.74,551.7z"/>
	<path class="st1" d="M548.03,513.96c0.27,9.29-0.93,18.63,0.97,27.89c6.11,29.84,40.69,43.03,65.05,24.81
		c2.74-2.05,4.2-4.19,4.07-7.85c-0.3-8.32-0.22-16.65-0.03-24.97c0.07-3.01-0.67-4.03-3.84-3.95c-8.49,0.23-16.99-0.05-25.48,0.15
		c-3.01,0.07-3.95-0.7-3.98-3.85c-0.11-12.05-0.24-12.05,11.79-12.05c3.33,0,6.72,0.4,9.98-0.07c10.9-1.57,20.14,2.25,28.96,8.05
		c1.89,1.24,2.72,2.46,2.7,4.75c-0.1,12.82-0.14,25.65,0.01,38.47c0.04,3.05-1.5,5-3.36,6.9c-10.39,10.55-23.23,15.74-37.77,17.23
		c-22.13,2.28-41.7-2.48-56.54-20.39c-6.77-8.17-11.14-17.61-12.08-28.03c-1.68-18.56-2.63-37.31,0.52-55.75
		c4.99-29.18,28.21-47.32,57.74-46.43c15.37,0.46,29.23,4.35,40.02,16.07c7.08,7.7,10.32,16.88,10.88,27.22
		c0.17,3.11-0.89,4.3-3.93,3.85c-0.65-0.1-1.33-0.01-2-0.01c-4-0.01-8.44,1.07-11.88-0.31c-3.99-1.61-1.96-6.9-3.23-10.45
		c-4.1-11.54-13.91-18.98-26.55-20.29c-27.4-2.84-40.58,18.8-41.95,38.07C547.62,499.94,548.03,506.96,548.03,513.96z"/>
	<path class="st1" d="M347.66,587.93c-8.3,0-15.44-0.12-22.57,0.07c-2.47,0.06-3.5-1.4-4.77-2.94
		c-16.33-19.75-32.69-39.49-49.03-59.23c-3.14-3.79-10.11-5.74-14.7-4.25c-2.44,0.79-1.45,2.74-1.46,4.16
		c-0.07,18.65-0.28,37.3,0.09,55.94c0.11,5.35-1.49,6.97-6.55,6.29c-4.39-0.59-10.31,1.89-12.85-1.04
		c-2.18-2.5-0.73-8.23-0.73-12.53c-0.02-42.79,0.05-85.58-0.12-128.37c-0.02-4.18,1.03-5.6,5.2-5.12c3.12,0.36,6.35,0.34,9.48,0
		c4.2-0.45,5.64,0.66,5.56,5.29c-0.33,17.64-0.2,35.3-0.04,52.94c0.02,2.17-1.72,5.93,1.5,6.35c3.73,0.49,7.96,1.82,11.4-2.4
		c13.48-16.49,27.96-32.22,40.74-49.22c7.57-10.07,15.8-15.23,28.29-12.94c1.61,0.29,3.31,0.04,5.39,0.04
		c-0.82,2.9-2.94,4.56-4.56,6.47c-16.96,19.88-33.89,39.79-51.06,59.48c-2.78,3.19-2.69,5.01-0.04,8.15
		c19.14,22.62,38.07,45.4,57.07,68.14C344.95,584.47,345.93,585.76,347.66,587.93z"/>
	<path class="st1" d="M769.15,514.45c0,22.81-0.12,45.63,0.11,68.44c0.04,4.25-1.17,5.75-5.25,5.05c-0.65-0.11-1.35-0.11-1.99,0
		c-4.04,0.69-5.34-0.73-5.28-5.02c0.25-18.98-0.03-37.97,0.22-56.95c0.06-4.39-1.08-5.59-5.52-5.55
		c-24.32,0.22-48.64,0.19-72.95,0.02c-3.77-0.03-4.75,1.03-4.71,4.75c0.18,19.32-0.04,38.64,0.19,57.95
		c0.05,4.06-1.21,5.01-5.03,4.88c-7.48-0.26-7.49-0.05-7.49-7.32c0-44.8-0.02-89.59,0.06-134.39c0-1.75-1.28-4.66,1.38-5.1
		c3.36-0.56,7.03-0.92,10.32,0.3c1.38,0.51,0.63,2.74,0.63,4.18c0.04,19.65,0.14,39.3-0.07,58.95c-0.04,4.1,0.99,5.3,5.2,5.26
		c24.32-0.21,48.64-0.19,72.95-0.01c3.88,0.03,5.07-0.92,5.03-4.94c-0.22-19.65,0.04-39.3-0.21-58.95
		c-0.05-4.28,1.23-5.71,5.28-5.03c0.81,0.14,1.68,0.13,2.49,0c3.64-0.59,4.78,0.7,4.75,4.55
		C769.05,468.49,769.15,491.47,769.15,514.45z"/>
	<path class="st1" d="M963.38,438.85c14.41,0.01,26.61,3.02,36.83,11.92c8.49,7.39,12.79,16.8,13.61,27.94
		c0.23,3.07-0.47,4.79-3.99,4.29c-1.47-0.21-3.01-0.17-4.49-0.01c-2.52,0.27-3.23-0.59-3.5-3.24c-1.57-15.32-12.99-27.22-28.62-29.6
		c-8.78-1.34-17.62-1.14-26.14,1.97c-14.11,5.16-21.65,18.23-18.18,31.38c1.82,6.89,6.43,11.52,12.35,15
		c8.39,4.94,17.62,7.76,26.89,10.48c9.92,2.91,19.5,6.57,28.47,11.86c12.34,7.28,19.39,17.58,18.86,32.21
		c-0.56,15.4-9.14,25.61-22.71,31.23c-23.08,9.55-45.6,7.86-66.54-6.28c-9.8-6.61-14.1-16.45-14.47-28.17
		c-0.1-2.99,0.66-4.35,3.84-3.93c1.64,0.22,3.33,0.11,4.99,0.02c1.78-0.09,2.81,0.46,2.93,2.43c1.16,19.02,14.14,26.42,30.33,29.87
		c11.93,2.54,23.9,1.88,34.96-4.16c18.46-10.09,19.25-31.78,1.57-43.13c-9.06-5.81-19.25-8.96-29.47-11.98
		c-11.53-3.42-22.82-7.44-32.43-14.94c-16.45-12.82-17.2-38.17-1.66-52.15C937.56,442.2,950.48,438.79,963.38,438.85z"/>
	<path class="st2" d="M1082.52,520.26c0,20.82-0.11,41.65,0.1,62.47c0.04,4.05-0.84,5.92-5.14,5.23c-1.46-0.24-3-0.13-4.49-0.02
		c-2.13,0.15-3.1-0.66-2.9-2.86c0.11-1.16,0.02-2.33,0.02-3.5c0-41.65-0.07-83.3,0.1-124.95c0.02-4.25-1.2-5.26-5.3-5.19
		c-13.99,0.25-28-0.14-41.99,0.22c-5.2,0.14-4.38-2.78-4.61-5.96c-0.25-3.54,0.59-4.86,4.56-4.84c35.16,0.17,70.32,0.19,105.48-0.01
		c4.48-0.03,4.23,2.18,4.21,5.18c-0.03,3.1,0.46,5.75-4.41,5.63c-13.66-0.34-27.33,0.02-40.99-0.2c-3.81-0.06-4.74,1.16-4.71,4.82
		C1082.6,477.61,1082.52,498.94,1082.52,520.26z"/>
	<path class="st1" d="M355.91,514.47c0-22.97,0.09-45.94-0.09-68.91c-0.03-3.76,0.95-5,4.7-4.64c3.46,0.33,7.01,0.32,10.48,0
		c3.86-0.35,5.03,0.84,5.01,4.87c-0.18,31.29-0.1,62.58-0.1,93.88c0,14.65-0.12,29.3,0.08,43.94c0.05,3.55-1.01,4.72-4.48,4.37
		c-5.07-0.51-11.89,2.16-14.78-1.12c-2.51-2.84-0.79-9.5-0.8-14.47C355.88,553.08,355.91,533.77,355.91,514.47z"/>
	<path class="st0" d="M679.88,368.43c29.86-0.03,55.61,5.19,80.24,15.82c3.17,1.37,6.66,2.66,5.33,7.55
		c-1.79,6.56-3.85,7.78-10.53,5.27c-24.28-9.13-49.46-13.26-75.32-12.83c-23.62,0.39-46.64,4.51-68.82,12.9
		c-6.27,2.37-7.93,1.3-10.01-4.71c-1.62-4.68,1.12-6.41,4.53-7.9c14.7-6.45,29.98-10.92,45.81-13.56
		C661.65,369.21,672.27,368.58,679.88,368.43z"/>
	<path class="st3" d="M683.89,200.22c-5.89,0.03-10.01-4.07-10.04-9.98c-0.02-5.79,4.22-10.13,9.93-10.16
		c5.57-0.04,10.18,4.51,10.21,10.06C694.02,195.84,689.66,200.19,683.89,200.22z"/>
	<path class="st4" d="M610.56,251.86c-4.38-0.01-8.19-3.94-8.09-8.36c0.09-4.31,3.59-7.6,8.08-7.6c4.65,0.01,7.92,3.09,8.03,7.57
		C618.68,247.94,614.92,251.87,610.56,251.86z"/>
	<path class="st4" d="M553.74,238.23c4.45,0.13,8.07,4.08,7.84,8.53c-0.23,4.37-3.73,7.54-8.23,7.44c-4.69-0.1-8.07-3.7-7.82-8.34
		C545.75,241.59,549.51,238.1,553.74,238.23z"/>
	<path class="st4" d="M764.83,243.83c-0.06,4.27-3.81,8.04-7.98,8.04c-4.57-0.01-8.11-3.77-7.97-8.46c0.13-4.52,3.48-7.6,8.16-7.5
		C761.63,236,764.9,239.31,764.83,243.83z"/>
	<path class="st4" d="M813.84,238.23c4.35,0.04,8.18,4.02,8.05,8.38c-0.13,4.39-3.55,7.6-8.08,7.6c-4.73-0.01-8.12-3.48-7.96-8.16
		C806,241.68,809.56,238.2,813.84,238.23z"/>
	<path class="st1" d="M899.3,482.57c-5.73-27.69-27.36-43.9-55.31-43.73c-27.62,0.16-47.6,16.5-54.15,43.93
		c-2.47,10.36-1.87,20.82-2.03,32.2c0.27,8.38-0.36,17.68,1.12,26.97c4.27,26.85,24.11,46.02,49.87,47.84
		c29.38,2.08,52.12-12.44,59.59-39.93C904.4,527.73,903.9,504.82,899.3,482.57z M886.99,546.44c-8.78,31.65-46.56,43.96-70.81,22.79
		c-9.89-8.63-14.49-20.27-15.42-33.1c-1.23-16.93-2.33-33.98,1.17-50.75c4.96-23.76,20.63-35.93,44.7-35.55
		c21.03,0.33,36.97,14.66,41.41,36.99c1.84,9.25,1.16,18.58,1.36,26.79C889.32,525.33,889.89,535.98,886.99,546.44z"/>
</g>
</svg>
