<?xml version="1.0" encoding="utf-8"?>
<!-- Generator: Adobe Illustrator 24.0.1, SVG Export Plug-In . SVG Version: 6.00 Build 0)  -->
<svg version="1.1" id="Camada_1" xmlns="http://www.w3.org/2000/svg" xmlns:xlink="http://www.w3.org/1999/xlink" x="0px" y="0px"
	 viewBox="0 0 850 400" style="enable-background:new 0 0 850 400;" xml:space="preserve">
<style type="text/css">
	.st0{fill:#FAC600;}
	.st1{fill:#FEFEFE;}
	.st2{fill:#FEFDFE;}
	.st3{fill:#F9C601;}
	.st4{fill:#F8C502;}
	.st5{fill:#F9C501;}
</style>
<g transform="translate(-255 -500)">
	<path class="st0" d="M748.2,611.46c-0.07,4.14-0.25,8.28-0.19,12.41c0.09,5.96,3.29,11.52,7.08,12.56
		c5.12,1.41,11.79-2.26,14.93-6.62c8.99-12.46,15.62-26.29,22.98-39.69c1.52-2.76,2.83-5.9,6.96-3.63c0.89,1.96,0.57,3.96,0.24,5.97
		c-9.42,26-18.83,52-28.25,78.01c-2.02,5.57-3.98,11.16-6.08,16.69c-2.15,5.68-4.87,6.31-10.32,3.48
		c-12.07-6.28-25.2-9.4-38.5-11.59c-33.77-5.57-66.96-3.48-99.31,8.27c-3.11,1.13-6.21,2.37-9.11,3.93
		c-4.29,2.31-7.01,0.78-8.51-3.27c-4.85-13.07-9.53-26.2-14.27-39.3c-5.59-15.43-11.24-30.84-16.72-46.31
		c-1.52-4.28-3.56-8.44-3.86-13.08c-0.09-1.35-0.08-2.97,1.28-3.53c1.49-0.61,3.08,0.31,3.99,1.42c1.35,1.65,2.38,3.58,3.37,5.48
		c6.14,11.68,12.14,23.43,19.65,34.32c2.64,3.82,5.51,7.51,10.18,9.07c6.32,2.1,12.27-1.35,13.33-7.88
		c0.9-5.52,1.68-11.09,0.68-16.71c-0.63-1.73,0.16-3.64-0.67-5.34c-0.1-1.55-0.2-3.1-0.3-4.65c-0.75-1.63,0.27-3.51-0.75-5.1
		c-0.1-1.64-0.21-3.28-0.31-4.91c-0.34-2.32-0.42-4.63,0.06-6.94c3.94-2.7,5.24,0.05,6.26,3.1c2.82,8.43,4.89,17.1,8.82,25.16
		c2.13,4.38,4.6,8.39,8.27,11.61c6.02,5.29,15.5,3.95,20.33-2.56c6.99-9.42,8.85-20.71,11.51-31.6c3.25-13.29,5.34-26.84,6.12-40.56
		c0.2-3.55,1.52-7.03,1.88-10.59c0.25-2.42,0.91-3.55,3.53-3.66c3.02-0.13,3.84,2.01,4.23,3.99c1.05,5.32,1.67,10.73,2.47,16.1
		c0.77,1.6-0.3,3.48,0.77,5.04c1.35,19.85,5.82,39.02,13.4,57.36c2.13,5.16,6.07,9.66,12.67,9.65c6.28,0,10.98-2.49,14.68-7.96
		c6.76-10,9.47-21.5,13.1-32.65c1.23-3.77,2.95-4.38,6.08-2.44c1.13,2.27,0.53,4.61,0.32,6.94c-0.81,4.62-1.64,9.24-1.26,13.97
		C747.85,607.32,749.02,609.52,748.2,611.46z"/>
	<path class="st1" d="M437.04,788.62c0,1.8,0,3.6,0,5.4c0,30.82-0.05,61.64,0.07,92.46c0.02,3.65-0.55,5.6-4.77,5.01
		c-4.55-0.64-10.68,2.02-13.32-1.11c-2.25-2.68-0.79-8.57-0.8-13.04c-0.03-39.15,0.04-78.3-0.1-117.45
		c-0.01-4.02,0.99-4.96,5.13-5.47c10.18-1.27,15.88,2.59,21.21,11.48c17.89,29.81,36.88,58.97,55.46,88.37
		c0.71,1.12,1.44,2.22,2.79,4.31c0-35.02,0-68.99,0-104.33c6.75,3.86,12.58,7.12,18.31,10.52c1.33,0.79,0.82,2.44,0.82,3.72
		c0.02,39.65-0.01,79.3,0.07,118.95c0.01,2.87-0.52,4.04-3.79,4.1c-14.74,0.28-14.77,0.41-22.62-12.03
		c-18.48-29.27-36.93-58.56-55.39-87.83c-0.7-1.11-1.44-2.19-2.15-3.28C437.65,788.46,437.34,788.54,437.04,788.62z"/>
	<path class="st1" d="M537.52,821.1c0.07-9.65-0.54-19.33,1.82-28.83c6.49-26.15,30.01-42.22,57.54-39.47
		c11.38,1.13,21.87,4.25,30.46,12.19c8.12,7.5,12.19,16.84,12.7,27.85c0.13,2.78-0.68,4.07-3.57,3.63c-0.49-0.07-1-0.01-1.5-0.01
		c-3.83-0.01-8.1,1.03-11.38-0.32c-3.67-1.51-2.21-6.56-3.34-9.97c-7.43-22.32-38.03-23.2-50.9-10.72
		c-8.5,8.25-12.52,18.43-12.92,29.92c-0.45,13.13-1.32,26.35,0.5,39.41c4.75,34.15,35.45,40.38,58.4,28.79
		c4.72-2.38,7.1-5.79,6.63-11.53c-0.56-6.78-0.26-13.65-0.07-20.48c0.08-3.03-0.85-4.08-3.95-4c-7.49,0.19-15-0.1-22.49,0.13
		c-3.36,0.1-4.59-0.68-4.54-4.32c0.12-10.42-0.06-10.42,10.42-10.42c3.5,0,7.05,0.4,10.48-0.08c9.68-1.35,17.89,1.96,25.74,7.12
		c2.05,1.35,3.02,2.63,3,5.12c-0.11,11.66-0.2,23.33,0.03,34.98c0.09,4.35-2.6,6.71-5.28,9.1c-9.39,8.38-20.56,12.65-33.01,13.89
		c-21.96,2.17-41.04-2.95-54.7-21.63c-7.13-9.76-9.92-20.93-10.07-32.86C537.46,832.76,537.52,826.93,537.52,821.1z"/>
	<path class="st1" d="M369.68,891.43c-7.86,0-14.62-0.08-21.39,0.04c-2.72,0.05-3.64-2.07-4.95-3.65
		c-15.11-18.2-30.16-36.44-45.24-54.66c-2.52-3.05-9.55-4.9-13.02-3.43c-2.36,0.99-1.47,3.13-1.47,4.79
		c-0.07,17.16-0.18,34.33,0.05,51.48c0.06,4.25-0.81,6.14-5.42,5.5c-4.24-0.58-9.83,1.76-12.5-0.91c-2.66-2.66-0.81-8.22-0.81-12.5
		c-0.06-39.32,0.03-78.64-0.13-117.97c-0.02-4.21,0.77-6.19,5.4-5.58c2.95,0.39,6.01,0.3,8.98,0.02c3.6-0.34,4.48,1.12,4.45,4.53
		c-0.15,16.33-0.13,32.66,0.01,48.98c0.02,2.23-1.57,5.81,1.53,6.51c3.64,0.82,7.71,1.46,10.88-2.51
		c7.48-9.37,15.32-18.45,23.02-27.64c7.49-8.94,15.04-17.82,22.44-26.83c1.73-2.1,3.5-3.16,6.33-3.05
		c5.58,0.22,11.18,0.07,18.08,0.07c-5.2,6.08-9.56,11.2-13.94,16.31c-13.1,15.31-26.15,30.67-39.36,45.89
		c-2.01,2.32-2.13,3.66-0.07,6.1c17.82,21.14,35.48,42.41,53.19,63.64C366.8,887.85,367.83,889.15,369.68,891.43z"/>
	<path class="st2" d="M662.17,822.87c0-21.16,0.19-42.32-0.13-63.47c-0.08-5.4,2.79-4.74,6.18-4.84c3.49-0.1,5.83-0.12,5.74,4.77
		c-0.31,18.32-0.01,36.65-0.21,54.97c-0.04,3.79,1.08,4.74,4.77,4.72c22.65-0.16,45.31-0.16,67.97,0c3.71,0.03,4.8-0.95,4.76-4.73
		c-0.2-18.32,0.13-36.65-0.22-54.97c-0.1-5.5,2.95-4.6,6.26-4.76c3.61-0.17,5.68,0.08,5.66,4.85c-0.2,42.48-0.23,84.96,0.02,127.44
		c0.03,5.64-3.12,4.42-6.28,4.63c-3.55,0.23-5.73,0.05-5.65-4.77c0.32-17.82,0.02-35.65,0.22-53.47c0.04-3.79-1.07-4.73-4.77-4.71
		c-22.65,0.17-45.31,0.17-67.97,0c-3.72-0.03-4.8,0.94-4.76,4.72c0.2,17.82-0.11,35.65,0.22,53.47c0.09,4.84-2.12,4.97-5.66,4.76
		c-3.19-0.19-6.37,0.99-6.28-4.64C662.38,865.52,662.17,844.19,662.17,822.87z"/>
	<path class="st1" d="M945.56,893.48c-12.97,0.1-24.84-3-35.51-10.26c-9.55-6.49-13.98-15.7-14.59-27.03
		c-0.14-2.69,0.53-3.75,3.52-3.85c4.71-0.15,8.03-0.19,8.15,6.31c0.13,6.53,3.93,11.85,9.17,15.94
		c13.27,10.37,36.37,12.24,51.11,4.1c10.51-5.81,15.19-15.58,12.49-26.18c-1.72-6.75-6.29-11.23-12.03-14.64
		c-8.21-4.87-17.22-7.8-26.33-10.48c-8.95-2.63-17.68-5.81-25.71-10.71c-21.66-13.23-22.86-41.51-1.63-55.32
		c18.53-12.05,38.45-12.12,57.82-1.8c11.62,6.19,17.62,16.77,18.71,30.05c0.25,3.1-0.62,3.91-3.7,4.11
		c-4.99,0.33-7.43-0.6-8.21-6.47c-1.59-11.95-12.13-21.58-25.12-23.82c-13.48-2.33-26.34-1.25-36.57,9.3
		c-9.56,9.85-8.32,25.08,2.69,33.29c7.87,5.86,17.13,8.71,26.39,11.43c11.04,3.25,21.62,7.38,31.49,13.54
		c19.31,12.06,19.97,42.06-1.27,54.57C966.78,891.25,956.43,893.53,945.56,893.48z"/>
	<path class="st1" d="M396.05,822.93c0,21.32-0.1,42.64,0.1,63.96c0.04,3.79-0.99,5.04-4.71,4.59c-4.57-0.55-10.5,1.95-13.42-1.03
		c-2.67-2.73-0.77-8.56-0.77-13.02c-0.05-39.14,0.05-78.28-0.14-117.42c-0.02-4.47,1.17-5.98,5.56-5.44
		c4.25,0.52,9.81-1.76,12.5,0.91c2.7,2.67,0.82,8.22,0.84,12.49C396.1,786.29,396.05,804.61,396.05,822.93z"/>
	<path class="st2" d="M1043.11,827.95c0-19.65-0.11-39.31,0.1-58.96c0.04-3.85-1.12-4.68-4.76-4.62
		c-12.99,0.22-25.98-0.11-38.97,0.2c-4.19,0.1-4.47-1.68-4.45-4.99c0.02-3.28,0.26-5.08,4.46-5.06c32.47,0.18,64.95,0.19,97.43-0.01
		c4.44-0.03,4.1,2.21,4.28,5.2c0.21,3.51-0.52,4.94-4.54,4.85c-12.15-0.3-24.32,0.09-36.47-0.22c-4.32-0.11-5.54,0.9-5.52,5.4
		c0.2,38.64,0.13,77.28,0.07,115.91c0,1.85,1.15,4.85-0.99,5.38c-3.12,0.77-6.64,0.52-9.87-0.03c-1.39-0.24-0.74-2.67-0.74-4.11
		C1043.1,867.25,1043.11,847.6,1043.11,827.95z"/>
	<path class="st0" d="M700.03,702.71c-1.99-0.09-3.98-0.17-5.97-0.26c-7.73-0.81-15.45-0.77-23.18-0.02
		c-1.97,0.08-3.93,0.17-5.9,0.25c-1.63,0.75-3.51-0.27-5.1,0.75c-15.83,1.34-31.09,5.06-45.89,10.82c-4.56,1.78-6.97,0.6-8.57-3.93
		c-1.35-3.82,0.31-7.11,4.22-8.65c22.75-8.95,46.19-14.57,70.78-14.67c25.59-0.1,50.24,4.49,73.75,14.76
		c1.65,0.72,3.13,1.83,4.69,2.75c1.14,1.57,0.59,3.26,0.34,4.93c-3.53,7.05-4.52,6.54-11.23,4.04
		c-13.83-5.17-28.19-8.52-42.93-10.02C703.5,702.39,701.64,703.42,700.03,702.71z"/>
	<path class="st3" d="M673.78,518.53c1.37-4.62,4.12-7.44,9.29-7.02c4.09,0.33,7.33,2.08,8.78,6.09c1.83,5.03-0.7,10.17-5.73,12.1
		c-5.28,2.02-9.88-0.31-12.31-6.22C673.33,521.82,673.37,520.18,673.78,518.53z"/>
	<path class="st4" d="M804.03,565.67c4.35,0.12,7.73,3.32,7.77,7.36c0.04,3.79-4.12,8.26-7.76,8.35c-3.22,0.07-8.28-5.34-8.03-8.6
		C796.31,569.04,800.22,565.57,804.03,565.67z"/>
	<path class="st4" d="M554.2,573.51c-0.1-4.25,3.21-7.91,7.11-7.86c4.35,0.06,7.68,3.23,7.74,7.36c0.06,4.18-3.48,8.08-7.61,8.37
		C558.01,581.63,554.29,577.59,554.2,573.51z"/>
	<path class="st5" d="M751,563.49c4.57,0.03,7.46,2.9,7.45,7.4c-0.01,3.93-3.58,7.36-7.71,7.42c-4.15,0.05-7.81-3.67-7.74-7.88
		C743.06,566.94,747.07,563.46,751,563.49z"/>
	<path class="st4" d="M622.01,570.98c-0.06,4.2-3.36,7.38-7.62,7.32c-4.17-0.05-7.25-3.38-7.16-7.73c0.09-4.35,3.08-7.14,7.57-7.08
		C619.37,563.55,622.07,566.36,622.01,570.98z"/>
	<path class="st1" d="M886.15,822.49c-0.24-8.07,0.4-16.72-1.12-25.33c-4.64-26.22-24.45-43.97-49.98-44.53
		c-27.54-0.61-47.5,14.5-53.02,41.51c-3.82,18.7-3.7,37.88-0.3,56.58c4.8,26.33,24.23,42.56,48.97,42.72
		c28.51,0.19,47.65-14.76,53.88-42.04C886.72,842.03,886,832.52,886.15,822.49z M872.57,851.83c-5.59,24.98-28.57,37.36-53.08,29.7
		c-15.52-4.85-22.87-16.83-26.45-31.73c-2.16-9-1.49-18.21-1.54-27.35c-0.03-9.15-0.4-18.33,1.78-27.34
		c4.94-20.46,19.34-32.36,39.28-32.48c20.01-0.12,35.88,11.84,40.11,32.17C876.59,813.65,876.78,833.03,872.57,851.83z"/>
</g>
</svg>
