<?xml version="1.0" encoding="utf-8"?>
<!-- Generator: Adobe Illustrator 24.0.1, SVG Export Plug-In . SVG Version: 6.00 Build 0)  -->
<svg version="1.1" id="Camada_1" xmlns="http://www.w3.org/2000/svg" xmlns:xlink="http://www.w3.org/1999/xlink" x="0px" y="0px"
	 viewBox="0 0 342 90" style="enable-background:new 0 0 342 90;" xml:space="preserve">
<style type="text/css">
	.st0{fill:#FEFEFE;}
</style>
<g transform="translate(-135 -350)">
	<path class="st0" d="M351.89,440.78c-0.62-0.91-0.37-1.39,0.61-1.94c1.74-0.99,2.91-2.59,3.65-4.43c0.35-0.86-0.35-1.62-0.66-2.39
		c-1.48-3.76-2.98-7.52-4.47-11.26c1.24-0.32,1.89,0.08,2.34,1.32c1.2,3.3,2.59,6.54,3.91,9.83c1.32-3.48,2.61-6.92,3.92-10.35
		c0.15-0.4,0.2-0.87,0.87-0.89c1.18-0.02,1.25,0.04,0.81,1.1c-1.8,4.35-3.58,8.71-5.38,13.06c-1.05,2.54-2.58,4.69-5.13,5.95
		C352.21,440.78,352.05,440.78,351.89,440.78z"/>
	<path class="st0" d="M374.17,422.78c-0.89,2.96-1.87,5.56-2.84,8.16c-0.36,0.97-0.65,1.97-0.98,2.94c-0.16,0.47-0.42,0.76-1.02,0.7
		c-0.57-0.05-0.75-0.23-0.92-0.8c-1.29-4.34-2.65-8.66-4-12.99c1.75-0.21,1.68-0.2,2.13,1.42c0.88,3.18,1.84,6.34,2.77,9.5
		c0.04,0.14,0.15,0.26,0.17,0.28c1-2.83,2.02-5.72,3.04-8.61c0.2-0.58,0.47-1.14,0.59-1.74c0.16-0.75,0.54-0.95,1.3-0.99
		c0.86-0.04,0.82,0.57,0.97,1.01c1.16,3.45,2.29,6.91,3.44,10.38c1.16-3.58,2.37-7.14,3.44-10.73c0.31-1.03,1-0.66,1.46-0.57
		c0.81,0.15,0.14,0.7,0.05,0.99c-1.33,4.05-2.72,8.07-4.02,12.12c-0.2,0.62-0.49,0.66-1,0.73c-0.59,0.08-0.81-0.26-0.94-0.66
		C376.62,430.32,375.45,426.71,374.17,422.78z"/>
	<path class="st0" d="M388.58,422.49c1.12-1.21,2.28-1.8,3.71-2.13c2.36-0.54,4.92,1.34,5.42,3.38c0.18,0.73,0.23,1.46,0.23,2.2
		c-0.01,2.63-0.02,5.26,0.01,7.89c0.01,0.56-0.13,0.75-0.72,0.75c-0.57,0-0.75-0.14-0.74-0.73c0.04-2.23,0.11-4.47-0.02-6.69
		c-0.09-1.39-0.06-2.87-1.03-4.09c-1.34-1.68-3.25-1.72-4.7-0.78c-1.48,0.96-2.27,2.32-2.17,4.21c0.12,2.38,0.01,4.78,0.04,7.17
		c0.01,0.6-0.04,0.92-0.8,0.92c-0.76,0-0.91-0.22-0.91-0.94c0.03-6.26,0.03-12.51,0-18.77c0-0.75,0.2-0.91,0.92-0.92
		c0.79-0.02,0.79,0.36,0.78,0.93C388.57,417.35,388.58,419.8,388.58,422.49z"/>
	<path class="st0" d="M302.98,424.87c0-2.95,0.02-5.9-0.02-8.85c-0.01-0.68,0.18-0.86,0.86-0.85c2.72,0.04,5.43,0.01,8.15,0.02
		c0.41,0,0.86-0.15,0.86,0.6c0,0.74-0.44,0.6-0.86,0.6c-2.16,0-4.32,0.03-6.47-0.01c-0.67-0.01-0.88,0.17-0.86,0.85
		c0.05,1.83,0.05,3.67,0,5.5c-0.02,0.68,0.18,0.87,0.86,0.86c2-0.04,4-0.01,5.99-0.02c0.52,0,0.87-0.02,0.87,0.72
		c0,0.74-0.35,0.73-0.87,0.72c-2-0.01-4,0.02-5.99-0.02c-0.68-0.02-0.87,0.18-0.86,0.85c0.04,2.15,0.04,4.3,0,6.46
		c-0.01,0.68,0.18,0.87,0.86,0.85c2.32-0.04,4.63-0.01,6.95-0.02c0.52,0,0.87-0.01,0.87,0.72c0,0.74-0.35,0.72-0.87,0.72
		c-2.88-0.01-5.75-0.03-8.63,0.01c-0.68,0.01-0.86-0.18-0.86-0.86C303,430.77,302.98,427.82,302.98,424.87z"/>
	<path class="st0" d="M255.27,422.82c1.35-2.04,3.14-2.71,5.01-2.54c2.67,0.24,3.94,1.68,4.35,4.2c0.53,3.19,0.1,6.41,0.23,9.61
		c0.03,0.79-0.61,0.39-0.96,0.46c-0.58,0.13-0.73-0.15-0.73-0.71c0.03-2.75,0.04-5.5,0-8.24c-0.02-1.84-0.98-3.23-2.59-3.72
		c-1.6-0.48-3.5,0.29-4.37,1.77c-0.49,0.83-0.74,1.66-0.72,2.65c0.06,2.39,0.02,4.78,0.02,7.17c0,0.55,0.21,1.14-0.81,1.15
		c-0.96,0.01-0.88-0.46-0.88-1.09c0.01-3.94,0-7.88,0.01-11.83c0-0.45-0.25-1.01,0.67-1.03c0.96-0.03,0.76,0.54,0.76,1.06
		C255.27,421.98,255.27,422.23,255.27,422.82z"/>
	<path class="st0" d="M167.99,422.78c1.1-1.68,3.68-2.87,5.11-2.54c3.41,0.78,3.96,2.53,4.26,4.46c0.47,3.04,0.07,6.09,0.24,9.14
		c0.04,0.73-0.32,0.74-0.85,0.73c-0.51-0.01-0.88,0.04-0.87-0.72c0.05-2.63,0.02-5.26,0.02-7.88c0-1.12-0.3-2.14-0.99-3.02
		c-0.82-1.04-1.99-1.49-3.22-1.21c-1.71,0.39-3.02,1.41-3.46,3.22c-0.53,2.18-0.14,4.41-0.24,6.62c-0.03,0.72-0.02,1.43,0,2.15
		c0.02,0.53,0,0.86-0.73,0.86c-0.75,0-0.72-0.36-0.72-0.87c0.01-3.27,0.01-6.53,0-9.8c0-0.74,0.01-1.48-0.21-2.22
		c-0.11-0.38-0.34-1.08,0.62-1.03c0.64,0.03,1.21-0.03,1.04,0.9C167.94,421.87,167.99,422.18,167.99,422.78z"/>
	<path class="st0" d="M326.95,420.74c-1.02,2.5-2.05,4.96-3.04,7.44c-0.76,1.88-1.48,3.78-2.24,5.66c-0.15,0.38-0.26,0.77-0.87,0.74
		c-0.58-0.03-0.95-0.16-1.17-0.73c-1.3-3.4-2.63-6.79-3.95-10.18c-0.38-0.97-0.76-1.93-1.15-2.89c1.15-0.33,1.85-0.1,2.28,1.13
		c1.18,3.42,2.5,6.8,3.83,10.4c0.54-1.24,1.06-2.3,1.48-3.4c0.92-2.44,1.81-4.88,2.67-7.34
		C325.18,420.48,326.01,420.64,326.95,420.74z"/>
	<path class="st0" d="M269.89,427.58c-0.19,4.19,3.55,6.82,7.45,5.42c0.29-0.1,0.57-0.24,0.86-0.33c0.58-0.18,0.66,0.35,0.76,0.66
		c0.08,0.25,0.22,0.6-0.36,0.79c-2.74,0.91-5.33,1.11-7.87-0.68c-1.7-1.2-2.27-2.93-2.48-4.74c-0.4-3.46,1.17-7.01,4.95-8.09
		c1.82-0.52,3.58-0.37,5.35,0.23c1.11,0.37,0.28,0.92,0.21,1.4c-0.14,0.93-0.68,0.16-0.82,0.09
		C273.95,420.33,269.78,423.14,269.89,427.58z"/>
	<path class="st0" d="M184.06,416.69c0,1.14,0.03,2.21-0.01,3.29c-0.02,0.58,0.16,0.76,0.74,0.73c0.92-0.05,1.84,0.01,2.76-0.02
		c0.47-0.02,0.61,0.13,0.61,0.61c0,0.47-0.14,0.62-0.61,0.61c-0.96-0.03-1.92,0.01-2.88-0.02c-0.46-0.01-0.63,0.13-0.61,0.6
		c0.15,2.96-0.27,5.94,0.24,8.9c0.3,1.73,1.07,2.34,2.75,1.91c0.54-0.14,0.77-0.08,0.82,0.38c0.04,0.35,0.2,0.72-0.49,0.94
		c-2.59,0.85-4.75-0.55-4.76-3.24c-0.01-2.83-0.04-5.66,0.02-8.49c0.02-0.87-0.25-1.13-1.06-1.01c-0.27,0.04-0.56-0.01-0.84,0.01
		c-0.43,0.04-0.53-0.16-0.53-0.56c0-0.41,0.03-0.67,0.56-0.66c0.58,0.01,1.44,0.28,1.69-0.13c0.31-0.5,0.16-1.3,0.14-1.96
		C182.57,417.59,182.53,416.64,184.06,416.69z"/>
	<path class="st0" d="M211.39,424.16c0-3.07,0.01-6.14-0.01-9.21c0-0.63,0-1,0.85-1c0.85,0,0.85,0.37,0.85,1
		c-0.02,6.22-0.02,12.43,0,18.65c0,0.63,0,1-0.85,1s-0.85-0.37-0.85-1C211.4,430.45,211.39,427.31,211.39,424.16z"/>
	<path class="st0" d="M344.94,422.5c0.83-1.19,1.92-1.85,3.21-2.23c1.02-0.3,1.43,0.07,1.37,1.09c-0.03,0.44-0.18,0.55-0.57,0.52
		c-2.18-0.18-3.7,1.99-3.75,4.18c-0.05,2.55-0.03,5.1,0,7.65c0.01,0.66-0.14,0.88-0.84,0.87c-0.66-0.01-0.87-0.15-0.87-0.85
		c0.03-4.06,0.02-8.12,0.02-12.19c0-0.48-0.09-0.91,0.7-0.89c0.68,0.02,0.8,0.27,0.75,0.84
		C344.92,421.83,344.94,422.17,344.94,422.5z"/>
	<path class="st0" d="M205.16,424.16c0-3.1,0-6.2,0-9.3c0-0.5-0.07-0.9,0.69-0.89c0.68,0.01,0.76,0.26,0.76,0.83
		c-0.02,6.32-0.02,12.64,0,18.96c0,0.57-0.08,0.82-0.76,0.83c-0.76,0.01-0.69-0.4-0.69-0.89
		C205.16,430.52,205.16,427.34,205.16,424.16z"/>
	<path class="st0" d="M418.07,422.8c0.88-1.58,2.06-2.22,3.4-2.56c0.52-0.13,1.13-0.14,1.17,0.74c0.04,0.71-0.13,0.94-0.9,0.94
		c-1.77-0.01-3.17,1.72-3.46,3.75c-0.37,2.65-0.12,5.3-0.21,7.94c-0.02,0.5,0.14,0.98-0.73,0.98c-0.89,0-0.71-0.51-0.71-1
		c0-3.58,0-7.17,0-10.75c0-0.32,0.06-0.65-0.02-0.95c-0.1-0.4-0.5-0.87-0.03-1.14c0.33-0.19,0.9-0.17,1.28-0.02
		c0.44,0.18,0.15,0.7,0.2,1.07C418.1,422.03,418.07,422.26,418.07,422.8z"/>
	<path class="st0" d="M161.28,424.98c0,2.9,0,5.8,0,8.7c0,0.48,0.09,0.89-0.68,0.9c-0.81,0.01-0.77-0.39-0.77-0.94
		c0.01-5.84,0.01-11.68,0-17.53c0-0.53-0.09-0.97,0.74-0.96c0.89,0,0.7,0.52,0.7,1C161.28,419.1,161.28,422.04,161.28,424.98z"/>
	<path class="st0" d="M219.3,427.63c0,2.03-0.03,4.07,0.02,6.1c0.02,0.68-0.19,0.86-0.86,0.86c-0.69,0-0.86-0.2-0.85-0.87
		c0.03-4.07,0.03-8.13,0-12.2c-0.01-0.68,0.19-0.86,0.86-0.86c0.69,0,0.86,0.2,0.85,0.87C219.27,423.56,219.3,425.6,219.3,427.63z"
		/>
	<path class="st0" d="M217.39,416.67c-0.18-0.83,0.4-1.22,1.1-1.2c0.76,0.02,1.28,0.6,1.27,1.38c-0.01,0.69-0.26,1.26-1.18,1.23
		C217.63,418.05,217.33,417.58,217.39,416.67z"/>
	<path class="st0" d="M216.02,370.97c-2.83-0.52-5.6-1.25-8.56-0.79c-2.71,0.42-5.04,1.42-7.04,3.23c-1.35,1.22-2.25,2.78-3.18,4.67
		c0-2.35-0.03-4.37,0.02-6.4c0.02-0.76-0.15-1-0.96-0.99c-3.4,0.05-6.79,0.05-10.19,0c-0.87-0.01-1.12,0.17-1.12,1.09
		c0.05,7.01,0.02,14.03,0.02,21.04c0,0.39,0,0.78,0,1.18c-0.55-2.48-1-4.95-1.41-7.43c-0.43-2.6-0.82-5.21-1.22-7.82
		c-0.41-2.64-0.82-5.29-1.25-7.93c-0.52-3.17-1.11-6.33-1.6-9.5c-0.12-0.78-0.3-1.16-1.2-1.15c-3.76,0.05-7.51,0.04-11.27,0
		c-0.78-0.01-1.05,0.23-1.25,0.99c-0.59,2.3-1.32,4.57-1.96,6.86c-0.98,3.47-2.15,6.9-2.66,10.72c-0.41-1.47-0.77-2.71-1.1-3.97
		c-1.2-4.53-2.43-9.06-3.56-13.6c-0.21-0.85-0.58-1.01-1.35-1c-3.6,0.03-7.19,0.08-10.79-0.03c-1.18-0.04-1.73,0.28-1.77,1.41
		c-0.02,0.59-0.2,1.16-0.24,1.73c-0.23,2.83-0.91,5.6-1.27,8.41c-0.54,4.14-1.41,8.24-2.1,12.36c-0.54,3.24-1.02,6.49-1.52,9.74
		c-0.13-0.19-0.16-0.38-0.16-0.56c0-13.35,0-26.7-0.02-40.05c0-0.75,0.19-0.91,0.92-0.91c5.71,0.03,11.43,0.02,17.14,0.02
		c11.39,0,22.78,0.01,34.16-0.02c0.82,0,1.23,0.17,1,1.02c-0.33,1.2-0.6,2.4-0.71,3.64c-0.05,0.54-0.24,0.72-0.72,0.26
		c-0.75-0.71-1.59-1.32-2.61-1.89c0.04,1.21,0.69,2.11,0.83,3.18c-0.94-0.02-1.8-0.64-2.98-0.03c0.9,0.75,1.79,1.49,2.79,2.33
		c-1.68,0.28-3.05,0.5-4.6,0.98c1.53,0.34,2.84,0.63,4.32,0.96c-0.56,0.66-1.19,1.19-1.45,1.88c0.84,0.45,1.65-0.32,2.51-0.04
		c-0.38,1.18-0.75,2.32-1.12,3.45c0.09,0.08,0.19,0.15,0.28,0.23c0.84-0.97,1.69-1.95,2.67-3.09c0.33,1.83,0.6,3.29,0.87,4.75
		c0.08,0.01,0.15,0.02,0.23,0.03c0.31-1.48,0.62-2.97,0.93-4.46c1.04,0.55,1.23,1.72,2.3,2.16c0.16-1.01-0.48-1.95-0.04-2.9
		c0.98,0.31,1.96,0.62,2.94,0.93c0.04-0.07,0.08-0.14,0.12-0.22c-0.72-0.95-1.43-1.89-2.14-2.82c1.59-0.3,3.16-0.6,4.72-0.89
		c0-0.07,0-0.15,0-0.22c-1.26-0.29-2.52-0.59-3.73-0.87c0.31-1.13,1.45-1.54,1.76-2.68c-1.22,0.32-2.36,0.61-3.49,0.9
		c-0.31-0.6,0.2-1.12,0.18-1.7c-0.03-0.58,0.53-1.15,0.05-1.83c-0.74,0.54-1.64,1.51-2.24,1.28c-0.66-0.27-0.53-1.59-0.82-2.43
		c-0.05-0.15-0.08-0.3-0.11-0.45c-0.32-1.45-0.32-1.45,1.23-1.45c94.06,0,188.12,0,282.18,0c-0.22-0.49-0.65-0.22-0.96-0.22
		c-111.89-0.01-223.79-0.01-335.68-0.04c-0.82,0-0.98,0.16-0.98,0.98c0.03,12.59,0.02,25.19,0.02,37.78c0,16.3,0,32.6,0.01,48.9
		c0,0.35-0.28,0.81,0.22,1.08c0-14.7,0.01-29.41-0.02-44.11c0-0.88,0.19-1.12,1.1-1.11c3.28,0.06,6.55,0.02,9.83,0.02
		c1.74,0,1.72-0.04,1.82-1.84c0.1-2,0.24-4,0.49-5.98c0.4-3.22,0.8-6.44,0.92-9.69c0.02-0.56,0.18-1.05,0.45-1.54
		c-0.04,1.07,0.16,2.1,0.46,3.11c1.52,5.03,3.07,10.05,4.54,15.09c0.2,0.69,0.48,0.86,1.13,0.85c2-0.03,4-0.04,5.99,0.01
		c0.68,0.02,0.93-0.24,1.12-0.86c0.57-1.91,1.24-3.79,1.83-5.7c1.28-4.16,2.87-8.22,3.81-12.49c0.19,1.85,0.42,3.68,0.57,5.51
		c0.26,3.13,0.37,6.27,0.79,9.38c0.15,1.15,0,2.33,0.37,3.49c0.17,0.55,0.31,0.66,0.81,0.66c7.71-0.01,15.42-0.02,23.14,0.01
		c0.74,0,0.82-0.28,0.81-0.9c-0.03-1.98-0.01-3.95-0.01-6.28c0.34,0.69,0.53,1.08,0.72,1.47c0.75,1.52,1.9,2.8,3.25,3.69
		c4.62,3.03,9.63,3.1,14.78,1.54c0.36-0.11,0.41-0.23,0.43-0.54c0.23-3.29,0.52-6.58,0.47-10.01c-1.31,0.76-2.5,1.53-3.9,1.84
		c-1.25,0.28-2.4-0.08-3.19-0.98c-0.78-0.89-1.27-1.94-0.93-3.3c0.57-2.36,3.44-3.18,5.48-2.18c0.86,0.42,1.58,1.05,2.56,1.63
		c0-3.27-0.04-6.36,0.03-9.45C216.95,371.37,216.6,371.08,216.02,370.97z M192.93,361.26c0.01,0.98-0.91,1.8-2.02,1.8
		c-1.01,0-1.84-0.84-1.81-1.85c0.03-0.96,0.84-1.74,1.8-1.74C192.02,359.47,192.92,360.26,192.93,361.26z"/>
	<path class="st0" d="M471.36,370.45c-1.48,0.15-2.46,1.22-2.46,2.96c0,1.61,1.03,2.67,2.46,2.83c1.54,0.17,2.49-0.57,3.29-1.7
		c0-0.72,0-1.43,0-2.15C474,371,472.99,370.29,471.36,370.45z M473.74,374.15c-0.12,0.24-0.14,0.58-0.48,0.51
		c-0.22-0.05-0.24-0.34-0.29-0.59c-0.15-0.73,0.58-1.55-0.16-2.18c-0.65-0.55-1.5-0.06-2.23-0.28c-0.01,0.01-0.02,0.01-0.03,0.02
		c0,0,0,0,0,0c-0.01,0.01-0.02,0.02-0.03,0.03c0.09,1.13,0.13,2.25-0.02,3.38c0.01,0.01,0.02,0.02,0.03,0.03c0,0,0,0,0,0
		c0.01,0.01,0.02,0.02,0.03,0.02c0.56-0.04,0.87-0.28,0.76-0.92c-0.03-0.19-0.13-0.5,0.22-0.58c0.32-0.07,0.6,0.08,0.68,0.35
		c0.12,0.4,0.18,0.79,0.53,1.09c0.36,0.31-0.12,0.24-0.18,0.26c-0.7,0.26-1.4,0.45-2-0.2c-0.02,0-0.04,0.01-0.06,0.01
		c0-0.02,0-0.04,0.01-0.06c-1.28-1.05-1.27-2.18,0.02-3.38c0-0.02,0-0.05,0-0.07c0.02,0.01,0.04,0.01,0.06,0.01
		c0.9-0.67,1.78-0.59,2.6,0.14C473.92,372.41,474.22,373.19,473.74,374.15z M472.28,372.56c-0.13,0.35-0.29,0.52-0.61,0.55
		c-0.45,0.03-0.36-0.28-0.38-0.54c-0.02-0.28,0.06-0.43,0.38-0.42C472.02,372.15,472.11,372.41,472.28,372.56z"/>
	<path d="M252.09,386.49c-1.72,0-3.29-1.56-3.26-3.25c0.03-1.75,1.72-3.5,3.37-3.44c1.58,0.06,3.17,1.37,3.08,3.6
		C255.21,385.34,254.08,386.5,252.09,386.49z"/>
	<path class="st0" d="M456.18,370.22c-0.47,0-0.52,0.33-0.63,0.56c-1.16,2.55-2.27,5.12-3.44,7.67c-0.75,1.63-1.19,3.37-1.84,5.05
		c-0.08-1.26,0.04-2.5-0.1-3.72c-0.33-2.94-0.81-5.86-1.14-8.79c-0.07-0.65-0.26-0.76-0.84-0.76c-7.59,0.02-15.19,0.02-22.78-0.01
		c-0.79,0-0.93,0.26-0.89,0.95c0.06,0.85,0.01,1.7,0.01,2.75c-2.33-4.29-5.37-4.68-8.89-4.08c-3.37,0.57-5.97,2.63-7.92,5.47
		c-0.87,1.26-1.52,2.63-2.22,4.14c-0.95-4.39-3.5-7.12-7.51-8.47c-2.41-0.81-4.87-1.14-7.47-0.79c-2.66,0.36-5.11,1.04-7.41,2.42
		c-1.52,0.92-2.8,2.11-4.11,3.45c0.29-1.87,0.56-3.57,0.82-5.26c-1.09-0.34-2.11,0.22-3.17,0.19c-0.79-0.02-0.87-0.23-0.72-0.97
		c0.43-2.16,0.76-4.35,1.1-6.53c0.07-0.46,0.15-0.91-0.65-0.9c-3.64,0.04-7.27,0.03-10.91,0.01c-0.68,0-0.84,0.27-0.92,0.92
		c-0.26,2.24-0.61,4.46-0.95,6.69c-0.07,0.48-0.3,0.79-0.93,0.8c-0.61,0.01-1.14-0.28-1.74-0.28c-3.72,0.02-7.43,0.02-11.15,0
		c-0.6,0-0.88,0.11-0.81,0.77c0.06,0.59,0.01,1.2,0.01,2.12c-0.68-1.04-1.21-1.69-1.96-2.18c-1.91-1.26-3.99-1.44-6.2-1.19
		c-3.15,0.36-5.6,1.97-7.66,4.25c-0.91,1.01-1.59,2.2-2.31,3.36c-0.03-0.6-0.09-1.13,0.03-1.69c0.36-1.67,0.59-3.36,0.81-5.05
		c0.04-0.3,0.29-0.86-0.43-0.86c-2.04-0.01-4.01,0.2-5.82,1.31c-0.92,0.57-1.68,1.33-2.68,2.11c0.2-1.02,0.36-1.83,0.52-2.67
		c-0.22-0.01-0.38-0.03-0.54-0.03c-4.84,0-9.67-0.01-14.51,0.01c-0.76,0-1.12,0-0.87-1.02c0.49-2.11,0.75-4.27,1.09-6.42
		c0.07-0.46-0.02-0.72-0.61-0.71c-3.76,0.03-7.51,0.01-11.27,0.02c-0.26,0-0.57-0.09-0.59,0.36c-0.1,2.22-0.79,4.36-0.94,6.57
		c-0.06,0.86-0.31,1.34-1.26,1.2c-0.31-0.04-0.64,0.03-0.96-0.01c-0.82-0.11-1.13,0.28-1.16,1.04c-0.08,1.9-0.73,3.71-0.76,5.76
		c-0.92-0.41-1.12-1.33-1.8-1.79c-1.75-1.16-3.63-1.98-5.7-2.4c-1.28-0.26-2.57-0.55-3.79-0.98c-1.07-0.38-1.19-1.3-0.32-2.06
		c0.52-0.46,1.14-0.74,1.89-0.79c2.59-0.17,4.8,0.73,6.81,2.23c0.6,0.45,0.83,0.36,1.17-0.29c1.35-2.55,2.76-5.07,4.18-7.59
		c0.44-0.79,0.17-1.16-0.57-1.54c-1.96-1.01-3.97-1.77-6.17-2.19c-2.8-0.54-5.57-0.46-8.25,0.17c-3.99,0.94-7.51,2.79-10.11,6.14
		c-1.74,2.24-2.79,4.76-2.9,7.53c-0.21,4.94,3.09,7.26,7.24,8.21c1.5,0.34,3.04,0.57,4.52,0.98c1.3,0.35,1.51,1.29,0.63,2.29
		c-0.63,0.72-1.46,0.97-2.39,1.04c-2.67,0.2-4.89-0.82-7.02-2.32c-1.07-0.76-1.69-1.63-1.82-2.9c-0.51-5.29-3.55-8.56-8.4-10.31
		c-2.81-1.02-5.69-1.41-8.72-1.01c-2.82,0.37-5.41,1.1-7.78,2.72c-0.96,0.66-1.61,1.67-2.67,2.31c0-1.58-0.01-3.06,0.01-4.53
		c0.01-0.47-0.06-0.71-0.63-0.71c-3.23,0-6.05,0.8-7.93,3.89c-0.2-0.81,0.06-1.4,0.15-2.02c0.11-0.73,0.06-1.21-1-1.18
		c-3.43,0.09-6.87,0.06-10.31,0.02c-0.72-0.01-0.93,0.15-0.93,0.91c0.03,7.69,0.03,15.38,0,23.08c0,0.73,0.16,0.94,0.91,0.93
		c3.48-0.05,6.95-0.04,10.43,0c0.73,0.01,0.94-0.16,0.92-0.91c-0.05-2.99-0.04-5.98-0.01-8.97c0.01-1.93,1.27-3.89,3.04-4.34
		c2.33-0.59,3.03-0.26,2.92,2.02c-0.1,2.13,0.29,4.15,1.35,5.93c2.58,4.31,6.74,6.21,11.53,6.69c3.98,0.4,7.89-0.14,11.41-2.28
		c0.49-0.3,0.87-0.24,1.37,0.01c3.5,1.83,7.32,2.45,11.19,2.76c2.08,0.17,4.15-0.19,6.16-0.71c5.71-1.47,9.98-4.57,11.77-10.45
		c0.42-1.38,0.42-2.78,0.39-4.19c-0.02-0.88,0.6-0.89,1.2-0.88c0.86,0.02,0.34,0.49,0.29,0.87c-0.26,2.12-0.63,4.22-0.99,6.32
		c-0.42,2.41-0.74,4.83-1.16,7.23c-0.12,0.71,0.04,0.88,0.74,0.88c3.64-0.03,7.27-0.03,10.91,0c0.64,0.01,0.75-0.19,0.8-0.8
		c0.1-1.24,0.33-2.46,0.53-3.69c0.45-2.83,1-5.65,1.33-8.5c0.28-2.4,0.16-2.41,2.6-2.1c0.12,0.01,0.24,0.02,0.36,0
		c1.21-0.22,1.25,0.43,1.08,1.36c-0.41,2.25-0.77,4.5-1.14,6.76c-0.39,2.37-0.76,4.74-1.14,7.14c0.26,0.01,0.53,0.04,0.81,0.04
		c3.68,0,7.35,0,11.03,0c0.26,0,0.52,0.07,0.59-0.37c0.46-3.11,0.96-6.21,1.42-9.32c0.62-4.11,4.59-5.87,7.95-3.94
		c0.37,0.21,0.5,0.47,0.42,0.87c-0.39,1.91-0.4,3.83,0.05,5.71c1.45,6.19,5.95,8.58,11.86,6.79c1.79-0.54,3.28-1.69,4.77-3.33
		c-0.32,1.34-0.56,2.32-0.81,3.36c3.83,0,7.54,0,11.26,0c0.41,0,0.86,0.03,0.94-0.5c0.34-2.15,0.64-4.3,0.98-6.45
		c0.36-2.34,0.89-4.66,1.07-7.01c0.12-1.55,1-1.37,1.99-1.36c0.5,0,0.57,0.16,0.48,0.64c-0.33,1.71-0.62,3.43-0.9,5.15
		c-0.48,2.91-0.94,5.81-1.42,8.72c-0.1,0.59,0.04,0.83,0.72,0.82c3.68-0.04,7.35-0.03,11.03,0c0.61,0,0.68-0.2,0.72-0.75
		c0.1-1.24,0.31-2.47,0.51-3.69c0.53-3.33,1.09-6.65,1.61-9.98c0.06-0.36,0.01-0.81,0.44-0.86c0.62-0.06,1.26,0.01,1.9,0.06
		c0.03,0,0.1,0.31,0.05,0.43c-0.51,1.16-0.57,2.39-0.76,3.62c-0.37,2.34,0.07,4.5,1.26,6.44c2.2,3.56,5.82,4.8,9.71,5.16
		c4.91,0.45,9.57-0.5,13.57-3.57c1.76-1.35,3.37-2.91,4.07-5.24c-3.12,0-6.15,0-9.18,0c-1.45,0-3.06-0.39-3.87,1.4
		c-0.02,0.03-0.05,0.06-0.09,0.08c-0.94,0.64-1.92,0.61-2.87,0.1c-0.63-0.33-1.17-2.35-0.75-3.15c0.4-0.76,1.27-0.21,1.91-0.33
		c0.35-0.07,0.72-0.01,1.08-0.01c4.36,0,8.71,0,13.07-0.01c0.54,0,1.03-0.08,0.94,0.75c-0.09,0.94,0.24,1.83,0.46,2.74
		c1.62,6.6,7.4,8.08,12.64,5.99c1.41-0.57,2.6-1.52,3.56-2.82c0.27,0.62-0.07,1-0.17,1.39c-0.95,3.79-3.5,6.38-7.57,5.86
		c-2.42-0.3-4.57-1.09-6.48-2.54c-0.54-0.41-0.69-0.43-0.97,0.19c-1.11,2.41-2.23,4.82-3.44,7.18c-0.32,0.62-0.15,0.83,0.35,1.04
		c3.44,1.45,7.06,2.12,10.77,2.19c2.42,0.05,4.84-0.26,7.18-0.93c5.46-1.56,9.58-4.66,11.32-10.27c0.79-2.56,0.94-5.26,1.39-7.89
		c0.75-4.39,1.38-8.81,2.16-13.19c0.14-0.76-0.07-1.65,0.56-2.43c0.18,0.65,0.31,1.21,0.48,1.75c1.86,5.77,3.72,11.53,5.57,17.3
		c0.14,0.45,0.25,0.9-0.08,1.38c-1.61,2.36-3.18,4.74-4.76,7.12c-1.12,1.69-2.22,3.39-3.46,5.28c4.39,0,8.52,0,12.66,0
		c0.36,0,0.54-0.16,0.73-0.47c2.71-4.48,5.42-8.96,8.15-13.42c2.76-4.5,5.56-8.97,8.33-13.46c1.56-2.54,3.09-5.1,4.73-7.81
		C464.46,370.23,460.32,370.24,456.18,370.22z M342.44,386.08c-0.68-0.35-0.76-0.9-0.94-1.47c-0.61-1.89,1.09-5.01,3.49-4.82
		c1.63,0.01,2.6,1.04,2.58,2.72C347.54,385.44,344.81,387.3,342.44,386.08z M393.37,380.04c-0.12,0.01-0.24,0-0.36,0
		c-1.52,0-3.03,0-4.56,0c0.43-2.18,1.59-3.39,3.2-3.35c1.77,0.05,2.55,1.44,2.46,2.88C394.07,380.18,393.69,380.01,393.37,380.04z
		 M419.62,386.02c-1.62,0-2.76-1.18-2.75-2.81c0.01-1.83,1.94-4.06,3.69-3.92c1.7,0.13,2.55,0.93,2.55,2.77
		C423.11,384.31,421.6,386.02,419.62,386.02z"/>
	<path class="st0" d="M235.14,421.49c0-0.58-0.1-0.83-0.77-0.83c-0.63,0.01-0.74,0.25-0.69,0.78c0.03,0.34,0.01,0.7,0.01,1.11
		c-2.54-3.42-7.48-2.74-9.59,0.4c-1.13,1.68-1.28,3.53-1.21,5.47c0.14,3.64,3.09,6.86,7.34,5.93c1.3-0.28,2.21-1,3.22-2.08
		c0,0.98,0.07,1.72-0.01,2.45c-0.24,2.06-1.45,3.71-3.56,4.18c-1.72,0.38-3.19-0.07-4.7-0.7c-0.2-0.08-0.6-0.7-0.8-0.05
		c-0.13,0.44-0.68,1.05,0.15,1.41c2.56,1.11,5.13,1.3,7.66-0.05c2.49-1.33,2.82-3.82,2.91-6.21
		C235.24,429.38,235.12,425.43,235.14,421.49z M232.51,431.37c-2.37,3.05-6.36,1.65-7.49-0.96c-1.08-2.5-0.75-4.85,0.63-7.03
		c0.78-1.23,2.77-2.15,4.45-1.62c2.11,0.66,3.33,2.09,3.35,3.94c0,0.52,0,1.03,0,1.55C233.42,428.7,233.52,430.06,232.51,431.37z"/>
	<path class="st0" d="M241.05,427.6c1.35,0.09,2.71,0.02,4.07,0.02c1.12,0,2.24,0,3.35,0c1.76,0,1.76,0,1.76-1.71
		c0-2.35-1.65-4.93-3.52-5.43c-2.8-0.74-5.46,0.33-6.79,2.36c-1.45,2.2-1.67,4.62-1.1,7.11c0.33,1.43,0.97,2.78,2.28,3.65
		c2.45,1.62,5.04,1.42,7.7,0.62c0.71-0.21,0.76-0.42,0.51-1.11c-0.42-1.15-1.08-0.2-1.37-0.11c-3.63,1.13-6.92,0.07-7.76-4.35
		C240.06,427.96,240.13,427.54,241.05,427.6z M240.41,425.56c0.59-2.45,2.81-4.68,5.64-3.68c1.4,0.5,2.54,2.2,2.53,3.69
		c-0.01,0.58-0.24,0.63-0.71,0.62c-1.15-0.02-2.31-0.01-3.46-0.01c-1.11,0-2.23-0.02-3.34,0.01
		C240.57,426.21,240.28,426.1,240.41,425.56z"/>
	<path class="st0" d="M330.7,427.6c1.35,0.09,2.71,0.02,4.07,0.02c1.16,0,2.32,0,3.47,0c1.67,0,1.66,0,1.67-1.69
		c0.01-2.7-1.66-4.85-3.5-5.42c-2.67-0.83-5.52,0.3-6.84,2.41c-1.36,2.17-1.59,4.51-1.1,6.89c0.3,1.49,0.97,2.88,2.39,3.81
		c2.46,1.61,4.99,1.35,7.6,0.59c0.63-0.18,0.82-0.33,0.55-1.1c-0.43-1.18-1.09-0.24-1.36-0.15c-3.6,1.16-6.94,0.11-7.77-4.31
		C329.75,428.01,329.75,427.54,330.7,427.6z M330.08,425.57c0.57-2.43,2.79-4.69,5.63-3.69c1.42,0.51,2.55,2.16,2.54,3.68
		c-0.01,0.56-0.21,0.65-0.69,0.64c-1.15-0.03-2.31-0.01-3.46-0.01c-1.11,0-2.23-0.02-3.34,0.01
		C330.27,426.21,329.95,426.12,330.08,425.57z"/>
	<path class="st0" d="M192.41,427.6c1.35,0.09,2.71,0.02,4.07,0.02c0.84,0,1.68,0,2.52,0c2.79,0,2.78,0,2.33-2.75
		c-0.34-2.05-1.31-3.6-3.36-4.29c-2.36-0.8-4.61-0.26-6.19,1.48c-2.4,2.63-2.65,6.75-1.05,9.67c1.98,3.64,6.53,3.57,9.63,2.37
		c0.63-0.24,0.29-0.6,0.23-0.9c-0.09-0.44-0.27-0.68-0.82-0.38c-0.49,0.26-1.08,0.4-1.64,0.48c-3.58,0.51-6.18-0.96-6.63-4.67
		C191.4,427.92,191.54,427.55,192.41,427.6z M194.82,421.87c2.04-0.58,3.98,0.38,4.69,2.36c0.14,0.4,0.09,0.82,0.33,1.23
		c0.24,0.42,0.03,0.76-0.61,0.75c-2.55-0.04-5.09-0.02-7.75-0.02C192,424.16,192.67,422.48,194.82,421.87z"/>
	<path class="st0" d="M434.6,422.72c-1.92-3.27-6.44-3.21-8.81-0.66c-2.43,2.61-2.64,6.75-1.04,9.67c1.99,3.64,6.56,3.55,9.63,2.37
		c0.64-0.25,0.28-0.61,0.22-0.91c-0.09-0.44-0.28-0.67-0.83-0.38c-0.49,0.26-1.08,0.4-1.64,0.48c-3.58,0.51-6.18-0.97-6.63-4.68
		c-0.09-0.71,0.07-1.06,0.93-1.01c1.35,0.08,2.71,0.02,4.07,0.02c1.44,0,2.87,0,4.31,0c0.39,0,0.77,0.1,0.78-0.55
		C435.61,425.53,435.38,424.05,434.6,422.72z M432.34,426.19c-2.26,0-4.52,0-6.86,0c0.52-1.98,1.18-3.68,3.31-4.32
		c2.2-0.66,4.36,0.51,4.87,2.73C434.02,426.19,434.02,426.19,432.34,426.19z"/>
	<path class="st0" d="M403.77,427.61c1.4,0.06,2.8,0.02,4.19,0.02c1.2,0,2.41-0.1,3.59,0.03c1.28,0.13,1.59-0.32,1.51-1.54
		c-0.13-2.15-0.77-4.1-2.68-5.14c-3.33-1.82-7.09-0.16-8.37,3.23c-0.65,1.73-0.94,3.49-0.5,5.35c0.38,1.64,0.99,3.08,2.44,4.06
		c2.42,1.64,4.99,1.4,7.59,0.62c0.39-0.12,1.05-0.07,0.65-0.96c-0.3-0.67-0.48-0.69-1.06-0.41c-0.47,0.23-1.02,0.35-1.54,0.43
		c-3.49,0.55-6.1-1.04-6.63-4.8C402.88,427.87,403.02,427.57,403.77,427.61z M407.59,421.65c2.51,0.03,3.53,2.01,3.77,3.82
		c0.07,0.57-0.11,0.75-0.71,0.74c-2.52-0.04-5.03-0.01-7.55-0.01C403.62,423.28,405.26,421.62,407.59,421.65z"/>
	<path class="st0" d="M283.65,427.61c1.4,0.06,2.8,0.02,4.19,0.02c1.2,0,2.41-0.1,3.59,0.03c1.29,0.14,1.6-0.34,1.5-1.55
		c-0.18-2.12-0.75-4.08-2.68-5.15c-3.33-1.84-7.25-0.01-8.38,3.25c-0.61,1.75-0.89,3.49-0.5,5.35c0.34,1.63,1,3.06,2.35,4.01
		c2.4,1.67,5.04,1.5,7.69,0.66c0.4-0.13,1.04-0.08,0.64-0.96c-0.3-0.69-0.5-0.67-1.06-0.4c-0.48,0.23-1.02,0.35-1.54,0.44
		c-3.51,0.54-6.1-1.06-6.62-4.81C282.75,427.85,282.92,427.57,283.65,427.61z M286.35,421.82c2.88-0.82,4.76,1.46,4.9,3.78
		c0.04,0.63-0.31,0.59-0.74,0.59c-2.52-0.01-5.03,0-7.6,0C283.44,424.21,284.09,422.46,286.35,421.82z"/>
</g>
</svg>
