<?xml version="1.0" encoding="utf-8"?>
<!-- Generator: Adobe Illustrator 24.0.1, SVG Export Plug-In . SVG Version: 6.00 Build 0)  -->
<svg version="1.1" id="Camada_1" xmlns="http://www.w3.org/2000/svg" xmlns:xlink="http://www.w3.org/1999/xlink" x="0px" y="0px"
	 viewBox="0 0 612 792" style="enable-background:new 0 0 612 792;" xml:space="preserve">
<style type="text/css">
	.st0{fill:#E56F77;}
	.st1{fill:#D8232E;}
	.st2{fill:#D92530;}
	.st3{fill:#D8242F;}
	.st4{fill:#D8242E;}
	.st5{fill:#D92631;}
	.st6{fill:#D82530;}
	.st7{fill:#D92934;}
	.st8{fill:#D92833;}
	.st9{fill:#DA2B36;}
	.st10{fill:#DC3842;}
</style>
<g>
	<path class="st0" d="M474.47,372.54l0.11-0.03l0.07,0.09c0,0.56,0,1.12,0,1.67l-0.12-0.02l-0.11,0.04
		C473.98,373.7,473.95,373.11,474.47,372.54z"/>
	<path class="st1" d="M172.71,395.34c-0.52-1.84-0.47-3.75-0.65-5.63c-0.45-4.43-0.81-8.87-1.27-13.31
		c-1.58,5.84-3.68,11.5-5.46,17.26c-0.55,1.79-0.55,1.79-2.38,1.79c-1.64,0-3.28-0.01-4.91,0c-0.47,0-0.84-0.02-1-0.59
		c-1.63-5.78-3.8-11.4-5.03-17.29c-0.09-0.42-0.13-0.85-0.44-1.3c-0.11,1.14-0.22,2.28-0.33,3.42c-0.49,4.95-0.99,9.9-1.45,14.86
		c-0.06,0.63-0.2,0.91-0.9,0.91c-3.6-0.03-7.19-0.03-10.79,0c-0.77,0.01-0.82-0.27-0.71-0.92c1.82-11.11,3.63-22.23,5.41-33.34
		c0.1-0.64,0.31-0.87,0.97-0.86c3.87,0.03,7.75,0.04,11.62-0.01c0.87-0.01,0.92,0.5,1.08,1.08c1.44,5.5,2.89,11,4.33,16.5
		c0.07,0.26,0.18,0.51,0.37,0.78c0.47-2.45,1.04-4.86,1.75-7.23c1.02-3.39,1.98-6.8,2.92-10.21c0.19-0.68,0.5-0.92,1.23-0.92
		c3.71,0.04,7.43,0.05,11.15-0.01c0.84-0.01,1.07,0.31,1.19,1.03c1.13,6.99,2.29,13.98,3.43,20.97c0.59,3.57,1.16,7.15,1.77,10.72
		c0.06,0.35-0.07,0.82,0.37,1.05c0.39,0.77,0.15,1.32-0.69,1.32C180.42,395.41,176.56,395.57,172.71,395.34z"/>
	<path class="st1" d="M172.71,395.34c3.66-0.01,7.32-0.03,10.98,0c0.93,0.01,1.34-0.33,1.29-1.24c0-7.42,0.02-14.83-0.01-22.24
		c0-0.89,0.16-1.22,1.15-1.2c3.28,0.07,6.55,0.07,9.83,0c0.95-0.02,1.11,0.29,1.09,1.15c-0.06,2.23-0.02,4.46-0.02,6.73
		c0.48-0.16,0.44-0.63,0.6-0.95c2.29-4.76,6.05-7.25,11.34-7.42c2.42-0.08,4.77,0.31,7.09,0.96c0.59,0.17,0.86,0.38,0.85,1.04
		c-0.03,3.03-0.01,6.05-0.01,9.21c-1-0.56-1.8-1.28-2.81-1.65c-2.7-0.99-5.28,0.46-5.38,3.07c-0.11,2.64,2.19,4.29,4.9,3.56
		c1.17-0.31,2.12-1.05,3.27-1.67c-0.16,3.31-0.32,6.48-0.46,9.65c-0.02,0.38-0.2,0.57-0.54,0.68c-5.4,1.67-10.55,1.47-15.23-2.07
		c-1.36-1.03-2.31-2.41-3-3.96c-0.15-0.34-0.32-0.68-0.61-1.3c0,2.51-0.02,4.69,0.01,6.87c0.01,0.63-0.11,0.92-0.84,0.92
		c-7.67-0.02-15.35-0.02-23.02-0.02C173.01,395.45,172.86,395.38,172.71,395.34z"/>
	<path class="st1" d="M369.44,432.44c1.3-3.71,2.54-7.28,3.79-10.84c0.16-0.47,0.22-0.96,0.97-0.95c0.72,0.01,0.82,0.42,0.99,0.93
		c1.2,3.58,2.41,7.14,3.66,10.83c1.12-3.6,2.23-7.08,3.29-10.59c0.27-0.89,0.64-1.43,1.77-1.02c-0.06,0.24-0.11,0.53-0.2,0.8
		c-1.32,3.95-2.66,7.91-3.97,11.86c-0.17,0.51-0.27,0.93-0.99,0.93c-0.7-0.01-0.75-0.47-0.89-0.9c-1.16-3.51-2.31-7.02-3.46-10.53
		c-0.03-0.1-0.12-0.17-0.27-0.38c-1.13,3.71-2.5,7.2-3.76,10.74c-0.18,0.49-0.19,1.08-1.01,1.08c-0.85,0-0.81-0.61-0.96-1.1
		c-1.19-3.83-2.38-7.67-3.53-11.51c-0.09-0.31-0.64-0.83,0.04-1.05c0.56-0.18,1.1-0.12,1.33,0.71c0.93,3.37,1.94,6.72,2.92,10.08
		C369.21,431.77,369.3,432.03,369.44,432.44z"/>
	<path class="st2" d="M388.69,422.59c1.09-1.28,2.4-2.16,4.15-2.19c2.47-0.05,4.38,1.35,4.79,3.78c0.54,3.2,0.14,6.44,0.24,9.66
		c0.02,0.65-0.48,0.48-0.85,0.52c-0.53,0.05-0.56-0.28-0.56-0.67c0.01-2.19,0.02-4.38,0-6.57c-0.01-0.71-0.04-1.44-0.16-2.14
		c-0.44-2.41-1.81-3.53-4-3.33c-2,0.18-3.8,2.03-3.83,4.08c-0.05,2.55-0.01,5.1-0.01,7.65c0,0.53,0.08,1.01-0.75,1.01
		c-0.87-0.01-0.71-0.55-0.71-1.04c0-6.06,0-12.11,0-18.17c0-0.52-0.09-1.02,0.75-1.01c0.86,0,0.72,0.53,0.72,1.04
		c0,2.19,0,4.38,0.01,6.57C388.47,422.02,388.35,422.32,388.69,422.59z"/>
	<path class="st2" d="M303.07,424.8c0-2.87,0.02-5.74-0.01-8.61c-0.01-0.72,0.11-1.06,0.96-1.03c2.55,0.06,5.11,0.02,7.67,0.03
		c0.39,0,0.89-0.2,0.92,0.55c0.03,0.83-0.52,0.63-0.96,0.63c-2.12,0.01-4.23,0.03-6.35-0.01c-0.69-0.01-0.89,0.2-0.87,0.88
		c0.04,1.83,0.05,3.67,0,5.5c-0.02,0.76,0.26,0.95,0.97,0.93c1.96-0.04,3.91-0.02,5.87-0.01c0.41,0,0.92-0.15,0.94,0.57
		c0.03,0.79-0.52,0.65-0.98,0.65c-1.92,0.01-3.83,0.03-5.75-0.01c-0.73-0.01-1.08,0.12-1.05,0.97c0.06,2.15,0.05,4.3,0.01,6.45
		c-0.01,0.69,0.21,0.89,0.88,0.88c2.28-0.04,4.55-0.01,6.83-0.01c0.48,0,0.98-0.1,0.94,0.68c-0.04,0.77-0.59,0.51-0.96,0.51
		c-2.68,0.02-5.35-0.03-8.03,0.03c-0.88,0.02-1.05-0.3-1.04-1.09C303.1,430.46,303.07,427.63,303.07,424.8z"/>
	<path class="st3" d="M255.25,422.99c0.98-1.49,2.16-2.25,3.62-2.52c2.99-0.54,5.4,1.22,5.73,4.29c0.32,2.97,0.06,5.97,0.13,8.95
		c0.01,0.55-0.25,0.65-0.73,0.66c-0.56,0.02-0.66-0.24-0.65-0.72c0.02-2.23,0.02-4.46,0-6.69c-0.01-0.71-0.06-1.43-0.18-2.13
		c-0.26-1.46-0.94-2.65-2.48-3.06c-1.6-0.43-3.01-0.01-4.15,1.19c-0.86,0.9-1.26,2-1.26,3.25c0.01,2.39,0,4.78,0,7.17
		c0,0.52,0.11,1.02-0.74,1c-0.74-0.02-0.71-0.42-0.71-0.93c-0.01-4.02-0.02-8.04-0.04-12.06c0-0.46,0.04-0.74,0.63-0.73
		c0.5,0.02,0.73,0.16,0.72,0.68C255.13,421.78,255.19,422.21,255.25,422.99z"/>
	<path class="st1" d="M351.15,420.8c1.12-0.39,1.6,0.03,1.98,1.04c1.31,3.49,2.74,6.94,4.13,10.41c1.31-3.47,2.66-6.91,3.89-10.39
		c0.36-1.03,0.84-1.44,1.99-1.08c-2.32,5.27-4.05,10.78-6.71,15.91c-0.81,1.55-1.97,2.8-3.56,3.6c-0.34,0.17-0.72,0.62-1.08-0.05
		c-0.31-0.58-0.11-0.86,0.43-1.09c0.82-0.35,1.47-0.94,2.07-1.59c1.62-1.77,2.47-3.53,1.23-6.07
		C353.83,428.04,352.59,424.38,351.15,420.8z"/>
	<path class="st4" d="M167.91,422.91c1.01-1.39,2.15-2.19,3.64-2.45c3.04-0.52,5.53,1.31,5.72,4.44c0.18,2.94,0.05,5.89,0.09,8.84
		c0.01,0.59-0.31,0.6-0.75,0.62c-0.58,0.02-0.63-0.31-0.63-0.76c0.01-2.15,0.01-4.3,0-6.45c0-0.56-0.02-1.12-0.07-1.67
		c-0.22-2.54-1.58-3.91-3.8-3.86c-2.18,0.05-4.09,1.92-4.13,4.17c-0.05,2.55-0.01,5.1-0.01,7.65c0,0.47,0.12,0.93-0.67,0.94
		c-0.81,0.02-0.78-0.4-0.78-0.96c0-3.98-0.02-7.97-0.03-11.95c0-0.38-0.11-0.8,0.55-0.81c0.59-0.01,0.77,0.19,0.74,0.76
		C167.75,421.84,167.84,422.27,167.91,422.91z"/>
	<path class="st3" d="M275.55,420.35c1.02,0.03,1.99,0.23,2.93,0.6c0.37,0.15,0.63,0.32,0.37,0.79c-0.2,0.35-0.27,0.76-0.85,0.45
		c-0.41-0.22-0.9-0.34-1.36-0.44c-3.13-0.69-5.83,0.92-6.65,3.94c-0.92,3.39,0.59,6.65,3.52,7.52c1.5,0.45,3,0.28,4.44-0.3
		c0.36-0.14,0.64-0.22,0.82,0.29c0.18,0.5,0.07,0.71-0.41,0.87c-2.66,0.87-5.3,1.08-7.62-0.78c-2.41-1.94-2.8-4.66-2.22-7.49
		c0.57-2.77,2.33-4.56,5.14-5.22C274.27,420.44,274.92,420.42,275.55,420.35z"/>
	<path class="st3" d="M314.76,420.77c0.98-0.31,1.48,0.04,1.83,1.02c1.28,3.58,2.66,7.13,4.07,10.88c0.37-0.9,0.69-1.65,0.98-2.42
		c1.08-2.82,2.2-5.62,3.21-8.46c0.35-0.98,0.84-1.34,1.92-1c-1.27,3.13-2.54,6.25-3.81,9.37c-0.48,1.18-0.98,2.34-1.43,3.53
		c-0.18,0.48-0.42,0.69-0.95,0.68c-0.48-0.01-0.7-0.19-0.87-0.63c-1.64-4.22-3.31-8.43-4.96-12.64
		C314.73,421.01,314.76,420.88,314.76,420.77z"/>
	<path class="st1" d="M182.58,426.87c0-1.39-0.03-2.79,0.01-4.18c0.02-0.68-0.19-0.95-0.87-0.86c-0.31,0.04-0.64,0-0.96,0
		c-0.47,0-0.46-0.33-0.48-0.66c-0.01-0.36,0.16-0.46,0.5-0.5c0.59-0.08,1.41,0.37,1.72-0.29c0.25-0.52,0.06-1.25,0.07-1.89
		c0-0.28,0.01-0.56,0-0.84c-0.01-0.79,0.67-0.74,1.1-0.78c0.59-0.05,0.29,0.51,0.33,0.8c0.12,0.97-0.43,2.27,0.24,2.84
		c0.57,0.48,1.82,0.13,2.78,0.16c0.4,0.01,0.91-0.16,0.88,0.58c-0.02,0.73-0.52,0.55-0.92,0.57c-0.95,0.06-2.19-0.4-2.76,0.18
		c-0.62,0.64-0.17,1.89-0.19,2.87c-0.03,1.91-0.03,3.82-0.01,5.73c0.02,2.32,0.64,2.9,2.93,2.76c0.4-0.03,0.68-0.06,0.74,0.47
		c0.05,0.47-0.13,0.61-0.56,0.72c-2.52,0.64-4.27-0.53-4.48-3.16c-0.12-1.5-0.02-3.02-0.02-4.53
		C182.61,426.87,182.6,426.87,182.58,426.87z"/>
	<path class="st5" d="M212.84,424.38c0,2.99,0,5.98,0,8.97c0,0.49,0.17,1.03-0.71,1.03c-0.85,0-0.74-0.5-0.74-1.02
		c0-6.06,0-12.12,0-18.17c0-0.51-0.13-1.02,0.72-1.03c0.87-0.01,0.72,0.52,0.72,1.02C212.84,418.25,212.84,421.32,212.84,424.38z"/>
	<path class="st5" d="M205.12,424.27c0-3.06,0-6.13,0-9.19c0-0.49-0.07-0.92,0.69-0.91c0.74,0.01,0.72,0.41,0.72,0.92
		c-0.01,6.13-0.01,12.26,0,18.39c0,0.52,0.01,0.9-0.72,0.91c-0.77,0.01-0.69-0.43-0.69-0.92
		C205.13,430.4,205.12,427.33,205.12,424.27z"/>
	<path class="st5" d="M159.84,424.63c0-2.83,0-5.66,0-8.49c0-0.54-0.06-1,0.76-0.99c0.82,0.01,0.64,0.51,0.64,0.96
		c0,5.78,0,11.56,0,17.34c0,0.47,0.11,0.94-0.67,0.93c-0.72-0.01-0.74-0.37-0.74-0.9C159.85,430.53,159.84,427.58,159.84,424.63z"/>
	<path class="st2" d="M345.01,422.83c0.88-1.34,1.9-2.41,3.6-2.44c0.55-0.01,0.81,0.16,0.77,0.75c-0.03,0.44-0.17,0.58-0.63,0.64
		c-2.09,0.26-3.24,1.35-3.59,3.51c-0.44,2.69-0.1,5.41-0.21,8.11c-0.01,0.37,0.25,0.93-0.52,0.96c-0.62,0.02-0.94-0.07-0.93-0.82
		c0.02-4.02-0.01-8.05-0.03-12.07c0-0.48,0-0.82,0.67-0.81c0.67,0.01,0.66,0.39,0.68,0.85
		C344.85,421.92,344.69,422.36,345.01,422.83z"/>
	<path class="st6" d="M418.09,422.82c0.3-0.38,0.54-0.73,0.82-1.04c0.77-0.88,1.72-1.39,2.92-1.38c0.48,0,0.62,0.21,0.6,0.66
		c-0.02,0.37,0.03,0.71-0.53,0.72c-2.32,0.07-3.19,1.61-3.66,3.58c-0.26,1.1-0.16,2.22-0.17,3.33c-0.02,1.67-0.02,3.34,0.01,5.01
		c0.01,0.53-0.19,0.68-0.7,0.67c-0.48-0.01-0.76-0.11-0.72-0.66c0.03-0.52,0.01-1.03,0.01-1.55c-0.02-3.54-0.03-7.08-0.05-10.62
		c0-0.44-0.13-0.86,0.59-0.87c0.66-0.01,0.69,0.33,0.67,0.81C417.86,421.9,417.8,422.35,418.09,422.82z"/>
	<path class="st7" d="M217.79,427.49c0-1.99,0-3.98,0-5.96c0-0.43-0.11-0.86,0.61-0.87c0.68-0.01,0.78,0.28,0.78,0.85
		c-0.02,4.02-0.01,8.03,0,12.05c0,0.5-0.06,0.82-0.7,0.82c-0.64,0-0.7-0.3-0.69-0.8C217.8,431.55,217.79,429.52,217.79,427.49z"/>
	<path class="st8" d="M219.55,417.05c-0.03,0.62-0.48,1-1.15,0.97c-0.77-0.03-1.11-0.56-1.04-1.3c0.06-0.68,0.45-1.11,1.16-1.08
		C219.34,415.67,219.58,416.22,219.55,417.05z"/>
	<path class="st1" d="M467.74,370.24c-3.72,0-7.43,0.01-11.15-0.01c-0.51,0-0.79,0.16-0.99,0.65c-1.65,4.01-3.76,7.82-4.95,12.02
		c-0.07,0.24-0.06,0.57-0.51,0.62c0.02-4.05-0.75-8.01-1.15-12.01c-0.09-0.87-0.29-1.3-1.33-1.29c-7.27,0.05-14.55,0.04-21.82,0.01
		c-0.78,0-1.16,0.13-1.15,1.01c0.01,0.83-0.15,1.66-0.24,2.65c-3.17-4.5-7.27-5.43-11.96-2.83c-2.98,1.66-4.92,4.24-6.33,7.27
		c-0.18,0.39-0.2,0.91-0.74,1.12c-0.83-4.28-3.4-6.98-7.38-8.42c-6.23-2.26-13.74-0.41-18.27,4.45c-0.23,0.25-0.37,0.73-0.87,0.64
		c0.15-0.92,0.29-1.81,0.45-2.7c0.47-2.56,0.47-2.56-2.11-2.5c-1.55,0.04-1.53,0.04-1.27-1.54c0.36-2.18,0.69-4.36,1.05-6.64
		c-3.77,0-7.41,0.04-11.04-0.02c-0.91-0.02-1.24,0.28-1.36,1.14c-0.28,2.05-0.68,4.09-0.94,6.14c-0.1,0.77-0.33,1.02-1.11,0.94
		c-3.62-0.41-7.26-0.17-10.89-0.22c-2.34-0.03-2.34-0.01-2.57,2.36c-0.01,0.15,0.02,0.32-0.17,0.39c-3.21-3.42-6.69-4.24-10.84-2.5
		c-2.79,1.17-4.82,3.22-6.37,5.76c-0.36,0.59-0.71,1.2-1.06,1.8c-0.13-0.44-0.11-0.83-0.05-1.2c0.33-2.08,0.64-4.17,1.02-6.25
		c0.11-0.59,0.01-0.79-0.61-0.78c-2.86,0.02-5.46,0.65-7.45,2.89c-0.26,0.29-0.48,0.62-0.72,0.93c-0.27-0.95,0.07-1.68,0.23-2.43
		c0.1-0.49,0.15-0.79-0.56-0.78c-4.59,0.05-9.19,0.03-13.78,0.1c-1.66,0.02-1.64,0.11-1.36-1.59c0.36-2.18,0.69-4.36,1.05-6.63
		c-3.92,0-7.71,0.02-11.51-0.02c-0.72-0.01-0.75,0.42-0.82,0.88c-0.28,1.77-0.57,3.54-0.82,5.31c-0.3,2.04-0.28,2.07-2.32,1.97
		c-0.76-0.04-1.01,0.17-1.11,0.94c-0.26,2.04-0.64,4.06-1.01,6.33c-2.2-3.38-5.58-4.17-8.99-4.9c-0.66-0.14-1.33-0.29-1.97-0.49
		c-0.53-0.17-1.08-0.38-1.16-1.06c-0.08-0.66,0.23-1.15,0.75-1.53c0.36-0.26,0.75-0.43,1.2-0.51c2.7-0.47,5.04,0.48,7.19,1.95
		c0.7,0.48,0.97,0.49,1.38-0.3c1.26-2.44,2.55-4.86,3.93-7.24c0.47-0.82,0.25-1.13-0.46-1.53c-4.37-2.47-9.04-3.03-13.9-2.04
		c-4.32,0.89-8,2.93-10.69,6.5c-1.65,2.19-2.55,4.68-2.68,7.41c-0.17,3.63,2.3,6.58,6.46,7.65c1.62,0.42,3.29,0.65,4.92,1.01
		c0.66,0.15,1.35,0.36,1.47,1.19c0.12,0.85-0.27,1.47-0.99,1.89c-1.03,0.61-2.16,0.79-3.35,0.65c-2.69-0.3-4.89-1.61-6.86-3.37
		c-0.43-0.39-0.51-0.83-0.55-1.37c-0.2-3.06-1.33-5.71-3.54-7.87c-2.38-2.32-5.3-3.53-8.54-3.92c-5.13-0.61-9.97,0.08-14.03,3.65
		c-0.49,0.43-0.94,0.9-1.53,1.48c0-1.61,0-3.04,0-4.47c0-0.38,0.11-0.82-0.53-0.84c-2.75-0.12-5.26,0.36-7.1,2.65
		c-0.26,0.33-0.54,0.65-1.04,1.26c0.05-1.05,0.01-1.74,0.14-2.39c0.16-0.81-0.07-1.02-0.88-1.01c-3.4,0.04-6.79,0.05-10.19,0
		c-0.85-0.01-0.96,0.31-0.96,1.04c0.02,7.58,0.03,15.15-0.01,22.73c0,0.88,0.3,1.05,1.1,1.05c3.32-0.04,6.63-0.04,9.95,0
		c0.88,0.01,1.16-0.21,1.15-1.13c-0.06-2.99-0.06-5.98-0.01-8.97c0.05-2.83,2.23-4.69,5-4.35c0.78,0.09,1.14,0.32,1.06,1.26
		c-0.32,4.02,0.95,7.44,4.07,10.11c4.92,4.19,13.71,4.85,19.74,1.4c0.76-0.44,1.28-0.39,2.05-0.05c6.2,2.72,12.55,3.6,19.1,1.33
		c5.28-1.84,10.62-6.69,10.01-14.21c-0.04-0.44,0.11-0.53,0.5-0.6c1.34-0.24,1.45-0.12,1.23,1.24c-0.7,4.32-1.36,8.65-2.08,12.97
		c-0.14,0.82,0.02,1.08,0.91,1.07c3.32-0.05,6.63-0.06,9.95,0c0.98,0.02,1.27-0.33,1.4-1.24c0.55-3.82,1.16-7.63,1.8-11.44
		c0.48-2.87,0.51-2.84,3.46-2.53c0.71,0.07,0.92,0.19,0.79,0.99c-0.75,4.39-1.4,8.8-2.13,13.2c-0.14,0.83-0.11,1.21,0.92,1.19
		c3.32-0.07,6.63-0.06,9.95,0c0.88,0.01,1.15-0.29,1.27-1.12c0.43-2.99,0.86-5.99,1.45-8.96c0.73-3.69,4.45-5.48,7.59-3.8
		c0.66,0.36,0.93,0.75,0.77,1.5c-0.36,1.62-0.23,3.25,0.03,4.87c0.65,4.1,3.19,7.01,6.83,7.69c3.11,0.58,5.83-0.39,8.24-2.35
		c0.53-0.43,1.05-0.86,1.77-1.46c-0.23,0.86-0.38,1.44-0.53,2.01c-0.38,1.42-0.38,1.43,1.04,1.43c3,0,6-0.07,8.99,0.04
		c1.26,0.05,1.58-0.4,1.74-1.54c0.6-4.26,1.3-8.5,1.97-12.74c0.15-0.96,0.9-1.38,2.15-1.09c0.87,0.2,0.36,0.9,0.29,1.35
		c-0.66,4.33-1.34,8.65-2.05,12.97c-0.12,0.73,0.01,0.97,0.81,0.96c3.44-0.04,6.87-0.04,10.31,0c0.69,0.01,0.99-0.18,1.1-0.89
		c0.62-4.09,1.29-8.18,1.92-12.27c0.35-2.23,0.33-2.23,2.58-2.05c0.07,0.01,0.14,0.05,0.25,0.09c-0.17,0.61-0.37,1.21-0.52,1.82
		c-1.67,6.67,1.39,11.77,8.09,13.32c4.89,1.13,9.61,0.5,14.04-1.89c2.36-1.28,4.27-3.05,5.56-5.45c0.38-0.71,0.3-0.94-0.57-0.93
		c-3.32,0.04-6.63,0.02-9.95,0.01c-0.44,0-0.79,0.02-1.1,0.49c-0.95,1.44-2.17,1.9-3.43,1.42c-1.08-0.41-1.4-1.34-1.3-3.15
		c0.05-0.87,0.47-0.92,1.14-0.91c4.52,0.02,9.03,0.01,13.55,0.01c2.32,0,2.27,0.01,2.66,2.27c0.58,3.38,2,6.31,5.4,7.62
		c3.45,1.33,6.67,0.54,9.56-1.66c0.59-0.45,1.14-0.95,1.69-1.41c-0.21,1.22-0.5,2.51-1.09,3.72c-1.32,2.67-3.65,4-6.63,3.73
		c-2.43-0.22-4.71-0.9-6.63-2.47c-0.59-0.49-0.8-0.34-1.08,0.27c-1.06,2.27-2.13,4.54-3.24,6.78c-0.32,0.64-0.19,0.87,0.45,1.13
		c5.63,2.21,11.4,2.76,17.26,1.23c6.74-1.76,11.1-5.89,12.23-12.97c0.92-5.78,1.82-11.56,2.75-17.34c0.2-1.21,0.26-2.45,0.76-3.91
		c2.17,6.84,4.25,13.4,6.34,19.95c0.17,0.52-0.09,0.83-0.33,1.19c-2.44,3.69-4.88,7.38-7.32,11.07c-0.16,0.25-0.49,0.44-0.32,0.89
		c3.81,0,7.65-0.03,11.48,0.02c0.8,0.01,1.21-0.27,1.6-0.92c2.24-3.72,4.52-7.41,6.79-11.12c4.48-7.3,8.96-14.6,13.41-21.91
		C468.17,370.95,469.11,370.24,467.74,370.24z M252.22,386.67c-1.87,0.06-3.42-1.45-3.45-3.36c-0.03-1.96,1.4-3.54,3.23-3.58
		c1.94-0.04,3.41,1.44,3.44,3.48C255.47,385.08,254.05,386.61,252.22,386.67z M344.76,386.47c-2.16,0.49-3.53-0.62-3.47-2.83
		c0.07-2.16,1.55-3.85,3.51-4c1.66-0.12,2.84,0.97,2.86,2.63C347.69,384.25,346.41,386.09,344.76,386.47z M393.38,380.07
		c-0.71-0.06-1.43-0.01-2.14-0.01c-0.56,0-1.11,0-1.67,0c-1.41,0-1.49-0.14-0.88-1.45c0.67-1.44,2.02-2.23,3.43-1.99
		c1.15,0.19,1.97,1.11,2.15,2.37C394.36,379.67,394.27,380.14,393.38,380.07z M419.47,386.06c-1.8-0.09-2.73-1.18-2.65-3.09
		c0.09-2.1,2.02-3.99,3.94-3.87c1.49,0.09,2.56,1.34,2.52,2.94C423.23,384.41,421.56,386.16,419.47,386.06z"/>
	<path class="st1" d="M199.28,361.63c-1.36-0.58-2.59-0.49-3.69-1.07c0.64-0.79,1.22-1.5,2.01-2.48c-1.19,0.31-2.05,0.5-2.88,0.75
		c-0.63,0.19-0.9,0.17-0.7-0.61c0.22-0.86,0.32-1.75,0.51-2.82c-0.94,0.59-1.71,1.08-2.57,1.62c-0.38-1.45-0.75-2.83-1.12-4.21
		c-0.5,1.37-0.81,2.71-1.02,4.07c-0.12,0.8-0.37,0.69-0.89,0.33c-0.78-0.55-1.43-1.31-2.46-1.67c0.26,0.81,0.43,1.49,0.71,2.13
		c0.39,0.9-0.05,0.92-0.73,0.78c-0.53-0.11-1.06-0.31-1.76-0.17c0.75,0.84,1.46,1.62,2.26,2.53c-1.42,0.3-2.67,0.57-4.2,0.89
		c1.57,0.36,2.83,0.64,4.22,0.96c-0.55,0.67-1.01,1.23-1.54,1.87c0.92,0,1.69,0,2.52,0c-0.37,1.12-0.71,2.16-1.05,3.2
		c0.11,0.09,0.22,0.18,0.33,0.27c0.78-0.94,1.55-1.87,2.51-3.03c0.32,1.75,0.56,3.13,0.81,4.5c0.06,0.01,0.11,0.01,0.17,0.02
		c0.3-1.4,0.6-2.79,0.9-4.23c0.79,0.69,1.47,1.28,2.24,1.95c-0.04-0.65-0.02-1.27-0.12-1.88c-0.13-0.8,0.25-0.78,0.8-0.57
		c0.71,0.26,1.42,0.53,2.47,0.93c-0.88-1.18-1.56-2.09-2.32-3.11C196.24,362.27,197.63,361.98,199.28,361.63z M190.94,363.23
		c-1.06,0.02-1.99-0.9-2.01-1.97c-0.01-1.05,0.92-2.01,1.97-2.02c1.04-0.01,1.99,0.92,2,1.98C192.9,362.28,192,363.21,190.94,363.23
		z"/>
	<path class="st3" d="M234.45,420.67c-0.56,0-0.82,0.15-0.75,0.74c0.04,0.35,0.01,0.71,0.01,1.26c-2.88-2.87-6.43-3.02-8.85-0.45
		c-2.03,2.17-2.38,4.8-1.7,7.58c0.77,3.15,3.25,4.83,6.5,4.54c1.54-0.14,2.73-0.92,3.74-2.15c0.78,4.77-1.49,7.41-5.82,6.9
		c-0.75-0.09-1.47-0.32-2.17-0.63c-0.38-0.17-0.77-0.66-1.12,0.14c-0.3,0.7,0.13,0.82,0.56,1.03c5.09,2.47,9.93-0.42,10.07-6.02
		c0.06-2.55,0.07-5.09,0.1-7.64c0.02-1.51,0.04-3.02,0.07-4.54C235.07,420.98,235.04,420.67,234.45,420.67z M233.45,429.39
		c-0.25,1.82-1.7,3.36-3.42,3.71c-1.96,0.4-3.87-0.36-4.82-2.07c-1.36-2.45-1.3-4.97,0.12-7.37c1.05-1.77,3.16-2.51,5.09-1.94
		c1.8,0.53,3.04,2.22,3.1,4.22c0.01,0.48,0,0.95,0,1.43c0.01,0,0.02,0,0.03,0C233.53,428.05,233.55,428.73,233.45,429.39z"/>
	<path class="st3" d="M337.05,420.94c-1.97-1.03-4.8-0.63-6.47,0.95c-1.82,1.72-2.34,3.94-2.22,6.32c0.33,6.43,5.78,7.39,10.2,5.88
		c0.46-0.16,0.45-0.44,0.36-0.84c-0.12-0.52-0.4-0.48-0.79-0.33c-0.37,0.14-0.75,0.27-1.14,0.36c-4.06,0.9-7.06-1.15-7.22-4.9
		c-0.03-0.71,0.12-1.01,0.9-0.97c1.35,0.06,2.71,0.02,4.07,0.02c1.44,0,2.87,0,4.31,0c0.39,0,0.76,0.08,0.85-0.54
		C340.21,424.8,338.83,421.87,337.05,420.94z M337.61,426.29c-1.2,0.01-2.39,0-3.59,0c-1.16,0-2.31,0-3.47,0
		c-0.36,0-0.71,0.06-0.67-0.54c0.12-1.58,1.6-3.62,3.18-3.99c3.13-0.75,4.97,0.86,5.32,3.96C338.46,426.36,338,426.29,337.61,426.29
		z"/>
	<path class="st3" d="M244.98,420.4c-2.88-0.04-5.02,1.51-5.88,4.46c-0.87,2.98-0.78,5.92,1.62,8.21c2.29,2.17,5.1,1.85,7.89,1.09
		c0.55-0.15,0.83-0.37,0.61-1c-0.23-0.66-0.63-0.29-0.95-0.17c-0.91,0.36-1.87,0.42-2.82,0.46c-3.09,0.11-5.29-2.04-5.36-5.16
		c-0.02-0.66,0.15-0.92,0.86-0.89c1.39,0.05,2.79,0.01,4.19,0.01c1.44,0,2.87,0,4.31,0c0.36,0,0.67,0.03,0.77-0.5
		C250.84,423.76,248.19,420.45,244.98,420.4z M248.04,426.29c-1.19,0-2.39,0-3.58,0c-1.19,0-2.39,0-3.58,0
		c-0.36,0-0.71,0.05-0.66-0.54c0.12-1.64,1.68-3.7,3.3-4.03c3.19-0.66,4.86,1.05,5.2,4C248.77,426.27,248.42,426.29,248.04,426.29z"
		/>
	<path class="st1" d="M409.8,420.78c-2.38-1-5.31-0.19-6.85,1.91c-1.55,2.1-1.79,4.51-1.31,6.95c0.86,4.34,6.1,6.59,10.06,4.43
		c0.44-0.24,0.43-0.5,0.32-0.87c-0.14-0.49-0.45-0.43-0.82-0.28c-0.37,0.15-0.75,0.27-1.13,0.36c-4.07,0.88-6.82-1-7.18-4.82
		c-0.09-0.92,0.23-1.08,1.03-1.05c1.32,0.05,2.63,0.01,3.95,0.01c1.44,0,2.87,0,4.31,0c0.39,0,0.75,0.06,0.82-0.56
		C413.3,424.51,411.81,421.63,409.8,420.78z M410.74,426.32c-1.2-0.02-2.39-0.01-3.59-0.01c-1.12,0-2.23-0.04-3.35,0.01
		c-0.84,0.04-0.9-0.26-0.7-0.98c0.66-2.42,2.21-3.77,4.43-3.75c2.26,0.01,3.97,1.8,3.95,4.07
		C411.47,426.23,411.21,426.33,410.74,426.32z"/>
	<path class="st1" d="M432.55,420.91c-2.07-1.03-4.86-0.56-6.56,1.09c-2.33,2.28-2.79,7.21-0.94,10.01c2.05,3.11,5.91,3.06,8.97,2.1
		c0.56-0.18,0.66-0.44,0.45-0.97c-0.26-0.65-0.64-0.24-0.96-0.14c-4.54,1.44-7.64-0.32-8.18-4.63c-0.09-0.74,0.07-1,0.85-0.98
		c1.4,0.05,2.8,0.01,4.19,0.01c1.44,0,2.88-0.01,4.31,0c0.44,0,0.72-0.03,0.78-0.61C435.71,424.53,434.39,421.83,432.55,420.91z
		 M433.16,426.32c-1.2-0.04-2.4-0.01-3.59-0.01c-1.12,0-2.24,0-3.36,0c-0.42,0-0.84,0.01-0.71-0.62c0.37-1.79,1.69-4.12,4.28-4.11
		c2.35,0.01,4.01,1.54,4.13,3.88C433.96,426.07,433.83,426.35,433.16,426.32z"/>
	<path class="st1" d="M289.82,420.86c-2.23-1.04-5.19-0.39-6.76,1.5c-1.69,2.02-1.96,4.41-1.65,6.88c0.57,4.54,6.28,7.19,10.21,4.82
		c0.45-0.27,0.34-0.56,0.24-0.9c-0.13-0.43-0.4-0.38-0.74-0.25c-0.37,0.15-0.75,0.27-1.14,0.36c-4.1,0.92-6.93-1.02-7.24-4.87
		c-0.07-0.87,0.23-1.01,0.98-0.99c1.36,0.04,2.71,0.01,4.07,0.01c1.44,0,2.87,0,4.31,0c0.36,0,0.67,0.03,0.76-0.5
		C293.23,424.8,291.72,421.75,289.82,420.86z M290.51,426.32c-1.15-0.04-2.31-0.01-3.47-0.01c-1.2,0-2.39,0-3.59,0
		c-0.31,0-0.62,0.05-0.62-0.46c-0.01-1.79,1.98-4.03,3.8-4.23c2.63-0.29,4.34,1.13,4.66,3.78
		C291.38,426.08,291.23,426.35,290.51,426.32z"/>
	<path class="st1" d="M198.5,420.91c-2.08-1.02-4.86-0.56-6.55,1.1c-2.33,2.28-2.78,7.21-0.93,10.01c2.06,3.12,5.96,3.05,8.97,2.09
		c0.57-0.18,0.65-0.45,0.44-0.97c-0.27-0.65-0.64-0.23-0.96-0.13c-4.58,1.45-7.8-0.43-8.19-4.76c-0.06-0.63,0.09-0.86,0.75-0.85
		c1.44,0.03,2.88,0.01,4.31,0.01c1.44,0,2.88-0.01,4.31,0c0.45,0,0.72-0.05,0.77-0.62C201.66,424.51,200.35,421.82,198.5,420.91z
		 M199.15,426.32c-1.2-0.03-2.4-0.01-3.59-0.01c-1.16,0-2.32-0.02-3.48,0.01c-0.54,0.01-0.68-0.19-0.61-0.72
		c0.3-2.3,2.22-4.02,4.49-4c2.23,0.02,3.9,1.72,3.93,3.96C199.9,426.13,199.72,426.34,199.15,426.32z"/>
	<path class="st9" d="M471.04,370.55c-1.29,0.34-2.16,1.48-2.15,2.81c0.01,1.37,0.97,2.53,2.31,2.8c1.35,0.27,2.5-0.4,3.22-1.86
		c0.01-0.58,0.03-1.17,0.04-1.75C473.87,370.94,472.52,370.15,471.04,370.55z M471.76,375.66c-1.24,0-2.38-1.18-2.33-2.41
		c0.04-1.21,1.17-2.27,2.37-2.25c1.23,0.02,2.25,1.1,2.24,2.35C474.02,374.6,472.98,375.66,471.76,375.66z"/>
	<path class="st10" d="M472.97,372.43c0.18-0.45-0.39-0.74-0.85-0.76c-0.48-0.01-1.26-0.35-1.37,0.24
		c-0.19,0.99-0.05,2.04-0.05,3.16c0.91-0.38,0.06-1.39,0.9-1.51c1.06-0.15,0.64,1.07,1.34,1.59
		C473.12,374.11,472.63,373.3,472.97,372.43z M471.78,373.07c-0.29,0-0.56,0-0.58-0.4c-0.02-0.4,0.13-0.58,0.54-0.55
		c0.33,0.02,0.68,0.06,0.69,0.46C472.45,372.98,472.11,373.05,471.78,373.07z"/>
</g>
</svg>
