<?xml version="1.0" encoding="utf-8"?>
<!-- Generator: Adobe Illustrator 24.0.1, SVG Export Plug-In . SVG Version: 6.00 Build 0)  -->
<svg version="1.1" id="Camada_1" xmlns="http://www.w3.org/2000/svg" xmlns:xlink="http://www.w3.org/1999/xlink" x="0px" y="0px"
	 viewBox="0 0 342 90" style="enable-background:new 0 0 342 90;" xml:space="preserve">
<style type="text/css">
	.st0{fill:#FEFEFE;}
	.st1{fill:#FEFEFE;}
	.st2{fill:#FEFEFE;}
	.st3{fill:#FEFEFE;}
	.st4{fill:#FEFEFE;}
	.st5{fill:#FEFEFE;}
	.st6{fill:#FEFEFE;}
	.st7{fill:#FEFEFE;}
</style>
<g transform="translate(-135 -350)">
	<path class="st1" d="M172.7,395.34c-0.51-1.88-0.47-3.82-0.66-5.74c-0.43-4.39-0.81-8.79-1.28-13.2c-1.18,4.56-2.83,8.97-4.23,13.45
		c-0.51,1.63-1.07,3.24-1.55,4.88c-0.17,0.56-0.43,0.74-1.01,0.73c-2-0.03-3.99-0.02-5.99-0.01c-0.48,0-0.82-0.04-0.97-0.6
		c-1.6-5.74-3.77-11.31-5-17.16c-0.1-0.46-0.14-0.93-0.21-1.39c-0.46-0.03-0.34,0.29-0.36,0.49c-0.57,5.9-1.15,11.8-1.67,17.71
		c-0.07,0.82-0.37,0.96-1.09,0.95c-3.52-0.03-7.03-0.04-10.55,0.01c-0.8,0.01-0.9-0.2-0.78-0.95c1.83-11.11,3.63-22.22,5.41-33.34
		c0.11-0.66,0.35-0.84,0.99-0.83c3.87,0.03,7.75,0.04,11.62-0.01c0.88-0.01,0.91,0.51,1.06,1.09c1.45,5.54,2.9,11.07,4.36,16.61
		c0.06,0.23,0.15,0.44,0.27,0.78c0.47-0.75,0.37-1.51,0.52-2.2c1.16-5.28,2.93-10.4,4.32-15.62c0.18-0.67,0.57-0.63,1.06-0.62
		c3.72,0,7.43,0.03,11.15-0.02c0.85-0.01,1.16,0.21,1.29,1.05c0.71,4.56,1.47,9.11,2.22,13.67c0.98,6.01,1.96,12.01,2.98,18.02
		c0.06,0.34-0.09,0.81,0.37,1.03c0.44,0.75,0.21,1.31-0.63,1.31C180.46,395.41,176.58,395.56,172.7,395.34z"/>
	<path class="st1" d="M172.7,395.34c3.68-0.01,7.37-0.03,11.05,0c0.93,0.01,1.35-0.3,1.22-1.24c0-7.41,0.03-14.82-0.02-22.23
		c-0.01-1.02,0.27-1.23,1.24-1.21c3.19,0.07,6.39,0.06,9.59,0c0.95-0.02,1.3,0.15,1.26,1.2c-0.1,2.21-0.03,4.43-0.03,6.98
		c0.73-1.49,1.25-2.71,2.08-3.78c2.46-3.15,5.68-4.77,9.67-4.9c2.5-0.08,4.93,0.29,7.32,0.97c0.53,0.15,0.81,0.3,0.81,0.93
		c-0.03,3.06-0.01,6.13-0.01,9.35c-1-0.67-1.86-1.37-2.9-1.74c-2.59-0.91-5.1,0.49-5.28,2.96c-0.2,2.71,2.1,4.46,4.86,3.73
		c1.17-0.31,2.14-1.01,3.31-1.73c-0.13,2.55-0.25,4.95-0.37,7.35c-0.01,0.16-0.04,0.32-0.05,0.48c-0.14,2.56-0.13,2.58-2.7,3.11
		c-4.84,0.99-9.36,0.4-13.32-2.8c-1.55-1.26-2.52-2.94-3.41-4.76c0,2.19-0.02,4.38,0.01,6.57c0.01,0.66-0.16,0.89-0.86,0.89
		c-7.67-0.02-15.34-0.01-23.01-0.02C173.01,395.44,172.86,395.38,172.7,395.34z"/>
	<path class="st1" d="M378.84,432.42c1.12-3.6,2.24-7.11,3.3-10.64c0.28-0.92,0.67-1.42,1.8-0.97c-0.5,1.5-1.03,3.05-1.54,4.6
		c-0.9,2.71-1.81,5.42-2.7,8.13c-0.16,0.48-0.28,0.83-0.93,0.83c-0.69,0.01-0.77-0.42-0.92-0.86c-1.21-3.61-2.42-7.22-3.71-11.07
		c-0.28,0.9-0.47,1.62-0.73,2.33c-1.05,2.96-2.12,5.91-3.18,8.86c-0.16,0.44-0.31,0.76-0.9,0.74c-0.47-0.02-0.71-0.15-0.85-0.6
		c-1.31-4.33-2.65-8.65-3.97-12.98c1.05-0.36,1.51-0.04,1.79,1.01c0.96,3.52,2.03,7.01,3.11,10.64c1.3-3.71,2.55-7.27,3.79-10.83
		c0.18-0.52,0.27-1,1.07-0.97c0.77,0.03,0.76,0.54,0.91,1c1.11,3.35,2.23,6.71,3.34,10.06
		C378.62,431.93,378.72,432.14,378.84,432.42z"/>
	<path class="st0" d="M388.66,422.65c1.09-1.35,2.44-2.22,4.23-2.25c2.41-0.04,4.31,1.33,4.73,3.7c0.57,3.23,0.15,6.52,0.25,9.78
		c0.02,0.68-0.52,0.43-0.87,0.48c-0.55,0.08-0.54-0.28-0.54-0.66c0.01-2.19,0.01-4.38,0-6.57c0-0.67-0.02-1.36-0.13-2.02
		c-0.44-2.5-1.78-3.64-4.02-3.46c-2.04,0.17-3.83,2.06-3.86,4.18c-0.04,2.51,0,5.02-0.01,7.53c0,0.48,0.19,1.03-0.69,1.04
		c-0.84,0.01-0.75-0.46-0.75-0.99c0-6.1,0.01-12.19,0-18.29c0-0.57-0.02-0.98,0.79-0.96c0.8,0.02,0.66,0.49,0.66,0.96
		c0,2.23,0,4.46,0.01,6.69C388.46,422.06,388.35,422.35,388.66,422.65z"/>
	<path class="st1" d="M303.08,424.67c0-2.83,0.02-5.66-0.01-8.49c-0.01-0.71,0.09-1.05,0.95-1.03c2.59,0.07,5.19,0.03,7.79,0.02
		c0.47,0,0.83-0.03,0.81,0.65c-0.02,0.66-0.41,0.55-0.79,0.55c-2.16,0-4.31,0.03-6.47-0.02c-0.73-0.02-0.96,0.17-0.93,0.92
		c0.06,1.75,0.07,3.51,0,5.26c-0.03,0.87,0.17,1.19,1.11,1.15c1.87-0.08,3.75-0.04,5.63-0.01c0.41,0.01,1.02-0.28,1.04,0.56
		c0.02,0.92-0.65,0.62-1.1,0.63c-1.92,0.02-3.84,0.04-5.75-0.01c-0.75-0.02-0.94,0.23-0.93,0.95c0.04,2.15,0.05,4.3,0,6.45
		c-0.02,0.77,0.25,0.92,0.96,0.91c2.28-0.04,4.55-0.02,6.83-0.01c0.43,0,0.87-0.12,0.88,0.6c0.01,0.74-0.46,0.59-0.87,0.59
		c-2.68,0-5.35-0.03-8.03,0.02c-0.88,0.02-1.16-0.18-1.14-1.1C303.12,430.41,303.08,427.54,303.08,424.67z"/>
	<path class="st1" d="M255.25,422.99c1.1-1.65,2.46-2.45,4.18-2.57c2.73-0.19,4.79,1.37,5.13,4.08c0.39,3.09,0.08,6.21,0.16,9.32
		c0.02,0.65-0.43,0.52-0.81,0.55c-0.53,0.05-0.56-0.26-0.56-0.66c0.01-2.27,0.01-4.55,0-6.82c0-0.52-0.02-1.04-0.1-1.55
		c-0.38-2.61-1.68-3.82-3.95-3.7c-2.15,0.11-3.96,2.01-4.01,4.31c-0.05,2.47-0.01,4.94-0.02,7.42c0,0.47,0.22,1.03-0.68,1.03
		c-0.82,0-0.76-0.44-0.76-0.98c0-3.99-0.02-7.97-0.03-11.96c0-0.37-0.14-0.8,0.54-0.78c0.52,0.02,0.83,0.09,0.79,0.71
		C255.11,421.81,255.19,422.25,255.25,422.99z"/>
	<path class="st2" d="M363.12,420.79c-2.14,5.04-3.92,10.22-6.28,15.16c-0.89,1.86-2.13,3.46-4.06,4.39
		c-0.31,0.15-0.66,0.56-0.97-0.05c-0.26-0.5-0.3-0.85,0.34-1.11c0.98-0.4,1.73-1.13,2.4-1.93c1.44-1.7,2.12-3.35,0.99-5.68
		c-1.69-3.49-2.95-7.18-4.4-10.79c1.09-0.35,1.59,0,1.98,1.04c1.3,3.49,2.73,6.93,4.13,10.43c1.32-3.49,2.68-6.94,3.9-10.43
		C361.53,420.77,362.03,420.44,363.12,420.79z"/>
	<path class="st2" d="M167.97,422.76c0.37-0.39,0.68-0.8,1.07-1.12c1.58-1.29,3.37-1.6,5.28-0.93c1.86,0.66,2.82,2.18,2.92,4.02
		c0.17,3.02,0.07,6.05,0.11,9.08c0.01,0.53-0.27,0.54-0.67,0.56c-0.5,0.02-0.72-0.12-0.71-0.66c0.02-2.19,0.02-4.38,0-6.57
		c0-0.64-0.03-1.27-0.1-1.91c-0.2-1.88-1.2-3.17-2.72-3.53c-1.71-0.4-3.57,0.41-4.52,1.97c-0.47,0.76-0.7,1.58-0.69,2.49
		c0.02,2.47-0.01,4.94,0.02,7.41c0.01,0.6-0.14,0.82-0.78,0.82c-0.65,0-0.68-0.29-0.68-0.79c0-4.06-0.02-8.13-0.04-12.19
		c0-0.43-0.01-0.73,0.6-0.74c0.63-0.01,0.73,0.26,0.69,0.78C167.73,421.87,167.76,422.31,167.97,422.76z"/>
	<path class="st2" d="M275.51,420.36c0.97,0.03,1.91,0.18,2.81,0.54c0.43,0.17,0.8,0.26,0.51,0.91c-0.26,0.58-0.51,0.5-0.99,0.33
		c-3.04-1.12-5.74-0.37-7.18,1.95c-2.1,3.39-0.65,8.1,2.86,9.14c1.46,0.43,2.91,0.28,4.33-0.27c0.34-0.13,0.71-0.39,0.92,0.26
		c0.16,0.49,0.09,0.71-0.39,0.86c-2.66,0.87-5.3,1.09-7.62-0.76c-2.46-1.97-2.83-4.73-2.21-7.6c0.59-2.77,2.4-4.52,5.19-5.16
		C274.31,420.42,274.92,420.42,275.51,420.36z"/>
	<path class="st2" d="M320.67,432.69c0.39-0.99,0.72-1.82,1.04-2.66c1.06-2.74,2.15-5.47,3.14-8.23c0.35-0.97,0.83-1.35,1.93-1.02
		c-0.99,2.46-1.98,4.91-2.98,7.36c-0.76,1.88-1.56,3.74-2.29,5.63c-0.18,0.45-0.4,0.61-0.87,0.6c-0.45,0-0.72-0.1-0.9-0.57
		c-1.68-4.33-3.38-8.64-5.09-13c1.09-0.37,1.59-0.01,1.95,1.01C317.88,425.4,319.26,428.94,320.67,432.69z"/>
	<path class="st2" d="M182.58,426.82c0-1.27-0.05-2.55,0.02-3.82c0.05-0.88-0.14-1.35-1.13-1.17c-0.23,0.04-0.48,0-0.72,0
		c-0.49,0-0.43-0.36-0.45-0.67c-0.03-0.36,0.15-0.45,0.49-0.49c0.59-0.07,1.41,0.36,1.73-0.26c0.26-0.51,0.05-1.25,0.06-1.88
		c0.02-0.66-0.27-1.46,0.82-1.63c0.47-0.08,0.65-0.02,0.63,0.49c-0.03,0.83,0.02,1.67-0.02,2.51c-0.03,0.59,0.11,0.87,0.77,0.81
		c0.75-0.06,1.52-0.02,2.27-0.01c0.4,0.01,0.89-0.17,0.86,0.59c-0.03,0.74-0.52,0.55-0.92,0.56c-0.95,0.03-2.23-0.32-2.77,0.16
		c-0.64,0.57-0.18,1.87-0.2,2.85c-0.03,1.99-0.04,3.98,0,5.97c0.04,2.15,0.75,2.76,2.88,2.57c0.34-0.03,0.7-0.2,0.77,0.39
		c0.07,0.52-0.1,0.68-0.6,0.79c-2.6,0.57-4.24-0.55-4.44-3.21c-0.11-1.5-0.02-3.02-0.02-4.54
		C182.61,426.82,182.6,426.82,182.58,426.82z"/>
	<path class="st0" d="M212.84,424.27c0,3.03,0.01,6.06-0.01,9.08c0,0.46,0.24,1.04-0.67,1.04c-0.81,0-0.77-0.41-0.77-0.97
		c0.01-6.1,0.01-12.19,0-18.29c0-0.55-0.04-0.97,0.77-0.98c0.91,0,0.67,0.57,0.68,1.03C212.85,418.21,212.84,421.24,212.84,424.27z"
		/>
	<path class="st0" d="M205.12,424.15c0-2.98-0.01-5.97,0.01-8.95c0-0.44-0.28-1.04,0.65-1.04c0.84,0,0.75,0.46,0.75,0.99
		c-0.01,6.09-0.01,12.17,0,18.26c0,0.54,0.06,0.99-0.76,0.98c-0.81,0-0.65-0.49-0.65-0.93
		C205.12,430.35,205.12,427.25,205.12,424.15z"/>
	<path class="st0" d="M161.24,424.78c0,2.91,0,5.82,0,8.72c0,0.49,0.08,0.91-0.7,0.89c-0.74-0.02-0.71-0.4-0.71-0.91
		c0.01-5.82,0.01-11.63,0-17.45c0-0.54,0.01-0.87,0.73-0.88c0.78-0.01,0.68,0.43,0.68,0.9
		C161.24,418.96,161.24,421.87,161.24,424.78z"/>
	<path class="st0" d="M344.97,422.92c0.65-0.98,1.29-1.87,2.38-2.27c0.5-0.19,1-0.25,1.52-0.24c0.45,0.01,0.51,0.28,0.49,0.64
		c-0.02,0.34,0.07,0.65-0.49,0.75c-2.41,0.4-3.39,1.35-3.74,3.74c-0.39,2.65-0.13,5.33-0.14,7.99c0,0.84-0.36,0.89-0.99,0.84
		c-0.67-0.04-0.47-0.53-0.47-0.88c-0.01-3.35-0.01-6.69-0.01-10.04c0-0.68-0.02-1.35-0.04-2.03c-0.01-0.41-0.07-0.77,0.58-0.75
		c0.57,0.01,0.78,0.18,0.76,0.75C344.81,421.87,344.7,422.35,344.97,422.92z"/>
	<path class="st1" d="M418.11,422.84c0.8-1.2,1.69-2.27,3.21-2.39c0.37-0.03,0.98-0.41,1.11,0.43c0.11,0.78-0.26,0.87-0.93,0.92
		c-1.57,0.13-2.7,1.31-3.17,3.13c-0.26,1.01-0.27,2.04-0.26,3.08c0.01,1.87-0.01,3.74,0.01,5.61c0.01,0.52-0.07,0.78-0.7,0.77
		c-0.59-0.01-0.72-0.23-0.73-0.77c0-4.09-0.03-8.19-0.07-12.28c0-0.42,0.03-0.68,0.56-0.65c0.43,0.02,0.78-0.01,0.74,0.6
		C417.85,421.77,417.74,422.3,418.11,422.84z"/>
	<path class="st3" d="M217.79,427.62c0-2.03,0-4.07,0-6.1c0-0.41-0.14-0.87,0.6-0.86c0.66,0,0.79,0.24,0.78,0.83
		c-0.02,4.03-0.02,8.05-0.01,12.08c0,0.5-0.05,0.81-0.69,0.82c-0.63,0-0.7-0.27-0.7-0.79C217.8,431.61,217.79,429.61,217.79,427.62z
		"/>
	<path class="st4" d="M219.56,416.74c0,0.9-0.45,1.31-1.19,1.28c-0.7-0.03-1.05-0.52-1.01-1.22c0.04-0.75,0.43-1.2,1.2-1.17
		C219.31,415.67,219.57,416.17,219.56,416.74z"/>
	<path class="st1" d="M468.31,370.25c-3.87,0-7.75,0.01-11.62-0.01c-0.62,0-0.92,0.2-1.15,0.77c-1.66,4.08-3.8,7.97-5,12.24
		c-0.04,0.13-0.06,0.33-0.33,0.29c-0.03-0.21-0.07-0.44-0.08-0.66c-0.04-3.84-0.75-7.6-1.17-11.4c-0.06-0.51,0.16-1.24-0.85-1.23
		c-7.55,0.03-15.11,0.02-22.66,0c-0.61,0-0.71,0.24-0.73,0.77c-0.03,0.92-0.16,1.83-0.28,3.07c-1.6-3.15-3.92-4.48-7.12-4.37
		c-3.23,0.12-5.8,1.56-7.98,3.82c-1.7,1.77-2.86,3.88-3.84,6.42c-0.74-4.39-3.1-7.16-6.92-8.7c-6.35-2.56-14.17-0.77-18.82,4.25
		c-0.21,0.23-0.34,0.61-0.83,0.6c0.13-0.87,0.22-1.7,0.37-2.52c0.48-2.73,0.48-2.81-2.24-2.6c-1.27,0.1-1.33-0.37-1.15-1.37
		c0.4-2.25,0.74-4.5,1.1-6.75c-0.2-0.05-0.28-0.09-0.36-0.09c-3.6-0.01-7.19,0.04-10.79-0.05c-0.96-0.02-1.12,0.4-1.23,1.13
		c-0.31,2.09-0.7,4.16-0.96,6.25c-0.09,0.76-0.37,0.93-1.06,0.84c-0.91-0.11-1.82-0.2-2.73-0.21c-3.16-0.03-6.31,0.02-9.47-0.03
		c-0.86-0.01-1.35,0.1-1.22,1.13c0.07,0.55-0.08,1.13-0.15,1.8c-3.08-3.54-6.71-4.42-10.92-2.66c-3.12,1.3-5.25,3.68-6.87,6.57
		c-0.19,0.34-0.24,0.82-0.81,1.07c0.4-2.56,0.73-5,1.18-7.42c0.14-0.74-0.03-0.88-0.72-0.88c-3.02,0-5.65,0.86-7.67,3.22
		c-0.16,0.18-0.25,0.5-0.69,0.43c0.18-0.74,0.33-1.48,0.54-2.2c0.19-0.65,0.06-0.88-0.69-0.86c-4.71,0.09-9.43-0.14-14.14,0.15
		c-0.98,0.06-1.12-0.27-0.97-1.14c0.42-2.34,0.76-4.69,1.15-7.13c-3.91,0-7.74,0.02-11.58-0.02c-0.68-0.01-0.68,0.4-0.74,0.81
		c-0.3,1.85-0.58,3.69-0.86,5.54c-0.29,1.91-0.29,1.95-2.19,1.82c-0.75-0.05-1.11,0.03-1.22,0.92c-0.24,2.06-0.64,4.09-1.02,6.36
		c-1.7-2.67-4.14-3.75-6.83-4.43c-1.32-0.33-2.64-0.62-3.95-0.95c-0.62-0.16-1.27-0.36-1.33-1.16c-0.07-0.83,0.42-1.36,1.1-1.69
		c0.8-0.39,1.65-0.5,2.56-0.42c2.39,0.2,4.41,1.24,6.35,2.65c1.51-2.79,2.95-5.53,4.48-8.23c0.4-0.71,0.23-0.97-0.39-1.34
		c-4.23-2.48-8.79-3.11-13.52-2.2c-5.55,1.06-10.06,3.75-12.61,9.04c-1.04,2.16-1.59,4.46-1.05,6.84c0.75,3.36,3.26,4.96,6.35,5.8
		c1.61,0.44,3.28,0.65,4.92,1.02c0.61,0.14,1.27,0.36,1.39,1.13c0.13,0.84-0.23,1.49-0.94,1.91c-1.06,0.64-2.23,0.82-3.46,0.67
		c-2.69-0.32-4.87-1.63-6.84-3.4c-0.45-0.4-0.46-0.86-0.5-1.39c-0.21-2.92-1.25-5.49-3.32-7.6c-5.66-5.74-17.29-5.85-23.08-0.24
		c-0.38,0.37-0.73,0.77-1.23,1.31c0-1.7,0-3.17,0-4.64c0-0.35,0.09-0.73-0.48-0.75c-2.64-0.1-5.11,0.28-6.95,2.43
		c-0.35,0.41-0.68,0.83-1.24,1.52c0.07-1.15,0.05-1.91,0.18-2.65c0.13-0.7-0.14-0.79-0.74-0.79c-3.48,0.02-6.95,0.03-10.43,0
		c-0.65-0.01-0.89,0.14-0.89,0.84c0.03,7.69,0.03,15.39,0,23.08c0,0.71,0.25,0.86,0.89,0.86c3.44-0.02,6.87-0.04,10.31,0.01
		c0.81,0.01,0.99-0.26,0.98-1.02c-0.04-3.03-0.05-6.06-0.01-9.09c0.04-2.73,2.05-4.5,4.78-4.35c0.91,0.05,1.37,0.25,1.28,1.4
		c-0.35,4.94,1.59,8.85,5.94,11.26c5.87,3.25,11.89,3.18,17.85,0.15c0.76-0.38,1.26-0.43,2.04-0.08c5.94,2.65,12.06,3.53,18.41,1.6
		c6.03-1.84,11.43-7.13,10.73-14.51c-0.04-0.37,0.08-0.46,0.42-0.54c1.34-0.3,1.54-0.11,1.32,1.23c-0.7,4.28-1.36,8.57-2.07,12.85
		c-0.15,0.89-0.03,1.22,1,1.19c3.24-0.07,6.47-0.07,9.71,0c1.04,0.02,1.42-0.24,1.56-1.32c0.51-3.78,1.14-7.56,1.77-11.32
		c0.48-2.86,0.51-2.82,3.41-2.58c0.75,0.06,1,0.16,0.85,1.03c-0.76,4.43-1.42,8.88-2.15,13.31c-0.12,0.75-0.04,1.05,0.84,1.03
		c3.36-0.05,6.71-0.06,10.07,0c0.89,0.02,1.14-0.29,1.25-1.11c0.43-2.99,0.86-5.99,1.45-8.96c0.66-3.39,3.9-5.25,6.93-4.11
		c1.04,0.39,1.66,0.87,1.39,2.27c-0.51,2.59-0.06,5.16,1.08,7.56c2.14,4.53,7.58,6.06,12.15,3.49c1.28-0.72,2.36-1.72,3.67-2.73
		c-0.26,0.96-0.44,1.73-0.69,2.47c-0.25,0.73-0.08,0.96,0.73,0.95c3.2-0.04,6.4-0.09,9.59,0.02c1.18,0.04,1.44-0.41,1.59-1.42
		c0.64-4.33,1.33-8.65,2.02-12.98c0.13-0.8,1.18-1.32,2.21-1c0.77,0.24,0.29,0.88,0.22,1.3c-0.66,4.37-1.36,8.73-2.07,13.09
		c-0.11,0.64-0.04,0.92,0.72,0.91c3.52-0.04,7.03-0.04,10.55,0c0.72,0.01,0.86-0.33,0.94-0.91c0.63-4.05,1.28-8.1,1.92-12.15
		c0.38-2.4,0.37-2.4,2.85-2.1c-0.18,0.61-0.37,1.21-0.52,1.82c-1.68,6.59,1.19,11.57,7.8,13.26c5.13,1.32,10.06,0.61,14.67-2.01
		c2.23-1.26,4.01-3,5.22-5.29c0.32-0.62,0.35-0.89-0.5-0.88c-3.4,0.03-6.79,0.02-10.19,0.01c-0.44,0-0.7,0.11-0.96,0.51
		c-0.93,1.42-2.17,1.88-3.44,1.4c-1.04-0.4-1.36-1.29-1.29-3.03c0.03-0.85,0.33-1.04,1.14-1.04c4.56,0.04,9.11,0.02,13.67,0.02
		c2.22,0,2.17,0.01,2.54,2.24c0.57,3.43,2.02,6.39,5.48,7.69c3.49,1.31,6.75,0.49,9.63-1.82c0.53-0.43,0.98-0.96,1.47-1.45
		c-0.15,1.23-0.38,2.4-0.82,3.48c-1.11,2.72-3.46,4.28-6.24,4.17c-2.65-0.11-5.11-0.83-7.22-2.5c-0.44-0.35-0.67-0.57-1,0.15
		c-1.07,2.35-2.2,4.67-3.35,6.99c-0.3,0.61-0.12,0.79,0.44,1.02c5.62,2.23,11.39,2.78,17.25,1.27c6.37-1.64,10.83-5.41,12.1-12.1
		c1.06-5.59,1.81-11.24,2.71-16.86c0.27-1.69,0.55-3.37,0.83-5.05c2.28,6.45,4.3,12.89,6.37,19.31c0.22,0.69,0.12,1.17-0.27,1.75
		c-1.75,2.57-3.45,5.17-5.17,7.76c-0.86,1.31-1.72,2.62-2.66,4.06c4.22,0,8.21-0.02,12.21,0.02c0.64,0.01,0.8-0.41,1.04-0.81
		c6.78-11.06,13.57-22.12,20.34-33.18C468.2,370.93,468.58,370.69,468.31,370.25z M252.1,386.67c-1.84-0.02-3.3-1.5-3.33-3.36
		c-0.02-2.01,1.45-3.58,3.36-3.58c1.91,0.01,3.36,1.58,3.32,3.6C255.4,385.21,253.92,386.69,252.1,386.67z M344.67,386.49
		c-2.12,0.44-3.43-0.66-3.37-2.82c0.06-2.17,1.53-3.87,3.49-4.02c1.18-0.09,2.13,0.34,2.65,1.44
		C348.35,383.03,346.79,386.05,344.67,386.49z M393.58,380.05c-0.8,0-1.59,0-2.39,0c-0.76,0-1.51,0-2.27,0
		c-0.33,0-0.61,0.04-0.58-0.48c0.12-1.82,2.29-3.4,4.05-2.92c1.15,0.31,2.01,1.67,1.9,2.85
		C394.25,380.04,393.96,380.06,393.58,380.05z M419.64,386.1c-1.8-0.01-2.84-1.11-2.81-2.96c0.04-2.18,1.91-4.12,3.9-4.04
		c1.5,0.06,2.59,1.29,2.57,2.9C423.27,384.27,421.63,386.11,419.64,386.1z"/>
	<path class="st1" d="M199.35,361.62c-1.45-0.53-2.66-0.5-3.78-1.04c0.47-0.57,0.89-1.05,1.27-1.56c0.12-0.16,0.44-0.27,0.21-0.57
		c-0.19-0.26-0.41-0.1-0.64-0.06c-0.83,0.13-1.61,0.6-2.51,0.51c0.21-1.16,0.4-2.23,0.63-3.51c-0.95,0.61-1.73,1.1-2.58,1.65
		c-0.39-1.5-0.75-2.88-1.11-4.25c-0.46,1.24-0.69,2.44-0.93,3.64c-0.26,1.31-0.26,1.3-1.33,0.51c-0.66-0.48-1.21-1.17-2.18-1.4
		c0.51,1.05,0.78,1.97,0.97,2.94c-0.93,0.13-1.71-0.41-2.66-0.18c0.77,0.85,1.49,1.65,2.26,2.51c-1.42,0.3-2.68,0.57-4.2,0.89
		c1.56,0.36,2.84,0.65,4.25,0.97c-0.58,0.68-1.05,1.22-1.61,1.86c0.98,0,1.74,0,2.57,0c-0.37,1.13-0.71,2.17-1.06,3.22
		c0.07,0.06,0.15,0.12,0.22,0.18c0.79-0.93,1.59-1.85,2.61-3.05c0.33,1.81,0.58,3.2,0.83,4.6c0.06,0,0.12,0,0.18-0.01
		c0.3-1.4,0.59-2.79,0.95-4.5c0.85,0.9,1.48,1.57,2.11,2.25c0.25-0.89-0.53-2.13,0.24-2.49c0.61-0.29,1.71,0.37,2.5,0.84
		c0.04,0.02,0.12-0.03,0.33-0.1c-0.72-0.96-1.42-1.89-2.17-2.9C196.26,362.26,197.65,361.97,199.35,361.62z M190.93,363.23
		c-1.06,0.01-1.99-0.91-1.99-1.98c0-1.06,0.92-2,1.97-2.01c1.05,0,1.98,0.93,1.98,1.99C192.9,362.3,191.99,363.22,190.93,363.23z"/>
	<path class="st2" d="M234.42,420.67c-0.45,0.02-0.79,0.04-0.73,0.63c0.04,0.41,0.01,0.83,0.01,1.37c-2.86-2.89-6.46-3.05-8.88-0.41
		c-2.1,2.29-2.41,5.04-1.54,7.92c0.93,3.05,3.51,4.62,6.65,4.13c1.42-0.22,2.55-0.97,3.47-2.18c0.22,1.48,0.16,2.72-0.15,3.78
		c-0.58,1.98-1.91,3.04-3.97,3.21c-1.42,0.11-2.78-0.11-4.06-0.75c-0.37-0.19-0.66-0.43-0.92,0.17c-0.23,0.52-0.14,0.75,0.35,1.02
		c4.69,2.61,10.02-0.22,10.22-5.52c0.16-4.22,0.13-8.44,0.21-12.66C235.08,420.89,234.98,420.64,234.42,420.67z M233.45,429.4
		c-0.28,1.89-1.78,3.44-3.54,3.72c-2.06,0.33-3.91-0.5-4.83-2.3c-1.12-2.19-1.09-4.46-0.04-6.66c0.99-2.08,3.14-3.03,5.28-2.48
		c1.91,0.49,3.19,2.28,3.21,4.49c0,0.36,0,0.72,0,1.07c0.01,0,0.02,0,0.03,0C233.53,427.97,233.56,428.7,233.45,429.4z"/>
	<path class="st2" d="M405.64,420.72c-4.31,1.32-5.75,8.57-2.48,12.03c2.3,2.43,5.14,2.16,8.02,1.49c0.42-0.1,1.13-0.12,0.87-0.95
		c-0.28-0.89-0.76-0.31-1.18-0.2c-4.47,1.16-7.6-0.36-7.99-4.75c-0.07-0.81,0.18-0.95,0.89-0.93c1.36,0.04,2.71,0.01,4.07,0.01
		c1.48,0,2.95,0,4.43,0c0.36,0,0.71,0.05,0.72-0.51C413.06,422.93,410.72,419.17,405.64,420.72z M410.6,426.31
		c-1.15-0.04-2.31-0.01-3.47-0.01c-1.16,0-2.31,0-3.47,0c-0.34,0-0.79,0.1-0.67-0.51c0.43-2.2,1.95-4.17,4.19-4.2
		c2.45-0.04,4.02,1.39,4.26,3.85C411.51,426.18,411.26,426.33,410.6,426.31z"/>
	<path class="st2" d="M432.85,421.07c-1.76-1.06-4.46-0.88-6.22,0.4c-3.17,2.32-3.71,8.4-0.98,11.28c2.3,2.43,5.15,2.14,8.02,1.48
		c0.4-0.09,1.14-0.08,0.85-0.95c-0.3-0.89-0.76-0.31-1.19-0.2c-4.17,1.06-7.48-0.02-8.01-4.76c-0.07-0.66,0.03-0.95,0.77-0.92
		c1.4,0.05,2.8,0.01,4.19,0.01c1.48,0,2.96,0,4.43,0c0.37,0,0.66,0.03,0.74-0.51C435.76,424.9,434.53,422.08,432.85,421.07z
		 M433.18,426.31c-1.19-0.03-2.39-0.01-3.58-0.01c-1.15,0-2.31-0.02-3.46,0.01c-0.52,0.01-0.74-0.15-0.62-0.68
		c0.51-2.27,2.09-4.12,4.43-4.04c2.28,0.07,3.96,1.73,3.99,4.01C433.94,426.2,433.72,426.33,433.18,426.31z"/>
	<path class="st2" d="M289.2,420.63c-2.73-0.84-5.52,0.32-6.91,2.86c-0.99,1.79-1.12,3.73-0.88,5.69c0.54,4.57,6.47,7.34,10.27,4.86
		c0.44-0.29,0.26-0.59,0.17-0.92c-0.13-0.47-0.44-0.31-0.74-0.21c-0.37,0.13-0.75,0.27-1.13,0.36c-4.13,0.93-6.96-1.05-7.24-4.99
		c-0.05-0.74,0.18-0.88,0.84-0.87c1.4,0.04,2.79,0.01,4.19,0.01c1.44,0,2.87,0,4.31,0c0.4,0,0.73,0.05,0.8-0.57
		C293.14,424.17,291.51,421.35,289.2,420.63z M290.6,426.31c-1.2-0.02-2.39-0.01-3.59-0.01c-1.12,0-2.23-0.04-3.35,0.01
		c-0.85,0.04-0.9-0.25-0.7-0.97c0.67-2.42,2.21-3.76,4.42-3.75c2.26,0.02,3.97,1.8,3.95,4.07
		C291.33,426.23,291.07,426.32,290.6,426.31z"/>
	<path class="st2" d="M198.71,421.01c-1.95-1.1-4.81-0.73-6.59,0.84c-2.84,2.52-3.04,8.4-0.34,11.08c2.29,2.27,5.07,1.95,7.85,1.3
		c0.4-0.09,1.14-0.08,0.85-0.95c-0.3-0.89-0.77-0.3-1.19-0.19c-4.25,1.08-7.51-0.11-8.01-4.76c-0.07-0.67,0.04-0.94,0.77-0.91
		c1.4,0.05,2.8,0.01,4.19,0.01c1.48,0,2.96,0,4.43,0c0.37,0,0.66,0.02,0.73-0.52C201.72,424.83,200.43,421.97,198.71,421.01z
		 M199.14,426.31c-1.19-0.01-2.39,0-3.58,0c-1.15,0-2.31-0.02-3.46,0.01c-0.51,0.01-0.7-0.13-0.64-0.68
		c0.27-2.35,2.28-4.1,4.68-4.03c2.13,0.06,3.86,1.98,3.77,4.11C199.87,426.3,199.58,426.31,199.14,426.31z"/>
	<path class="st2" d="M330.66,427.4c1.4,0.07,2.8,0.02,4.2,0.02c1.2,0,2.4,0,3.6,0c1.58,0,1.58,0,1.41-1.6
		c-0.35-3.37-2.23-5.36-5.11-5.42c-3.25-0.07-5.55,1.86-6.22,5.42c-0.52,2.74-0.26,5.41,1.99,7.37c2.33,2.03,5.08,1.71,7.83,0.95
		c0.5-0.14,0.75-0.32,0.58-0.91c-0.22-0.77-0.63-0.33-1-0.22c-0.31,0.08-0.61,0.19-0.92,0.26c-4.06,0.91-7.05-1.13-7.23-4.9
		C329.75,427.69,329.85,427.36,330.66,427.4z M329.98,425.41c0.54-2.05,1.89-3.52,3.56-3.77c2.71-0.41,4.65,1.2,4.85,3.99
		c0.04,0.57-0.18,0.69-0.67,0.68c-1.2-0.01-2.4,0-3.6,0c-1.16,0-2.32-0.04-3.48,0.01C329.89,426.35,329.8,426.1,329.98,425.41z"/>
	<path class="st2" d="M244.75,420.4c-2.72,0.02-4.8,1.59-5.64,4.45c-0.87,2.98-0.79,5.92,1.6,8.2c2.28,2.18,5.09,1.86,7.88,1.11
		c0.5-0.13,0.89-0.28,0.66-0.96c-0.26-0.76-0.66-0.27-1.02-0.18c-0.31,0.08-0.61,0.19-0.92,0.26c-4.06,0.89-7.03-1.15-7.2-4.91
		c-0.03-0.69,0.08-1.01,0.88-0.97c1.39,0.07,2.79,0.02,4.19,0.02c1.44,0,2.87,0,4.31,0c0.36,0,0.66,0.04,0.75-0.5
		C250.8,423.58,248.13,420.37,244.75,420.4z M247.94,426.3c-1.2,0.01-2.4,0-3.6,0c-1.16,0-2.32,0-3.48,0c-0.34,0-0.72,0.1-0.68-0.52
		c0.12-1.69,1.77-3.72,3.4-4.11c2.71-0.64,5.08,1.25,5.12,4.04C248.73,426.38,248.33,426.3,247.94,426.3z"/>
	<path class="st5" d="M471.04,370.54c-1.29,0.34-2.16,1.48-2.15,2.81c0.01,1.37,0.97,2.53,2.31,2.8c1.35,0.27,2.5-0.4,3.22-1.86
		c0.01-0.58,0.03-1.17,0.04-1.75C473.88,370.94,472.51,370.15,471.04,370.54z M471.7,375.66c-1.24-0.04-2.34-1.22-2.28-2.44
		c0.06-1.19,1.18-2.24,2.37-2.22c1.21,0.02,2.25,1.1,2.25,2.32C474.05,374.59,472.94,375.7,471.7,375.66z"/>
	<path class="st6" d="M470.82,371.71c0,1.07,0,2.14,0,3.21C470.58,373.85,470.58,372.78,470.82,371.71z"/>
	<path class="st6" d="M471.06,374.92c0-0.34-0.01-0.68,0-1.02c0.02-0.49,0.21-0.74,0.71-0.39
		C470.68,373.55,471.54,374.57,471.06,374.92z"/>
	<path class="st7" d="M473,374.52c-0.05-0.68-0.69-1.34-0.01-2.07c0.14-0.15-0.19-0.54-0.46-0.58c-0.56-0.09-1.11-0.43-1.71-0.16
		c-0.19,1.07-0.19,2.14,0,3.21c0.08,0,0.16,0,0.24,0c0.23-0.31,0.09-0.67,0.11-1.01c0.03-0.41,0.2-0.56,0.6-0.41
		c0.61,0.12,0.67,0.59,0.71,1.09c0.02,0.21,0.07,0.41,0.34,0.38C473.13,374.94,473.02,374.7,473,374.52z M471.63,373.08
		c-0.36,0.01-0.58-0.04-0.58-0.5c0-0.48,0.27-0.46,0.61-0.47c0.4-0.02,0.67,0.13,0.84,0.43
		C472.33,373.02,472.01,373.07,471.63,373.08z"/>
</g>
</svg>
