<?xml version="1.0" encoding="utf-8"?>
<!-- Generator: Adobe Illustrator 24.0.1, SVG Export Plug-In . SVG Version: 6.00 Build 0)  -->
<svg version="1.1" id="Camada_1" xmlns="http://www.w3.org/2000/svg" xmlns:xlink="http://www.w3.org/1999/xlink" x="0px" y="0px"
	 viewBox="0 0 1722 570.63" style="enable-background:new 0 0 1722 570.63;" xml:space="preserve">
<style type="text/css">
	.st0{fill:url(#path9_1_);}
	.st1{fill:#FFFFFF;}
	.st2{fill:url(#path42_1_);}
</style>
<g id="g44" transform="translate(-99 -255.075)">
	<g id="g11">
		
			<linearGradient id="path9_1_" gradientUnits="userSpaceOnUse" x1="1637.4" y1="358.6125" x2="1920" y2="358.6125" gradientTransform="matrix(1 0 0 -1 -99 827.075)">
			<stop  offset="0" style="stop-color:#1DAAFB"/>
			<stop  offset="1" style="stop-color:#106CC9"/>
		</linearGradient>
		<path id="path9" class="st0" d="M1821,349.3h-83.1l-144.1,124.3v-80.3l-55.4,47.8v141.8c0,4,4.7,6.2,7.8,3.6L1821,349.3z"/>
	</g>
	<g id="g17">
		<path id="path13" class="st1" d="M1069.7,487.8h0.8c14.5,0,26.3,11.8,26.3,26.3s-11.8,26.3-26.3,26.3h-0.8
			c-14.5,0-26.3-11.8-26.3-26.3S1055.1,487.8,1069.7,487.8z"/>
		<path id="rect15" class="st1" d="M1047.8,568.2h44.6v177.3h-44.6V568.2z"/>
	</g>
	<path id="path19" class="st1" d="M1418.2,731.4c-0.1-0.9-1.1-1.3-1.8-0.6c-4.8,5.1-11.5,9.6-20.4,13.7c-9.8,4.5-20.8,6.8-32.9,6.8
		c-7.3,0-14.6-1.1-21.7-3.4c-7.2-2.3-13.7-5.7-19.7-10.4c-5.9-4.7-10.7-10.7-14.4-18c-3.7-7.3-5.5-15.9-5.5-25.7
		c0-10.1,1.9-19.1,5.7-27c3.8-7.9,9.1-14.6,15.9-20s15-9.5,24.6-12.3s20.2-4.2,31.8-4.2c3.5,0,7.4,0.1,11.7,0.2
		c4.3,0.1,8.4,0.3,12.5,0.6c4.5,0.3,9.2,0.5,14,0.8v-4.2c0-8.8-3.5-15.8-10.6-20.8s-16.3-7.6-27.6-7.6c-12.6,0-22.7,1.6-30.3,4.9
		c-7.6,3.3-14.2,6.8-20,10.6l-20.4-30.3c3.5-2.5,7.6-5.1,12.1-7.8s9.8-5,15.9-7.2c6.1-2.1,13.1-3.9,21-5.3s17.2-2.1,27.8-2.1
		c11.3,0,21.6,1.6,30.8,4.7c9.2,3.2,17.1,7.6,23.6,13.2c6.6,5.7,11.6,12.5,15.1,20.4s5.3,16.6,5.3,25.9v119h-41.6L1418.2,731.4z
		 M1418.1,665.5c-4.5-0.3-9-0.5-13.2-0.8c-3.5-0.3-7.2-0.4-11.2-0.6c-3.9-0.1-7.3-0.2-10-0.2c-14.4,0-24.5,2.8-30.3,8.5
		s-8.7,12.2-8.7,19.5c0,7.6,2.7,13.5,8.1,17.8c6.4,5.1,16.5,7.2,30.3,6.2c8.8-1.6,16.1-4.8,22.1-9.6c3.8-3,6.9-6.6,9.3-10.6
		s3.6-8.3,3.6-12.9L1418.1,665.5z"/>
	<path id="path21" class="st1" d="M99,493.4h48l122.2,179.3V493.4h46.5v252.1h-46.9L145.5,564.1v181.4H99V493.4z"/>
	<path id="path23" class="st1" d="M519.3,720l-6.2,6.2c-3.4,3.4-8.3,7-14.8,10.8c-6.4,3.8-14.6,7.2-24.6,10.2s-21.9,4.5-35.7,4.5
		c-14.1,0-27-2.4-38.6-7.2s-21.5-11.4-29.7-19.9c-8.2-8.4-14.5-18.6-18.9-30.4c-4.4-11.8-6.6-25-6.6-39.3c0-13.1,2.2-25.3,6.6-36.5
		s10.6-21,18.5-29.3s17.4-14.9,28.4-19.7s23.1-7.2,36.5-7.2c16.1,0,29.8,3,41,8.9s20.2,13.7,27,23.3s11.7,20.4,14.8,32.5
		c3,12.1,4.5,24.5,4.5,37.1v6.4H389.1c0,6.6,1.4,12.5,4.4,17.8c2.9,5.3,6.7,9.8,11.3,13.6c4.7,3.8,10,6.7,15.9,8.7s11.8,3,17.6,3
		c8.6,0,16.1-0.8,22.5-2.5c6.4-1.6,11.9-3.5,16.5-5.7c4.5-2.1,8.3-4.4,11.2-6.8c2.9-2.4,5.1-4.3,6.6-5.9L519.3,720z M475.8,638.3
		c0-4.5-0.9-9.1-2.6-13.6c-1.8-4.5-4.4-8.6-7.8-12.3c-3.4-3.6-7.8-6.7-13.1-9.1c-5.3-2.4-11.3-3.6-18.2-3.6
		c-7.3,0-13.8,1.2-19.5,3.6c-5.7,2.4-10.4,5.4-14.2,9.1c-3.8,3.7-6.7,7.8-8.7,12.3s-3,9.1-3,13.6H475.8z"/>
	<path id="path25" class="st1" d="M549.4,493.4H594v252.1h-44.6V493.4z"/>
	<path id="path27" class="st1" d="M621.9,656.8c0-12.9,2.3-25,7-36.5s11.2-21.5,19.5-30.1s18.3-15.4,30.1-20.4s24.6-7.6,38.8-7.6
		c14.1,0,27,2.5,38.8,7.6s21.7,11.9,30.1,20.4c8.3,8.6,14.8,18.6,19.5,30.1s7,23.6,7,36.5s-2.3,25-7,36.5s-11.2,21.6-19.5,30.3
		s-18.3,15.6-30.1,20.6c-11.7,5-24.7,7.6-38.8,7.6s-27-2.5-38.8-7.6c-11.7-5-21.7-11.9-30.1-20.6c-8.3-8.7-14.8-18.8-19.5-30.3
		C624.3,681.8,621.9,669.6,621.9,656.8z M717.3,713.1c8.6,0,16-1.7,22.3-5.1c6.3-3.4,11.5-7.9,15.7-13.4s7.2-11.6,9.3-18.2
		c2-6.6,3-13.1,3-19.7c0-6.3-1-12.8-3-19.5s-5.1-12.7-9.3-18.2c-4.2-5.4-9.4-9.8-15.7-13.2s-13.7-5.1-22.3-5.1s-16,1.7-22.3,5.1
		c-6.3,3.4-11.5,7.8-15.7,13.2s-7.2,11.5-9.3,18.2c-2,6.7-3,13.2-3,19.5c0,6.6,1,13.1,3,19.7s5.1,12.6,9.3,18.2
		c4.2,5.5,9.4,10,15.7,13.4C701.2,711.4,708.7,713.1,717.3,713.1z"/>
	<path id="path29" class="st1" d="M872,774.4c7.1,4.8,14.7,8.3,22.9,10.4c8.2,2.1,17.8,3.2,28.9,3.2c11.6,0,21.3-3.5,29.1-10.6
		s11.7-16.9,11.7-29.5v-19.3c-6.1,5.1-12.7,9.1-19.9,12.3s-16.7,4.7-28.6,4.7c-12.9,0-24.3-2.1-34.2-6.4c-10-4.3-18.5-10.3-25.5-18
		c-7.1-7.7-12.4-16.8-16.1-27.2c-3.7-10.5-5.5-22-5.5-34.6c0-13.1,2.3-25.5,7-37.1s11.3-21.7,20-30.3s19.2-15.3,31.6-20.2
		c12.4-4.9,26.2-7.4,41.6-7.4c15.4,0,29.6,1.3,42.5,3.8c13,2.5,23.5,5.2,31.6,7.9v172.5c0,12.4-2.1,23.3-6.4,32.9
		c-4.3,9.6-10.2,17.6-17.8,24.2c-7.6,6.6-16.5,11.5-26.9,14.9c-10.3,3.4-21.6,5.1-33.7,5.1c-9.3,0-17.6-0.4-24.8-1.3
		c-7.2-0.9-13.6-2.1-19.3-3.6s-10.8-3.4-15.5-5.7s-9-4.9-13.1-7.9L872,774.4z M964.6,606.9c-3.5-1.3-7.2-2.2-11-2.8s-9.7-1-17.8-1
		c-9.1,0-17,1.5-23.8,4.5s-12.6,7.1-17.4,12.1c-4.8,5-8.4,10.9-10.8,17.6c-2.4,6.7-3.6,13.7-3.6,21c0,13.6,3.4,25.1,10.2,34.4
		c6.8,9.3,17.8,14,32.9,14c13.6,0,23.9-2.9,30.8-8.7c6.9-5.8,10.4-15,10.4-27.6L964.6,606.9z"/>
	<path id="path31" class="st1" d="M1284.8,722.2c-8.3,8.8-18.2,15.9-29.5,21.2s-24.6,7.9-39.7,7.9s-28.6-2.3-40.5-6.8
		s-21.8-11-29.9-19.3s-14.3-18.3-18.5-29.9c-4.3-11.6-6.4-24.5-6.4-38.6c0-12.9,2.3-25,7-36.5s11.2-21.5,19.5-30.1
		s18.3-15.4,30.1-20.4c11.7-5,24.6-7.6,38.8-7.6c14.4,0,27.5,2.6,39.3,7.8s21.9,12.2,30.3,21l-28.4,28.7c-5-5.8-11-10.3-17.8-13.6
		s-14.6-4.9-23.5-4.9c-8.6,0-16,1.6-22.3,4.7c-6.3,3.2-11.5,7.2-15.7,12.3c-4.2,5-7.2,11-9.3,17.8c-2,6.8-3,13.7-3,20.8
		c0,6.8,1,13.5,3,20c2,6.6,5.1,12.5,9.3,17.8c4.2,5.3,9.4,9.6,15.7,12.9c6.3,3.3,13.7,4.9,22.3,4.9c8.8,0,16.9-1.7,24.2-5.1
		c7.3-3.4,13.5-8,18.5-13.8L1284.8,722.2z"/>
	<path id="path33" class="st1" d="M1549.2,731.8c-1.8-2.9-3.4-5-4.6-6.2c-0.7-0.7-1.6-1.2-2.7-1.7c2.7-0.2,4.9-1.1,6.5-2.8
		s2.4-3.7,2.4-6c0-1.6-0.5-3.1-1.4-4.6c-1-1.4-2.3-2.5-3.9-3c-1.7-0.6-4.3-0.9-8-0.9h-9.7c-0.6,0-1,0.5-1,1v30.2h5v-13.3h3
		c1.8,0,3.1,0.4,4,1.1c1.3,1,3.1,3.4,5.3,7.3l2.8,4.9h6.2L1549.2,731.8z M1537.9,720.3h-6.1v-9.5h5.7c2.5,0,4.2,0.2,5.1,0.6
		c0.9,0.3,1.6,0.9,2.1,1.6c0.5,0.7,0.8,1.6,0.8,2.5c0,1.5-0.5,2.6-1.6,3.5C1542.8,719.8,1540.8,720.3,1537.9,720.3L1537.9,720.3z"/>
	<path id="path35" class="st1" d="M1538.4,698.2c13.2,0,24,10.8,24,24s-10.8,24-24,24s-24-10.8-24-24S1525.2,698.2,1538.4,698.2
		 M1538.4,693.2c-16.1,0-29.1,13-29.1,29.1s13,29.1,29.1,29.1s29.1-13,29.1-29.1S1554.5,693.2,1538.4,693.2z"/>
	
		<linearGradient id="path42_1_" gradientUnits="userSpaceOnUse" x1="1476.7" y1="452.8375" x2="1759.2999" y2="452.8375" gradientTransform="matrix(1 0 0 -1 -99 827.075)">
		<stop  offset="0" style="stop-color:#179016"/>
		<stop  offset="1" style="stop-color:#8AE12B"/>
	</linearGradient>
	<path id="path42" class="st2" d="M1377.7,493.4h83.1l144.1-124.3v80.3l55.4-47.8V259.8c0-4-4.7-6.2-7.8-3.6L1377.7,493.4z"/>
</g>
</svg>
