<?xml version="1.0" encoding="utf-8"?>
<!-- Generator: Adobe Illustrator 24.0.1, SVG Export Plug-In . SVG Version: 6.00 Build 0)  -->
<svg version="1.1" id="Camada_1" xmlns="http://www.w3.org/2000/svg" xmlns:xlink="http://www.w3.org/1999/xlink" x="0px" y="0px"
	 viewBox="0 0 1366 768" style="enable-background:new 0 0 1366 768;" xml:space="preserve">
<style type="text/css">
	.st0{fill:#000200;}
	.st1{fill:#000300;}
	.st2{fill:#000600;}
	.st3{fill:#010301;}
</style>
<g>
	<path class="st0" d="M325.43,492.37c-21.51-0.29-41.16-6.51-59.04-18.43c-7.18-4.79-9.27-13.44-4.87-20.48
		c4.24-6.79,13.14-8.85,20.39-4.42c6.17,3.78,12.42,7.34,19.22,9.86c11.15,4.13,22.56,6.35,34.46,4.15
		c8.79-1.62,14.24-6.66,15.3-13.7c0.87-5.79-1.17-10.23-5.88-13.55c-5.37-3.79-11.54-5.78-17.69-7.8
		c-10.63-3.48-21.6-5.96-31.87-10.53c-1.48-0.66-2.91-1.41-4.37-2.09c-34.39-15.92-29.06-60.02-3.46-75.61
		c11.57-7.05,24.15-9.87,37.49-9.49c16.59,0.47,32.19,4.92,46.86,12.59c7.16,3.74,10.35,10.7,8.38,17.73
		c-2.51,8.96-12.43,13.19-21.39,8.87c-9-4.35-18.15-8.19-28.06-9.88c-6.7-1.14-13.4-1.39-19.95,0.94
		c-5.95,2.12-10.12,5.86-10.84,12.47c-0.68,6.33,2.9,10.27,7.87,13.29c8.18,4.95,17.37,7.36,26.35,10.28
		c9.59,3.11,19.19,6.22,27.96,11.32c11.02,6.4,19.41,14.98,21.31,28.13c3.67,25.4-9.49,45.73-34.15,53.12
		c-3.21,0.96-6.52,1.68-9.83,2.24C334.93,492.18,330.19,492.48,325.43,492.37z"/>
	<path class="st0" d="M403.14,373.04c0-22.29-0.06-44.57,0.03-66.86c0.03-8.08,5.59-15.08,13.17-17.07
		c7.9-2.08,16.25,1.29,20.31,8.26c1.66,2.84,2.49,5.93,2.48,9.25c-0.03,7.84,0.07,15.69-0.06,23.53c-0.04,2.24,0.47,2.97,2.85,2.92
		c8.11-0.17,16.23-0.1,24.34-0.05c9.61,0.05,16.89,7.08,16.89,16.24c0,9-7.03,16.07-16.5,16.27c-8.24,0.17-16.48,0.13-24.71-0.02
		c-2.37-0.04-2.88,0.68-2.87,2.94c0.09,22.66-0.03,45.32,0.08,67.98c0.06,13.51,9.6,22.95,23.09,23.14c3,0.04,6.01-0.07,8.92,0.75
		c7.31,2.07,12.56,9.59,11.96,17c-0.66,8.11-6.74,14.98-14.65,15.52c-18.88,1.3-35.91-3.28-49.51-17.19
		c-10.7-10.95-15.76-24.28-15.82-39.48c-0.08-21.04-0.02-42.08-0.02-63.12C403.13,373.04,403.14,373.04,403.14,373.04z"/>
	<path class="st1" d="M818.16,402.24c1.01-16.08,6.99-30.22,16.67-42.96c21.08-27.73,62.4-37.88,93.22-22.48
		c22.68,11.33,34.55,30.69,39.28,54.94c1.02,5.26,1.52,10.59,1.51,15.96c-0.01,9.46-6.25,16.25-15.71,16.34
		c-19.47,0.18-38.95,0.19-58.42-0.01c-8.95-0.09-15.53-6.91-15.58-15.37c-0.05-8.6,6.68-15.35,15.83-15.48
		c11.86-0.16,23.72-0.01,35.58-0.09c1.06-0.01,3.46,1.1,2.45-1.93c-4.87-14.68-13.35-25.81-29.35-29.34
		c-16.2-3.57-36.12,5.15-43.93,19.46c-5.49,10.05-7.42,20.99-6.94,32.44c0.53,12.47,5.18,23.23,12.87,32.85
		c-1.08,1.7-2.99,1.56-4.61,2.06c-4.11,1.26-4.87,3.33-2.44,6.69c1.96,2.7,1.45,4.41-1.7,5.7c-3.26,1.34-6.66,0.8-8.2-2.24
		c-3.02-5.98-8.49-4.86-13.45-5.3c-1.97-0.18-3.87,0.88-5.88,0.89c-6.49-10.24-10.48-21.31-11.18-33.48
		c-0.64-1.58,0.05-3.3-0.55-4.88c0-3,0.01-6,0.01-9C818.22,405.47,817.53,403.78,818.16,402.24z"/>
	<path class="st2" d="M764.97,380.16c-6.09-9.95-14.92-15.85-26.4-17.85c-4.7-3.88-7.98-4.32-12.88-1.57
		c-4.15,2.32-8.59,4-12.85,6.07c-3.07,1.5-5.1,3.73-6.67,6.74c-6.06,11.65-8.66,24.02-8.28,37.08c0.06,2.14-0.17,4.22-1.24,6.15
		c-1.34,2.42-0.96,5.09-1,7.69c-0.03,1.87-0.27,3.78,0.04,5.59c1.15,6.66-2.72,11.56-5.77,16.7c-1.65,2.78-3.03,5.69-4.68,8.46
		c-0.5,0.83-0.63,2.04-1.86,2.08c-1.04,0.03-1.19-1.11-1.77-1.7c-2.92-2.98-5.34-6.43-7.93-9.62c-3.76-4.65-6.24-10.41-6.3-16.76
		c-0.02-2.37,0-4.73-0.03-7.1c-0.01-1.25,0.02-2.52-0.5-3.68c-3.94-8.8-2.64-17.73-0.56-26.63c2.71-11.59,9.07-21.54,14.95-31.63
		c2.64-4.53,7.06-7.87,11.45-10.57c7.97-4.91,16.56-8.69,25.9-10.4c1.72-0.32,3.45-0.73,4.97-1.62c7.37-4.3,15.04-2.72,22.54-0.85
		c7.03,1.75,13.69,4.78,20.18,7.93c7.74,3.76,13.74,9.77,18.81,16.66c1.11,1.5,1.9,3.31,3.57,4.26c3.53,2.01,4.78,5.38,6.28,8.9
		c4.47,10.5,5.61,21.68,6.71,32.77c0.66,6.61-0.74,13.37-1.37,20.05c-0.1,1.03-0.76,1.82-1.46,2.55c-0.78,0.82-1.8,1.69-1.73,2.8
		c0.26,4.13-3.1,6.98-3.64,10.82c-0.21,1.49-1.44,2.28-2.95,2.46c-1.73,0.21-3.47-0.09-4.15-1.8c-0.98-2.49-2.66-3.37-5.19-3.34
		c-1.3,0.01-2.79-0.52-3-1.82c-0.61-3.68-3.1-6.78-2.96-10.69c0.16-4.35-0.01-8.72,0.05-13.07c0.06-4.24,0.17-8.43-2.19-12.29
		c-0.98-1.61-0.77-3.61-0.83-5.49C772.07,390.75,770.42,384.66,764.97,380.16z"/>
	<path class="st1" d="M764.97,380.16c3.07,0.94,5.12,3.12,6.11,5.98c1.33,3.85,2.53,7.79,2.23,11.99c-0.1,1.35-0.28,2.82,0.53,4.01
		c3.37,4.91,2.36,10.47,2.44,15.86c0.05,3.11,0.42,6.29-0.09,9.32c-0.71,4.24,2.83,7.23,2.71,11.3c-0.05,1.57,2.14,1.36,3.47,1.27
		c2.4-0.16,4.21,0.27,4.45,3.15c0.17,2.05,1.73,2.12,3.31,2.11c1.91-0.01,2.7-1,2.64-2.82c-0.05-1.85,0.52-3.44,2.04-4.57
		c0.67-0.5,1-1.13,0.93-1.91c-0.28-3.03,0.16-5.69,3.12-7.39c0.4-0.23,0.58-1.07,0.62-1.64c0.71-10.56,1.29-21.01-0.27-31.69
		c-1.19-8.14-4.21-15.51-6.34-23.24c-0.33-1.21-0.59-2.7-1.7-3.22c-4.22-2-5.82-6.29-8.75-9.37c-6.03-6.34-12.08-12.83-20.91-15.73
		c-5.06-1.66-9.83-4.23-15.02-5.58c-7.61-1.98-15.07-3.52-22.75,0.54c-3.97,2.1-8.7,2.8-13.11,4.03
		c-10.52,2.95-20.04,8.04-26.96,16.33c-5.44,6.51-9.41,14.36-12.66,22.28c-3.82,9.33-6.77,18.96-5.67,29.33
		c0.17,1.62-0.01,3.55,0.97,4.66c2.66,3,2.05,6.46,2.07,9.87c0.02,5.6,0.16,11.02,3.72,15.94c1.46,2.02,2.9,4.13,4.23,6.06
		c2.22,3.22,6.23,5.34,6.81,9.92c2.69-4.1,4.66-8.29,7.04-12.21c2.7-4.43,5.62-9.33,4.68-15.58c-0.72-4.79-1.52-10.14,1.8-14.82
		c0.72-1.01,0.27-2.92,0.2-4.4c-0.64-13.26,3.57-25.38,8.63-37.33c1.46-3.44,4.04-5.35,7.34-6.95c4.36-2.11,8.98-3.66,13.11-6.31
		c3.95-2.54,10.04-1.62,13.45,1.72c1.09,1.06-0.23,1.01-0.81,1.23c-8.4-0.18-16.51,0.72-23.57,5.91
		c-9.09,6.68-14.74,15.38-14.83,26.83c-0.22,25.99-0.11,51.99-0.2,77.99c-0.03,8.17-4.96,14.67-12.58,17.03
		c-7.44,2.3-15.35-0.3-19.89-6.62c-1.6-2.22-2.98-4.59-2.91-7.49c-0.45-0.81-0.3-1.7-0.3-2.56c-0.01-25.25-0.01-50.5,0-75.75
		c0-0.99-0.13-2,0.29-2.95c0.29-13.73,5.48-25.69,13.48-36.56c10.07-13.68,23.77-22.09,40.05-26.37c2.63-0.69,5.47-1.4,8.33-1.06
		c1.33-0.56,2.8,0,4.13-0.53c2.51,0,5.02-0.01,7.52-0.01c1.52,0.62,3.2-0.13,4.71,0.54c12.89,1.4,24.25,6.5,34.52,14.21
		c7.79,5.86,14.18,13.03,18.69,21.64c3.56,6.81,6.91,13.8,7.31,21.73c0.05,0.9,1.24,1.57,0.77,2.69c0.58,1.3-0.05,2.76,0.54,4.06
		c0.64,13.37,0.17,26.75,0.27,40.13c0.05,7.3-0.1,14.61-0.16,21.91c-1.4,1.23-3.18,1.4-4.88,1.6c-3.3,0.38-5.41,2.05-6.78,5.05
		c-1.54,3.38-2.42,3.45-4.89,0.71c-0.78-0.87-1.59-1.8-2.75-1.68c-4.65,0.47-8.97-2.02-13.63-1.36c-1.07,0.15-2.32,0.23-2.64-1.33
		c0.01-20.94,0.01-41.88-0.01-62.82c0-1.23,0.2-2.48-0.23-3.68C768.32,388.91,766.53,384.57,764.97,380.16z"/>
	<path class="st0" d="M829.36,454.38c3.5-2,6.91-2.16,11.08-1.56c4.68,0.68,7.45,2.2,9.66,6.29c1.35,2.49,5.75,2.24,8.1,0.33
		c1.51-1.22,0.96-2.14-0.1-3.38c-1.05-1.22-3.58-2-2.65-3.98c1.08-2.29,2.86-4.32,5.81-4.65c1.47-0.16,2.91-0.56,4.37-0.86
		c9.7,9.87,21.33,15.28,35.34,14.96c10.81-0.25,20.49-3.61,28.84-10.62c8.07-6.77,18.16-6.2,24.2,1.24
		c6.16,7.6,4.52,17.63-3.95,24.12c-37.11,28.42-92.53,19.84-118.68-18.39C830.62,456.78,830.03,455.55,829.36,454.38z"/>
	<path class="st0" d="M490.07,445.89c0.26-1.88,1.77-1.67,2.88-1.42c3.47,0.8,6.67,2.21,9.94,3.72c4.98,2.31,9.43,4.42,11.76,9.72
		c0.5,1.12,2.29,1.27,3.67,1.55c2.64,0.54,5.41,0.83,7.15,3.38c0.59,0.86,1.64,1.26,2.67,0.8c1.38-0.62,0.4-1.64,0.34-2.55
		c-0.21-3.33-2.29-5.26-5.11-6.67c4.71-3.88,9.9-1.41,14.77-1.84c1.66-0.44,2.86,0.61,4.12,1.33c11.94,6.81,24.52,8.48,37.78,4.69
		c1.39-0.4,2.83-1.16,4.26-0.06c3.23,0.82,6.42,1.89,9.85,1.59c0.71-0.06,1.7-0.05,2.15,0.37c3.66,3.4,8.48,2.14,12.7,3.26
		c1.84,0.49,3.64-0.47,5.46-0.71c5.29-0.7,10.69-2.19,15.77,0.93c-11.13,13.54-25.43,22.25-42.36,26.17
		c-32.09,7.44-60.49,0.58-83.93-23.28C498,460.82,493.19,453.87,490.07,445.89z"/>
	<path class="st0" d="M991.27,272.51c8.34,0,15.51,1.67,21.88,6.09c3.83,2.66,4.93,6.9,2.75,10.35c-2.26,3.58-6.79,4.41-10.82,1.72
		c-3.7-2.47-7.62-4.22-12.08-4.56c-9.18-0.71-17.24,5.28-19.88,14.73c-3.28,11.71,2.77,23.74,13.62,26.53
		c6.62,1.7,12.85,0.44,18.36-3.77c1.91-1.46,3.91-2.82,6.46-2.32c2.76,0.53,4.76,2.1,5.62,4.88c0.87,2.82-0.09,5.15-2.16,7.05
		c-6.57,6.06-14.55,8.37-23.3,8.52c-17.89,0.32-32.19-12.07-34.69-30.04c-2.4-17.25,8.17-33.3,24.95-37.9
		C985.26,272.9,988.57,272.41,991.27,272.51z"/>
	<path class="st0" d="M769.65,460.85c5.81-2.22,11.31,1.79,17.1,0.85c1.82-0.3,2,1.9,2.75,3.09c0.93,1.47,2.02,1.31,2.3-0.13
		c1.46-7.52,7.54-6.91,12.94-7.55c0.02,5.96,0.33,11.93-0.01,17.87c-0.49,8.74-8.29,15.69-17.27,15.87
		c-9.28,0.18-16.95-6.18-17.99-14.9C769.08,470.91,768.76,465.87,769.65,460.85z"/>
	<path class="st3" d="M1098.91,324.93c4.22-0.04,7.81,3.56,7.8,7.82c-0.01,4.29-3.59,7.81-7.85,7.74c-4.12-0.07-7.56-3.49-7.66-7.61
		C1091.09,328.67,1094.68,324.97,1098.91,324.93z"/>
	<path class="st2" d="M769.65,460.85c-0.05,5.03-0.11,10.07-0.16,15.1c-0.7-0.99-0.56-2.15-0.56-3.25c-0.01-26.37,0-52.73,0.01-79.1
		c1.07,1.31,0.58,2.87,0.59,4.31C769.59,418.89,769.61,439.87,769.65,460.85z"/>
	<path class="st2" d="M664.57,394.72c0,27.08,0.01,54.17,0.01,81.25c-0.77-1.11-0.58-2.4-0.58-3.62c-0.01-24.41,0-48.82,0.04-73.24
		C664.04,397.65,663.83,396.12,664.57,394.72z"/>
	<path class="st2" d="M742.8,330.74c-1.58-0.09-3.25,0.59-4.71-0.54C739.69,330.11,741.3,329.98,742.8,330.74z"/>
	<path class="st2" d="M818.16,402.24c-0.08,1.6,0.6,3.29-0.52,4.78C817.56,405.4,817.4,403.77,818.16,402.24z"/>
	<path class="st2" d="M817.63,416.02c1.16,1.52,0.42,3.25,0.55,4.88C817.37,419.34,817.56,417.67,817.63,416.02z"/>
	<path class="st2" d="M730.57,330.21c-1.26,1.05-2.74,0.45-4.13,0.53C727.73,329.96,729.16,330.14,730.57,330.21z"/>
	<path class="st2" d="M804.63,395.07c-1.08-1.23-0.49-2.69-0.54-4.06C804.84,392.29,804.75,393.68,804.63,395.07z"/>
	<path class="st2" d="M649.52,405.54c-1.08-1.27-0.45-2.76-0.55-4.16C649.81,402.68,649.59,404.12,649.52,405.54z"/>
	<path class="st2" d="M648.98,420.93c0.09-1.39-0.54-2.89,0.55-4.15C649.59,418.19,649.8,419.63,648.98,420.93z"/>
	<path class="st2" d="M821.89,413.66c0.09-12.46,2.86-22.92,8.89-32.56c2.03-3.24,3.28-6.96,4.98-10.41
		c3.28-6.62,8.92-11.26,14-16.36c1.27-1.28,2.71-2.24,4.62-1.02c2.17,1.38,3.9,0.49,5.12-1.35c2.96-4.45,6.43-6.01,11.99-4.3
		c3.19,0.98,7.19,0.1,10.64-0.72c3.96-0.94,7.65,0.11,11.45,0.4c0.75,0.06,1.56,0.45,1.39,1.38c-0.19,1-1.16,0.7-1.85,0.76
		c-3.21,0.27-6.42,0.51-9.64,0.76c-0.97,0.07-2.53,0.01-2.08,1.35c1.08,3.27-1.53,3.09-3.18,3.75c-3.61,1.46-7.39,2.65-7.66,7.5
		c-0.04,0.79-0.76,1.22-1.42,1.61c-9.06,5.44-13.58,14-16.79,23.65c-2.11,6.34-4.64,12.51-5.19,19.27
		c-0.09,1.12-0.15,2.11,0.08,3.24c0.34,1.67,0.87,3.68-0.61,4.95c-2.41,2.07-2.48,4.35-1.45,7.03c0.82,2.1,0.94,4.06-1.25,5.57
		c-1.41,0.97-0.36,2.26-0.25,3.42c0.22,2.28,0.04,4.12-2.89,4.66c-2.67,0.49-5.21,1.49-6.21-2.32c-0.47-1.79-1.44-3.18-3.66-2.99
		c-0.95,0.08-2-0.42-2.18-1.18C827.35,423.64,818.83,420.32,821.89,413.66z"/>
	<path class="st1" d="M649.52,405.54c-0.54-1.34,0.01-2.82-0.55-4.16c-0.3-4.97-1.52-9.77-2.95-14.49
		c-4.86-16.02-14.09-29.2-27.25-39.42c-15.02-11.68-32.18-17.73-51.34-17.75c-22.66-0.02-42.76,6.83-59.43,22.43
		c-14.85,13.91-23.16,31.22-25.12,51.36c-1.43,14.68,0.4,29,7.18,42.39c4.16-0.74,7.92,0.31,11.28,2.71
		c1.66,1.19,3.39,2.09,5.37,2.47c2.41,0.46,4.01,1.74,4.83,4.11c0.87,2.51,2.72,4.18,5.27,4.87c3.12,0.85,6.26,1.54,8.75,3.87
		c0.84,0.78,2.1,0.86,3.16,0.2c1.15-0.73,0.97-1.91,0.77-3.03c-0.49-2.76-1.54-5.18-4.5-6.54c4.07-1.51,4.07-1.49,8.36-1.09
		c1.6,0.15,3.24,0.4,4.68-0.66c0.03-0.1,0.03-0.18,0.05-0.27c-12.51-10.22-18.87-23.5-19.69-39.52c-0.34-1.49-0.36-2.98,0.01-4.46
		c-0.11-9.67,2.93-18.48,7.86-26.6c7.59-12.49,19.29-18.64,33.48-20.61c3.74-0.41,7.48-0.37,11.22-0.03
		c24.55,3.52,40.24,21.19,42.85,46.49c0.37,2.73,0.38,5.47-0.01,8.2c-2.1,19.44-10.94,34.24-29.31,42.46
		c0.06,0.24,0.17,0.5,0.33,0.8c2.26,1.5,4.85,1.8,7.47,1.9c1.89,0.07,3.67,0.37,5.36,1.29c4.56,2.47,9.72,2.84,14.47,2.02
		c6.1-1.04,12.05-1.18,18.11-0.49c11.19-12.21,16.8-26.83,18.74-43.05c0.56-1.33,0-2.81,0.55-4.15
		C649.88,413.03,649.88,409.28,649.52,405.54z"/>
	<path class="st2" d="M646.66,409.86c0.24,1.82-0.16,3.66-2.32,4.7c-1,0.49-1.36,1.33-1.43,2.42c-0.35,5.24-2.39,10.09-3.59,15.13
		c-0.64,2.69-1.52,5.39-5.03,5.63c-0.12,0.01-0.34,0.04-0.35,0.09c-1.08,5.04-6.98,5.3-9.18,9.2c-0.67,1.18-1.36,2.02-2.88,1.82
		c-1.42-0.18-1.46-1.49-2.16-2.27c-3.27-3.59-1.83-8.41-3.36-12.49c-0.6-1.61,0.9-3.99,1.39-6.02c0.84-3.48,2.07-6.92,1.91-10.56
		c-0.39-9.17-3.92-17.58-6.8-26.08c-2.57-7.62-5.2-15.64-11.63-20.93c-9.44-7.76-19.79-13.9-32.52-15.15
		c-8.83-0.87-16.59,1.28-24.68,4.67c-9.49,3.96-16.02,10.65-21.85,18.44c-4.52,6.04-5.64,13.44-7.26,20.52
		c-0.79,3.45-1.82,6.96-1.72,10.6c0.02,0.57-0.27,1.54-0.65,1.67c-3.93,1.38-2.27,4.45-2.28,7.04c-0.01,1.88,0.63,3.92-2.05,4.94
		c-1.47,0.56-0.72,2.44-0.96,3.74c-0.25,1.3,0.92,3.69-1.2,3.65c-2.26-0.05-5.26-0.12-6.05-3.28c-0.3-1.18-0.25-2.47-0.2-3.71
		c0.09-2.09-0.69-3.88-2.59-4.55c-5.85-2.04-5.02-7.12-5.09-11.43c-0.06-3.13,0.25-6.07-1.31-9c-1.19-2.24-0.08-4.66,0.71-6.77
		c5.63-15.03,13.22-28.32,26.86-38.18c12.95-9.36,28.03-10.69,42.48-14.64c4.05-1.11,8.33-1.39,12.37-2.51
		c2.31-0.64,4.44-0.22,6.06,0.79c5.3,3.29,11.39,4.21,17.1,6.24c5.2,1.84,10.19,4.06,14,8.25c1.13,1.25,2.62,1.94,4.11,2.52
		c11.37,4.47,18.28,13.23,23.29,23.86C642.33,387.78,646.63,402.99,646.66,409.86z"/>
	<path class="st2" d="M570.97,361.31c-3.74,0.01-7.48,0.02-11.22,0.03C563.49,360.29,567.23,360.33,570.97,361.31z"/>
	<path class="st2" d="M613.82,416c0-2.73,0-5.47,0.01-8.2C614.81,410.53,614.82,413.27,613.82,416z"/>
	<path class="st2" d="M518.41,408.54c0,1.49-0.01,2.98-0.01,4.46C517.47,411.52,517.45,410.03,518.41,408.54z"/>
	<path class="st0" d="M1056.43,272.52c-20.09-0.03-35.75,15.24-35.72,34.82c0.04,19.29,15.49,34.35,35.3,34.39
		c19.89,0.04,35.61-15.15,35.69-34.48C1091.78,287.67,1076.43,272.55,1056.43,272.52z M1056.23,328.39
		c-11.45-0.09-20.14-9.37-20.11-21.48c0.03-12.27,8.3-21,19.89-21c11.66,0,20.54,9.38,20.4,21.57
		C1076.28,319.59,1067.69,328.48,1056.23,328.39z"/>
</g>
</svg>
