<?xml version="1.0" encoding="utf-8"?>
<!-- Generator: Adobe Illustrator 24.0.1, SVG Export Plug-In . SVG Version: 6.00 Build 0)  -->
<svg version="1.1" id="Camada_1" xmlns="http://www.w3.org/2000/svg" xmlns:xlink="http://www.w3.org/1999/xlink" x="0px" y="0px"
	 viewBox="0 0 860 260" style="enable-background:new 0 0 860 260;" xml:space="preserve">
<style type="text/css">
	.st0{fill:#FBFBFB;}
	.st1{fill:#F7F7F7;}
	.st2{fill:#F6F6F6;}
	.st3{fill:#FCFCFC;}
	.st4{fill:#F8F8F8;}
	.st5{fill:#F5F5F5;}
	.st6{fill:#F9F9F9;}
</style>
<g transform="translate(-250 -260)">
	<path class="st0" d="M931.09,385.51c-0.19-0.32-0.4-0.62-0.56-0.95c-7.04-14.46-17.79-23.54-34.69-23.28
		c-17.86,0.28-30.99,8.53-37.84,24.92c-8.46,20.26-7.71,40.24,6.19,58.18c15.67,20.22,45.86,23.28,65.35,6.64
		c10.58-9.03,24.94-4.14,27.66,7.54c1.58,6.82-0.51,12.61-6.05,16.89c-18.25,14.07-39.02,19.81-61.79,16.85
		c-34.28-4.46-57.51-23.19-68.19-56.06c-12.3-37.87,4.69-79.96,38.58-97.65c27.39-14.3,60.69-11.3,82.73,7.78
		c15.32,13.26,23.06,30.56,25.6,50.36c0.47,3.69,0.7,7.44,0.73,11.17c0.08,9.1-6.04,15.99-15.1,16.11
		c-19.85,0.27-39.7,0.27-59.55-0.02c-8.71-0.13-15.1-7.23-15.02-15.5c0.08-7.88,6.02-14.32,13.78-14.96
		c9.43-0.64,18.86-0.11,28.3-0.28c1.49-0.03,2.98,0,4.46-0.01c1.62-0.05,1.59,0.85,0.99,1.9c-1.03,1.8-2.69,2.94-4.53,3.76
		c-5.24,2.34-10.51,4.57-16.25,5.44c-2.21,0.34-4.48,0.55-6.47,1.69c-1.09,0.62-2.3,1.33-2.32,2.71c-0.02,1.45,1.29,2.02,2.42,2.56
		c1.36,0.65,2.83,1.18,4.32,1.06c3.07-0.24,5.96,0.62,8.82,1.37c4.06,1.08,8.03,1.72,12.13,0.37c0.97-0.32,1.96-0.29,2.94,0.02
		c9.38,2.91,17.86,0.69,25.79-4.56c5.46-3.29,5-8.89,4.94-13.95c-0.08-6.82-2.61-12.95-6.18-18.88c-2.87-4.75-4.6-10.21-8.65-14.25
		c-3.6-3.6-7.08-7.33-10.7-10.9c-3.11-3.06-7.37-4.71-11.46-6.01c-4.27-1.36-8.52-2.8-12.71-4.36c-7.39-2.77-14.79-2.95-22.38-0.94
		c-7.84,2.07-15.39,5.08-23.01,7.73c-4.72,1.64-8.84,5.52-12.68,9.02c-7.08,6.45-12.87,13.69-16.93,22.73
		c-3.6,8.01-7.06,15.83-8.15,24.55c-1.09,8.71-0.03,17.38,1.37,25.95c0.67,4.13,3.73,7.51,5.76,11.2c2.04,3.7,4.54,7.16,6.31,11
		c1.64,3.57,5.67,4.87,7.48,8.22c2.25,4.69,5.29,8.62,10.18,10.87c1.93,0.89,3.52,2.34,5.28,3.5c10.45,6.94,21.96,9.59,34.43,8.14
		c1.78-0.22,3.56-0.22,5.34-0.02c13.78,1.35,26.44-1.17,37.08-10.67c0.28-0.25,0.51-0.54,0.76-0.82c1.52-1.67,4.35-2.73,3.49-5.63
		c-0.93-3.16-2.95-5.71-5.85-7.44c-1.16-0.69-2.39-0.73-3.54-0.02c-6.55,4.07-13.94,5.83-21.27,7.75c-0.75,0.2-1.34,0.63-2,0.97
		c-2.97,1.19-5.91-0.2-8.86-0.1c-4.94,0.17-9.84,0.28-14.79-0.35c-8.45-1.08-15.34-4.79-20.72-11.28c-1.14-1.37-2.62-2.25-3.92-3.33
		c-5.17-4.34-7.43-10.46-10.49-16.11c-0.18-0.35-0.31-0.71-0.4-1.08c-0.19-1.99-0.66-3.86-1.88-5.52c-1.19-1.62-1.96-3.5-2.03-5.5
		c-0.11-3.21-2.06-5.78-2.78-8.77c-0.23-0.95-0.31-1.92-0.32-2.89c0.05-1.91-0.07-3.83,0.16-5.73c0.05-0.36,0.13-0.72,0.23-1.06
		c0.6-1.48,0.39-3.08,0.65-4.61c0.06-0.34,0.14-0.67,0.24-1c0.48-2.49,1.09-4.94,1.97-7.33c0.1-0.32,0.24-0.64,0.39-0.94
		c0.85-2,2.45-3.67,2.57-5.99c1.78-6.77,4.47-13.05,9.78-17.91c1.25-0.51,2.38-1.19,3.19-2.32c0.35-0.39,0.76-0.69,1.21-0.94
		c1.45-0.66,2.72-1.61,4.02-2.52c5.2-2.94,10.48-5.97,16.17-7.51c9.88-2.67,19.78-2.29,28.7,3.54c3.63,2.37,7.31,4.68,10.88,7.17
		c4.88,3.41,7.23,8.01,7.67,13.76c0.11,1.38,0.47,2.68,0.81,4C933.25,384.45,933.17,385.7,931.09,385.51z"/>
	<path class="st0" d="M325.53,492.37c-21.5-0.29-41.14-6.51-59.01-18.41c-7.19-4.79-9.29-13.41-4.91-20.46
		c4.3-6.92,13.25-8.89,20.67-4.29c6.15,3.81,12.43,7.33,19.23,9.81c11.03,4.02,22.32,6.21,34.09,4.05
		c9.97-1.83,15.82-8.12,15.59-16.6c-0.13-4.77-2.53-8.22-6.33-10.82c-5.4-3.71-11.57-5.68-17.72-7.7
		c-10.5-3.45-21.35-5.87-31.49-10.42c-1.47-0.66-2.92-1.39-4.38-2.07c-34.72-16.06-29-60.41-3.38-75.78
		c11.74-7.04,24.42-9.83,37.88-9.37c16.44,0.57,31.91,5.02,46.44,12.65c6.62,3.48,9.59,9.39,8.53,16.35
		c-0.85,5.59-5.34,10.24-11.3,11.56c-3.93,0.87-7.59,0.05-11.19-1.74c-10.54-5.21-21.4-9.45-33.31-10.22
		c-5.54-0.36-10.98,0.09-16.06,2.52c-10.84,5.17-11.85,17.39-1.94,24.08c8.27,5.59,17.9,7.95,27.22,10.98
		c9.7,3.16,19.41,6.28,28.29,11.43c10.9,6.32,19.17,14.82,21.22,27.77c3.99,25.22-9.41,46.07-34.13,53.47
		C341.72,491.51,333.71,492.54,325.53,492.37z"/>
	<path class="st0" d="M804.93,434.03c0,13.19,0.12,26.39-0.05,39.58c-0.1,7.95-5.16,14.23-12.74,16.52
		c-7.29,2.2-15.01-0.36-19.61-6.53c-2.72-3.65-3.59-7.81-3.59-12.28c0.01-25.52,0.24-51.04-0.12-76.55
		c-0.28-19.65-19.39-35.1-38.86-32.07c-17.77,2.76-29.8,17.08-29.88,35.9c-0.1,24.65,0.02,49.29-0.04,73.94
		c-0.03,11.24-8.31,18.92-19.47,18.26c-8.7-0.51-16.32-7.73-16.35-16.9c-0.09-27.25-1.38-54.54,0.57-81.74
		c2.16-30.23,28.24-56.98,58.47-61.27c38.48-5.46,72.46,18.11,80.47,55.81c1.06,5.02,1.27,10.11,1.26,15.22
		c-0.01,10.71,0,21.41,0,32.12C804.96,434.03,804.94,434.03,804.93,434.03z"/>
	<path class="st0" d="M439.09,366.71c0.04,23.15,0.05,46.29,0.14,69.44c0.05,11.33,6.94,20.41,17.24,22.89
		c3.31,0.8,6.71,0.39,10.06,0.56c9.32,0.46,16.1,6.95,16.69,15.92c0.53,8.05-5.31,15.73-13.61,17.13
		c-3.89,0.66-7.97,0.49-11.94,0.26c-31.54-1.84-54.43-26.04-54.44-57.47c-0.01-42.69-0.02-85.38,0.01-128.07
		c0.01-10.08,6.11-17.25,15.72-18.65c10.17-1.48,19.89,6.4,20.18,16.73c0.24,8.7-0.01,17.42-0.05,26.12
		c-3.03-0.23-3.53-2.79-4.22-4.9c-0.81-2.47-1.56-4.92-2.95-7.14c-0.28-0.75-0.4-1.53-0.43-2.33c0.96-3.99-0.64-6.94-3.68-9.41
		c-1.35-1.1-2.48-2.45-3.73-3.67c-3.6-3.49-4.49-3.38-7.37,0.87c-3.02,4.46-4.55,9.19-5.46,14.7c-2.31,13.97,0.9,27.79-0.27,41.64
		c-0.9,10.67-1.08,21.38-0.61,32.05c0.55,12.31-0.06,24.65,0.82,36.9c0.78,10.84,2.73,21.64,8.5,31.31
		c3.63,6.09,9.28,9.94,14.56,14.29c6.09,5.02,13.51,6.32,20.89,7.04c3.38,0.33,7.18-0.31,10.56-1.76c1.29-0.55,1.84-1.43,1.83-2.89
		c-0.03-5.04-2.91-9.4-8.01-10.93c-7.22-2.17-13.43-5.75-18.66-11.23c-3.99-4.18-5.64-9.32-6.9-14.66c-0.52-2.2-1.16-4.3-2.1-6.34
		c-1.41-14.13-1.39-28.3-1.18-42.47c0.1-6.85,1.28-13.62,3.4-20.14C434.87,370.09,435.67,367.14,439.09,366.71z"/>
	<path class="st1" d="M432.47,317.38c0,0.75,0,1.49,0,2.24c1.83,3.21,2.09,6.93,3.34,10.33c0.25,0.68,0.16,1.46-0.73,1.8
		c-1.72-0.35-2.27-1.83-2.96-3.13c-2.56-4.85-4.78-9.85-6.76-14.96c-0.93-2.39-2.11-4.68-5-4.95c-1.8-0.17-3.88,3.43-4.21,6.44
		c-2.3,21.07-1.52,42.22-1.17,63.33c0.16,9.68,1.12,19.45,0.35,29.07c-0.96,12.05,0.7,23.81,1.79,35.67
		c0.38,4.2,0.58,8.91,3.01,12.2c3.43,4.64,6.41,10.43,10.97,13.35c6.22,3.98,12.59,8.53,20.26,9.96c0.74,0.14,1.47,0.31,2.22,0.33
		c2.9,0.08,3.87-1.01,3.49-3.82c-0.49-3.61-2.14-6.1-5.79-7.47c-10.64-4-17.41-11.5-20.46-22.58c-2.42-8.81-4.28-17.58-3.95-26.82
		c0.34-9.32,0.07-18.67,0.07-28c0-12.83,4.65-23.49,14.79-31.61c2.56-2.05,5.36-3.63,8.41-4.81c1.16-0.45,2.39-0.76,3.5-1.32
		c1.73-0.87,4.36-1.35,4.35-3.55c-0.01-2.1-2.64-2.28-4.29-2.99c-2.4-1.04-4.93-1.78-7.33-2.83c-5.19-2.26-9.13-5.82-11.24-11.19
		c0.89-1.26,1.92-0.51,2.47,0.14c4.89,5.74,11.8,7.23,18.61,8.93c3.48,1.32,6.73,3.16,10.31,4.27c1.74,0.54,2.98,1.89,3.06,3.84
		c0.07,1.71-1.1,2.9-2.52,3.36c-8.39,2.72-14.82,9.34-23.47,11.51c6.63,0,13.2,0.05,19.78,0.08c1.56,0.01,3.28-0.34,4.53,1.09
		c-8.42,0.7-16.85,0.09-25.27,0.34c-1.21,0.04-2.83-0.81-3.53,1.06c-2.37,2.11-3.61,4.72-4.5,7.81
		c-4.44,15.47-2.76,31.28-2.63,46.95c0.04,4.6,0.99,9.28,0.51,13.98c1.6,4.16,1.52,8.72,3.38,12.88
		c3.47,7.77,8.93,13.94,16.91,16.22c7.36,2.1,9.51,8.24,13.45,13.08c1.32,1.62,0.38,3.24-1.64,4.1c-2.25,0.95-4.72,1.13-6.97,1.04
		c-6.34-0.25-13.05,0.39-18.15-4.78c-0.79-0.8-1.72-1.54-2.78-1.87c-9.09-2.85-13.66-10.68-18.6-17.66
		c-3.28-4.64-4.86-10.65-5.63-16.4c-3.17-23.72-1.64-47.6-1.93-71.42c-0.09-7.32,0.76-14.64,0.72-21.98
		c-0.03-5.1-0.83-10.14-0.88-15.26c-0.06-5.38,0.83-10.64,1.3-15.94c0.48-5.47,3.67-9.96,6.26-14.62c0.87-1.56,2.36-2.22,3.67-0.8
		C425.88,306.66,431.33,310.52,432.47,317.38z"/>
	<path class="st0" d="M972.71,312.67c0.24,0.56,0.5,1.11,0.7,1.68c4.42,12.82,18.12,17.7,29.75,10.58c1.17-0.71,2.23-1.58,3.39-2.32
		c3.4-2.17,7.03-1.72,9.38,1.14c2.45,2.99,2.1,6.76-1.05,9.62c-4.33,3.94-9.44,6.34-15.17,7.58c-20.58,4.45-39.03-7.69-42.41-28.35
		c-1.6-9.8,0.4-19,6.93-26.88c5.85,0.78,7.66,2.49,7.06,8.19c-0.78,7.42-0.51,14.83-0.64,22.25c-0.03,2.01,0.18,3.96,1.32,5.85
		C971.24,318.74,969.91,315.52,972.71,312.67z"/>
	<path class="st0" d="M1072.2,320.99c0.55,0.93,1.82,1.38,1.9,2.59c0.17,2.69,2.76,3.37,4.14,3.09c2.45-0.49,4.56,0.34,6.82,0.45
		c-7.31,11.18-22.84,16.97-36.93,13.77c-14.33-3.26-24.93-14.22-26.85-27.71c-0.55-3.84-0.95-7.66,0.12-11.48
		c8.12,0.97,5.19,7.86,6.58,12.39c0.53,1.72,0.35,3.65,0.51,5.49c0.16,1.83,0.56,3.28,2.96,2.14c2.17-1.03,2.13,0.92,2.53,2.08
		c0.28,0.81,0.22,1.97,1.49,1.56c1.21-0.39,0.62-1.39,0.36-2.19c-0.69-2.12-1.4-4.23-2.05-6.35c-1.11-3.58-2.39-7.15,1.24-10.23
		c0.65-0.55,0.76-1.75,1.13-2.64c1.43,1.09,1.07,2.69,1.11,4.12c0.23,8.09,3.94,14.19,11.21,17.52c7.25,3.32,14.32,2.39,20.53-2.98
		C1069.92,321.8,1070.76,320.76,1072.2,320.99z"/>
	<path class="st2" d="M933.61,392.74c-0.19-0.47-0.39-0.93-0.58-1.4c3.21-4.89,2.55-9.74,1.13-15.24
		c-1.64-6.33-4.12-11.26-10.21-14.08c-1.61-0.74-2.52-2.37-3.45-3.85c-1.92-3.05-4.68-4.58-8.2-5.24
		c-14.21-2.65-28.2-2.02-42.04,2.23c-2.11,0.65-4.33,1.2-6.54,0.15c-1.72-3.74-1.01-5.46,2.66-6.83c12.76-4.77,25.91-5.06,39.3-3.94
		c5.36,0.45,10.61,1.03,15.79,2.45c1.59,0.44,3.46,0.71,4.24,2.11c2.59,4.6,7.25,6.17,11.52,8.34c4.79,5.83,11.54,10.14,13.89,17.86
		c0.36,1.18,0.81,2.32,1.23,3.48c2.32,5.09,4.1,10.43,4.86,15.89c0.86,6.16-1.03,11.88-5.74,16.35c-0.6,0.51-1.2,1.01-1.96,1.24
		c-2.47,1.32-5.27,0.66-7.86,1.3c-0.37,0.12-0.75,0.2-1.14,0.27c-2.38,0.24-4.77,0.26-7.15,0c-0.41-0.05-0.81-0.14-1.21-0.25
		c-4.47-0.18-8.88-1.19-13.36-1c-3.79,0.16-7.42-0.41-11.02-1.52c-1.36-0.42-2.81-0.74-2.87-2.42c-0.06-1.71,1.38-2.11,2.73-2.56
		c3.19-1.08,6.49-1.67,9.79-2.28c1.83-0.34,3.67-0.67,5.35-1.53c3.5-1.97,5.18-5.61,7.75-8.43c1.02-0.49,2.04-0.94,3.15-0.26
		c0.69,3.84-1.43,6.56-3.75,9.17c-1.08,1.21-2.33,2.26-3.67,3.18c-2.08,1.43-1.81,2.87,0.52,3.05c6.42,0.49,12.81,3.4,19.32-0.31
		c4.58-2.61,8.12-9.84,6.95-15.07c-1.42-6.34-3.72-12.37-6.02-18.41c-0.86-2.26-2.39-2.85-3.87-1.06c-2.23,2.71-4.09,2.15-6.27-0.41
		c0.13,1.83,1.16,2.68,1.66,3.79c2.63,5.77,1.15,12.18-3.78,16.03c-0.3,0.23-0.7,0.22-1.08,0.12c-0.23-0.19-0.31-0.39-0.25-0.59
		C933.48,392.85,933.54,392.74,933.61,392.74z"/>
	<path class="st0" d="M467.89,365.3c-8.73,0-17.46,0-26.49,0c1.62-3.31,5.01-3.18,7.44-4.29c6.19-2.85,11.38-7.6,18.14-9.34
		c1.02-0.26,2.15-1.14,1.92-2.44c-0.21-1.22-0.87-2.48-2.22-2.78c-3.91-0.88-7.26-3.09-10.98-4.41c-3.5-2.07-7.42-3.24-11.02-5.1
		c-1.66-0.86-3.84-1.27-3.96-3.77c9.21-0.04,18.43-0.3,27.63-0.04c8.19,0.22,14.94,7.85,14.9,16.2
		C483.21,357.98,476.49,364.97,467.89,365.3z"/>
	<path class="st2" d="M863.98,355.49c8.25-1.44,16.18-4.07,24.69-4.78c8.97-0.75,17.52,0.4,26.2,1.77c1.4,0.22,2.79,0.66,3.61,1.77
		c3.18,4.31,6.99,7.85,11.51,10.76c2.34,1.5,3.55,3.88,3.89,6.88c0.32,2.79,1.46,5.5,2.39,8.19c1.56,4.54,0.24,8.19-3.24,11.25
		c-0.25-0.74-0.5-1.48-0.75-2.23c3.28-7.55-0.35-19.51-7.28-23.67c-2.91-1.74-5.65-3.57-7.77-6.3c-1.68-2.15-4.24-3.05-6.8-3.68
		c-10.46-2.59-20.96-2.75-31.4,0.01c-3.91,1.03-7.18,3.43-10.53,5.59c-2.61,1.68-5,3.71-7.8,5.12c-1.35,0.68-2.45,1.68-3.19,3.05
		c-3.42,6.32-6.38,12.88-9.5,19.35c-3.04,6.32-3.53,13.28-3.67,20.32c-0.16,7.97,1.14,15.53,4.09,22.9
		c1.37,3.41,4.15,5.91,5.68,9.19c4.91,10.35,13.2,17.47,23,22.73c6.44,3.45,13.81,4.84,20.96,6.25c4.49,0.89,9.03-1.09,13.46-2.24
		c1.68-0.44,3.27-1.17,5.06-1.13c1.19,0.02,2.4-0.05,3.44,0.69c0.53,0.63,0.28,1.35-0.27,1.55c-5.43,1.98-9.31,6.82-15.58,7.52
		c-5.92,0.66-11.16-0.34-16.05-3.36c-4.71-2.91-9.6-5.11-15.11-6.04c-3.68-0.62-6.73-2.45-8.75-5.77c-1.49-2.45-3.38-4.51-5.92-6.05
		c-3.98-2.42-5.28-6.74-7.03-10.7c-0.43-0.63-0.75-1.31-0.99-2.03c-5.31-5.87-6.7-13.37-8.65-20.64c-0.18-0.35-0.32-0.7-0.45-1.07
		c-2.03-3.57-1.53-7.49-1.43-11.3c0.23-8.55,0.21-17.2,3.51-25.27c2.83-6.93,8.12-12.57,10.73-19.7c0.71-1.94,2.97-3.03,5.01-3.65
		c2.55-0.77,3.99-2.34,4.51-4.87C863.69,355.77,863.84,355.63,863.98,355.49z"/>
	<path class="st3" d="M972.71,312.67c-1.19,3.58-0.85,7.05,0.86,10.39c0.37,0.72,0.59,1.54-0.24,1.93
		c-0.97,0.46-1.06-0.56-1.48-1.13c-1.91-2.6-2.41-5.46-2.29-8.65c0.26-7.16-0.34-14.36,0.79-21.49c0.59-3.73-0.57-6.32-4.68-6.98
		c-0.52-0.08-0.97-0.67-1.45-1.02c8.38-11.07,19.92-14.16,33.09-12.88c5.65,0.55,10.92,2.37,15.63,5.65
		c4.02,2.8,5.21,7.06,2.9,10.59c-2.32,3.54-6.81,4.3-10.86,1.57c-8.56-5.78-17.06-6.24-25.66-0.16c-1.54,1.4-4.06-1.24-5.27,1.18
		c-1.23,2.46-1.6,5.09-0.75,7.79c-0.89,1.12-0.37,2.55-0.84,3.76c-0.42,2.48-0.39,4.96-0.02,7.44
		C972.54,311.32,972.63,312,972.71,312.67z"/>
	<path class="st4" d="M853.5,441.43c-7.2-8.1-10.01-18.05-10.26-28.39c-0.25-10.5,0.44-21,6.83-30.44
		c2.36-3.49,3.94-7.91,5.72-11.97c0.69-1.58,1.16-3.26,2.79-4.27c5.69-3.53,11.08-7.64,17.08-10.51c5.28-2.53,11.13-3.64,17.3-2.75
		c4.85,0.7,9.86,0.01,14.77,0.82c4.79,0.79,9.16,2.12,11.93,6.59c0.77,1.24,1.97,2.28,3.44,2.79c8.22,2.88,10.23,9.81,11.27,17.31
		c0.25,1.83,0.02,3.73,0.05,5.59c0.02,1.52-0.33,2.73-2.13,2.93c-0.4-1.2-0.8-2.41-1.19-3.61c0.57-0.25,1.39-0.48,1.31-1.16
		c-1.11-9.9-4.94-17.94-14.54-22.56c-5.18-2.5-9.7-6.29-15.67-7.22c-6.48-1-12.74-0.61-18.93,1.59c-5.14,1.82-9.78,4.7-14.78,6.8
		c-1.44,0.43-2.6,1.33-3.75,2.24c-0.25,0.25-0.5,0.5-0.75,0.75c-1.06,0.66-1.96,1.55-3,2.24c-5.18,4.93-7.97,11.16-9.74,17.93
		c-0.83,2.08-2.41,3.78-3,5.98c-1.37,2.57-1.76,5.41-2.25,8.22c-1.01,1.64,0.22,3.59-0.75,5.23c-0.6,2.24-0.6,4.48,0,6.73
		c0,1,0,1.99,0,2.99c1.53,6.96,3.47,13.79,6.74,20.18C852.25,437.5,854.99,438.94,853.5,441.43z"/>
	<path class="st0" d="M1098.95,340.52c-4.25-0.02-7.84-3.67-7.75-7.9c0.08-4.09,3.56-7.58,7.64-7.67c4.23-0.09,7.85,3.46,7.88,7.74
		C1106.74,336.97,1103.22,340.53,1098.95,340.52z"/>
	<path class="st4" d="M440.72,333.17c2.9,3.25,7.32,3.82,10.8,6.04c1.42,0.91,3.33,1.1,4.18,2.83c-3.27-0.65-6.3-2.06-9.69-2.48
		c-2.99-0.36-4.77-3.36-7.19-5.06c-1.21-0.85-2.24-1.94-3.35-2.92v0c-1.14-3.95-2.54-7.84-3-11.96c2.21,1.28,2.35,3.67,2.93,5.75
		c0.69,2.43,1.48,4.71,3.68,6.19C439.1,332.64,439.66,333.16,440.72,333.17z"/>
	<path class="st0" d="M973.32,299.45c-3.16-2.93-1.03-6.09,0.14-8.72c1.32-2.96,3.87-0.24,5.88-0.25
		C976.8,293.11,974.84,296.13,973.32,299.45z"/>
	<path class="st5" d="M933.6,393.65c-1.08-0.18-2.02,0.21-2.93,0.71c-1.34,0.13-2.71,0.45-3.87-0.6
		c-11.28-0.08-22.57-0.16-33.85-0.24c3.82-0.87,7.69-0.28,11.53-0.39c9.71-0.29,19.43,0.47,29.14-0.39
		c0.03,0.26,0.06,0.52,0.09,0.78L933.6,393.65z"/>
	<path class="st0" d="M972.46,310.65c-0.96-2.48-0.99-4.96,0.02-7.44C972.47,305.69,972.47,308.17,972.46,310.65z"/>
	<path class="st1" d="M920.17,467.58c-1.25,0-2.5,0-3.75,0c-0.41-0.36-0.46-0.8-0.31-1.3c0.18-0.28,0.43-0.46,0.75-0.55
		c0.79-0.07,1.54-0.31,2.27-0.64c0.31-0.12,0.64-0.18,0.97-0.21c4.03-0.95,8.45-0.71,11.75-3.88c1.5-1.38,3.09-2.12,4.99-0.73
		c1.02,0.83,1.92,1.77,2.8,2.74c3.49,4.93,3.41,5.71-1.17,9.43c-1.94,1.57-3.97,2.99-6.36,3.84c-1.64,0.58-3.43,1.16-4.66,2.32
		c-5.41,5.07-12.3,3.91-18.71,4.47c-2.23,0.19-4.41,0.22-6.54,0.96c-2,0-4,0-5.99,0c-5.49-2.11-11.33-1.1-16.97-1.86
		c-1.75-0.24-3.59-0.23-4.96-1.36c-5.27-4.35-11.65-6.62-17.75-9.32c-5.07-2.24-7.58-6.54-10.51-10.63
		c-8.29-5.8-11.46-15.18-16.43-23.31c-7.23-11.81-5.65-24.78-4.29-37.45c0.71-6.59,2.89-13.17,6.93-18.92
		c1.88-2.68,2.43-6.26,4.08-9.14c3.06-5.35,7.64-9.49,11.79-14c3.67-3.99,8.95-5.82,12.47-9.86c1.81-2.08,4.35-1.5,6.49-2.28
		c6.99-2.55,13.92-5.28,21.18-7.08c6.92-1.71,13.64-1.15,20.29,1.19c4.55,1.6,9.21,3,13.65,4.76c5.61,2.22,11.71,4.19,15.09,10.08
		c1.74,3.03,5.15,4.51,7.4,7.24c3.38,4.08,5.52,8.7,7.95,13.3c2.19,4.15,4.52,8.15,5.83,12.68c1.72,5.98,1.32,11.96-0.17,17.88
		c-0.53,2.1-2.11,3.6-4.38,4.1c-0.06-0.18-0.13-0.35-0.19-0.53c0.83-2.31,1.38-4.72,2.37-6.98c3.09-7.13-0.77-13.38-2.62-19.87
		c-0.39-1.37-1.17-2.68-1.8-4.01c-1.36-1.69-1.53-3.84-2.28-5.77c-0.9-2.33-1.87-4.49-4.5-5.52c-1.79-0.7-2.8-2.36-3.57-4.1
		c-0.86-1.95-1.92-3.73-3.89-4.79c-1.58-1.21-3.1-2.45-5.09-3.03c-2.36-0.69-4.22-2.18-5.31-4.41c-0.89-1.82-2.31-3.11-4.16-3.46
		c-3.91-0.73-7.72-2-11.66-2.45c-12.05-1.35-24.08-1.25-36.05,0.98c-3.43,0.64-6.57,2.23-9.99,2.94c-1.83,0.38-2.57,2.22-2.47,3.79
		c0.25,4.13-2.46,5.69-5.61,6.23c-4.47,0.76-7.11,2.83-8.16,7.33c-0.65,2.81-2.9,4.61-5.62,5.59c-1.89,0.68-3.19,1.74-3.84,3.71
		c-3.28,9.88-7.12,19.59-8.57,29.99c-0.17,1.24-0.51,2.51-0.26,3.7c1.11,5.16-0.44,10.3,0.02,15.45c0.25,2.75,1.07,5.33,2.27,7.8
		c2.46,4.46,2.99,9.71,5.75,14.04c0.18,0.28,0.33,0.59,0.46,0.9c0.31,0.92,0.74,1.74,1.65,2.23c0.28,0.18,0.53,0.38,0.78,0.6
		c2.13,1.71,2.83,4.53,4.9,6.28c1.5,1.62,3.18,3.07,4.58,4.79c3.56,2.91,6.77,6.25,10.79,8.56c0.97,0.76,2.08,1.16,3.3,1.31
		c0.37,0.06,0.73,0.16,1.08,0.27c4.99,0.79,9.37,3.24,13.6,5.65c3.76,2.14,7.46,2.96,11.6,2.8c1.72-0.07,3.46-0.08,5.18,0.1
		c1.68,0.39,3.36,0.06,5.04-0.09c2.72-0.04,5.45,0,8.17-0.03c3.29-0.04,6.23-0.91,9-2.88c3.93-2.79,8.15-5.18,13.03-5.98
		c1.13-0.18,2.17-0.49,3-1.31c0.27-0.24,0.55-0.45,0.84-0.66c1.15-2.59,0.12-3.97-2.94-3.52c-3.17,0.47-6.31,1.11-9.46,1.74
		C922.24,467.64,921.23,468.17,920.17,467.58z"/>
	<path class="st1" d="M926.8,393.77c1.33-0.04,2.74-0.65,3.87,0.6c-1.66,3.22-3.67,6.15-6.75,8.2c-5.15,1.9-10.69,2.04-15.93,3.64
		c-2.15,0.66-3.94,1.93-6.16,2.36c5.57,2.32,11.14,3.49,17.1,3.45c4.65-0.03,9.3,0.87,13.98,1c2.75,0.61,5.49,0.61,8.24,0
		c2.73-0.57,5.81,0.74,8.24-1.49c0.5-0.25,1-0.5,1.5-0.75c0.96-0.42,1.71-1.65,3-0.75c0,0,0,0,0,0c-3.46,4.33-8.73,4.79-13.53,5.86
		c-4.39,0.98-9.04,1.37-13.26-1.18c-0.19-0.12-0.52-0.15-0.73-0.07c-6.86,2.86-13.23-0.2-19.85-1.3c-2.57-0.43-5.32-0.1-7.79-1.31
		c-4.15-2.03-4.22-3.73-0.55-6.59c2.02-1.57,4.46-1.71,6.69-1.97c5.92-0.69,11.19-3.12,16.58-5.29
		C923.69,397.28,925.49,395.81,926.8,393.77z"/>
	<path class="st6" d="M902.19,484.02c0.88-1.58,2.43-2.47,4.02-2.16c5.19,1.01,10.22-0.77,15.34-0.57c0.35,0.01,0.85,0.02,1.03-0.19
		c4.4-5,11.27-5.9,16.32-9.97c3.91-3.15,1.45-5.38-0.01-8.03c-0.55-0.95-1.3-1.7-2.25-2.24c-1.77-1.37-3.12-0.24-4.49,0.75
		c-3.92,2.33-8.44,2.65-12.74,3.74c-0.84,0.89-2.04,0.32-3,0.75c-1.96,0.56-3.8,2.08-5.99,0.75c0.09-1.07,0.78-1.29,1.74-1.52
		c7.59-1.84,15.24-3.54,21.78-8.16c0.83-0.59,1.48-0.57,2.39-0.2c4.26,1.75,6.45,5.34,8.12,9.26c0.7,1.63-0.61,3.1-1.73,4.21
		c-7.88,7.86-17.26,12.53-28.45,13.69C910.21,484.53,906.22,485.41,902.19,484.02z"/>
	<path class="st4" d="M910.43,466.83c2.02-0.04,3.92-1.12,5.99-0.75c0,0.5,0,1,0,1.49c-3.8-0.16-7.37,1.52-10.7,2.61
		c-6.25,2.04-11.45-0.34-17.04-1.5c-5.6-1.16-10.5-4.27-15.97-5.8c-0.68-0.19-1.39-0.66-1.83-1.2c-2.5-3.12-5.33-5.93-8.66-8.12
		c-4.51-2.96-6.66-7.49-8.73-12.13c0.31-2.19-1.8-3.78-1.5-5.98c1.45,1.56,2.4,3.36,3.18,5.37c2.1,5.41,6.09,9.27,10.52,12.96
		c2.15,1.79,3.8,4.41,6.17,6.1c5.1,3.63,10.64,5.2,17.08,5.92C896.15,466.59,903.35,465.38,910.43,466.83z"/>
	<path class="st6" d="M846,460.85c0.76,0.64,1.82,1.13,2.22,1.94c3.6,7.43,11.38,8.74,17.78,11.9c2.48,1.22,4.66,2.6,6.85,4.21
		c5.14,3.79,11.3,2.3,17.05,2.83c2.35,0.22,4.81-0.19,6.3,2.28c-2.84,1.4-5.96,1.07-8.79,0.62c-7.8-1.23-15.91-2.03-22.58-6.67
		c-5.89-4.11-12.9-6.83-17.24-13.02C846.7,463.68,846.35,462.29,846,460.85z"/>
	<path class="st4" d="M852,435.45c-4.85-5.86-6.19-12.89-6.74-20.18c1.64,3,3.05,6.04,3.17,9.6c0.05,1.39,0.69,2.86,1.72,4.03
		C851.81,430.77,852.32,433,852,435.45z"/>
	<path class="st4" d="M846,400.33c-0.08-2.97,0.12-5.85,2.25-8.22C847.5,394.85,846.75,397.59,846,400.33z"/>
	<path class="st4" d="M848.25,392.11c-0.09-2.54,1.5-4.23,3-5.98C851.23,388.61,849.49,390.23,848.25,392.11z"/>
	<path class="st4" d="M845.26,412.28c-1.2-2.24-1.2-4.48,0-6.73C845.26,407.8,845.26,410.04,845.26,412.28z"/>
	<path class="st4" d="M845.26,405.56c0.29-1.74-0.69-3.66,0.75-5.23C845.71,402.07,846.69,403.98,845.26,405.56z"/>
	<path class="st4" d="M864.73,365.21c0.78-1.53,1.94-2.42,3.75-2.24C867.37,363.94,866.33,365.04,864.73,365.21z"/>
	<path class="st4" d="M860.99,368.2c0.66-1.2,1.48-2.18,3-2.24C863.32,367.15,862.51,368.14,860.99,368.2z"/>
	<path class="st4" d="M312.6,483.27c-3.18-0.94-6.45-1.26-9.74-1.49c-7-3.64-14.28-6.72-21.17-10.57c-1.51-0.84-3.36-1.47-3.18-3.64
		c0.16-2.05,1.92-2.63,3.49-3.44c4.08-2.09,7.95-0.58,11.87,0.47c6.16,0.67,12.06,2.76,18.27,3.26c3.71,0.3,7.67-0.48,11.06,1.85
		c8.65-2.6,18.47-1.16,25.91-8.13c3.73-3.49,4.49-7.77,5.45-12.25c1.35-6.3-2.04-10.65-5.46-15.34
		c-5.11-7.01-12.12-10.42-20.22-12.12c-7.16-1.5-12.77-6.71-19.98-8.11c-2.05-0.4-3.94-1.62-5.99-2.03
		c-3.63-0.74-6.62-2.51-9.69-4.49c-4.83-3.11-9.4-6.4-12.39-11.37c-4.15-6.87-8.67-13.96-6.25-22.36c1.76-6.1,4.64-11.96,8.87-16.96
		c1.12-1.32,2.12-2.76,3-4.25c1.67-2.84,3.72-4.41,7.14-5.63c4.74-1.68,9.72-2.95,14.26-5.04c10.47-4.82,20.66-3.89,31.34-0.76
		c6.59,1.93,13.15,4,19.79,5.79c2.61,0.7,4.67,2.06,3.16,5.38c-0.25,0.55-0.23,1.22-0.4,1.81c-1.34,4.63-1.24,4.28-5.85,2.81
		c-5.59-1.78-11.23-3.26-17.34-3.14c-3.41,0.07-6.96-0.08-10.44-0.3c-0.97-0.06-1.6-0.62-2.01-1.46c-0.27-0.35-0.27-0.69,0-1.04
		c1.22-1.17,2.69-1.37,4.29-1.09c1.41,0.46,2.9,0.44,4.36,0.66c0.37,0.05,0.73,0.14,1.09,0.24c3.54,0.32,7.04,0.92,10.57,1.26
		c1.02,0.36,1.92,1.25,3.15,0.66c2.23-0.75,4.56-0.8,6.86-1.09c0.71-0.09,1.64-0.4,1.67-1.18c0.04-1.14-1.13-1.03-1.9-1.28
		c-7.19-1.98-14.46-3.98-21.95-3.53c-10.66,0.64-21.4-0.57-31.99,1.44c-1.24,0.23-2.57,0.32-3.52,1.13
		c-4.07,3.45-8.51,6.48-12.3,10.25c-1.49,1.48-2.45,3.42-2.96,5.54c-0.56,2.3-1.3,4.55-2.34,6.69c-2.84,5.84-2.07,11.58,0.44,17.28
		c0.5,1.14,1.26,2.19,1.58,3.38c1.35,5.03,4.23,8.63,9.24,10.45c1.04,0.38,2.08,0.99,2.83,1.79c5.67,6.06,13.5,6.93,20.91,8.93
		c5.4,1.45,10.92,2.69,15.38,6.46c2.15,1.82,5,2.19,7.53,3.21c2.41,1.12,4.79,2.3,7.01,3.78c0.3,0.18,0.58,0.38,0.85,0.6
		c2.35,2.03,4.31,4.42,6.18,6.88c1.99,3.14,3.7,6.4,4.58,10.05c0.6,4.35-0.25,8.61-0.93,12.85c-0.89,5.57-4.77,8.68-9.56,10.93
		c-0.32,0.22-0.67,0.4-1.03,0.56c-3.11,1.26-6.16,2.71-9.05,4.36c-9.83,5.62-19.38,5.37-28.85-0.76c-4.45-2.88-9.73-2.87-14.68-3.92
		c-2.61-0.55-5.21-2-8.03-0.95c-0.92,0.34-2.22,0.41-2.45,1.46c-0.28,1.27,1.13,1.42,1.93,1.86c2.68,1.48,5.11,3.52,8.6,3.01
		c1.67-0.25,2.99,1.13,4.17,2.23c4.26,3.98,9.37,5.36,15.08,5.23c7.58-0.17,15.11,1.35,22.74,0.43c5.56-0.67,10.99-0.82,15.37-5.38
		c2.25-2.34,5.43-4.52,9.36-3.43c1.08,1.33-0.28,1.84-0.97,2.13c-4.25,1.77-7.77,4.66-11.51,7.21c-7.5,1.96-15.14,2.43-22.86,2.25
		c-1.37-0.03-2.74,0-4.11,0C318.1,482.66,315.35,482.66,312.6,483.27z"/>
	<path class="st4" d="M326.09,351.01c0,0.25,0,0.5,0,0.75c-5.06,0.8-10.18,1.35-15.15,2.52c-2.45,0.58-4.68,2.18-6.08,4.61
		c-1.85,3.22-3.8,6.39-5.84,9.5c-2.02,3.07-2.13,5.92-0.49,9.34c2.13,4.41,2.48,9.86,6.99,12.84c7.96,5.24,16.15,10.02,25.22,13.26
		c6.95,2.48,14.6,3.27,20.51,8.42c1.82,1.58,4.19,2.53,6.3,3.78c0.25,0.41,0.16,0.73-0.26,0.96c-5.36-0.95-10.07-3.49-14.6-6.28
		c-3.17-1.95-6.44-2.9-10.09-3.54c-7.71-1.35-15.4-2.8-21.53-8.55c-3.21-3.01-7.74-4.41-10.38-8.35c-3.29-4.91-6.1-9.99-7.35-15.79
		c-0.98-4.55,1.4-8.2,3.69-11.76c1.01-1.56,2.32-2.95,3.05-4.68c1.94-4.59,5.59-7.04,10.33-7.61
		C315.64,349.8,320.98,347.9,326.09,351.01z"/>
	<path class="st4" d="M347.81,481.03c2.39-3.67,6.1-5.6,9.9-7.39c0.99-0.47,2.13-0.63,2.84-1.58c-0.5-1.34,0.5-2.11,1.24-2.87
		c1.34-1.38,2.19-3,2.73-4.82c0.51-1.69,1.11-3.55,2.52-4.5c3.83-2.58,5.18-6.11,4.88-10.5c1.09-5.33-0.19-10.57-0.62-15.84
		c-0.15-1.83-1.77-2.89-2.9-4.19c-2.34-2.68-4.89-5.26-5.19-9.11c0.11-0.16,0.22-0.32,0.34-0.49c5.61,4.58,10.18,10.31,11.47,17.22
		c0.6,3.23,3.31,7.49-0.06,11.07c1.61,2.62-1.12,4.93-0.52,7.72c0.33,1.54-1.56,3.67-2.67,5.39c-1.81,2.8-4.12,5.32-5.64,8.26
		c-1.4,2.71-4.19,3.57-6.25,4.97C356.14,476.93,352.88,480.78,347.81,481.03z"/>
	<path class="st4" d="M293.87,464.59c-4.01-0.17-8.04-1.63-11.99,0.59c-1.09,0.61-2.51,0.91-2.7,2.23
		c-0.23,1.55,1.11,2.25,2.31,3.01c6.07,3.81,13.21,5.44,19.16,9.5c0.81,0.55,1.81,0.84,2.21,1.87c-3.52-0.62-6.6-1.96-9.82-3.74
		c-4.81-2.65-9.51-5.7-14.77-7.57c-1.77-0.63-3.84-1.04-3.24-4c0.57-2.81,1.92-3.9,4.72-4.19
		C284.71,461.78,289.53,461.55,293.87,464.59z"/>
	<path class="st4" d="M357.55,416.77c0-0.25,0-0.5,0-0.75c2.79-0.02,4.59,1.54,5.99,3.74l0,0
		C360.63,420.59,359.36,418.13,357.55,416.77z"/>
	<path class="st4" d="M312.6,483.27c2.75-1.21,5.49-1.21,8.24,0C318.1,483.27,315.35,483.27,312.6,483.27z"/>
	<path class="st2" d="M778.58,469.82c-2.28-15.51-1.5-31.13-1.36-46.7c0.03-4.04,0.23-8.18,0.76-12.2c0.36-2.7-0.45-5.26-0.91-7.54
		c-1.03-5.12-0.21-10.28-1.41-15.34c-1.26-5.32-3.05-10.18-7.23-13.92c-1.3-1.16-2.29-2.47-2.94-4.19
		c-1.53-4.05-5.33-5.64-8.88-7.42c-2.23-1.11-4.26-2.5-6.34-3.88c-7.93-5.27-25.66-5.08-33.45,1.74c-3.04,2.66-7.33,3.96-10.8,6.4
		c-2.37,1.67-3.75,3.86-5.13,6.21c-4.73,8.01-6.07,17.07-8.08,25.91c-0.95,4.15-0.2,8.42-0.39,12.63
		c-0.14,7.21-0.44,14.41-0.47,21.62c-0.02,5.73,1.1,11.37,0.87,17.12c-0.17,4.23-0.48,8.43-0.83,12.65
		c-0.4,4.91-2.82,8.67-5.87,12.18c-2.1,2.41-3.87,2.44-6.42,0.28c-0.86-0.73-1.76-1.38-2.65-2.07c-3.06-2.36-5.12-5.11-5.54-9.26
		c-0.48-4.71-0.94-9.39-0.81-14.12c0.63-8.05,1.29-16.07-0.14-24.14c-0.69-3.91-0.6-7.97-0.04-11.89c0.63-4.45,0.64-8.88,0.64-13.34
		c0-2.33,0.54-4.71,1.3-6.9c2.56-7.39,5.3-14.73,8.31-21.95c1-2.4,2.26-4.63,4.58-6.19c2.32-1.56,3.13-4.45,5-6.46
		c9.17-9.89,20.59-15.29,33.85-17.36c5.72-0.89,11.53-0.84,17.1-0.48c6.05,0.38,12.25,2.04,18.03,4.41c1.62,0.66,3.23,1.3,4.9,1.82
		c1.81,0.56,3.66,1.35,4.53,3.09c1.73,3.48,4.78,5.31,8,7c2.39,1.26,4.16,2.97,5.39,5.46c2.54,5.13,5.79,9.86,8.7,14.79
		c1.87,3.16,2.56,6.68,3.43,10.16c2.13,8.48,2.44,17.18,3.18,25.82c0.18,2.13-0.08,4.23-0.24,6.32c-0.41,5.23-0.4,10.4,0.3,15.61
		c0.68,5.08-1.03,10.06-1.04,15.17c-0.01,4.66-0.5,9.38-1.05,14.06c-0.15,1.23-0.07,2.46-0.55,3.66c-1.98,4.93-3.02,5.61-8.19,4.42
		C783.88,472.34,780.64,472.53,778.58,469.82z"/>
	<path class="st4" d="M778.58,469.82c3.72,0.95,7.41,1.99,11.15,2.81c2.35,0.51,4.95-2.93,5.31-6.85c0.21-2.21,0.33-4.48,0.35-6.66
		c0.08-9.39,2.22-18.73,0.59-28.16c-0.31-1.82-0.36-3.75-0.13-5.58c1.62-12.78-0.38-25.34-2.36-37.88
		c-0.96-6.1-4.57-11.09-7.72-16.23c-0.58-0.95-1.41-1.79-1.79-2.81c-2.17-5.89-6.1-10.04-11.89-12.49c-0.78-0.33-1.8-0.78-2.1-1.44
		c-3.76-8.26-12.09-8.01-19.06-10.18c-2.22-0.69-4.63-0.8-6.76-1.9c-0.55-0.28-1.19-0.76-1.71-0.67
		c-7.89,1.36-16.05-0.52-23.84,2.11c-3.17,1.07-6.72,1.31-9.62,2.83c-7.45,3.9-14.76,8.13-19.59,15.45
		c-1.4,2.13-2.39,4.72-5.31,5.43c-1.14,0.28-1.22,1.41-1.6,2.33c-2.62,6.29-5.13,12.62-7.21,19.12c-1.11,3.46-2.55,6.83-3.44,10.34
		c-0.4,1.57,0.19,3.38,0.35,5.08c0.62,6.59-3.13,13.04-1.34,19.47c1.99,7.14,1.06,14.24,1.33,21.36c0.06,1.5,0.09,2.99-0.75,4.34
		c-0.5,0.44-1,0.44-1.5,0c0-2.24,0-4.48,0-6.73c0.05-1.05-0.16-2.16,0.75-2.99c-0.25-8.8-0.97-17.58-0.8-26.4
		c0.19-9.42-0.01-18.95,3.93-27.72c3.68-8.2,5.84-17.49,12.3-23.98c7.35-7.38,14.4-15.53,25.42-18.17
		c5.41-1.29,10.55-3.6,15.97-5.04c5.64-1.5,11.15-0.79,16.42,0.63c7.15,1.93,14.05,4.82,21.04,7.35c2.35,0.85,4.41,1.98,5.86,4.31
		c1.51,2.43,3.95,4.13,6.53,5.43c2.68,1.35,4.57,3.33,5.81,6.05c1.23,2.71,2.69,5.25,4.77,7.5c4.85,5.26,5.69,12.17,7.3,18.74
		c2,8.18,3.68,16.46,3.44,24.89c-0.13,4.31-0.66,8.63-0.61,12.97c0.04,2.97-0.02,5.91,0.63,8.88c0.69,3.16-1.12,6.35-1.14,9.34
		c-0.07,7.34-1.62,14.5-1.72,21.79c-0.05,3.53-2.55,5.8-4.18,8.51c-0.17,0.28-0.59,0.47-0.93,0.59
		C787.91,476.6,779.61,472.63,778.58,469.82z"/>
	<path class="st6" d="M669.95,449.65c0.5,0,1,0,1.5,0c-0.49,5.85,0.75,11.55,1.51,17.3c0.14,1.09,0.79,1.78,1.48,2.49
		c1.47,1.52,3.09,2.83,4.77,4.12c4.31,3.32,4.17,3.23,7.89-0.97c4.34-4.9,4.07-10.98,4.47-16.72c0.78-11.12-1.22-22.25-0.62-33.4
		c0.2-3.68,0.45-7.36,1.49-10.93c1.05,0.85,0.72,2.04,0.74,3.13c0.04,2.49,0.22,5-0.03,7.47c-1.03,10.19,2.08,20.16,1.47,30.29
		c-0.33,5.62-0.53,11.38-3.06,16.59c-1.63,3.36-4.25,6.09-6.63,8.95c-0.79,0.95-1.76,1.06-2.66,0.51c-4.24-2.62-8.43-5.46-11.1-9.7
		c-1.4-2.22-0.63-5.31-1.05-8.01C669.57,457.14,669.97,453.36,669.95,449.65z"/>
	<path class="st6" d="M670.7,439.93c-0.11,1.03,0.35,2.2-0.75,2.99C668.92,441.6,668.58,440.46,670.7,439.93z"/>
	<path class="st6" d="M592.04,343.54c-4.51,0.82-8.93-0.5-13-1.75c-5.78-1.76-11.35-0.49-16.95-0.35
		c-10.86,0.26-21.11,3.72-31.32,7.15c-2.24,0.75-3.88,1.83-5.13,3.94c-1.76,2.96-5.27,3.61-8.15,4.87
		c-2.21,0.96-4.03,2.32-5.07,4.16c-1.92,3.38-3.89,6.45-7.36,8.52c-1.5,0.9-2.45,2.7-3.66,4.1c-0.09-1.73,0.57-3.2,1.78-4.35
		c5.9-5.59,10.16-12.99,18.07-16.36c1.11-0.47,1.6-1.47,2.3-2.35c1.57-1.96,3.6-3.06,6.02-4.05c6.76-2.76,13.96-4.33,20.42-7.88
		c2.19-1.2,4.65-1.78,7.37-1.74c4.36,0.06,8.7-0.32,13.12-0.05c6.97,0.43,13.28,2.88,19.76,4.89
		C590.9,342.5,591.44,343.11,592.04,343.54z"/>
	<path class="st6" d="M593.54,478.04c5.82-2.46,10.99-6.24,17.07-8.17c2.1-0.67,3.45-2.16,4.55-4.14c1.63-2.96,4.22-5.08,7.34-6.39
		c1.23-0.52,2.43-1.27,2.83-2.28c2.4-5.99,6.85-10.82,9.45-16.62c2.42-5.39,3.55-11.28,4.42-17.15c1.08-7.31,1.49-14.66,0.07-21.99
		c-0.22-1.15,0.16-2.21,0.71-3.21c2.83,6.98,2.89,14.31,1.79,21.52c-0.81,5.35-1.98,10.75-4.19,15.76c-0.87,1.97,0,3.82-0.49,5.78
		c-1.01,4.07-4.94,5.91-6.48,9.4c-3.82,8.67-11.47,13.88-18.06,20.03c-2.84,2.65-6.96,3.14-10.23,5.16c-0.52,0.32-1.3,0.4-1.62,0.83
		c-5.15,6.84-13.11,6.11-20.26,7.38c-3.57,0.64-7.25,1.86-10.89,0.06c0.28-0.53,0.72-0.88,1.23-1.15c0.34-0.17,0.7-0.29,1.08-0.37
		c2.4-0.44,4.88,0.15,7.25-0.59c0.37-0.11,0.74-0.17,1.12-0.2c1.68,0.01,3.37,0.26,5.05,0.06c0.25,0,0.5,0,0.75,0
		C588.72,480.88,591.35,479.91,593.54,478.04z"/>
	<path class="st4" d="M571.06,483.27c-0.32,0.6-0.88,0.73-1.5,0.75c-4.15,1.78-8.54,0.57-12.73,0.51
		c-4.18-0.05-8.71-0.09-12.65-2.26c-0.87-0.48-1.8,0.01-2.47-0.23c-7.71-2.75-14.72-6.74-20.84-12.22
		c7.02,3.42,15.04,4.51,21.42,9.46c2.17,1.68,5.01,1.99,7.8,1.75c0.2-0.04,0.4-0.08,0.6-0.13
		C557.55,481.09,564.43,481.12,571.06,483.27z"/>
	<path class="st6" d="M637.74,389.12c-2.04-5.58-5.99-10.11-8.76-15.31c-2.48-4.67-4.49-10.15-9.51-13.21
		c-0.31-0.19-0.31-0.9-0.46-1.37c3.01,1.11,5.01,2.98,6.57,6.01c2.6,5.05,5.98,9.7,9.13,14.46
		C636.61,382.58,637.61,385.69,637.74,389.12z"/>
	<path class="st6" d="M618.26,358.48c-1.18,0.11-2.12-0.35-3.06-1.06c-3.72-2.82-7.63-5.41-11.2-8.4c-2.32-1.95-5.44-1.46-7.78-3.15
		c-0.68-0.49-1.55-0.72-1.93-1.57c7.16,1.41,13.61,4.22,18.86,9.45C614.79,355.38,616.55,356.9,618.26,358.48z"/>
	<path class="st4" d="M498.39,442.92c1.03,0.42,1.26,1.35,1.64,2.29c2.14,5.32,5.32,9.85,9.9,13.43c2.21,1.73,3.9,4.02,4.94,6.7
		c-6.27-6.3-13.77-11.62-16.62-20.68C498.03,443.97,498.21,443.49,498.39,442.92z"/>
	<path class="st4" d="M514.88,465.34c1.53,1.2,3.56,1.81,4.49,3.74C516.82,469.09,515.46,467.67,514.88,465.34z"/>
	<path class="st6" d="M501.39,374.17c0.07,1.28-0.13,2.42-1.5,2.99C500.01,375.98,500.42,374.93,501.39,374.17z"/>
	<path class="st4" d="M432.47,317.38c-2.45-5.76-7.19-9.78-11.1-14.42c-1.02-1.21-2.04-1.46-2.82,0.22
		c-2.57,5.56-5.85,10.75-6.4,17.17c-0.76,8.81-0.34,17.54-0.06,26.34c0.43,13.4-0.88,26.8-0.65,40.23
		c0.23,13.19,0.05,26.39,0.05,39.59c0,6.21,0.96,12.34,2.28,18.36c2.37,10.86,8.88,19.33,16.63,26.97c1.01,0.99,2.34,1.34,3.61,1.86
		c2.64,1.08,5.25,2.24,7.24,4.47c1.99,2.22,4.57,2.69,7.56,3.06c4.07,0.51,8.05,1.09,12.13,0.43c1.09-0.18,2.19-0.39,3.26-0.67
		c2.26-0.6,2.57-1.98,0.98-3.5c-2.21-2.1-3.85-4.44-4.94-7.32c-0.85-2.26-3.26-3.07-5.36-3.67c-6.57-1.88-11.12-6.15-15.8-10.98
		c-5.42-5.6-5.48-12.44-7.04-19.06c-0.07-0.29,0.27-0.68,0.43-1.02c1.82,0.96,1.94,2.84,2.19,4.48c2.07,13.15,9.93,21.46,22.29,25.3
		c6.53,2.03,10.61,5.17,11.64,12.23c0.45,3.07-0.71,4.25-3.02,4.88c-5.44,1.49-10.84,1.88-16.57,0.7
		c-15.1-3.11-25.53-12.15-32.49-25.22c-3.44-6.47-4.48-13.94-5.63-21.25c-1.7-10.75-0.04-21.59-1.03-32.31
		c-0.98-10.7-0.79-21.38-0.44-32.03c0.27-8.19,0.55-16.37,0.55-24.56c0-6.32-1.03-12.6-0.78-18.95c0.21-5.26,0.97-10.51,1.89-15.59
		c0.81-4.47,4.22-8.33,7.3-11.94c1.46-1.72,3.11-0.85,4.28,0.23c3.2,2.96,6.24,6.09,9.3,9.2
		C434.01,312.7,431.95,315.15,432.47,317.38z"/>
	<path class="st3" d="M1085.97,288.1c-8.14-12.48-20.49-17.15-34.99-15.11c-16.13,2.27-28.03,14.27-29.59,28.71
		c0.29,0.56,0.58,1.2,1.19,1.39c3.24,0.99,3.77,3.34,3.83,6.38c0.07,3.34,0.7,6.67,1.13,10c0.2,1.54,0.68,3.14,2.48,3.29
		c1.7,0.14,2.79,0.73,3.5,2.25c0.41,0.87,1.23,1.25,2.2,0.91c1.19-0.43,1.21-1.46,1.08-2.49c-0.11-0.87-0.33-1.73-0.67-2.52
		c-2.25-5.25-3.2-10.43,0-15.45c0-0.51,0.01-1.02,0.02-1.53c3.11-18.98,21.74-21.58,31.68-14.3c8.33,6.11,11.06,18.45,6.12,28.11
		c-0.56,1.09-1.16,2.17-1.74,3.25c-0.1,0.11-0.21,0.22-0.31,0.33c1,2.61,1.96,5.44,5.12,5.98c2.62,0.45,5.38,0.79,8.04-0.17
		c0.32-0.36,0.72-0.67,0.96-1.08C1093.73,313.39,1094.05,300.47,1085.97,288.1z"/>
	<path class="st5" d="M435.46,331.58c3.07,5.04,6.75,9.32,12.64,11.33c3.51,1.2,7.11,2.21,10.32,4.2c2.34,1.45,2.26,2.64-0.02,4.09
		c-1.79,1.14-3.56,2.25-5.62,2.88c-9.07,2.76-15.63,8.79-20.14,16.76c-2.84,5.02-4.6,10.72-4.64,16.67
		c-0.07,12.32-0.04,24.65-0.02,36.97c0.01,9.59,2.89,18.6,6.45,27.28c3.12,7.61,9.59,12.15,17.17,15.07
		c4.48,1.72,7.41,5.96,7.03,10.49c-0.21,2.44-2.23,3.04-4.09,2.88c-4.34-0.36-8.7-1.02-12.2-3.96c-2.34-1.97-5.03-3.24-7.88-4.07
		c-3.33-0.97-5.67-2.86-7.18-5.95c-1.31-2.68-2.79-5.2-5.52-6.84c-2.64-1.59-3.45-4.41-4.08-7.25c-1.94-8.72-2.32-17.62-3.33-26.45
		c-0.76-6.62,0.19-13.09,0.09-19.62c-0.39-25.49-0.92-50.97-0.69-76.47c0.05-5.29,2.18-10.35,1.49-15.78c-0.28-2.23,1.81-4,3.11-5.8
		c0.86-1.2,2.05-1.25,3.31-0.49c2.32,1.39,3.87,3.25,4.87,5.86C428.93,319.71,431.08,326.2,435.46,331.58L435.46,331.58z"/>
	<path class="st5" d="M933.71,393.52c6.14-8.97,7.97-8.44,2.05-18.43c-0.55-0.92-1.01-1.96-0.13-2.7c1.2-1,1.63,0.37,2.25,1.06
		c1.52,1.69,2.92,3.56,4.37-0.21c0.49-1.27,2.24-1.43,3.68-1.25c1.57,0.2,1.65,1.41,2.03,2.67c1.76,5.89,4.44,11.45,5.78,17.54
		c0.75,3.4,0.74,6.26-0.76,9.27c-1.09,2.2-1.09,5.58-3.14,6.52c-3.94,1.8-7.94,4.69-12.63,3.46c-3.99-1.05-8.26-0.17-12.09-2.06
		c-0.84-0.41-2.19-0.13-2.32-1.4c-0.12-1.19,1.19-1.55,1.93-2.04c4.53-3.01,7.79-6.86,8.88-12.31
		C933.6,393.65,933.71,393.52,933.71,393.52z"/>
	<path class="st2" d="M832.52,433.21c-2.05-0.86-1.81-3-2.05-4.51c-0.66-4.15-2.13-8.35-0.37-12.6c0.18-0.44,0.23-1,0.15-1.47
		c-1.54-8.99,1.13-17.18,3.87-25.62c1.47-4.52,3.26-9.01,4.37-13.68c0.5-2.12,1.73-3.53,3.88-4.08c3.36-0.86,5.33-3.06,6.07-6.38
		c0.81-3.63,2.78-5.88,6.7-6.34c3.81-0.45,6.93-1.7,6.94-6.5c0-2.15,1.55-3.39,3.77-4c10.93-3,22.01-4.9,33.39-4.48
		c7.93,0.29,15.73,1.7,23.49,3.25c1.28,0.26,3.02,0.94,3.5,1.93c1.9,3.89,5.05,5.92,8.93,7.33c0.92,0.34,1.5,1.58,2.24,2.41
		c-4.27-2.25-9.45-3.05-11.82-8.23c-1.03-2.25-3.77-2.02-5.93-2.54c-13.43-3.24-26.92-3.46-40.58-1.47
		c-3.87,0.56-7.42,1.86-11.13,2.68c-4.11,0.9-5.04,2.94-3.96,6.57c-1.19,3.56-4.31,4.68-7.44,5.44c-2.96,0.72-4.85,2.13-5.71,5.13
		c-0.66,2.3-1.87,4.68-4.04,5.64c-5.67,2.5-7.4,7.63-8.61,12.76c-1.59,6.74-4.97,12.97-5.2,20.11c-0.1,3.2-0.66,6.37-0.28,9.62
		c0.7,5.88-1.34,11.84,0.38,17.72C833.24,432.37,832.88,432.84,832.52,433.21z"/>
	<path class="st5" d="M943.11,370.71c-4.93,2.29-6.21-2.39-8.92-4c-1.63-0.97-3.07-2.53-3.88-4.43c-0.42-0.98-1.1-1.64-2.28-1.55
		c-3.49,0.29-4.02-2.72-5.33-4.83c-0.35-0.56-0.26-1.25,0.35-1.63c0.25-0.16,1-0.07,1.02,0.02c0.98,4.46,5.4,3.23,8.11,4.67
		c3.37,1.78,6.82,2.85,7.09,7.51C939.38,368.43,941.44,369.32,943.11,370.71z"/>
	<path class="st1" d="M932.91,413.03c-9.63,0.12-19.21-0.24-28.63-2.6c-1.68-0.42-4.52,0.58-4.57-1.7c-0.04-2.3,2.98-1.43,4.62-1.98
		c6.36-2.14,12.92-3.43,19.59-4.18c-1.65,1.85-4.06,1.66-6.16,2.2c-3.57,0.91-7.2,1.58-10.81,2.37c-0.77,0.17-1.45,0.53-1.45,1.42
		c0.01,0.89,0.69,1.26,1.46,1.41c4,0.73,7.9,1.89,12.09,1.65C923.7,411.35,928.35,411.95,932.91,413.03z"/>
	<path class="st1" d="M953.88,410.04c-1,0.25-2,0.5-3,0.75c4.56-5.9,7.24-12.18,4.54-19.79c-1.44-4.05-2.54-8.22-3.79-12.34
		C957.91,388.73,959.91,399.1,953.88,410.04z"/>
	<path class="st1" d="M949.39,411.54c-2.27,3.1-5.33,1.91-8.24,1.49C943.7,411.48,946.8,412.89,949.39,411.54z"/>
	<path class="st1" d="M941.15,413.03c-2.75,1.21-5.49,1.21-8.24,0C935.65,413.03,938.4,413.03,941.15,413.03z"/>
	<path class="st2" d="M832.52,433.21c-2.18-5.79-0.37-11.74-0.77-17.6c-0.61-8.98,0.78-17.49,3.96-26.01
		c1.53-4.07,2.83-8.41,4-12.69c0.5-1.83,1.49-3.05,3.21-3.83c3.96-1.8,6.61-4.74,7.59-9.05c0.5-2.2,1.8-3.26,4.11-3.6
		c3.65-0.53,6.82-2.19,9.36-4.94c0.57,3.36-0.63,5.22-4.17,6.08c-4.61,1.12-6.79,4.8-7.73,9.17c-0.43,2.01-1,4.06-2.48,5.32
		c-6.06,5.14-7.1,12.38-7.95,19.44c-0.66,5.5-1.21,11.08-0.98,16.7c0.13,3.13,0.34,6.16,1.58,9.05c-0.61,0.49-1.37,0.54-2.09,0.73
		c-6.87,1.8-7.12,2.2-5.42,9.23c0.99,4.1,3.07,7.85,3.91,12.01c0.29,1.43,1.13,2.83-0.15,4.18
		C834.67,443.44,834.65,437.88,832.52,433.21z"/>
	<path class="st5" d="M838.51,447.4c-0.52-4.3-1.88-8.39-3.62-12.31c-1.39-3.12-1.34-6.5-2.28-9.68c-0.21-0.71-0.1-1.75,0.61-2
		c2.92-1.05,5.62-3.18,9.04-2.16c0.75,3.37,1.44,6.74,2.28,10.09c1.1,4.38,3.18,8.02,6.71,10.84c0.01,0.62,0.15,1.17,0.75,1.49
		c1.19,5.24,3.36,9.72,8.47,12.42c1.8,0.95,3.33,2.82,3.9,4.81c1.28,4.45,4.77,5.36,8.56,5.91c1.71,0.25,3.5,0.23,5.16,0.65
		c2.3,0.58,2.61,2.14,0.89,3.79c-1.45,1.39-3.21,1.77-5.19,1.45c-2.7-0.43-5.37-1.08-8.12-1.14c-0.36,0.04-0.72,0-1.07-0.11
		c-0.84-0.52-1.13-1.23-0.82-2.19c0.13-0.39,0.54-1.15-0.3-0.92c-2.7,0.74-3.33-1.57-4.55-2.92c-1.94-2.14-4.36-3.08-7.17-3.22
		c-0.32-0.14-0.59-0.35-0.79-0.64c-2.57-2.68-4.9-5.51-6.41-8.97c-0.96-2.19-3.01-3.18-5.23-3.79c-0.29-0.18-0.56-0.4-0.81-0.63
		C838.51,447.9,838.51,447.65,838.51,447.4z"/>
	<path class="st2" d="M864.73,471.32c2.96-1.78,5.8,0.33,8.71,0.29c0.72-0.01,1.49,0.47,2.17,0.34c1.62-0.3,3.65-0.98,3.66-2.65
		c0.01-1.83-2.11-1.72-3.56-1.7c-2.75,0.03-5.46-0.01-8.05-1.18c-2.05-0.92-3.5-2.04-3.75-4.58c-0.27-2.77-2.48-4.52-4.64-5.91
		c-4.54-2.91-6.98-6.93-7.27-12.27c1.89,3.27,2.23,7.54,5.73,9.77c3.76,2.39,6.25,5.77,8.86,9.27c2.25,3.02,6.22,3.38,9.74,4.04
		c3.73,0.7,7.16,2.11,10.21,4.23c6.05,4.22,12.55,5.77,19.76,4c1.32-0.32,2.92-0.52,3.82-1.37c2.93-2.78,6.65-4.11,10.06-6.03
		c0.93-0.51,1.91-0.86,3-0.75c3.5-0.42,6.94-1.41,10.48-1.43c3.2-0.02,3.91,1.49,2.26,4.42c-1.91,1.89-4.62,1.51-6.9,2.41
		c-4.14,1.64-8.28,3.17-11.82,5.99c-2,1.59-4.44,1.97-6.97,2.08c-2.93,0.12-5.95-0.61-8.78,0.73c-1.5-0.26-3,1.21-4.49,0
		c-1.47-0.86-3.13-0.97-4.68-0.71c-6.39,1.09-11.51-2.18-16.72-4.85c-3.24-1.65-6.56-2.7-10.06-3.41c-0.25,0-0.5,0-0.75,0
		c-0.19-0.17-0.25-0.33-0.19-0.5C864.61,471.4,864.67,471.32,864.73,471.32z"/>
	<path class="st2" d="M851.25,442.17c-2.75-0.73-4.58-2.76-5.45-5.15c-1.85-5.08-3.63-10.24-3.54-15.78
		c1.18,1.66,1.32,3.65,1.68,5.54C845.03,432.57,847.83,437.51,851.25,442.17z"/>
	<path class="st2" d="M901.44,481.03c1.26-1.53,3-1.57,4.76-1.49c4.52,0.21,8.38-0.59,12.43-3.42c4.98-3.48,11.17-5.12,17.27-6.3
		c-0.62,1.13-1.4,2.06-2.79,2.21c-5.76,0.6-10.44,3.49-14.96,6.82c-2.38,1.75-5.22,2.16-8.12,2.17
		C907.17,481.04,904.3,481.03,901.44,481.03z"/>
	<path class="st2" d="M865.48,472.06c5.39-0.36,9.9,2.38,14.27,4.72c3.82,2.04,7.51,2.96,11.68,2.77c1.96-0.09,4.03-0.32,5.51,1.48
		c-0.12,0-0.25,0-0.37,0c-6.99,0.29-13.89,0.3-19.93-4.13C873.32,474.47,869.24,473.58,865.48,472.06z"/>
	<path class="st2" d="M839.26,448.15c2.03-0.09,3.78,0.74,4.86,2.31c2.49,3.63,4.76,7.42,7.13,11.14c-0.25,0.26-0.5,0.26-0.75,0
		c-1.8-1.2-3.29-2.69-4.49-4.48c-2-2.05-2.46-5.29-5.24-6.73C840.16,449.71,838.78,449.55,839.26,448.15z"/>
	<path class="st2" d="M935.9,469.82c1.09-2.73,0.22-3.99-2.77-3.74c-3.32,0.27-6.65,0.5-9.97,0.75c3.45-1.26,7.08-1.67,10.67-2.2
		c2.26-0.33,3.36,1.34,3.96,3.17C938.3,469.32,937.09,469.66,935.9,469.82z"/>
	<path class="st4" d="M919.42,465.34c4.02-2,8.44-2.68,12.74-3.74C928.65,465.36,924.03,465.33,919.42,465.34z"/>
	<path class="st2" d="M850.5,461.6c0.25,0,0.5,0,0.75,0c4.61,1.5,7.79,4.79,10.66,8.47c-0.06,0.16-0.11,0.33-0.17,0.49
		C857.08,468.71,853.71,465.26,850.5,461.6z"/>
	<path class="st2" d="M840.76,450.39c3.51,0.88,3.8,4.25,5.24,6.73C843.32,455.6,842.92,452.32,840.76,450.39z"/>
	<path class="st4" d="M916.43,466.09c0.79-1.09,1.96-0.64,3-0.75C918.76,466.93,917.68,466.84,916.43,466.09z"/>
	<path class="st2" d="M839.26,448.15c0.5,0.75,1,1.49,1.5,2.24c-1.43-0.07-2.18-0.81-2.25-2.24
		C838.76,448.15,839.01,448.15,839.26,448.15z"/>
	<path class="st2" d="M864.73,471.32c0,0.25,0,0.5,0,0.75c-1.28,0.07-2.43-0.13-3-1.49C863.06,469.51,863.78,470.89,864.73,471.32z"
		/>
	<path class="st4" d="M936.65,460.85c1.43,0.07,2.18,0.81,2.25,2.24C937.89,462.61,937.14,461.86,936.65,460.85z"/>
	<path class="st1" d="M357.55,416.77c2.54-0.08,3.63,2.72,5.99,2.99c1.18,3.71,3.23,6.89,6.14,9.44c2.1,1.84,3.02,3.86,2.94,6.74
		c-0.09,3.4,0.99,6.79,0.66,10.25c-0.12,1.18,0.39,2.5-0.75,3.46c0.08,4.38-1.74,7.67-5.3,10.29c-1.81,1.33-2.19,3.8-3,5.87
		c-1.28,3.26-3.21,5.75-7.09,6.17c-2.38,0.26-4.4,1.63-6.41,2.84c-3.5,2.11-6.18,1.74-7.86-1.22c-1.52-2.68-0.35-4.97,3.45-6.75
		c8.34-2.63,10.48-9.21,10.9-16.93c0.05-0.92-0.76-2.34,1.04-2.65c1.28,1.17,1.03,2.75,0.98,4.2c-0.09,3.11-0.59,6.19-1.1,9.24
		c-0.61,3.57-2.74,6.05-6.34,7.35c5.33,2.02,7.74,0.64,9.54-4.3c2.21-6.07,4.01-12.27,5.76-18.44c1.39-4.92,0.31-10.1-2.63-14.57
		c-0.75-1.14-1.81-2.09-2.41-3.31c-3.91-7.98-11.92-7.9-18.99-9.6c-1.09-0.26-2.84-0.21-2.98,1.42c-0.11,1.34,1.47,1.52,2.48,1.85
		c9.17,3,13.32,10.23,15.95,18.74c0.36,1.17,0.73,2.4,0.11,3.63c-0.92,0.88-1.33,0.06-1.81-0.54c-1.5-3.24-3-6.48-4.49-9.71
		c-1.27-2.89-3.55-4.88-5.99-6.73c-1.98-1.72-4.3-2.85-6.74-3.74c-3.69-0.68-7.06-1.75-10.11-4.29c-3.89-3.24-9-4.33-13.82-5.26
		c-5.16-0.99-9.88-3.36-15.08-4.1c-0.74-0.1-1.47-0.92-2.04-1.55c-2.63-2.93-5.84-5.02-9.41-6.59c-2.01-0.89-3.65-2.19-4.56-4.21
		c-2.68-5.94-6.03-11.66-6.41-18.4c-0.09-1.52,0.07-2.99,0.68-4.38c2.17-4.97,2.74-10.65,5.95-15.1c3.72-5.17,9.21-8.55,14.3-12.21
		c2.9-2.08,6.79-0.59,10.2-1.53c4.07-1.12,8.29-1.25,12.52-0.17c3.08,0.78,6.14-0.58,9.25-0.7c8.83-0.33,17.33,1.42,25.76,3.76
		c0.73,0.6,1.89,1.02,1.54,2.22c-0.3,1.05-1.31,1.32-2.32,1.51c-2.26,0.42-4.65,0.21-6.71,1.51c-1.03,0.59-1.82,0.45-2.25-0.75
		c-3.95-0.83-7.99-0.97-11.99-1.49c-1.38-0.97-3.11,0.19-4.49-0.75c-1.58-0.26-3,0.5-4.49,0.75c-5.68-1.01-11.3-0.56-16.9,0.68
		c-3.64,0.8-6.53,2.53-7.83,6.13c-1.25,3.47-4.16,5.8-5.78,9.06c-2.16,4.33-1.65,8.39,0.19,12.45c3.24,7.16,7.39,13.08,14.49,17.69
		c5.87,3.81,11.67,6.71,18.26,8.51c1.7,0.46,3.35,0.87,5.12,0.78c2.7-0.13,5.45,0.58,7.41,2.1
		C346.04,412.31,352.08,413.95,357.55,416.77z"/>
	<path class="st1" d="M346.31,466.83c-3.94,3.19-4.35,5.85-1.22,7.94c1.44,0.96,2.77,1.37,4.31-0.11c2.01-1.94,4.66-3.1,7.36-3.22
		c3.8-0.18,5.61-2.41,6.65-5.45c1.2-3.47,2.74-6.67,5.76-8.83c2.68-1.91,2.1-5.07,3.35-7.51c0.78,4.42-0.33,7.94-4.48,10.31
		c-0.96,0.55-1.82,1.9-2.04,3.02c-0.74,3.73-3.1,6.39-5.46,9.09c-3.9-0.16-7.52,1.55-9.58,4.24c-3.8,4.96-9.24,4.72-14.09,5.19
		c-9.84,0.94-19.74-0.42-29.62-0.88c-4.79-0.22-7.5-3.39-10.86-5.73c-1.49-1.03-2.68-2.3-4.6-1.07c-0.74,0.48-1.34,0.17-2.05-0.23
		c-2.48-1.38-4.77-3.09-7.5-4.1c-2.01-0.75-1.9-2.33,0.04-3.11c2.59-1.04,5.09-1.95,8.21-0.96c4.45,1.42,9.16,2.01,13.77,2.87
		c1.65,0.31,3.1,1.03,4.42,1.92c9.43,6.35,18.7,6.24,28.51,0.45C339.9,469.08,342.78,466.87,346.31,466.83z"/>
	<path class="st1" d="M356.8,442.92c0.5,0.25,1,0.5,1.5,0.75c1.07,1.25,1.07,2.49,0,3.74c-1.67,2.39-0.83,5.25-1.28,7.85
		c-1.09,6.42-4.38,10.25-10.71,11.58c0.52-1.31,1.78-1.73,2.9-2.17c4.39-1.72,6.02-5.49,6.72-9.58
		C356.61,451.09,357.18,447.02,356.8,442.92z"/>
	<path class="st4" d="M349.31,353.25c1.7-2.06,4.3-1.62,6.48-2.1c2.73-0.6,2.17-1.61,1.01-3.14c1.27,0.31,2.98,0.35,2.79,2.18
		c-0.16,1.57-1.77,1.97-3.05,2.2C354.15,352.81,351.72,352.98,349.31,353.25z"/>
	<path class="st4" d="M335.08,351.01c4.06-0.03,8.14-0.15,11.99,1.49C343,352.53,338.98,352.24,335.08,351.01z"/>
	<path class="st1" d="M346.31,426.48c2.97,1.38,5.51,3.14,5.99,6.73C350.31,430.96,348.31,428.72,346.31,426.48z"/>
	<path class="st1" d="M339.57,422.75c2.78,0.29,5.16,1.29,6.74,3.74C343.88,425.57,341.66,424.28,339.57,422.75z"/>
	<path class="st4" d="M330.58,350.26c1.5,0.24,3.18-0.61,4.49,0.75C333.58,350.77,331.9,351.62,330.58,350.26z"/>
	<path class="st4" d="M603.28,368.2c-5.94-3.35-11.93-6.62-17.8-10.09c-4.5-2.65-9.3-3.76-14.47-4.19
		c-6.6-0.55-13.03-0.08-19.44,1.43c-3.1,0.73-5.85,1.99-8.18,4.18c-0.53,0.5-1.14,1.04-1.81,1.28
		c-12.07,4.32-18.93,13.78-24.45,24.57c0.15-6.46,4.45-10.88,8.04-15.5c4.64-5.95,12.15-8.28,17.78-13.18
		c4.46-3.87,10.9-3.95,16.62-4.54c7.99-0.82,15.94,0.19,23.69,2.56c3.38,1.04,6.49,2.31,8.98,5c2.4,2.59,5.89,3.62,8.83,5.45
		C602.28,365.94,603.54,366.46,603.28,368.2z"/>
	<path class="st4" d="M511.13,407.8c2.1,11.52,5.12,22.87,10.04,33.45c2.27,4.88,5.41,9.77,10.78,12.82
		c2.43,1.38,4.78,3.76,6.94,5.86c3.86,3.76,8.7,4.53,13.58,5.38c1.05,0.18,2.01,0.16,2.11,1.52c-8.78-0.44-16.45-3.28-22.35-10.12
		c-1.37-1.58-2.85-3.21-4.61-4.27c-5.04-3.03-7.44-7.92-9.5-12.98c-2.32-5.71-4.14-11.62-6.35-17.37c-1.18-3.06-1.16-6.15-0.87-9.27
		c0.08-0.94,0.09-1.69-0.52-2.41C509.32,409.17,509.95,408.4,511.13,407.8z"/>
	<path class="st4" d="M517.12,385.38c0.04,2.37-0.49,4.66-1.54,6.73c-2.2,4.34-2.99,9.01-3.69,13.73c-0.11,0.73-0.07,1.48-0.76,1.97
		c-0.5-5.66-0.9-11.28,3.01-16.14C515.63,389.82,515.2,387.04,517.12,385.38z"/>
	<path class="st4" d="M593.54,478.04c-1.25,3.73-4.53,3.42-7.49,3.74C588.43,480.31,590.43,478.08,593.54,478.04z"/>
	<path class="st4" d="M585.3,481.78c-1.58,1.44-3.5,0.46-5.24,0.75c-0.47-0.86,0.35-1.07,0.75-1.49
		C582.34,481.01,583.91,480.89,585.3,481.78z"/>
	<path class="st1" d="M580.8,481.03c-0.25,0.5-0.5,1-0.75,1.49c-0.25,0-0.5,0-0.75,0c-2.76,0.16-5.57-0.38-8.24,0.75
		c-7.02-0.5-14.07-0.67-20.98-2.24C560.32,481.9,570.56,481.32,580.8,481.03z"/>
	<path class="st4" d="M571.06,483.27c2.61-1.76,5.35-2.07,8.24-0.75C576.68,484.12,573.8,482.88,571.06,483.27z"/>
	<path class="st2" d="M864.73,471.32c-1-0.25-2-0.5-3-0.75c-3.22-3.31-6.74-6.27-10.49-8.97c4.5-0.74,7.46,1.49,9.65,5.09
		c0.59,0.98,1.08,1.64,2.24,0.7c0.9-0.73,1.92-0.72,2.57,0.26c0.84,1.27-0.6,1.21-1.15,1.7
		C863.77,470.04,864.58,470.66,864.73,471.32z"/>
	<path class="st5" d="M325.29,412.35c-4.85-0.91-10.79-1.22-16.54-2.94c-3.44-1.03-5.65-3.86-8.88-5.31
		c-3.69-1.67-7.03-4.17-11.02-5.36c-0.77-0.23-1.74-0.83-2.02-1.51c-2.59-6.41-6.1-12.65-4.82-19.95c0.84-4.74,1.9-9.44,2.98-14.13
		c0.27-1.19,0.92-2.31,1.52-3.39c1.06-1.93,2.74-2.47,4.77-1.75c2.1,0.74,2.83,2.43,2.51,4.46c-0.25,1.58-0.95,3.08-1.35,4.64
		c-2.12,8.32,1.83,14.91,6.19,21.38c1.94,2.88,4.03,5.62,7.02,7.52c0.21,0.13,0.44,0.32,0.52,0.53c2.92,8.73,11.14,7.89,17.81,9.77
		c2.5,0.71,5.11,1.03,7.61,1.74c0.95,0.27,2.51,0.16,2.58,1.68c0.06,1.43-1.27,1.56-2.31,2.01
		C330.04,412.52,328.16,412.18,325.29,412.35z"/>
	<path class="st5" d="M358.3,447.4c0-1.25,0-2.49,0-3.74c-0.35-5.53-3.28-10.18-5.81-14.75c-2.25-4.06-7.16-5.48-11.39-7.29
		c-1.28-0.55-3.34-0.51-2.81-2.7c0.4-1.63,1.84-2.06,3.49-2.2c4.81-0.43,9,1.7,13.21,3.34c8.34,3.24,11.11,10.52,13.17,18.53
		c1.73,6.75-2.52,12.04-3.44,18.1c-0.41,2.69-2.16,5.26-2.66,8.07c-0.65,3.69-2.65,5.49-6.43,5.03c-2.02-0.25-5.21,1.1-5.81-0.81
		c-0.77-2.45,2.76-1.93,4.24-2.98c2.28-1.62,3.15-4,3.35-6.4C357.75,455.55,358.77,451.52,358.3,447.4z"/>
	<path class="st5" d="M498.39,428.28c0.39-0.86,0.74-1.79,1.2-2.66c0.82-1.56,1.33-2.62-0.91-3.81c-2.47-1.31-1.96-8.71,0.42-10.45
		c0.19-0.14,0.43-0.26,0.66-0.31c1.58-0.33,6.36,4.37,6.45,5.98c0.25,4.3,2.08,8.24,3.08,12.38c0.9,3.74,2.34,7.25,5.34,10.05
		c2.25,2.1,2.48,5.36,3.36,8.18c1.23,3.98,3.72,6.66,7.65,7.95c1.52,0.5,2.44,1.15,2.88,2.92c1.24,5.02,4.78,7.62,9.83,8.34
		c0.85,0.12,1.71,0.33,2.49,0.66c0.92,0.39,1.96,0.93,1.29,2.2c-0.47,0.88-1.37,1.93-2.35,1.45c-3.46-1.68-7.37-0.5-11-2.26
		c-2.25-1.09-3.84-2.14-5.13-4.13c-1.74-2.71-3.18-5.44-7.38-5.53c-2.67-0.06-4.59-2.74-5.37-5.55c-0.75-2.7-2.41-4.56-4.86-5.8
		c-1.12-0.57-2.27-1.09-2.46-2.56c-0.69-5.43-4.02-10.07-4.7-15.51C498.82,429.31,498.58,428.85,498.39,428.28z"/>
	<path class="st0" d="M648,393.07c-8.6-37.85-41.73-63.53-80.63-63.38c-7.26,0.15-13.37,0.51-19.35,1.9
		c-30.27,7.03-51.59,24.77-61.2,54.32c-9.54,29.33-4.45,56.87,16.49,80.02c20.88,23.08,47.75,30.61,78.12,25.62
		C628.32,483.83,658.44,439.03,648,393.07z M613.84,410.67c-0.01,23.58-11.96,41.6-31.22,48.23c-28.83,9.93-58.96-8.41-63.29-38.53
		c-2.3-16,0.44-30.86,11.15-43.38c12.18-14.24,28.22-18.38,46.02-14.56c17.96,3.86,29.25,15.66,34.95,32.88
		C613.22,400.66,614.03,406.2,613.84,410.67z"/>
	<path class="st2" d="M503.37,419.35c1.32,1.27,1.26,2.38,0.36,3.47c-0.13,0.16-0.8,0.16-0.95-0.01
		C501.64,421.58,502.4,420.57,503.37,419.35z"/>
</g>
</svg>
