<?xml version="1.0" encoding="utf-8"?>
<!-- Generator: Adobe Illustrator 24.0.1, SVG Export Plug-In . SVG Version: 6.00 Build 0)  -->
<svg version="1.1" xmlns="http://www.w3.org/2000/svg" xmlns:xlink="http://www.w3.org/1999/xlink" x="0px" y="0px"
	 viewBox="0 0 257.95 163.6" style="enable-background:new 0 0 257.95 163.6;" xml:space="preserve">
<style type="text/css">
	.st0{fill:#003819;}
	.st1{fill:#9DC00F;}
	.st2{fill:#003862;}
	.st3{fill:#34B0B1;}
	.st4{fill:#32A430;}
	.st5{display:none;}
	.st6{display:inline;}
</style>
<g id="layout">
	<g>
		<g>
			<g>
				<path d="M64.35,88.73c-0.6-0.32-1.07-1.02-1.07-1.94c0-1.25,0.97-2.27,2.27-2.27c0.46,0,0.88,0.14,1.21,0.32
					c2.37,1.57,4.82,2.36,7.05,2.36c2.41,0,3.8-1.02,3.8-2.64v-0.09c0-1.9-2.6-2.55-5.47-3.42c-3.62-1.02-7.65-2.5-7.65-7.17v-0.09
					c0-4.63,3.85-7.45,8.72-7.45c2.6,0,5.33,0.74,7.7,1.99c0.79,0.42,1.35,1.16,1.35,2.13c0,1.3-1.02,2.27-2.32,2.27
					c-0.46,0-0.74-0.09-1.11-0.28c-1.99-1.02-4.04-1.67-5.75-1.67c-2.18,0-3.43,1.02-3.43,2.41v0.09c0,1.81,2.64,2.55,5.52,3.47
					c3.57,1.11,7.61,2.73,7.61,7.13v0.09c0,5.14-3.99,7.68-9.09,7.68C70.56,91.64,67.18,90.67,64.35,88.73"/>
			</g>
			<g>
				<path d="M98.11,79.1v-0.09c0-6.99,5.57-12.77,13.08-12.77c7.51,0,13.03,5.69,13.03,12.68v0.09c0,6.94-5.57,12.73-13.13,12.73
					C103.63,91.73,98.11,86.04,98.11,79.1 M118.62,79.1v-0.09c0-4.3-3.11-7.87-7.51-7.87c-4.5,0-7.38,3.52-7.38,7.78v0.09
					c0,4.26,3.11,7.82,7.47,7.82C115.74,86.83,118.62,83.31,118.62,79.1"/>
			</g>
			<g>
				<path d="M132.07,88.61V76.83c0-2.76,2.02-5.17,4.77-5.48c3.25-0.36,5.99,2.17,5.99,5.34v11.92c0,1.55,1.26,2.8,2.81,2.8h0
					c1.55,0,2.81-1.25,2.81-2.8V77.25c0-6.06-4.92-10.97-10.99-10.97h0c-6.07,0-10.99,4.91-10.99,10.97v11.36
					c0,1.55,1.26,2.8,2.81,2.8l0,0C130.81,91.41,132.07,90.16,132.07,88.61z"/>
			</g>
			<g>
				<path d="M95.66,71.83c1.41,0,2.55-1.14,2.55-2.55v0c0-1.41-1.14-2.55-2.55-2.55h-4.31V62.6c0-1.55-1.26-2.8-2.81-2.8
					c-1.55,0-2.81,1.25-2.81,2.8v6.69v0v13.58v0.06v0.28h0.01c0.14,4.5,3.61,8.17,8.38,8.49c0.13,0.02,0.25,0.03,0.38,0.03h1.09
					c1.44,0,2.61-1.17,2.61-2.6v0c0-1.44-1.17-2.6-2.61-2.6h-0.76c-2,0-3.43-1.6-3.49-3.54V71.83H95.66z"/>
			</g>
			<g>
				<path d="M160.03,78.55c0,1.33,1.08,2.41,2.41,2.41h6.27h1.51h1.39c1.33,0,2.41-1.08,2.41-2.41c0-6.99-4.68-12.32-11.17-12.32
					c-7.39,0-12.45,5.79-12.45,12.77v0.09c0,6.94,5.43,12.64,12.77,12.64c3.16,0,5.96-1.05,8.14-2.78c1.24-0.99,1.3-2.85,0.11-3.9
					c-0.97-0.86-2.42-0.83-3.39,0.03c-1.22,1.09-2.85,1.74-4.78,1.74c-4.29,0-7.34-3.56-7.34-7.82v-0.09c0-4.26,2.42-7.78,6.84-7.78
					c2.92,0,4.98,2.09,5.78,5.01h-6.09C161.11,76.15,160.03,77.22,160.03,78.55z"/>
			</g>
			<g>
				<g>
					<path d="M182.13,62.75v-0.04c0-2.96,2.36-5.41,5.54-5.41c3.18,0,5.52,2.41,5.52,5.37v0.04c0,2.94-2.36,5.39-5.56,5.39
						C184.47,68.1,182.13,65.69,182.13,62.75 M190.81,62.75v-0.04c0-1.82-1.32-3.33-3.18-3.33c-1.91,0-3.12,1.49-3.12,3.29v0.04
						c0,1.8,1.32,3.31,3.16,3.31C189.59,66.02,190.81,64.53,190.81,62.75"/>
				</g>
				<path d="M172.15,62.73V62.7c0-2.97,2.24-5.4,5.45-5.4c1.57,0,2.63,0.42,3.49,1.06c0.24,0.18,0.45,0.51,0.45,0.91
					c0,0.63-0.51,1.12-1.13,1.12c-0.31,0-0.52-0.12-0.69-0.22c-0.64-0.48-1.31-0.75-2.13-0.75c-1.76,0-3.03,1.46-3.03,3.25v0.03
					c0,1.79,1.24,3.28,3.03,3.28c0.97,0,1.61-0.3,2.27-0.82c0.18-0.15,0.42-0.25,0.69-0.25c0.58,0,1.07,0.48,1.07,1.06
					c0,0.36-0.18,0.64-0.39,0.82c-0.94,0.82-2.04,1.31-3.71,1.31C174.43,68.1,172.15,65.73,172.15,62.73z"/>
				<circle cx="194.33" cy="66.7" r="1.21"/>
			</g>
		</g>
		<g>
			<rect x="62.41" y="99.17" class="st0" width="22.4" height="7.13"/>
			<rect x="107.02" y="99.17" class="st1" width="22.39" height="7.13"/>
			<rect x="151.62" y="99.17" class="st2" width="22.39" height="7.13"/>
			<rect x="129.41" y="99.17" class="st3" width="22.21" height="7.13"/>
			<rect x="84.81" y="99.17" class="st4" width="22.21" height="7.13"/>
		</g>
	</g>
</g>
<g id="medida_Stone_Co">
</g>
<g id="_x31__x2C_70_m" class="st5">
	<rect x="92.48" y="28.71" class="st6" width="73" height="481.89"/>
</g>
</svg>
