<?xml version="1.0" encoding="UTF-8" standalone="no"?>
<!-- Created with Inkscape (http://www.inkscape.org/) -->

<svg
   xmlns:dc="http://purl.org/dc/elements/1.1/"
   xmlns:cc="http://creativecommons.org/ns#"
   xmlns:rdf="http://www.w3.org/1999/02/22-rdf-syntax-ns#"
   xmlns:svg="http://www.w3.org/2000/svg"
   xmlns="http://www.w3.org/2000/svg"
   xmlns:sodipodi="http://sodipodi.sourceforge.net/DTD/sodipodi-0.dtd"
   xmlns:inkscape="http://www.inkscape.org/namespaces/inkscape"
   version="1.1"
   id="svg2"
   xml:space="preserve"
   width="852.01355"
   height="974.74451"
   viewBox="0 0 852.01358 974.74454"
   sodipodi:docname="Brasao-DASI-Branco.svg"
   inkscape:version="0.92.4 (5da689c313, 2019-01-14)"><metadata
     id="metadata8"><rdf:RDF><cc:Work
         rdf:about=""><dc:format>image/svg+xml</dc:format><dc:type
           rdf:resource="http://purl.org/dc/dcmitype/StillImage" /><dc:title></dc:title></cc:Work></rdf:RDF></metadata><defs
     id="defs6"><clipPath
       clipPathUnits="userSpaceOnUse"
       id="clipPath18"><path
         d="M 0,1000 H 1000 V 0 H 0 Z"
         id="path16"
         inkscape:connector-curvature="0" /></clipPath></defs><sodipodi:namedview
     pagecolor="#ffffff"
     bordercolor="#666666"
     borderopacity="1"
     objecttolerance="10"
     gridtolerance="10"
     guidetolerance="10"
     inkscape:pageopacity="0"
     inkscape:pageshadow="2"
     inkscape:window-width="1920"
     inkscape:window-height="1017"
     id="namedview4"
     showgrid="false"
     fit-margin-top="0"
     fit-margin-left="0"
     fit-margin-right="0"
     fit-margin-bottom="0"
     inkscape:pagecheckerboard="true"
     inkscape:zoom="0.50063163"
     inkscape:cx="594.66566"
     inkscape:cy="531.57716"
     inkscape:window-x="-8"
     inkscape:window-y="-8"
     inkscape:window-maximized="1"
     inkscape:current-layer="g10" /><g
     id="g10"
     inkscape:groupmode="layer"
     inkscape:label="Brasao-DASI-Branco"
     transform="matrix(1.3333333,0,0,-1.3333333,-240.65991,1154.0388)"><g
       id="g12"><g
         id="g14"
         clip-path="url(#clipPath18)"><g
           id="g20"
           transform="translate(813.3887,568.0391)"><path
             d="m 0,0 c -1.35,-26.61 -4.43,-52.97 -9.78,-79.08 -5.86,-28.94 -14.25,-57.06 -23.8,-84.88 -9.279,-27.22 -22.76,-52.46 -37.42,-77.01 -19.58,-32.66 -43.06,-62.15 -70.32,-88.389 -19.51,-18.771 -41.159,-34.761 -64.039,-49.221 -30.901,-19.46 -63.821,-34.26 -98.021,-46.649 -6.87,-2.5 -13.28,-2.761 -20.21,-0.231 -35.62,13.28 -70.57,27.91 -102.57,48.981 -4.39,2.929 -8.5,6.129 -12.76,9.29 -5.46,3.96 -11.93,8.649 -17.07,12.669 -21.59,16.94 -41.91,35.22 -59.62,56.32 -19.69,23.45 -36.28,49.04 -51.43,75.6 -16.44,28.8 -27.45,59.93 -37.54,91.38 -6.18,19.14 -10.84,38.63 -13.74,58.58 -1.75,11.88 -4.02,23.75 -6.01,35.65 -1.64,10.03 -2.41,20.12 -2.59,30.27 -0.31,14.63 -0.25,29.2 -0.02,43.86 0.2,16.22 1.78,32.43 4.42,48.5 5.03,29.63 12.31,58.72 22.19,87.1 6.93,19.66 15.35,38.6 24.12,57.54 9.43,20.33 21.36,39.16 32.97,58.19 0.26,0.48 0.69,0.83 1.01,1.17 1.49,0.38 2.73,-0.2 3.94,-0.66 14.43,-5.92 29.38,-9.68 44.7,-11.87 13.88,-1.95 27.59,-4.4 41.59,-5.14 11.5,-0.61 23.03,-0.87 34.55,-0.52 31.8,0.86 63.16,5.23 93.26,16.12 7.44,2.68 13.94,2.45 21.15,-0.14 19.69,-6.81 39.96,-11.41 60.601,-13.83 6.349,-0.69 12.79,-1.15 19.199,-1.46 8.28,-0.38 16.591,-0.84 24.89,-0.84 20.07,0 39.9,2.39 59.741,4.92 16.96,2.18 33.199,6.44 49.21,12.68 1.21,0.46 2.529,0.66 4.139,1.18 5.63,-9.09 11.47,-18 16.73,-27.2 19.921,-34.69 36.1,-71.03 47.86,-109.35 8.05,-26.36 13.8,-53.32 17.33,-80.66 C -0.26,48.7 1.23,24.38 0,0 m -3.97,112 c -10.889,52.54 -30.3,101.67 -56.139,148.3 -6.901,12.53 -15.381,24.06 -21.901,37.19 -3.05,-0.98 -6.099,-1.87 -9.12,-2.84 -6.059,-2.02 -12.04,-4.4 -18.19,-6.27 -10.869,-3.33 -21.96,-5.23 -33.26,-6.58 -13.54,-1.53 -26.91,-3.77 -40.56,-4.03 -13.25,-0.29 -26.5,-0.52 -39.67,0.26 -15.46,0.98 -30.79,2.85 -45.96,6.18 -13.69,2.99 -26.94,7.22 -40.3,11.38 -3.22,1.04 -6.1,1.13 -9.32,0.03 -7.85,-2.64 -15.75,-5.17 -23.74,-7.38 -38.75,-10.87 -78.19,-12.42 -118,-9.49 -9.95,0.69 -19.84,2.5 -29.73,3.91 -14.94,2.36 -29.75,5.12 -43.8,11.15 -3.8,1.55 -7.68,3.05 -12.36,3.11 -0.72,-2.62 -2.25,-5 -3.71,-7.45 -8.02,-13.82 -16.96,-27.08 -24.32,-41.39 -22.88,-44.3 -40.22,-90.67 -50.22,-139.71 -4.23,-21.04 -7.76,-42.14 -8.34,-63.75 -0.43,-18.77 -0.28,-37.63 -0.14,-56.34 0.06,-6.36 0.92,-12.62 1.61,-18.95 1.72,-15.58 5.09,-30.96 7.44,-46.51 2.94,-19.14 7.59,-37.77 13.51,-56.219 10.53,-33.031 22.46,-65.341 39.76,-95.441 25.15,-43.889 54.82,-83.94 93.6,-116.59 31.59,-26.56 65.02,-49.9 102.96,-66.12 16.96,-7.3 33.92,-14.599 51.46,-20.49 6.06,-2.1 11.67,-2.01 17.65,0.11 34.35,11.85 67.38,26.56 98.48,45.68 27.28,16.79 52.72,35.9 75.4,58.641 12.24,12.359 23.74,25.21 34.441,38.949 26.269,33.95 47.969,70.66 63.809,110.67 12.33,31.07 21.47,63.18 28.32,95.98 5.29,25.44 8.65,51 9.88,76.93 C 7.561,34.3 4.05,73.3 -3.97,112"
             style="fill:#ffffff;fill-opacity:1;fill-rule:nonzero;stroke:none"
             id="path22"
             inkscape:connector-curvature="0" /></g><g
           id="g24"
           transform="translate(757.9385,552.8594)"><path
             d="M 0,0 C -0.77,-16.47 -2.79,-32.86 -5.659,-49.01 -11.38,-80.98 -20.12,-112.021 -32.649,-141.891 -49.01,-181.15 -71,-216.94 -99.739,-248.25 c -30.301,-32.91 -65.801,-58.47 -105.99,-77.38 -16.3,-7.65 -32.97,-14.141 -50.3,-19.63 -32.971,10.35 -64.39,24.57 -93.481,43.75 -57.81,38 -99.52,89.77 -127.38,153.409 -14.2,32.54 -24,66.431 -29.95,101.451 -4.599,26.84 -6.93,54.01 -5.72,81.32 2.19,47.86 12.53,93.85 31.05,137.95 9.91,23.68 21.781,46.31 35.41,67.95 0.86,1.47 1.84,2.88 2.73,4.2 62.721,-19.98 125.13,-19.98 188.03,1.03 29.46,-11.26 60.681,-15.66 92.611,-15.66 31.849,-0.06 63.16,3.73 93.509,15.12 4.83,-6.41 8.571,-13.2 12.481,-19.98 C -35.47,188.46 -19.26,149.51 -9.6,107.85 -5.229,89.17 -2.33,70.28 -0.739,51.14 0.66,34.09 0.87,17.1 0,0 M 6.091,50.01 C 4.57,69.73 1.58,89.16 -2.76,108.39 c -9.429,41.54 -25.5,80.37 -46.309,117.28 -5.431,9.57 -11.04,19.12 -17.62,28.46 -6.411,-2.99 -12.42,-5.29 -18.571,-7.02 -29.889,-8.45 -60.34,-11.23 -91.3,-9.68 -26.36,1.23 -52.08,5.52 -76.83,15.06 -2.099,0.86 -4,0.55 -6.009,-0.17 -6.321,-2.62 -12.79,-4.72 -19.351,-6.41 -29.49,-7.74 -59.41,-10.26 -89.77,-8.37 -15.09,0.86 -30.04,2.76 -44.81,6.1 -11.01,2.38 -21.819,5.66 -32.109,10.34 -0.69,-0.83 -1.21,-1.43 -1.581,-2.01 -25.18,-38.78 -45.02,-80.11 -57.64,-124.75 -9.48,-33.69 -14.43,-68.1 -14.83,-103.11 -0.32,-28.89 3.051,-57.35 8.62,-85.58 8.661,-43.49 23.11,-84.71 44.56,-123.381 25.01,-45.149 58.01,-83.04 99.57,-113.17 32.341,-23.479 67.79,-40.529 105.531,-52.889 3.739,-1.231 7.27,-0.981 10.89,0.23 23.139,7.68 45.679,16.9 67.069,28.72 65.65,36.13 114.58,88.56 147.521,156.46 15.229,31.39 26.129,64.3 33.429,98.43 4.891,22.88 8.191,45.99 9.17,69.42 0.66,15.86 0.521,31.76 -0.779,47.66"
             style="fill:#ffffff;fill-opacity:1;fill-rule:nonzero;stroke:none"
             id="path26"
             inkscape:connector-curvature="0" /></g><g
           id="g28"
           transform="translate(530.2598,828.2939)"><path
             d="M 0,0 C -0.173,2.099 -0.489,3.996 0.115,5.605 5.06,7.158 11.843,3.421 13.971,11.757 H -4.226 C -7.762,5.922 -5.404,-0.259 -5.979,-6.698 H 7.732 c 0.173,-2.213 0.834,-4.081 -0.776,-5.864 -5.145,0.086 -10.75,0.748 -12.964,-6.697 5.462,0 10.722,-0.087 15.954,0.029 2.357,0.028 4.139,1.379 4.197,3.793 0.143,4.916 -0.029,9.803 -0.086,14.632 C 8.969,0.086 4.427,-1.006 0,0 m -37.521,5.046 c -2.27,0.801 -4.31,0.491 -6.67,0.31 v -18.219 h 3.68 c 1.09,0 2.24,-0.14 2.99,0.86 z m 6.92,6.941 c 0,-8.45 0.06,-16.131 -0.03,-23.74 -0.05,-5.61 -1.46,-6.99 -7.07,-7.13 -4.11,-0.15 -8.16,-0.031 -12.73,-0.031 0,9.511 -0.03,18.421 0.03,27.361 0.02,2.28 1.46,3.48 3.65,3.51 5.23,0.06 10.46,0.03 16.15,0.03 m 8.17,-24.23 c 2.701,-0.861 5.26,-0.77 7.991,-0.05 v 17.33 c -2.671,0.75 -5.231,0.66 -7.991,0.029 z m -3.62,23.99 h 17.79 v -21.67 c 0,-8.31 -0.66,-8.91 -9.08,-9 -3.54,-0.05 -7.08,0 -10.93,0 -1.32,19.38 -0.77,26.71 2.22,30.67 m -31.325,0.191 c -5.204,0.058 -10.464,0.46 -15.811,-0.258 2.07,-8.25 9.027,-4.427 13.625,-6.123 0.087,-1.725 0.69,-3.421 -0.746,-5.289 h -13.626 c 0,-4.83 -0.201,-9.429 0.029,-14.028 0.172,-3.565 1.696,-5.433 4.542,-5.462 5.231,-0.058 10.463,-0.489 15.925,0.316 -1.897,8.02 -8.422,5.807 -13.77,6.583 0.489,2.098 -0.545,3.995 1.007,5.979 h 13.453 c 0,4.714 0.144,8.739 -0.058,12.705 -0.201,3.421 -1.868,5.548 -4.57,5.577 M 48.718,-16.885 c 2.53,2.845 5.117,5.72 7.934,8.94 -4.169,0.661 -7.704,1.236 -11.039,1.724 -2.27,3.335 -2.989,7.187 -5.835,10.751 -1.925,-3.794 -3.737,-7.243 -5.49,-10.722 -3.824,-0.517 -7.417,-1.207 -11.384,-1.81 1.898,-3.852 5.405,-5.376 6.842,-7.848 2.012,-4.629 -1.466,-8.567 -0.259,-12.792 4.111,1.351 6.985,4.111 10.32,4.801 3.622,-0.604 5.922,-4.082 9.659,-3.421 1.379,3.679 -0.949,6.87 -0.748,10.377 M -93.021,-6.218 c 3.42,-0.546 7.1,-1.207 11.47,-1.839 -2.214,-3.881 -5.836,-5.692 -7.647,-9.256 0.259,-3.45 0.546,-6.985 0.92,-11.039 -4.197,0.834 -6.928,3.766 -10.693,4.6 -3.478,-1.006 -6.267,-3.766 -10.061,-4.686 -0.92,4.082 1.638,7.646 0.862,11.556 -1.897,3.191 -5.864,4.628 -7.646,8.624 3.823,0.69 7.359,1.35 11.095,2.04 2.358,3.134 3.249,7.216 6.152,10.722 1.926,-3.679 3.622,-7.013 5.548,-10.722"
             style="fill:#ffffff;fill-opacity:1;fill-rule:nonzero;stroke:none"
             id="path30"
             inkscape:connector-curvature="0" /></g><g
           id="g32"
           transform="translate(621.3584,464.6504)"><path
             d="m 0,0 c 5.4,-3.8 7.671,-9 6.41,-15.87 -1.67,-9.109 -6.62,-16.359 -12.51,-23.6 -8.28,5.69 -10.12,14.37 -7.96,35.41 -3.74,2.19 -4.86,5.61 -4.46,10.21 C -11.56,5.78 -5.439,3.82 0,0 m -30.96,277.63 c -4.43,-4.51 -9.489,-8.1 -15.239,-10.78 -3.821,-1.84 -6.611,-4.37 -8.16,-8.27 -0.781,-2.1 -2.191,-3.45 -3.911,-4.75 -5.41,-3.99 -9.98,-8.82 -13.57,-14.54 -8.109,-12.85 -8.62,-26.07 -2.04,-39.76 2.04,-4.14 4.45,-7.93 7.441,-11.44 3.86,-4.63 6.99,-9.6 8.46,-15.46 1.69,-6.76 0.69,-13 -4,-18.23 -5.09,-5.72 -11.581,-9.17 -18.71,-11.38 -0.89,-0.26 -1.811,-0.38 -2.731,-0.63 -8.51,-2.85 -12.08,-6.3 -16.25,-16.13 -3.729,4.17 -7.33,8.25 -9.909,13.02 0.109,0.15 0.279,0.26 0.43,0.43 2.589,0.12 5.259,-0.86 7.79,0.43 1.229,0.64 1.259,0.55 2.149,3.4 -12.729,2.7 -19.34,14.28 -14.8,26.33 3.361,8.91 7.471,17.56 13.05,25.35 0.78,1.04 1.61,2.21 2.65,2.96 7.93,5.66 10.951,14.37 13.741,23.08 4.769,15.01 4.62,30.19 -0.031,45.62 6.67,11.13 14.371,21.27 26.531,27.11 6.349,3.05 12.759,4.34 19.75,2.18 3.91,-1.23 8.049,-1.61 12.24,-2.47 1.84,-6.41 -0.57,-11.61 -4.881,-16.07 m -212.839,-387.14 c 2.559,2.88 5.67,3.77 8.94,5.09 0.639,-2.5 1.179,-4.769 1.13,-7.45 -3.4,0.78 -6.391,1.5 -10.07,2.36 m -45.461,108.1 c -4.369,4.551 -4.369,6.82 0,13.2 2.18,-1.06 4.23,-2.36 5.95,-4.05 -0.29,-4.32 -2.359,-7.219 -5.95,-9.15 M -139,251.05 c -0.02,0.02 -0.04,0.03 -0.06,0.04 l -0.02,-0.02 v 0.03 c 0,0.05 0,0.09 -0.009,0.14 -3.85,1.25 -7.64,2.53 -11.75,3.89 2.65,1.46 5.119,2.87 7.589,4.39 2.581,-2.31 4.01,-4.97 4.161,-8.28 0.049,-0.02 0.11,-0.03 0.159,-0.05 l -0.06,-0.05 c -0.01,-0.03 -0.01,-0.06 -0.01,-0.09 0.26,-0.15 0.521,-0.3 0.73,-0.41 -0.72,-0.5 -0.779,-0.14 -0.73,0.41 m -39.209,6.73 c 2.759,3.25 4.689,5.75 8.449,6.21 1.1,-2.07 2.1,-4.05 3.281,-6.27 -3.741,-0.83 -7.21,0.84 -11.73,0.06 M 52.29,208.73 c 8.021,9.31 14.66,19.43 17.04,31.88 0.381,1.95 0.95,3.99 -0.6,6.64 -15.24,-15.55 -32.629,-26.1 -55.419,-28.63 7.009,6.38 12.589,12.36 16.21,19.86 3.559,7.3 6.179,14.83 4.969,23.14 -2.899,0.2 -2.04,-3.33 -4.62,-3.31 1.721,10.18 1.86,19.98 -3.63,29.24 -2.76,-1.27 -3.16,-3.51 -4.219,-5.26 -5,-8.48 -9.8,-17.16 -17.361,-23.86 -0.019,0 -0.05,-0.01 -0.069,-0.01 -0.601,-0.6 -0.95,-1.57 -2.32,-1.26 -0.191,1.07 0.889,1.58 1.259,2.41 v 0.01 c 0.41,1.29 0.781,2.53 1.151,3.88 1.41,5.86 1.79,11.7 0.229,17.48 -0.37,1.32 -0.769,3.3 -3.239,2.04 1.579,-2.62 1.059,-4.98 -0.441,-7.39 -4.74,-7.45 -10,-14.37 -16.669,-20.15 -1.871,-1.64 -3.79,-3.42 -7.071,-4.72 5.49,14.9 5.891,28.75 -1.179,43.27 5.03,-1.3 9.46,-1.1 13.939,-0.52 4.37,0.75 7.881,2.33 9.49,6.93 0.001,0.003 0,0.005 0,0.008 0.941,0.377 1.171,1.349 1.602,2.094 -0.007,0.021 -0.02,0.034 -0.028,0.055 0.013,-0.008 0.024,-0.016 0.037,-0.024 l 0.833,1.093 -0.009,0.01 c 0.488,0.431 1.175,1.005 0.313,1.551 -0.374,0.258 -0.862,-0.288 -1.006,-0.805 0.001,-0.005 0.002,-0.007 0.003,-0.012 -0.647,-0.115 -1.016,-0.483 -1.134,-1.154 -0.016,0 -0.029,0.004 -0.044,0.004 -0.748,-0.115 -1.036,-0.833 -1.38,-1.408 0.003,-0.007 0.008,-0.013 0.011,-0.02 -2.725,-2.462 -5.967,-2.832 -9.458,-2.662 -6.7,0.23 -13,1.9 -18.86,5.23 -5.72,3.22 -11.84,4.95 -18.43,4.14 -8.679,-1 -16.839,-3.65 -24.37,-8.25 -6.38,-3.99 -13.139,-7.27 -19.229,-12.07 -3.42,5.63 -7.33,9.8 -13.83,10.38 -6.181,0.43 -11.24,-2.65 -16.271,-5.09 -19.139,10.03 -26.88,7.76 -40.389,-11.79 -3.131,-0.8 -6.46,-0.74 -9.341,0.72 -7.989,-6.21 -10.46,-14.69 -11.32,-23.8 -2.02,-0.89 -4.12,-1.03 -5.7,-0.34 -7.329,3.27 -14.34,7.04 -18.77,14.2 -2.9,4.68 -3.19,9.63 -0.599,14.71 0.659,1.27 2.009,2.3 1.81,4.06 -4.6,0.43 -6.5,-0.46 -8.14,-4.2 -1.98,-4.48 -1.811,-9.23 -1.261,-14.03 1.98,-16.73 17.531,-28.28 33.81,-25.09 2.87,0.54 5.6,1.32 8.361,1.58 14.489,1.41 28.46,0.83 39.009,-11.3 1.61,0.2 2.76,0.69 3.07,2.62 -0.509,2.41 -1.869,4.8 -4.42,6.64 11.261,-0.49 12.9,-1.9 11.931,-9.83 -6.621,-6.64 -10.351,-3.71 -16.391,2.33 -8.62,3.73 -17.449,-0.75 -25.44,3.1 -3.1,-3.71 -2.899,-5.52 0.951,-7.33 3.48,-1.61 7.27,-1.81 10.719,-2.21 5.181,-5.93 5.951,-8.05 5.181,-15.1 -2.101,0.67 -4.321,0.06 -6.21,1.21 -0.661,3.11 -0.091,6.27 -1.991,9.03 -6.949,-1.84 -7.38,-7.5 -7.529,-12.97 -8.54,-3.73 -16.871,-4.94 -25.52,-1.75 -1.101,0.46 -2.391,0.72 -3.63,-0.17 2.219,-3.48 4.259,-6.61 6.389,-10.01 -4.799,-4.13 -10.07,-7.18 -14.69,-10.52 -5.239,0.23 -9.549,3.08 -14.75,2.91 -0.14,-6.27 2.73,-11.39 3.85,-16.96 -2.379,-1.24 -4.51,-2.42 -6.209,-4.23 -1.521,-1.84 -2.9,-3.79 -4.48,-5.8 -1.581,1.72 -2.851,3.13 -3.971,4.31 -0.77,3.3 0.58,6.41 -0.23,8.97 -1.75,2.58 -4.19,3.96 -5.569,6.78 0.939,7.47 -0.871,14.92 -2.59,22.39 -1.73,7.65 -3.451,15.27 -5.06,22.34 3.94,9.28 9.659,17.24 11.349,26.99 -9.48,3.71 -4.769,10.49 -3.13,16.24 -2.27,0.92 -2.409,-1.55 -3.79,-1.29 -1.5,0.54 -0.75,1.72 -0.75,2.5 -3.13,2.53 -7.13,3.53 -9.75,6.41 -0.92,0.72 1.33,1.09 -0.23,1.92 -4.25,-0.97 -8.759,-1.43 -13.279,-0.66 -0.69,1.44 -1.321,2.82 -1.951,4.2 -4.63,0.49 -9.11,1.01 -14.029,1.52 -0.98,1.15 -2.181,2.68 -4.141,3.14 -11.609,-5.29 -16.21,-12.91 -12.93,-21.85 1.58,0.63 2.81,1.35 3.73,3.1 1.12,2.16 2.76,4.03 5.26,4.89 l -0.109,0.17 c 0.859,-0.8 0.46,-1.75 0.52,-2.67 0,-3.99 1.52,-7.01 5.569,-8.28 0.86,-0.26 1.67,-0.75 2.79,-1.26 -0.629,-7.05 2.271,-13.23 5.61,-19.84 -7.909,-0.43 -7.739,6.33 -10.44,9.92 -3.48,0.8 -6.44,-0.6 -9.339,-1.98 -1.321,-0.58 -2.361,-1.53 -4.111,-1.58 -4.309,-0.18 -5.949,-1.79 -6.329,-6.33 -0.31,-3.99 -0.111,-8.02 -0.02,-12.04 0.02,-1.18 0.509,-2.22 2.319,-2.16 0.44,1.35 0.9,2.9 1.59,4.97 4.801,-6.35 9.25,-12.85 18.19,-8.53 1.87,-2.04 4.2,-2.82 6.301,-4.23 -2.94,-9.08 3.16,-14.37 8.25,-20.03 -4.57,-6.47 -10.061,-4.81 -15.96,-1.84 0.06,-2.51 0.98,-4.75 -1.46,-5.78 -3.94,-0.49 -5.321,2.73 -7.221,5.46 -2.009,-0.26 -4.02,0.49 -6.21,-0.35 0.29,-3.13 1.411,-5.89 2.701,-8.65 2.449,-5.29 6.069,-9.31 11.879,-10.63 2.581,-0.58 4.911,-1.41 7.181,-2.96 4.079,-2.85 7.449,-2.22 11.009,1.43 1.04,1.01 1.78,2.56 3.8,2.5 2.27,-2.84 2.04,-6.21 1.781,-9.68 -0.98,-14.95 2.439,-28.89 10.379,-41.57 0.891,-1.41 2.241,-2.64 2.551,-4.63 -1.491,-4.54 -3.221,-9.28 0.949,-13.77 -3.62,-2.84 -8.589,-3.68 -10.29,-8.53 2.531,-2.16 5.721,-2.05 8.02,-4.09 -2.13,-3.1 -4.19,-6.32 -5.429,-10 -1.27,-3.59 -2.471,-7.21 -2.93,-11.07 -0.261,-1.98 -1.331,-3.5 -2.851,-4.8 -3.85,-3.42 -7.989,-6.41 -12.68,-8.51 -10.98,-4.85 -18.969,-2.93 -26.73,6.36 -0.57,0.74 -1.119,1.52 -1.809,2.18 -0.691,0.69 -1.35,0.26 -2.441,-0.77 4.6,-8.97 11.35,-15.15 21.7,-16.56 7.36,-1.04 14.29,0.69 21.13,3.16 0.17,-0.29 0.431,-0.43 0.69,-0.43 l 0.06,0.43 0.341,-0.29 c -0.29,-0.17 -0.401,-0.37 -0.37,-0.69 -5.44,-5.11 -11.991,-7.82 -19.38,-9.02 9.98,-5.72 20.559,-5.55 32.079,-3.57 -5.889,-8.16 -12.989,-14.54 -13.309,-24.52 -1.75,-1.32 -3.361,-2.59 -4.651,-3.53 -1.179,-2.13 0.051,-4.2 -1.099,-6.18 -2.701,0.17 -5.341,-0.52 -8.421,-1.04 0.091,3.19 -0.829,5.69 -1.81,8.16 -3.13,7.82 -8.48,9.32 -15.21,4.55 -1.17,-0.87 -2.04,-2.36 -3.389,-2.45 -3.19,0.72 -6.031,1.33 -9.661,2.19 0.32,-5.49 0.721,-10.379 -0.109,-15.21 -0.841,-4.94 -0.841,-9.919 -0.75,-14.69 1.35,-2.64 3.589,-4.08 5.98,-5.75 -4.971,-6.149 -6.611,-13.019 -5.951,-20.55 0.23,-2.13 -0.029,-4.25 -0.259,-6.349 -0.951,-7.25 1.73,-12.561 8.159,-16.101 1.87,-1.01 3.801,-1.95 5.901,-0.86 1.98,1.03 2.84,2.961 2.699,5.72 -2.19,2.18 -4.4,4.83 -4.859,8.31 2.04,3.27 1.839,3.27 2.33,7.41 0.6,6.24 1.029,12.71 7.239,16.53 0.81,0 1.58,0.03 2.33,0 5.38,-0.2 6.96,-2.18 6.181,-7.65 -0.371,-2.5 -1.491,-4.74 -2.44,-7.01 -0.81,-1.9 -2.241,-3.48 -2.471,-5.69 1.78,-0.69 2.701,-1.73 2.84,-3.85 0.23,-5.41 3.83,-7.99 8.6,-9.23 4.63,-1.119 9.34,-1.38 14.031,-0.369 2.61,0.509 5.659,-0.491 7.96,1.779 -1.81,2.931 -2.301,6.29 -4.491,8.681 -2.81,0.519 -5.92,0.229 -7.699,2.96 4.23,8.479 3.909,10.639 -2.87,16.609 0.109,2.3 -0.811,4.63 -0.38,7.16 0.949,5.75 5.98,7.851 10.469,4.37 2.75,-2.13 4.02,-5 4.681,-8.22 1.699,-0.799 3.589,-1.12 3.94,-3.22 1.899,0.4 3.219,1.87 5.199,1.27 3.131,-2.679 2.39,-7.33 4.49,-10.73 5.4,5.381 8.42,12.25 8.27,18.49 -0.2,8.561 -5.049,13.25 -13.529,13.11 -0.35,0 -0.691,0.25 -1.071,0.37 -1.35,1.92 -2.73,3.911 -4.14,5.92 10.04,8.57 20.441,16.241 28.691,26.39 1.469,-1.27 0.75,-3.769 3.36,-3.939 2.04,3.359 1.699,7.729 3.049,11.899 1.9,-1.26 3.281,-2.21 4.66,-3.13 12.851,-8.68 26.99,-13.74 42.431,-14.12 10.86,-0.229 21.27,2.3 31.21,6.87 5.469,2.56 10.7,5.64 16.679,6.99 6.231,1.38 12.18,0.75 18.021,-2.36 -2.7,-8.28 -7.761,-13.97 -15.351,-16.99 -5.09,-2.04 -10.49,-2.55 -16.039,-2.18 -5.691,0.4 -11.12,2.01 -16.841,3.021 -1.929,-4.371 -5.04,-7.761 -8.17,-11.04 -3.879,-4.081 -8.129,-5.521 -13.71,-3.571 -6.27,2.281 -11.33,0.06 -15.12,-5.63 -1.73,-2.589 -2.65,-5.52 -3.62,-8.39 -2.099,-5.869 -5.21,-11.04 -9.139,-15.73 -4.801,-5.49 -10.551,-8.56 -18.031,-6.58 -0.719,0.2 -1.46,0.03 -2.07,0.03 -14.83,-12.02 -15.29,-12.22 -20.58,-11.04 -1.899,1.21 -0.14,3.94 -2.67,5.201 -2.16,-3.851 -0.29,-7.181 0.69,-10.661 3.79,-0.32 7.391,-0.72 10.92,-0.98 7.71,-0.49 15.471,-0.49 22.39,-4.66 1.811,-1.15 3.97,-1.12 6.041,-1.52 3.31,-0.77 5.859,0.23 7.929,2.96 1.41,1.99 2.941,3.91 4.29,5.66 5.2,0.32 10.06,0.61 14.921,0.92 -0.12,-2.06 -1.56,-2.84 -2.451,-4.049 -3.48,-4.481 -6.899,-9.111 -9.339,-14.341 -2.471,-5.23 -4.341,-10.52 -3.301,-16.53 0.431,-2.39 0.08,-4.89 -0.409,-7.42 -2.241,-10.55 -12.531,-15.26 -21.591,-9.45 -7.409,4.8 -15.37,6.92 -24.11,5.8 -0.95,-1.439 -2.02,-2.84 -3.31,-4.68 -6.009,2.55 -10.98,-0.43 -14.799,-4.75 -3.801,-4.19 -8.02,-8.91 -4.52,-15.66 -1.861,-2.79 -2.121,-6.01 -2.67,-9.17 -0.551,-3.14 -3.221,-5.61 -4.051,-8.77 -2.04,-8.22 2.81,-14.92 10.951,-15.409 0.629,7.359 0.629,7.359 3.1,10.469 3.17,-5.24 7.13,-3.77 11.039,-1.1 5.901,-11.64 13.631,-16.47 23.571,-14.92 0.35,1.761 -0.891,2.82 -1.69,4.09 -0.841,1.35 -1.73,2.76 -2.531,4.14 1.18,0.71 2.21,1.26 3.16,1.89 3.681,2.45 6.121,5.49 5.38,10.44 -0.35,2.21 -0.46,4.57 0.201,6.52 0.799,1.181 1.779,1.27 2.669,1.58 0.49,0.12 1.041,-0.109 1.52,-0.14 2.621,-4.17 2.621,-4.17 2.621,-10.23 -1.261,-0.23 -2.531,-0.41 -3.821,-0.609 0.111,-0.141 0.2,-0.341 0.281,-0.511 3.94,-2.13 7.449,-5.73 12.62,-3.909 4.719,1.689 8.57,4.679 12.389,7.469 -0.37,3.59 2.19,6.5 1.15,9.63 1.551,1.52 2.76,3.08 4.691,3.71 2.239,-0.38 4.079,-2.5 6.579,-2.3 0.89,3.3 -1.26,5.89 -0.78,8.65 4.32,1.96 7.51,-0.83 10.76,-2.76 2.441,2.76 1.75,6.61 4.08,8.74 7.761,-1.38 14.861,-4.57 22.91,-5.52 -0.859,6.87 -3.049,12.76 -4.399,18.86 -1.27,5.86 -3.65,11.58 -4.201,18.71 4.08,-3.53 4.571,-7.36 4.891,-11.21 0.549,-6.15 4.109,-10.059 9.169,-12.79 2.85,-1.53 5.81,-2.42 9.26,-0.81 -0.58,0.72 -0.899,1.21 -1.269,1.56 -3.191,3.04 -6.01,6.29 -6.321,11.15 -0.29,4.51 3.04,6.64 5.601,9.4 6.56,7.16 6.01,17.94 -1.15,24.78 -1.21,1.18 -2.611,2.271 -4.05,3.481 6.779,3.159 11.21,7.639 11.639,15.17 7.021,0.689 13.741,2.25 20.701,0.409 1,5.83 5.17,10.66 4.17,17.16 6,2.301 10.95,6.06 16.929,9.34 -0.95,-9.95 -1.529,-19.23 7.071,-25.47 -3.25,-7.649 -3.25,-8.77 -0.401,-15.55 -3.63,-7.93 -3.569,-9.11 1.691,-15.72 -26.731,-0.549 -42,-15.73 -49.5,-39.82 -24.75,-10.92 -34.031,-30.53 -32.42,-56.22 -5.091,-2.56 -6.1,-2.5 -11.33,0.54 -1.46,3.42 -2.04,7.28 -4.201,10.49 -1.35,2.25 -3.36,4.35 -5.949,3.05 -2.58,-1.18 -5.171,-0.66 -7.901,-1.089 2.16,-2.361 5.631,-2.591 7.1,-5.171 0.661,-1.5 0.431,-2.82 0.091,-4.14 -1.701,-5.61 0.71,-9.66 4.88,-12.97 3.339,-2.61 7.19,-4.2 11.27,-5.14 1.96,-0.52 3.77,-1.21 5.58,-2.19 -3.111,-7.85 -7.531,-14.139 -14.151,-18.679 -6.179,-4.261 -12.96,-5.551 -19.92,-2.761 -9.449,3.71 -16.27,10.83 -21.759,19.431 -1.491,2.409 -0.69,4.37 1.21,6.059 2.469,2.07 5.379,3.481 8.339,4.83 5.031,2.191 10.32,3.57 15.721,5.24 -1.841,1.201 -3.71,1.52 -5.551,1.92 -3.85,0.781 -7.9,1.15 -11.549,2.59 -3.25,1.231 -5.351,0.401 -7.59,-1.639 -4.281,-4 -6.381,-9 -7.04,-14.691 -0.261,-1.84 -0.091,-3.74 0.799,-5.55 5.03,-10.29 12.19,-18.42 22.451,-23.54 8.909,-4.429 18.4,-5.29 28.139,-4.63 8.571,0.661 15.531,4.37 21.19,10.72 1.87,2.07 3.481,4.43 5.29,6.79 3.1,-14.09 3.1,-14.09 6.701,-14.43 -0.95,6.06 0.569,11.73 2.729,17.161 1.75,0.979 3.47,1.809 5.031,2.79 2.87,1.779 5.139,4.279 5.569,7.67 0.49,4.029 2.761,6.989 4.83,10.089 2.16,3.14 4.341,6.33 6.38,9.46 4.78,7.531 5.931,15.64 3.48,24.26 -0.29,0.83 -0.75,1.901 -0.629,2.76 1.32,7.36 -0.951,14 -3.71,20.55 -0.661,1.381 0.58,2.3 0.399,3.48 -0.71,0.691 -1.659,1.04 -1.75,2.24 0.86,7.65 4.971,13.46 10.87,18.03 6.061,4.68 12.301,8.74 20.641,7.591 4.08,-0.491 8.3,0.049 12.47,0 3.339,-0.031 6.5,1.719 10.089,0.949 -1.179,-8.54 -3.25,-17.11 2.21,-25.01 -4.08,-5.75 -4.649,-11.899 -2.269,-18.52 0.38,-1.03 0.66,-2.04 0.319,-3.27 -2.01,-6.41 -4.279,-12.62 -8.83,-17.85 -3.3,-3.74 -7.149,-5.469 -12.56,-3.969 -0.429,0.599 -1.059,1.549 -1.78,2.389 -4.17,4.62 -9.08,4.651 -13.189,0.02 -0.891,-0.94 -1.84,-2.04 -2.3,-3.22 -2.19,-5.57 -6.16,-9.51 -10.7,-13.07 -0.891,-0.64 -1.641,-1.56 -2.41,-2.42 -2.071,-2.36 -6.101,-9.57 -6.18,-11.56 -0.091,-3.24 -0.4,-6.52 0,-9.77 0.8,-7.159 4.17,-12.68 11.149,-15.21 1.18,-0.43 2.5,-1.14 3.741,0.49 -0.72,4.57 -6.21,8.771 -2.361,14.32 2.101,-1.009 2.471,-3.34 4.231,-3.82 2.24,0.46 2.67,3.561 5.2,3.16 2.79,-12.28 7.559,-17.019 14.8,-14.15 -0.281,2.511 -0.571,5.15 -0.861,7.79 1.55,0.87 2.76,1.99 5.031,1.15 3.799,-1.26 6.839,0.72 9.519,3.48 1.721,1.79 2.471,4.37 4.62,5.69 2.071,0.231 3.83,-0.05 4.92,-2.01 -0.63,-4.11 -4.71,-6.29 -6.059,-11.67 11.21,3.161 16.899,11.331 23.16,18.6 -0.891,2.36 -1.691,4.08 -2.151,5.92 -1.5,5.69 0.46,8.25 6.26,8.86 2.651,0.281 5.24,-0.87 7.771,-0.23 2.5,1.61 2.96,4.48 4.599,6.89 4.13,0 8.101,0.81 10.691,4.69 2.5,3.88 0.95,8.19 1.149,12.16 3.561,2.441 8.101,1.441 11.731,4.311 -4.201,2.5 -7.941,4.769 -12.771,7.679 15.841,1.781 24.261,10.66 29.07,24.4 -6.639,2.7 -12.679,-1.03 -18.86,-0.23 3.301,4.8 5.95,6.5 12.471,6.5 5.21,0 8.569,2.64 11.359,6.44 3.53,4.94 5.29,10.461 4.37,16.841 -6.12,-6.901 -12.54,-9.661 -18.399,-8.161 -0.801,2.01 -0.321,4.11 -0.401,6.21 -0.629,10.06 -6.41,13.54 -15.439,9.201 -0.981,-0.441 -1.921,-1.21 -2.931,-1.641 -1.319,-0.609 -2.3,-2.16 -4.019,-1.73 -0.981,2.56 -0.261,4.92 0.34,7.33 0.58,2.621 2.389,4.57 3.28,6.93 -0.92,1.151 -2.99,-0.2 -3.191,1.72 0.26,0.49 0.46,0.84 0.771,1.04 18,13.8 20.64,31.76 15.119,51.28 -3.79,13.401 -12.01,23.691 -23.449,31.361 -3.771,2.529 -7.45,8.309 -7.851,12.129 1.691,0.52 2.181,-1.06 3.071,-1.89 7.45,-7.39 15.349,-14.26 24.67,-19.15 9.37,-4.94 19.29,-7.67 29.919,-6.95 2.241,0.25 4.691,0.111 5.611,2.99 C 50.65,23.32 50.65,23.26 47.83,26.22 34.351,39.96 21.57,54.27 11.28,70.77 l -0.009,0.01 c -0.46,0.42 -0.941,0.74 -1.491,1.25 1.101,0.67 1.811,0.53 2.321,-0.37 0.019,0 0.04,-0.01 0.059,-0.02 1.811,-1.01 3.53,-2.04 5.261,-3.1 4.479,-2.85 9.109,-5.18 14.029,-7.05 1.12,-0.43 2.12,-0.77 3.33,1.07 -5.03,6.87 -10.92,13.48 -15.67,20.87 -0.11,0.94 0.29,1.29 1.151,1.09 1.269,-0.32 2.529,-0.78 3.83,-1.09 8.159,-2.51 16.409,-4.4 25.029,-3.97 5.95,0.37 11.471,2.07 16.25,5.95 2.471,1.95 4.191,4.28 3.53,8.65 -22.62,0.06 -40.07,11.64 -55.42,27.37 -0.11,0.86 0.14,1.35 1.121,1.12 5.03,-0.84 10,-1.84 15.12,-1.96 15.729,-0.31 28.8,5.12 38.41,18.17 -1.381,1.44 -2.101,3.31 -3.86,4.03 -17.821,-4.69 -32.111,-5.73 -37.741,-2.76 9.2,3.3 18.021,7.1 25.811,12.93 5.29,3.97 9.689,8.57 12.42,14.69 1.01,2.36 2.33,4.74 1.529,7.76 -18.26,-4.05 -36.31,-8.28 -55.14,-8.25 0.58,1.47 1.241,1.9 2.33,1.99 7.1,1.2 13.861,3.53 20.55,6.09 9.061,3.39 17.851,7.24 24.87,14.37 3.021,3.02 5.09,6.58 5.951,10.81 0.229,1.29 0.08,2.33 -1.64,2.99 -1.381,-0.75 -2.99,-1.7 -4.631,-2.59 -7.21,-4.19 -14.489,-8.22 -22.069,-11.64 -2.651,-1.24 -2.651,-1.21 -5.811,-0.69 7.88,6.04 15.151,12.68 21.59,20.24"
             style="fill:#ffffff;fill-opacity:1;fill-rule:nonzero;stroke:none"
             id="path34"
             inkscape:connector-curvature="0" /></g><g
           id="g36"
           transform="translate(337.0952,745.7339)"><path
             d="M 0,0 C 0.017,0.015 0.031,0.031 0.047,0.046 -0.004,0.075 -0.054,0.102 -0.115,0.144 Z M 0.604,0.604 C 0.444,0.444 0.256,0.236 0.047,0.046 0.606,-0.271 0.656,0.078 0.604,0.604 m -75.432,-1.107 c 0.92,5.691 -1.322,9.112 -5.002,11.901 -3.765,2.932 -7.416,5.921 -11.239,8.738 -1.61,1.179 -2.961,2.932 -5.749,3.191 -0.259,-3.995 -0.346,-4.254 1.121,-6.123 5.634,-7.215 12.906,-12.475 20.869,-17.707 m -27.986,-336.692 c 8.422,0.604 16.816,1.438 25.871,2.214 -2.243,5.088 -6.382,5.001 -9.917,5.088 -7.532,0.259 -14.977,-0.805 -22.48,-2.099 1.61,-4.052 3.076,-5.432 6.526,-5.203 m -10.887,292.466 c 4.599,-2.845 9.314,-5.604 14,-8.422 -1.121,-5.72 -3.393,-11.354 1.983,-17.477 3.047,10.061 6.209,18.943 7.934,28.286 0.575,3.277 -0.288,6.381 -3.823,8.077 -1.984,-3.852 -1.984,-8.221 -4.169,-11.929 -7.329,3.449 -13.711,8.077 -21.099,11.095 0.058,-5.318 0.863,-6.899 5.174,-9.63 m 54.243,-354.674 c -3.823,5.922 -5.146,13.051 -11.929,16.817 3.075,1.264 5.864,1.321 8.509,1.264 1.581,-1.638 1.954,-3.564 2.816,-5.289 1.812,-3.536 3.536,-7.129 6.066,-10.263 2.098,-2.644 4.484,-4.542 9.026,-3.937 -3.277,8.364 -7.215,15.724 -12.705,22.104 -2.473,2.904 -5.29,4.198 -9.429,3.652 -5.232,-0.834 -10.349,-1.984 -15.408,-3.363 -2.443,-0.691 -5.318,0.114 -7.502,-2.185 3.938,-5.635 9.37,-3.651 14.286,-2.875 9.889,-16.184 9.889,-16.184 16.27,-15.925 m -28.599,25.284 c 5.059,0.317 10.09,0.691 15.092,1.754 3.334,0.719 6.697,1.237 9.687,4.197 -1.293,10.406 -8.106,18.799 -11.153,29.004 -10.608,-1.638 -20.783,-3.133 -31.764,-4.829 4.225,-4.973 4.254,-4.973 8.767,-4.398 5.979,0.92 11.929,1.754 18.167,2.558 4.197,-5.663 6.382,-12.246 9.084,-19.345 -8.451,-1.352 -16.529,-2.674 -24.894,-4.054 1.179,-3.88 3.708,-5.116 7.014,-4.887 m 66.233,-68.264 c 3.708,-4.859 7.215,-9.544 10.665,-14.028 -1.351,-2.271 -3.996,-2.243 -4.973,-4.37 0.46,-2.213 1.552,-4.11 3.995,-3.881 3.91,0.317 7.158,2.128 9.17,6.44 -5.289,8.509 -11.555,16.241 -18.627,23.543 -9.831,-4.054 -19.403,-7.475 -29.148,-12.131 6.928,-5.433 12.619,-1.093 18.714,0.747 0.373,-2.472 0,-4.714 -0.403,-6.956 -0.718,-3.564 -1.466,-7.129 -1.351,-10.751 0.173,-3.449 0.747,-6.784 4.944,-9.256 0.374,9.716 4.312,18.655 -0.115,27.998 2.099,1.064 4.427,2.155 7.129,2.645 m 70.531,-70.35 c 0.022,0.012 0.043,0.02 0.065,0.03 0.032,0.034 0.061,0.065 0.078,0.085 z m 16.01,-10.98 c 5.549,-3.967 9.918,-4.915 16.184,-3.22 -5.922,4.168 -11.671,7.848 -17.046,11.958 -4.753,3.579 -9.535,4.988 -15.083,2.272 -1.159,-1.235 -11.504,-11.03 -13.519,-13.856 -1.897,-2.674 -1.581,-4.772 0.748,-7.101 1.322,-1.264 2.932,-2.27 4.484,-3.507 -2.336,-1.708 -4.583,-3.279 -4.176,-6.524 1.993,-0.668 3.689,0.444 5.326,1.178 3.737,1.638 6.841,1.15 9.888,-1.552 1.725,-1.523 3.594,-3.162 7.302,-3.393 -2.617,10.12 -10.924,13.425 -17.88,18.312 4.944,4.082 9.601,8.02 14.258,11.871 3.622,-1.695 6.496,-4.254 9.514,-6.438 m -28.4,-20.065 c -0.004,0.03 -0.004,0.058 -0.008,0.087 -0.037,0.013 -0.071,0.015 -0.107,0.028 z m -158.334,473.575 c 1.869,-0.431 3.68,-0.948 5.031,-2.529 -0.92,-6.641 -3.364,-13.482 2.932,-20.41 1.121,6.612 2.99,12.188 0.92,18.57 3.047,-0.834 5.289,-2.07 7.474,-3.564 0.345,-4.945 -1.926,-9.343 -2.76,-13.971 -0.69,-3.737 -0.546,-7.301 0.776,-10.751 0.374,-1.035 0.949,-2.673 2.99,-1.868 1.064,9.888 6.008,19.288 4.886,30.154 -7.703,5.893 -16.068,10.521 -25.497,12.763 -3.708,-5.088 -7.991,-24.836 -6.813,-31.017 8.624,5.347 7.877,14.661 10.061,22.623 m 9.001,-210.989 c 1.753,-6.698 3.018,-13.252 10.549,-15.868 1.265,6.554 -3.19,10.751 -5.605,15.982 h 7.646 c 3.134,-14.373 5.778,-19.632 12.562,-24.203 -0.949,9.572 -4.312,17.707 -6.496,26.158 -0.863,3.536 -3.421,5.318 -7.187,5.26 -6.698,-0.086 -13.568,0 -20.351,-0.056 -1.294,0 -2.703,0.028 -4.341,-1.898 0.833,-9.889 4.829,-19.634 7.445,-29.895 3.105,1.322 3.622,3.506 3.88,5.864 0.23,3.104 -0.431,6.094 -1.322,9.055 -0.977,2.989 -2.299,6.007 -2.156,9.371 1.898,0.89 3.651,0.834 5.376,0.23 m -10.81,132.459 c 2.01,-4.45 1.17,-9.23 1.38,-13.94 0.05,-2.65 -0.46,-5.46 2.07,-7.701 1.629,0.111 3.24,-1.239 5.28,-0.689 v 20.89 c -3.1,0.46 -5.54,1.99 -8.48,1.73 z m -15.941,-15.82 c 4.971,-0.61 8.971,-2.42 14.25,-3.83 -4.25,7.33 -2.579,14.38 -2.529,21.19 -7.53,3.19 -9.19,3.16 -10.29,9.28 10.01,-1.52 19.29,-5 28.69,-7.38 2.93,-11.76 1.669,-27.831 -2.73,-33.03 -7.65,1.199 -14.98,3.99 -22.45,6.35 -2.99,0.92 -4.171,3.65 -4.941,7.42 M 36.694,-511.954 c 2.44,0.8 3.849,2.071 5.92,3.941 -5.43,4.68 -10.381,9.25 -15.92,13.16 -2.91,-2.04 -5.49,-3.91 -8.89,-6.351 8.8,-0.229 13.489,-6.5 18.89,-10.75 m -2.31,-10.21 c -3.42,-2.269 -6.81,-2.99 -11.381,-1.519 2.79,4.309 7.5,5.92 10.98,9.769 -7.67,1.151 -12.67,6.351 -17.929,11.411 -4.29,-3.19 -8.34,-6.09 -14.52,-3.22 8.36,6.96 17.04,12.39 25.35,18.92 8.51,-6.3 16.73,-12.481 23.429,-20.561 0.601,-2.239 -13.629,-13.279 -15.929,-14.8 m -157.47,257.361 c 6.3,-0.17 12.27,-1.5 18.859,-1.151 -0.349,7.561 -2.849,14.201 -3.679,21.501 -6.41,-0.14 -12.56,1.87 -19.2,0.66 1.379,-7.18 2.669,-14.14 4.02,-21.01 m 2.3,-6.33 c -4.231,0.34 -6.41,2.84 -8.31,6.059 -0.49,0.75 -0.6,1.75 -0.78,2.67 -1.41,7.54 -2.78,15.04 -4.16,22.541 -0.151,0.75 -0.03,1.44 -0.03,3.08 10.69,-0.611 20.78,-1.27 31.069,-1.93 2.621,-8.97 4.201,-17.96 5.031,-27.13 0.4,-3.8 -1.471,-5.58 -5.89,-5.981 -5.661,-0.55 -11.331,0.281 -16.93,0.691 m 77.7,-159.66 c 2.7,1.009 5.72,1.33 8.37,3.48 -3.511,5.43 -6.87,10.64 -10.261,15.84 -5.869,-2.01 -11.299,-3.97 -17.569,-6.21 3.94,-5.37 6.58,-11.12 10.75,-16.01 3.02,1.01 5.95,1.84 8.71,2.9 m -4.15,-7.98 c -4.69,-1.301 -8.86,-0.551 -12.1,3.79 -4.75,6.44 -9.141,12.97 -12.681,20.609 8.191,2.791 15.781,6.01 23.801,8.111 3.77,1.03 6.58,-0.061 9.06,-2.851 5.659,-6.55 9.969,-13.939 14.46,-21.96 -7.801,-3.159 -15.15,-5.58 -22.54,-7.699 m 183.79,-123.82 c -5.46,3.28 -11.241,5.49 -17.281,8.479 -3.879,-5.029 -7.559,-9.739 -11.379,-14.689 5.98,-2.901 11.47,-5.521 17.33,-7.47 4.23,4.31 7.68,8.79 11.33,13.68 m 10.09,3.599 c -4.311,-7.71 -9.57,-13.92 -15.141,-19.92 -3.429,-3.569 -7.19,-4.599 -11.789,-2.359 -3.56,1.75 -7.191,3.359 -10.78,4.92 -3.451,1.55 -6.871,2.96 -10.871,4.71 5.21,8.54 10.73,16.18 18.201,22.16 2.73,2.159 5.719,1.529 8.569,0.29 7.071,-3.19 14.111,-6.41 21.811,-9.801 m -127.873,69.221 c 1.523,1.121 3.162,2.155 4.053,4.887 -5.519,8.709 -13.741,15.379 -21.473,22.881 -9.026,-5.519 -18.139,-10.148 -27.079,-16.156 5.175,-2.443 6.181,-2.643 10.32,-0.546 5.376,2.703 10.579,5.721 15.983,8.71 1.753,-1.724 3.593,-3.162 4.829,-5.173 -6.812,-4.859 -14.258,-7.934 -20.841,-13.223 3.967,-3.076 7.158,-2.243 10.521,-0.346 5.06,2.875 9.602,6.554 14.862,8.883 1.926,-1.408 3.535,-2.788 4.657,-4.57 -6.784,-4.715 -14.258,-8.28 -21.1,-13.367 3.479,-2.76 6.525,-2.587 9.63,-1.122 5.548,2.501 10.722,5.548 15.638,9.142 m -151.033,354.996 c 4.887,-1.983 9.803,-3.938 14.804,-5.577 2.415,-0.804 4.945,-2.126 7.819,-0.804 2.415,1.926 2.472,5.031 2.587,7.761 0.231,6.957 1.294,13.712 2.3,20.496 0.144,0.92 0.029,1.897 0.029,3.191 -9.658,3.564 -19.087,7.387 -28.919,10.032 -0.545,-1.725 -0.315,-2.645 0.03,-3.536 1.178,-3.018 3.938,-3.881 6.582,-4.915 5.261,-2.013 10.895,-3.048 15.523,-6.669 0,-2.214 -0.23,-4.168 -1.351,-5.951 -7.56,2.587 -15.005,5.145 -22.853,7.819 -0.259,-4.57 1.236,-7.071 5.031,-8.336 5.864,-2.041 11.641,-4.255 17.592,-6.382 -0.173,-2.185 -0.345,-4.311 -0.546,-6.927 -8.193,2.5 -15.552,6.237 -23.773,8.192 -0.546,-4.772 1.811,-7.014 5.145,-8.394 m 34.59,106.546 c 3.881,7.962 5.634,16.414 9.716,24.232 1.466,-1.609 3.248,-2.155 4.111,-4.369 -1.553,-3.909 -3.248,-8.135 -4.973,-12.303 -1.294,-3.018 -2.386,-6.065 -2.271,-9.4 0.086,-2.127 0.402,-4.225 3.392,-4.599 2.07,2.702 2.644,6.151 3.909,9.227 2.099,5.117 4.398,10.119 5.864,15.494 0.691,2.645 0.489,4.916 -1.523,6.87 -3.565,3.277 -7.215,6.526 -12.303,8.25 -2.99,-7.617 -5.864,-14.976 -8.825,-22.622 -2.099,1.006 -3.737,2.04 -5.059,3.593 1.781,4.886 3.391,9.601 5.202,14.143 1.121,2.989 0.92,6.036 0.719,9.112 -0.086,1.61 -0.747,2.874 -2.961,2.989 -2.903,-7.761 -5.864,-15.58 -8.882,-23.312 -1.092,-2.788 -0.862,-5.318 0.805,-7.589 3.392,-4.427 7.56,-7.733 13.079,-9.716 m -21.605,-183.71 c 0.718,8.566 -1.639,16.873 -0.719,25.411 2.012,-0.46 3.766,0.259 5.289,-1.064 0.69,-2.213 0.374,-4.542 0.288,-6.755 -0.144,-3.88 0.201,-7.675 0.977,-11.441 0.661,-3.708 1.581,-7.56 6.611,-8.537 0.374,9.227 -1.006,18.138 -1.351,27.078 -0.143,2.616 -2.098,4.484 -4.369,5.692 -4.427,2.443 -9.199,2.673 -14.545,2.443 0.259,-8.48 1.61,-16.557 0.891,-25.009 -1.926,0.518 -3.65,-0.143 -5.347,1.122 -0.833,9.141 1.524,19.546 -8.02,26.934 -0.431,-9.457 0.058,-18.253 1.093,-26.934 0.545,-4.456 3.42,-6.842 7.473,-7.532 3.824,-0.718 7.704,-0.977 11.729,-1.408 m 40.201,229.203 c 3.65,7.589 7.186,14.947 10.865,22.594 1.869,-1.208 3.536,-1.898 4.255,-3.622 -2.875,-6.152 -5.864,-12.131 -8.653,-18.139 -1.495,-3.248 -1.207,-6.238 1.725,-9.256 5.548,8.02 9.716,16.558 12.993,25.497 0.604,1.438 0.661,3.163 -0.258,4.485 -3.134,4.801 -7.043,8.681 -12.562,11.124 -3.709,-7.531 -7.187,-14.631 -10.751,-21.961 -2.156,0.776 -3.536,1.983 -4.915,3.766 1.293,3.823 3.334,6.783 5.087,9.974 1.38,2.53 2.846,5.002 3.45,7.79 0.661,2.961 0.574,5.807 -1.926,8.882 -5.146,-8.077 -9.084,-16.068 -12.102,-24.52 -0.748,-1.925 -1.007,-4.282 0.373,-6.093 3.277,-4.428 6.986,-8.423 12.419,-10.521 m 183.78,-564.105 c -6.06,3.45 -11.81,6.62 -17.701,9.95 -2.449,-2.59 -4.75,-5.12 -7.619,-8.16 8.57,1.32 13.88,-4.691 20.29,-7.101 2.45,1.12 3.909,2.671 5.03,5.311 m -7.83,-18.04 c -2.84,-2.13 -5.69,-2.821 -8.97,-0.06 3.139,3.36 6.21,6.64 9.86,10.579 -8.13,-0.38 -14.261,3.221 -20.23,7.301 -2.1,-1.931 -3.971,-3.79 -6.07,-5.721 -2.07,-0.689 -4.28,-0.09 -6.5,-0.059 -0.51,2.07 1.07,2.88 1.99,3.91 4.37,4.74 9.049,9.26 13.25,14.14 1.609,1.889 3.51,3.23 5.46,4.509 l 25.56,-13.75 0.009,-0.009 c 0.481,-0.39 0.871,-0.81 1.051,-1.35 0.37,-1.87 -0.32,-3.05 -1.04,-4.17 -3.991,-5.86 -8.681,-11.13 -14.37,-15.32 m 13.05,23.21 -22.85,12.299 c 0.82,0.541 1.63,1.081 2.409,1.661 1.931,1.46 4.321,1.32 6.531,0.25 2.36,-1.151 4.739,-2.321 7.04,-3.59 4.63,-2.53 9,-5.49 14.23,-7.7 -2.09,-3.54 -4.761,-2.93 -7.36,-2.92"
             style="fill:#ffffff;fill-opacity:1;fill-rule:nonzero;stroke:none"
             id="path38"
             inkscape:connector-curvature="0" /></g><g
           id="g40"
           transform="translate(761.4785,415.1602)"><path
             d="M 0,0 C 0.04,-0.02 0.08,-0.05 0.12,-0.09 L 0.011,0.03 C 0.011,0.021 0,0.011 0,0 m -5.494,286.725 c 0.776,-2.041 1.581,-3.392 3.306,-3.421 6.87,-0.143 13.711,-0.23 20.783,0.719 -0.978,3.536 -3.191,3.91 -5.807,3.91 -5.979,0.028 -11.958,-0.288 -18.282,-1.208 M 18.716,160.63 c 6.094,-1.552 12.044,-3.939 18.655,-3.68 -5.835,7.216 -13.855,8.451 -22.91,9.055 1.265,-2.702 2.127,-4.858 4.255,-5.375 m 8.043,93.874 c 0.632,0.431 0.345,1.064 0.173,1.581 -1.266,4.14 -4.428,6.468 -7.935,8.538 -3.047,1.782 -6.496,2.845 -8.911,5.749 10.751,6.755 10.78,6.784 9.601,11.728 -6.668,-3.593 -13.337,-7.186 -20.438,-11.038 7.272,-5.778 23.772,-15.638 27.51,-16.558 m -191.377,-440.615 c -4.082,-4.025 -4.456,-5.634 -1.811,-12.217 1.437,0.603 2.587,1.149 3.766,1.696 0.373,2.041 -1.582,3.621 -0.633,5.979 4.57,3.018 9.4,6.093 14.114,9.285 1.639,-2.013 1.869,-4.226 2.501,-6.181 0.92,-2.587 1.984,-5.002 3.334,-7.272 1.035,-1.811 2.444,-2.818 4.743,-1.639 -2.415,7.388 -4.599,14.66 -7.531,21.53 -5.261,-1.235 -13.079,-6.065 -18.483,-11.181 M -9.556,310.702 c 5.06,0.143 10.119,0.028 15.465,0.028 1.495,-4.196 2.904,-8.537 4.571,-13.337 -6.353,-2.271 -12.792,-0.345 -18.685,-2.961 5.29,-5.203 17.449,-4.801 24.204,0.805 -1.38,7.301 -5.576,13.855 -7.33,21.645 -8.222,-1.523 -16.327,-0.776 -24.232,-2.731 1.149,-2.989 3.277,-3.593 6.007,-3.449 m -114.557,-468.45 c -6.755,-1.466 -15.637,-9.486 -18.483,-16.27 2.213,-6.497 4.973,-12.878 9.141,-19.49 4.513,8.423 -2.357,14.057 -3.392,20.841 3.794,2.846 7.646,5.777 11.613,8.796 2.961,-5.404 4.255,-11.239 7.417,-16.27 2.27,1.236 2.557,3.22 2.156,5.031 -1.582,6.467 -4.082,12.533 -8.452,17.362 m 146.08,372.696 c -3.565,-5.779 -10.55,-9.458 -9.027,-17.995 6.554,4.168 9.659,10.434 12.074,16.988 2.012,0.173 3.708,0.374 5.231,-1.121 0.345,-4.225 0.661,-8.594 1.065,-12.935 -1.553,-1.15 -3.307,0.201 -4.831,-0.546 0.087,-4.887 1.352,-5.433 9.372,-4.14 0.804,7.675 -1.409,15.235 -2.041,23.112 -7.733,0.833 -14.977,2.845 -22.824,3.19 1.696,-6.209 6.381,-5.893 10.981,-6.553 m -37.016,103.024 c 7.215,0.948 14.057,1.839 21.128,2.817 -0.546,3.104 -2.443,3.851 -4.513,4.11 -2.299,0.173 -4.542,-0.172 -6.784,-0.632 -2.76,-0.604 -5.49,-0.977 -8.624,-0.259 -2.615,3.823 -4.455,8.077 -5.576,13.022 5.95,0.747 11.699,1.034 17.391,2.472 -2.243,3.651 -2.185,3.737 -4.571,3.852 -5.49,0.172 -10.894,-0.69 -16.126,-2.271 -1.465,-0.489 -2.817,-1.092 -3.449,-3.363 2.529,-6.986 4.57,-14.776 11.124,-19.748 M -81.71,-130.619 c -1.239,-5.78 -6.47,-7.79 -8.68,-12.301 -0.089,-0.17 -0.03,-0.37 -0.089,-0.809 0.719,-1 1.07,-2.611 2.62,-3.561 3.359,3.681 7.069,7.131 9.92,11.301 -0.691,2.09 -1.96,3.359 -3.771,5.37 m -2.729,13.809 c 4.349,-6.639 8.569,-13.139 12.939,-19.87 -5.029,-6.549 -10.64,-11.92 -16.38,-17.13 -4.029,1.73 -5.809,4.63 -7.279,7.76 -1.03,2.25 -0.261,4.401 1.149,6.41 3.111,4.37 6.93,8 10.521,11.88 -0.691,3.5 -5.031,6.49 -0.95,10.95 m 90.07,366.401 c -0.489,-8.422 2.27,-15.982 3.65,-24.376 3.306,3.938 3.306,3.938 1.897,18.541 1.178,0.92 2.415,0.92 3.623,0.029 2.788,-10.348 2.788,-10.348 7.53,-11.498 -0.919,3.852 -1.926,7.617 -3.075,12.13 2.213,-0.862 3.881,0.374 5.375,-1.006 1.007,-6.582 0.977,-13.74 8.222,-19.144 -0.748,7.847 -2.07,14.343 -3.623,20.725 -0.459,2.185 -2.212,3.162 -4.082,3.622 -6.209,1.408 -12.561,1.84 -19.517,0.977 m -17.57,-244 c -0.38,0.01 -0.79,-0.051 -1.25,-0.24 -3.651,-6.271 -6.55,-13.34 -8.911,-21.651 8.34,2.561 8.34,10.09 11.47,15.49 1.24,-0.919 2.59,-1.169 2.931,-3.009 -1.381,-4.37 -3.821,-9 -0.401,-14.58 2.441,4.139 3.48,8.189 3.911,12.559 1.899,-1.09 3.45,-1.72 4.2,-3.68 -1.301,-6.259 -6.611,-11.929 -3.281,-20.349 3.68,6.899 6.581,13.17 8.14,20.01 0.36,1.719 -0.21,3.179 -1.229,4.54 z m -89.92,-156.721 c -2.411,-4.769 -5.521,-8.54 -9.92,-11.5 0.779,-1.55 0.179,-3.45 2.159,-4.71 4,2.67 7.65,5.83 11.011,9.74 -0.491,2.68 -1.701,4.43 -3.25,6.47 m -1.931,13.24 c 4.341,-6.389 7.301,-13.37 11.551,-20.269 -5.891,-5.811 -11.04,-11.381 -17.24,-15.41 -1.93,0 -2.911,1.21 -3.8,2.45 -2.841,3.819 -5.12,7.989 -6.901,12.439 -0.86,2.22 -1.519,4.66 0.981,6.901 2.59,-2.151 3.279,-5.491 5.599,-8.481 1.701,5.55 6.79,8.021 9.98,12.191 -1.239,3.359 -4.02,6.5 -0.17,10.179 m 54.54,37.201 c -2.96,3.53 -5.89,6.929 -8.96,10.58 -2.85,-3.971 -5.38,-7.481 -7.91,-10.981 2.19,-4.43 4.971,-7.88 8.65,-10.809 3.021,3.589 5.75,7.179 8.22,11.21 m 5.12,-0.18 c -2.649,-7.211 -7.99,-12.591 -12.79,-19.08 -5.059,4.569 -8.66,9.22 -12.22,13.909 -2.16,2.73 -1.87,5.551 -0.259,8.511 3.019,5.319 6.639,10.17 11.069,15 5.721,-5.46 10.52,-11.21 14.2,-18.34 m 76.731,248.74 c -4.431,0.579 -8.34,2.929 -13.08,3.19 -0.411,-5.4 -0.75,-10.52 -1.18,-15.951 5.119,-1.38 9.569,-2.67 14.309,-4 0.321,5.75 0.38,11.011 -0.049,16.761 m 4.83,3.449 c 0.399,-8.08 1.319,-15.949 -1.84,-24.09 -7.28,-0.6 -13.66,1.24 -19.41,4.95 -2.58,1.611 -2.531,5.03 -2.441,7.87 0.14,5.721 1.26,11.39 0.95,17.85 7.901,-2.27 15.06,-4.39 22.741,-6.58 M -1.87,26.391 C -3.359,21.04 -5.779,16.271 -6.529,10.98 -2.67,8.141 1,5.58 5.2,3.42 6.78,8.83 9.25,13.71 10.23,19.29 6.091,21.681 2.24,23.95 -1.87,26.391 M -4.37,33.7 C 2.53,29.07 9.08,24.67 15.811,20.19 13.88,12.54 12.5,4.92 7.61,-0.71 5.08,-2.05 3.29,-0.869 1.49,-0.27 L -9.489,7.41 -9.5,7.42 c -2.26,2.65 -2.09,5.87 -0.819,9.32 1.979,5.46 3.88,11.01 5.949,16.96 m 35.211,85.26 c -2.131,0.57 -4,1.201 -6.24,1.811 1.069,-5.411 0.17,-10.44 0.319,-15.321 1.21,-1.38 2.5,-1.84 4.37,-1.61 0.721,4.91 1.92,9.83 1.551,15.12 m 5.18,2.76 C 36.62,109.42 35.391,102.23 32,98.09 c -2.14,-0.56 -4.159,0.44 -6.25,0.9 l -9.85,4.41 c -1.599,1.15 -3.059,2.46 -3.62,4.871 3.42,0.77 5.861,-1.531 9.191,-1.841 -1.63,5.03 -0.601,10.2 -0.051,15.381 -2.989,1.949 -7.279,1.919 -7.359,6.52 3.189,0.549 13.969,-2.701 21.96,-6.611 m -207.3,-333.039 c -1.321,4.54 -2.531,8.91 -3.79,13.45 -4.311,-1.691 -7.851,-4.141 -12.191,-6.551 1.441,-4.51 1.55,-9.14 3.68,-13.399 4.23,2.189 8.141,4.29 12.301,6.5 m -0.611,21.309 c 1.321,-7.899 5.411,-14.429 5.43,-22.33 -5.569,-5.84 -12.529,-9.49 -20.35,-12.91 -1.639,7.79 -5.599,14.66 -4.94,22.771 5.521,5.78 12.91,8.309 19.86,12.469 m 148.504,150.078 c -2.96,-5.605 -5.805,-10.951 -8.594,-16.355 -1.38,0.747 -2.731,1.121 -3.249,2.816 1.208,3.652 3.652,6.813 5.405,10.377 1.495,3.019 3.076,6.324 -0.546,9.889 -3.191,-6.094 -6.353,-11.872 -9.314,-17.793 -0.834,-1.754 -0.804,-3.795 0.431,-5.49 2.328,-3.22 5.03,-5.98 9.084,-7.331 3.105,5.72 6.065,11.125 8.997,16.587 1.524,-0.719 2.272,-1.466 2.99,-2.933 -2.53,-4.973 -5.577,-9.399 -7.387,-14.401 -1.121,-3.163 -0.834,-3.565 2.701,-5.491 2.415,7.733 9.4,13.453 9.486,22.106 -3.248,3.162 -5.749,6.496 -10.004,8.019 m 61.427,221.569 c -1.034,8.25 -5.835,11.469 -14.574,9.802 v -17.937 c -1.696,0 -3.075,-0.144 -3.995,1.121 -0.691,15.408 -0.95,16.184 -5.893,18.886 -0.346,-5.893 -0.489,-11.642 0.057,-17.305 0.288,-2.99 1.897,-5.461 4.628,-6.813 3.364,-1.609 6.899,-2.817 10.866,-2.213 0.805,6.468 -1.293,12.677 -0.287,18.857 1.552,0.402 2.76,0 3.736,-1.265 0.978,-3.909 -0.086,-7.905 0.402,-11.9 0.374,-3.105 0.864,-6.008 5.204,-7.388 0.23,5.893 0.575,11.096 -0.144,16.155 M -26.56,-76.56 -37.81,-94.439 c 0.621,-1.391 0.29,-3.241 2.56,-3.521 3.82,4.341 6.811,9.37 9.48,14.601 1.041,2.13 1.09,3.799 -0.2,5.899 -0.189,0.301 -0.389,0.61 -0.59,0.9 m -6.509,0.6 c -1.301,1.96 -3.021,3.431 -5.491,5.67 0.661,-6.38 -3.25,-10.149 -5.549,-14.55 0.979,-1.609 1.75,-3.069 3.759,-3.359 2.51,4.019 5.5,7.729 7.281,12.239 m 5.609,0.71 -12.3,-19.529 c -1.219,-0.29 -2.439,0.16 -3.599,1.219 -3.651,3.27 -7.13,6.75 -10.351,10.55 -1.84,2.18 -1.84,4.45 -0.199,7.21 2.729,-1.229 4.369,-3.88 6.979,-5.859 1.47,4.8 3.89,8.819 7.05,13.159 -2.96,2.881 -5.55,5.49 -4.14,9.58 1.581,0.941 2.21,-0.29 2.93,-1.069 4.53,-5.091 9.651,-9.681 13.63,-15.261 M 27.271,90.44 c -4.42,1.84 -8.51,3.5 -12.93,5.371 -0.921,-5.551 -1.761,-10.52 -2.651,-15.75 4.23,-1.901 8.34,-3.8 12.911,-5.871 0.979,5.951 1.779,11.04 2.67,16.25 m 4.669,2.601 c 0.35,-0.261 0.69,-0.52 1.04,-0.811 -1.15,-6.27 -2.129,-12.759 -3.389,-19.169 -0.41,-1.991 -2.07,-3.17 -4.231,-3.021 -0.83,0.061 -1.67,0.181 -2.519,0.311 H 22.83 L 8.82,77.16 8.811,77.17 c -1.581,1.56 -2.191,3.41 -1.79,5.77 1.24,6.391 2.299,12.74 3.419,19.06 0.27,0.15 0.52,0.26 0.76,0.32 z m -5.629,-29.36 c 1.009,-7.531 -3.25,-14.601 -4.46,-22.3 -5.401,6.489 -0.34,12.989 0.029,19.55 -1.06,1.809 -2.81,2.38 -4.88,3.21 0.54,-4.08 -0.29,-7.76 -1.58,-11.55 -3.05,1.059 -3.8,3.25 -3.43,6.149 0.29,2.271 0.611,4.571 0.691,6.87 0.12,1.75 -0.941,2.33 -2.84,2.191 C 7.54,62.36 8.601,54.86 0.87,50.891 1.96,59.66 3.57,67.08 6.271,73.601 6.851,74.11 7.33,74.36 7.75,74.45 l 15.48,-7.519 0.01,-0.011 c 1.101,-0.89 2.16,-1.899 3.071,-3.239"
             style="fill:#ffffff;fill-opacity:1;fill-rule:nonzero;stroke:none"
             id="path42"
             inkscape:connector-curvature="0" /></g></g></g></g></svg>