<?xml version="1.0" encoding="UTF-8" standalone="no"?>
<!-- Created with Inkscape (http://www.inkscape.org/) -->

<svg
   xmlns:dc="http://purl.org/dc/elements/1.1/"
   xmlns:cc="http://creativecommons.org/ns#"
   xmlns:rdf="http://www.w3.org/1999/02/22-rdf-syntax-ns#"
   xmlns:svg="http://www.w3.org/2000/svg"
   xmlns="http://www.w3.org/2000/svg"
   xmlns:sodipodi="http://sodipodi.sourceforge.net/DTD/sodipodi-0.dtd"
   xmlns:inkscape="http://www.inkscape.org/namespaces/inkscape"
   version="1.1"
   id="svg2"
   xml:space="preserve"
   width="852.01636"
   height="974.75018"
   viewBox="0 0 852.01639 974.75022"
   sodipodi:docname="Brasao-DASI.svg"
   inkscape:version="0.92.4 (5da689c313, 2019-01-14)"><metadata
     id="metadata8"><rdf:RDF><cc:Work
         rdf:about=""><dc:format>image/svg+xml</dc:format><dc:type
           rdf:resource="http://purl.org/dc/dcmitype/StillImage" /><dc:title></dc:title></cc:Work></rdf:RDF></metadata><defs
     id="defs6"><clipPath
       clipPathUnits="userSpaceOnUse"
       id="clipPath18"><path
         d="M 0,1000 H 1000 V 0 H 0 Z"
         id="path16"
         inkscape:connector-curvature="0" /></clipPath></defs><sodipodi:namedview
     pagecolor="#ffffff"
     bordercolor="#666666"
     borderopacity="1"
     objecttolerance="10"
     gridtolerance="10"
     guidetolerance="10"
     inkscape:pageopacity="0"
     inkscape:pageshadow="2"
     inkscape:window-width="1920"
     inkscape:window-height="1017"
     id="namedview4"
     showgrid="false"
     fit-margin-top="0"
     fit-margin-left="0"
     fit-margin-right="0"
     fit-margin-bottom="0"
     inkscape:zoom="0.70800004"
     inkscape:cx="702.38902"
     inkscape:cy="479.39279"
     inkscape:window-x="-8"
     inkscape:window-y="-8"
     inkscape:window-maximized="1"
     inkscape:current-layer="g10" /><g
     id="g10"
     inkscape:groupmode="layer"
     inkscape:label="Brasao-DASI"
     transform="matrix(1.3333333,0,0,-1.3333333,-240.65873,1154.042)"><g
       id="g12"><g
         id="g14"
         clip-path="url(#clipPath18)"><g
           id="g20"
           transform="translate(267.3633,864.9565)"><path
             d="m 0,0 c 4.686,-0.058 8.566,-1.552 12.36,-3.104 14.057,-6.037 28.861,-8.797 43.809,-11.154 9.888,-1.409 19.777,-3.22 29.723,-3.909 39.812,-2.933 79.252,-1.38 118.001,9.486 7.991,2.213 15.896,4.743 23.743,7.387 3.22,1.092 6.094,1.006 9.314,-0.029 13.366,-4.168 26.618,-8.393 40.301,-11.383 15.178,-3.335 30.499,-5.203 45.965,-6.18 13.165,-0.776 26.417,-0.546 39.669,-0.259 13.654,0.259 27.02,2.501 40.559,4.025 11.297,1.35 22.393,3.248 33.259,6.582 6.151,1.869 12.131,4.255 18.196,6.267 3.018,0.977 6.066,1.868 9.113,2.846 6.524,-13.137 15.005,-24.664 21.904,-37.197 25.842,-46.626 45.245,-95.752 56.14,-148.299 8.019,-38.691 11.527,-77.699 9.544,-117.08 -1.237,-25.929 -4.6,-51.484 -9.889,-76.924 -6.842,-32.798 -15.982,-64.908 -28.315,-95.982 -15.838,-40.013 -37.542,-76.721 -63.815,-110.67 -10.693,-13.74 -22.191,-26.59 -34.437,-38.95 -22.68,-22.738 -48.121,-41.853 -75.4,-58.641 -31.102,-19.116 -64.131,-33.833 -98.482,-45.677 -5.979,-2.127 -11.585,-2.213 -17.65,-0.114 -17.535,5.892 -34.495,13.194 -51.454,20.495 -37.945,16.213 -71.376,39.553 -102.967,66.115 -38.778,32.655 -68.444,72.697 -93.596,116.592 -17.305,30.096 -29.235,62.407 -39.755,95.435 -5.922,18.455 -10.579,37.082 -13.511,56.227 -2.357,15.551 -5.72,30.93 -7.445,46.51 -0.69,6.324 -1.552,12.59 -1.61,18.943 -0.143,18.714 -0.287,37.571 0.144,56.342 0.575,21.616 4.111,42.716 8.337,63.758 10.003,49.04 27.336,95.406 50.218,139.703 7.359,14.315 16.299,27.567 24.319,41.394 C -2.242,-5.002 -0.719,-2.616 0,0"
             style="fill:#331458;fill-opacity:1;fill-rule:nonzero;stroke:none"
             id="path22"
             inkscape:connector-curvature="0" /></g><g
           id="g24"
           transform="translate(810.0518,640.9131)"><path
             d="m 0,0 c -3.536,27.337 -9.285,54.301 -17.334,80.66 -11.757,38.318 -27.94,74.652 -47.861,109.348 -5.261,9.199 -11.096,18.11 -16.731,27.194 -1.609,-0.517 -2.931,-0.719 -4.138,-1.179 -16.012,-6.237 -32.253,-10.492 -49.213,-12.676 -19.834,-2.53 -39.669,-4.916 -59.734,-4.916 -8.307,0 -16.615,0.46 -24.893,0.834 -6.41,0.316 -12.849,0.776 -19.202,1.465 -20.64,2.415 -40.906,7.015 -60.596,13.827 -7.215,2.587 -13.712,2.818 -21.156,0.144 -30.097,-10.895 -61.459,-15.264 -93.251,-16.126 -11.527,-0.346 -23.055,-0.087 -34.553,0.517 -13.999,0.747 -27.711,3.191 -41.595,5.145 -15.321,2.185 -30.268,5.951 -44.699,11.872 -1.208,0.46 -2.443,1.035 -3.938,0.662 -0.316,-0.345 -0.748,-0.69 -1.006,-1.179 -11.613,-19.03 -23.543,-37.858 -32.971,-58.181 -8.768,-18.943 -17.191,-37.887 -24.118,-57.549 -9.888,-28.372 -17.161,-57.462 -22.192,-87.099 -2.644,-16.069 -4.225,-32.281 -4.426,-48.494 -0.23,-14.66 -0.288,-29.234 0.028,-43.866 0.173,-10.147 0.949,-20.236 2.587,-30.269 1.984,-11.9 4.255,-23.772 6.008,-35.644 2.904,-19.95 7.56,-39.439 13.741,-58.584 10.09,-31.447 21.099,-62.579 37.542,-91.382 15.148,-26.561 31.734,-52.144 51.426,-75.601 17.707,-21.099 38.03,-39.381 59.618,-56.313 5.145,-4.024 11.613,-8.71 17.075,-12.676 4.254,-3.163 8.364,-6.353 12.763,-9.285 31.993,-21.071 66.948,-35.702 102.564,-48.983 6.927,-2.529 13.338,-2.27 20.208,0.23 34.207,12.39 67.121,27.194 98.023,46.655 22.881,14.459 44.527,30.441 64.045,49.212 27.25,26.245 50.736,55.738 70.312,88.392 14.659,24.549 28.142,49.788 37.427,77.01 9.543,27.826 17.936,55.939 23.801,84.886 5.346,26.101 8.421,52.461 9.773,79.079 C 4.57,-48.494 3.075,-24.175 0,0"
             style="fill:#fdfdfd;fill-opacity:1;fill-rule:nonzero;stroke:none"
             id="path26"
             inkscape:connector-curvature="0" /></g><g
           id="g28"
           transform="translate(691.249,806.9878)"><path
             d="m 0,0 c 6.582,-9.342 12.188,-18.886 17.62,-28.458 20.813,-36.909 36.881,-75.745 46.31,-117.282 4.341,-19.231 7.33,-38.663 8.853,-58.383 1.294,-15.896 1.438,-31.792 0.777,-47.66 -0.978,-23.427 -4.284,-46.539 -9.17,-69.421 -7.302,-34.12 -18.197,-67.034 -33.431,-98.424 -32.942,-67.897 -81.868,-120.33 -147.522,-156.462 -21.388,-11.815 -43.924,-21.042 -67.064,-28.717 -3.622,-1.207 -7.158,-1.466 -10.895,-0.231 -37.743,12.362 -73.186,29.408 -105.525,52.893 -41.566,30.125 -74.566,68.012 -99.575,113.171 -21.444,38.663 -35.903,79.884 -44.556,123.376 -5.576,28.228 -8.939,56.686 -8.623,85.576 0.402,35.012 5.346,69.42 14.833,103.11 12.619,44.642 32.453,85.978 57.635,124.756 0.374,0.575 0.891,1.179 1.581,2.012 10.291,-4.685 21.099,-7.962 32.108,-10.348 14.775,-3.335 29.723,-5.232 44.815,-6.094 30.355,-1.897 60.28,0.632 89.772,8.365 6.555,1.696 13.022,3.794 19.346,6.41 2.012,0.719 3.909,1.035 6.008,0.172 24.75,-9.543 50.477,-13.826 76.837,-15.062 30.959,-1.552 61.4,1.236 91.296,9.687 C -12.419,-5.289 -6.411,-2.989 0,0"
             style="fill:#331458;fill-opacity:1;fill-rule:nonzero;stroke:none"
             id="path30"
             inkscape:connector-curvature="0" /></g><g
           id="g32"
           transform="translate(530.2588,828.2939)"><path
             d="M 0,0 C -0.173,2.099 -0.488,3.996 0.115,5.605 5.06,7.158 11.844,3.421 13.971,11.757 H -4.226 C -7.761,5.922 -5.404,-0.259 -5.979,-6.698 H 7.733 c 0.172,-2.213 0.833,-4.081 -0.776,-5.864 -5.145,0.086 -10.751,0.748 -12.965,-6.697 5.462,0 10.722,-0.087 15.954,0.029 2.358,0.028 4.14,1.379 4.197,3.794 0.144,4.915 -0.029,9.802 -0.086,14.631 C 8.969,0.086 4.427,-1.006 0,0 m -37.521,5.047 c -2.27,0.8 -4.31,0.49 -6.669,0.31 v -18.22 h 3.679 c 1.09,0 2.24,-0.14 2.99,0.86 z m 6.92,6.94 c 0,-8.45 0.06,-16.13 -0.03,-23.74 -0.05,-5.61 -1.46,-6.99 -7.07,-7.13 -4.11,-0.15 -8.16,-0.03 -12.73,-0.03 0,9.51 -0.029,18.42 0.03,27.36 0.02,2.28 1.461,3.48 3.651,3.51 5.229,0.06 10.459,0.03 16.149,0.03 m 8.17,-24.23 c 2.701,-0.86 5.26,-0.77 7.991,-0.05 v 17.33 c -2.67,0.75 -5.231,0.66 -7.991,0.03 z m -3.62,23.99 h 17.79 v -21.67 c 0,-8.31 -0.66,-8.91 -9.08,-9 -3.54,-0.05 -7.08,0 -10.93,0 -1.32,19.38 -0.77,26.71 2.22,30.67 m -31.325,0.191 c -5.203,0.058 -10.464,0.46 -15.811,-0.258 2.07,-8.25 9.027,-4.427 13.626,-6.123 0.086,-1.725 0.69,-3.421 -0.747,-5.289 h -13.626 c 0,-4.83 -0.201,-9.429 0.029,-14.028 0.173,-3.565 1.696,-5.433 4.542,-5.462 5.232,-0.057 10.464,-0.488 15.925,0.316 -1.897,8.02 -8.422,5.807 -13.769,6.583 0.489,2.098 -0.546,3.996 1.006,5.979 h 13.453 c 0,4.714 0.144,8.739 -0.058,12.705 -0.201,3.421 -1.868,5.549 -4.57,5.577 M 48.719,-16.885 c 2.529,2.846 5.116,5.72 7.933,8.94 -4.168,0.661 -7.704,1.236 -11.039,1.725 -2.27,3.334 -2.989,7.186 -5.835,10.75 -1.925,-3.794 -3.737,-7.243 -5.49,-10.721 -3.823,-0.518 -7.417,-1.208 -11.383,-1.811 1.897,-3.852 5.404,-5.376 6.841,-7.848 2.013,-4.628 -1.466,-8.567 -0.259,-12.792 4.111,1.351 6.986,4.111 10.321,4.801 3.621,-0.604 5.921,-4.082 9.658,-3.421 1.379,3.679 -0.949,6.87 -0.747,10.377 m -141.74,10.668 c 3.421,-0.547 7.101,-1.208 11.47,-1.84 -2.214,-3.881 -5.835,-5.692 -7.646,-9.256 0.259,-3.45 0.546,-6.985 0.919,-11.039 -4.197,0.834 -6.927,3.766 -10.693,4.6 -3.478,-1.006 -6.266,-3.766 -10.061,-4.686 -0.92,4.082 1.638,7.646 0.862,11.556 -1.897,3.191 -5.864,4.628 -7.646,8.624 3.823,0.69 7.359,1.351 11.096,2.041 2.357,3.133 3.248,7.215 6.151,10.721 1.926,-3.679 3.623,-7.013 5.548,-10.721"
             style="fill:#331458;fill-opacity:1;fill-rule:nonzero;stroke:none"
             id="path34"
             inkscape:connector-curvature="0" /></g><g
           id="g36"
           transform="translate(501.9043,207.5967)"><path
             d="m 0,0 c -32.971,10.348 -64.39,24.577 -93.481,43.75 -57.807,38.002 -99.517,89.772 -127.372,153.415 -14.2,32.541 -24.002,66.432 -29.952,101.444 -4.6,26.848 -6.928,54.013 -5.721,81.321 2.185,47.862 12.533,93.854 31.046,137.95 9.917,23.686 21.789,46.309 35.414,67.955 0.862,1.466 1.84,2.874 2.731,4.197 62.723,-19.979 125.129,-19.979 188.024,1.034 29.465,-11.268 60.683,-15.666 92.619,-15.666 31.85,-0.057 63.154,3.737 93.509,15.121 4.829,-6.411 8.567,-13.195 12.476,-19.979 21.271,-36.823 37.484,-75.773 47.144,-117.426 4.369,-18.684 7.271,-37.57 8.853,-56.715 1.408,-17.046 1.609,-34.035 0.747,-51.138 -0.776,-16.471 -2.788,-32.856 -5.663,-49.012 -5.721,-31.965 -14.459,-63.01 -26.992,-92.876 C 207.025,164.108 185.035,128.32 156.29,97.016 125.992,64.103 90.491,38.547 50.305,19.633 34.006,11.986 17.334,5.49 0,0"
             style="fill:#331458;fill-opacity:1;fill-rule:nonzero;stroke:none"
             id="path38"
             inkscape:connector-curvature="0" /></g><g
           id="g40"
           transform="translate(621.3584,464.6504)"><path
             d="m 0,0 c 5.399,-3.8 7.67,-9 6.41,-15.87 -1.671,-9.109 -6.62,-16.359 -12.511,-23.6 -8.279,5.691 -10.12,14.37 -7.96,35.41 -3.739,2.19 -4.859,5.611 -4.46,10.21 C -11.561,5.78 -5.44,3.82 0,0 m -30.96,277.63 c -4.431,-4.51 -9.49,-8.1 -15.24,-10.78 -3.821,-1.84 -6.611,-4.37 -8.16,-8.27 -0.781,-2.1 -2.19,-3.45 -3.911,-4.75 -5.41,-3.99 -9.979,-8.82 -13.569,-14.539 -8.11,-12.851 -8.62,-26.071 -2.04,-39.761 2.04,-4.14 4.449,-7.93 7.44,-11.44 3.86,-4.63 6.99,-9.6 8.46,-15.46 1.69,-6.76 0.69,-13 -4,-18.23 -5.09,-5.72 -11.581,-9.17 -18.71,-11.379 -0.89,-0.261 -1.81,-0.381 -2.73,-0.631 -8.511,-2.849 -12.08,-6.3 -16.25,-16.13 -3.73,4.17 -7.33,8.25 -9.91,13.02 0.109,0.15 0.28,0.261 0.43,0.43 2.589,0.12 5.259,-0.86 7.79,0.43 1.23,0.64 1.259,0.55 2.15,3.401 -12.73,2.699 -19.34,14.279 -14.801,26.329 3.361,8.91 7.471,17.56 13.051,25.35 0.779,1.04 1.609,2.21 2.649,2.96 7.931,5.66 10.951,14.37 13.741,23.08 4.77,15.011 4.62,30.19 -0.031,45.62 6.67,11.13 14.371,21.27 26.531,27.11 6.349,3.051 12.759,4.34 19.75,2.18 3.91,-1.23 8.049,-1.61 12.24,-2.47 1.84,-6.409 -0.57,-11.61 -4.88,-16.07 M -243.8,-109.51 c 2.56,2.88 5.67,3.771 8.94,5.09 0.64,-2.5 1.18,-4.769 1.13,-7.45 -3.4,0.78 -6.39,1.5 -10.07,2.36 m -45.46,108.1 c -4.37,4.551 -4.37,6.82 0,13.2 2.18,-1.06 4.23,-2.359 5.95,-4.05 -0.29,-4.32 -2.36,-7.219 -5.95,-9.15 M -139,251.05 c -0.021,0.02 -0.04,0.03 -0.06,0.04 l -0.02,-0.02 v 0.03 c 0,0.05 0,0.09 -0.01,0.14 -3.85,1.25 -7.64,2.531 -11.75,3.89 2.65,1.46 5.12,2.87 7.59,4.391 2.58,-2.311 4.01,-4.971 4.16,-8.281 0.05,-0.02 0.11,-0.03 0.16,-0.05 l -0.06,-0.05 c -0.01,-0.03 -0.01,-0.06 -0.01,-0.09 0.26,-0.15 0.52,-0.3 0.729,-0.41 -0.719,-0.5 -0.779,-0.14 -0.729,0.41 m -39.21,6.73 c 2.76,3.25 4.689,5.75 8.45,6.21 1.1,-2.07 2.1,-4.05 3.28,-6.27 -3.74,-0.83 -7.21,0.84 -11.73,0.06 m 230.5,-49.05 c 8.02,9.311 14.66,19.43 17.04,31.88 0.38,1.95 0.949,3.99 -0.601,6.64 C 53.489,231.7 36.1,221.15 13.31,218.62 c 7.009,6.38 12.589,12.36 16.21,19.86 3.56,7.3 6.18,14.83 4.969,23.14 -2.899,0.2 -2.039,-3.329 -4.619,-3.31 1.72,10.18 1.859,19.981 -3.631,29.24 -2.76,-1.27 -3.159,-3.509 -4.219,-5.259 -5,-8.481 -9.8,-17.161 -17.36,-23.861 -0.02,0 -0.051,-0.01 -0.07,-0.01 -0.601,-0.6 -0.95,-1.57 -2.32,-1.26 -0.19,1.07 0.89,1.58 1.259,2.41 v 0.01 c 0.41,1.29 0.781,2.53 1.151,3.88 1.41,5.86 1.79,11.7 0.23,17.48 -0.37,1.32 -0.77,3.3 -3.24,2.04 1.58,-2.62 1.059,-4.98 -0.441,-7.39 -4.74,-7.45 -10,-14.37 -16.669,-20.15 -1.871,-1.64 -3.79,-3.419 -7.071,-4.72 5.49,14.9 5.891,28.75 -1.179,43.27 5.03,-1.3 9.46,-1.1 13.94,-0.52 4.37,0.75 7.88,2.33 9.489,6.93 0.001,0.003 0,0.005 0.001,0.008 0.94,0.377 1.17,1.349 1.601,2.094 -0.007,0.022 -0.02,0.034 -0.027,0.055 0.012,-0.008 0.023,-0.016 0.036,-0.023 l 0.834,1.092 c -0.004,0.003 -0.007,0.007 -0.01,0.01 0.488,0.431 1.175,1.005 0.313,1.551 -0.373,0.258 -0.862,-0.288 -1.006,-0.805 10e-4,-0.005 0.003,-0.007 0.003,-0.011 -0.647,-0.116 -1.015,-0.484 -1.134,-1.155 -0.016,0 -0.029,0.004 -0.044,0.004 -0.748,-0.115 -1.035,-0.833 -1.38,-1.408 0.004,-0.007 0.008,-0.013 0.012,-0.02 -2.726,-2.461 -5.967,-2.831 -9.459,-2.662 -6.7,0.23 -13,1.9 -18.859,5.23 -5.721,3.22 -11.841,4.95 -18.431,4.14 -8.679,-1 -16.839,-3.65 -24.37,-8.25 -6.38,-3.99 -13.139,-7.27 -19.229,-12.07 -3.42,5.63 -7.33,9.8 -13.83,10.38 -6.18,0.43 -11.24,-2.65 -16.27,-5.09 -19.14,10.03 -26.88,7.76 -40.39,-11.79 -3.13,-0.8 -6.46,-0.74 -9.34,0.72 -7.99,-6.21 -10.46,-14.69 -11.32,-23.8 -2.02,-0.89 -4.12,-1.03 -5.7,-0.34 -7.33,3.27 -14.34,7.04 -18.77,14.2 -2.9,4.68 -3.19,9.63 -0.6,14.71 0.66,1.27 2.01,2.3 1.81,4.06 -4.6,0.43 -6.5,-0.459 -8.14,-4.2 -1.98,-4.48 -1.811,-9.23 -1.26,-14.03 1.98,-16.729 17.53,-28.28 33.81,-25.09 2.87,0.54 5.6,1.32 8.36,1.58 14.49,1.41 28.46,0.83 39.01,-11.3 1.61,0.2 2.76,0.69 3.07,2.62 -0.51,2.41 -1.87,4.8 -4.42,6.64 11.26,-0.49 12.9,-1.9 11.93,-9.83 -6.62,-6.64 -10.35,-3.71 -16.39,2.33 -8.62,3.73 -17.45,-0.75 -25.44,3.1 -3.1,-3.71 -2.9,-5.52 0.95,-7.33 3.48,-1.61 7.27,-1.81 10.72,-2.21 5.18,-5.93 5.95,-8.05 5.18,-15.1 -2.1,0.67 -4.32,0.06 -6.21,1.21 -0.66,3.11 -0.09,6.27 -1.99,9.03 -6.95,-1.84 -7.381,-7.5 -7.53,-12.97 -8.54,-3.73 -16.87,-4.94 -25.52,-1.75 -1.1,0.46 -2.39,0.72 -3.63,-0.17 2.22,-3.48 4.26,-6.61 6.39,-10.01 -4.8,-4.13 -10.07,-7.18 -14.69,-10.52 -5.24,0.23 -9.55,3.08 -14.75,2.91 -0.14,-6.27 2.73,-11.39 3.849,-16.96 -2.379,-1.24 -4.509,-2.42 -6.209,-4.23 -1.52,-1.84 -2.9,-3.79 -4.48,-5.8 -1.58,1.72 -2.85,3.13 -3.97,4.31 -0.77,3.3 0.58,6.41 -0.23,8.97 -1.75,2.58 -4.19,3.96 -5.57,6.78 0.94,7.47 -0.87,14.92 -2.59,22.39 -1.73,7.65 -3.451,15.27 -5.06,22.34 3.94,9.28 9.66,17.24 11.35,26.99 -9.48,3.71 -4.77,10.49 -3.13,16.24 -2.27,0.92 -2.41,-1.55 -3.79,-1.29 -1.5,0.54 -0.75,1.72 -0.75,2.5 -3.13,2.53 -7.13,3.53 -9.75,6.411 -0.92,0.719 1.33,1.089 -0.23,1.919 -4.25,-0.97 -8.76,-1.43 -13.28,-0.66 -0.69,1.44 -1.32,2.82 -1.95,4.2 -4.63,0.49 -9.111,1.01 -14.03,1.521 -0.98,1.149 -2.18,2.679 -4.14,3.139 -11.61,-5.29 -16.21,-12.91 -12.93,-21.85 1.58,0.63 2.81,1.35 3.73,3.1 1.12,2.16 2.759,4.03 5.259,4.89 l -0.109,0.17 c 0.859,-0.8 0.46,-1.75 0.52,-2.67 0,-3.99 1.52,-7.009 5.57,-8.279 0.86,-0.261 1.67,-0.75 2.79,-1.261 -0.63,-7.05 2.27,-13.23 5.61,-19.84 -7.91,-0.43 -7.74,6.33 -10.44,9.92 -3.48,0.8 -6.441,-0.6 -9.34,-1.98 -1.32,-0.58 -2.36,-1.53 -4.11,-1.58 -4.31,-0.18 -5.95,-1.79 -6.33,-6.33 -0.31,-3.99 -0.11,-8.02 -0.02,-12.04 0.02,-1.18 0.51,-2.22 2.32,-2.16 0.44,1.35 0.9,2.9 1.59,4.97 4.8,-6.35 9.25,-12.85 18.19,-8.53 1.87,-2.04 4.2,-2.82 6.3,-4.23 -2.94,-9.08 3.16,-14.37 8.25,-20.03 -4.57,-6.47 -10.06,-4.81 -15.96,-1.84 0.06,-2.51 0.98,-4.75 -1.46,-5.78 -3.94,-0.49 -5.32,2.731 -7.22,5.461 -2.01,-0.261 -4.02,0.489 -6.21,-0.351 0.29,-3.129 1.41,-5.89 2.7,-8.649 2.45,-5.291 6.07,-9.311 11.88,-10.631 2.58,-0.58 4.91,-1.41 7.18,-2.96 4.08,-2.85 7.45,-2.22 11.01,1.43 1.039,1.01 1.78,2.56 3.8,2.5 2.27,-2.839 2.04,-6.21 1.78,-9.68 -0.98,-14.95 2.44,-28.889 10.38,-41.57 0.89,-1.41 2.24,-2.64 2.55,-4.63 -1.49,-4.54 -3.221,-9.28 0.95,-13.77 -3.62,-2.84 -8.59,-3.68 -10.29,-8.53 2.53,-2.159 5.72,-2.05 8.02,-4.09 -2.13,-3.1 -4.19,-6.319 -5.43,-10 -1.27,-3.59 -2.471,-7.21 -2.93,-11.069 -0.26,-1.98 -1.33,-3.5 -2.85,-4.801 -3.85,-3.42 -7.99,-6.41 -12.68,-8.51 -10.98,-4.85 -18.97,-2.93 -26.73,6.36 -0.57,0.74 -1.12,1.52 -1.81,2.18 -0.69,0.69 -1.35,0.26 -2.44,-0.77 4.6,-8.97 11.35,-15.15 21.7,-16.56 7.36,-1.04 14.29,0.69 21.13,3.16 0.17,-0.289 0.43,-0.43 0.69,-0.43 l 0.06,0.43 0.34,-0.289 c -0.29,-0.171 -0.4,-0.371 -0.37,-0.691 -5.44,-5.11 -11.99,-7.82 -19.38,-9.02 9.98,-5.72 20.56,-5.55 32.08,-3.57 -5.89,-8.16 -12.99,-14.54 -13.31,-24.52 -1.75,-1.32 -3.36,-2.59 -4.65,-3.53 -1.18,-2.13 0.05,-4.199 -1.1,-6.18 -2.7,0.17 -5.34,-0.519 -8.42,-1.04 0.09,3.191 -0.83,5.691 -1.81,8.16 -3.13,7.821 -8.48,9.321 -15.21,4.55 -1.17,-0.87 -2.04,-2.36 -3.39,-2.45 -3.19,0.721 -6.03,1.33 -9.66,2.19 0.32,-5.49 0.72,-10.379 -0.11,-15.21 -0.84,-4.94 -0.84,-9.919 -0.75,-14.69 1.35,-2.64 3.59,-4.08 5.98,-5.75 -4.97,-6.149 -6.61,-13.019 -5.95,-20.55 0.23,-2.13 -0.03,-4.25 -0.26,-6.349 -0.95,-7.25 1.73,-12.561 8.16,-16.101 1.87,-1.01 3.8,-1.95 5.9,-0.859 1.98,1.029 2.84,2.96 2.7,5.719 -2.19,2.18 -4.401,4.83 -4.86,8.31 2.04,3.27 1.84,3.27 2.33,7.41 0.6,6.24 1.03,12.71 7.24,16.53 0.81,0 1.58,0.031 2.33,0 5.38,-0.2 6.96,-2.179 6.18,-7.65 -0.371,-2.5 -1.49,-4.739 -2.44,-7.01 -0.81,-1.9 -2.24,-3.479 -2.47,-5.689 1.78,-0.691 2.7,-1.731 2.84,-3.851 0.23,-5.41 3.83,-7.99 8.6,-9.229 4.63,-1.12 9.34,-1.381 14.03,-0.37 2.61,0.509 5.66,-0.491 7.96,1.779 -1.81,2.931 -2.3,6.29 -4.49,8.681 -2.81,0.519 -5.92,0.229 -7.7,2.96 4.23,8.479 3.91,10.639 -2.87,16.609 0.11,2.301 -0.81,4.631 -0.38,7.16 0.95,5.75 5.98,7.851 10.47,4.37 2.75,-2.13 4.02,-5 4.68,-8.22 1.7,-0.799 3.59,-1.12 3.94,-3.219 1.9,0.399 3.22,1.869 5.2,1.269 3.13,-2.679 2.39,-7.33 4.49,-10.729 5.4,5.38 8.42,12.25 8.269,18.489 -0.199,8.561 -5.049,13.25 -13.529,13.11 -0.35,0 -0.69,0.25 -1.07,0.37 -1.35,1.92 -2.73,3.911 -4.14,5.92 10.04,8.571 20.44,16.241 28.69,26.391 1.47,-1.27 0.75,-3.77 3.36,-3.94 2.04,3.359 1.7,7.729 3.05,11.899 1.9,-1.26 3.28,-2.209 4.66,-3.13 12.85,-8.68 26.99,-13.74 42.43,-14.12 10.86,-0.229 21.27,2.301 31.21,6.87 5.47,2.56 10.7,5.64 16.679,6.99 6.231,1.38 12.181,0.75 18.021,-2.36 -2.7,-8.279 -7.76,-13.97 -15.351,-16.989 -5.09,-2.04 -10.489,-2.551 -16.039,-2.181 -5.69,0.4 -11.12,2.01 -16.84,3.021 -1.93,-4.371 -5.04,-7.761 -8.17,-11.04 -3.88,-4.081 -8.13,-5.521 -13.711,-3.571 -6.269,2.281 -11.329,0.061 -15.119,-5.63 -1.73,-2.589 -2.65,-5.52 -3.62,-8.389 -2.1,-5.87 -5.21,-11.04 -9.14,-15.731 -4.8,-5.49 -10.55,-8.559 -18.03,-6.58 -0.72,0.2 -1.46,0.03 -2.07,0.03 -14.83,-12.02 -15.29,-12.219 -20.58,-11.04 -1.9,1.21 -0.14,3.94 -2.67,5.201 -2.16,-3.851 -0.29,-7.181 0.69,-10.661 3.789,-0.32 7.39,-0.719 10.92,-0.98 7.71,-0.489 15.47,-0.489 22.39,-4.659 1.81,-1.151 3.97,-1.12 6.04,-1.521 3.31,-0.769 5.86,0.231 7.93,2.96 1.41,1.99 2.94,3.91 4.29,5.66 5.2,0.321 10.06,0.611 14.92,0.92 -0.12,-2.059 -1.56,-2.84 -2.451,-4.049 -3.479,-4.481 -6.899,-9.111 -9.339,-14.34 -2.47,-5.231 -4.34,-10.521 -3.3,-16.531 0.43,-2.389 0.08,-4.889 -0.41,-7.42 -2.24,-10.549 -12.53,-15.259 -21.59,-9.45 -7.41,4.8 -15.37,6.92 -24.111,5.8 -0.949,-1.439 -2.019,-2.84 -3.309,-4.68 -6.01,2.55 -10.98,-0.429 -14.8,-4.75 -3.8,-4.19 -8.02,-8.91 -4.52,-15.66 -1.86,-2.79 -2.121,-6.01 -2.67,-9.17 -0.55,-3.139 -3.22,-5.61 -4.05,-8.769 -2.04,-8.221 2.81,-14.921 10.95,-15.41 0.63,7.359 0.63,7.359 3.1,10.469 3.17,-5.24 7.13,-3.77 11.04,-1.099 5.9,-11.641 13.63,-16.471 23.57,-14.921 0.35,1.761 -0.89,2.82 -1.69,4.091 -0.84,1.349 -1.73,2.759 -2.53,4.139 1.18,0.71 2.21,1.26 3.159,1.89 3.681,2.45 6.121,5.49 5.381,10.44 -0.35,2.21 -0.46,4.571 0.2,6.52 0.8,1.181 1.78,1.27 2.669,1.58 0.491,0.12 1.041,-0.109 1.521,-0.14 2.62,-4.17 2.62,-4.17 2.62,-10.23 -1.26,-0.23 -2.53,-0.409 -3.82,-0.609 0.11,-0.141 0.2,-0.34 0.28,-0.51 3.94,-2.131 7.45,-5.731 12.62,-3.91 4.72,1.689 8.57,4.679 12.39,7.469 -0.37,3.59 2.19,6.5 1.15,9.63 1.55,1.521 2.76,3.08 4.69,3.71 2.24,-0.38 4.08,-2.5 6.58,-2.3 0.89,3.3 -1.26,5.89 -0.781,8.651 4.321,1.96 7.511,-0.83 10.761,-2.761 2.44,2.761 1.75,6.61 4.08,8.74 7.76,-1.38 14.86,-4.57 22.909,-5.519 -0.859,6.869 -3.049,12.759 -4.399,18.859 -1.27,5.86 -3.65,11.58 -4.2,18.71 4.08,-3.529 4.57,-7.359 4.89,-11.21 0.55,-6.149 4.11,-10.059 9.17,-12.79 2.85,-1.529 5.81,-2.42 9.26,-0.81 -0.58,0.72 -0.9,1.21 -1.27,1.56 -3.191,3.04 -6.01,6.29 -6.321,11.15 -0.29,4.51 3.04,6.64 5.601,9.4 6.56,7.16 6.01,17.94 -1.15,24.78 -1.21,1.181 -2.61,2.271 -4.05,3.481 6.78,3.16 11.21,7.639 11.639,15.17 7.021,0.689 13.741,2.25 20.701,0.41 1,5.83 5.17,10.659 4.17,17.159 6,2.301 10.95,6.06 16.93,9.341 -0.95,-9.951 -1.53,-19.231 7.07,-25.471 -3.25,-7.649 -3.25,-8.77 -0.4,-15.55 -3.631,-7.93 -3.57,-9.109 1.69,-15.72 -26.73,-0.549 -42,-15.73 -49.5,-39.82 -24.75,-10.92 -34.03,-30.53 -32.42,-56.22 -5.09,-2.56 -6.1,-2.5 -11.33,0.54 -1.46,3.42 -2.04,7.281 -4.2,10.491 -1.35,2.25 -3.36,4.349 -5.95,3.049 -2.58,-1.179 -5.17,-0.66 -7.9,-1.089 2.16,-2.361 5.63,-2.59 7.1,-5.17 0.66,-1.5 0.43,-2.821 0.09,-4.141 -1.7,-5.609 0.71,-9.66 4.88,-12.97 3.34,-2.61 7.19,-4.2 11.27,-5.139 1.96,-0.521 3.77,-1.21 5.58,-2.191 -3.11,-7.849 -7.53,-14.139 -14.15,-18.679 -6.18,-4.261 -12.96,-5.55 -19.92,-2.761 -9.45,3.711 -16.27,10.83 -21.76,19.431 -1.49,2.41 -0.69,4.37 1.21,6.059 2.47,2.07 5.38,3.481 8.34,4.83 5.03,2.191 10.32,3.57 15.72,5.24 -1.84,1.201 -3.71,1.52 -5.55,1.92 -3.85,0.781 -7.9,1.151 -11.55,2.59 -3.25,1.231 -5.35,0.401 -7.59,-1.639 -4.28,-4 -6.38,-9 -7.04,-14.691 -0.26,-1.84 -0.09,-3.74 0.8,-5.55 5.03,-10.29 12.19,-18.42 22.45,-23.54 8.91,-4.429 18.4,-5.29 28.14,-4.63 8.57,0.661 15.53,4.37 21.19,10.72 1.87,2.07 3.48,4.431 5.29,6.79 3.1,-14.09 3.1,-14.09 6.7,-14.43 -0.95,6.06 0.569,11.73 2.729,17.161 1.75,0.979 3.471,1.809 5.031,2.79 2.87,1.779 5.139,4.279 5.57,7.67 0.489,4.029 2.76,6.99 4.83,10.089 2.159,3.14 4.34,6.33 6.38,9.46 4.779,7.531 5.93,15.64 3.479,24.26 -0.29,0.83 -0.75,1.901 -0.629,2.76 1.32,7.36 -0.951,14 -3.71,20.551 -0.661,1.38 0.58,2.299 0.4,3.479 -0.71,0.691 -1.66,1.04 -1.75,2.24 0.859,7.651 4.97,13.46 10.87,18.031 6.06,4.679 12.3,8.739 20.64,7.59 4.08,-0.491 8.3,0.049 12.47,0 3.339,-0.031 6.5,1.719 10.089,0.95 -1.179,-8.54 -3.25,-17.111 2.21,-25.011 -4.08,-5.75 -4.649,-11.899 -2.269,-18.52 0.38,-1.03 0.66,-2.04 0.32,-3.27 -2.011,-6.409 -4.28,-12.619 -8.83,-17.85 -3.301,-3.74 -7.15,-5.469 -12.561,-3.969 -0.429,0.599 -1.059,1.549 -1.779,2.389 -4.171,4.62 -9.08,4.651 -13.19,0.021 -0.89,-0.941 -1.84,-2.04 -2.3,-3.221 -2.19,-5.569 -6.16,-9.51 -10.7,-13.069 -0.89,-0.641 -1.64,-1.561 -2.41,-2.42 -2.071,-2.361 -6.1,-9.571 -6.18,-11.561 -0.09,-3.24 -0.4,-6.519 0,-9.769 0.8,-7.16 4.17,-12.681 11.149,-15.21 1.181,-0.431 2.5,-1.141 3.741,0.489 -0.72,4.57 -6.21,8.771 -2.36,14.32 2.1,-1.009 2.47,-3.34 4.23,-3.82 2.24,0.46 2.67,3.561 5.2,3.16 2.79,-12.28 7.559,-17.019 14.8,-14.149 -0.281,2.51 -0.571,5.149 -0.861,7.79 1.551,0.869 2.761,1.989 5.031,1.149 3.799,-1.26 6.839,0.72 9.52,3.481 1.72,1.79 2.47,4.37 4.619,5.689 2.071,0.231 3.83,-0.05 4.921,-2.01 -0.631,-4.11 -4.71,-6.29 -6.06,-11.67 11.21,3.161 16.9,11.331 23.16,18.6 -0.89,2.36 -1.691,4.08 -2.151,5.92 -1.5,5.69 0.46,8.25 6.261,8.86 2.65,0.281 5.239,-0.87 7.77,-0.23 2.5,1.61 2.96,4.48 4.599,6.89 4.131,0 8.101,0.81 10.691,4.69 2.5,3.881 0.95,8.19 1.15,12.16 3.56,2.441 8.1,1.441 11.73,4.311 -4.201,2.5 -7.94,4.769 -12.77,7.679 15.84,1.781 24.26,10.66 29.069,24.401 -6.639,2.699 -12.679,-1.031 -18.859,-0.231 3.3,4.8 5.95,6.5 12.47,6.5 5.21,0 8.57,2.64 11.36,6.441 3.529,4.939 5.29,10.46 4.37,16.84 -6.12,-6.901 -12.54,-9.661 -18.4,-8.161 -0.8,2.01 -0.321,4.111 -0.401,6.21 -0.629,10.06 -6.41,13.54 -15.439,9.201 -0.981,-0.441 -1.92,-1.21 -2.931,-1.641 -1.319,-0.609 -2.3,-2.159 -4.019,-1.73 -0.981,2.56 -0.26,4.92 0.34,7.33 0.58,2.621 2.389,4.571 3.28,6.93 -0.92,1.151 -2.99,-0.2 -3.191,1.72 0.261,0.49 0.46,0.841 0.771,1.04 18,13.801 20.64,31.761 15.12,51.28 C 16.04,15.101 7.819,25.391 -3.62,33.061 -7.391,35.59 -11.07,41.37 -11.471,45.19 -9.78,45.71 -9.29,44.13 -8.4,43.3 -0.95,35.91 6.95,29.04 16.27,24.15 c 9.37,-4.94 19.29,-7.67 29.919,-6.95 2.241,0.25 4.691,0.111 5.611,2.99 -1.151,3.13 -1.151,3.071 -3.97,6.031 C 34.35,39.96 21.569,54.271 11.279,70.771 L 11.27,70.78 c -0.46,0.42 -0.94,0.741 -1.491,1.25 1.101,0.67 1.811,0.53 2.321,-0.37 0.02,0 0.04,-0.01 0.06,-0.02 1.81,-1.01 3.529,-2.04 5.26,-3.099 4.479,-2.851 9.109,-5.181 14.03,-7.051 1.119,-0.43 2.119,-0.77 3.329,1.07 -5.029,6.87 -10.92,13.481 -15.67,20.87 -0.109,0.94 0.29,1.29 1.151,1.091 1.269,-0.321 2.53,-0.781 3.83,-1.091 8.16,-2.51 16.41,-4.4 25.03,-3.97 5.949,0.37 11.47,2.07 16.25,5.95 2.47,1.95 4.19,4.28 3.529,8.65 -22.62,0.06 -40.069,11.64 -55.42,27.37 -0.109,0.861 0.141,1.35 1.121,1.12 5.03,-0.84 10,-1.84 15.12,-1.96 15.73,-0.31 28.8,5.12 38.41,18.17 -1.38,1.44 -2.101,3.31 -3.86,4.031 -17.82,-4.691 -32.11,-5.731 -37.741,-2.761 9.2,3.3 18.021,7.1 25.811,12.93 5.29,3.97 9.689,8.57 12.42,14.69 1.01,2.36 2.33,4.74 1.53,7.76 -18.261,-4.05 -36.311,-8.28 -55.141,-8.25 0.58,1.47 1.241,1.9 2.33,1.99 7.101,1.2 13.861,3.53 20.55,6.09 9.061,3.39 17.851,7.24 24.87,14.37 3.021,3.02 5.09,6.58 5.951,10.81 0.23,1.29 0.08,2.33 -1.64,2.99 -1.38,-0.75 -2.99,-1.7 -4.63,-2.59 -7.21,-4.19 -14.49,-8.22 -22.07,-11.64 -2.651,-1.24 -2.651,-1.21 -5.81,-0.69 7.88,6.04 15.15,12.68 21.59,20.24"
             style="fill:#ffffff;fill-opacity:1;fill-rule:nonzero;stroke:none"
             id="path42"
             inkscape:connector-curvature="0" /></g><g
           id="g44"
           transform="translate(337.0942,745.7339)"><path
             d="m 0,0 c 0.017,0.015 0.031,0.031 0.048,0.046 -0.052,0.03 -0.102,0.057 -0.163,0.098 z M 0.604,0.604 C 0.444,0.444 0.257,0.236 0.048,0.046 0.606,-0.271 0.656,0.078 0.604,0.604 m -75.432,-1.107 c 0.92,5.691 -1.322,9.112 -5.002,11.901 -3.765,2.932 -7.416,5.921 -11.239,8.739 -1.61,1.178 -2.961,2.931 -5.749,3.19 -0.259,-3.995 -0.345,-4.254 1.121,-6.123 5.634,-7.215 12.906,-12.475 20.869,-17.707 m -27.986,-336.692 c 8.422,0.604 16.816,1.438 25.871,2.214 -2.242,5.088 -6.382,5.002 -9.917,5.088 -7.532,0.259 -14.977,-0.805 -22.48,-2.099 1.61,-4.052 3.076,-5.432 6.526,-5.203 m -10.887,292.467 c 4.6,-2.846 9.314,-5.605 14,-8.422 -1.121,-5.721 -3.392,-11.355 1.984,-17.478 3.046,10.061 6.208,18.943 7.933,28.286 0.575,3.277 -0.287,6.381 -3.823,8.077 -1.984,-3.852 -1.984,-8.221 -4.168,-11.929 -7.33,3.449 -13.712,8.077 -21.1,11.095 0.058,-5.318 0.863,-6.898 5.174,-9.629 m 54.243,-354.675 c -3.823,5.922 -5.145,13.051 -11.929,16.817 3.075,1.264 5.864,1.322 8.509,1.264 1.581,-1.638 1.954,-3.564 2.816,-5.289 1.812,-3.536 3.537,-7.129 6.066,-10.263 2.099,-2.644 4.484,-4.542 9.026,-3.937 -3.277,8.364 -7.215,15.724 -12.705,22.105 -2.472,2.903 -5.289,4.197 -9.429,3.651 -5.232,-0.834 -10.348,-1.984 -15.408,-3.363 -2.443,-0.691 -5.318,0.115 -7.502,-2.185 3.938,-5.635 9.371,-3.651 14.286,-2.875 9.889,-16.184 9.889,-16.184 16.27,-15.925 m -28.599,25.284 c 5.059,0.317 10.09,0.691 15.092,1.754 3.334,0.719 6.697,1.237 9.687,4.198 -1.293,10.405 -8.106,18.798 -11.153,29.003 -10.607,-1.638 -20.783,-3.132 -31.764,-4.829 4.225,-4.973 4.255,-4.973 8.767,-4.398 5.979,0.92 11.929,1.754 18.168,2.558 4.197,-5.663 6.381,-12.246 9.083,-19.345 -8.451,-1.352 -16.529,-2.674 -24.893,-4.054 1.178,-3.88 3.708,-5.116 7.013,-4.887 m 66.234,-68.264 c 3.708,-4.858 7.215,-9.543 10.664,-14.028 -1.351,-2.271 -3.996,-2.242 -4.973,-4.37 0.46,-2.213 1.552,-4.11 3.996,-3.88 3.909,0.316 7.157,2.127 9.169,6.439 -5.288,8.509 -11.555,16.241 -18.627,23.543 -9.83,-4.054 -19.403,-7.474 -29.147,-12.131 6.927,-5.433 12.619,-1.092 18.713,0.747 0.373,-2.472 0,-4.714 -0.403,-6.956 -0.718,-3.564 -1.465,-7.129 -1.351,-10.751 0.173,-3.449 0.748,-6.784 4.945,-9.256 0.373,9.716 4.311,18.656 -0.116,27.998 2.099,1.064 4.427,2.156 7.13,2.645 m 70.53,-70.349 c 0.022,0.011 0.043,0.019 0.065,0.029 0.032,0.035 0.061,0.065 0.078,0.085 z m 16.011,-10.981 c 5.548,-3.967 9.917,-4.915 16.184,-3.22 -5.922,4.168 -11.671,7.848 -17.047,11.959 -4.752,3.578 -9.535,4.987 -15.083,2.271 -1.159,-1.235 -11.504,-11.03 -13.518,-13.856 -1.898,-2.674 -1.582,-4.772 0.747,-7.101 1.322,-1.264 2.932,-2.27 4.484,-3.507 -2.336,-1.708 -4.583,-3.279 -4.176,-6.524 1.994,-0.668 3.689,0.444 5.326,1.178 3.737,1.638 6.842,1.15 9.888,-1.552 1.725,-1.523 3.594,-3.162 7.302,-3.393 -2.616,10.12 -10.924,13.425 -17.88,18.312 4.945,4.082 9.601,8.02 14.258,11.872 3.622,-1.696 6.497,-4.255 9.515,-6.439 m -28.401,-20.065 c -0.004,0.03 -0.004,0.058 -0.008,0.087 -0.036,0.013 -0.071,0.015 -0.107,0.028 z m -158.334,473.575 c 1.869,-0.431 3.68,-0.948 5.031,-2.529 -0.92,-6.641 -3.363,-13.482 2.932,-20.41 1.121,6.612 2.99,12.188 0.92,18.57 3.047,-0.833 5.289,-2.07 7.474,-3.564 0.345,-4.945 -1.926,-9.343 -2.759,-13.97 -0.69,-3.738 -0.547,-7.302 0.775,-10.751 0.374,-1.035 0.949,-2.674 2.99,-1.869 1.064,9.889 6.008,19.288 4.887,30.154 -7.704,5.893 -16.069,10.521 -25.498,12.763 -3.708,-5.088 -7.991,-24.836 -6.813,-31.016 8.624,5.346 7.877,14.66 10.061,22.622 m 9.001,-210.989 c 1.753,-6.698 3.018,-13.252 10.55,-15.868 1.264,6.555 -3.191,10.751 -5.606,15.982 h 7.646 c 3.134,-14.372 5.779,-19.632 12.563,-24.203 -0.949,9.573 -4.312,17.707 -6.497,26.158 -0.863,3.537 -3.421,5.318 -7.187,5.261 -6.698,-0.087 -13.568,0 -20.351,-0.057 -1.294,0 -2.703,0.028 -4.341,-1.898 0.833,-9.889 4.829,-19.633 7.445,-29.895 3.105,1.322 3.622,3.506 3.881,5.864 0.229,3.104 -0.431,6.094 -1.323,9.055 -0.977,2.989 -2.299,6.007 -2.156,9.371 1.898,0.891 3.651,0.834 5.376,0.23 m -10.81,132.459 c 2.01,-4.45 1.17,-9.23 1.38,-13.94 0.05,-2.65 -0.46,-5.46 2.07,-7.7 1.63,0.11 3.24,-1.24 5.28,-0.69 v 20.89 c -3.1,0.46 -5.54,1.99 -8.48,1.73 z m -15.94,-15.82 c 4.97,-0.61 8.97,-2.42 14.25,-3.83 -4.25,7.33 -2.58,14.38 -2.53,21.19 -7.53,3.19 -9.19,3.16 -10.29,9.28 10.01,-1.52 19.29,-5 28.69,-7.38 2.93,-11.76 1.67,-27.83 -2.73,-33.03 -7.65,1.2 -14.98,3.99 -22.45,6.35 -2.99,0.92 -4.17,3.65 -4.94,7.42 m 176.46,-347.401 c 2.44,0.801 3.85,2.071 5.92,3.941 -5.43,4.68 -10.38,9.25 -15.92,13.16 -2.91,-2.04 -5.49,-3.91 -8.89,-6.351 8.8,-0.229 13.49,-6.5 18.89,-10.75 m -2.31,-10.21 c -3.42,-2.269 -6.81,-2.989 -11.38,-1.519 2.79,4.309 7.5,5.92 10.98,9.769 -7.67,1.151 -12.67,6.351 -17.93,11.411 -4.29,-3.19 -8.34,-6.09 -14.52,-3.22 8.36,6.96 17.04,12.39 25.35,18.92 8.51,-6.3 16.73,-12.48 23.43,-20.56 0.6,-2.24 -13.63,-13.28 -15.93,-14.801 m -157.47,257.361 c 6.3,-0.17 12.27,-1.5 18.86,-1.151 -0.35,7.561 -2.85,14.201 -3.68,21.501 -6.41,-0.14 -12.56,1.87 -19.2,0.66 1.38,-7.18 2.67,-14.14 4.02,-21.01 m 2.3,-6.33 c -4.23,0.34 -6.41,2.84 -8.31,6.06 -0.49,0.75 -0.6,1.75 -0.78,2.67 -1.41,7.54 -2.78,15.04 -4.16,22.54 -0.15,0.75 -0.03,1.44 -0.03,3.08 10.69,-0.61 20.78,-1.27 31.07,-1.93 2.62,-8.97 4.2,-17.96 5.03,-27.13 0.4,-3.8 -1.47,-5.58 -5.89,-5.98 -5.66,-0.551 -11.33,0.28 -16.93,0.69 m 77.7,-159.66 c 2.7,1.01 5.72,1.33 8.37,3.48 -3.51,5.43 -6.87,10.64 -10.26,15.84 -5.87,-2.01 -11.3,-3.97 -17.57,-6.21 3.94,-5.37 6.58,-11.12 10.75,-16.01 3.02,1.01 5.95,1.84 8.71,2.9 m -4.15,-7.98 c -4.69,-1.3 -8.86,-0.55 -12.1,3.79 -4.75,6.44 -9.14,12.97 -12.68,20.609 8.19,2.791 15.78,6.011 23.8,8.111 3.77,1.03 6.58,-0.06 9.06,-2.85 5.66,-6.551 9.97,-13.94 14.46,-21.96 -7.8,-3.16 -15.15,-5.58 -22.54,-7.7 m 183.79,-123.82 c -5.46,3.28 -11.24,5.49 -17.28,8.48 -3.88,-5.03 -7.56,-9.74 -11.38,-14.69 5.98,-2.901 11.47,-5.52 17.33,-7.47 4.23,4.31 7.68,8.79 11.33,13.68 m 10.09,3.599 c -4.31,-7.71 -9.57,-13.92 -15.14,-19.92 -3.43,-3.569 -7.19,-4.599 -11.79,-2.359 -3.56,1.75 -7.19,3.359 -10.78,4.92 -3.45,1.55 -6.87,2.96 -10.87,4.71 5.21,8.54 10.73,16.18 18.2,22.16 2.73,2.16 5.72,1.529 8.57,0.29 7.07,-3.19 14.11,-6.41 21.81,-9.801 m -127.873,69.221 c 1.523,1.121 3.162,2.155 4.053,4.887 -5.519,8.71 -13.741,15.379 -21.473,22.881 -9.026,-5.519 -18.138,-10.147 -27.078,-16.155 5.174,-2.443 6.18,-2.644 10.32,-0.547 5.375,2.703 10.578,5.721 15.982,8.71 1.754,-1.724 3.593,-3.162 4.829,-5.173 -6.812,-4.859 -14.258,-7.934 -20.84,-13.223 3.967,-3.076 7.158,-2.242 10.52,-0.346 5.06,2.875 9.602,6.555 14.862,8.883 1.926,-1.408 3.536,-2.788 4.657,-4.57 -6.784,-4.715 -14.258,-8.28 -21.099,-13.367 3.478,-2.76 6.525,-2.587 9.629,-1.122 5.549,2.501 10.722,5.548 15.638,9.142 m -151.032,354.997 c 4.886,-1.984 9.802,-3.939 14.803,-5.577 2.416,-0.805 4.945,-2.127 7.82,-0.805 2.414,1.926 2.471,5.031 2.587,7.761 0.23,6.957 1.293,13.712 2.299,20.496 0.144,0.92 0.029,1.897 0.029,3.191 -9.658,3.564 -19.087,7.387 -28.918,10.032 -0.546,-1.725 -0.316,-2.645 0.029,-3.536 1.178,-3.018 3.938,-3.881 6.583,-4.915 5.26,-2.013 10.894,-3.047 15.522,-6.669 0,-2.214 -0.23,-4.168 -1.351,-5.951 -7.56,2.587 -15.005,5.145 -22.852,7.819 -0.259,-4.57 1.235,-7.071 5.03,-8.336 5.864,-2.041 11.642,-4.255 17.592,-6.381 -0.173,-2.186 -0.345,-4.312 -0.546,-6.928 -8.193,2.501 -15.551,6.238 -23.773,8.192 -0.546,-4.772 1.811,-7.014 5.146,-8.393 m 34.59,106.545 c 3.88,7.962 5.633,16.414 9.715,24.232 1.466,-1.609 3.248,-2.155 4.111,-4.369 -1.552,-3.909 -3.248,-8.135 -4.973,-12.303 -1.294,-3.018 -2.386,-6.065 -2.271,-9.4 0.087,-2.127 0.402,-4.225 3.392,-4.599 2.07,2.702 2.645,6.151 3.909,9.228 2.099,5.116 4.398,10.118 5.865,15.493 0.69,2.645 0.488,4.916 -1.524,6.87 -3.564,3.277 -7.215,6.526 -12.303,8.25 -2.99,-7.617 -5.864,-14.976 -8.825,-22.622 -2.098,1.006 -3.737,2.041 -5.059,3.593 1.782,4.887 3.392,9.601 5.203,14.143 1.121,2.989 0.919,6.036 0.718,9.112 -0.086,1.61 -0.747,2.874 -2.96,2.99 -2.904,-7.762 -5.865,-15.581 -8.883,-23.313 -1.092,-2.788 -0.862,-5.318 0.805,-7.589 3.392,-4.427 7.561,-7.733 13.08,-9.716 m -21.606,-183.71 c 0.718,8.566 -1.639,16.874 -0.719,25.411 2.012,-0.46 3.766,0.259 5.289,-1.064 0.69,-2.213 0.374,-4.542 0.288,-6.755 -0.144,-3.88 0.201,-7.675 0.977,-11.441 0.661,-3.708 1.581,-7.56 6.611,-8.537 0.374,9.227 -1.005,18.139 -1.35,27.078 -0.144,2.616 -2.099,4.485 -4.37,5.692 -4.427,2.443 -9.198,2.673 -14.545,2.443 0.259,-8.48 1.61,-16.557 0.891,-25.009 -1.926,0.518 -3.65,-0.143 -5.347,1.122 -0.833,9.141 1.524,19.547 -8.019,26.935 -0.432,-9.458 0.057,-18.254 1.092,-26.935 0.546,-4.456 3.42,-6.842 7.474,-7.532 3.823,-0.718 7.703,-0.977 11.728,-1.408 m 40.201,229.203 c 3.651,7.589 7.186,14.947 10.866,22.594 1.868,-1.208 3.535,-1.898 4.254,-3.622 -2.875,-6.151 -5.864,-12.131 -8.652,-18.139 -1.496,-3.248 -1.207,-6.237 1.724,-9.256 5.548,8.02 9.717,16.558 12.993,25.498 0.604,1.437 0.662,3.162 -0.258,4.484 -3.134,4.801 -7.043,8.681 -12.562,11.125 -3.708,-7.532 -7.186,-14.632 -10.751,-21.962 -2.156,0.776 -3.536,1.983 -4.915,3.766 1.293,3.823 3.334,6.784 5.087,9.974 1.38,2.53 2.846,5.002 3.45,7.79 0.661,2.961 0.574,5.807 -1.926,8.883 -5.146,-8.078 -9.084,-16.069 -12.102,-24.52 -0.747,-1.926 -1.006,-4.283 0.374,-6.094 3.277,-4.427 6.985,-8.423 12.418,-10.521 m 183.78,-564.105 c -6.06,3.45 -11.81,6.62 -17.7,9.95 -2.45,-2.59 -4.75,-5.12 -7.62,-8.16 8.57,1.32 13.88,-4.691 20.29,-7.1 2.45,1.12 3.91,2.67 5.03,5.31 m -7.83,-18.04 c -2.84,-2.13 -5.69,-2.821 -8.97,-0.06 3.14,3.36 6.21,6.64 9.86,10.58 -8.13,-0.381 -14.26,3.22 -20.23,7.3 -2.1,-1.931 -3.97,-3.79 -6.07,-5.72 -2.07,-0.69 -4.28,-0.091 -6.5,-0.06 -0.51,2.07 1.07,2.88 1.99,3.91 4.37,4.74 9.05,9.26 13.25,14.14 1.61,1.89 3.51,3.23 5.46,4.51 l 25.56,-13.75 0.01,-0.01 c 0.48,-0.39 0.87,-0.81 1.05,-1.35 0.37,-1.87 -0.32,-3.05 -1.04,-4.17 -3.99,-5.86 -8.68,-11.13 -14.37,-15.32 m 13.05,23.21 -22.85,12.299 c 0.82,0.541 1.63,1.081 2.41,1.661 1.93,1.46 4.32,1.32 6.53,0.25 2.36,-1.15 4.74,-2.32 7.04,-3.59 4.63,-2.53 9,-5.49 14.23,-7.7 -2.09,-3.54 -4.76,-2.93 -7.36,-2.92"
             style="fill:#331458;fill-opacity:1;fill-rule:nonzero;stroke:none"
             id="path46"
             inkscape:connector-curvature="0" /></g><g
           id="g48"
           transform="translate(761.4785,415.1611)"><path
             d="M 0,0 C 0.04,-0.021 0.08,-0.051 0.119,-0.091 L 0.01,0.029 C 0.01,0.02 0,0.01 0,0 m -5.495,286.724 c 0.776,-2.041 1.581,-3.392 3.306,-3.421 6.87,-0.143 13.711,-0.23 20.783,0.719 -0.978,3.536 -3.191,3.91 -5.807,3.91 -5.978,0.028 -11.958,-0.288 -18.282,-1.208 m 24.21,-126.095 c 6.094,-1.552 12.044,-3.938 18.656,-3.679 -5.836,7.215 -13.856,8.451 -22.911,9.054 1.265,-2.702 2.127,-4.858 4.255,-5.375 m 8.043,93.874 c 0.633,0.432 0.345,1.064 0.173,1.581 -1.265,4.14 -4.427,6.468 -7.934,8.538 -3.048,1.782 -6.497,2.846 -8.911,5.749 10.75,6.755 10.779,6.784 9.601,11.728 -6.669,-3.593 -13.338,-7.186 -20.438,-11.038 7.272,-5.778 23.772,-15.638 27.509,-16.558 m -191.377,-440.615 c -4.082,-4.025 -4.456,-5.634 -1.811,-12.217 1.437,0.603 2.587,1.149 3.766,1.696 0.373,2.041 -1.581,3.622 -0.633,5.979 4.57,3.018 9.4,6.094 14.114,9.285 1.639,-2.013 1.869,-4.226 2.501,-6.181 0.92,-2.587 1.984,-5.001 3.334,-7.272 1.036,-1.811 2.444,-2.818 4.744,-1.639 -2.416,7.388 -4.599,14.66 -7.532,21.53 -5.26,-1.235 -13.079,-6.064 -18.483,-11.181 M -9.557,310.701 c 5.06,0.144 10.119,0.028 15.465,0.028 1.495,-4.196 2.904,-8.537 4.571,-13.337 -6.352,-2.271 -12.792,-0.345 -18.684,-2.961 5.289,-5.203 17.448,-4.801 24.203,0.805 -1.379,7.301 -5.576,13.855 -7.329,21.645 -8.222,-1.523 -16.328,-0.776 -24.233,-2.731 1.15,-2.989 3.277,-3.593 6.007,-3.449 m -114.556,-468.45 c -6.756,-1.466 -15.638,-9.486 -18.484,-16.27 2.213,-6.497 4.973,-12.877 9.141,-19.49 4.513,8.423 -2.357,14.057 -3.392,20.841 3.794,2.846 7.646,5.778 11.614,8.796 2.96,-5.404 4.254,-11.239 7.416,-16.27 2.27,1.237 2.558,3.22 2.156,5.031 -1.581,6.467 -4.082,12.533 -8.451,17.362 M 21.966,214.947 c -3.565,-5.779 -10.55,-9.458 -9.027,-17.995 6.555,4.168 9.66,10.435 12.074,16.988 2.012,0.173 3.708,0.374 5.232,-1.121 0.345,-4.225 0.661,-8.594 1.064,-12.935 -1.553,-1.15 -3.306,0.201 -4.83,-0.546 0.086,-4.887 1.351,-5.433 9.371,-4.14 0.805,7.676 -1.409,15.236 -2.041,23.112 -7.733,0.834 -14.976,2.846 -22.824,3.19 1.696,-6.208 6.382,-5.892 10.981,-6.553 M -15.05,317.971 c 7.216,0.948 14.057,1.839 21.128,2.817 -0.546,3.104 -2.443,3.852 -4.513,4.11 -2.299,0.173 -4.542,-0.172 -6.784,-0.632 -2.76,-0.604 -5.49,-0.977 -8.624,-0.259 -2.615,3.823 -4.455,8.077 -5.576,13.022 5.95,0.747 11.699,1.035 17.392,2.472 -2.243,3.651 -2.186,3.737 -4.572,3.852 -5.49,0.172 -10.894,-0.69 -16.126,-2.271 -1.465,-0.489 -2.817,-1.092 -3.449,-3.363 2.529,-6.985 4.57,-14.776 11.124,-19.748 M -81.71,-130.62 c -1.24,-5.78 -6.471,-7.79 -8.681,-12.301 -0.089,-0.17 -0.029,-0.369 -0.089,-0.809 0.719,-1 1.07,-2.611 2.62,-3.56 3.36,3.68 7.07,7.13 9.92,11.3 -0.691,2.09 -1.96,3.359 -3.77,5.37 m -2.73,13.809 c 4.349,-6.639 8.57,-13.139 12.94,-19.87 -5.03,-6.549 -10.641,-11.92 -16.381,-17.13 -4.029,1.731 -5.809,4.63 -7.279,7.76 -1.03,2.25 -0.26,4.401 1.149,6.41 3.111,4.37 6.931,8 10.521,11.88 -0.691,3.5 -5.031,6.49 -0.95,10.95 M 5.63,249.591 c -0.489,-8.423 2.27,-15.983 3.65,-24.377 3.306,3.938 3.306,3.938 1.898,18.541 1.178,0.92 2.414,0.92 3.622,0.029 2.788,-10.348 2.788,-10.348 7.531,-11.498 -0.92,3.852 -1.927,7.617 -3.076,12.131 2.214,-0.863 3.881,0.373 5.376,-1.007 1.006,-6.582 0.976,-13.74 8.221,-19.144 -0.748,7.847 -2.07,14.344 -3.623,20.725 -0.459,2.185 -2.212,3.162 -4.081,3.622 -6.21,1.409 -12.562,1.84 -19.518,0.978 M -11.94,5.59 c -0.38,0.01 -0.79,-0.05 -1.25,-0.24 -3.651,-6.271 -6.55,-13.34 -8.911,-21.651 8.34,2.561 8.34,10.091 11.47,15.49 1.24,-0.919 2.591,-1.169 2.931,-3.009 -1.38,-4.37 -3.821,-9 -0.401,-14.58 2.441,4.139 3.481,8.19 3.911,12.559 1.9,-1.09 3.45,-1.72 4.2,-3.68 -1.3,-6.259 -6.611,-11.929 -3.281,-20.349 3.68,6.899 6.581,13.17 8.14,20.01 0.36,1.719 -0.21,3.179 -1.229,4.54 z m -89.92,-156.721 c -2.411,-4.769 -5.521,-8.54 -9.92,-11.5 0.78,-1.55 0.179,-3.449 2.16,-4.71 4,2.67 7.649,5.83 11.01,9.74 -0.491,2.68 -1.701,4.43 -3.25,6.47 m -1.93,13.24 c 4.34,-6.389 7.3,-13.37 11.55,-20.269 -5.891,-5.811 -11.04,-11.38 -17.24,-15.41 -1.93,0 -2.911,1.21 -3.8,2.45 -2.84,3.819 -5.12,7.989 -6.901,12.439 -0.859,2.221 -1.519,4.66 0.981,6.901 2.59,-2.151 3.28,-5.491 5.599,-8.481 1.701,5.551 6.79,8.021 9.981,12.191 -1.24,3.36 -4.021,6.5 -0.17,10.179 m 54.54,37.201 c -2.96,3.53 -5.891,6.929 -8.96,10.58 -2.851,-3.97 -5.381,-7.481 -7.91,-10.981 2.189,-4.43 4.97,-7.88 8.649,-10.809 3.021,3.589 5.75,7.179 8.221,11.21 m 5.119,-0.18 c -2.649,-7.21 -7.989,-12.59 -12.789,-19.08 -5.06,4.569 -8.66,9.22 -12.221,13.91 -2.16,2.729 -1.87,5.55 -0.259,8.51 3.019,5.32 6.639,10.17 11.07,15 5.72,-5.46 10.519,-11.21 14.199,-18.34 M 32.6,147.87 c -4.43,0.58 -8.34,2.929 -13.08,3.19 -0.411,-5.4 -0.75,-10.52 -1.18,-15.951 5.12,-1.38 9.569,-2.67 14.309,-4 0.321,5.75 0.38,11.011 -0.049,16.761 m 4.83,3.449 c 0.4,-8.079 1.32,-15.949 -1.84,-24.09 -7.28,-0.6 -13.66,1.241 -19.41,4.951 -2.58,1.61 -2.531,5.029 -2.441,7.869 0.141,5.721 1.261,11.39 0.95,17.85 7.901,-2.27 15.061,-4.389 22.741,-6.58 M -1.87,26.39 C -3.36,21.04 -5.78,16.27 -6.53,10.979 -2.67,8.14 1,5.579 5.199,3.42 c 1.58,5.409 4.051,10.29 5.03,15.87 -4.139,2.39 -7.99,4.659 -12.099,7.1 m -2.5,7.309 C 2.529,29.069 9.08,24.67 15.81,20.189 13.88,12.54 12.5,4.92 7.609,-0.71 5.08,-2.051 3.29,-0.87 1.489,-0.271 L -9.49,7.409 -9.5,7.42 c -2.261,2.649 -2.091,5.87 -0.82,9.319 1.979,5.46 3.88,11.011 5.95,16.96 m 35.21,85.26 c -2.13,0.571 -4,1.201 -6.24,1.811 1.07,-5.411 0.17,-10.44 0.32,-15.32 1.21,-1.381 2.5,-1.841 4.37,-1.611 0.72,4.911 1.92,9.83 1.55,15.12 m 5.18,2.761 C 36.619,109.419 35.39,102.229 32,98.089 29.859,97.53 27.84,98.53 25.75,98.99 l -9.851,4.409 c -1.599,1.15 -3.059,2.46 -3.62,4.871 3.42,0.77 5.861,-1.53 9.191,-1.84 -1.63,5.029 -0.601,10.199 -0.05,15.38 -2.99,1.95 -7.28,1.919 -7.36,6.52 3.19,0.549 13.969,-2.701 21.96,-6.61 m -207.3,-333.04 c -1.321,4.54 -2.531,8.91 -3.79,13.45 -4.311,-1.691 -7.85,-4.141 -12.191,-6.551 1.441,-4.51 1.551,-9.14 3.681,-13.399 4.229,2.189 8.14,4.29 12.3,6.5 m -0.611,21.309 c 1.321,-7.899 5.411,-14.429 5.431,-22.33 -5.57,-5.84 -12.53,-9.489 -20.351,-12.909 -1.639,7.79 -5.599,14.659 -4.939,22.77 5.52,5.78 12.909,8.309 19.859,12.469 m 148.505,150.078 c -2.961,-5.604 -5.806,-10.951 -8.594,-16.355 -1.38,0.747 -2.732,1.121 -3.249,2.816 1.208,3.652 3.651,6.814 5.404,10.378 1.495,3.018 3.076,6.323 -0.546,9.888 -3.191,-6.094 -6.353,-11.871 -9.314,-17.793 -0.834,-1.754 -0.804,-3.795 0.432,-5.49 2.328,-3.22 5.03,-5.98 9.083,-7.33 3.105,5.719 6.066,11.124 8.998,16.586 1.523,-0.719 2.271,-1.466 2.989,-2.932 -2.53,-4.974 -5.577,-9.4 -7.387,-14.402 -1.121,-3.162 -0.834,-3.565 2.702,-5.491 2.414,7.733 9.399,13.454 9.485,22.106 -3.248,3.162 -5.749,6.496 -10.003,8.019 M 38.04,181.636 c -1.034,8.25 -5.835,11.469 -14.573,9.802 v -17.937 c -1.696,0 -3.076,-0.144 -3.996,1.121 -0.69,15.408 -0.949,16.184 -5.893,18.886 -0.346,-5.893 -0.488,-11.642 0.058,-17.305 0.287,-2.989 1.896,-5.461 4.628,-6.812 3.363,-1.61 6.898,-2.818 10.865,-2.214 0.806,6.468 -1.293,12.677 -0.287,18.857 1.552,0.403 2.76,0 3.737,-1.264 0.977,-3.91 -0.087,-7.906 0.401,-11.901 0.374,-3.105 0.864,-6.008 5.205,-7.388 0.229,5.893 0.574,11.096 -0.145,16.155 M -26.561,-76.561 -37.811,-94.44 c 0.621,-1.39 0.29,-3.241 2.561,-3.52 3.819,4.34 6.81,9.369 9.479,14.6 1.041,2.13 1.09,3.799 -0.2,5.9 -0.189,0.3 -0.389,0.609 -0.59,0.899 m -6.509,0.601 c -1.3,1.96 -3.021,3.43 -5.491,5.67 0.661,-6.381 -3.25,-10.15 -5.549,-14.551 0.979,-1.609 1.75,-3.069 3.759,-3.359 2.51,4.019 5.5,7.729 7.281,12.24 m 5.61,0.71 -12.301,-19.53 c -1.219,-0.29 -2.439,0.16 -3.599,1.219 -3.651,3.271 -7.13,6.75 -10.35,10.55 -1.841,2.181 -1.841,4.45 -0.2,7.21 2.729,-1.229 4.37,-3.88 6.979,-5.859 1.471,4.8 3.891,8.819 7.05,13.16 -2.96,2.88 -5.55,5.489 -4.14,9.579 1.581,0.941 2.21,-0.289 2.93,-1.069 4.53,-5.09 9.651,-9.681 13.631,-15.26 M 27.27,90.439 c -4.42,1.841 -8.51,3.5 -12.93,5.371 -0.92,-5.55 -1.76,-10.52 -2.651,-15.75 4.231,-1.901 8.34,-3.8 12.911,-5.871 0.98,5.951 1.78,11.04 2.67,16.25 m 4.669,2.601 C 32.29,92.78 32.63,92.52 32.979,92.229 31.83,85.959 30.85,79.47 29.59,73.06 c -0.41,-1.991 -2.07,-3.17 -4.231,-3.02 -0.83,0.06 -1.67,0.18 -2.519,0.31 H 22.83 L 8.819,77.159 8.81,77.17 C 7.229,78.729 6.619,80.579 7.02,82.939 8.26,89.33 9.319,95.68 10.439,102 c 0.271,0.149 0.521,0.26 0.76,0.319 z M 26.31,63.68 c 1.009,-7.531 -3.25,-14.601 -4.46,-22.3 -5.401,6.489 -0.34,12.989 0.03,19.55 -1.061,1.809 -2.811,2.38 -4.88,3.21 0.54,-4.08 -0.29,-7.76 -1.58,-11.55 -3.051,1.059 -3.801,3.25 -3.431,6.149 0.29,2.271 0.611,4.571 0.691,6.87 0.12,1.75 -0.941,2.33 -2.84,2.191 C 7.54,62.359 8.6,54.859 0.869,50.89 c 1.091,8.769 2.7,16.189 5.401,22.71 0.58,0.509 1.06,0.759 1.48,0.849 l 15.479,-7.519 0.01,-0.01 c 1.101,-0.891 2.16,-1.9 3.071,-3.24"
             style="fill:#331458;fill-opacity:1;fill-rule:nonzero;stroke:none"
             id="path50"
             inkscape:connector-curvature="0" /></g></g></g></g></svg>