<?xml version="1.0" encoding="UTF-8" standalone="no"?>
<!-- Created with Inkscape (http://www.inkscape.org/) -->

<svg
   xmlns:dc="http://purl.org/dc/elements/1.1/"
   xmlns:cc="http://creativecommons.org/ns#"
   xmlns:rdf="http://www.w3.org/1999/02/22-rdf-syntax-ns#"
   xmlns:svg="http://www.w3.org/2000/svg"
   xmlns="http://www.w3.org/2000/svg"
   xmlns:sodipodi="http://sodipodi.sourceforge.net/DTD/sodipodi-0.dtd"
   xmlns:inkscape="http://www.inkscape.org/namespaces/inkscape"
   version="1.1"
   id="svg2"
   width="3014.9199"
   height="1149.9503"
   viewBox="0 0 3014.9201 1149.9503"
   sodipodi:docname="logoEACHPreto.svg"
   inkscape:version="0.92.4 (5da689c313, 2019-01-14)">
  <metadata
     id="metadata8">
    <rdf:RDF>
      <cc:Work
         rdf:about="">
        <dc:format>image/svg+xml</dc:format>
        <dc:type
           rdf:resource="http://purl.org/dc/dcmitype/StillImage" />
        <dc:title></dc:title>
      </cc:Work>
    </rdf:RDF>
  </metadata>
  <defs
     id="defs6" />
  <sodipodi:namedview
     pagecolor="#ffffff"
     bordercolor="#666666"
     borderopacity="1"
     objecttolerance="10"
     gridtolerance="10"
     guidetolerance="10"
     inkscape:pageopacity="0"
     inkscape:pageshadow="2"
     inkscape:window-width="1920"
     inkscape:window-height="1017"
     id="namedview4"
     showgrid="false"
     inkscape:pagecheckerboard="true"
     showborder="true"
     inkscape:zoom="0.40136054"
     inkscape:cx="1970.5969"
     inkscape:cy="390.06096"
     inkscape:window-x="-8"
     inkscape:window-y="-8"
     inkscape:window-maximized="1"
     inkscape:current-layer="svg2"
     fit-margin-top="0"
     fit-margin-left="0"
     fit-margin-right="0"
     fit-margin-bottom="0" />
  <g
     id="g879"
     transform="translate(961.14821,765.26301)">
    <path
       style="fill:#9fddea"
       d="m -404.33194,384.09576 c -25.05891,-2.8396 -53.56999,-12.7081 -73.8989,-25.5785 -6.89313,-4.3641 -7.47719,-3.3928 7.45328,-12.3942 20.20473,-12.1811 40.4318,-29.3917 55.09306,-46.877 7.32705,-8.7383 22.27529,-30.3341 27.3991,-39.5836 l 2.04653,-3.6944 6.91953,11.3275 c 15.13282,24.7729 34.0977,46.7526 53.9874,62.5696 4.95,3.9364 15.4022,11.1173 23.22711,15.9575 7.82491,4.8402 14.23741,9.0344 14.25,9.3205 0.0126,0.286 -4.67718,3.1351 -10.42172,6.3312 -18.04624,10.0404 -39.28391,17.7438 -58.29363,21.1444 -10.65771,1.9066 -36.82892,2.7159 -47.76176,1.477 z m -193.5,-52.9883 c -49.74655,-3.6357 -96.81829,-28.6896 -126.35499,-67.2524 -6.21843,-8.1187 -18.64501,-28.4228 -18.64501,-30.4646 0,-0.9419 2.66941,-1.2674 10.39405,-1.2674 37.9282,0 75.47025,-9.77509 109.80241,-28.59003 6.43305,-3.52548 12.17055,-6.40997 12.75,-6.40997 0.67251,0 1.05478,3.88794 1.05696,10.75 0.0123,38.8151 9.46151,75.5989 28.14599,109.5669 3.87754,7.0493 6.85624,13.0108 6.61933,13.2477 -0.99023,0.9902 -13.04948,1.2032 -23.76874,0.4198 z m 399,-0.4404 c 0,-0.2508 1.38663,-2.8077 3.08141,-5.6821 9.27721,-15.7342 18.8066,-37.8823 23.88497,-55.5133 5.24257,-18.2011 7.23191,-31.7823 7.77775,-53.0986 0.27111,-10.5875 0.81824,-19.25 1.21585,-19.25 0.39762,0 9.00678,4.2022 19.13148,9.33822 34.04972,17.27258 67.77151,25.66178 103.15241,25.66178 6.46587,0 11.75613,0.24 11.75613,0.5332 0,1.3366 -5.75056,11.745 -10.75528,19.4668 -27.57252,42.5419 -74.41883,71.7071 -125.21849,77.9574 -8.36348,1.029 -34.02623,1.4715 -34.02623,0.5866 z m -327.8169,-15.8537 c -15.09163,-19.7404 -26.10097,-44.1856 -31.83656,-70.6903 -3.66868,-16.9533 -4.5784,-57.77074 -1.40212,-62.91007 0.61259,-0.9912 4.11548,-0.0192 15.176,4.21114 36.26817,13.87153 71.15958,22.90071 106.94583,27.67539 8.34157,1.11294 15.5209,2.02354 15.95405,2.02354 2.02613,0 -9.09452,23.551 -16.76287,35.5 -18.06263,28.1455 -45.51677,51.7948 -76.54017,65.9326 l -7.56613,3.448 z m 267.79121,0.9992 c -32.98575,-14.4031 -62.9309,-41.982 -81.64064,-75.1895 -4.06456,-7.2141 -11.78489,-24.43208 -11.1765,-24.926 0.18856,-0.15308 8.21808,-1.24742 17.84338,-2.43187 34.29747,-4.2205 66.78294,-12.17315 100.74793,-24.66373 9.68902,-3.56312 18.15005,-6.4784 18.80229,-6.4784 1.52126,0 2.32121,5.43547 3.09063,21 1.4819,29.9776 -6.37898,63.4039 -21.40052,91 -5.9469,10.9251 -15.65482,24.993 -17.24088,24.984 -0.825,0 -4.88656,-1.4871 -9.02569,-3.2945 z M -752.59791,184.13693 c -3.44628,-0.39186 -6.52131,-0.96782 -6.8334,-1.27991 -0.31209,-0.31209 -1.06962,-6.68566 -1.6834,-14.16349 -3.209,-39.09605 8.26322,-81.27846 30.7384,-113.02257 3.27559,-4.62647 6.29185,-8.20397 6.70279,-7.94999 0.41095,0.25398 5.58154,6.41085 11.49021,13.68193 19.76752,24.32552 49.05879,52.53892 72.1289,69.47467 5.80305,4.26002 12.16458,9.21704 14.13673,11.01561 l 3.58574,3.27012 -4.41588,4.01296 c -8.92957,8.11479 -31.97736,20.45663 -49.1673,26.32855 -23.96121,8.18491 -52.43084,11.38972 -76.68279,8.63212 z m 698.26597,0.39982 c -1.65,-0.23472 -6.6,-0.90415 -11,-1.48764 -27.31468,-3.62221 -55.86494,-15.10578 -77.68806,-31.24791 l -6.68807,-4.94703 14.68807,-10.98404 c 34.83492,-26.05027 51.68254,-42.14209 81.39868,-77.74707 2.98372,-3.575 5.84444,-6.47502 6.35716,-6.44449 3.12679,0.18621 16.2737,22.59792 22.98459,39.18213 8.86783,21.91451 12.50414,41.40088 12.45838,66.76236 -0.0368,20.40178 -0.57779,23.51371 -4.40802,25.35651 -2.79673,1.34556 -31.37883,2.51365 -38.10273,1.55718 z m -308.79393,-33.07253 c -1.27055,-38.68667 -9.92677,-70.8611 -28.11294,-104.49335 l -7.21764,-13.34781 5.56226,-0.72855 c 6.23826,-0.8171 21.73652,-0.1755 33.06225,1.36872 22.13096,3.01747 53.13042,15.70312 73.72273,30.16894 11.42767,8.02778 32.97269,29.66586 41.51937,41.69871 7.31173,10.29417 17.20409,28.46122 16.29697,29.92896 -0.74634,1.2076 -28.5387,12.09603 -40.53907,15.88231 -28.50563,8.99389 -55.63322,14.28887 -85.60399,16.70886 l -8.104,0.65436 z m -68.70607,15.53653 c -31.02225,-3.56896 -65.57459,-12.73097 -96.38325,-25.55728 -7.21421,-3.00343 -13.90425,-5.70669 -14.86675,-6.00723 -0.9625,-0.30054 -1.75,-0.94869 -1.75,-1.44034 0,-0.49164 4.10438,-9.09304 9.12084,-19.11424 10.95611,-21.88659 14.95028,-32.04096 19.39528,-49.30859 4.28191,-16.63407 6.52885,-32.79937 7.34054,-52.81061 l 0.64334,-15.8606 8.72143,4.49072 c 12.56609,6.47036 23.78314,14.80366 35.30759,26.23048 26.98358,26.75498 44.44095,59.83435 50.92709,96.5 1.82593,10.3218 3.22932,37.13288 2.16554,41.37133 -0.62884,2.50549 -0.95173,2.62259 -6.8907,2.49893 -3.42702,-0.0713 -9.60595,-0.51801 -13.73095,-0.99257 z m -385.00002,-3.51216 c -39.7709,-22.09785 -71.065,-61.02929 -83.4898,-103.86553 -4.9861,-17.19043 -8.7524,-48.18784 -7.0671,-58.16336 l 0.6657,-3.9399 19.1956,9.58438 c 34.098,17.02513 59.7735,23.56546 100.259,25.53891 l 14.06341,0.68552 -9.60462,19.14723 c -17.36569,34.61928 -25.02219,64.44776 -25.02219,97.48281 0,10.87768 -0.6883,17.1747 -1.875,17.15296 -0.3437,-0.006 -3.55,-1.63665 -7.125,-3.62302 z m 853.62032,-5.61553 c -0.3076,-4.5375 -0.8267,-13.425 -1.1537,-19.75 C 34.01536,106.79308 23.37326,73.05632 4.7697,40.27699 2.7888,36.78666 1.16806,33.8167 1.16806,33.67709 c 0,-0.13961 7.9875,-0.52328 17.75,-0.85259 25.5055,-0.86037 48.2029,-5.01829 69.5402,-12.739 4.7985,-1.73632 16.8572,-7.16318 26.797,-12.05969 9.9399,-4.89651 18.4865,-8.90275 18.9926,-8.90275 1.2343,0 1.166,14.36151 -0.1289,27.14405 -4.1074,40.54319 -20.3023,75.76538 -47.9165,104.21305 -12.8925,13.28154 -26.6436,24.14475 -39.2892,31.03786 -4.6464,2.53277 -8.6995,4.60504 -9.0069,4.60504 -0.3073,0 -0.8104,-3.7125 -1.118,-8.25 z m -224.9698,-53.48786 c -2.40987,-3.71918 -7.75527,-11.97071 -11.87866,-18.33674 -17.39378,-26.85391 -36.97654,-45.96405 -67.63481,-66.0025 l -16.36298,-10.69494 5.86298,-3.97826 c 27.3531,-18.56018 68.52649,-27.86929 107.32139,-24.26488 13.2933,1.23508 29.2113,4.92112 43.04158,9.96691 17.38634,6.34317 44.08148,21.30327 44.78271,25.09648 1.02486,5.54377 -34.79206,45.1917 -59.14019,65.46588 -12.08385,10.06198 -32.12312,24.67012 -37.85007,27.59179 l -3.76037,1.9184 z m -412.6505,-2.38372 c -30.56999,-21.45478 -56.95408,-46.43364 -79.11099,-74.89751 -4.35989,-5.60093 -8.36177,-10.99575 -8.89307,-11.98849 -0.83694,-1.56384 1.06803,-3.12011 14.25869,-11.6487 8.37358,-5.41405 18.72694,-12.43684 23.00748,-15.60621 24.1656,-17.89255 44.09284,-40.67691 61.21122,-69.98751 2.16822,-3.7125 4.23501,-6.75 4.59287,-6.75 1.12884,0 7.61268,10.40058 12.29111,19.7159 11.42935,22.75718 17.64269,50.05824 17.64269,77.52092 0,32.14934 -11.34162,69.42962 -29.20968,96.01318 -2.12566,3.1625 -3.96057,5.73862 -4.07758,5.7247 -0.11701,-0.0139 -5.38774,-3.65724 -11.71274,-8.09628 z m 607,-116.43288 c -0.825,-0.17736 -4.03405,-0.60086 -7.13122,-0.94112 l -5.63121,-0.61865 5.27042,-12.19289 c 14.90021,-34.47094 25.17691,-70.32436 30.40641,-106.08242 1.1173,-7.63925 2.261,-14.11924 2.5418,-14.39997 0.9925,-0.9925 21.1659,9.93984 30.0438,16.28125 24.344,17.38878 46.9511,44.89484 58.6289,71.33391 l 3.1488,7.12889 -2.3888,2.03668 c -5.2958,4.51504 -20.7954,14.44336 -28.8417,18.47465 -10.6462,5.33386 -24.9301,10.70176 -36.0472,13.54657 -14.6391,3.74608 -43.34014,6.86479 -50,5.4331 z m -809.50002,-1.55126 c -25.8315,-2.71131 -52.8355,-11.89298 -75.7783,-25.76558 -4.5219,-2.7342 -10.0012,-6.51249 -12.1761,-8.39619 l -3.9543,-3.4249 1.2916,-4.40381 c 0.7104,-2.42209 3.4286,-8.49089 6.0404,-13.48623 15.431,-29.5125 38.2565,-53.81155 66.111,-70.3789 8.4338,-5.01626 20.6551,-10.70264 21.3712,-9.94365 0.2101,0.22274 1.3655,7.15498 2.5675,15.40498 5.453,37.42724 13.91129,67.96021 28.49648,102.86705 3.64637,8.72688 6.39932,16.0975 6.11766,16.37916 -1.8879,1.88791 -26.36084,2.58879 -40.08714,1.14807 z m 723.77158,-24.24165 c -26.68854,-13.07334 -40.22258,-18.1233 -59.34411,-22.14309 -13.8296,-2.90729 -37.3977,-5.50954 -49.89901,-5.50954 -4.96564,0 -9.02092,-0.3375 -9.01173,-0.75 0.0364,-1.63544 9.34924,-18.00897 13.75852,-24.18986 24.99354,-35.03573 67.02118,-61.34683 110.27367,-69.03605 21.99627,-3.91039 49.62408,-4.41021 55.97256,-1.0126 2.46092,1.31704 2.55261,5.11865 0.46416,19.24509 -5.34416,36.14835 -14.70731,68.47225 -28.87028,99.66731 -8.39742,18.49597 -4.16375,18.02253 -33.34378,3.72874 z m -642.10461,-0.58143 c -17.0851,-36.42436 -27.43621,-73.48494 -31.23828,-111.84397 -0.66905,-6.75003 -1.0392,-12.44213 -0.82256,-12.64911 0.21664,-0.20698 9.61889,-0.89423 20.89389,-1.52722 34.26547,-1.92368 48.28064,-4.22392 70.5,-11.5708 15.66333,-5.17912 27.31511,-10.2808 42,-18.3895 l 11,-6.07398 0.56008,6.74169 c 0.77478,9.32601 -0.59868,27.16634 -2.99551,38.90975 -9.42991,46.2024 -37.73022,87.37504 -78.06457,113.57204 -8.20257,5.32754 -24.03249,13.7599 -25.83121,13.7599 -0.48159,0 -3.18242,-4.91796 -6.00184,-10.9288 z m -214.51997,-58.8212 c -18.4391,-31.45479 -26.9659,-66.9459 -24.5668,-102.25387 1.9051,-28.03874 11.4401,-57.45176 26.2013,-80.82447 l 4.0633,-6.43376 2.0776,3.73805 c 20.8072,37.43672 49.0284,66.59597 85.3975,88.23594 7.7121,4.58877 10.9376,7.01373 10.0253,7.53702 -25.3231,14.52435 -38.3061,24.17467 -55.4553,41.22022 -14.3624,14.27546 -25.4001,28.44279 -35.3974,45.4337 -3.5709,6.06893 -6.7872,11.04853 -7.1474,11.06579 -0.3603,0.0173 -2.6994,-3.45612 -5.1981,-7.71862 z m 1086.84812,-5.85362 c -10.6657,-17.21863 -19.759,-28.71518 -33.9661,-42.94278 -14.6459,-14.66705 -25.8389,-23.47024 -42.7566,-33.62748 -12.4671,-7.48514 -12.7909,-7.76563 -10.5668,-9.1525 26.4306,-16.48105 38.8934,-25.86014 53.2746,-40.09266 14.4568,-14.30727 29.064,-33.52258 39.2264,-51.60106 l 2.7616,-4.9128 4.3403,6.71645 c 13.2237,20.46287 22.3215,48.83314 25.2519,78.74459 2.5825,26.35998 -5.1531,64.77073 -18.318,90.95754 -2.827,5.62345 -10.612,18.51432 -11.181,18.51432 -0.1426,0 -3.7725,-5.67163 -8.0663,-12.60362 z m -313.4951,-86.45065 c 0,-37.33209 13.79502,-75.73264 38.02963,-105.86131 17.72441,-22.03514 42.0279,-41.03607 64.16296,-50.16384 l 6.82963,-2.81631 1.54312,2.35511 c 2.37727,3.62818 12.71499,26.90773 16.75514,37.73099 9.92101,26.57766 17.05156,59.46971 19.92297,91.90139 l 0.318,3.59176 -21.53072,1.20257 c -11.8419,0.66142 -26.00443,1.6683 -31.47228,2.23752 -25.10228,2.61324 -49.39137,10.2382 -77.30226,24.26712 -19.01449,9.5573 -17.25619,10.01022 -17.25619,-4.445 z m -587.75,-23.60354 c -3.7772,-0.54497 -3.80476,-0.72858 -2.22832,-14.84219 3.37817,-30.24415 11.47448,-62.50399 22.46197,-89.5 4.0976,-10.06771 12.43119,-27.96649 14.38795,-30.90226 0.75283,-1.12949 5.19633,0.75551 22.8433,9.69046 38.39875,19.44193 63.58953,26.15739 104.5351,27.86736 8.6625,0.36177 15.75,0.84463 15.75,1.07303 0,0.57919 -4.55406,8.53714 -9.31156,16.27141 -5.93851,9.65424 -12.1299,17.51911 -21.13264,26.84464 -25.17691,26.07963 -56.1574,43.00081 -92.89344,50.73732 -10.10998,2.12914 -15.45296,2.61771 -31.66236,2.89525 -10.725,0.18363 -20.9625,0.12287 -22.75,-0.13502 z m -63.32022,-19.91461 c -32.3595,-16.77173 -60.4354,-45.68017 -76.5841,-78.855 -2.3901,-4.91008 -4.3457,-9.93477 -4.3457,-11.16597 0,-2.57873 3.4444,-5.51254 16.2523,-13.84301 22.6997,-14.76422 50.7614,-24.06271 80.2477,-26.59073 16.75949,-1.43688 37.22886,-0.0901 36.12083,2.37665 -18.39444,40.9501 -30.03343,79.6316 -35.09923,116.65048 -2.2628,16.5358 -2.5336,18.0032 -3.3169,17.9713 -0.3876,-0.0158 -6.3613,-2.96046 -13.2749,-6.54372 z m 844.64082,-0.17758 c -5.9093,-42.75824 -16.71634,-82.21754 -31.6846,-115.68916 -3.48549,-7.79415 -4.55186,-11.14931 -3.70913,-11.67015 2.10784,-1.30272 19.88933,-2.17155 30.24023,-1.47758 28.5937,1.91704 62.2061,13.28508 85.9028,29.0532 11.1847,7.44246 11.2823,7.57107 9.7252,12.81542 -2.0607,6.94048 -8.5232,19.67577 -14.5174,28.60883 -13.3006,19.82166 -27.7165,34.72892 -46.8658,48.46333 -7.6878,5.51391 -24.6165,14.64611 -27.15,14.64611 -0.774,0 -1.5458,-1.88867 -1.9413,-4.75 z m -222.23602,-64 c -12.46513,-20.39481 -20.4619,-43.81382 -23.43009,-68.61642 -3.40333,-28.43865 2.17739,-63.24747 14.71129,-91.75926 6.70878,-15.26095 16.89817,-31.23164 19.34434,-30.31999 3.0833,1.1491 18.84274,12.38683 31.41439,22.40097 27.40472,21.82963 69.95183,68.47158 66.92613,73.36726 -0.31103,0.50327 -8.49342,6.09957 -18.18308,12.43623 -20.55344,13.44115 -25.88526,17.42876 -37.22682,27.84152 -15.67446,14.39083 -27.6534,29.09208 -41.2706,50.64969 -3.73472,5.9125 -7.09857,10.75 -7.47521,10.75 -0.37664,0 -2.5413,-3.0375 -4.81035,-6.75 z m -408.83458,-60.87073 c -24.24642,-3.65764 -43.28743,-9.21917 -60.86084,-17.77634 -14.17828,-6.90396 -27.8157,-15.6561 -27.14758,-17.42261 0.90606,-2.3956 15.85437,-21.37903 24.10416,-30.61079 11.65903,-13.04681 30.18479,-30.70173 42.90426,-40.88749 10.46882,-8.38342 29.80385,-22.09394 32.75427,-23.22612 0.93628,-0.35928 4.7022,4.66651 11.68485,15.59399 13.19388,20.64773 19.53856,28.65715 34.45358,43.49366 13.86638,13.7934 27.75223,24.5524 44.16605,34.22064 6.28945,3.70469 11.43669,6.96188 11.43831,7.2382 0.006,0.98512 -13.63685,9.19409 -21.78846,13.11046 -12.06209,5.79513 -30.11509,11.55371 -43.77791,13.96437 -11.47277,2.02425 -40.5231,3.41949 -47.93069,2.30203 z m -307.50002,-26.19077 c 0,-38.742 11.1911,-74.65759 32.7761,-105.1885 8.6243,-12.19851 29.0988,-32.68756 40.9842,-41.01323 10.5165,-7.36679 24.2273,-15.11248 25.4324,-14.36766 0.444,0.27441 0.8073,6.67167 0.8073,14.21614 0,38.53364 11.5266,79.08509 32.11029,112.96653 2.13935,3.52145 3.88973,6.58164 3.88973,6.80042 0,0.21879 -6.27695,0.3978 -13.94878,0.3978 -23.50054,0 -45.94434,3.72831 -70.18644,11.65917 -12.7857,4.18287 -34.7175,14.23282 -46.6148,21.3606 l -5.25,3.14532 z m 637.00002,5.9404 c -24.06787,-12.68138 -44.93904,-32.07722 -62.12551,-57.73403 -11.08819,-16.55299 -20.5126,-39.71107 -24.78176,-60.89487 -2.56145,-12.71008 -4.38929,-35.13524 -3.52523,-43.25 l 0.66549,-6.25 h 5.34526 c 14.5486,0 49.98165,6.07602 72.95396,12.51006 21.2577,5.95381 57.08974,19.56908 56.25883,21.37693 -0.16007,0.34827 -3.95657,7.60368 -8.43665,16.12312 -19.83211,37.71321 -25.97074,60.98891 -29.14719,110.51677 l -0.7072,11.02687 z m 386.5452,-7.28996 c -32.8733,-16.57855 -60.0452,-23.50263 -99.7344,-25.41482 l -14.68929,-0.70772 3.02645,-5.1082 c 4.79871,-8.09952 14.46674,-28.43085 18.40274,-38.6997 7.7744,-20.28352 13.4493,-48.89712 13.4493,-67.81303 0,-4.84115 0.2852,-11.53101 0.6338,-14.86636 l 0.6339,-6.06427 2.6161,1.14069 c 12.8825,5.61696 30.2352,18.54435 45.1162,33.61057 13.4052,13.57209 22.2354,26.00153 30.9633,43.5839 10.4111,20.97347 15.7018,39.02753 17.98,61.35595 1.2236,11.99148 1.4002,28.16836 0.3067,28.09096 -0.4125,-0.0292 -8.8296,-4.12778 -18.7048,-9.10797 z m -520.5452,-25.53474 c -1.925,-0.20665 -8.225,-1.30525 -14,-2.44135 -48.63887,-9.56856 -91.73139,-40.34481 -117.46396,-83.89161 -7.13698,-12.07777 -8.26702,-14.89282 -6.44562,-16.05661 5.80656,-3.71012 44.73631,-17.52512 62.90958,-22.32473 19.43096,-5.13176 52.97673,-10.5899 65.08565,-10.5899 h 4.64536 l 0.70249,14.75 c 2.10654,44.2303 11.1368,76.47378 31.39233,112.08953 2.29579,4.03675 4.17417,7.74925 4.17417,8.25 0,0.864 -23.43928,1.02631 -31,0.21467 z m -324.71696,-22.72707 c -17.45401,-24.53763 -29.24149,-58.12907 -31.17584,-88.84345 -0.63727,-10.11885 0.25583,-37.43004 1.25672,-38.43094 1.33177,-1.33176 20.54471,-2.46117 33.63608,-1.97725 27.29398,1.00892 50.50375,6.84067 73.63647,18.50211 11.77379,5.93529 32.74023,20.25178 31.36353,21.41593 -0.275,0.23255 -7.7,5.84645 -16.5,12.47534 -8.8,6.62889 -20.05,15.54154 -25,19.80589 -17.40715,14.996 -40.13587,39.25391 -58.01697,61.92036 l -3.01697,3.82438 z m 677.5903,-0.32713 c -2.50331,-2.6125 -7.41933,-8.35 -10.92448,-12.75 -15.39936,-19.33076 -51.92927,-52.86438 -77.19886,-70.86677 -3.7125,-2.64483 -6.75,-5.24465 -6.75,-5.77738 0,-1.37338 5.5542,-6.37514 12,-10.80643 18.66144,-12.82917 50.35812,-24.13536 75.97559,-27.10047 11.52211,-1.33363 43.52637,-0.84699 45.0585,0.68514 1.58465,1.58465 3.18973,25.29234 2.49593,36.86591 -1.43335,23.91039 -6.76133,44.54615 -17.16452,66.47976 -8.24254,17.37819 -15.30199,28.02024 -18.58735,28.02024 -0.19433,0 -2.4015,-2.1375 -4.90481,-4.75 z m -507.37033,-127 c -1.42776,-7.44064 -2.0587,-25.00321 -1.34119,-37.33299 1.53025,-26.29607 8.98749,-51.5978 22.37522,-75.91701 5.94268,-10.79505 14.56471,-22.96239 16.28668,-22.98366 2.31289,-0.0286 25.3826,11.58411 33.17628,16.70004 17.28514,11.34632 32.32666,25.84606 46.16242,44.49971 7.1353,9.61995 23.58352,40.76794 22.47518,42.56126 -0.33481,0.54174 -4.10273,1.30002 -8.37317,1.68509 -34.02495,3.06801 -83.37976,15.40176 -116.59484,29.13699 -7.18292,2.97031 -13.14696,5.40057 -13.25343,5.40057 -0.10647,0 -0.51739,-1.6875 -0.91315,-3.75 z m 335.00381,-1.83247 c -35.21234,-14.27613 -75.36499,-24.32469 -114.00682,-28.53124 -6.05,-0.65861 -11.35078,-1.50073 -11.77952,-1.8714 -1.07719,-0.93128 5.39117,-16.05965 11.076,-25.90484 11.87439,-20.56451 31.07402,-42.57412 48.20352,-55.2584 16.69063,-12.3593 39.69811,-24.17701 42.51613,-21.83827 0.75133,0.62356 4.03925,5.03814 7.30647,9.81018 21.78189,31.81419 32.24849,68.0643 30.80102,106.67644 -0.59314,15.82245 -1.25953,21.55917 -2.4902,21.43724 -0.34838,-0.0345 -5.58035,-2.06839 -11.6266,-4.51971 z m -391.00682,-14.60371 c -7.18424,-4.52345 -29.55597,-15.2014 -39.5,-18.85321 -21.67406,-7.95951 -46.53662,-12.59347 -73.23678,-13.65012 l -15.73678,-0.62277 4.04637,-7.59386 c 10.01611,-18.79734 29.75105,-41.73593 47.33716,-55.02162 31.21879,-23.5847 68.03352,-35.9984 106.92336,-36.05392 7.05834,-0.0101 12.68334,0.32211 12.5,0.7382 -0.18333,0.41609 -2.94134,5.35749 -6.1289,10.98089 -19.33,34.10138 -29.70443,74.05893 -29.70443,114.40781 0,4.87013 -0.3375,8.84623 -0.75,8.83578 -0.4125,-0.0104 -3,-1.43568 -5.75,-3.16718 z m 453.08131,0.53746 c -0.31972,-0.83317 -0.58977,-6.54055 -0.60011,-12.68307 -0.0358,-21.26599 -4.67128,-48.08471 -12.12379,-70.1424 -3.19206,-9.44774 -12.81189,-29.91482 -19.87026,-42.27581 l -4.13989,-7.25 h 8.97042 c 20.33685,0 42.00556,3.60201 60.93566,10.12938 38.39064,13.23766 72.70519,41.12223 92.73115,75.35489 8.35529,14.28265 8.5677,13.51573 -3.74342,13.51573 -35.78765,0 -69.61675,8.3759 -103.40976,25.60368 -14.47173,7.37773 -18.28698,8.95422 -18.75,7.7476 z m -230.92391,-68.60128 c -20.07656,-33.67663 -46.18702,-59.80008 -79.98092,-80.02067 l -11.82352,-7.07461 5.32352,-3.40346 c 7.67805,-4.90878 25.93844,-13.59389 35.90215,-17.07599 21.28611,-7.43905 46.45248,-10.76366 69.42137,-9.17095 16.4938,1.14372 26.88757,3.13957 42.15612,8.09499 17.4142,5.65179 47.31046,20.98122 43.84388,22.48115 -0.55,0.23797 -6.175,3.65345 -12.5,7.58995 -31.2538,19.45149 -52.21229,39.64056 -71.45273,68.82959 -4.53177,6.875 -9.29167,14.4125 -10.57757,16.75 -1.28589,2.3375 -2.62318,4.25 -2.97176,4.25 -0.34857,0 -3.65182,-5.0625 -7.34054,-11.25 z"
       id="path58"
       inkscape:connector-curvature="0" />
    <path
       style="fill:#fa9d0d"
       d="m -54.33194,184.53675 c -1.65,-0.23472 -6.6,-0.90415 -11,-1.48764 -27.31468,-3.62221 -55.86494,-15.10578 -77.68806,-31.24791 l -6.68807,-4.94703 14.68807,-10.98404 c 34.83492,-26.05027 51.68254,-42.142093 81.39868,-77.74707 2.98372,-3.575 5.84444,-6.47502 6.35716,-6.44449 3.12679,0.18621 16.2737,22.59792 22.98459,39.182127 8.86783,21.914513 12.50414,41.400883 12.45838,66.762363 -0.0368,20.40178 -0.57779,23.51371 -4.40802,25.35651 -2.79673,1.34556 -31.37883,2.51365 -38.10273,1.55718 z m 91.1203,-26.66369 c -0.3076,-4.5375 -0.8267,-13.425 -1.1537,-19.75 C 34.01536,106.79308 23.37326,73.05632 4.7697,40.27699 2.7888,36.78666 1.16806,33.8167 1.16806,33.67709 c 0,-0.13961 7.9875,-0.52328 17.75,-0.85259 25.5055,-0.86037 48.2029,-5.01829 69.5402,-12.739 4.7985,-1.73632 16.8572,-7.16318 26.797,-12.05969 9.9399,-4.89651 18.4865,-8.90275 18.9926,-8.90275 1.2343,0 1.166,14.36151 -0.1289,27.14405 -4.1074,40.54319 -20.3023,75.76538 -47.9165,104.21305 -12.8925,13.28154 -26.6436,24.14475 -39.2892,31.03786 -4.6464,2.53277 -8.6995,4.60504 -9.0069,4.60504 -0.3073,0 -0.8104,-3.7125 -1.118,-8.25 z m -224.9698,-53.48786 c -2.40987,-3.71918 -7.75527,-11.970713 -11.87866,-18.33674 -17.39378,-26.85391 -36.97654,-45.96405 -67.63481,-66.0025 l -16.36298,-10.69494 5.86298,-3.97826 c 27.3531,-18.56018 68.52649,-27.86929 107.32139,-24.26488 13.2933,1.23508 29.2113,4.92112 43.04158,9.96691 17.38634,6.34317 44.08148,21.30327 44.78271,25.09648 1.02486,5.54377 -34.79206,45.1917 -59.14019,65.46588 -12.08385,10.061977 -32.12312,24.67012 -37.85007,27.59179 l -3.76037,1.9184 z M 6.16806,-14.4314 c -0.825,-0.17736 -4.03405,-0.60086 -7.13122,-0.94112 l -5.63121,-0.61865 5.27042,-12.19289 c 14.90021,-34.47094 25.17691,-70.32436 30.40641,-106.08242 1.1173,-7.63925 2.261,-14.11924 2.5418,-14.39997 0.9925,-0.9925 21.1659,9.93984 30.0438,16.28125 24.344,17.38878 46.9511,44.89484 58.6289,71.33391 l 3.1488,7.12889 -2.3888,2.03668 c -5.2958,4.51504 -20.7954,14.44336 -28.8417,18.47465 -10.6462,5.33386 -24.9301,10.70176 -36.0472,13.54657 -14.6391,3.74608 -43.34014,6.86479 -50,5.4331 z m -85.72844,-25.79291 c -26.68854,-13.07334 -40.22258,-18.1233 -59.34411,-22.14309 -13.8296,-2.90729 -37.3977,-5.50954 -49.89901,-5.50954 -4.96564,0 -9.02092,-0.3375 -9.01173,-0.75 0.0364,-1.63544 9.34924,-18.00897 13.75852,-24.18986 24.99354,-35.03573 67.02118,-61.34683 110.27367,-69.03605 21.99627,-3.91039 49.62408,-4.41021 55.97256,-1.0126 2.46092,1.31704 2.55261,5.11865 0.46416,19.24509 -5.34416,36.14835 -14.70731,68.47225 -28.87028,99.66731 -8.39742,18.49597 -4.16375,18.02253 -33.34378,3.72874 z m -855.7589,-58.63179 c -17.25131,-28.39872 -26.62501,-64.86279 -25.21433,-98.08476 1.01204,-23.8338 6.80892,-47.05258 17.086,-68.43608 4.9782,-10.35814 12.4229,-23.06764 13.08169,-22.3329 0.16418,0.18309 3.23107,5.2829 6.81532,11.3329 19.9352,33.64939 45.65763,59.04854 81.01675,79.99853 5.38895,3.1929 9.43895,6.10479 9,6.47085 -0.43895,0.36605 -5.07309,3.17754 -10.29809,6.24774 -33.89009,19.91375 -61.71852,47.95112 -81.5,82.11192 -2.75,4.74899 -5.30492,8.64273 -5.6776,8.65275 -0.37267,0.01 -2.31206,-2.67241 -4.30974,-5.96095 z m 1085.98244,-6.62446 c -10.6657,-17.21863 -19.759,-28.71518 -33.9661,-42.94278 -14.6459,-14.66705 -25.8389,-23.47024 -42.7566,-33.62748 -12.4671,-7.48514 -12.7909,-7.76563 -10.5668,-9.1525 26.4306,-16.48105 38.8934,-25.86014 53.2746,-40.09266 14.4568,-14.30727 29.064,-33.52258 39.2264,-51.60106 l 2.7616,-4.9128 4.3403,6.71645 c 13.2237,20.46287 22.3215,48.83314 25.2519,78.74459 2.5825,26.35998 -5.1531,64.77073 -18.318,90.95754 -2.827,5.62345 -10.612,18.51432 -11.181,18.51432 -0.1426,0 -3.7725,-5.67163 -8.0663,-12.60362 z m -313.4951,-86.45065 c 0,-37.33209 13.79502,-75.73264 38.02963,-105.86131 17.72441,-22.03514 42.0279,-41.03607 64.16296,-50.16384 l 6.82963,-2.81631 1.54312,2.35511 c 2.37727,3.62818 12.71499,26.90773 16.75514,37.73099 9.92101,26.57766 17.05156,59.46971 19.92297,91.90139 l 0.318,3.59176 -21.53072,1.20257 c -11.8419,0.66142 -26.00443,1.6683 -31.47228,2.23752 -25.10228,2.61324 -49.39137,10.2382 -77.30226,24.26712 -19.01449,9.5573 -17.25619,10.01022 -17.25619,-4.445 z m -583.45892,-23.87232 -6.95892,-0.57341 0.26886,-5.5 c 0.81426,-16.65722 6.30867,-46.00804 12.79563,-68.35351 6.0258,-20.7569 22.81413,-60.64649 25.52429,-60.64649 0.53625,0 11.28287,5.1482 23.88137,11.44044 23.92854,11.95097 38.76412,17.51868 57.25276,21.48665 14.06729,3.01908 33.27351,5.07291 47.4388,5.07291 6.74087,0 12.25613,0.40147 12.25613,0.89215 0,1.67738 -8.99658,16.8929 -14.63738,24.75554 -12.19723,17.00158 -26.57817,30.59662 -45.53753,43.04897 -32.49121,21.33994 -73.10831,31.60482 -112.28401,28.37675 z m -67.05812,-19.85863 c -32.62172,-16.9216 -60.24766,-45.09736 -76.12706,-77.6422 -6.19632,-12.69936 -6.01919,-13.86068 3.10895,-20.38341 20.45489,-14.61653 44.92124,-24.77457 72.03515,-29.90785 6.59482,-1.24855 14.52301,-1.71425 29.66667,-1.74262 11.36666,-0.0213 20.98626,0.28089 21.37687,0.67151 0.39062,0.39062 -1.77078,6.46562 -4.80311,13.5 -15.27468,35.43413 -25.56425,72.21971 -30.36047,108.53979 -1.00782,7.63184 -2.12451,12.73586 -2.78183,12.71478 -0.60397,-0.0194 -6.0558,-2.60687 -12.11517,-5.75 z m 844.08764,0.0352 c -5.9093,-42.75824 -16.71634,-82.21754 -31.6846,-115.68916 -3.48549,-7.79415 -4.55186,-11.14931 -3.70913,-11.67015 2.10784,-1.30272 19.88933,-2.17155 30.24023,-1.47758 28.5937,1.91704 62.2061,13.28508 85.9028,29.0532 11.1847,7.44246 11.2823,7.57107 9.7252,12.81542 -2.0607,6.94048 -8.5232,19.67577 -14.5174,28.60883 -13.3006,19.82166 -27.7165,34.72892 -46.8658,48.46333 -7.6878,5.51391 -24.6165,14.64611 -27.15,14.64611 -0.774,0 -1.5458,-1.88867 -1.9413,-4.75 z m -222.23602,-64 c -12.46513,-20.39481 -20.4619,-43.81382 -23.43009,-68.61642 -3.40333,-28.43865 2.17739,-63.24747 14.71129,-91.75926 6.70878,-15.26095 16.89817,-31.23164 19.34434,-30.31999 3.0833,1.1491 18.84274,12.38683 31.41439,22.40097 27.40472,21.82963 69.95183,68.47158 66.92613,73.36726 -0.31103,0.50327 -8.49342,6.09957 -18.18308,12.43623 -20.55344,13.44115 -25.88526,17.42876 -37.22682,27.84152 -15.67446,14.39083 -27.6534,29.09208 -41.2706,50.64969 -3.73472,5.9125 -7.09857,10.75 -7.47521,10.75 -0.37664,0 -2.5413,-3.0375 -4.81035,-6.75 z m -406.83458,-61.34787 c -29.13887,-3.02993 -58.74962,-13.35279 -82.79775,-28.86484 l -7.79776,-5.02988 6.22722,-8.25369 c 18.32153,-24.28378 40.2133,-46.75132 63.86829,-65.54807 10.34998,-8.22431 29.04885,-21.20563 30.54553,-21.20563 0.67879,0 5.75596,7.0875 11.28259,15.75 15.12388,23.70534 26.98713,37.78493 44.67188,53.01768 10.57934,9.1125 31.39139,23.65655 40.25,28.12783 2.3375,1.17983 4.25,2.56858 4.25,3.08613 0,1.35083 -14.94529,9.98698 -25.53379,14.75472 -16.00747,7.20778 -31.68138,11.25456 -53.45662,13.80175 -13.52484,1.58208 -19.16829,1.64728 -31.50959,0.364 z m -308.18301,-35.04929 c 0.94667,-28.6595 5.94073,-48.723 18.13861,-72.87133 13.42944,-26.58648 33.71797,-49.55009 58.41112,-66.11274 9.99709,-6.70543 19.98381,-12.35156 20.65677,-11.67859 0.17854,0.17854 0.61407,7.52129 0.96783,16.31723 1.09719,27.28014 4.83686,47.47346 12.96216,69.99261 3.63975,10.0875 13.83355,31.68344 19.39833,41.09606 l 3.01281,5.09606 -16.18231,0.63879 c -25.36838,1.0014 -46.45706,4.77532 -68.68231,12.29102 -10.40123,3.51728 -33.49539,14.24755 -43.89462,20.39481 l -5.39461,3.18891 z m 633.68763,13.5349 c -22.78905,-12.18524 -42.91448,-31.09185 -59.49052,-55.88772 -18.37369,-27.48494 -28.5141,-62.39646 -28.5141,-98.1687 v -12.56628 l 7.75,0.67013 c 31.2183,2.69936 60.82233,8.72169 88.75,18.05436 12.67976,4.23723 37.5,14.25965 37.5,15.1425 0,0.24318 -3.97435,8.18796 -8.83189,17.65507 -18.79393,36.62842 -26.47889,65.11499 -28.03717,103.92801 l -0.63094,15.71508 z m 388.54058,-5.54878 c -32.8733,-16.57855 -60.0452,-23.50263 -99.7344,-25.41482 l -14.68929,-0.70772 3.02645,-5.1082 c 4.79871,-8.09952 14.46674,-28.43085 18.40274,-38.6997 7.7744,-20.28352 13.4493,-48.89712 13.4493,-67.81303 0,-4.84115 0.2852,-11.53101 0.6338,-14.86636 l 0.6339,-6.06427 2.6161,1.14069 c 12.8825,5.61696 30.2352,18.54435 45.1162,33.61057 13.4052,13.57209 22.2354,26.00153 30.9633,43.5839 10.4111,20.97347 15.7018,39.02753 17.98,61.35595 1.2236,11.99148 1.4002,28.16836 0.3067,28.09096 -0.4125,-0.0292 -8.8296,-4.12778 -18.7048,-9.10797 z m -515.5452,-25.54618 c -9.10215,-0.72377 -27.33022,-4.4062 -36.75512,-7.42526 -27.25453,-8.73041 -48.26324,-21.23844 -68.6179,-40.85331 -15.32276,-14.76585 -24.78042,-27.04945 -34.08155,-44.26509 l -4.72786,-8.7509 6.75708,-3.03169 c 34.54614,-15.49981 80.03087,-27.08201 119.67535,-30.47405 l 7.75,-0.6631 v 10.91164 c 0,40.41411 10.7253,79.94013 31.72215,116.90584 l 4.05946,7.14684 -3.0158,0.60316 c -3.04259,0.60852 -14.46064,0.55632 -22.76581,-0.10408 z m -329.34716,-22.86951 c -7.1351,-10.00874 -18.74545,-33.16022 -22.5403,-44.94619 -7.79694,-24.2156 -10.73576,-50.72625 -8.13292,-73.36575 0.53044,-4.61379 1.10819,-8.53245 1.28389,-8.70816 0.1757,-0.1757 6.15079,-0.7885 13.27797,-1.36177 35.93519,-2.89046 74.64382,6.30512 104.95852,24.93382 8.93603,5.49128 18.69021,12.97702 18.30082,14.04475 -0.16545,0.45367 -7.24773,6.06858 -15.7384,12.47759 -8.49067,6.409 -19.51567,15.16879 -24.5,19.46619 -12.33116,10.63171 -38.30147,37.35503 -48.06242,49.45599 -4.4,5.45482 -9.16973,11.26986 -10.59939,12.92231 l -2.5994,3.00447 z m 677.2205,-0.17325 c -2.50331,-2.6125 -7.41933,-8.35 -10.92448,-12.75 -15.39936,-19.33076 -51.92927,-52.86438 -77.19886,-70.86677 -3.7125,-2.64483 -6.75,-5.24465 -6.75,-5.77738 0,-1.37338 5.5542,-6.37514 12,-10.80643 18.66144,-12.82917 50.35812,-24.13536 75.97559,-27.10047 11.52211,-1.33363 43.52637,-0.84699 45.0585,0.68514 1.58465,1.58465 3.18973,25.29234 2.49593,36.86591 -1.43335,23.91039 -6.76133,44.54615 -17.16452,66.47976 -8.24254,17.37819 -15.30199,28.02024 -18.58735,28.02024 -0.19433,0 -2.4015,-2.1375 -4.90481,-4.75 z m -507.54375,-131 c -1.45151,-11.81023 -0.83886,-39.75983 1.11154,-50.70969 3.81415,-21.41328 11.27189,-42.26094 21.43743,-59.92704 4.87825,-8.47763 13.78718,-21.61327 14.65868,-21.61327 2.32372,0 26.37987,12.71613 35.42861,18.72763 14.08646,9.3583 34.24359,29.0393 44.31922,43.27237 8.82127,12.46113 23.82371,42 21.3313,42 -0.21099,0 -7.29849,0.92255 -15.75,2.05012 -39.24059,5.23531 -76.9855,15.02513 -108.10817,28.03978 -6.45799,2.70055 -12.15968,4.9101 -12.67041,4.9101 -0.51073,0 -1.30192,-3.0375 -1.7582,-6.75 z m 336.67041,2.15915 c -33.96232,-14.00026 -73.13805,-23.90531 -114.4744,-28.94331 -7.13592,-0.86972 -13.0593,-1.66782 -13.16308,-1.77357 -0.59381,-0.60509 10.00598,-22.53079 14.43886,-29.8668 18.26521,-30.22727 47.1263,-56.05048 78.19862,-69.96752 l 8.5,-3.80708 1.78535,2.22457 c 5.21761,6.50118 14.4597,21.53347 19.19736,31.22456 13.48851,27.5913 19.96112,60.80818 17.54129,90.02037 -0.54579,6.58879 -0.99947,12.54213 -1.00817,13.22963 -0.0236,1.86147 -1.67082,1.51143 -11.01583,-2.34085 z m -391.5,-14.62416 c -10.11421,-6.33264 -33.78658,-16.99863 -48.1908,-21.71318 -23.42567,-7.66731 -44.07265,-11.04849 -67.5592,-11.06361 -7.0125,-0.005 -12.75,-0.24816 -12.75,-0.54144 0,-3.65564 15.8666,-27.45775 26.37981,-39.57337 21.70574,-25.01413 55.25151,-45.1663 88.62019,-53.2374 16.41752,-3.97102 40.67448,-6.53173 49.43243,-5.21839 l 4.56776,0.68498 -4.0796,7.18871 c -10.43416,18.38615 -19.13544,39.49566 -23.96263,58.13386 -4.64833,17.94765 -6.17019,28.92025 -6.83255,49.26263 l -0.62541,19.20777 z m 452.08131,0.56629 c -0.31972,-0.83317 -0.58977,-6.54055 -0.60011,-12.68307 -0.0358,-21.26599 -4.67128,-48.08471 -12.12379,-70.1424 -3.19206,-9.44774 -12.81189,-29.91482 -19.87026,-42.27581 l -4.13989,-7.25 h 8.97042 c 20.33685,0 42.00556,3.60201 60.93566,10.12938 38.39064,13.23766 72.70519,41.12223 92.73115,75.35489 8.35529,14.28265 8.5677,13.51573 -3.74342,13.51573 -35.78765,0 -69.61675,8.3759 -103.40976,25.60368 -14.47173,7.37773 -18.28698,8.95422 -18.75,7.7476 z m -226.91124,-62.77217 c -4.27983,-8.19108 -15.00099,-23.99852 -23.11363,-34.07911 -17.20553,-21.37922 -37.71548,-38.73716 -64.39221,-54.49628 l -7.33576,-4.33356 5.33576,-3.40929 c 13.52222,-8.64001 32.61294,-16.55378 51.33577,-21.28046 30.21384,-7.62764 64.88358,-6.32083 95.37857,3.59512 9.97375,3.24314 31.84676,13.35478 40.49172,18.71887 l 3.8703,2.40146 -10.3703,6.18933 c -34.81405,20.77817 -60.34608,46.22056 -81.32473,81.03919 -3.67026,6.09159 -6.75698,11.07455 -6.85938,11.07324 -0.1024,-10e-4 -1.45965,-2.43964 -3.01611,-5.41851 z"
       id="path52"
       inkscape:connector-curvature="0" />
    <path
       style="fill:#0098b8"
       d="m -936.94222,-102.59431 c -22.25982,-39.31219 -28.86098,-82.24494 -19.26094,-125.26965 4.27317,-19.15112 10.89428,-35.88907 20.4639,-51.73207 l 5.14362,-8.51551 3.50515,6.32417 c 18.99973,34.2802 48.29591,64.199 82.87107,84.63228 l 11.11253,6.56729 -10.84813,6.48509 c -31.89561,19.06743 -58.8644,45.43568 -77.38329,75.66012 -4.0439,6.6 -7.95441,12.831728 -8.69002,13.848278 -1.21692,1.68167 -1.84014,0.96054 -6.91389,-7.999998 z m 185.21457,-114.19071 c -3.66979,-2.51288 3.53918,-46.34217 12.48295,-75.89425 6.00642,-19.84644 22.19266,-58.26332 24.54818,-58.26332 0.45963,0 10.85469,5.08574 23.10014,11.30165 36.90708,18.7344 61.38872,25.17283 103.53697,27.22921 l 14.27254,0.69635 -3.67709,6.63639 c -20.83046,37.59469 -55.5611,66.28967 -96.86798,80.0338 -20.46626,6.80979 -29.09202,8.20626 -54,8.74236 -13.18454,0.28377 -22.55926,0.0906 -23.39571,-0.48219 z m -60.28904,-18.47454 c -18.77875,-9.54158 -34.27792,-21.48444 -50.17567,-38.66278 -13.56689,-14.65973 -30.82449,-42.99595 -31.04439,-50.97353 -0.0884,-3.20543 0.47899,-3.86688 7.90481,-9.21587 8.9773,-6.46656 25.10625,-15.13246 36.72649,-19.73271 9.24127,-3.65845 27.21138,-8.4825 38.27351,-10.27445 7.93504,-1.28539 45.84702,-1.81001 47.00656,-0.65046 0.32182,0.32181 -2.07893,6.82699 -5.33498,14.45594 -15.57577,36.49413 -26.45514,75.84629 -30.30597,109.62083 -0.67412,5.9125 -1.53176,10.75 -1.90586,10.75 -0.37411,0 -5.38913,-2.39264 -11.1445,-5.31697 z m 217.24943,-125.81674 c -21.89667,-1.57329 -44.71326,-7.69362 -65.06468,-17.45296 -11.4773,-5.50384 -28,-15.27684 -28,-16.5617 0,-0.37314 2.63944,-4.23826 5.86543,-8.58914 15.41116,-20.78504 40.4736,-46.55952 61.66433,-63.41625 12.62276,-10.04111 30.63469,-22.84624 32.13594,-22.84624 0.48887,0 4.47658,5.7375 8.86158,12.75 11.95111,19.11226 21.54507,31.38006 35.44177,45.31942 13.97236,14.01525 28.70351,25.4796 45.0314,35.04518 5.99473,3.51197 10.92202,6.61141 10.94953,6.88765 0.0651,0.65406 -14.01727,9.11459 -20.44998,12.28609 -24.26514,11.96336 -58.71108,18.56995 -86.43532,16.57795 z m -312.04516,-29.16514 c 0.0995,-62.16336 32.12132,-118.20661 85.98048,-150.47931 12.98491,-7.78062 11.99739,-8.06179 12.01583,3.42117 0.065,40.47361 10.30225,78.97274 30.20911,113.60699 l 5.60404,9.75 h -11.67062 c -38.50399,0 -81.65892,11.80284 -114.40836,31.29061 l -7.75,4.61169 z m 633.67018,7.35265 c -24.4786,-13.73094 -43.63319,-32.05561 -60.45145,-57.83225 -13.82778,-21.19328 -23.30841,-49.13815 -26.18684,-77.18772 -1.24303,-12.113 -1.38747,-29.7081 -0.24965,-30.41131 1.36088,-0.84107 21.90808,1.30703 38.19824,3.99342 28.75249,4.74154 56.42535,12.64396 82.5,23.55918 6.6,2.76285 12.10033,5.11653 12.22295,5.23041 0.12263,0.11387 -4.41234,9.40671 -10.07769,20.65076 -18.04456,35.81306 -25.10611,62.49335 -26.51801,100.19162 l -0.62725,16.74791 z m -126.1897,-31.08088 c -29.79015,-2.43419 -61.48416,-14.07057 -86.49743,-31.75733 -12.14477,-8.58751 -32.63164,-29.05413 -41.00257,-40.96205 -6.33156,-9.00686 -15.96769,-25.74695 -15.97581,-27.75354 -0.005,-1.15345 13.54546,-6.99599 29.47581,-12.70939 31.42848,-11.27177 65.70602,-18.72342 97.11114,-21.11114 l 6.11115,-0.46463 0.55434,18.14258 c 1.18968,38.93649 10.34216,72.0018 29.25988,105.70763 3.11049,5.54199 5.49975,10.21909 5.30946,10.39356 -1.00175,0.91853 -15.61985,1.22733 -24.34597,0.51431 z m -331.43971,-25.5214 c -16.78505,-25.10152 -26.449,-52.97973 -29.23872,-84.34675 -1.25529,-14.11423 0.0267,-37.35301 2.17932,-39.50566 0.74051,-0.74051 8.99477,-1.08633 25.29911,-1.05994 21.29201,0.0345 25.46173,0.31133 34.7,2.30402 27.05708,5.83619 55.53047,18.80376 73.38429,33.42124 l 2.88428,2.36145 -17.75115,13.65014 c -30.49356,23.44867 -52.5574,44.74159 -73.80265,71.22398 -4.41233,5.5 -8.57419,10.60493 -9.24859,11.34428 -0.99724,1.0933 -2.56667,-0.66038 -8.40589,-9.39276 z m 172.53235,-122.30162 c -0.33531,-0.54255 -1.13281,-6.86865 -1.77221,-14.058 -3.37678,-37.96777 7.57258,-79.48305 29.74664,-112.78655 l 7.4536,-11.19466 3.73967,1.56179 c 42.38695,17.70196 75.17422,49.6438 94.05657,91.63129 2.42489,5.39207 4.24558,9.95218 4.04599,10.13358 -0.1996,0.1814 -7.64441,1.28196 -16.54403,2.44568 -42.19303,5.51721 -82.73033,16.67441 -118.96772,32.74386 -0.63187,0.2802 -1.4232,0.0656 -1.75851,-0.47699 z m 334.40736,-4.27294 c -33.29306,-13.8365 -75.1555,-24.31879 -115.5,-28.92102 -5.5,-0.6274 -10.1173,-1.25396 -10.26068,-1.39235 -1.54749,-1.49369 12.82752,-29.22997 21.54136,-41.56359 8.57466,-12.13663 28.9792,-32.56037 41.21932,-41.25809 10.72544,-7.62141 35.10861,-20.29795 37.37213,-19.42935 2.36923,0.90916 12.03679,15.24123 18.048,26.75601 14.38129,27.5481 20.66738,53.33379 20.49226,84.05977 -0.0961,16.86693 -0.87463,25.08134 -2.41239,25.45427 -0.55,0.13338 -5.275,-1.53416 -10.5,-3.70565 z m -392,-15.19677 c -3.575,-2.13359 -11.45,-6.25989 -17.5,-9.16956 -30.27117,-14.55855 -56.37439,-20.8255 -96.8168,-23.24413 l -12.81679,-0.7665 5.72372,-9.5 c 27.04593,-44.88969 67.94655,-74.01815 118.0313,-84.05914 7.57062,-1.51775 16.16462,-2.33578 28.26234,-2.69017 l 17.38377,-0.50923 -2.68392,4.37927 c -9.78338,15.96324 -20.55643,41.28131 -25.47914,59.87927 -4.91574,18.57158 -6.27235,28.22719 -6.95892,49.52972 l -0.64556,20.02972 z m 226.55229,-61.93121 c -5.52967,-9.84666 -18.34736,-28.23209 -26.31729,-37.74898 -16.15314,-19.28844 -38.62252,-37.70816 -61.54578,-50.45336 l -6.81079,-3.78675 5.75162,-3.46473 c 56.55773,-34.06997 123.31045,-34.85897 180.62924,-2.13501 4.8176,2.75043 8.55114,5.33756 8.29675,5.74917 -0.25439,0.41162 -5.254,3.63791 -11.11024,7.16954 -32.60788,19.66431 -60.00065,47.28656 -78.96285,79.62435 -3.29062,5.61177 -6.20795,10.22381 -6.48295,10.24899 -0.275,0.0252 -1.82647,-2.31628 -3.44771,-5.20322 z"
       id="path48"
       inkscape:connector-curvature="0" />
  </g>
  <path
     style="fill:#000000;stroke-width:1.70690715"
     d="m 2296.9414,831.35626 c -34.5652,-6.29469 -62.9154,-17.47228 -89.9301,-35.45668 -51.2476,-34.11688 -83.5309,-87.007 -96.2089,-157.61963 -3.6679,-20.42896 -4.1573,-79.55516 -0.8264,-99.85402 14.9578,-91.15844 60.731,-152.14996 137.8159,-183.63494 30.7833,-12.57297 56.9176,-17.24403 96.3659,-17.22216 76.8039,0.0533 139.6803,30.71634 182.2885,88.9304 5.7905,7.91098 10.5282,14.9157 10.5282,15.5654 0,1.36445 -68.2296,45.00633 -68.8985,44.06967 -0.2444,-0.34139 -3.9593,-5.61519 -8.2554,-11.71738 -9.7366,-13.83021 -28.0592,-31.60339 -41.3371,-40.09685 -23.6045,-15.09972 -46.7367,-20.55917 -81.1431,-19.15043 -35.0173,1.43327 -55.5354,8.47052 -81.3966,27.91699 -38.7894,29.16785 -58.9884,77.48239 -59.1263,141.42579 -0.067,31.15427 2.1551,47.01837 10.1045,72.12957 14.0398,44.35029 43.3187,76.93095 83.5457,92.96671 20.6232,8.22094 61.361,10.98191 85.4368,5.78963 30.0712,-6.48519 58.7808,-26.19939 79.3644,-54.49883 4.907,-6.74606 9.4861,-12.92979 10.1761,-13.74113 1.4246,-1.67601 73.2364,36.17363 73.2364,38.60012 0,4.11634 -19.6036,29.39875 -34.1382,44.02755 -31.3706,31.5745 -66.6245,51.10847 -109.242,60.53114 -20.2515,4.47742 -76.2332,5.06895 -98.3598,1.03908 z m -1089.2268,-245.55565 0.4326,-240.25519 h 178.3718 178.3718 v 38.40542 38.40541 l -135.3631,0.85345 -135.3631,0.85346 0.061,57.18138 0.061,57.18139 114.3927,0.4374 114.3925,0.43739 v 34.96759 34.96759 l -114.5337,0.43741 -114.5338,0.43738 0.1558,69.12981 0.1557,69.12973 135.2873,0.8534 135.2875,0.8534 v 37.55202 37.55189 l -178.8044,0.4374 -178.8045,0.4374 0.4326,-240.25513 z m 395.5816,239.42783 c 0,-0.48008 10.1014,-26.41388 22.4475,-57.63633 12.3461,-31.22257 27.5901,-69.8264 33.8758,-85.78597 6.2855,-15.95956 22.249,-56.28528 35.4744,-89.61264 13.2256,-33.32735 40.2892,-101.68471 60.1414,-151.90512 19.8523,-50.22041 36.8956,-92.27434 37.8738,-93.45317 1.355,-1.63277 13.8278,-2.13683 52.3503,-2.1171 27.8142,0 51.4587,0.59049 52.5431,1.28072 1.7641,1.12282 20.4297,47.44935 94.7242,235.09979 12.2657,30.98035 31.7383,80.1393 43.2724,109.24203 44.1459,111.38901 52.0588,131.70662 52.0588,133.6717 0,1.51483 -11.6142,2.02744 -45.952,2.02744 h -45.9521 l -8.8702,-22.61657 c -21.6572,-55.21949 -34.445,-87.92064 -36.5446,-93.45309 l -2.2673,-5.97418 -104.1452,-0.43741 -104.145,-0.4374 -11.1853,28.60398 c -6.1518,15.73183 -16.8138,43.19766 -23.6931,61.03473 l -12.508,32.43123 -44.7494,0.45349 c -24.6122,0.25061 -44.7495,0.0643 -44.7495,-0.41081 z m 319.1917,-194.36019 c 0,-0.7553 -25.0007,-70.16718 -56.3505,-156.45133 -7.6746,-21.12298 -15.5028,-42.86524 -17.3961,-48.31561 -1.8932,-5.4509 -3.657,-9.67549 -3.9195,-9.38799 -0.2625,0.28805 -5.1261,13.196 -10.8078,28.68618 -5.6818,15.49018 -13.3549,36.2291 -17.0511,46.08649 -3.6965,9.85739 -13.4071,35.97307 -21.5791,58.03484 -8.1721,22.06177 -18.2498,49.11199 -22.3948,60.11194 -4.1452,10.99999 -7.5366,20.4093 -7.5366,20.90966 0,0.50135 35.333,0.90993 78.5177,0.90993 43.1848,0 78.5178,-0.26137 78.5178,-0.58411 z m 684.8905,-45.07564 0.4327,-240.24719 h 41.8192 41.8193 l 0.4411,94.30662 0.4411,94.30662 h 118.6012 118.6011 l 0.4411,-94.30662 0.4411,-94.30662 h 41.8193 41.8193 l 0.4326,240.24719 0.4325,240.24718 h -42.6785 -42.6787 V 718.49289 610.94602 l -118.2032,0.43739 -118.2034,0.4374 -0.4395,107.10836 -0.4395,107.10851 h -42.6657 -42.6658 z"
     id="path29"
     inkscape:connector-curvature="0" />
</svg>
