<?xml version="1.0" encoding="UTF-8" standalone="no"?>
<!-- Created with Inkscape (http://www.inkscape.org/) -->

<svg
   xmlns:dc="http://purl.org/dc/elements/1.1/"
   xmlns:cc="http://creativecommons.org/ns#"
   xmlns:rdf="http://www.w3.org/1999/02/22-rdf-syntax-ns#"
   xmlns:svg="http://www.w3.org/2000/svg"
   xmlns="http://www.w3.org/2000/svg"
   xmlns:sodipodi="http://sodipodi.sourceforge.net/DTD/sodipodi-0.dtd"
   xmlns:inkscape="http://www.inkscape.org/namespaces/inkscape"
   version="1.1"
   id="svg2"
   xml:space="preserve"
   width="257.43945"
   height="261.98254"
   viewBox="0 0 257.43946 261.98255"
   sodipodi:docname="logoSSISemFundoComCinza.svg"
   inkscape:version="0.92.4 (5da689c313, 2019-01-14)"><metadata
     id="metadata8"><rdf:RDF><cc:Work
         rdf:about=""><dc:format>image/svg+xml</dc:format><dc:type
           rdf:resource="http://purl.org/dc/dcmitype/StillImage" /><dc:title></dc:title></cc:Work></rdf:RDF></metadata><defs
     id="defs6"><clipPath
       clipPathUnits="userSpaceOnUse"
       id="clipPath20"><path
         d="M 0,200 H 200 V 0 H 0 Z"
         id="path18"
         inkscape:connector-curvature="0" /></clipPath><clipPath
       clipPathUnits="userSpaceOnUse"
       id="clipPath28"><path
         d="m -45,238.509 h 319.944 v -413 H -45 Z"
         id="path26"
         inkscape:connector-curvature="0" /></clipPath><clipPath
       clipPathUnits="userSpaceOnUse"
       id="clipPath46"><path
         d="M 0,200 H 200 V 0 H 0 Z"
         id="path44"
         inkscape:connector-curvature="0" /></clipPath><clipPath
       clipPathUnits="userSpaceOnUse"
       id="clipPath46-2"><path
         d="M 0,200 H 200 V 0 H 0 Z"
         id="path44-5"
         inkscape:connector-curvature="0" /></clipPath></defs><sodipodi:namedview
     pagecolor="#ffffff"
     bordercolor="#666666"
     borderopacity="1"
     objecttolerance="10"
     gridtolerance="10"
     guidetolerance="10"
     inkscape:pageopacity="0"
     inkscape:pageshadow="2"
     inkscape:window-width="1920"
     inkscape:window-height="1017"
     id="namedview4"
     showgrid="false"
     showborder="true"
     inkscape:pagecheckerboard="true"
     inkscape:zoom="1.7700001"
     inkscape:cx="122.79167"
     inkscape:cy="159.57217"
     inkscape:window-x="-8"
     inkscape:window-y="-8"
     inkscape:window-maximized="1"
     inkscape:current-layer="g10"
     fit-margin-top="0"
     fit-margin-left="0"
     fit-margin-right="0"
     fit-margin-bottom="0" /><g
     id="g10"
     inkscape:groupmode="layer"
     inkscape:label="LogoFacebook"
     transform="matrix(1.3333333,0,0,-1.3333333,-1.9189041,263.86929)"><g
       id="g111"
       transform="matrix(0.68208885,0,0,0.67707229,-219.9438,14.278275)"><path
         d="m 472.22619,101.35874 70.04991,11.41239 43.88124,37.24793 c 9.04276,7.6809 9.53722,11.72248 9.16847,12.34684 -0.36875,0.51751 -4.52347,2.48906 -17.11335,0.41694 L 472.22619,145.45369 460.00506,143.48213 389.96144,132.06765 346.07391,94.823908 c -9.04485,-7.682989 -9.53512,-11.728762 -9.16637,-12.351027 0.24304,-0.517507 4.52138,-2.486967 17.11125,-0.412749 l 105.98627,17.327056 z m -115.88595,25.21118 c -19.92506,-3.31875 -27.5012,1.34929 -30.31501,5.70724 -2.68811,4.46062 -3.05267,12.34475 11.37048,24.59101 l 124.31692,105.51696 c 0.61388,0.41484 1.34719,0.82968 2.07841,1.14186 1.46871,0.51542 3.18046,0.51542 4.64289,0 1.47081,-0.5196 2.6923,-1.55461 3.30199,-2.80124 0.36665,-0.72493 0.49027,-1.34929 0.49027,-2.07422 V 156.03639 l 103.66482,16.91221 c 20.04659,3.214 27.5012,-1.34928 30.31292,-5.70933 2.69229,-4.45643 2.93324,-12.34265 -11.48991,-24.58682 l -31.05042,-26.35305 12.22741,1.97155 c 20.04659,3.21399 27.5012,-1.34929 30.31292,-5.70724 2.69229,-4.46062 2.93324,-12.24208 -11.48991,-24.593103 L 470.39292,-17.546345 c -0.48818,-0.412748 -1.22149,-0.827592 -1.95899,-1.141867 -0.73121,-0.207422 -1.58185,-0.310086 -2.31935,-0.310086 -0.85483,0 -1.58814,0.102664 -2.32354,0.310086 -1.46453,0.62436 -2.68601,1.556711 -3.29571,2.906 -0.37084,0.622266 -0.49027,1.246626 -0.49027,1.971555 V 88.804484 L 356.34024,71.892272 c -20.04658,-3.220276 -27.5012,1.347194 -30.31501,5.703053 -2.68811,4.464807 -3.05267,12.348932 11.37048,24.593105 l 31.17194,26.35095 z m -19.4327,10.58061 c 0.36246,-0.51751 4.52138,-2.48487 17.11125,-0.41275 l 29.95046,4.87756 76.03581,64.53542 v 40.04918 L 346.07391,149.50156 c -9.04485,-7.6809 -9.53512,-11.72457 -9.16637,-12.35103 M 548.25991,103.22554 472.22619,38.690113 V -1.3590617 L 586.15734,95.33932 c 9.04276,7.78355 9.53722,11.72457 9.16847,12.34893 -0.36875,0.5196 -4.52347,2.48906 -17.11335,0.41484 z M 472.22619,90.773944 V 53.316495 l 54.63994,46.380778 z m -12.22113,63.290896 v 37.45535 l -54.64622,-46.37868 z"
         style="fill:#b3b3b3;fill-opacity:1;fill-rule:nonzero;stroke:none;stroke-width:2.09517002"
         id="path50-3"
         inkscape:connector-curvature="0" /><path
         d="M 466.98009,154.06547 V 80.851852"
         style="fill:#999999;fill-opacity:1;fill-rule:nonzero;stroke:#b3b3b3;stroke-width:10.47585011;stroke-linecap:butt;stroke-linejoin:miter;stroke-miterlimit:10;stroke-dasharray:none;stroke-opacity:1"
         id="path54-3"
         inkscape:connector-curvature="0" /></g><g
       id="g40"
       transform="matrix(1.4185815,0,0,1.4185815,-41.764405,-39.057312)"><g
         id="g42"
         clip-path="url(#clipPath46)"><g
           id="g48"
           transform="translate(101.5039,89.4541)"><path
             d="m 0,0 33.434,5.447 20.944,17.778 c 4.316,3.666 4.552,5.595 4.376,5.893 -0.176,0.247 -2.159,1.188 -8.168,0.199 L 0,21.046 -5.833,20.105 -39.264,14.657 -60.211,-3.119 c -4.317,-3.667 -4.551,-5.598 -4.375,-5.895 0.116,-0.247 2.158,-1.187 8.167,-0.197 l 50.586,8.27 z m -55.311,12.033 c -9.51,-1.584 -13.126,0.644 -14.469,2.724 -1.283,2.129 -1.457,5.892 5.427,11.737 l 59.335,50.362 c 0.293,0.198 0.643,0.396 0.992,0.545 0.701,0.246 1.518,0.246 2.216,0 0.702,-0.248 1.285,-0.742 1.576,-1.337 C -0.059,75.718 0,75.42 0,75.074 V 26.097 l 49.478,8.072 c 9.568,1.534 13.126,-0.644 14.468,-2.725 1.285,-2.127 1.4,-5.891 -5.484,-11.735 L 43.642,7.131 49.478,8.072 C 59.046,9.606 62.604,7.428 63.946,5.348 65.231,3.219 65.346,-0.495 58.462,-6.39 L -0.875,-56.752 c -0.233,-0.197 -0.583,-0.395 -0.935,-0.545 -0.349,-0.099 -0.755,-0.148 -1.107,-0.148 -0.408,0 -0.758,0.049 -1.109,0.148 -0.699,0.298 -1.282,0.743 -1.573,1.387 -0.177,0.297 -0.234,0.595 -0.234,0.941 v 48.977 l -49.478,-8.072 c -9.568,-1.537 -13.126,0.643 -14.469,2.722 -1.283,2.131 -1.457,5.894 5.427,11.738 l 14.878,12.577 z m -9.275,5.05 c 0.173,-0.247 2.158,-1.186 8.167,-0.197 l 14.295,2.328 36.291,30.802 V 69.131 L -60.211,22.978 c -4.317,-3.666 -4.551,-5.596 -4.375,-5.895 M 36.29,0.891 0,-29.911 v -19.115 l 54.378,46.153 c 4.316,3.715 4.552,5.596 4.376,5.894 -0.176,0.248 -2.159,1.188 -8.168,0.198 z M 0,-5.052 V -22.93 L 26.079,-0.793 Z M -5.833,25.156 V 43.033 L -31.915,20.897 Z"
             style="fill:#1C043C;fill-opacity:1;fill-rule:nonzero;stroke:none"
             id="path50"
             inkscape:connector-curvature="0" /></g><g
           id="g52"
           transform="translate(99,114.6104)"><path
             d="M 0,0 V -34.944"
             style="fill:#ffffff;fill-opacity:1;fill-rule:nonzero;stroke:#1C043C;stroke-width:5;stroke-linecap:butt;stroke-linejoin:miter;stroke-miterlimit:10;stroke-dasharray:none;stroke-opacity:1"
             id="path54"
             inkscape:connector-curvature="0" /></g></g></g></g></svg>