<?xml version="1.0" encoding="UTF-8" standalone="no"?>
<!-- Created with Inkscape (http://www.inkscape.org/) -->

<svg
   xmlns:dc="http://purl.org/dc/elements/1.1/"
   xmlns:cc="http://creativecommons.org/ns#"
   xmlns:rdf="http://www.w3.org/1999/02/22-rdf-syntax-ns#"
   xmlns:svg="http://www.w3.org/2000/svg"
   xmlns="http://www.w3.org/2000/svg"
   xmlns:sodipodi="http://sodipodi.sourceforge.net/DTD/sodipodi-0.dtd"
   xmlns:inkscape="http://www.inkscape.org/namespaces/inkscape"
   version="1.1"
   id="svg2"
   width="240.14243"
   height="39.10194"
   viewBox="0 0 240.14243 39.10194"
   sodipodi:docname="logoSiteSI.svg"
   inkscape:version="0.92.4 (5da689c313, 2019-01-14)">
  <metadata
     id="metadata8">
    <rdf:RDF>
      <cc:Work
         rdf:about="">
        <dc:format>image/svg+xml</dc:format>
        <dc:type
           rdf:resource="http://purl.org/dc/dcmitype/StillImage" />
        <dc:title></dc:title>
      </cc:Work>
    </rdf:RDF>
  </metadata>
  <defs
     id="defs6" />
  <sodipodi:namedview
     pagecolor="#ffffff"
     bordercolor="#666666"
     borderopacity="1"
     objecttolerance="10"
     gridtolerance="10"
     guidetolerance="10"
     inkscape:pageopacity="0"
     inkscape:pageshadow="2"
     inkscape:window-width="1920"
     inkscape:window-height="1017"
     id="namedview4"
     showgrid="false"
     inkscape:pagecheckerboard="true"
     showborder="true"
     inkscape:zoom="4.3963396"
     inkscape:cx="100.18255"
     inkscape:cy="58.49042"
     inkscape:window-x="-8"
     inkscape:window-y="-8"
     inkscape:window-maximized="1"
     inkscape:current-layer="g56"
     fit-margin-top="0"
     fit-margin-left="0"
     fit-margin-right="0"
     fit-margin-bottom="0" />
  <g
     id="g56"
     transform="translate(-621.03739,-610.33152)">
    <g
       id="g96"
       transform="matrix(0.19047601,0,0,0.19047601,666.05288,721.91413)">
      <path
         sodipodi:nodetypes="cccscsssssssssscsssssssccccccccccc"
         inkscape:connector-curvature="0"
         id="path60"
         d="m -172.68348,-391.29908 c -18.06508,-3.55739 -23.11481,-4.97614 -32.02594,-8.9978 -10.33731,-4.66533 -29.62348,-16.93349 -31.56903,-20.08144 -0.57564,-0.93141 3.59433,-7.3041 9.2666,-14.16153 l 10.31322,-12.46806 8.61965,6.43432 c 18.07059,13.48917 35.43263,19.3392 53.88206,18.15518 23.62716,-1.5163 35.65434,-16.64918 25.92034,-32.61359 -4.43656,-7.27625 -12.09721,-10.83816 -38.61739,-17.95563 -25.83338,-6.93316 -40.206,-13.35491 -48.99598,-21.89163 -10.5936,-10.28837 -12.01873,-14.45143 -12.01873,-35.10895 0,-21.82392 2.31931,-27.63741 15.89578,-39.84383 11.30812,-10.16697 23.64047,-14.71772 42.79485,-15.79167 19.69455,-1.10425 38.98399,2.72822 56.78023,11.28123 20.079808,9.6505 19.396218,7.78576 8.51463,23.22679 l -9.53141,13.52512 -6.38533,-4.22562 c -14.96736,-9.90493 -39.02178,-15.42499 -53.59613,-12.29935 -16.20868,3.47614 -24.867,16.15238 -19.61623,28.71922 3.26808,7.82162 12.99709,12.89155 37.54878,19.56722 37.91127,10.30818 51.44602,18.06454 59.706028,34.2157 4.41273,8.62839 4.99551,11.46495 4.99551,24.31459 0,12.50518 -0.65179,15.87888 -4.64433,24.03934 -8.054318,16.46245 -24.832288,27.78626 -46.277598,31.23376 -10.66195,1.71401 -24.31792,2.03452 -30.95958,0.72663 z m 99.572688,-95.17837 v -94.55223 h 16.73491 16.73491 v 94.55223 94.55222 h -16.73491 -16.73491 z"
         style="fill:#6fbed6;stroke-width:1.67349076" />
      <path
         inkscape:connector-curvature="0"
         id="path58"
         d="m 895.32411,-381.38322 c -4.4166,-1.14437 -3.0227,-7.88568 1.7714,-8.56653 4.6317,-0.65782 5.0177,-3.64897 0.4709,-3.64897 -1.9396,0 -2.9709,-0.86032 -2.5076,-2.09186 0.4327,-1.15053 -1.409,-3.33763 -4.0927,-4.86024 -14.2742,-8.09839 -15.6553,-27.78349 -2.7925,-39.80051 5.6958,-5.32135 21.2758,-6.82798 29.0477,-2.809 7.0536,3.64756 7.7523,5.32714 4.2293,10.16695 -3.1054,4.26603 -7.8847,5.53461 -9.7121,2.57787 -1.7557,-2.84075 -11.8303,-1.89679 -14.802,1.38689 -3.7568,4.15119 -3.4885,11.28212 0.5774,15.34801 4.1179,4.118 8.1857,4.23134 15.0151,0.41838 5.1596,-2.8807 5.2996,-2.86286 8.5581,1.09008 4.3458,5.27208 3.6086,6.97571 -4.8985,11.32005 -3.9034,1.99338 -6.3133,4.10878 -5.3552,4.70087 3.284,2.02965 1.8027,8.95574 -2.6675,12.47199 -4.3339,3.40901 -6.8263,3.85464 -12.8418,2.29602 z M 35.621908,-401.5478 c -4.9565,-2.53115 -9.2353,-5.36083 -9.5085,-6.28817 -0.2731,-0.92733 1.4569,-3.7928 3.8445,-6.3677 4.1977,-4.5271 4.4811,-4.58987 8.584,-1.90157 6.4314,4.21401 13.8286,5.9057 17.4199,3.98372 5.8586,-3.13546 3.3745,-6.22637 -8.063,-10.03252 -14.5851,-4.85363 -18.9266,-9.17468 -18.9266,-18.83741 0,-9.0544 4.355,-15.16842 12.7865,-17.95106 6.9847,-2.30517 18.4925,-1.14117 25.7326,2.6028 5.7414,2.969 6.2259,5.62071 1.9842,10.85903 -2.9519,3.64538 -3.1566,3.66337 -11.0796,0.97345 -9.1455,-3.10498 -14.3623,-2.22626 -14.3623,2.41919 0,2.46638 2.5621,3.92636 11.6286,6.6265 13.9434,4.15252 18.4942,8.85832 18.4942,19.12402 0,17.4337 -19.0441,24.74292 -38.5345,14.78972 z m 79.535002,2.57811 c -2.7612,-0.96784 -6.3104,-2.8825 -7.887,-4.25478 -2.5942,-2.25802 -2.6298,-2.95264 -0.3754,-7.31233 2.7835,-5.38269 4.6814,-5.78914 10.7727,-2.30706 4.655,2.66105 11.7144,3.3023 11.7144,1.06411 0,-0.79538 -3.4896,-2.77882 -7.7546,-4.40766 -4.2651,-1.62884 -9.16,-4.36691 -10.8777,-6.08458 -3.1009,-3.10088 -4.0765,-10.40555 -2.0835,-15.59926 2.5547,-6.65746 20.2776,-10.02108 29.8413,-5.66357 4.8486,2.20917 5.0273,2.91561 2.2695,8.96846 -1.5061,3.30545 -2.8349,4.13257 -5.4389,3.38544 -15.4534,-4.43379 -17.0427,-1.96638 -2.7907,4.33264 8.3568,3.69347 10.0385,5.17326 11.0349,9.70989 3.2564,14.82589 -11.3417,24.15664 -28.425,18.1687 z m 79.1028,-1.42136 c -7.7693,-4.10213 -11.3282,-10.75321 -11.3201,-21.15553 0.012,-14.85464 9.2413,-23.93035 24.3364,-23.93035 14.0615,0 22.5151,8.42233 22.5151,22.43196 0,7.20765 -0.2792,7.69087 -4.4431,7.69087 -4.1984,0 -4.2906,0.16856 -1.6735,3.06038 4.6006,5.08362 3.3493,8.55457 -4.3428,12.04611 -9.0203,4.09448 -17.1334,4.04807 -25.072,-0.14342 z m 21.4052,-12.39959 c 2.9673,-2.24439 2.3256,-2.46162 -7.4158,-2.51024 -9.2928,-0.0464 -10.3963,0.2696 -8.5809,2.45702 2.6638,3.20965 11.7834,3.23999 15.9967,0.0532 z m -0.9353,-15.98726 c 0,-3.35292 -8.0427,-5.66979 -12.5511,-3.6156 -6.6696,3.03886 -4.8735,5.32497 4.1837,5.32497 4.6021,0 8.3674,-0.76922 8.3674,-1.70937 z m 110.0741,29.31808 c -5.7148,-3.21978 -7.9911,-7.39457 -7.9911,-14.65579 0,-8.73084 6.0367,-13.40751 18.4671,-14.30664 8.3066,-0.60085 9.7212,-1.12807 8.1396,-3.03374 -2.4197,-2.91559 -7.8229,-2.86073 -13.2188,0.13421 -3.635,2.01758 -4.5678,1.97578 -7.1123,-0.31866 -7.5936,-6.84731 0.9789,-13.83649 16.9711,-13.83649 6.48,0 9.4183,0.94706 13.4417,4.33249 l 5.1488,4.33249 v 19.17349 19.17348 l -7.1123,-0.14459 c -3.9118,-0.0795 -10.5012,0.27472 -14.643,0.78716 -5.1529,0.63752 -8.9706,0.12049 -12.0908,-1.63746 z m 18.45,-12.88199 c 3.4495,-3.44945 2.2392,-4.68578 -4.587,-4.68578 -6.6336,0 -9.5473,1.91734 -7.6295,5.02047 1.438,2.32671 9.7838,2.09806 12.2165,-0.33469 z m 32.0333,13.89598 c -12,-3.88433 -13.9116,-7.02269 -8.4024,-13.79427 3.1498,-3.8716 3.3142,-3.89207 8.2072,-1.02213 5.4184,3.17809 11.2558,3.82511 12.7466,1.41286 0.5153,-0.83367 -2.5784,-2.7135 -6.8748,-4.17744 -10.9042,-3.71543 -13.9463,-6.92719 -13.9463,-14.72414 0,-10.1912 5.5882,-14.72598 18.1469,-14.72598 12.7891,0 18.6035,3.85369 15.319,10.15307 -1.1676,2.23938 -2.3242,4.31207 -2.5701,4.60596 -0.2459,0.2939 -3.5569,-0.39735 -7.3577,-1.53609 -5.0072,-1.5002 -7.4154,-1.5657 -8.7433,-0.23782 -1.3278,1.32788 0.062,2.34293 5.0475,3.68527 15.4492,4.16005 21.0681,16.81345 11.6489,26.23262 -4.7079,4.70798 -15.5019,6.62683 -23.2215,4.12809 z m 59.1792,-1.69527 c -11.1539,-6.96352 -14.794,-19.79742 -9.2013,-32.44071 4.4019,-9.95117 11.0102,-13.53367 23.1129,-12.53002 l 8.853,0.73416 0.4959,-8.49871 0.4958,-8.49871 6.2756,-0.51939 6.2756,-0.5194 v 31.98008 31.98007 l -7.9491,-0.0368 c -4.3719,-0.0203 -11.3379,0.35126 -15.4797,0.8257 -5.7056,0.65351 -8.8269,0.0534 -12.8787,-2.47618 z m 20.4924,-14.26808 c 3.7164,-5.67203 2.4753,-12.50737 -3.0117,-16.58595 l -4.6021,-3.42086 -4.6021,3.4216 c -6.2976,4.68221 -7.2536,14.17939 -1.811,17.99151 5.5086,3.85835 10.9337,3.31444 14.0269,-1.4063 z m 36.1003,14.60196 c -8.921,-4.39482 -12.2074,-11.11917 -11.5077,-23.5463 0.5166,-9.17491 1.2656,-11.1835 5.8977,-15.81564 4.6313,-4.63125 6.6733,-5.39305 16.0581,-5.99063 10.333,-0.65796 10.9973,-0.45993 17.0431,5.08061 5.5449,5.08148 6.3842,6.88957 7.0771,15.24516 l 0.7862,9.47992 h -5.6001 c -5.5457,0 -5.5639,0.0253 -1.8807,2.60513 5.9798,4.18839 4.7235,8.81715 -3.393,12.50136 -8.7322,3.96371 -17.0258,4.1129 -24.4807,0.44039 z m 20.8139,-12.98342 c 2.9673,-2.24439 2.3256,-2.46162 -7.4158,-2.51024 -9.2928,-0.0464 -10.3963,0.2696 -8.5809,2.45702 2.6638,3.20965 11.7834,3.23999 15.9967,0.0532 z m -0.9353,-15.89251 c 0,-1.93916 -5.5076,-5.07934 -8.9088,-5.07934 -1.3392,0 -4.2127,1.48108 -6.3856,3.2913 l -3.9507,3.2913 9.6225,0.0557 c 5.2924,0.0306 9.6226,-0.6709 9.6226,-1.55894 z m 162.4475,28.80625 c -7.7523,-3.95305 -12.0329,-10.25293 -13.0405,-19.19243 -0.9909,-8.79145 1.9797,-15.57637 9.6429,-22.02453 4.2424,-3.56976 6.9228,-4.38307 14.445,-4.38307 11.3142,0 17.368,3.29061 22.345,12.14593 9.1193,16.22568 -2.956,36.3801 -21.7969,36.3801 -3.2214,0 -8.4394,-1.31671 -11.5955,-2.926 z m 18.6125,-13.38533 c 3.8543,-4.48777 4.7594,-8.40498 3.007,-13.0141 -2.8961,-7.6175 -14.1771,-8.69658 -18.7842,-1.7968 -2.1908,3.28101 -1.3532,11.53864 1.4889,14.67913 3.5102,3.87871 11.0108,3.94788 14.2883,0.1317 z m 150.2912,15.20525 c -4.6859,-1.84472 -9.8636,-7.65937 -10.86,-12.19608 -2.3747,-10.81177 6.3396,-18.48896 20.9866,-18.48896 4.7615,0 6.6746,-0.64564 6.1983,-2.09187 -1.0721,-3.25537 -7.1892,-3.41184 -13.1372,-0.33603 -5.2685,2.72447 -5.4835,2.69509 -8.4435,-1.15357 -4.1043,-5.33668 -3.9474,-5.99912 2.3272,-9.8248 8.151,-4.96979 23.006,-4.61026 29.1927,0.70653 4.5706,3.92785 4.7104,4.55334 5.26,23.51827 l 0.5646,19.4831 -8.0953,-0.0633 c -4.4524,-0.0348 -11.1076,0.27376 -14.7892,0.68579 -3.6817,0.41203 -7.8236,0.30446 -9.2042,-0.23906 z m 16.0954,-15.20525 c 2.8097,-2.79257 2.6495,-2.95335 -3.448,-3.46115 -6.6832,-0.55659 -10.4715,1.46757 -8.5538,4.57045 1.7316,2.80176 8.7163,2.15618 12.0018,-1.1093 z m 76.1308,14.05683 c -7.4575,-4.27443 -10.5917,-14.23042 -6.7435,-21.42086 2.3779,-4.44309 11.4435,-8.11576 20.0329,-8.11576 4.7615,0 6.6745,-0.64564 6.1983,-2.09187 -1.0651,-3.23402 -7.4062,-3.44893 -13.4062,-0.45433 -5.2029,2.59677 -5.551,2.5591 -8.3576,-0.90446 -4.0326,-4.97651 -3.7377,-6.14618 2.5102,-9.95561 8.1511,-4.96979 23.0061,-4.61026 29.1928,0.70653 4.5705,3.92785 4.7104,4.55334 5.26,23.51827 l 0.5646,19.4831 -8.0953,-0.0435 c -4.4524,-0.0239 -11.4841,0.31972 -15.626,0.76371 -4.7047,0.50434 -9.0316,-0.0531 -11.5302,-1.48516 z m 17.2505,-12.14402 c 1.4559,-0.55867 2.6471,-2.06482 2.6471,-3.34698 0,-2.73475 -10.914,-3.30667 -12.5511,-0.6577 -2.4783,4.00987 3.5444,6.44512 9.904,4.00468 z m 36.2359,11.47252 c -7.7524,-3.95305 -12.0329,-10.25293 -13.0405,-19.19243 -0.9909,-8.79145 1.9797,-15.57637 9.6429,-22.02453 4.31952,-3.63468 6.87952,-4.38307 14.99312,-4.38307 8.11347,0 10.67347,0.74839 14.99317,4.38307 7.6631,6.44816 10.6337,13.23308 9.6429,22.02453 -1.4447,12.81718 -11.8046,22.11843 -24.63607,22.11843 -3.2215,0 -8.4394,-1.31671 -11.59552,-2.926 z m 18.61239,-13.38533 c 4.1647,-4.84914 4.8029,-8.74816 2.2425,-13.6996 -5.9938,-11.5907 -22.08249,-4.77378 -19.49627,8.26075 0.8909,4.4904 5.6342,8.36746 10.2369,8.36746 2.47587,0 5.63357,-1.31788 7.01687,-2.92861 z m -923.359692,12.45835 c -0.4611,-1.20158 -0.6258,-11.55631 -0.3659,-23.0105 l 0.4725,-20.8258 h 6.694002 6.6939 l 0.4656,23.01049 0.4656,23.0105 h -6.7937 c -4.045102,0 -7.132902,-0.88387 -7.632002,-2.18469 z m 75.108402,-1.83714 c -4.2752,-3.6774 -4.7283,-5.18225 -5.291,-17.57166 -0.4621,-10.17698 -1.1961,-13.54981 -2.9484,-13.54981 -3.124,0 -3.0873,-9.44985 0.043,-11.21291 1.3071,-0.73605 2.625,-3.97402 2.9286,-7.19549 0.5303,-5.62575 0.8166,-5.85722 7.2461,-5.85722 6.5272,0 6.7069,0.15629 7.2133,6.27559 0.4727,5.71079 0.9622,6.27559 5.4389,6.27559 4.5065,0 4.9194,0.49159 4.9194,5.85722 0,5.39235 -0.3984,5.85722 -5.0205,5.85722 h -5.0204 v 10.77892 c 0,10.74458 1.9545,14.71175 5.501,11.16534 2.731,-2.73109 3.8424,-2.33945 6.989,2.46286 2.6681,4.07214 2.6642,4.51284 -0.067,7.53071 -4.3259,4.78002 -15.9285,4.34816 -21.9326,-0.81636 z m 78.1226,-19.21204 v -23.23389 l 16.3166,-0.0989 c 10.9263,-0.0662 17.4499,0.63897 19.7474,2.13472 2.8654,1.8654 4.1069,1.85934 7.5308,-0.0368 4.9583,-2.74591 17.2681,-3.07204 21.923,-0.58082 5.6759,3.03763 8.1158,11.81438 8.1158,29.19386 v 16.04813 l -7.1123,-0.51459 -7.1124,-0.5146 -0.4808,-15.45434 c -0.4213,-13.5415 -0.9013,-15.67935 -3.8776,-17.27221 -2.6083,-1.39596 -4.3266,-1.20861 -7.403,0.80714 -3.6475,2.38991 -4.0496,3.93687 -4.4899,17.27221 l -0.4836,14.64719 h -6.6939 -6.694 l -0.4633,-15.06141 c -0.4853,-15.77975 -2.5242,-20.11916 -8.4852,-18.05961 -5.5405,1.91429 -6.9497,5.98027 -6.9497,20.05295 v 13.90482 h -6.6939 -6.694 z m 313.6839,21.07776 c -0.4551,-1.18585 -0.6197,-14.55286 -0.3659,-29.70446 l 0.4615,-27.54835 7.1124,-0.5146 7.1123,-0.51459 v 30.21905 30.21906 h -6.7465 c -3.9606,0 -7.0881,-0.89033 -7.5738,-2.15611 z m 26.0347,-21.13416 v -23.29027 l 16.9421,-0.0602 c 16.4669,-0.0585 17.0771,0.0748 21.7554,4.75314 4.7227,4.72271 4.8133,5.16226 4.8133,23.35046 v 18.53712 h -6.694 -6.6939 v -14.22467 c 0,-11.93897 -0.5318,-14.75639 -3.3091,-17.5337 -3.5584,-3.55846 -7.7833,-3.05432 -11.334,1.3525 -1.2973,1.61013 -2.0918,7.87752 -2.0918,16.50105 v 13.90482 h -6.694 -6.694 z m 55.2252,5.81484 c 0,-14.58912 -0.4374,-17.66787 -2.5102,-17.66787 -1.7532,0 -2.5102,-1.76647 -2.5102,-5.85722 0,-3.8541 0.7869,-5.85722 2.301,-5.85722 1.2656,0 2.7482,-2.23568 3.2947,-4.96818 2.4504,-12.25226 18.3856,-17.66914 26.9079,-9.14686 2.3486,2.34863 2.3562,3.11506 0.074,7.5282 -2.6216,5.06963 -4.8389,6.15176 -6.6386,3.23986 -1.5979,-2.58552 -5.8572,-1.97705 -5.8572,0.83674 0,1.67349 1.6735,2.51024 5.0205,2.51024 4.622,0 5.0204,0.46486 5.0204,5.85722 0,5.37701 -0.4068,5.85722 -4.9619,5.85722 h -4.9619 l -0.4769,17.15328 -0.4769,17.15327 -7.1124,0.5146 -7.1123,0.5146 z m 85.3481,-5.95344 v -23.42887 h 6.6939 c 3.6817,0 6.694,0.77957 6.694,1.73237 0,1.19417 1.0056,1.19417 3.2369,0 5.6655,-3.03209 10.0001,-2.07941 11.1363,2.44761 1.4009,5.58147 -0.1825,9.20795 -4.0204,9.20795 -6.3929,0 -9.467,6.1599 -10.107,20.25243 l -0.6002,13.21738 h -6.5168 -6.5167 z m 33.8403,0.51694 0.4662,-23.10906 16.6633,-0.3639 c 13.1538,-0.28726 17.2737,0.18842 19.5611,2.25851 2.6319,2.38184 3.2484,2.37684 6.7195,-0.0545 2.2288,-1.56105 7.2082,-2.67689 11.9457,-2.67689 6.7476,0 8.9524,0.82867 13.0155,4.89174 4.8179,4.81784 4.8918,5.1718 4.8918,23.42888 v 18.53712 h -6.694 -6.694 l -0.026,-14.64304 c -0.027,-15.27499 -0.8144,-18.24904 -4.9948,-18.85778 -9.3148,-1.35644 -11.7145,2.61675 -11.7145,19.39569 v 14.10513 h -6.6939 -6.694 v -14.94188 c 0,-11.35221 -0.6318,-15.57367 -2.6298,-17.57165 -3.343,-3.34305 -4.5628,-3.30195 -8.8698,0.29883 -2.9707,2.4836 -3.571,5.09013 -3.9508,17.15328 l -0.4477,14.22467 -7.1602,0.51695 -7.1603,0.51692 0.4663,-23.10905 z M 85.153608,-449.78019 c -1.4463,-1.44638 -2.6297,-4.02833 -2.6297,-5.73768 0,-3.68735 4.2789,-8.36746 7.650202,-8.36746 2.7294,0 9.0847,5.85357 9.0847,8.36746 0,2.51388 -6.3553,8.36745 -9.0847,8.36745 -1.3149,0 -3.574102,-1.1834 -5.020502,-2.62977 z m 847.503602,-0.8811 c 0,-3.84809 5.6854,-9.87706 9.3142,-9.87706 1.4411,0 4.1577,0.82284 6.0369,1.82853 2.4708,1.32237 3.9227,1.32237 5.2451,0 1.0057,-1.00569 3.5606,-1.82853 5.6776,-1.82853 3.1246,0 3.849,0.90629 3.849,4.81557 0,7.01585 -2.7683,8.35187 -17.1884,8.29531 -11.579,-0.0454 -12.9344,-0.38429 -12.9344,-3.23382 z m -841.3475,-73.45136 c -4.797402,-2.92501 -5.438902,-4.17665 -5.438902,-10.61207 0,-10.20192 3.894702,-13.33502 17.666402,-14.21194 11.2528,-0.71652 12.5276,-1.66001 8.1532,-6.03438 -3.3322,-3.33222 -10.6157,-3.38005 -15.298,-0.10046 -3.3211,2.32617 -3.8172,2.23508 -6.1772,-1.13427 -2.367602,-3.38028 -2.292002,-3.85553 0.978,-6.14591 4.7835,-3.35052 18.6259,-4.50068 24.564,-2.04103 6.8637,2.84301 8.6039,8.12527 8.6039,26.11579 v 15.81942 h -5.0204 c -2.7613,0 -5.0205,-0.70842 -5.0205,-1.57425 0,-0.86584 -2.071,-0.49394 -4.6021,0.82643 -6.315,3.29423 -11.9749,3.01526 -18.4084,-0.90733 z m 19.9501,-9.48191 c 5.4979,-4.97556 3.8057,-7.27134 -5.3596,-7.27134 -8.6849,0 -11.4282,2.20165 -9.3832,7.53071 1.3069,3.40579 10.8789,3.23739 14.7428,-0.25937 z m 33.3022,9.87934 c -8.7125,-4.44259 -12.4946,-10.67368 -12.3487,-20.34458 0.1359,-9.0062 2.8199,-14.02692 10.0457,-18.79125 6.0394,-3.98211 19.2352,-4.10815 25.7731,-0.24616 5.71,3.37301 5.8678,4.0659 1.7699,7.77439 -2.7443,2.48357 -3.7149,2.5341 -8.6684,0.45133 -6.5006,-2.73329 -14.084,-0.90581 -16.7259,4.03065 -3.0946,5.78224 -1.9081,12.86665 2.7712,16.54744 5.2857,4.15766 10.2338,4.41195 15.4026,0.79155 3.5267,-2.47016 4.0724,-2.45013 7.0663,0.25937 4.5667,4.1328 4.1749,5.01556 -3.9777,8.9622 -8.7997,4.25982 -13.6097,4.38858 -21.1081,0.56506 z m 94.0149,-0.39743 c -4.7974,-2.92501 -5.4389,-4.17665 -5.4389,-10.61207 0,-10.20192 3.8947,-13.33502 17.6664,-14.21194 11.2528,-0.71652 12.5276,-1.66001 8.1532,-6.03438 -3.3322,-3.33222 -10.6158,-3.38005 -15.298,-0.10046 -3.3211,2.32617 -3.8172,2.23508 -6.1772,-1.13427 -2.3676,-3.38028 -2.292,-3.85553 0.978,-6.14591 4.7835,-3.35052 18.6259,-4.50068 24.564,-2.04103 6.8637,2.84301 8.6039,8.12527 8.6039,26.11579 v 15.81942 h -5.0205 c -2.7612,0 -5.0204,-0.70842 -5.0204,-1.57425 0,-0.86584 -2.071,-0.49394 -4.6021,0.82643 -6.315,3.29423 -11.9749,3.01526 -18.4084,-0.90733 z m 19.9501,-9.48191 c 5.4979,-4.97556 3.8057,-7.27134 -5.3596,-7.27134 -8.6849,0 -11.4282,2.20165 -9.3832,7.53071 1.3069,3.40579 10.8789,3.23739 14.7428,-0.25937 z m 69.0213,10.43183 c -8.6372,-3.76065 -12.4092,-10.11467 -12.4092,-20.90348 0,-14.47157 7.3807,-21.90205 21.7554,-21.90205 13.2419,0 21.7553,8.49244 21.7553,21.70163 v 5.07422 h -16.7349 c -9.3703,0 -16.7349,0.6947 -16.7349,1.5786 0,2.83023 7.3187,6.78885 12.5512,6.78885 2.8119,0 6.6911,-1.1057 8.6205,-2.45712 3.1669,-2.21819 3.8092,-2.12436 6.6049,0.96483 3.0287,3.34669 3.0069,3.48978 -0.9898,6.50455 -6.9663,5.25467 -16.1477,6.25106 -24.4185,2.64997 z m 19.3871,-26.86879 c 0,-4.05335 -7.7166,-8.09549 -12.948,-6.78249 -5.6589,1.42031 -8.8074,3.90435 -8.8074,6.94882 0,1.72166 2.754,2.30533 10.8777,2.30533 8.478,0 10.8777,-0.54528 10.8777,-2.47166 z m 48.9496,25.91887 c -4.7974,-2.92501 -5.4388,-4.17665 -5.4388,-10.61207 0,-10.20192 3.8946,-13.33502 17.6663,-14.21194 11.2528,-0.71652 12.5276,-1.66001 8.1532,-6.03438 -3.3322,-3.33222 -10.6157,-3.38005 -15.298,-0.10046 -3.3211,2.32617 -3.8172,2.23508 -6.1771,-1.13427 -2.3677,-3.38028 -2.2921,-3.85553 0.9779,-6.14591 4.7836,-3.35052 18.6259,-4.50068 24.564,-2.04103 6.8637,2.84301 8.6039,8.12527 8.6039,26.11579 v 15.81942 h -5.0204 c -2.7613,0 -5.0205,-0.70842 -5.0205,-1.57425 0,-0.86584 -2.0709,-0.49394 -4.6021,0.82643 -6.315,3.29423 -11.9749,3.01526 -18.4084,-0.90733 z m 19.9501,-9.48191 c 5.4979,-4.97556 3.8058,-7.27134 -5.3596,-7.27134 -8.6849,0 -11.4282,2.20165 -9.3832,7.53071 1.3069,3.40579 10.8789,3.23739 14.7428,-0.25937 z m 32.0094,9.53131 c -13.8808,-8.46358 -14.2165,-32.30153 -0.5544,-39.36645 6.3433,-3.28025 16.7055,-3.24807 21.4378,0.0666 l 3.7193,2.60513 v -10.97259 -10.97258 h 5.0205 5.0205 v 30.12283 30.12284 h -5.0205 c -2.7613,0 -5.0205,-0.71465 -5.0205,-1.5881 0,-0.87346 -2.6116,-0.49692 -5.8035,0.83674 -7.7913,3.25543 -12.4026,3.04586 -18.7992,-0.85439 z m 19.0187,-9.2329 c 7.2376,-5.06948 6.249,-16.5783 -1.8819,-21.90584 -7.6289,-4.99863 -17.6365,2.27444 -17.6365,12.81741 0,4.55323 7.3356,11.55962 12.1028,11.55962 2.1381,0 5.4751,-1.11204 7.4156,-2.47119 z m 39.9603,11.37253 c -14.0599,-3.91943 -20.4408,-21.85088 -12.1523,-34.15021 4.7957,-7.11636 10.1124,-9.83834 19.278,-9.86976 12.9767,-0.0445 21.0759,6.83963 22.9667,19.52103 1.1209,7.51865 -2.7397,16.17081 -9.3884,21.04005 -4.4913,3.28927 -15.0091,5.04643 -20.704,3.45889 z m 15.8284,-12.24832 c 5.4628,-5.46274 5.0066,-14.23962 -1.022,-19.66352 -5.6146,-5.05153 -9.9736,-4.7416 -15.8416,1.12639 -6.0367,6.03666 -6.3107,12.24983 -0.7841,17.77645 5.0711,5.07113 12.9957,5.4127 17.6477,0.76068 z m 52.5731,11.00921 c -8.6373,-3.76065 -12.4093,-10.11467 -12.4093,-20.90348 0,-14.47157 7.3807,-21.90205 21.7554,-21.90205 13.2419,0 21.7554,8.49244 21.7554,21.70163 v 5.07422 h -16.7349 c -9.3703,0 -16.7349,0.6947 -16.7349,1.5786 0,2.83023 7.3186,6.78885 12.5511,6.78885 2.8119,0 6.6912,-1.1057 8.6206,-2.45712 3.1669,-2.21819 3.8092,-2.12436 6.6048,0.96483 3.0288,3.34669 3.007,3.48978 -0.9898,6.50455 -6.9663,5.25467 -16.1477,6.25106 -24.4184,2.64997 z m 19.387,-26.86879 c 0,-4.05335 -7.7166,-8.09549 -12.948,-6.78249 -5.6589,1.42031 -8.8073,3.90435 -8.8073,6.94882 0,1.72166 2.754,2.30533 10.8777,2.30533 8.4779,0 10.8776,-0.54528 10.8776,-2.47166 z m -565.639802,-1.02766 v -28.60167 l 17.7196,0.5707 c 17.0229,0.54827 17.8783,0.75533 21.7554,5.26613 5.0717,5.90072 5.3874,14.8715 0.6887,19.57019 -1.8408,1.84084 -2.5939,3.34698 -1.6734,3.34698 0.9204,0 3.1796,1.50615 5.0204,3.34699 5.1448,5.14479 4.4516,14.21427 -1.5447,20.21061 -4.8179,4.81784 -5.1718,4.89175 -23.4289,4.89175 h -18.5371 z m 34.8838,13.63402 c 0.8123,-5.75428 -3.7579,-8.46121 -14.2851,-8.46121 h -8.8843 v 6.77042 6.77043 l 11.2961,-0.49484 c 10.544,-0.46189 11.3345,-0.76712 11.8733,-4.5848 z m -4.1052,-22.26751 c 3.2546,-5.18777 -0.7184,-8.72012 -10.4507,-9.29166 l -8.6135,-0.50583 v 6.86888 6.86887 l 8.6135,-0.50582 c 5.9927,-0.35193 9.1725,-1.39691 10.4507,-3.43444 z m 123.182502,7.11233 v -30.12283 h 5.0205 5.0205 v 10.97258 10.97259 l 3.7193,-2.60513 c 5.9315,-4.15457 17.4124,-3.38086 22.2958,1.50253 3.8419,3.84185 4.1077,5.24961 4.1077,21.75537 v 17.64773 h -5.0205 -5.0205 v -14.22468 c 0,-11.99335 -0.525,-14.74968 -3.3469,-17.57165 -4.4167,-4.41669 -7.6443,-4.22226 -12.6273,0.76068 -3.6805,3.68048 -4.1076,5.50787 -4.1076,17.57165 v 13.464 h -5.0205 -5.0205 z m 100.4095,8.36746 v -21.75538 h 5.0204 c 3.5059,0 5.0205,0.81536 5.0205,2.7027 0,2.48795 0.3278,2.48795 4.1249,0 6.2408,-4.08915 9.263,-3.45264 9.263,1.95088 0,3.63053 -1.1001,5.06884 -5.0043,6.54249 -6.2863,2.37284 -8.3836,7.7628 -8.3836,21.54594 v 10.76875 h -5.0205 -5.0204 z m 85.348,-8.36746 v -30.12283 h 5.0205 5.0204 v 30.12283 30.12284 h -5.0204 -5.0205 z m 246.0031,8.36746 v -21.75538 h 5.0205 c 3.4283,0 5.0205,0.8262 5.0205,2.60513 0,2.35784 0.353,2.35784 3.7193,0 5.3875,-3.77352 16.8096,-3.3871 20.5026,0.69362 2.9708,3.28268 3.0058,3.28268 7.1791,0 6.0959,-4.79509 17.2878,-4.44126 23.3125,0.73701 4.5108,3.87709 4.7178,4.7325 5.2661,21.75538 l 0.5707,17.71962 h -5.1728 -5.1728 v -12.44224 c 0,-14.37506 -1.776,-20.30342 -6.5349,-21.81383 -3.4511,-1.09533 -10.0546,1.48991 -12.2663,4.80213 -0.6762,1.01274 -1.241,8.05417 -1.2551,15.64764 l -0.026,13.8063 h -4.8539 -4.854 l -0.5849,-15.19733 c -0.4887,-12.69894 -1.1189,-15.58766 -3.8333,-17.57165 -4.5859,-3.35182 -7.1825,-2.97325 -11.889,1.73333 -3.6805,3.68048 -4.1077,5.50787 -4.1077,17.57165 v 13.464 h -5.0205 -5.0205 z"
         style="fill:#000000;stroke-width:1.67349076" />
    </g>
  </g>
</svg>
