<?xml version="1.0" encoding="UTF-8" standalone="no"?>
<!-- Created with Inkscape (http://www.inkscape.org/) -->

<svg
   xmlns:dc="http://purl.org/dc/elements/1.1/"
   xmlns:cc="http://creativecommons.org/ns#"
   xmlns:rdf="http://www.w3.org/1999/02/22-rdf-syntax-ns#"
   xmlns:svg="http://www.w3.org/2000/svg"
   xmlns="http://www.w3.org/2000/svg"
   xmlns:sodipodi="http://sodipodi.sourceforge.net/DTD/sodipodi-0.dtd"
   xmlns:inkscape="http://www.inkscape.org/namespaces/inkscape"
   version="1.1"
   id="svg2"
   xml:space="preserve"
   width="260.38062"
   height="260.23419"
   viewBox="0 0 260.38062 260.2342"
   sodipodi:docname="logoSSISemFundoSemCinza.svg"
   inkscape:version="0.92.4 (5da689c313, 2019-01-14)"><metadata
     id="metadata8"><rdf:RDF><cc:Work
         rdf:about=""><dc:format>image/svg+xml</dc:format><dc:type
           rdf:resource="http://purl.org/dc/dcmitype/StillImage" /><dc:title></dc:title></cc:Work></rdf:RDF></metadata><defs
     id="defs6"><clipPath
       clipPathUnits="userSpaceOnUse"
       id="clipPath20"><path
         d="M 0,200 H 200 V 0 H 0 Z"
         id="path18"
         inkscape:connector-curvature="0" /></clipPath><clipPath
       clipPathUnits="userSpaceOnUse"
       id="clipPath28"><path
         d="m -45,238.509 h 319.944 v -413 H -45 Z"
         id="path26"
         inkscape:connector-curvature="0" /></clipPath><clipPath
       clipPathUnits="userSpaceOnUse"
       id="clipPath46"><path
         d="M 0,200 H 200 V 0 H 0 Z"
         id="path44"
         inkscape:connector-curvature="0" /></clipPath><clipPath
       clipPathUnits="userSpaceOnUse"
       id="clipPath46-2"><path
         d="M 0,200 H 200 V 0 H 0 Z"
         id="path44-5"
         inkscape:connector-curvature="0" /></clipPath></defs><sodipodi:namedview
     pagecolor="#ffffff"
     bordercolor="#666666"
     borderopacity="1"
     objecttolerance="10"
     gridtolerance="10"
     guidetolerance="10"
     inkscape:pageopacity="0"
     inkscape:pageshadow="2"
     inkscape:window-width="1920"
     inkscape:window-height="1017"
     id="namedview4"
     showgrid="false"
     showborder="true"
     inkscape:pagecheckerboard="true"
     inkscape:zoom="2.5031581"
     inkscape:cx="182.83894"
     inkscape:cy="130.28986"
     inkscape:window-x="-8"
     inkscape:window-y="-8"
     inkscape:window-maximized="1"
     inkscape:current-layer="g10"
     fit-margin-top="0"
     fit-margin-left="0"
     fit-margin-right="0"
     fit-margin-bottom="0" /><g
     id="g10"
     inkscape:groupmode="layer"
     inkscape:label="LogoFacebook"
     transform="matrix(1.3333333,0,0,-1.3333333,-4.1504376,263.66955)"><g
       id="g40"
       transform="matrix(1.445419,0,0,1.445419,-41.734937,-43.690044)"><g
         id="g42"
         clip-path="url(#clipPath46)"><g
           id="g48"
           transform="translate(101.5039,89.4541)"><path
             d="m 0,0 33.434,5.447 20.944,17.778 c 4.316,3.666 4.552,5.595 4.376,5.893 -0.176,0.247 -2.159,1.188 -8.168,0.199 L 0,21.046 -5.833,20.105 -39.264,14.657 -60.211,-3.119 c -4.317,-3.667 -4.551,-5.598 -4.375,-5.895 0.116,-0.247 2.158,-1.187 8.167,-0.197 l 50.586,8.27 z m -55.311,12.033 c -9.51,-1.584 -13.126,0.644 -14.469,2.724 -1.283,2.129 -1.457,5.892 5.427,11.737 l 59.335,50.362 c 0.293,0.198 0.643,0.396 0.992,0.545 0.701,0.246 1.518,0.246 2.216,0 0.702,-0.248 1.285,-0.742 1.576,-1.337 C -0.059,75.718 0,75.42 0,75.074 V 26.097 l 49.478,8.072 c 9.568,1.534 13.126,-0.644 14.468,-2.725 1.285,-2.127 1.4,-5.891 -5.484,-11.735 L 43.642,7.131 49.478,8.072 C 59.046,9.606 62.604,7.428 63.946,5.348 65.231,3.219 65.346,-0.495 58.462,-6.39 L -0.875,-56.752 c -0.233,-0.197 -0.583,-0.395 -0.935,-0.545 -0.349,-0.099 -0.755,-0.148 -1.107,-0.148 -0.408,0 -0.758,0.049 -1.109,0.148 -0.699,0.298 -1.282,0.743 -1.573,1.387 -0.177,0.297 -0.234,0.595 -0.234,0.941 v 48.977 l -49.478,-8.072 c -9.568,-1.537 -13.126,0.643 -14.469,2.722 -1.283,2.131 -1.457,5.894 5.427,11.738 l 14.878,12.577 z m -9.275,5.05 c 0.173,-0.247 2.158,-1.186 8.167,-0.197 l 14.295,2.328 36.291,30.802 V 69.131 L -60.211,22.978 c -4.317,-3.666 -4.551,-5.596 -4.375,-5.895 M 36.29,0.891 0,-29.911 v -19.115 l 54.378,46.153 c 4.316,3.715 4.552,5.596 4.376,5.894 -0.176,0.248 -2.159,1.188 -8.168,0.198 z M 0,-5.052 V -22.93 L 26.079,-0.793 Z M -5.833,25.156 V 43.033 L -31.915,20.897 Z"
             style="fill:#ffffff;fill-opacity:1;fill-rule:nonzero;stroke:none"
             id="path50"
             inkscape:connector-curvature="0" /></g><g
           id="g52"
           transform="translate(99,114.6104)"><path
             d="M 0,0 V -34.944"
             style="fill:#ffffff;fill-opacity:1;fill-rule:nonzero;stroke:#ffffff;stroke-width:5;stroke-linecap:butt;stroke-linejoin:miter;stroke-miterlimit:10;stroke-dasharray:none;stroke-opacity:1"
             id="path54"
             inkscape:connector-curvature="0" /></g></g></g></g></svg>