<?xml version="1.0" encoding="UTF-8" standalone="no"?>
<!-- Created with Inkscape (http://www.inkscape.org/) -->

<svg
   xmlns:dc="http://purl.org/dc/elements/1.1/"
   xmlns:cc="http://creativecommons.org/ns#"
   xmlns:rdf="http://www.w3.org/1999/02/22-rdf-syntax-ns#"
   xmlns:svg="http://www.w3.org/2000/svg"
   xmlns="http://www.w3.org/2000/svg"
   xmlns:sodipodi="http://sodipodi.sourceforge.net/DTD/sodipodi-0.dtd"
   xmlns:inkscape="http://www.inkscape.org/namespaces/inkscape"
   version="1.1"
   id="svg2"
   xml:space="preserve"
   width="1250.5973"
   height="512.31329"
   viewBox="0 0 1250.5973 512.31331"
   sodipodi:docname="logoUSPPreto.svg"
   inkscape:version="0.92.4 (5da689c313, 2019-01-14)"><metadata
     id="metadata8"><rdf:RDF><cc:Work
         rdf:about=""><dc:format>image/svg+xml</dc:format><dc:type
           rdf:resource="http://purl.org/dc/dcmitype/StillImage" /><dc:title></dc:title></cc:Work></rdf:RDF></metadata><defs
     id="defs6"><clipPath
       clipPathUnits="userSpaceOnUse"
       id="clipPath18"><path
         d="M 0,1000 H 1000 V 0 H 0 Z"
         id="path16"
         inkscape:connector-curvature="0" /></clipPath></defs><sodipodi:namedview
     pagecolor="#ffffff"
     bordercolor="#666666"
     borderopacity="1"
     objecttolerance="10"
     gridtolerance="10"
     guidetolerance="10"
     inkscape:pageopacity="0"
     inkscape:pageshadow="2"
     inkscape:window-width="1920"
     inkscape:window-height="1017"
     id="namedview4"
     showgrid="false"
     inkscape:pagecheckerboard="true"
     showborder="true"
     inkscape:zoom="0.50063163"
     inkscape:cx="1259.394"
     inkscape:cy="265.08167"
     inkscape:window-x="-8"
     inkscape:window-y="-8"
     inkscape:window-maximized="1"
     inkscape:current-layer="g10"
     fit-margin-top="0"
     fit-margin-left="0"
     fit-margin-right="0"
     fit-margin-bottom="0" /><g
     id="g10"
     inkscape:groupmode="layer"
     inkscape:label="Logo-USP"
     transform="matrix(1.3333333,0,0,-1.3333333,-41.463332,922.18451)"><g
       id="g12"
       style="fill:#000000"><g
         id="g14"
         clip-path="url(#clipPath18)"
         style="fill:#000000"><g
           id="g20"
           transform="translate(880.6445,691.6274)"
           style="fill:#000000"><path
             d="m 0,0 h -152.269 c -24.75,0 -47.106,-10.341 -63.188,-26.993 -4.887,-4.958 -9.237,-10.556 -12.84,-16.618 C -243.844,-17.615 -272.086,0 -304.253,0 h -76.132 -76.099 c -13.266,0 -26.282,-3.458 -38.085,-9.378 -19.65,-9.699 -35.732,-26.994 -44.29,-47.855 -4.1,-10.093 -6.418,-21.076 -6.418,-32.522 v -56.628 l 6.418,-6.312 44.29,-44.789 38.085,-38.441 67.219,-67.934 8.88,9.129 8.95,9.023 -8.95,9.022 -76.099,77.097 -38.085,38.297 -25.354,25.642 v 45.894 c 0,21.467 10.234,39.867 25.354,51.244 10.841,8.094 24.142,12.837 38.085,12.837 h 76.099 76.132 c 34.842,0 63.226,-28.85 63.226,-64.081 h 12.73 12.695 c 0,0.783 0,1.354 0.145,1.889 0.925,34.483 28.99,62.192 63.188,62.192 H 0 c 34.661,0 63.082,-28.85 63.082,-64.081 V -230.541 H -63.404 v 140.786 h -25.392 v -268.769 h -63.473 -63.188 -0.145 V -384.2 h 0.145 63.188 88.865 v 127.984 H 88.401 V -89.755 C 88.401,-40.403 48.639,0 0,0 m -215.44,-266.405 -0.178,-28.098 c 0,-49.534 -39.798,-89.721 -88.653,-89.721 h -76.062 -76.134 c -13.62,0 -26.423,3.066 -38.085,8.593 -15.725,7.596 -28.956,19.934 -38.05,34.804 -1.817,-3.066 -3.956,-6.311 -6.274,-9.165 -16.226,-20.825 -41.367,-34.232 -69.609,-34.232 h -152.232 c -48.854,0 -88.83,40.187 -88.83,89.721 V 0.011 h 25.426 215.636 63.225 v -25.605 h -63.225 -63.439 v -268.484 h -25.389 v 268.484 h -126.808 v -268.909 c 0,-35.413 28.564,-64.081 63.404,-64.081 h 152.232 c 34.804,0 63.225,28.668 63.225,63.865 h 6.384 6.274 12.731 c 0,-20.825 10.058,-39.297 25.319,-51.101 10.663,-7.987 23.892,-12.764 38.085,-12.764 l 76.134,-0.216 h 76.062 c 34.877,0 63.261,28.884 63.261,64.297 v 45.928 l -63.261,64.153 -76.062,76.704 -8.915,9.022 8.915,9.237 8.881,8.878 67.181,-67.859 88.831,-89.579 z"
             style="fill:#000000;fill-opacity:1;fill-rule:nonzero;stroke:none"
             id="path22"
             inkscape:connector-curvature="0" /></g></g></g></g></svg>