<?xml version="1.0" encoding="utf-8"?>
<!-- Generator: Adobe Illustrator 24.0.1, SVG Export Plug-In . SVG Version: 6.00 Build 0)  -->
<svg version="1.1" id="Camada_1" xmlns="http://www.w3.org/2000/svg" xmlns:xlink="http://www.w3.org/1999/xlink" x="0px" y="0px"
	 viewBox="0 0 1366 1214.98" style="enable-background:new 0 0 1366 1214.98;" xml:space="preserve">
<style type="text/css">
	.st0{fill:#FFFFFF;}
	.st1{fill:#01040F;}
</style>
<g>
	<path class="st0" d="M754.45,742.49c-13.7-4.09-27-8.08-40.31-12.03c-88.06-26.1-176.12-52.23-264.23-78.2
		c-4.22-1.25-5.31-3.53-6.2-7.54c-10.55-47.24-21.38-94.41-32.13-141.61c-2.32-10.18-4.51-20.4-7.03-30.53
		c-0.51-2.07,0.14-2.84,1.46-4.07c109.62-103.04,219.21-206.11,328.8-309.19c17.84-16.78,35.66-33.57,53.5-50.36
		c0.72-0.67,1.48-1.29,2.72-2.36c2.17,9.47,4.23,18.48,6.29,27.5c11.23,49.03,22.4,98.08,33.8,147.07c0.82,3.52,0,5.36-2.44,7.63
		c-76.1,70.82-152.14,141.72-228.19,212.6c-0.61,0.57-1.2,1.16-1.81,1.72c-3.04,2.77-2.06,4.3,1.49,5.35
		c12.25,3.63,24.46,7.34,36.69,11.04c87.96,26.57,175.92,53.16,263.91,79.63c3.09,0.93,4.54,2.21,5.36,5.44
		c14.53,56.7,26.88,113.91,40.91,170.73c1.16,4.69,0.18,7.11-3.19,10.26c-99.61,93.25-199.1,186.63-298.61,279.99
		c-26.97,25.31-53.95,50.61-80.92,75.91c-0.6,0.56-1.24,1.07-2.34,2.01c-2.3-9.35-4.55-18.28-6.68-27.25
		c-11.78-49.46-23.48-98.95-35.42-148.38c-0.84-3.47-0.17-5.33,2.31-7.65c75.82-70.88,151.58-141.83,227.33-212.78
		C751.09,745.95,752.56,744.39,754.45,742.49z"/>
	<path class="st1" d="M562.85,518.64c4.08-0.2,6.47,1.35,8.97,2.46C568.99,521.31,566.49,520.22,562.85,518.64z"/>
	<path class="st0" d="M595.84,528.64c4.08-0.2,6.47,1.35,8.97,2.45C601.98,531.31,599.48,530.22,595.84,528.64z"/>
	<path class="st0" d="M618.84,535.64c4.08-0.2,6.47,1.35,8.97,2.46C624.98,538.31,622.48,537.22,618.84,535.64z"/>
	<path class="st0" d="M652.01,545.5c-3.31,0.18-6.16-1.18-8.98-2.66C646.26,542.9,649.27,543.72,652.01,545.5L652.01,545.5z"/>
	<path class="st0" d="M652,545.5c3.31-0.18,6.16,1.18,8.98,2.66C657.75,548.1,654.74,547.28,652,545.5L652,545.5z"/>
	<path class="st0" d="M685,555.5c-3.31,0.18-6.16-1.18-8.98-2.66C679.25,552.9,682.27,553.72,685,555.5L685,555.5z"/>
	<path class="st0" d="M685,555.5c3.33-0.27,6.11,1.34,8.99,2.61C690.75,558.09,687.73,557.28,685,555.5L685,555.5z"/>
	<path class="st0" d="M708,562.5c-3.33,0.27-6.11-1.34-8.99-2.62C702.25,559.9,705.26,560.72,708,562.5L708,562.5z"/>
	<path class="st0" d="M708,562.5c3.3-0.18,6.16,1.18,8.98,2.66C713.74,565.09,710.73,564.28,708,562.5L708,562.5z"/>
	<path class="st0" d="M740.99,572.49c-3.31,0.18-6.16-1.18-8.98-2.66C735.24,569.9,738.26,570.71,740.99,572.49L740.99,572.49z"/>
	<path class="st0" d="M740.99,572.5c3.3-0.18,6.16,1.18,8.98,2.66C746.74,575.09,743.72,574.28,740.99,572.5L740.99,572.5z"/>
	<path class="st0" d="M774.5,582.46c-3.83,0.24-6.67-1.18-9.5-2.62C768.32,579.62,771.14,581.08,774.5,582.46z"/>
	<path class="st0" d="M773.92,582.73c3.39-0.47,6.19,1.07,9.07,2.36C779.61,585.5,776.89,583.66,773.92,582.73z"/>
	<path class="st0" d="M797.5,589.46c-3.83,0.24-6.67-1.18-9.5-2.62C791.31,586.62,794.14,588.08,797.5,589.46z"/>
	<path class="st0" d="M796.91,589.73c3.39-0.47,6.19,1.07,9.07,2.36C802.61,592.5,799.89,590.66,796.91,589.73z"/>
	<path class="st0" d="M830.04,599.25c-3.39,0.47-6.19-1.07-9.07-2.36C824.34,596.49,827.06,598.32,830.04,599.25z"/>
	<path class="st0" d="M839.97,602.49c-3.63,0-6.92-1.15-10-3C833.61,599.49,836.9,600.64,839.97,602.49z"/>
	<path class="st0" d="M839.9,602.73c3.39-0.47,6.19,1.07,9.07,2.36C845.6,605.49,842.88,603.66,839.9,602.73z"/>
	<path class="st0" d="M863.04,609.25c-3.39,0.47-6.19-1.07-9.07-2.36C857.34,606.49,860.06,608.32,863.04,609.25z"/>
	<path class="st0" d="M862.45,609.52c3.83-0.24,6.67,1.18,9.5,2.62C868.64,612.36,865.81,610.9,862.45,609.52z"/>
	<path class="st0" d="M896.48,619.45c-3.83,0.24-6.67-1.18-9.5-2.62C890.29,616.62,893.12,618.07,896.48,619.45z"/>
	<path class="st0" d="M895.45,619.52c3.83-0.24,6.67,1.18,9.5,2.62C901.63,622.36,898.8,620.9,895.45,619.52z"/>
</g>
</svg>
