<?xml version="1.0" encoding="utf-8"?>
<!-- Generator: Adobe Illustrator 24.0.1, SVG Export Plug-In . SVG Version: 6.00 Build 0)  -->
<svg version="1.1" id="Camada_1" xmlns="http://www.w3.org/2000/svg" xmlns:xlink="http://www.w3.org/1999/xlink" x="0px" y="0px"
	 viewBox="0 0 1366 768" style="enable-background:new 0 0 1366 768;" xml:space="preserve">
<style type="text/css">
	.st0{fill:#1A0387;}
	.st1{fill:#4F7DDE;}
	.st2{fill:#020202;}
	.st3{fill:#010101;}
	.st4{fill:#030303;}
	.st5{fill:#0E0E0E;}
</style>
<g>
	<path class="st0" d="M823.43,386.16c-5.28-2.94-9.76-5.78-14.53-7.96c-3.29-1.51-4.27-3.59-3.96-6.93c0.24-2.6,0.05-5.25,0.05-8.62
		c10.7,5.89,21,11.44,31.14,17.25c2.83,1.62,2.14,11.47-0.77,13.1c-9.11,5.1-18.31,10.05-27.44,15.11
		c-1.94,1.07-2.74,1.16-2.98-1.55c-0.58-6.68-0.02-12.27,7.8-14.66C816.3,390.8,819.44,388.35,823.43,386.16z"/>
	<path class="st1" d="M559.24,362.46c0,4.33-0.09,7.76,0.03,11.19c0.08,2.09-1.24,2.86-2.75,3.68c-4.96,2.68-9.9,5.42-15.22,8.34
		c3.92,3.17,8.24,5.23,12.48,7.22c4.34,2.04,6.36,4.81,5.5,9.66c-0.34,1.91-0.06,3.94-0.06,6.75
		c-10.58-5.79-20.61-11.19-30.54-16.78c-2.36-1.33-2.55-11.81-0.19-13.15C538.42,373.75,548.47,368.36,559.24,362.46z"/>
	<path class="st2" d="M618.05,378.6c0,7.39,0.02,14.79-0.02,22.18c-0.01,1.48,0.76,3.34-2.13,3.4c-2.77,0.06-2.78-1.35-2.77-3.38
		c0.06-11.29,0-22.59,0.07-33.88c0.01-1.27-1-3.17,1.41-3.58c2.08-0.35,2.86,0.88,3.57,2.6c3.15,7.59,6.43,15.13,10.47,22.63
		c0-6.96-0.09-13.91,0.06-20.86c0.03-1.6-1.47-4.29,2.13-4.42c3.59-0.13,2.36,2.52,2.37,4.18c0.09,10.96,0.08,21.92,0,32.89
		c-0.01,1.26,1.02,3.17-1.25,3.7c-2.18,0.51-2.79-1.07-3.46-2.67c-3.19-7.68-6.44-15.33-9.66-22.99
		C618.59,378.45,618.32,378.53,618.05,378.6z"/>
	<path class="st2" d="M700.7,404.32c-5.44-0.08-8.62-2.9-10.06-8.54c-0.54-2.13-0.56-3.26,1.99-3.95c2.57-0.69,2.69,0.71,3.09,2.38
		c0.27,1.11,0.62,2.25,1.17,3.24c1.22,2.18,3.22,2.85,5.54,2.19c2.26-0.65,2.96-2.47,2.99-4.65c0.04-2.91-1.5-5-3.54-6.84
		c-3.08-2.8-6.45-5.34-9.14-8.47c-3.21-3.73-3.5-8.26-1.01-12.55c2.22-3.81,6.07-4.38,10.07-3.9c4.6,0.55,6.8,3.62,7.96,7.82
		c0.59,2.15-0.25,2.84-2.19,3.47c-2.33,0.76-2.44-0.4-2.69-2.1c-0.38-2.68-1.67-4.79-4.67-4.97c-1.89-0.12-3.65,0.41-4.44,2.48
		c-1.01,2.66-0.23,4.97,1.68,6.82c2.39,2.31,4.97,4.42,7.46,6.64c2.79,2.49,4.96,5.37,5.67,9.15
		C711.89,399.3,707.59,404.42,700.7,404.32z"/>
	<path class="st3" d="M577.67,363.11c6.29-0.04,9.37,2.68,10.73,7.96c0.61,2.37-0.32,2.72-2.11,3.41c-2.46,0.95-2.37-0.71-2.67-2.11
		c-0.57-2.63-1.69-4.77-4.74-4.93c-1.96-0.11-3.74,0.54-4.44,2.51c-1,2.8-0.08,5.23,2.09,7.18c2.6,2.33,5.31,4.55,7.84,6.96
		c2.83,2.69,4.89,5.82,5.01,9.95c0.18,6.08-3.17,9.96-9,10.28c-6.16,0.33-10.8-3.73-11.3-9.53c-0.22-2.51,1.31-2.51,2.93-3.03
		c2.24-0.72,1.95,0.81,2.26,2.07c0.31,1.27,0.7,2.59,1.36,3.71c1.25,2.12,3.29,2.8,5.6,2.09c2.2-0.68,2.93-2.42,2.95-4.66
		c0.02-2.95-1.58-5-3.58-6.83c-2.82-2.59-5.82-4.98-8.52-7.68c-3.4-3.41-3.87-7.64-2.29-12.01
		C571.22,364.46,574.61,363.26,577.67,363.11z"/>
	<path class="st4" d="M718.8,384.01c0-5.81,0.12-11.62-0.06-17.41c-0.08-2.65,0.81-3.5,3.4-3.35c3.31,0.19,6.64,0.08,9.96,0.04
		c1.56-0.02,2.48,0.38,2.48,2.22c0.01,1.82-0.87,2.19-2.45,2.27c-2.45,0.12-5.71-1.16-7.16,0.59c-1.71,2.06-0.21,5.43-0.62,8.19
		c-0.54,3.65,0.62,5.21,4.51,4.69c1.53-0.2,4.06-0.96,3.83,2.21c-0.2,2.8-2.52,1.78-3.81,1.62c-3.88-0.49-5.12,1.08-4.52,4.73
		c0.18,1.13,0.03,2.32,0.03,3.48c0,6.6,0,6.58,6.75,6.84c1.48,0.06,3.59-0.75,3.58,2.04c-0.01,2.87-2.22,1.86-3.61,1.91
		c-12.31,0.42-12.31,0.4-12.31-12.1C718.8,389.31,718.8,386.66,718.8,384.01z"/>
	<path class="st2" d="M667.66,383.58c0-5.65,0.13-11.31-0.06-16.96c-0.09-2.67,0.82-3.53,3.4-3.38c2.98,0.18,5.99,0.03,8.98,0.05
		c1.62,0.01,3.45-0.4,3.36,2.33c-0.07,2.35-1.6,2.03-3.09,2.12c-7.04,0.44-6.8,0.46-7.14,8.01c-0.18,4.13,0.56,6.33,5.24,5.46
		c1.37-0.26,3.11-0.48,3.15,1.94c0.05,2.47-1.69,2.2-3.07,1.96c-4.55-0.79-6.04,1.12-5.26,5.44c0.2,1.13,0.21,2.36,0,3.48
		c-0.93,5.02,0.99,6.89,6.07,6.16c1.39-0.2,4.08-1.4,4.22,1.72c0.16,3.6-2.77,2.08-4.36,2.11c-11.46,0.2-11.46,0.14-11.46-11.47
		C667.66,389.57,667.66,386.58,667.66,383.58z"/>
	<path class="st2" d="M647.82,385.9c0-4.15-0.09-8.31,0.03-12.46c0.1-3.48,0.45-6.9-4.89-5.73c-1.46,0.32-2.01-0.59-2.06-2.04
		c-0.06-1.67,0.5-2.42,2.27-2.39c4.82,0.07,9.65,0.05,14.47,0.01c1.54-0.01,2.51,0.29,2.5,2.16c-0.01,1.71-0.66,2.61-2.34,2.28
		c-4.75-0.94-4.46,2.08-4.43,5.24c0.09,9.31-0.02,18.61,0.07,27.92c0.02,2.13-0.15,3.31-2.83,3.33c-2.74,0.02-2.86-1.26-2.82-3.34
		C647.89,395.87,647.82,390.88,647.82,385.9z"/>
	<path class="st3" d="M766.17,381.64c0,5.15,0.18,10.3-0.05,15.44c-0.25,5.66-3.13,8.09-8.66,7.8c-1.07-0.06-2.49,0.44-2.61-1.39
		c-0.09-1.37-0.17-2.56,1.85-2.71c3.91-0.28,4.05-3.29,4.06-6.22c0.02-9.14,0.01-18.27,0.02-27.41c0-1.92-0.59-3.98,2.74-3.96
		c3.31,0.02,2.74,2.06,2.74,3.99c0.01,4.82,0,9.63,0,14.45C766.23,381.64,766.2,381.64,766.17,381.64z"/>
	<path d="M603.25,384.05c0,5.64-0.09,11.29,0.04,16.92c0.05,2.24-0.39,3.25-2.94,3.21c-2.43-0.04-2.59-1.16-2.58-3.06
		c0.06-11.45,0.04-22.9,0.02-34.35c0-1.9-0.21-3.54,2.67-3.56c2.75-0.02,2.84,1.37,2.82,3.41
		C603.2,372.43,603.25,378.24,603.25,384.05z"/>
	<path class="st5" d="M607.25,351.56c-1.55,2.79-3.03,5.47-4.52,8.14c-0.63,1.12-1.6,1.86-2.82,1.24c-1.36-0.68-0.15-1.7,0.05-2.5
		C601.77,350.87,601.79,350.87,607.25,351.56z"/>
	<path class="st2" d="M792.16,387.05c-0.39-1.44-1.2-2.73,0.73-4.29c4.6-3.7,3.87-8.89,2.44-13.74c-1.36-4.59-5.59-5.25-9.65-5.63
		c-2.14-0.2-4.32,0.01-6.48-0.12c-2.25-0.14-3.21,0.48-3.18,3.03c0.14,11.63,0.14,23.26,0,34.88c-0.03,2.59,0.98,2.95,3.19,2.99
		c2.29,0.03,2.77-0.87,2.7-2.94c-0.14-4.31-0.1-8.64,0-12.95c0.03-1.25-0.89-3.14,1.7-3.28c2.05-0.11,2.93,0.7,3.39,2.68
		c0.94,4.03,2.4,7.95,3.16,12.01c0.75,3.99,2.62,5.41,6.73,3.95C795.3,398.12,793.67,392.6,792.16,387.05z M784.34,380.97
		c-5.55-0.41-0.77-4.88-2.91-6.85c2.08-1.98-2.57-6.53,3.08-6.78c4.46-0.19,6.38,2.06,6.33,6.87
		C790.79,378.93,788.7,381.3,784.34,380.97z"/>
</g>
</svg>
