<?xml version="1.0" encoding="utf-8"?>
<!-- Generator: Adobe Illustrator 24.0.1, SVG Export Plug-In . SVG Version: 6.00 Build 0)  -->
<svg version="1.1" id="Camada_1" xmlns="http://www.w3.org/2000/svg" xmlns:xlink="http://www.w3.org/1999/xlink" x="0px" y="0px"
	 viewBox="0 0 2289.02 1138.38" style="enable-background:new 0 0 2289.02 1138.38;" xml:space="preserve">
<style type="text/css">
	.st0{fill:#1A0386;}
	.st1{fill:#4F7CDE;}
	.st2{fill:#0A31BA;}
	.st3{fill:#FCFCFC;}
	.st4{fill:#FDFDFD;}
</style>
<g>
	<path class="st0" d="M592.34,721.15c-3.57,5.25-8.58,9.12-13.12,13.41c-12.68,11.99-25.55,23.76-38.27,35.71
		c-30.19,28.35-60.32,56.77-90.51,85.13c-13.44,12.63-26.99,25.15-40.44,37.78c-29.47,27.66-58.9,55.37-88.36,83.04
		c-14.3,13.43-28.66,26.79-42.96,40.21c-23.29,21.85-46.55,43.73-69.83,65.59c-0.57,0.54-1.23,0.97-2.28,1.8
		c-3.37-13.99-6.65-27.53-9.89-41.09c-10.6-44.3-21.11-88.62-31.89-132.88c-1.05-4.33-0.16-6.8,3.03-9.77
		c75.86-70.86,151.61-141.85,227.37-212.81c1.21-1.13,2.4-2.27,3.67-3.48c-1.65-2.03-3.97-1.96-5.91-2.54
		c-99.72-29.66-199.44-59.28-299.21-88.77c-3.25-0.96-4.6-2.48-5.09-5.6c-0.93-5.91-2.1-11.78-3.18-17.66
		c1.32-2.83,3.41-1.02,4.96-0.58c17.61,5.01,35.07,10.55,52.62,15.77c46.27,13.77,92.46,27.81,138.68,41.73
		c36.66,11.03,73.31,22.1,109.97,33.14c42.71,12.87,85.42,25.76,128.16,38.57c22.64,6.79,45.24,13.7,67.88,20.5
		C589.53,718.89,591.18,719.61,592.34,721.15z"/>
	<path class="st1" d="M50.54,410.02c9.53-10.47,20.31-19.65,30.57-29.37c30.96-29.32,62.12-58.43,93.18-87.65
		c86.26-81.15,172.52-162.3,258.78-243.45c0.59-0.56,1.22-1.07,2.38-2.08c2.12,9.12,4.13,17.7,6.1,26.29
		c10.24,44.49,20.48,88.98,30.69,133.48c1.22,5.31,2.05,10.71,3.45,15.96c0.56,2.1,0.23,3.32-1.27,4.71
		c-19.25,17.87-38.47,35.78-57.68,53.69c-10.7,9.98-21.37,19.98-32.06,29.98c-27.44,25.68-54.86,51.38-82.33,77.03
		c-12.63,11.8-25.36,23.5-38.02,35.27c-6.82,6.34-13.61,12.72-20.35,19.15c-3.8,3.62-3.59,4.79,1.24,6.25
		c37.55,11.37,75.12,22.67,112.67,34.03c27.3,8.26,54.57,16.59,81.86,24.86c35.18,10.66,70.36,21.35,105.59,31.87
		c3.13,0.93,4.6,2.36,5.27,5.54c1.33,6.27,3.13,12.45,4.74,18.67c-1.93,1.47-3.84,0.45-5.7-0.12
		c-58.77-17.92-117.55-35.81-176.33-53.69c-67.54-20.55-135.03-41.29-202.61-61.69c-38.25-11.55-76.49-23.16-114.69-34.9
		C53.94,413.21,50.88,413.42,50.54,410.02z"/>
	<path class="st2" d="M50.54,410.02c6.06,3.6,13.01,4.74,19.6,6.76c52.1,15.97,104.28,31.68,156.41,47.54
		c62.79,19.11,125.56,38.29,188.33,57.43c46.01,14.03,92.03,28.04,138.05,42.05c0.79,0.24,1.62,0.31,2.43,0.47
		c6.07,25.84,12.1,51.68,18.21,77.51c5.43,22.97,10.96,45.92,16.42,68.88c0.83,3.49,1.56,7,2.34,10.5
		c-43.54-13.13-87.07-26.27-130.61-39.4c-48.65-14.66-97.3-29.32-145.94-43.97c-48.65-14.66-97.3-29.31-145.95-43.97
		c-27.02-8.14-54.05-16.3-81.08-24.4c-1.02-0.3-2.14-1.17-3.29-0.21c-3.81-10.31-5.37-21.17-7.83-31.81
		c-9.23-39.95-18.3-79.94-27.19-119.97C49.96,415.23,45.86,412.35,50.54,410.02z"/>
	<path d="M1141.47,715.15c-6.16,0-12.33-0.09-18.49,0.06c-2.72,0.07-4.3-0.89-5.18-3.47c-4.27-12.49-10.12-24.32-15.22-36.47
		c-4.85-11.56-9.36-23.27-14.23-34.83c-4.07-9.67-8.88-19.04-12.57-28.85c-3.47-9.22-7.64-18.14-11.25-27.29
		c-4.12-10.44-8.75-20.67-14.17-30.79c0,1.71,0,3.43,0,5.14c0,50.63,0.01,101.27-0.06,151.9c0,1.64,1.42,4.2-1.79,4.79
		c-8.15,0.67-16.31,0.06-24.46,0.33c-2.53,0.08-3.23-1.08-3.02-3.32c0.08-0.83,0.01-1.67,0.01-2.5c0-77.48,0-154.97,0-232.46
		c0-5.68,0.01-5.82,5.6-5.65c5.95,0.17,11.94-0.73,17.85,0.55c12.34,28.85,24.68,57.7,37.01,86.55
		c10.13,23.72,20.23,47.45,30.38,71.16c0.16,0.37,0.68,0.58,1.68,1.37c0-53.45,0-106.27,0-159.08c8.76-1.31,17.56-0.26,26.34-0.56
		c1.45-0.05,2.1,0.73,2.1,2.15c0,1.33,0.01,2.67,0.01,4c0,77.29,0,154.58-0.02,231.87C1141.97,711.56,1142.47,713.44,1141.47,715.15
		z"/>
	<path d="M827.06,690.27c7.33-0.21,17.87-8.76,18.69-17.91c0.12-1.29,1.74-2.14,0.86-3.6c0.71-4.38,0.7-8.76,0-13.14
		c-0.96-10.66-5.95-19.4-13.15-26.95c-11.98-12.57-25.77-23.18-38.48-34.96c-9.87-9.15-21.17-16.89-28.41-28.79
		c-5.07-8.33-8.55-16.99-9.23-26.73c-0.65-1.79,0.09-3.76-0.72-5.52c0.01-4.03,0.01-8.07,0.02-12.1c0.86-1.7,0.01-3.63,0.72-5.34
		c3.17-26.95,21.02-42.3,48.73-44.89c0.82-0.08,1.64-0.19,2.46-0.28c3.66-0.51,7.32-0.51,10.97,0c14.51,1.51,28.29,4.81,38.58,16.29
		c8.96,10,12.95,22.21,15.41,35.08c0.37,1.93,0.77,3.86,1.15,5.78c0.47,2.01,0.72,4.01-0.18,5.98c-8.8,1.82-17.43,4.27-25.96,7.09
		c-2.61,1.19-2.24-1.22-2.89-2.4c-1.76-11.51-2.5-23.34-10.38-32.93c-3.75-4.56-8.73-6.81-14.39-7.85c-2.02-0.94-4.27,0.07-6.3-0.73
		c-0.34,0-0.68,0-1.03,0c-2.05,0.78-4.3-0.2-6.34,0.72c-10.58,0.81-18.6,9.33-19.74,19.86c-1.88,17.43,4.69,30.47,18.19,41.4
		c15.3,12.39,30.07,25.53,44.29,39.16c12.94,12.41,23.29,26.83,27.06,44.97c0.6,2.9,1.14,5.8,1.71,8.71
		c0.52,5.66,0.49,11.31,0.02,16.97c-1.72,10.27-4.52,20.03-11.09,28.49c-9.25,11.9-21.63,18.07-36.11,20.69
		c-1.72,0.73-3.66-0.13-5.36,0.73c-3.74,0-7.48,0-11.21,0c-1.72-0.83-3.65-0.03-5.39-0.7c-17.94-1.86-32.2-10.11-41.45-25.59
		c-5.12-8.56-8.89-17.96-10.22-28.08c-0.51-3.84-0.99-7.69-1.49-11.53c-0.25-2.14-1.41-4.49,1.41-5.9
		c8.26-2.12,16.55-4.12,24.75-6.44c2.59-0.73,4.16-0.89,4.16,2.37c0.74,1.7-0.15,3.62,0.73,5.3c0.46,11.67,3.59,22.58,9.95,32.38
		c3.91,6.03,9.37,10.05,16.94,10.37C818.57,691.02,822.81,690.88,827.06,690.27z"/>
	<path d="M1513.38,647.49c0.46,11.67,3.59,22.57,9.95,32.37c3.92,6.03,9.37,10.05,16.93,10.38c4.24,0.78,8.49,0.63,12.74,0.03
		c8.44-0.93,16.96-8.5,18.43-16.87c0.25-1.44,1.6-2.5,1.11-4.04c0.76-4.58,0.69-9.16,0.02-13.74c-0.97-10.65-5.96-19.38-13.15-26.95
		c-11.98-12.6-25.83-23.16-38.51-34.98c-9.84-9.17-21.16-16.88-28.38-28.79c-5.06-8.33-8.55-16.98-9.22-26.72
		c-0.65-1.79,0.08-3.76-0.72-5.52c0.01-4.03,0.01-8.06,0.02-12.1c0.85-1.7,0-3.63,0.72-5.35c3.17-26.92,21-42.3,48.73-44.89
		c0.82-0.08,1.64-0.19,2.46-0.28c3.66-0.51,7.32-0.52,10.98,0c14.51,1.51,28.29,4.81,38.57,16.29c8.96,10,12.95,22.21,15.41,35.08
		c0.37,1.93,0.77,3.86,1.15,5.79c0.48,2.01,0.72,4.01-0.18,5.98c-8.8,1.82-17.43,4.28-25.96,7.09c-2.62,1.19-2.24-1.22-2.89-2.4
		c-1.77-11.51-2.5-23.34-10.39-32.93c-3.75-4.56-8.74-6.81-14.39-7.85c-2.02-0.94-4.27,0.08-6.31-0.73c-0.34,0-0.68,0-1.02,0
		c-2.05,0.79-4.3-0.2-6.34,0.72c-10.58,0.83-18.6,9.34-19.73,19.86c-1.88,17.43,4.69,30.46,18.19,41.4
		c15.3,12.39,30.07,25.53,44.29,39.16c12.94,12.41,23.29,26.83,27.06,44.97c0.6,2.9,1.14,5.8,1.71,8.71
		c0.53,5.66,0.5,11.31,0.02,16.97c-1.71,10.27-4.52,20.03-11.09,28.49c-9.25,11.9-21.62,18.07-36.11,20.69
		c-1.72,0.74-3.66-0.12-5.36,0.73c-3.74,0-7.47,0-11.21,0c-1.72-0.82-3.65-0.02-5.39-0.7c-17.94-1.85-32.2-10.11-41.45-25.59
		c-5.12-8.56-8.89-17.96-10.22-28.07c-0.51-3.84-0.99-7.69-1.48-11.53c-0.25-2.14-1.41-4.49,1.41-5.9
		c8.26-2.12,16.55-4.13,24.75-6.44c2.59-0.73,4.17-0.9,4.16,2.36C1513.4,643.89,1512.5,645.81,1513.38,647.49z"/>
	<path d="M1685.66,498.21c-0.35,26.33-0.61,52.65,0.13,78.98c3.58,1.11,7.24,0.45,10.86,0.48c10.99,0.11,21.97,0.01,32.96,0.07
		c1.6,0.01,3.34-0.6,4.8,0.62c-0.04,5.99-0.36,11.99-0.02,17.96c0.24,4.31-0.94,5.78-5.47,5.68c-13.31-0.3-26.62-0.09-39.94-0.12
		c-2.1,0-3.68-0.22-3.67,2.98c0.15,28.12,0.1,56.24,0.12,84.37c0,0.32,0.19,0.63,0.29,0.95c1.53,0.96,3.23,0.49,4.84,0.5
		c17.03,0.04,34.06,0,51.09,0.06c1.58,0,3.32-0.63,4.75,0.65c-0.01,7.85-0.02,15.7-0.02,23.55c-1.41,1.37-3.17,0.69-4.76,0.7
		c-28.49,0.05-56.98-0.05-85.46,0.13c-4.09,0.03-5.27-0.99-5.27-5.19c0.13-77.96,0.12-155.92,0.02-233.87
		c-0.01-3.82,0.85-5.08,4.91-5.06c28.49,0.18,56.97,0.17,85.46,0.01c3.69-0.02,4.98,0.87,4.76,4.69
		c-0.33,5.64-0.29,11.33-0.01,16.98c0.18,3.56-1.05,4.48-4.5,4.45c-16.82-0.16-33.65-0.09-50.48-0.05
		C1689.25,497.72,1687.38,497.22,1685.66,498.21z"/>
	<path d="M1440.42,691.37c-0.01,7.85-0.02,15.7-0.02,23.55c-7.94,1.46-15.93,0.66-23.9,0.43c-23.64-0.07-47.28-0.14-70.92-0.21
		c-1.04-1.52-0.55-3.24-0.55-4.86c-0.03-77.74-0.03-155.48-0.02-233.22c0-5.33,0.01-5.34,5.45-5.34c28.14,0,56.27,0.09,84.41-0.1
		c4.18-0.03,5.46,1.14,5.19,5.26c-0.35,5.47-0.3,10.99-0.01,16.47c0.19,3.61-1.15,4.43-4.54,4.4c-17.15-0.15-34.3-0.08-51.44-0.05
		c-1.46,0-3.01-0.4-4.38,0.5c-0.35,26.33-0.61,52.65,0.13,78.98c3.58,1.11,7.24,0.45,10.86,0.48c10.99,0.11,21.97,0.01,32.96,0.07
		c1.6,0.01,3.34-0.6,4.8,0.62c-0.04,5.99-0.36,11.99-0.02,17.96c0.24,4.31-0.94,5.78-5.47,5.68c-13.31-0.3-26.62-0.09-39.94-0.12
		c-2.1,0-3.68-0.22-3.67,2.98c0.15,28.12,0.1,56.24,0.12,84.37c0,0.32,0.19,0.63,0.29,0.95c1.53,0.96,3.23,0.49,4.84,0.5
		c17.03,0.04,34.06,0,51.09,0.06C1437.26,690.72,1438.99,690.08,1440.42,691.37z"/>
	<path d="M1261.53,498.2c-0.14,1.97-0.39,3.94-0.39,5.92c-0.02,68.55-0.06,137.1,0.08,205.65c0.01,4.18-0.67,5.74-5.31,5.53
		c-9.46-0.44-18.96-0.12-28.45-0.12c-0.84-1.92-0.41-3.95-0.41-5.92c-0.03-68.42-0.02-136.83-0.04-205.25
		c0-1.97,0.45-3.99-0.43-5.91l0.02,0.04c-3.1-0.97-6.28-0.39-9.41-0.43c-9.16-0.09-18.33-0.12-27.5,0.02
		c-2.81,0.04-3.8-0.81-3.72-3.68c0.18-6.33,0.16-12.67,0.01-18.99c-0.07-2.68,0.94-3.4,3.49-3.39c36,0.06,71.99,0.08,107.99-0.02
		c3.01-0.01,3.64,1.14,3.57,3.82c-0.15,5.83-0.26,11.67,0.03,17.49c0.19,3.66-0.78,4.92-4.65,4.81c-9.99-0.28-20-0.12-29.99-0.07
		C1264.79,497.72,1263.08,497.27,1261.53,498.2z"/>
	<path d="M1902.28,671.19c0.38-3.83,0.79-7.66,0.25-11.51c0.78-1.93,0.41-3.96,0.42-5.94c0.02-58.82,0.02-117.63,0.02-176.45
		c0-5.56,0.01-5.56,5.73-5.56c8.17,0,16.33,0.09,24.49-0.05c2.7-0.04,3.8,0.61,3.8,3.58c-0.08,63.48-0.03,126.97-0.07,190.45
		c0,0.52-0.18,0.98-0.3,1.46c-0.09,2.56-0.18,5.12-0.27,7.68c-0.88,1.68,0.02,3.61-0.73,5.31c-0.91,3.96-1.75,7.95-2.75,11.89
		c-4.43,17.35-17.05,24.9-33.48,27.83c-0.98,0.17-1.96,0.32-2.94,0.47c-1.8,0.66-3.78-0.07-5.56,0.74
		c-6.62-0.03-13.24-0.2-19.85-0.02c-2.85,0.08-3.71-0.79-3.61-3.62c0.21-5.79,0.19-11.61,0-17.4c-0.09-2.77,0.7-3.73,3.57-3.73
		c5.23-0.01,10.35-0.52,15.55-1.92c7.9-2.13,12.46-6.57,13.96-14.46c0.23-1.22,0.66-2.4,1-3.6
		C1902.52,674.73,1901.48,672.82,1902.28,671.19z"/>
	<path d="M936.44,455.22c3.18-10.95,6.29-21.91,9.55-32.84c2.43-8.16,5.03-16.26,7.56-24.39c9.97-0.6,19.96-0.11,29.93-0.24
		c0.91-0.01,2.14-0.2,1.92,1.42c-10.97,19.32-21.93,38.64-32.9,57.96c-4.71,1.25-9.49,0.28-14.24,0.52
		C936.66,457.74,935.68,457.05,936.44,455.22z"/>
	<path class="st3" d="M1685.66,498.21c1.16-1.89,2.99-0.83,4.44-0.83c17.15-0.09,34.31-0.16,51.46,0.03
		c3.36,0.04,4.17-0.97,4.04-4.15c-0.25-5.98-0.17-11.99-0.02-17.98c0.05-2.3-0.48-3.15-2.99-3.14c-29.48,0.09-58.95,0.08-88.43,0.01
		c-2.2-0.01-3.06,0.63-2.77,2.81c0.11,0.82,0.02,1.66,0.02,2.5c0,77.43,0.05,154.87-0.12,232.3c-0.01,4.65,1.28,5.59,5.68,5.56
		c27.98-0.21,55.96-0.1,83.93-0.12c1.82,0,3.65-0.17,5.47-0.26c-1.09,1.89-2.95,1.22-4.5,1.22c-28.82,0.04-57.65-0.05-86.47,0.12
		c-4.04,0.02-5.02-1.25-5.01-5.12c0.1-78.3,0.1-156.6,0-234.89c0-3.86,0.95-5.15,5-5.13c28.66,0.17,57.31,0.15,85.97,0.02
		c3.75-0.02,5.45,0.75,5.19,4.94c-0.36,5.81-0.31,11.67-0.01,17.48c0.2,3.87-1.28,4.75-4.9,4.72
		C1722.98,498.12,1704.32,498.21,1685.66,498.21z"/>
	<path class="st3" d="M1379.69,498.21c1.16-1.89,2.99-0.83,4.44-0.83c17.15-0.09,34.3-0.15,51.45,0.03
		c3.33,0.03,4.19-0.94,4.05-4.14c-0.25-5.82-0.2-11.66-0.01-17.48c0.09-2.7-0.51-3.68-3.48-3.67c-29.14,0.11-58.28,0.15-87.41-0.03
		c-3.88-0.02-3.3,2.04-3.3,4.33c0.01,33.96,0,67.93,0,101.89c0,43.79,0,87.57,0.01,131.36c0,1.83,0.1,3.66,0.15,5.48
		c-1.78-1.41-1.06-3.39-1.06-5.12c-0.04-77.78,0.01-155.55-0.13-233.33c-0.01-4.41,1.16-5.62,5.58-5.59
		c28.48,0.2,56.96,0.16,85.44,0.03c3.79-0.02,5.41,0.82,5.16,4.97c-0.35,5.81-0.31,11.66-0.01,17.48c0.2,3.89-1.32,4.73-4.92,4.7
		C1417,498.13,1398.34,498.21,1379.69,498.21z"/>
	<path class="st3" d="M1936.62,667.16c-0.04-35.79-0.08-71.58-0.1-107.37c-0.02-27.8-0.08-55.6,0.09-83.41
		c0.02-3.59-0.97-4.41-4.4-4.3c-8.15,0.27-16.32,0.31-24.47-0.01c-3.91-0.15-4.88,0.97-4.87,4.86c0.15,44.45,0.09,88.9,0.09,133.35
		c0,14.82,0.01,29.63-0.02,44.45c0,1.64-0.26,3.28-0.4,4.92c-0.03-61.45-0.04-122.91-0.16-184.37c-0.01-3.44,1.33-4.2,4.44-4.15
		c8.83,0.15,17.66,0.18,26.48-0.01c3.36-0.07,4.21,1.2,4.21,4.37c-0.07,62.62-0.05,125.25-0.06,187.87
		C1937.44,664.69,1937.71,666.08,1936.62,667.16z"/>
	<path class="st3" d="M961.59,715.19c-1.33,1.46-3.1,0.95-4.71,0.96c-7.99,0.04-16-0.26-23.98,0.13c-4.59,0.22-5.5-1.44-5.48-5.69
		c0.18-28.31,0.09-56.62,0.09-84.92c0-49.46,0.06-98.91-0.1-148.37c-0.02-4.68,1.02-6.45,5.99-6.19c7.81,0.41,15.65,0.08,23.48,0.13
		c1.61,0.01,3.37-0.5,4.71,0.96c-0.24,0.22-0.48,0.44-0.71,0.67c-6.7,1.97-13.56,0.74-20.34,0.91c-10.8,0.27-10.4-0.88-10.4,10.28
		c0,73.43,0,146.86,0,220.29c0,9.21,0.01,9.04,9.4,9.27c7.11,0.17,14.3-1.06,21.34,0.9C961.12,714.73,961.35,714.96,961.59,715.19z"
		/>
	<path class="st3" d="M1044.48,472.31c-6.65-0.04-13.31,0-19.96-0.18c-2.32-0.06-3.45,0.51-3.09,3c0.12,0.81,0.02,1.66,0.02,2.49
		c0,77.38,0.05,154.77-0.12,232.15c-0.01,4.71,1.36,5.72,5.72,5.52c7.14-0.32,14.3,0,21.45,0.06c-8.54,1.79-17.17,0.42-25.75,0.74
		c-1.72,0.06-2.22-1.15-2.22-2.65c-0.01-1.5-0.02-3-0.02-4.49c0-73.06-0.02-146.12,0.04-219.18c0.01-5.94-2.56-13.74,1.04-17.34
		c3.84-3.84,11.69-0.87,17.78-1.17C1041.09,471.17,1043.09,470.5,1044.48,472.31z"/>
	<path class="st3" d="M1141.47,715.15c0.07-1.66,0.19-3.32,0.19-4.97c0.01-77.55-0.03-155.1,0.1-232.64
		c0.01-4.15-0.63-5.79-5.27-5.48c-7.62,0.5-15.3,0.21-22.95,0.26c1.22-1.69,3.03-1.06,4.61-1.08c6.49-0.06,13,0.23,19.47-0.12
		c4.15-0.22,5.42,1.39,4.9,5.17c-0.09,0.65-0.01,1.33-0.01,2c0,76.91,0.01,153.82-0.04,230.73
		C1142.48,711.06,1143.36,713.37,1141.47,715.15z"/>
	<path class="st3" d="M1261.53,498.2c1.21-1.8,3.02-0.82,4.51-0.84c10.32-0.1,20.64-0.15,30.96,0.01c2.91,0.05,4.13-0.47,3.97-3.75
		c-0.3-5.98-0.14-11.98-0.05-17.97c0.03-2.25-0.08-3.57-3.09-3.56c-36.29,0.12-72.58,0.1-108.86,0.02
		c-2.54-0.01-3.03,0.88-2.98,3.16c0.13,6.16,0.19,12.32-0.02,18.47c-0.1,2.83,0.73,3.66,3.59,3.62c10.82-0.16,21.64-0.11,32.46-0.01
		c1.52,0.01,3.32-0.9,4.6,0.78c-12.15,0.02-24.31-0.05-36.46,0.12c-3.28,0.04-4.87-0.66-4.72-4.38c0.27-6.31,0.17-12.65,0.03-18.97
		c-0.06-2.84,1.04-3.75,3.81-3.74c36.12,0.06,72.25,0.07,108.37-0.01c3.16-0.01,4,1.22,3.93,4.14c-0.15,6.16-0.22,12.32,0.02,18.47
		c0.14,3.56-1.16,4.56-4.59,4.51C1285.17,498.1,1273.35,498.21,1261.53,498.2z"/>
	<path class="st3" d="M961.59,472.18c1.54,1.52,0.91,3.46,0.91,5.21c0.03,77.53,0.03,155.05,0,232.58c0,1.76,0.63,3.7-0.91,5.21
		c0,0-0.12-0.08-0.12-0.08c-1.73-1.92-1.56-4.32-1.56-6.63c-0.03-76.53-0.03-153.06,0-229.59c0-2.31-0.17-4.71,1.56-6.63
		L961.59,472.18z"/>
	<path class="st3" d="M1226.57,498.11c1.11,1.68,0.52,3.56,0.52,5.33c0.04,68.6,0.03,137.19,0.04,205.79c0,1.98,0.21,3.96,0.32,5.95
		c-1.36-1.16-0.95-2.76-0.95-4.21C1226.51,640.02,1226.54,569.06,1226.57,498.11z"/>
	<path class="st3" d="M1440.42,691.37c-9.58-0.94-19.18-0.27-28.77-0.4c-9.11-0.12-18.22,0.02-27.34-0.07
		c-1.51-0.02-3.27,0.86-4.57-0.73c18.56,0,37.11-0.02,55.67,0.03C1437.12,690.2,1439.13,689.41,1440.42,691.37z"/>
	<path class="st3" d="M1746.4,691.37c-9.58-0.94-19.18-0.27-28.77-0.4c-9.11-0.12-18.22,0.02-27.34-0.07
		c-1.51-0.02-3.27,0.86-4.57-0.73c18.56,0,37.11-0.02,55.67,0.03C1743.1,690.2,1745.11,689.41,1746.4,691.37z"/>
	<path class="st3" d="M1734.41,578.36c-10.27-1.24-20.59-0.16-30.88-0.58c-5.91-0.24-11.87,0.77-17.74-0.6
		c14.54,0,29.07-0.03,43.61,0.03C1731.11,577.22,1733.1,576.44,1734.41,578.36z"/>
	<path class="st3" d="M1428.44,578.36c-10.27-1.24-20.59-0.16-30.88-0.58c-5.91-0.24-11.87,0.77-17.74-0.6
		c14.54,0,29.07-0.03,43.61,0.03C1425.13,577.22,1427.13,576.44,1428.44,578.36z"/>
	<path class="st3" d="M985.41,399.18c-0.92-2.23-2.84-1.04-4.23-1.06c-9.21-0.14-18.42-0.1-27.62-0.12
		c6.2-1.72,12.52-0.43,18.78-0.75c3.82-0.2,7.66-0.1,11.48,0.02C984.73,397.29,987.21,396.64,985.41,399.18z"/>
	<path class="st3" d="M2088.45,715.35c10.95-0.18,21.91-0.37,32.86-0.55c-0.42,1.11-1.34,1.35-2.38,1.35c-9.57,0-19.14,0-28.72-0.05
		C2089.62,716.1,2089.03,715.61,2088.45,715.35z"/>
	<path class="st3" d="M1416.5,715.35c7.97-0.14,15.93-0.29,23.9-0.43c-0.9,1.7-2.55,1.31-3.93,1.22
		C1429.82,715.7,1423.09,717.2,1416.5,715.35z"/>
	<path class="st3" d="M936.44,455.22c-0.24,2.29,1.3,2.14,2.82,2.11c4.41-0.08,8.83-0.13,13.24-0.19
		c-5.01,2.26-10.27,0.78-15.4,0.89C935.32,458.07,935.26,456.51,936.44,455.22z"/>
	<path class="st3" d="M1604.66,668.16c-0.01-5.66-0.02-11.31-0.02-16.97C1606.04,656.84,1606,662.5,1604.66,668.16z"/>
	<path class="st4" d="M878.73,668.16c-0.01-5.66-0.02-11.31-0.02-16.97C880.09,656.84,880.04,662.5,878.73,668.16z"/>
	<path class="st3" d="M2116.61,544.18c0-4.99,0-9.98,0-14.97C2117.97,534.2,2117.97,539.19,2116.61,544.18z"/>
	<path class="st3" d="M1572.56,655.61c1.29,4.58,1.24,9.16-0.02,13.74C1572.54,664.77,1572.55,660.19,1572.56,655.61z"/>
	<path class="st3" d="M1553,690.27c-4.25,1.32-8.49,1.35-12.74-0.03C1544.51,690.25,1548.75,690.26,1553,690.27z"/>
	<path class="st4" d="M827.06,690.27c-4.25,1.33-8.49,1.35-12.73-0.03C818.57,690.25,822.82,690.26,827.06,690.27z"/>
	<path class="st4" d="M846.61,655.61c1.25,4.38,1.31,8.76,0,13.14C846.61,664.38,846.61,659.99,846.61,655.61z"/>
	<path class="st3" d="M1545.47,470.05c-3.66,0-7.32,0-10.98,0C1538.15,468.7,1541.81,468.7,1545.47,470.05z"/>
	<path class="st4" d="M819.53,470.05c-3.66,0-7.32,0-10.97,0C812.21,468.71,815.87,468.7,819.53,470.05z"/>
	<path class="st4" d="M757.8,646.27c-2.44,1.5-0.84,3.96-1.41,5.9C755.42,649.86,754.11,647.47,757.8,646.27z"/>
	<path class="st3" d="M1483.74,646.27c-2.43,1.5-0.84,3.95-1.41,5.9C1481.36,649.86,1480.04,647.46,1483.74,646.27z"/>
	<path class="st3" d="M1533.12,497.09c2.01-1.16,4.18-0.86,6.34-0.72C1537.5,497.89,1535.25,496.99,1533.12,497.09z"/>
	<path class="st4" d="M814.55,496.37c2.15-0.14,4.31-0.41,6.3,0.73C818.74,496.98,816.5,497.9,814.55,496.37z"/>
	<path class="st4" d="M807.19,497.09c2.01-1.16,4.18-0.86,6.34-0.72C811.56,497.9,809.31,496.98,807.19,497.09z"/>
	<path class="st4" d="M874.49,533.19c0.06-1.99,0.12-3.98,0.18-5.98C875.93,529.24,876.14,531.24,874.49,533.19z"/>
	<path class="st3" d="M1600.43,533.18c0.06-1.99,0.12-3.98,0.18-5.98C1601.86,529.24,1602.11,531.24,1600.43,533.18z"/>
	<path class="st3" d="M1540.49,496.37c2.15-0.14,4.31-0.41,6.31,0.73C1544.68,496.99,1542.44,497.89,1540.49,496.37z"/>
	<path class="st3" d="M1571.58,537.88c0.54,1.31,0.82,2.94,2.89,2.4C1571.1,542.38,1571.59,539.82,1571.58,537.88z"/>
	<path class="st4" d="M787.44,647.49c-0.95-1.67-0.88-3.48-0.73-5.3C788.13,643.8,787.36,645.7,787.44,647.49z"/>
	<path class="st3" d="M1513.38,647.49c-0.95-1.67-0.88-3.48-0.73-5.3C1514.07,643.8,1513.32,645.7,1513.38,647.49z"/>
	<path class="st3" d="M1483.3,515.21c0.1,1.83,0.07,3.64-0.72,5.35C1482.64,518.76,1481.89,516.84,1483.3,515.21z"/>
	<path class="st3" d="M1902.28,671.19c0.17,1.78,0.16,3.54-0.78,5.15C1901.62,674.6,1900.86,672.73,1902.28,671.19z"/>
	<path class="st3" d="M1935.61,680.16c-0.13-1.82-0.11-3.62,0.73-5.31C1936.29,676.64,1937.04,678.55,1935.61,680.16z"/>
	<path class="st4" d="M757.36,515.22c0.1,1.83,0.06,3.63-0.72,5.34C756.72,518.76,755.95,516.84,757.36,515.22z"/>
	<path class="st4" d="M756.62,532.66c0.85,1.76,0.83,3.64,0.72,5.52C755.93,536.49,756.76,534.51,756.62,532.66z"/>
	<path class="st3" d="M1482.57,532.66c0.86,1.76,0.82,3.64,0.72,5.52C1481.86,536.49,1482.68,534.51,1482.57,532.66z"/>
	<path class="st4" d="M845.63,537.88c0.54,1.31,0.82,2.94,2.89,2.4C845.17,542.37,845.67,539.81,845.63,537.88z"/>
	<path class="st4" d="M809.55,717.36c1.84-0.12,3.66-0.06,5.39,0.7C813.13,717.98,811.2,718.75,809.55,717.36z"/>
	<path class="st4" d="M826.16,718.06c1.71-0.79,3.53-0.84,5.36-0.73C829.9,718.76,827.97,717.98,826.16,718.06z"/>
	<path class="st3" d="M1535.49,717.36c1.84-0.12,3.66-0.07,5.39,0.7C1539.07,718,1537.14,718.76,1535.49,717.36z"/>
	<path class="st3" d="M1552.1,718.06c1.71-0.79,3.53-0.83,5.36-0.73C1555.84,718.77,1553.91,718,1552.1,718.06z"/>
	<path class="st3" d="M1890.87,721.09c1.76-0.93,3.67-0.81,5.56-0.74C1894.74,721.79,1892.74,720.95,1890.87,721.09z"/>
	<path d="M2120.45,713.11c-4.96-17.4-9.89-34.8-14.85-52.2c-6.03-21.17-12.11-42.33-18.11-63.51c-0.69-2.42-1.02-4.24,2.62-5.55
		c6.22-2.25,11.29-6.47,15.37-11.97c7.91-10.67,9.61-23.12,11.14-35.7c0.49-4.99,0.49-9.98,0-14.97c-0.74-4.87-1.2-9.8-2.26-14.6
		c-3.26-14.87-10.9-26.58-24.79-33.77c-8.25-4.27-17.2-5.96-26.14-7.81c-1.83,0.12-3.64,0.12-5.33-0.72c0,0,0,0-0.01,0
		c-3.22-0.09-6.44-0.18-9.66-0.27c-15.81,0.05-31.62,0.2-47.43,0.06c-3.5-0.03-4.74,0.51-4.73,4.47
		c0.14,78.06,0.14,156.11,0.01,234.17c-0.01,3.83,1.02,4.66,4.66,4.54c9.81-0.32,19.63-0.22,29.45-0.28
		c0-36.45,0.06-72.89-0.11-109.34c-0.02-3.79,0.95-4.79,4.64-4.56c5.64,0.34,11.35,0.47,16.96-0.04c3.89-0.36,5.11,1.58,5.84,4.52
		c3.27,13.22,7.07,26.29,10.83,39.38c3.98,13.86,7.4,27.88,11.28,41.76c2.68,9.6,5.74,19.09,8.63,28.63
		c10.57,0.65,21.16,0.17,31.74,0.26c0.64,0.01,0.79-0.49,1.13-0.81C2121.02,714.24,2120.62,713.7,2120.45,713.11z M2082.28,553.16
		c-2.86,13.88-12.25,21.37-28.15,23.02c-6.64,0.69-13.29,0.59-19.94,0.78c-3.12,0.09-3.93-0.85-3.88-3.91
		c0.17-12.15,0.07-24.3,0.07-36.44c0-11.98,0.15-23.97-0.09-35.94c-0.07-3.62,1.08-4.44,4.49-4.32c7.14,0.27,14.3,0.02,21.44,0.78
		c15.68,1.67,23.75,8.85,26.47,24.28C2084.54,531.99,2084.44,542.65,2082.28,553.16z"/>
	<path d="M961.47,472.26c0.03,73.46,0.06,146.91,0.08,220.37c0,7.49-0.05,14.99-0.08,22.48c-9.66,0.03-19.32-0.12-28.97,0.18
		c-3.62,0.11-4.28-1.06-4.27-4.44c0.12-41.3,0.08-82.6,0.08-123.9c0-36.64,0.05-73.28-0.08-109.92c-0.01-3.73,0.69-5.11,4.77-4.96
		C942.48,472.44,951.98,472.23,961.47,472.26z"/>
</g>
</svg>
