<?xml version="1.0" encoding="UTF-8" standalone="no"?>
<!-- Created with Inkscape (http://www.inkscape.org/) -->

<svg
   xmlns:dc="http://purl.org/dc/elements/1.1/"
   xmlns:cc="http://creativecommons.org/ns#"
   xmlns:rdf="http://www.w3.org/1999/02/22-rdf-syntax-ns#"
   xmlns:svg="http://www.w3.org/2000/svg"
   xmlns="http://www.w3.org/2000/svg"
   xmlns:sodipodi="http://sodipodi.sourceforge.net/DTD/sodipodi-0.dtd"
   xmlns:inkscape="http://www.inkscape.org/namespaces/inkscape"
   version="1.1"
   id="svg2"
   width="2205.8259"
   height="774.7757"
   viewBox="0 0 2205.8259 774.7757"
   sodipodi:docname="SSITituloSemFundo.svg"
   inkscape:version="0.92.4 (5da689c313, 2019-01-14)">
  <metadata
     id="metadata8">
    <rdf:RDF>
      <cc:Work
         rdf:about="">
        <dc:format>image/svg+xml</dc:format>
        <dc:type
           rdf:resource="http://purl.org/dc/dcmitype/StillImage" />
        <dc:title></dc:title>
      </cc:Work>
    </rdf:RDF>
  </metadata>
  <defs
     id="defs6" />
  <sodipodi:namedview
     pagecolor="#ffffff"
     bordercolor="#666666"
     borderopacity="1"
     objecttolerance="10"
     gridtolerance="10"
     guidetolerance="10"
     inkscape:pageopacity="0"
     inkscape:pageshadow="2"
     inkscape:window-width="1920"
     inkscape:window-height="1017"
     id="namedview4"
     showgrid="false"
     inkscape:pagecheckerboard="true"
     showborder="true"
     inkscape:zoom="0.53033009"
     inkscape:cx="1093.155"
     inkscape:cy="371.52773"
     inkscape:window-x="-8"
     inkscape:window-y="-8"
     inkscape:window-maximized="1"
     inkscape:current-layer="svg2"
     fit-margin-top="0"
     fit-margin-left="0"
     fit-margin-right="0"
     fit-margin-bottom="0" />
  <g
     id="g46"
     transform="matrix(2.170774,0,0,2.170774,776.28472,-31.838019)"
     style="fill:#ffffff">
    <path
       style="fill:#ffffff"
       d="m 20.08898,370.24826 c -3.95913,-1.72395 -8.82377,-7.64044 -10.28089,-12.50387 -1.57702,-5.26363 -1.57702,-72.89181 0,-78.15544 1.49566,-4.99205 6.37603,-10.82271 10.50166,-12.54651 4.20171,-1.75559 12.48269,-1.76788 16.65465,-0.0247 4.1198,1.72137 9.10147,7.37672 10.8464,12.31319 1.95955,5.54364 1.95955,73.1279 0,78.67154 -1.74493,4.93647 -6.7266,10.59182 -10.8464,12.31319 -4.09887,1.71261 -12.86799,1.6776 -16.87542,-0.0674 z m 11.57768,-14.55965 c 1.27756,-0.80694 1.54255,-6.14265 1.78691,-35.98147 0.19283,-23.54709 -0.0646,-35.69085 -0.78519,-37.03725 -1.44004,-2.69075 -5.49031,-2.57145 -7.44502,0.21929 -1.33385,1.90434 -1.5567,7.02607 -1.5567,35.77749 0,28.75142 0.22285,33.87315 1.5567,35.77749 1.6501,2.35585 3.97331,2.80455 6.4433,1.24445 z m 28,-37.02194 v -52 l 6.75,0.005 6.75,0.005 8,29.57553 8,29.57553 0.26488,-29.58069 0.26488,-29.58069 h 6.98512 6.98512 v 52 52 l -6.75,-0.008 -6.75,-0.008 -8,-29.47197 -8,-29.47196 -0.26488,29.47963 -0.26488,29.47964 h -6.98512 -6.98512 v -52 z m 56,0 v -52 h 7.5 7.5 v 45 45 h 10 10 v 7 7 h -17.5 -17.5 z m 42,0 v -52 h 7.5 7.5 v 52 52 h -7.5 -7.5 z m 26,0 v -52 h 6.96146 6.96145 l 1.12944,4.25 c 5.14097,19.34512 14.94738,54.08306 15.39336,54.52905 0.30486,0.30485 0.55429,-12.79572 0.55429,-29.11238 v -29.66667 h 7 7 v 52 52 h -6.96146 -6.96145 l -1.12944,-4.25 c -5.14097,-19.34512 -14.94738,-54.08306 -15.39336,-54.52905 -0.30486,-0.30485 -0.55429,12.79572 -0.55429,29.11238 v 29.66667 h -7 -7 z m 56,0 v -52 h 17.5 17.5 v 8 8 h -9.5 -9.5 v 13.5 13.5 h 7.04044 7.04044 l -0.29044,8.25 -0.29044,8.25 -6.75,0.29569 -6.75,0.29569 v 13.95431 13.95431 h 9.5 9.5 v 8 8 h -17.5 -17.5 z m 291,-47.31391 c 0,-0.23905 0.64068,-2.25053 1.42374,-4.46995 1.53177,-4.34151 1.2651,-5.21614 -1.59041,-5.21614 -1.50617,0 -1.83333,-0.80303 -1.83333,-4.5 v -4.5 h 6.5 6.5 l -0.0775,4.25 c -0.0426,2.3375 -0.86625,6.5 -1.83027,9.25 -1.63263,4.65729 -2.0043,5.02127 -5.4225,5.31037 -2.01835,0.1707 -3.66973,0.11477 -3.66973,-0.12428 z m -874.39568,-26.72452 c -7.17075,-2.14583 -12.16199,-10.35252 -13.22003,-21.73665 l -0.65829,-7.08289 3.387,-0.51965 c 1.86285,-0.2858 5.24069,-0.71705 7.50632,-0.95833 l 4.11932,-0.43868 0.63384,6.13731 c 0.72348,7.00524 3.12037,10.99246 6.87972,11.44441 3.66815,0.44099 5.7478,-3.01861 5.7478,-9.56171 0,-7.00631 -1.36308,-9.99256 -11.49153,-25.17589 -11.42834,-17.13194 -13.95181,-23.21541 -13.92487,-33.56949 0.0161,-6.18111 0.50071,-8.90944 2.13153,-12 4.32873,-8.20337 9.54246,-11.5 18.18765,-11.5 8.43977,0 13.4866,2.98022 17.15325,10.12923 2.08373,4.06272 4.30146,15.93817 3.17385,16.9952 -0.40143,0.37632 -3.87988,0.83976 -7.72988,1.02989 l -7,0.34568 -0.53796,-5 c -0.7128,-6.62498 -2.39188,-9.5 -5.54825,-9.5 -1.95569,0 -2.85987,0.82336 -4.06096,3.69799 -2.9066,6.95646 -0.84041,12.6747 10.90839,30.18936 3.8323,5.71305 8.56628,13.75327 10.51996,17.86717 3.05574,6.4345 3.54805,8.47664 3.52281,14.61265 -0.0519,12.61128 -3.77989,20.25812 -11.71121,24.02178 -3.65527,1.73454 -13.10087,2.03522 -17.98846,0.57262 z m 74.42543,-0.54504 c -4.57512,-1.98443 -6.83784,-4.12353 -9.14637,-8.6467 -2.01257,-3.9433 -4.68191,-18.30463 -3.60284,-19.3837 0.56713,-0.56714 13.88461,-2.3492 14.4467,-1.93317 0.12498,0.0925 0.66019,3.22534 1.18934,6.96185 1.0477,7.39806 3.06964,10.58519 6.71535,10.58519 5.69548,0 7.69269,-11.72688 3.40621,-20 -1.28235,-2.475 -5.47048,-9.1794 -9.30695,-14.89866 -12.01741,-17.91509 -15.74971,-28.45771 -13.77008,-38.89627 1.20132,-6.33455 2.96318,-9.85623 6.69961,-13.39145 3.75268,-3.55059 7.36514,-4.8183 13.65438,-4.79166 7.41417,0.0314 12.93168,2.83249 16.02646,8.13617 2.83084,4.85137 5.56183,17.38064 4.08552,18.74363 -0.5099,0.47075 -3.92986,1.08083 -7.59993,1.35573 l -6.67285,0.49982 -0.67232,-5.12866 c -0.8497,-6.48181 -2.80077,-9.62865 -5.96985,-9.62865 -3.18476,0 -4.51213,2.63772 -4.51213,8.96638 0,6.69651 1.14266,9.19558 10.98895,24.03362 10.07004,15.17521 13.74405,22.73917 14.59346,30.04459 1.35248,11.63226 -3.44761,23.25947 -11.13949,26.98304 -4.93753,2.39022 -14.36372,2.57905 -19.41317,0.3889 z m 259.11541,0.51352 c -7.8731,-3.15337 -12.00792,-10.07614 -12.87631,-21.55832 -0.62416,-8.25272 -1.06586,-7.84882 9.48115,-8.66959 l 5.25,-0.40855 v 4.33297 c 0,5.49481 2.61374,12.11607 5.09349,12.90311 7.28101,2.3109 10.41167,-8.60742 5.4955,-19.16581 -1.31531,-2.82488 -5.64087,-9.97928 -9.61234,-15.89866 -3.97147,-5.91939 -8.62841,-13.73312 -10.34876,-17.36386 -2.74078,-5.78435 -3.12789,-7.65331 -3.12789,-15.10134 0,-10.94504 2.61021,-16.84558 9.33989,-21.11342 8.017,-5.08423 19.7867,-3.68436 25.43214,3.02487 3.16286,3.75884 5.72797,11.71666 5.72797,17.77005 v 4.3185 h -4.375 c -2.40625,0 -5.72185,0.26937 -7.36799,0.5986 l -2.993,0.5986 -0.46299,-5.5831 c -1.02941,-12.41329 -10.73802,-12.7121 -10.78628,-0.33198 -0.0207,5.31682 1.53162,8.51816 11.43894,23.59011 11.69014,17.78415 13.90065,22.73307 14.36644,32.16377 0.63112,12.77803 -2.82282,20.68906 -10.79008,24.714 -4.76903,2.40924 -14.32509,3.00637 -18.88488,1.18005 z m 314.27716,-0.34846 c -3.95913,-1.72395 -8.82377,-7.64044 -10.28089,-12.50387 -0.76165,-2.54216 -1.14143,-15.54427 -1.14143,-39.07772 0,-23.53345 0.37978,-36.53556 1.14143,-39.07772 1.49566,-4.99205 6.37603,-10.82271 10.50166,-12.54651 4.20171,-1.75559 12.48269,-1.76788 16.65465,-0.0247 4.1198,1.72137 9.10147,7.37672 10.8464,12.31319 1.95955,5.54364 1.95955,73.1279 0,78.67154 -1.74493,4.93647 -6.7266,10.59182 -10.8464,12.31319 -4.09887,1.71261 -12.86799,1.6776 -16.87542,-0.0674 z m 11.57768,-14.55965 c 1.27756,-0.80694 1.54255,-6.14265 1.78691,-35.98147 0.19283,-23.54709 -0.0646,-35.69085 -0.78519,-37.03725 -1.44004,-2.69075 -5.49031,-2.57145 -7.44502,0.21929 -1.33385,1.90434 -1.5567,7.02607 -1.5567,35.77749 0,28.75142 0.22285,33.87315 1.5567,35.77749 1.6501,2.35585 3.97331,2.80455 6.4433,1.24445 z m 211.42232,14.55965 c -3.95913,-1.72395 -8.82377,-7.64044 -10.28089,-12.50387 -0.76165,-2.54216 -1.14143,-15.54427 -1.14143,-39.07772 0,-38.18621 0.25601,-40.42855 5.31664,-46.56797 3.73638,-4.53288 8.07185,-6.43203 14.68336,-6.43203 6.50629,0 10.75193,1.8145 14.65976,6.26527 4.31935,4.91947 5.58777,9.4966 5.7236,20.65383 l 0.11664,9.5809 -7.25,0.29381 -7.25,0.29381 v -8.8213 c 0,-9.83802 -1.42132,-13.26632 -5.5,-13.26632 -5.26826,0 -5.50127,1.59182 -5.48526,37.47251 0.016,35.79013 0.28187,37.76481 5.16174,38.33458 4.3474,0.5076 5.82352,-2.80619 5.82352,-13.07341 v -8.8213 l 7.25,0.29381 7.25,0.29381 -0.11664,9.5809 c -0.0642,5.2695 -0.67429,11.27059 -1.35586,13.33577 -1.58504,4.80272 -6.58175,10.49914 -10.72976,12.23229 -4.09887,1.71261 -12.86799,1.6776 -16.87542,-0.0674 z m 102,0 c -3.95913,-1.72395 -8.82377,-7.64044 -10.28089,-12.50387 -0.76165,-2.54216 -1.14143,-15.54427 -1.14143,-39.07772 0,-23.53345 0.37978,-36.53556 1.14143,-39.07772 1.49566,-4.99205 6.37603,-10.82271 10.50166,-12.54651 4.20171,-1.75559 12.48269,-1.76788 16.65461,-0.0247 4.1198,1.72137 9.1015,7.37672 10.8464,12.31319 1.9596,5.54364 1.9596,73.1279 0,78.67154 -1.7449,4.93647 -6.7266,10.59182 -10.8464,12.31319 -4.09883,1.71261 -12.86795,1.6776 -16.87538,-0.0674 z m 11.57768,-14.55965 c 1.27756,-0.80694 1.54255,-6.14265 1.78691,-35.98147 0.19283,-23.54709 -0.0646,-35.69085 -0.78519,-37.03725 -1.44004,-2.69075 -5.49031,-2.57145 -7.44502,0.21929 -1.33385,1.90434 -1.5567,7.02607 -1.5567,35.77749 0,28.75142 0.22285,33.87315 1.5567,35.77749 1.6501,2.35585 3.97331,2.80455 6.4433,1.24445 z m -946,-37.02194 v -52 h 7.5 7.5 v 52 52 h -7.5 -7.5 z m 84,8 v -44 h -7 -7 v -8 -8 h 22 22 v 8 8 h -7 -7 v 44 44 h -8 -8 z m 36,-8 v -52 h 17.5 17.5 v 8 8 h -10 -10 v 13.5 13.5 h 7 7 v 8.5 8.5 h -7 -7 v 14 14 h 10 10 v 8 8 h -17.5 -17.5 z m 43,-0.0362 v -52.03621 l 9.67728,0.28621 9.67728,0.28621 4.73669,24.5 c 2.60518,13.475 4.81057,24.725 4.90087,25 0.0903,0.275 2.13962,-9.85 4.55404,-22.5 2.41443,-12.65 4.63783,-24.0125 4.9409,-25.25 0.52322,-2.13637 1.02984,-2.25 10.03199,-2.25 h 9.48095 v 52 52 h -7.5 -7.5 l -0.0994,-34.25 -0.0994,-34.25 -5.17781,34 -5.1778,34 h -3.4386 -3.4386 l -5.18457,-34.5 -5.18457,-34.5 -0.0996,34.75 -0.0997,34.74999 h -7.5 -7.5 v -52.03621 z m 65,50.65329 c 0,-0.76061 3.375,-23.68886 7.5,-50.95166 4.125,-27.26281 7.5,-50.0405 7.5,-50.61708 0,-0.6574 3.53554,-1.04834 9.48095,-1.04834 9.01699,0 9.50546,0.1101 9.98191,2.25 0.27552,1.2375 3.66445,23.4 7.53094,49.25 3.86649,25.85 7.28539,48.2375 7.59755,49.75 l 0.56756,2.75 h -7.5 c -8.4621,0 -7.83429,0.71766 -9.18537,-10.5 -1.35699,-11.26671 -0.70672,-10.5 -8.90529,-10.5 h -7.27284 l -1.29541,10.5 -1.29541,10.5 h -7.3523 c -5.59206,-1e-5 -7.35229,-0.3311 -7.35229,-1.38293 z m 29.32644,-36.36709 c 0.50508,-0.85225 -3.8564,-34.11329 -4.56632,-34.82321 -0.40464,-0.40464 -2.59848,14.62147 -4.42724,30.32321 l -0.61146,5.25 h 4.58027 c 2.51915,0 4.78029,-0.3375 5.02475,-0.75 z m 97.67356,-14.35042 v -52.10043 l 12.75,0.35589 c 14.71242,0.41067 20.01149,2.24701 24.1572,8.37142 4.22683,6.24426 5.23054,12.46333 5.80583,35.97354 1.25934,51.46448 -3.16523,59.5 -32.76225,59.5 h -9.95078 z m 21.64245,35.64651 c 4.33046,-1.23822 4.85755,-5.0953 4.85755,-35.54609 0,-30.83474 -0.49983,-34.28904 -5.22127,-36.08413 -5.54801,-2.10935 -5.27873,-3.95351 -5.27873,36.15152 0,40.79646 -0.56351,37.2532 5.64245,35.4787 z m 31.35755,-35.54609 v -52 h 17.5 17.5 v 8 8 h -9.5 -9.5 v 13.5 13.5 h 7.04044 7.04044 l -0.29044,8.25 -0.29044,8.25 -6.75,0.29569 -6.75,0.29569 v 13.95431 13.95431 h 9.5 9.5 v 8 8 h -17.5 -17.5 z m 65,0 v -52 h 8 8 v 52 52 h -8 -8 z m 27,0 v -52 h 6.96146 6.96145 l 1.12944,4.25 c 5.14097,19.34512 14.94738,54.08306 15.39336,54.52905 0.30486,0.30485 0.55429,-12.79572 0.55429,-29.11238 v -29.66667 h 7 7 v 52 52 h -6.96146 -6.96145 l -1.12944,-4.25 c -5.14097,-19.34512 -14.94738,-54.08306 -15.39336,-54.52905 -0.30486,-0.30485 -0.55429,12.79572 -0.55429,29.11238 v 29.66667 h -7 -7 z m 56,0 v -52 h 18.54206 18.54207 l -0.29207,7.75 -0.29206,7.75 -10.25,0.28498 -10.25,0.28499 v 13.46501 13.46502 h 7.04206 7.04207 l -0.29207,7.75 -0.29206,7.75 -6.75,0.29569 -6.75,0.29569 v 22.45431 22.45431 h -8 -8 z m 93,-0.10283 v -52.10282 l 12.25,0.38934 c 10.2057,0.32437 12.94958,0.75719 16.44207,2.59359 8.40277,4.41831 12.30793,12.88994 12.30793,26.70015 0,9.48697 -2.00245,17.18359 -5.57546,21.42987 l -2.52613,3.00215 4.87733,25.04527 4.87733,25.04528 h -7.72053 -7.72053 l -2.15808,-11.75 c -1.18694,-6.4625 -2.94665,-16.25 -3.91047,-21.75 -1.55748,-8.88766 -1.99663,-10.03555 -3.94793,-10.31955 l -2.19553,-0.31955 v 22.06955 22.06955 h -7.5 -7.5 z m 22.98074,-9.46194 c 2.10481,-2.07208 2.53747,-3.56556 2.85509,-9.85527 0.46386,-9.18586 -1.02557,-14.1096 -4.86946,-16.09735 -5.93989,-3.07164 -5.96637,-3.00895 -5.96637,14.1258 v 15.60841 l 2.75,-0.66971 c 1.5125,-0.36834 3.86633,-1.76868 5.23074,-3.11188 z m 28.01926,9.56477 v -52 h 9.5 c 5.225,0 9.50782,0.1125 9.51738,0.25 0.01,0.1375 2.20455,11.725 4.87775,25.75 3.89758,20.44873 4.99669,24.80669 5.54853,22 0.37849,-1.925 2.57631,-13.4 4.88405,-25.5 l 4.19587,-22 9.23821,-0.28753 9.23821,-0.28752 v 52.03752 52.03753 h -6.98704 -6.98704 l -0.26296,-34.75 -0.26296,-34.75 -4.82086,32.5 c -2.65147,17.875 -5.06275,33.5125 -5.3584,34.75 -0.41862,1.75218 -1.24506,2.25 -3.73529,2.25 h -3.19773 l -4.75405,-32.75 c -2.61472,-18.0125 -5.1465,-33.65 -5.62618,-34.75 -0.51939,-1.19108 -0.8995,12.05495 -0.93981,32.75 l -0.0677,34.75 h -7 -7 z m 64.57001,50.29057 c 0.22219,-0.98481 3.56741,-22.94057 7.43381,-48.79057 3.86641,-25.85 7.29734,-48.4625 7.6243,-50.25 l 0.59446,-3.25 h 9.27742 9.27742 l 0.58791,3.25 c 0.32335,1.7875 3.75237,24.4 7.62006,50.25 3.86768,25.85 7.21585,47.80576 7.44037,48.79057 0.36912,1.61906 -0.32525,1.76274 -7.24922,1.5 l -7.65744,-0.29057 -0.62696,-4.5 c -0.34482,-2.475 -0.944,-7.0875 -1.3315,-10.25 l -0.70455,-5.75 h -7.35609 -7.35609 l -0.70455,5.75 c -0.3875,3.1625 -0.98668,7.775 -1.3315,10.25 l -0.62696,4.5 -7.65744,0.29057 c -6.92268,0.26269 -7.61868,0.11876 -7.25345,-1.5 z m 29.5841,-35.77801 c 0.41119,-0.41119 -0.92371,-11.75015 -3.69123,-31.35421 -0.3371,-2.38791 -0.80401,-4.15056 -1.03757,-3.91699 -0.68228,0.68228 -5.09521,34.75541 -4.56939,35.28123 0.62768,0.62767 8.66916,0.619 9.29819,-0.01 z m 72.4159,35.77801 c 0.22219,-0.98481 3.56741,-22.94057 7.43381,-48.79057 3.86641,-25.85 7.29734,-48.4625 7.6243,-50.25 l 0.59446,-3.25 h 9.27742 9.27742 l 0.58791,3.25 c 0.32335,1.7875 3.75237,24.4 7.62006,50.25 3.86768,25.85 7.21585,47.80576 7.44037,48.79057 0.36912,1.61906 -0.32525,1.76274 -7.24922,1.5 l -7.65744,-0.29057 -0.62696,-4.5 c -0.34482,-2.475 -0.944,-7.0875 -1.3315,-10.25 l -0.70455,-5.75 h -7.35609 -7.35609 l -0.70455,5.75 c -0.3875,3.1625 -0.98668,7.775 -1.3315,10.25 l -0.62696,4.5 -7.65744,0.29057 c -6.92268,0.26269 -7.61868,0.11876 -7.25345,-1.5 z m 29.5841,-35.77801 c 0.41119,-0.41119 -0.92371,-11.75015 -3.69123,-31.35421 -0.3371,-2.38791 -0.80401,-4.15056 -1.03757,-3.91699 -0.68228,0.68228 -5.09521,34.75541 -4.56939,35.28123 0.62768,0.62767 8.66916,0.619 9.29819,-0.01 z m -4.64856,-76.29904 c -4.47202,-1.11621 -6.94827,-1.24162 -9.75,-0.49379 l -3.75555,1.00241 v -5.38582 c 0,-4.95125 0.22189,-5.47154 2.75,-6.44812 1.62876,-0.62918 4.58476,-0.76094 7.25,-0.32318 2.475,0.40652 7.31279,0.78319 10.75063,0.83705 l 6.25064,0.0979 -6.4e-4,4.69098 c -3.4e-4,2.58004 -0.46529,4.97816 -1.0332,5.32915 -3.01026,1.86044 -6.91555,2.07774 -12.46188,0.69339 z M -63.72902,119.62824 c -7.17075,-2.14583 -12.16199,-10.35253 -13.22003,-21.736651 l -0.65829,-7.082893 3.387,-0.519648 c 1.86285,-0.285805 5.24069,-0.717054 7.50632,-0.95833 l 4.11932,-0.438683 0.63384,6.137316 c 0.72348,7.005239 3.12037,10.992459 6.87972,11.444409 3.66815,0.44098 5.7478,-3.01861 5.7478,-9.561718 0,-7.006305 -1.36308,-9.992559 -11.49153,-25.175881 -11.42834,-17.131947 -13.95181,-23.215417 -13.92487,-33.569494 0.0161,-6.181115 0.50071,-8.909443 2.13153,-12 4.32873,-8.203371 9.54246,-11.5 18.18765,-11.5 8.43977,0 13.4866,2.980224 17.15325,10.129234 2.08373,4.062716 4.30146,15.938165 3.17385,16.995201 -0.40143,0.37631 -3.87988,0.839758 -7.72988,1.029883 l -7,0.345682 -0.53796,-5 c -0.7128,-6.624985 -2.39188,-9.5 -5.54825,-9.5 -1.95569,0 -2.85987,0.823361 -4.06096,3.697995 -2.9066,6.956454 -0.84041,12.674696 10.90839,30.189357 3.8323,5.713043 8.56628,13.753268 10.51997,17.867166 3.05573,6.434502 3.54804,8.476637 3.5228,14.612649 -0.0519,12.611286 -3.77989,20.258126 -11.71121,24.021786 -3.65527,1.73454 -13.10087,2.03522 -17.98846,0.57262 z m 38.39568,-51.961573 v -52 h 17.5 17.5 v 8 8 h -10 -10 v 13.5 13.5 h 7 7 v 8.5 8.5 h -7 -7 v 14 14.000003 h 10 10 v 8 8 h -17.5 -17.5 z m 43,-0.03621 V 15.594243 l 9.67728,0.286212 9.67728,0.286212 4.73669,24.5 c 2.60518,13.475 4.81057,24.725 4.90087,25 0.0903,0.275 2.13962,-9.85 4.55404,-22.5 2.41443,-12.65 4.63783,-24.0125 4.9409,-25.25 0.52322,-2.136374 1.02984,-2.25 10.03199,-2.25 h 9.48095 v 52 52.000003 h -7.5 -7.5 l -0.0994,-34.250003 -0.0994,-34.25 -5.17781,34 -5.1778,34.000003 h -3.4386 -3.4386 l -5.18454,-34.500003 -5.18457,-34.5 -0.09964,34.75 -0.09964,34.750003 h -7.5 -7.5 z m 65,50.653293 c 0,-0.76061 3.375,-23.688857 7.5,-50.951664 4.125,-27.262808 7.5,-50.040493 7.5,-50.617079 0,-0.657402 3.53554,-1.048338 9.48095,-1.048338 9.01699,0 9.50546,0.110105 9.98191,2.25 0.27552,1.2375 3.66445,23.4 7.53094,49.25 3.86649,25.85 7.28539,48.237501 7.59755,49.750001 l 0.56756,2.75 h -7.5 c -8.4621,0 -7.83429,0.71766 -9.18537,-10.5 -1.35699,-11.266712 -0.70672,-10.500001 -8.90529,-10.500001 h -7.27284 l -1.29541,10.500001 -1.29541,10.5 h -7.3523 c -5.59206,0 -7.35229,-0.33109 -7.35229,-1.38292 z M 111.9931,81.916667 c 0.50508,-0.85225 -3.8564,-34.113292 -4.56632,-34.823211 -0.40464,-0.404642 -2.59848,14.621475 -4.42724,30.323211 l -0.61146,5.25 h 4.58027 c 2.51915,0 4.78029,-0.3375 5.02475,-0.75 z m 27.67356,-14.25 v -52 h 6.84888 6.84889 l 7.90111,29.052614 7.90112,29.052614 0.2651,-29.052614 0.26511,-29.052614 h 7.48489 7.4849 v 52.04381 52.043813 l -7.13275,-0.29381 -7.13276,-0.29381 -8.11724,-29.500003 -8.11725,-29.5 -0.26488,29.75 -0.26488,29.750003 h -6.98512 -6.98512 z m 52,50.617083 c 0,-0.76061 3.375,-23.688859 7.5,-50.951666 4.125,-27.262808 7.5,-50.040493 7.5,-50.617079 0,-0.657402 3.53554,-1.048338 9.48095,-1.048338 9.01699,0 9.50546,0.110105 9.98191,2.25 0.27552,1.2375 3.66445,23.4 7.53094,49.25 3.86649,25.85 7.28539,48.237503 7.59755,49.750003 l 0.56756,2.75 h -7.5 c -8.4621,0 -7.83429,0.71766 -9.18537,-10.5 -1.35699,-11.266714 -0.70672,-10.500003 -8.90529,-10.500003 h -7.27284 l -1.29541,10.500003 -1.29541,10.5 h -7.3523 c -5.59206,0 -7.35229,-0.33109 -7.35229,-1.38292 z M 220.9931,81.916667 c 0.50508,-0.85225 -3.8564,-34.113292 -4.56632,-34.823211 -0.40464,-0.404642 -2.59848,14.621475 -4.42724,30.323211 l -0.61146,5.25 h 4.58027 c 2.51915,0 4.78029,-0.3375 5.02475,-0.75 z M 270.66666,67.669144 V 15.430181 l 12.75,0.429623 c 17.90269,0.603249 22.84398,3.375494 26.93843,15.113443 1.59812,4.581491 1.81157,8.846083 1.81157,36.19342 0,26.760358 -0.24051,31.77729 -1.7586,36.683503 -3.66865,11.85643 -9.02519,14.89485 -27.4914,15.59409 l -12.25,0.46385 z m 22.35203,35.237186 c 0.46862,-0.2661 1.48112,-1.98943 2.25,-3.829622 1.0846,-2.595813 1.39797,-9.636648 1.39797,-31.410041 0,-30.750072 -0.51392,-34.104295 -5.51673,-36.006361 -5.7823,-2.198425 -5.48327,-4.125659 -5.48327,35.339694 0,19.983334 0.29181,36.62514 0.64846,36.98179 0.62235,0.62235 4.93092,-0.0689 6.70357,-1.07546 z m 30.64797,-35.239663 v -52 h 17.54206 17.54207 l -0.29207,7.75 -0.29206,7.75 -9.75,0.286212 -9.75,0.286212 v 13.463788 13.463788 h 7 7 v 8.5 8.5 h -7 -7 v 14 14.000003 h 10 10 v 8 8 h -17.5 -17.5 z"
       id="path60"
       inkscape:connector-curvature="0" />
    <path
       style="fill:#ffffff"
       d="m 255.06405,340.66667 c 0,-7.975 0.1553,-11.2375 0.34512,-7.25 0.18981,3.9875 0.18981,10.5125 0,14.5 -0.18982,3.9875 -0.34512,0.725 -0.34512,-7.25 z m -205.95198,-22 c 0,-17.325 0.13621,-24.4125 0.30269,-15.75 0.16648,8.6625 0.16648,22.8375 0,31.5 -0.16648,8.6625 -0.30269,1.575 -0.30269,-15.75 z m 206.01064,-22.74866 0.0439,-13.75134 9.75232,-0.0573 9.75233,-0.0573 -9.47434,0.34319 -9.47434,0.3432 -0.32194,13.46547 -0.32194,13.46546 0.044,-13.75134 z m 273.82996,-38.75134 c 0.008,-2.75 0.20172,-3.75631 0.43157,-2.23625 0.22986,1.52006 0.22371,3.77006 -0.0136,5 -0.23736,1.22994 -0.42542,-0.0137 -0.41792,-2.76375 z m 12,0 c 0.008,-2.75 0.20172,-3.75631 0.43157,-2.23625 0.22986,1.52006 0.22371,3.77006 -0.0136,5 -0.23736,1.22994 -0.42542,-0.0137 -0.41792,-2.76375 z m -746.80161,-57 0.0156,-44 7,-0.0656 7,-0.0656 -6.73963,0.3592 -6.73963,0.3592 -0.27597,43.7064 -0.27598,43.7064 0.0156,-44 z m 63.98093,-7.5 c 0,-28.875 0.12777,-40.6875 0.28394,-26.25 0.15616,14.4375 0.15616,38.0625 0,52.5 -0.15617,14.4375 -0.28394,2.625 -0.28394,-26.25 z m 13.752,17.80902 c -0.11953,-19.08004 0.12017,-34.90012 0.53267,-35.15572 0.4125,-0.2556 0.6353,9.73034 0.49512,22.19098 -0.48773,43.35315 -0.8118,47.44105 -1.02779,12.96474 z m 28.55809,-0.40513 c -0.15148,-19.02786 0.0621,-34.80441 0.47458,-35.05901 0.4125,-0.2546 0.75,15.31364 0.75,34.5961 0,19.28246 -0.21356,35.05902 -0.47458,35.05902 -0.26102,0 -0.59852,-15.56825 -0.75,-34.59611 z M 50.13199,192.66667 c 0,-28.875 0.12777,-40.6875 0.28394,-26.25 0.15616,14.4375 0.15616,38.0625 0,52.5 -0.15617,14.4375 -0.28394,2.625 -0.28394,-26.25 z m 118,0 c 0,-28.875 0.12777,-40.6875 0.28394,-26.25 0.15616,14.4375 0.15616,38.0625 0,52.5 -0.15617,14.4375 -0.28394,2.625 -0.28394,-26.25 z m 97.96346,29.5 c 7e-4,-12.65 0.14401,-17.68711 0.31847,-11.19358 0.17445,6.49353 0.17388,16.84353 -0.001,23 -0.17516,6.15647 -0.31789,0.84358 -0.31719,-11.80642 z m -148.0314,-7.5 c 0,-7.975 0.1553,-11.2375 0.34512,-7.25 0.18981,3.9875 0.18981,10.5125 0,14.5 -0.18982,3.9875 -0.34512,0.725 -0.34512,-7.25 z m 215.04802,-22 c 0,-17.325 0.13621,-24.4125 0.30269,-15.75 0.16648,8.6625 0.16648,22.8375 0,31.5 -0.16648,8.6625 -0.30269,1.575 -0.30269,-15.75 z m 222.8908,24 c 0,-4.125 0.17651,-5.8125 0.39226,-3.75 0.21574,2.0625 0.21574,5.4375 0,7.5 -0.21575,2.0625 -0.39226,0.375 -0.39226,-3.75 z m 102.10919,-24 c 0,-17.325 0.1362,-24.4125 0.3027,-15.75 0.1665,8.6625 0.1665,22.8375 0,31.5 -0.1665,8.6625 -0.3027,1.575 -0.3027,-15.75 z m -987.28751,28 c 0,-1.375 0.22698,-1.9375 0.50439,-1.25 0.27741,0.6875 0.27741,1.8125 0,2.5 -0.27741,0.6875 -0.50439,0.125 -0.50439,-1.25 z m 47,0 c 0,-1.375 0.22698,-1.9375 0.50439,-1.25 0.27741,0.6875 0.27741,1.8125 0,2.5 -0.27741,0.6875 -0.50439,0.125 -0.50439,-1.25 z m -32,-1 c 0,-1.375 0.22698,-1.9375 0.50439,-1.25 0.27741,0.6875 0.27741,1.8125 0,2.5 -0.27741,0.6875 -0.50439,0.125 -0.50439,-1.25 z m 47,0 c 0,-1.375 0.22698,-1.9375 0.50439,-1.25 0.27741,0.6875 0.27741,1.8125 0,2.5 -0.27741,0.6875 -0.50439,0.125 -0.50439,-1.25 z m 359,-8 c 0,-1.375 0.22698,-1.9375 0.50439,-1.25 0.27741,0.6875 0.27741,1.8125 0,2.5 -0.27741,0.6875 -0.50439,0.125 -0.50439,-1.25 z M -113.66667,192 c -0.36667,-0.36666 -0.66667,-1.13166 -0.66667,-1.7 0,-0.6266 0.46577,-0.56756 1.18333,0.15 0.65084,0.65084 0.95084,1.41584 0.66667,1.7 -0.28417,0.28417 -0.81667,0.21667 -1.18333,-0.15 z m 231.78938,-22.08199 0.0439,-13.75134 9.75232,-0.0573 9.75233,-0.0573 -9.47434,0.34319 -9.47434,0.3432 -0.32194,13.46547 -0.32194,13.46546 0.044,-13.75134 z m 148,0 0.0439,-13.75134 10.20856,-0.28453 10.20855,-0.28452 0.36345,-7.71548 0.36345,-7.71547 -0.072,8 -0.072,8 -10.22201,0.28467 -10.222,0.28468 -0.32195,13.46667 -0.32195,13.46666 z m 282.25101,6.03141 7.20705,-0.36864 0.35855,-6.70705 0.35854,-6.70706 -0.0656,7 -0.0656,7 -7.5,0.0757 -7.5,0.0757 7.20706,-0.36863 z M 91.82455,173.66667 c 0,-1.375 0.22698,-1.9375 0.50439,-1.25 0.27741,0.6875 0.27741,1.8125 0,2.5 -0.27741,0.6875 -0.50439,0.125 -0.50439,-1.25 z m 278.09429,-2.5 c 0.0111,-2.2 0.21589,-2.98225 0.45508,-1.73834 0.23919,1.24391 0.23011,3.04391 -0.0202,4 -0.25029,0.95609 -0.446,-0.0617 -0.4349,-2.26166 z m -699.17323,-5.08333 c 0.048,-1.16495 0.28494,-1.4019 0.60416,-0.60417 0.28888,0.72187 0.25335,1.58437 -0.0789,1.91667 -0.33229,0.33229 -0.56864,-0.25834 -0.52522,-1.3125 z m 14.13162,0.18419 c 0.70919,-0.76953 1.44699,-1.24947 1.63957,-1.06653 0.59314,0.56346 -0.91014,2.46567 -1.94858,2.46567 -0.53923,0 -0.40017,-0.62961 0.30901,-1.39914 z m 332.60193,0.71603 c 0.72187,-0.28887 1.58438,-0.25335 1.91667,0.0789 0.33229,0.33229 -0.25834,0.56864 -1.3125,0.52522 -1.16495,-0.048 -1.4019,-0.28494 -0.60417,-0.60416 z m -297.65461,-3.31689 c 0,-1.375 0.22698,-1.9375 0.50439,-1.25 0.27741,0.6875 0.27741,1.8125 0,2.5 -0.27741,0.6875 -0.50439,0.125 -0.50439,-1.25 z m 15.03706,-0.5 c 0.0204,-1.65 0.2445,-2.20394 0.49804,-1.23097 0.25354,0.97297 0.23687,2.32297 -0.037,3 -0.27393,0.67703 -0.48137,-0.11903 -0.46099,-1.76903 z m 33.05505,-7.22847 c 2.0625,-0.21574 5.4375,-0.21574 7.5,0 2.0625,0.21575 0.375,0.39226 -3.75,0.39226 -4.125,0 -5.8125,-0.17651 -3.75,-0.39226 z m 67.53352,-0.01 c 2.90594,-0.20265 7.40594,-0.20052 10,0.005 2.59406,0.20525 0.21648,0.37104 -5.28352,0.36844 -5.5,-0.003 -7.62242,-0.17053 -4.71648,-0.37317 z m -81.91108,-12.01153 c -1.24387,-1.58606 -1.2085,-1.62143 0.37756,-0.37756 0.9625,0.75485 1.75,1.54235 1.75,1.75 0,0.82304 -0.82119,0.29331 -2.12756,-1.37244 z m 837.87756,-22.91228 c 0.6875,-0.27741 1.8125,-0.27741 2.5,0 0.6875,0.27741 0.125,0.50439 -1.25,0.50439 -1.375,0 -1.9375,-0.22698 -1.25,-0.50439 z M 18.13199,67.666667 c 0,-28.875 0.12777,-40.6875 0.28394,-26.25 0.15616,14.4375 0.15616,38.0625 0,52.5 -0.15617,14.437503 -0.28394,2.625 -0.28394,-26.25 z m 13.752,17.809017 c -0.11953,-19.080041 0.12017,-34.900113 0.53267,-35.155717 0.4125,-0.255604 0.6353,9.730339 0.49512,22.190983 -0.48773,43.35315 -0.8118,47.44105 -1.02779,12.964734 z M 60.44208,85.07056 c -0.15148,-19.027859 0.06208,-34.804417 0.47458,-35.059017 0.4125,-0.254601 0.75,15.313648 0.75,34.596107 0,19.28246 -0.21356,35.05902 -0.47458,35.05902 -0.26102,0 -0.59852,-15.56825 -0.75,-34.59611 z M 184.13199,67.666667 c 0,-28.875 0.12777,-40.6875 0.28394,-26.25 0.15616,14.4375 0.15616,38.0625 0,52.5 -0.15617,14.437503 -0.28394,2.625 -0.28394,-26.25 z m -233.30744,28 c 0,-1.375 0.22698,-1.9375 0.50439,-1.25 0.27741,0.6875 0.27741,1.8125 0,2.5 -0.27741,0.6875 -0.50439,0.125 -0.50439,-1.25 z m 15,-1 c 0,-1.375 0.22698,-1.9375 0.50439,-1.25 0.27741,0.6875 0.27741,1.8125 0,2.5 -0.27741,0.6875 -0.50439,0.125 -0.50439,-1.25 z m 331.26687,-27 c 0,-11.825 0.14466,-16.6625 0.32145,-10.75 0.1768,5.9125 0.1768,15.5875 0,21.5 -0.17679,5.9125 -0.32145,1.075 -0.32145,-10.75 z M 169.42278,55.417775 c 0.48858,-36.723418 0.8202,-40.099492 1.0315,-10.501108 0.11681,16.3625 -0.12512,29.750499 -0.53762,29.751108 -0.4125,6.09e-4 -0.63475,-8.661891 -0.49388,-19.25 z M 46.33333,67 c -0.36667,-0.366666 -0.66667,-1.131666 -0.66667,-1.7 0,-0.626604 0.46577,-0.567562 1.18333,0.15 0.65084,0.650834 0.95084,1.415834 0.66667,1.7 -0.28417,0.284167 -0.81667,0.216667 -1.18333,-0.15 z M -49.25439,41.083334 c 0.048,-1.164943 0.28494,-1.4019 0.60416,-0.604167 0.28887,0.721875 0.25335,1.584375 -0.0789,1.916667 -0.33229,0.332291 -0.56864,-0.258334 -0.52522,-1.3125 z m 14.13162,0.184192 c 0.70919,-0.769527 1.44699,-1.249466 1.63957,-1.066531 0.59314,0.563459 -0.91014,2.465672 -1.94858,2.465672 -0.53923,0 -0.40017,-0.629613 0.30901,-1.399141 z M -4.54982,30.928263 c 2.90594,-0.202642 7.40594,-0.200512 10,0.0047 2.59406,0.205245 0.21648,0.371043 -5.28352,0.368439 -5.5,-0.0026 -7.62242,-0.170532 -4.71648,-0.373173 z m 348,0 c 2.90594,-0.202642 7.40594,-0.200512 10,0.0047 2.59406,0.205245 0.21648,0.371043 -5.28352,0.368439 -5.5,-0.0026 -7.62242,-0.170532 -4.71648,-0.373173 z"
       id="path58"
       inkscape:connector-curvature="0" />
    <path
       style="fill:#ffffff"
       d="m 255.06405,340.66667 c 0,-7.975 0.1553,-11.2375 0.34512,-7.25 0.18981,3.9875 0.18981,10.5125 0,14.5 -0.18982,3.9875 -0.34512,0.725 -0.34512,-7.25 z m -205.95198,-22 c 0,-17.325 0.13621,-24.4125 0.30269,-15.75 0.16648,8.6625 0.16648,22.8375 0,31.5 -0.16648,8.6625 -0.30269,1.575 -0.30269,-15.75 z m 206.01064,-22.74866 0.0439,-13.75134 9.75232,-0.0573 9.75233,-0.0573 -9.47434,0.34319 -9.47434,0.3432 -0.32194,13.46547 -0.32194,13.46546 0.044,-13.75134 z m 285.82996,-38.75134 c 0.008,-2.75 0.20172,-3.75631 0.43157,-2.23625 0.22986,1.52006 0.22371,3.77006 -0.0136,5 -0.23736,1.22994 -0.42542,-0.0137 -0.41792,-2.76375 z m -746.80161,-57 0.0156,-44 7,-0.0656 7,-0.0656 -6.73963,0.3592 -6.73963,0.3592 -0.27597,43.7064 -0.27598,43.7064 0.0156,-44 z m 63.98093,-7.5 c 0,-28.875 0.12777,-40.6875 0.28394,-26.25 0.15616,14.4375 0.15616,38.0625 0,52.5 -0.15617,14.4375 -0.28394,2.625 -0.28394,-26.25 z m 13.752,17.80902 c -0.11953,-19.08004 0.12017,-34.90012 0.53267,-35.15572 0.4125,-0.2556 0.6353,9.73034 0.49512,22.19098 -0.48773,43.35315 -0.8118,47.44105 -1.02779,12.96474 z m 28.55809,-0.40513 c -0.15148,-19.02786 0.0621,-34.80441 0.47458,-35.05901 0.4125,-0.2546 0.75,15.31364 0.75,34.5961 0,19.28246 -0.21356,35.05902 -0.47458,35.05902 -0.26102,0 -0.59852,-15.56825 -0.75,-34.59611 z M 50.13199,192.66667 c 0,-28.875 0.12777,-40.6875 0.28394,-26.25 0.15616,14.4375 0.15616,38.0625 0,52.5 -0.15617,14.4375 -0.28394,2.625 -0.28394,-26.25 z m 118,0 c 0,-28.875 0.12777,-40.6875 0.28394,-26.25 0.15616,14.4375 0.15616,38.0625 0,52.5 -0.15617,14.4375 -0.28394,2.625 -0.28394,-26.25 z m 97.96346,29.5 c 7e-4,-12.65 0.14401,-17.68711 0.31847,-11.19358 0.17445,6.49353 0.17388,16.84353 -0.001,23 -0.17516,6.15647 -0.31789,0.84358 -0.31719,-11.80642 z m -148.0314,-7.5 c 0,-7.975 0.1553,-11.2375 0.34512,-7.25 0.18981,3.9875 0.18981,10.5125 0,14.5 -0.18982,3.9875 -0.34512,0.725 -0.34512,-7.25 z m 215.04802,-22 c 0,-17.325 0.13621,-24.4125 0.30269,-15.75 0.16648,8.6625 0.16648,22.8375 0,31.5 -0.16648,8.6625 -0.30269,1.575 -0.30269,-15.75 z m 222.8908,24 c 0,-4.125 0.17651,-5.8125 0.39226,-3.75 0.21574,2.0625 0.21574,5.4375 0,7.5 -0.21575,2.0625 -0.39226,0.375 -0.39226,-3.75 z m 102.10919,-24 c 0,-17.325 0.1362,-24.4125 0.3027,-15.75 0.1665,8.6625 0.1665,22.8375 0,31.5 -0.1665,8.6625 -0.3027,1.575 -0.3027,-15.75 z m -987.36645,27.41667 c 0.048,-1.16495 0.28494,-1.4019 0.60416,-0.60417 0.28888,0.72187 0.25335,1.58437 -0.0789,1.91667 -0.33229,0.33229 -0.56864,-0.25834 -0.52522,-1.3125 z m 15,0 c 0.048,-1.16495 0.28494,-1.4019 0.60416,-0.60417 0.28888,0.72187 0.25335,1.58437 -0.0789,1.91667 -0.33229,0.33229 -0.56864,-0.25834 -0.52522,-1.3125 z m 32,0 c 0.048,-1.16495 0.28494,-1.4019 0.60416,-0.60417 0.28888,0.72187 0.25335,1.58437 -0.0789,1.91667 -0.33229,0.33229 -0.56864,-0.25834 -0.52522,-1.3125 z m 374,-8 c 0.048,-1.16495 0.28494,-1.4019 0.60416,-0.60417 0.28887,0.72187 0.25335,1.58437 -0.0789,1.91667 -0.33229,0.33229 -0.56864,-0.25834 -0.52522,-1.3125 z m 26.3771,-42.16533 0.0439,-13.75134 9.75232,-0.0573 9.75233,-0.0573 -9.47434,0.34319 -9.47434,0.3432 -0.32194,13.46547 -0.32194,13.46546 0.044,-13.75134 z m 148,0 0.0439,-13.75134 10.20856,-0.28453 10.20855,-0.28452 0.36345,-7.71548 0.36345,-7.71547 -0.072,8 -0.072,8 -10.22201,0.28467 -10.222,0.28468 -0.32195,13.46667 -0.32195,13.46666 z m 282.25101,6.03141 7.20705,-0.36864 0.35855,-6.70705 0.35854,-6.70706 -0.0656,7 -0.0656,7 -7.5,0.0757 -7.5,0.0757 7.20706,-0.36863 z M 91.74561,173.08334 c 0.048,-1.16495 0.28494,-1.4019 0.60416,-0.60417 0.28887,0.72187 0.25335,1.58437 -0.0789,1.91667 -0.33229,0.33229 -0.56864,-0.25834 -0.52522,-1.3125 z m 278,0 c 0.048,-1.16495 0.28494,-1.4019 0.60416,-0.60417 0.28887,0.72187 0.25335,1.58437 -0.0789,1.91667 -0.33229,0.33229 -0.56864,-0.25834 -0.52522,-1.3125 z m 0,-4 c 0.048,-1.16495 0.28494,-1.4019 0.60416,-0.60417 0.28887,0.72187 0.25335,1.58437 -0.0789,1.91667 -0.33229,0.33229 -0.56864,-0.25834 -0.52522,-1.3125 z m -699,-3 c 0.048,-1.16495 0.28494,-1.4019 0.60416,-0.60417 0.28887,0.72187 0.25335,1.58437 -0.0789,1.91667 -0.33229,0.33229 -0.56864,-0.25834 -0.52522,-1.3125 z m 14.13162,0.18419 c 0.70919,-0.76953 1.44699,-1.24947 1.63957,-1.06653 0.59314,0.56346 -0.91014,2.46567 -1.94858,2.46567 -0.53923,0 -0.40017,-0.62961 0.30901,-1.39914 z m 34.94732,-2.60086 c 0,-1.375 0.22698,-1.9375 0.50439,-1.25 0.27741,0.6875 0.27741,1.8125 0,2.5 -0.27741,0.6875 -0.50439,0.125 -0.50439,-1.25 z m 15.03706,-0.5 c 0.0204,-1.65 0.2445,-2.20394 0.49804,-1.23097 0.25354,0.97297 0.23687,2.32297 -0.037,3 -0.27393,0.67703 -0.48137,-0.11903 -0.46099,-1.76903 z m 33.05505,-7.22847 c 2.0625,-0.21574 5.4375,-0.21574 7.5,0 2.0625,0.21575 0.375,0.39226 -3.75,0.39226 -4.125,0 -5.8125,-0.17651 -3.75,-0.39226 z m 67.53352,-0.01 c 2.90594,-0.20265 7.40594,-0.20052 10,0.005 2.59406,0.20525 0.21648,0.37104 -5.28352,0.36844 -5.5,-0.003 -7.62242,-0.17053 -4.71648,-0.37317 z M 18.13199,67.666667 c 0,-28.875 0.12777,-40.6875 0.28394,-26.25 0.15616,14.4375 0.15616,38.0625 0,52.5 -0.15617,14.437503 -0.28394,2.625 -0.28394,-26.25 z m 13.752,17.809017 c -0.11953,-19.080041 0.12017,-34.900113 0.53267,-35.155717 0.4125,-0.255604 0.6353,9.730339 0.49512,22.190983 -0.48773,43.35315 -0.8118,47.44105 -1.02779,12.964734 z M 60.44208,85.07056 c -0.15148,-19.027859 0.06208,-34.804417 0.47458,-35.059017 0.4125,-0.254601 0.75,15.313648 0.75,34.596107 0,19.28246 -0.21356,35.05902 -0.47458,35.05902 -0.26102,0 -0.59852,-15.56825 -0.75,-34.59611 z M 184.13199,67.666667 c 0,-28.875 0.12777,-40.6875 0.28394,-26.25 0.15616,14.4375 0.15616,38.0625 0,52.5 -0.15617,14.437503 -0.28394,2.625 -0.28394,-26.25 z M -49.25439,95.083334 c 0.048,-1.164943 0.28494,-1.4019 0.60416,-0.604167 0.28887,0.721875 0.25335,1.584375 -0.0789,1.916667 -0.33229,0.332291 -0.56864,-0.258334 -0.52522,-1.3125 z m 15,0 c 0.048,-1.164943 0.28494,-1.4019 0.60416,-0.604167 0.28887,0.721875 0.25335,1.584375 -0.0789,1.916667 -0.33229,0.332291 -0.56864,-0.258334 -0.52522,-1.3125 z M 296.98673,81.666667 c 0,-3.575 0.1815,-5.0375 0.40333,-3.25 0.22182,1.7875 0.22182,4.7125 0,6.5 -0.22183,1.7875 -0.40333,0.325 -0.40333,-3.25 z M 169.42278,55.417775 c 0.48858,-36.723418 0.8202,-40.099492 1.0315,-10.501108 0.11681,16.3625 -0.12512,29.750499 -0.53762,29.751108 -0.4125,6.09e-4 -0.63475,-8.661891 -0.49388,-19.25 z m 127.56395,-1.751108 c 0,-3.575 0.1815,-5.0375 0.40333,-3.25 0.22182,1.7875 0.22182,4.7125 0,6.5 -0.22183,1.7875 -0.40333,0.325 -0.40333,-3.25 z M -49.25439,41.083334 c 0.048,-1.164943 0.28494,-1.4019 0.60416,-0.604167 0.28887,0.721875 0.25335,1.584375 -0.0789,1.916667 -0.33229,0.332291 -0.56864,-0.258334 -0.52522,-1.3125 z m 14.13162,0.184192 c 0.70919,-0.769527 1.44699,-1.249466 1.63957,-1.066531 0.59314,0.563459 -0.91014,2.465672 -1.94858,2.465672 -0.53923,0 -0.40017,-0.629613 0.30901,-1.399141 z M -4.54982,30.928263 c 2.90594,-0.202642 7.40594,-0.200512 10,0.0047 2.59406,0.205245 0.21648,0.371043 -5.28352,0.368439 -5.5,-0.0026 -7.62242,-0.170532 -4.71648,-0.373173 z m 348,0 c 2.90594,-0.202642 7.40594,-0.200512 10,0.0047 2.59406,0.205245 0.21648,0.371043 -5.28352,0.368439 -5.5,-0.0026 -7.62242,-0.170532 -4.71648,-0.373173 z"
       id="path56"
       inkscape:connector-curvature="0" />
    <path
       style="fill:#ffffff"
       d="m 255.06405,340.66667 c 0,-7.975 0.1553,-11.2375 0.34512,-7.25 0.18981,3.9875 0.18981,10.5125 0,14.5 -0.18982,3.9875 -0.34512,0.725 -0.34512,-7.25 z m -205.95198,-22 c 0,-17.325 0.13621,-24.4125 0.30269,-15.75 0.16648,8.6625 0.16648,22.8375 0,31.5 -0.16648,8.6625 -0.30269,1.575 -0.30269,-15.75 z m 205.94915,-22.5 c 0.002,-7.7 0.15853,-10.71781 0.34883,-6.70625 0.1903,4.01156 0.18902,10.31156 -0.003,14 -0.19169,3.68844 -0.34739,0.40625 -0.34583,-7.29375 z m 285.89145,-39 c 0.008,-2.75 0.20172,-3.75631 0.43157,-2.23625 0.22986,1.52006 0.22371,3.77006 -0.0136,5 -0.23736,1.22994 -0.42542,-0.0137 -0.41792,-2.76375 z m -746.82627,-56.5 c 0,-24.475 0.13017,-34.4875 0.28926,-22.25 0.15909,12.2375 0.15909,32.2625 0,44.5 -0.15909,12.2375 -0.28926,2.225 -0.28926,-22.25 z m 64.00559,-8 c 0,-28.875 0.12777,-40.6875 0.28394,-26.25 0.15616,14.4375 0.15616,38.0625 0,52.5 -0.15617,14.4375 -0.28394,2.625 -0.28394,-26.25 z m 42.31009,17.40389 c -0.15148,-19.02786 0.0621,-34.80441 0.47458,-35.05901 0.4125,-0.2546 0.75,15.31364 0.75,34.5961 0,19.28246 -0.21356,35.05902 -0.47458,35.05902 -0.26102,0 -0.59852,-15.56825 -0.75,-34.59611 z M 50.13199,192.66667 c 0,-28.875 0.12777,-40.6875 0.28394,-26.25 0.15616,14.4375 0.15616,38.0625 0,52.5 -0.15617,14.4375 -0.28394,2.625 -0.28394,-26.25 z m 118,0 c 0,-28.875 0.12777,-40.6875 0.28394,-26.25 0.15616,14.4375 0.15616,38.0625 0,52.5 -0.15617,14.4375 -0.28394,2.625 -0.28394,-26.25 z m 97.96346,29.5 c 7e-4,-12.65 0.14401,-17.68711 0.31847,-11.19358 0.17445,6.49353 0.17388,16.84353 -0.001,23 -0.17516,6.15647 -0.31789,0.84358 -0.31719,-11.80642 z m -148.0314,-7.5 c 0,-7.975 0.1553,-11.2375 0.34512,-7.25 0.18981,3.9875 0.18981,10.5125 0,14.5 -0.18982,3.9875 -0.34512,0.725 -0.34512,-7.25 z m 215.04802,-22 c 0,-17.325 0.13621,-24.4125 0.30269,-15.75 0.16648,8.6625 0.16648,22.8375 0,31.5 -0.16648,8.6625 -0.30269,1.575 -0.30269,-15.75 z m 222.8908,24 c 0,-4.125 0.17651,-5.8125 0.39226,-3.75 0.21574,2.0625 0.21574,5.4375 0,7.5 -0.21575,2.0625 -0.39226,0.375 -0.39226,-3.75 z m 102.10919,-24 c 0,-17.325 0.1362,-24.4125 0.3027,-15.75 0.1665,8.6625 0.1665,22.8375 0,31.5 -0.1665,8.6625 -0.3027,1.575 -0.3027,-15.75 z m -972.36645,27.41667 c 0.048,-1.16495 0.28494,-1.4019 0.60416,-0.60417 0.28888,0.72187 0.25335,1.58437 -0.0789,1.91667 -0.33229,0.33229 -0.56864,-0.25834 -0.52522,-1.3125 z m 406,-8 c 0.048,-1.16495 0.28494,-1.4019 0.60416,-0.60417 0.28887,0.72187 0.25335,1.58437 -0.0789,1.91667 -0.33229,0.33229 -0.56864,-0.25834 -0.52522,-1.3125 z m 26.31561,-41.91667 c 0.002,-7.7 0.15853,-10.71781 0.34883,-6.70625 0.1903,4.01156 0.18902,10.31156 -0.003,14 -0.19169,3.68844 -0.34739,0.40625 -0.34583,-7.29375 z m 148,0 c 0.002,-7.7 0.15853,-10.71781 0.34883,-6.70625 0.1903,4.01156 0.18902,10.31156 -0.003,14 -0.19169,3.68844 -0.34739,0.40625 -0.34583,-7.29375 z m 282.3125,5.78275 7.20705,-0.36864 0.35855,-6.70705 0.35854,-6.70706 -0.0656,7 -0.0656,7 -7.5,0.0757 -7.5,0.0757 7.20706,-0.36863 z M 91.74561,173.08334 c 0.048,-1.16495 0.28494,-1.4019 0.60416,-0.60417 0.28887,0.72187 0.25335,1.58437 -0.0789,1.91667 -0.33229,0.33229 -0.56864,-0.25834 -0.52522,-1.3125 z m 278,0 c 0.048,-1.16495 0.28494,-1.4019 0.60416,-0.60417 0.28887,0.72187 0.25335,1.58437 -0.0789,1.91667 -0.33229,0.33229 -0.56864,-0.25834 -0.52522,-1.3125 z m 0,-4 c 0.048,-1.16495 0.28494,-1.4019 0.60416,-0.60417 0.28887,0.72187 0.25335,1.58437 -0.0789,1.91667 -0.33229,0.33229 -0.56864,-0.25834 -0.52522,-1.3125 z m -649.92106,-5.41667 c 0,-1.375 0.22698,-1.9375 0.50439,-1.25 0.27741,0.6875 0.27741,1.8125 0,2.5 -0.27741,0.6875 -0.50439,0.125 -0.50439,-1.25 z m 15,0 c 0,-1.375 0.22698,-1.9375 0.50439,-1.25 0.27741,0.6875 0.27741,1.8125 0,2.5 -0.27741,0.6875 -0.50439,0.125 -0.50439,-1.25 z m 552.18492,-15.5 c 0.004,-4.4 0.17944,-6.07561 0.39069,-3.72357 0.21124,2.35204 0.20827,5.95204 -0.007,8 -0.21487,2.04796 -0.38771,0.12357 -0.38408,-4.27643 z M 18.13199,67.666667 c 0,-28.875 0.12777,-40.6875 0.28394,-26.25 0.15616,14.4375 0.15616,38.0625 0,52.5 -0.15617,14.437503 -0.28394,2.625 -0.28394,-26.25 z M 60.44208,85.07056 c -0.15148,-19.027859 0.06208,-34.804417 0.47458,-35.059017 0.4125,-0.254601 0.75,15.313648 0.75,34.596107 0,19.28246 -0.21356,35.05902 -0.47458,35.05902 -0.26102,0 -0.59852,-15.56825 -0.75,-34.59611 z M 184.13199,67.666667 c 0,-28.875 0.12777,-40.6875 0.28394,-26.25 0.15616,14.4375 0.15616,38.0625 0,52.5 -0.15617,14.437503 -0.28394,2.625 -0.28394,-26.25 z M -34.25439,95.083334 c 0.048,-1.164943 0.28494,-1.4019 0.60416,-0.604167 0.28887,0.721875 0.25335,1.584375 -0.0789,1.916667 -0.33229,0.332291 -0.56864,-0.258334 -0.52522,-1.3125 z M 296.93902,83.666667 c 0,-2.475 0.19502,-3.4875 0.43337,-2.25 0.23836,1.2375 0.23836,3.2625 0,4.5 -0.23835,1.2375 -0.43337,0.225 -0.43337,-2.25 z M 169.42278,55.417775 c 0.48858,-36.723418 0.8202,-40.099492 1.0315,-10.501108 0.11681,16.3625 -0.12512,29.750499 -0.53762,29.751108 -0.4125,6.09e-4 -0.63475,-8.661891 -0.49388,-19.25 z m 127.51624,-3.751108 c 0,-2.475 0.19502,-3.4875 0.43337,-2.25 0.23836,1.2375 0.23836,3.2625 0,4.5 -0.23835,1.2375 -0.43337,0.225 -0.43337,-2.25 z"
       id="path54"
       inkscape:connector-curvature="0" />
    <path
       style="fill:#ffffff"
       d="m 49.1113,318.16667 c -4.2e-4,-17.05 0.13593,-24.16558 0.30301,-15.81241 0.16707,8.35318 0.16742,22.30318 7.7e-4,31 -0.16665,8.69683 -0.30335,1.86241 -0.30378,-15.18759 z m -254.9849,-117.5 c 0,-24.475 0.13017,-34.4875 0.28926,-22.25 0.15909,12.2375 0.15909,32.2625 0,44.5 -0.15909,12.2375 -0.28926,2.225 -0.28926,-22.25 z m 106.99044,9.5 c 3.4e-4,-19.25 0.13469,-26.98347 0.29856,-17.1855 0.16386,9.79798 0.16358,25.54798 -6.2e-4,35 -0.16421,9.45203 -0.29828,1.4355 -0.29794,-17.8145 z m 431.99446,-18 c -4.2e-4,-17.05 0.13593,-24.16558 0.30301,-15.81241 0.16707,8.35318 0.16742,22.30318 7.7e-4,31 -0.16665,8.69683 -0.30335,1.86241 -0.30378,-15.18759 z m 222.8835,24 c 0.004,-3.85 0.18518,-5.30246 0.40166,-3.2277 0.21647,2.07477 0.21284,5.22477 -0.008,7 -0.22091,1.77524 -0.39803,0.0777 -0.39359,-3.7723 z m 102.11646,-24 c -4e-4,-17.05 0.136,-24.16558 0.303,-15.81241 0.1671,8.35318 0.1675,22.30318 8e-4,31 -0.1666,8.69683 -0.3033,1.86241 -0.3038,-15.18759 z m -108.73751,-16.22633 6.2071,-0.36309 0.36859,-7.20529 0.3686,-7.20529 -0.0757,7.5 -0.0757,7.5 -6.5,0.0684 -6.5,0.0684 6.20709,-0.3631 z m -829.62814,-12.857 c 0.048,-1.16495 0.28494,-1.4019 0.60416,-0.60417 0.28887,0.72187 0.25335,1.58437 -0.0789,1.91667 -0.33229,0.33229 -0.56864,-0.25834 -0.52522,-1.3125 z M 61.11684,85.166667 c 3.4e-4,-19.25 0.13469,-26.983473 0.29856,-17.185495 0.16386,9.797978 0.16358,25.547978 -6.2e-4,34.999998 -0.16421,9.45202 -0.29828,1.4355 -0.29794,-17.814503 z m 123.01515,-17.5 c 0,-28.875 0.12777,-40.6875 0.28394,-26.25 0.15616,14.4375 0.15616,38.0625 0,52.5 -0.15617,14.437503 -0.28394,2.625 -0.28394,-26.25 z m 112.76667,16 c 0,-1.925 0.2058,-2.7125 0.45733,-1.75 0.25152,0.9625 0.25152,2.5375 0,3.5 -0.25153,0.9625 -0.45733,0.175 -0.45733,-1.75 z m -126.78894,-38.5 c -4.5e-4,-16.5 0.13655,-23.390314 0.30444,-15.311809 0.16789,8.078506 0.16826,21.578506 8.2e-4,30 -0.16745,8.421495 -0.30481,1.811809 -0.30526,-14.688191 z m 126.75189,6 c 0.0204,-1.65 0.2445,-2.203936 0.49804,-1.230968 0.25354,0.972967 0.23687,2.322967 -0.0371,3 -0.27388,0.677032 -0.48132,-0.119032 -0.46094,-1.769032 z"
       id="path52"
       inkscape:connector-curvature="0" />
    <path
       style="fill:#ffffff"
       d="m -205.8736,200.66667 c 0,-24.475 0.13017,-34.4875 0.28926,-22.25 0.15909,12.2375 0.15909,32.2625 0,44.5 -0.15909,12.2375 -0.28926,2.225 -0.28926,-22.25 z m 106.99044,9.5 c 3.4e-4,-19.25 0.13469,-26.98347 0.29856,-17.1855 0.16386,9.79798 0.16358,25.54798 -6.2e-4,35 -0.16421,9.45203 -0.29828,1.4355 -0.29794,-17.8145 z m 160,-125.000003 c 3.4e-4,-19.25 0.13469,-26.983473 0.29856,-17.185495 0.16386,9.797978 0.16358,25.547978 -6.2e-4,34.999998 -0.16421,9.45202 -0.29828,1.4355 -0.29794,-17.814503 z m 235.62877,-1.083333 c 0.048,-1.164943 0.28494,-1.4019 0.60416,-0.604167 0.28887,0.721875 0.25335,1.584375 -0.0789,1.916667 -0.33229,0.332291 -0.56864,-0.258334 -0.52522,-1.3125 z"
       id="path50"
       inkscape:connector-curvature="0" />
    <path
       style="fill:#ffffff"
       d="m -205.8736,200.66667 c 0,-24.475 0.13017,-34.4875 0.28926,-22.25 0.15909,12.2375 0.15909,32.2625 0,44.5 -0.15909,12.2375 -0.28926,2.225 -0.28926,-22.25 z m 106.99044,9.5 c 3.4e-4,-19.25 0.13469,-26.98347 0.29856,-17.1855 0.16386,9.79798 0.16358,25.54798 -6.2e-4,35 -0.16421,9.45203 -0.29828,1.4355 -0.29794,-17.8145 z m 160,-125.000003 c 3.4e-4,-19.25 0.13469,-26.983473 0.29856,-17.185495 0.16386,9.797978 0.16358,25.547978 -6.2e-4,34.999998 -0.16421,9.45202 -0.29828,1.4355 -0.29794,-17.814503 z"
       id="path48"
       inkscape:connector-curvature="0" />
  </g>
</svg>
